<svg xmlns="http://www.w3.org/2000/svg" width="266.021" height="111.174" viewBox="0 0 266.021 111.174"><path d="M119.148 90.062c4.825 1.485 6.774 3.48 6.774 6.866 0 4.316-3.34 6.961-8.723 6.961-3.527 0-6.032-1.067-7.702-3.294-.788-1.022-1.439-2.554-1.439-3.388 0-1.067.928-1.995 2.041-1.995 1.022 0 1.532.463 1.95 1.903.696 2.273 2.598 3.572 5.243 3.572 2.691 0 4.593-1.438 4.593-3.388 0-1.762-.789-2.411-3.944-3.48l-2.969-.927c-4.131-1.345-5.846-3.156-5.846-6.171 0-3.944 3.155-6.496 7.98-6.496 3.201 0 5.708 1.067 7.238 3.015.789 1.022 1.3 2.227 1.3 3.017 0 .928-.836 1.717-1.856 1.717-.743 0-1.206-.371-1.624-1.207-.51-1.114-.743-1.577-1.115-1.949-.88-.974-2.319-1.531-3.943-1.531-2.459 0-4.129 1.206-4.129 2.923 0 1.485.788 2.18 3.201 2.97l2.97.882zM144.338 82.22c.465-1.299 1.066-1.856 2.088-1.856 1.066 0 1.994.881 1.994 1.902 0 .325-.092.743-.23 1.206l-7.008 19.813c-1.809 5.15-2.413 6.218-4.221 7.146-.882.463-2.367.743-3.712.743-1.995 0-3.109-.696-3.109-1.996 0-1.021.51-1.669 1.345-1.669.186 0 .464 0 .835.044.418.094.789.094 1.161.094 1.994 0 2.876-.928 3.989-4.13l-7.609-19.812c-.231-.604-.371-1.114-.371-1.439 0-.974 1.021-1.902 2.088-1.902 1.021 0 1.578.51 2.042 1.762l5.66 15.637 5.058-15.543zM161.918 90.062c4.826 1.485 6.775 3.48 6.775 6.866 0 4.316-3.34 6.961-8.723 6.961-3.527 0-6.033-1.067-7.703-3.294-.789-1.022-1.438-2.554-1.438-3.388 0-1.067.928-1.995 2.041-1.995 1.021 0 1.531.463 1.949 1.903.695 2.273 2.598 3.572 5.242 3.572 2.691 0 4.594-1.438 4.594-3.388 0-1.762-.789-2.411-3.943-3.48l-2.971-.927c-4.129-1.345-5.846-3.156-5.846-6.171 0-3.944 3.156-6.496 7.982-6.496 3.199 0 5.707 1.067 7.236 3.015.789 1.022 1.301 2.227 1.301 3.017 0 .928-.836 1.717-1.855 1.717-.742 0-1.207-.371-1.625-1.207-.512-1.114-.744-1.577-1.115-1.949-.881-.974-2.318-1.531-3.941-1.531-2.461 0-4.131 1.206-4.131 2.923 0 1.485.789 2.18 3.201 2.97l2.97.882zM181.078 80.688c1.299 0 2.086.65 2.086 1.67 0 1.114-.787 1.718-2.086 1.718h-2.229v13.177c0 2.227.698 2.876 3.019 2.923.973 0 1.715.742 1.715 1.717 0 1.021-.742 1.67-1.902 1.67h-1.02c-2.322 0-3.48-.371-4.455-1.298-1.02-1.067-1.391-2.321-1.391-4.734V84.077h-1.996c-1.301 0-2.043-.604-2.043-1.718 0-1.066.742-1.67 2.043-1.67h1.996v-4.64c0-1.577.742-2.46 1.993-2.46 1.3 0 2.041.883 2.041 2.46v4.64h2.229zM189.705 93.032c.092 4.825 2.506 7.469 6.729 7.469 2.506 0 4.084-.928 5.66-3.386.65-1.022 1.066-1.301 1.902-1.301 1.16 0 1.996.789 1.996 1.856 0 .651-.324 1.44-.928 2.182-2.137 2.644-5.15 4.036-8.539 4.036-6.729 0-10.996-4.546-10.996-11.739 0-7.053 4.361-11.925 10.764-11.925 5.801 0 9.977 4.315 9.977 10.393 0 1.811-.555 2.415-2.273 2.415h-14.292zm12.574-3.249c-.465-4.083-2.551-6.172-6.125-6.172-3.525 0-5.707 2.089-6.357 6.172h12.482zM211.693 82.823c0-1.531.744-2.459 2.041-2.459 1.022 0 1.764.695 1.949 1.762.047.28.047.418.047 1.068 1.623-1.996 3.76-2.97 6.311-2.97 2.783 0 4.779 1.114 6.264 3.481 1.949-2.367 4.27-3.481 7.238-3.481 4.826 0 7.377 2.83 7.377 8.074v12.992c0 1.532-.742 2.46-1.994 2.46-1.299 0-2.041-.928-2.041-2.46V88.577c0-3.202-1.486-4.826-4.363-4.826-1.484 0-2.83.649-3.852 1.81-.928 1.02-1.346 2.552-1.346 4.732v10.997c0 1.532-.742 2.46-1.994 2.46-1.299 0-2.041-.928-2.041-2.46V88.761c0-3.34-1.439-4.964-4.361-4.964-1.855 0-3.389.836-4.27 2.366-.742 1.16-.928 2.274-.928 5.058v10.069c0 1.532-.742 2.46-1.996 2.46-1.297 0-2.041-.928-2.041-2.46V82.823zM259.246 90.062c4.826 1.485 6.775 3.48 6.775 6.866 0 4.316-3.342 6.961-8.725 6.961-3.525 0-6.031-1.067-7.703-3.294-.789-1.022-1.438-2.554-1.438-3.388 0-1.067.928-1.995 2.041-1.995 1.021 0 1.531.463 1.949 1.903.695 2.273 2.598 3.572 5.244 3.572 2.691 0 4.592-1.438 4.592-3.388 0-1.762-.787-2.411-3.943-3.48l-2.971-.927c-4.127-1.345-5.846-3.156-5.846-6.171 0-3.944 3.156-6.496 7.982-6.496 3.201 0 5.705 1.067 7.238 3.015.789 1.022 1.299 2.227 1.299 3.017 0 .928-.834 1.717-1.855 1.717-.744 0-1.207-.371-1.625-1.207-.512-1.114-.742-1.577-1.113-1.949-.883-.974-2.32-1.531-3.943-1.531-2.461 0-4.131 1.207-4.131 2.923 0 1.485.789 2.18 3.201 2.97l2.972.882z"/><path fill="#2B93D1" d="M0 0h100v91H0z"/><path fill="#FFF" d="M53.406 68.354c0 7.332-4.222 11.832-11.043 11.832-6.496 0-10.626-4.685-10.626-12.017 0-6.959 4.363-11.646 10.812-11.646 6.635 0 10.857 4.593 10.857 11.831m-17.492.047c0 5.429 2.413 8.538 6.682 8.538 4.175 0 6.634-3.109 6.634-8.352 0-5.568-2.366-8.677-6.588-8.677-4.315 0-6.728 3.062-6.728 8.491M62.82 77.587c0 1.532-.743 2.459-2.042 2.459-1.252 0-1.995-.927-1.995-2.459v-26.68c0-1.531.743-2.458 1.995-2.458 1.299 0 2.042.882 2.042 2.458v26.68zM72.376 68.401c0 5.15 2.505 8.399 6.449 8.399 2.691 0 4.593-1.346 5.707-4.038.511-1.253 1.021-1.669 1.949-1.669 1.16 0 1.995.834 1.995 1.901 0 1.161-.603 2.507-1.578 3.712-1.948 2.366-4.593 3.48-8.12 3.48-3.247 0-5.799-.973-7.563-2.923-1.902-2.133-3.016-5.427-3.016-9.001 0-7.099 4.269-11.739 10.765-11.739 3.202 0 5.707 1.066 7.609 3.247.836.975 1.485 2.274 1.485 3.11 0 1.067-.928 1.995-2.041 1.995-.974 0-1.485-.418-2.042-1.624-.928-2.227-2.599-3.341-5.057-3.341-4.037 0-6.542 3.247-6.542 8.491"/></svg>