<?xml version="1.0" encoding="UTF-8" standalone="no"?>
<!-- Created with Inkscape (http://www.inkscape.org/) -->

<svg
   xmlns:dc="http://purl.org/dc/elements/1.1/"
   xmlns:cc="http://creativecommons.org/ns#"
   xmlns:rdf="http://www.w3.org/1999/02/22-rdf-syntax-ns#"
   xmlns:svg="http://www.w3.org/2000/svg"
   xmlns="http://www.w3.org/2000/svg"
   xmlns:sodipodi="http://sodipodi.sourceforge.net/DTD/sodipodi-0.dtd"
   xmlns:inkscape="http://www.inkscape.org/namespaces/inkscape"
   version="1.1"
   id="svg2"
   width="354.69208"
   height="169.61746"
   viewBox="0 0 354.69209 169.61746"
   sodipodi:docname="banner-city2.svg"
   inkscape:version="0.92.2 (5c3e80d, 2017-08-06)">
  <metadata
     id="metadata8">
    <rdf:RDF>
      <cc:Work
         rdf:about="">
        <dc:format>image/svg+xml</dc:format>
        <dc:type
           rdf:resource="http://purl.org/dc/dcmitype/StillImage" />
        <dc:title></dc:title>
      </cc:Work>
    </rdf:RDF>
  </metadata>
  <defs
     id="defs6" />
  <sodipodi:namedview
     pagecolor="#ffffff"
     bordercolor="#666666"
     borderopacity="1"
     objecttolerance="10"
     gridtolerance="10"
     guidetolerance="10"
     inkscape:pageopacity="0"
     inkscape:pageshadow="2"
     inkscape:window-width="1858"
     inkscape:window-height="1057"
     id="namedview4"
     showgrid="false"
     inkscape:zoom="1"
     inkscape:cx="646.76293"
     inkscape:cy="-55.17326"
     inkscape:window-x="54"
     inkscape:window-y="-8"
     inkscape:window-maximized="1"
     inkscape:current-layer="layer2"
     showguides="true"
     inkscape:guide-bbox="true"
     fit-margin-top="0"
     fit-margin-left="0"
     fit-margin-right="0"
     fit-margin-bottom="0">
    <sodipodi:guide
       position="354.69207,-122.20281"
       orientation="1,0"
       id="guide5284"
       inkscape:locked="false" />
    <sodipodi:guide
       position="628.34242,-28.157637"
       orientation="1,0"
       id="guide5286"
       inkscape:locked="false" />
    <sodipodi:guide
       position="986.84553,5.7834825"
       orientation="1,0"
       id="guide5288"
       inkscape:locked="false" />
    <sodipodi:guide
       position="59.396975,299.81327"
       orientation="0,1"
       inkscape:locked="false"
       id="guide1611" />
  </sodipodi:namedview>
  <g
     inkscape:groupmode="layer"
     id="layer2"
     inkscape:label="Layer 2"
     transform="translate(-254.83398,-125.20431)">
    <g
       id="g1272"
       transform="translate(16)"
       style="fill:#fa023c">
      <g
         style="fill:#fa023c;stroke:none"
         transform="matrix(0.02388699,0,0,0.02388699,1514.8053,-132.19665)"
         id="layer1-3" />
      <g
         style="fill:#fa023c;stroke:none"
         transform="matrix(0.00634024,0,0,0.00634024,1326.3286,256.21784)"
         id="layer1-6" />
      <g
         id="g917"
         transform="matrix(-0.01851576,0,0,0.01851576,1222.0756,-37.508575)"
         style="fill:#fa023c;stroke:none" />
      <g
         transform="matrix(0.0223685,0,0,0.0223685,1414.0491,264.25718)"
         id="g985"
         style="fill:#fa023c" />
      <g
         id="g1228"
         transform="matrix(0.01791895,0,0,0.03104793,1556.4419,-259.42378)"
         style="fill:#fa023c;stroke:none" />
    </g>
    <rect
       style="fill:#d40000;fill-opacity:1"
       id="rect5196"
       width="0.15609741"
       height="1.9356759e-05"
       x="257.83334"
       y="424.67587" />
    <path
       style="fill:#ffffff;fill-opacity:1"
       d="M 254.83398,125.20431 H 609.52539 V 293.08984 H 254.83398 Z"
       id="rect1613"
       inkscape:connector-curvature="0" />
    <path
       style="fill:#ffffff;fill-opacity:1;stroke-width:0.87836021"
       d="M 609.52606,125.20431 H 883.17639 V 293.08984 H 609.52606 Z"
       id="rect1625"
       inkscape:connector-curvature="0" />
    <path
       style="fill:#ffffff;fill-opacity:1;stroke-width:1.00535905"
       d="M 883.17639,125.20431 H 1241.6796 V 293.08984 H 883.17639 Z"
       id="rect1627"
       inkscape:connector-curvature="0" />
    <path
       style="fill:#ffffff;fill-opacity:1;stroke-width:1.04205155"
       d="m 1241.6794,125.20431 h 385.1493 v 167.88553 h -385.1493 z"
       id="rect1629"
       inkscape:connector-curvature="0" />
    <path
       style="fill:#e51f40;fill-opacity:1;stroke-width:1.19787383"
       d="m 503.19531,182.04297 -1.04492,14.28515 -0.29297,0.72852 -0.29297,7.00977 -0.38867,0.24414 -0.36523,5.35351 -0.48633,0.33985 -0.19531,3.45703 -0.82813,0.0254 -0.0234,-2.41016 -1.1914,-9.00586 -1.02344,9.00586 -0.0488,8.61328 h 0.60938 l 0.0234,0.80274 0.80274,0.0254 0.0234,0.73047 0.70703,0.0234 0.0488,7.8125 c -1.04074,0 -2.07449,0.0125 -3.11524,0.0234 l -0.0488,-4.7207 c -0.36508,-3.35895 -0.37494,-6.64176 -0.60742,-10.00195 -0.25782,3.41136 -0.68728,6.59352 -0.85351,9.92968 v 8.75977 h -0.77735 c -1.18016,0.45792 -0.76795,0.93074 -0.80273,1.38867 h 1.43554 l 0.0488,0.75391 1.58203,0.82617 v 39.06055 l -1.36328,-0.0254 v -0.97265 l -1.21875,-0.0195 0.0742,-5.11133 c 0,0 0.0135,0.11745 0.46289,0.0684 1.64537,-0.59805 -0.0137,-1.07031 -0.0488,-1.07031 h -0.85156 l -0.82812,-3.21289 -0.0469,-5.57227 c -0.13183,-2.5224 -0.27667,-4.66398 -0.53711,-0.0488 l -0.0488,5.64649 -1.02148,3.0664 -0.90039,-0.0488 c -0.93218,0.36802 -0.98531,0.7511 0.0488,1.11915 l 0.45898,-0.0195 0.0469,5.98633 -1.94141,0.0449 -5.33008,-5.55078 -0.2207,-3.33203 c -0.19473,-0.78461 -0.35958,-2.09915 -0.67969,0 l -0.14648,3.38281 -9.95313,10.26953 -0.80273,-0.0469 -0.0488,1.58008 h 0.80273 v 0.92383 h 0.65625 v 9.90625 l -2.26367,-0.0234 v -6.25391 h -0.67969 v -5.2832 h 0.75391 l -0.97266,-0.80274 v -0.63281 l -1.33984,-0.0234 v -0.85157 c 2.75348,-0.33215 0.31779,-4.20974 -1.76172,-3.75976 l -0.0234,-5.28321 0.97461,0.0508 v -1.02343 h -0.80273 l 0.0488,-2.18946 -0.92383,-0.65625 v -1.02343 c 0.8864,-0.47109 0.94182,-0.99288 -0.0254,-1.55664 l -0.82813,-6.91211 -0.97265,6.91211 c -0.60788,0.40806 -1.34703,0.80663 0.0234,1.48437 v 1.02149 l -1.14258,0.65625 -0.0254,2.23828 -0.63282,0.0254 v 0.94922 l 0.76368,0.0937 0.0742,5.04492 c -2.75176,-0.45526 -4.263,4.24554 -1.68164,3.75781 v 0.84961 h -1.04492 l 0.0723,0.63477 -2.92188,1.89843 v 5.23047 l -1.6289,-0.0234 v -4.76953 l -1.75391,-0.0488 -0.0234,3.94335 -2.91992,-0.0254 0.0234,-7.83593 -1.48242,-0.0234 -0.0996,-6.10938 c 1.05078,-0.85065 0.44675,-1.42238 -0.0234,-2.01953 -1.11458,-0.0316 -1.8211,-0.0654 -1.89844,-1.26562 -0.4477,-11.20799 -7.8411,-15.67659 -14.60156,-17.64453 l 0.0723,-6.20508 h 1.11914 l 0.0742,-1.38672 h -1.26562 c -0.0215,-3.36591 -1.89419,-3.76221 -3.45508,-4.16211 l -0.36719,-4.25977 -0.60742,-0.0469 -0.48633,4.30664 c -1.77987,0.4805 -3.72764,0.7863 -3.69921,4.16016 l -1.31446,0.14648 v 1.12109 l 1.38867,0.0488 v 6.27735 c -11.75778,2.33163 -14.54659,11.9459 -14.45703,17.1582 l -3.40625,2.72461 0.0723,10.07617 h -2.23828 v 1.04688 l 1.46093,0.0742 0.0723,0.89844 -0.82812,-0.0723 v 3.13867 l -3.55079,-0.14649 c -0.13648,-7.67893 -0.2995,-15.40059 -0.32031,-23.41211 l -3.55273,-9.02734 -8.85938,-0.0742 v -1.55664 l -0.82617,-0.0254 0.0234,-1.58203 -0.68164,-0.0234 -0.0742,-1.46094 v -3.13867 l -1.53125,-0.0488 -0.0254,-2.33593 -0.70508,0.0234 -0.12109,-7.0332 -0.90039,-5.98633 v -0.85156 h 0.55859 v -0.38867 h -0.58399 v -0.60938 h -0.38867 v 0.60938 h -0.48828 v 0.36523 h 0.53711 l -0.0488,0.875 -0.46289,5.98633 v 4.69727 l -1.33984,-0.0234 0.0254,-4.64844 -0.36524,-6.03711 c 0.024,-0.40198 0.0243,-0.63607 0.0234,-0.92383 l 0.56055,0.0254 v -0.41602 h -0.50977 l 0.0234,-0.55859 h -0.4375 v 0.53515 l -0.48828,0.0234 c -0.029,0.31545 -0.009,0.24035 0,0.41602 L 381,229.08398 c -0.035,0.2786 -0.0178,0.57569 -0.0723,0.92383 l -0.36523,3.04297 -0.38867,2.96875 -0.0488,7.13086 h -0.68359 v 0.68164 l -0.19336,8.44531 -11.46289,-0.0488 -0.0488,-7.57032 -0.85156,-0.0469 -0.0254,-1.5586 h 1.02343 l -0.0488,-1.43554 -1.55664,0.0488 -0.0508,-1.63086 h -0.80273 l -0.0469,-4.06446 -0.68164,0.0488 c -0.24617,-2.14526 -0.19434,-3.95679 -0.39062,-6.10742 l -0.48633,6.10742 h -0.99805 l -0.0469,-3.625 0.70312,0.0723 v -1.02344 h -0.68164 v -1.53125 h -0.55859 l -0.0488,-0.73047 -0.68164,-0.0488 v -1.65429 h 0.7793 l 0.0234,-0.70704 -0.7539,0.0254 0.0254,-2.33594 0.82617,-0.0488 v -1.04688 h -0.87695 l -0.0703,-4.7207 -0.6582,1.87305 v -3.82031 c 0.24718,0.003 0.57463,-0.0338 0.70508,-0.0234 0.008,-0.26006 0.007,-0.78934 0,-0.85352 -0.23483,-0.006 -0.28886,0.021 -0.67969,0 0.005,-0.39164 0.0219,-0.52633 0.0234,-0.85156 -0.13927,-0.0166 -0.65659,-0.009 -0.90039,-0.0234 -0.0137,0.26947 -0.0319,0.54398 -0.0234,0.80274 -0.23194,-0.007 -0.45661,-0.005 -0.6582,0 0.0259,0.27073 -0.006,0.54547 0.0254,0.92578 0.18428,0.016 0.23998,6.5e-4 0.58203,0.0234 l -0.0469,3.77148 -0.65624,-1.84961 0.0234,4.55274 -0.90039,-0.0488 0.0488,1.1914 h 0.80273 v 2.3125 h -0.65625 v 0.77735 l 0.75196,0.0488 -0.0469,1.58204 h -0.80273 v 0.70703 l -0.82813,-0.0488 0.0488,1.72852 -0.80469,0.0215 v 1.04883 h 0.78125 l 0.1211,3.47851 h -0.7793 l 0.0234,1.5586 h -1.02149 v -2.36133 h -0.77734 v 5.42773 l -0.29297,0.48828 -0.29297,-4.23632 -0.51172,4.13672 -0.38671,-4.13672 -0.48829,4.23632 h -1.36328 l 0.19531,1.75196 1.36329,0.21679 v 1.36329 h -2.16602 v 1.58203 h 1.58203 c -0.28331,2.01644 0.1707,6.07351 -0.17187,8.08007 -0.0856,0.50162 -0.9475,-0.71072 -0.9961,0.31641 -0.0486,1.02713 0.22802,3.90875 0.19336,5.11133 -0.0346,1.20255 -0.7591,-0.34825 -0.80273,0.67969 -0.0437,1.02796 0.2946,2.95374 0.21875,3.45703 -0.79496,-0.2486 -0.77761,0.41229 -1.53321,0.875 -0.16552,2.03609 0.17335,3.69413 0.24415,5.76953 v 0.11523 l -8.09961,-0.0215 -2.36133,-2.36133 -7.0918,4.76758 -0.0937,-1.51563 -2.11523,-0.0117 0.0586,3.05468 -7.67187,0.19727 v -1.57422 l -3.84961,-0.0234 -0.0469,2.8711 -0.77734,0.01 -0.0801,0.63672 -13.05078,-0.15039 c -0.89391,-0.13481 -0.7822,1.01331 -0.90039,1.6543 -0.69732,0.0117 -2.55382,0.0525 -2.94141,-0.0117 l 0.0137,-1.44727 1.07617,0.0137 0.0332,-1.07812 -1.01758,-0.0352 c -0.13115,-1.70447 -0.94357,-2.47096 -1.86133,-2.33984 l 0.0215,-1.2207 h 1.08789 c 0.51999,-0.29701 0.39188,-0.59558 -0.0117,-0.89258 h -1.19141 l -0.0332,-1.375 c -0.23481,-0.58724 -1.07829,-0.35302 -1.12305,0 l -0.0117,1.42187 h -1.35351 c -0.39562,0.25351 -0.4498,0.54646 -0.0117,0.89258 l 1.09961,-0.0371 c -0.0268,0.83578 0.0842,0.84971 -0.0469,1.3086 -1.26875,-0.0232 -1.61109,0.87961 -1.57422,2.16211 H 295.039 v 0.98437 h 0.98242 v 1.75977 l -2.07031,-0.006 0.008,-3.73243 -2.45898,0.01 v 3.3457 h -2.16406 v -1.67187 h -2.94922 l -0.29492,1.67187 -2.95118,-0.0996 -0.0976,-1.27734 -3.83594,-0.0996 v 1.37695 h -5.01367 l -8.06445,7.17969 0.006,0.75781 H 254.83398 V 425.01758 H 609.52539 V 293.08984 c -0.5562,0.12582 -1.20133,-0.0212 -2.17383,-0.39257 -1.07469,-0.41043 -2.5706,-0.64633 -3.33789,-0.52539 -0.76476,0.12051 -1.51241,0.0242 -1.66015,-0.21485 -0.14775,-0.23907 -0.5361,-0.33259 -0.86329,-0.20703 -0.32718,0.12556 -1.25396,0.0213 -2.06054,-0.23047 -2.05032,-0.63987 -5.60978,-0.85214 -5.91797,-0.35351 -0.49976,0.80864 -1.08745,0.39736 -1.7793,-1.2461 -0.66683,-1.58406 -0.72986,-1.62271 -1.33594,-0.80273 -0.34992,0.47342 -0.63671,1.04633 -0.63671,1.27343 0,0.22774 -0.25184,0.20543 -0.56055,-0.0508 -0.39185,-0.32522 -1.05651,-0.31043 -2.2168,0.0527 l -1.27539,0.40039 -0.006,10.39453 h -0.375 v -1.95898 -8.31641 l 0.38086,-0.11914 0.0156,-28.70703 2.33593,-1.94727 0.0723,-15.47851 -1.28906,-13.8711 -0.0234,-0.92578 h 0.70508 l 0.0234,-0.7539 h -0.72852 v -1.58008 h -0.68164 l -0.0254,1.55664 -0.82813,-0.0254 v 0.80273 h 0.80469 l 0.0234,0.94922 -1.2168,13.80078 h -0.70508 l -0.85351,-9.36914 c 0,0 0.59485,-0.28639 0.58594,-0.73047 -0.0104,-0.51192 -0.39087,-0.75611 -0.90235,-0.77929 -0.46301,-0.0211 -0.80913,0.27561 -0.89844,0.73046 -0.0856,0.43607 0.58399,0.75391 0.58399,0.75391 l -0.97461,7.32617 h -0.70508 l -3.8457,-21.31836 v -5.33008 l 0.82812,-0.0254 v -0.82812 l -0.6582,-0.0234 -0.0234,-0.70508 c 0.647,-0.51462 0.95476,-1.05113 -0.0234,-1.63086 h -0.77929 c -0.72776,0.48777 -0.9484,1.02701 -0.0234,1.63086 v 0.67969 h -0.82812 l 0.0254,0.87695 h 0.7539 l -0.0254,5.35547 h -5.47461 l -0.0508,-5.42773 0.70703,0.0234 v -0.85157 l -0.73047,0.0234 -0.0469,-0.75391 c 0.99604,-0.69295 0.17792,-1.36063 -0.0508,-1.41015 -0.22996,0.0164 -0.81761,0.007 -0.75391,0.0234 -1.03068,0.58205 -0.43638,1.00489 0.0254,1.4121 l 0.0234,0.70508 -0.90039,0.0234 v 0.87695 l 0.90039,-0.0254 0.12109,5.4043 -4.03906,21.02539 -0.6582,0.0254 -0.58399,-7.0332 c 0,0 0.52862,-0.47871 0.50977,-0.85156 -0.0247,-0.48237 -0.42504,-0.82222 -0.77735,-0.85352 -0.33275,-0.0295 -0.88132,0.32144 -0.85156,0.87695 0.0216,0.40499 0.63281,0.82813 0.63281,0.82813 l -0.48632,9.17383 -0.7793,0.0254 -1.29102,-13.89649 0.0254,-0.73047 0.80274,0.0234 v -0.85156 l -0.75391,-0.0234 -0.0254,-1.38867 h -0.70508 v 1.41406 h -0.80273 v 0.77735 l 0.80273,0.0254 -0.0234,0.7539 c -0.43556,4.36068 -0.50668,9.00513 -1.04688,13.91992 l -0.0977,15.52539 2.23828,1.9961 v 6.5957 l -13.26368,0.14649 -0.29101,0.82812 -0.31641,0.90039 -0.0234,1.36133 h -0.77929 l 0.0254,0.92578 -1.58399,-0.0234 -0.12109,-36.62695 c 0.33516,-0.16005 0.95496,-0.58751 1.70508,-0.97266 v -0.75586 h 1.48242 c 0.0702,-0.72024 0.0787,-1.24186 -0.7793,-1.43554 l -0.80273,-0.0254 -0.0723,-8.54102 -0.68164,-10.09961 -0.77734,10.00196 0.0469,4.06445 -2.96875,0.0234 -0.0723,-7.78516 0.65625,-0.0254 -0.0234,-0.7793 0.73047,-0.0234 0.0234,-0.80273 h 0.7539 l -0.0723,-7.71484 -1.07031,-8.54297 -1.2168,8.51953 0.0234,2.26172 -0.67969,-0.0234 -0.39063,-3.23633 -0.39062,-0.58594 c 0,0 -0.60601,-4.68285 -0.67969,-4.86523 -0.0983,-0.24338 -0.1992,-0.16788 -0.24414,-0.56055 -0.22275,-1.94605 -0.31641,-7.05859 -0.31641,-7.05859 l -0.3164,-0.80273 -0.80274,-14.28711 -0.82812,14.28711 -0.33985,0.7539 -0.4375,6.93555 -0.29296,0.43945 -0.53516,5.13477 -0.48633,0.68164 -0.14648,3.21289 -0.85352,-0.0254 -0.0469,-2.38477 -1.19336,-8.58984 -1.07032,8.58984 v 7.76367 l 0.85157,0.0488 v 0.75391 l 0.77929,0.0488 0.0488,0.7539 h 0.77735 l -0.0469,7.86133 -3.14062,-0.0488 c 0.0138,-1.65473 -0.011,-2.22408 -0.0957,-3.94336 l -0.80273,-10.02539 -0.75586,9.97852 0.0488,8.49219 -0.65821,0.0742 c -0.70143,0.37223 -1.0855,0.28215 -1.01953,1.58007 h 1.60547 v 0.7793 c 0.81569,0.34944 1.23788,0.64109 1.5332,0.85156 l 0.0957,20.20117 -2.31055,0.0469 -0.002,-0.0547 h 0.19531 l -0.0488,-10.8164 h -0.81054 l 0.0469,6.14453 -0.76172,-0.0254 -0.0977,-10.83985 h -0.86133 l -0.0215,7.09375 -0.68164,-0.0684 -0.0586,-0.0605 -0.0234,-10.0625 -0.73633,0.0508 -0.0762,5.13672 -0.75976,0.0234 0.0234,-7.66992 -0.71289,0.0508 -0.0254,3.12305 -0.8789,0.008 -0.043,-6.18554 -0.60742,0.008 -0.043,6.17969 -0.75586,0.0176 -0.0723,-7.5332 c 0.50623,0.21507 1.71544,0.0389 1.55664,-0.97266 l 0.75586,-0.0254 c 0.9346,-0.32097 0.67748,-0.62818 0.0469,-0.94922 l -0.80274,-0.0234 c 0.12113,-0.73634 -0.49657,-1.11815 -1.53125,-0.94922 v -1.2168 c -0.3208,-0.85773 -0.90054,-1.08776 -1.50976,0 v 1.19141 c -0.7738,-0.29198 -1.91753,0.38331 -1.60743,0.99804 h -0.70507 c -0.8311,0.50888 -0.3274,0.70764 0,0.94922 l 0.65625,0.0254 c 0.2901,1.00499 0.69665,1.07794 1.53515,0.97266 l 0.16992,7.56445 -0.61328,0.0137 -0.0117,-6.22657 -0.5957,0.01 0.0176,6.23242 h -0.45313 v 0.0254 l -0.43164,0.006 v -3.29297 l -0.93359,0.0508 -0.0508,7.80469 -0.0918,0.10352 v 0.008 h -0.54687 v -5.50781 h -0.78711 l -0.12891,9.93554 -0.16797,0.16211 -0.67969,0.0449 0.043,-7.09375 h -0.93359 v 10.96485 h -0.63867 l -0.0996,-6.24414 h -0.73633 v 10.91406 l 0.66797,-0.002 -0.008,0.20312 c -1.04643,0.006 -1.74087,-0.0177 -2.96875,-0.0254 l -0.0742,-20.4414 1.63086,-0.78126 -0.0234,-0.80273 h 1.45898 c 0.0207,-0.63543 0.0409,-0.78177 -0.72851,-1.45898 l -0.75586,-0.0234 -0.0234,-8.5918 c -0.30903,-2.78441 -0.0961,-8.21701 -0.7539,-10.125 -0.091,2.31056 -0.48487,8.22558 -0.80469,10.125 l 0.0508,4.7461 -3.18945,-0.0488 v -7.76367 h 0.77929 l -0.0234,-0.80274 h 0.85156 l -0.0254,-0.70508 0.63281,0.0234 0.0254,-8.78516 -0.99805,-9.05273 -1.31445,9.12695 0.0234,2.26367 -0.82617,0.0234 -0.26758,-3.28515 -0.48633,-0.39063 -0.51172,-5.40234 -0.32812,-0.26563 -0.19532,-6.98437 -0.33984,-0.7793 z m -143.2207,42.75781 h 0.875 l -0.0234,1.60742 h -0.87695 z m 162.10351,3.58399 c 0.4362,-0.01 0.89104,0.0498 0.85547,0.57812 l -1.29101,0.0254 0.0254,-0.58594 c 0.1229,-0.003 0.26476,-0.0143 0.41015,-0.0176 z m -1.96874,0.0176 c 0.14245,0.003 0.29115,0.022 0.41406,0.0254 v 0.56055 h -1.24219 c -0.0356,-0.52834 0.40077,-0.59416 0.82813,-0.58594 z m -0.82813,1.41211 H 520.5 v 0.58399 c -0.49161,0.0142 -1.26618,0.12049 -1.21875,-0.58399 z m 2.38672,0 h 1.26562 c 0.0474,0.70448 -0.75054,0.59821 -1.24218,0.58399 z m -162.8125,3.16407 2.60351,0.0488 v 2.33594 h -2.58007 z"
       id="rect5194"
       inkscape:connector-curvature="0" />
    <path
       style="fill:#e51f40;fill-opacity:1;stroke-width:1.05216289"
       d="m 779.10742,173.63086 c -0.25203,0 -1.36151,29.07315 -1.35351,35.47461 0.004,3.05806 -0.55977,4.6948 -1.24805,3.62891 -0.47537,-0.73621 -0.95313,3.57518 -0.95313,8.60156 0,2.02134 -0.22345,4.23531 -0.49804,4.92187 l -0.5,1.25 -0.39649,-1.33203 c -0.21821,-0.73164 -0.37439,-2.02729 -0.3457,-2.88086 0.0287,-0.8536 0.0106,-2.24991 -0.041,-3.10351 l -0.0937,-1.55274 -0.36718,1.77344 c -0.20179,0.97553 -0.37859,3.91931 -0.39258,6.54101 -0.0154,2.8652 -0.20222,4.76563 -0.46875,4.76563 -0.24388,0 -0.44336,0.27152 -0.44336,0.60156 0,0.69063 -10.9083,2.31754 -12.38867,1.84766 -0.63129,-0.20035 -0.94843,-0.84166 -1.16797,-2.35938 -0.16582,-1.14616 -0.45375,-2.28346 -0.64063,-2.52734 -0.18687,-0.24388 -0.43871,-0.84232 -0.55859,-1.33008 -0.16611,-0.67573 -0.23034,-0.59705 -0.26953,0.33203 -0.0283,0.67067 -0.22378,1.21875 -0.43555,1.21875 -0.21178,0 -0.4948,0.81862 -0.6289,1.81836 -0.13637,1.0167 -0.65167,2.19674 -1.16797,2.67774 -0.58344,0.54355 -0.92188,1.41036 -0.92188,2.35742 0,1.74483 -0.37366,2.90234 -0.93555,2.90234 -0.21778,0 -0.39453,-0.30018 -0.39453,-0.66601 0,-0.36581 -0.18369,-0.66407 -0.4082,-0.66407 -0.22451,0 -0.54445,-0.61421 -0.70898,-1.36328 -0.16452,-0.74909 -0.37326,-1.28693 -0.46485,-1.19531 -0.0916,0.0916 -0.34114,2.05181 -0.55468,4.35547 -0.37372,4.03145 -0.47591,4.32189 -2.70508,7.73633 -2.51068,3.84556 -3.13805,4.40504 -3.14844,2.80859 -0.005,-0.83069 -0.0905,-0.90313 -0.43555,-0.36914 -0.31482,0.48714 -0.44225,0.13132 -0.47656,-1.33008 l -0.0469,-1.99609 -0.41993,1.55273 c -0.23043,0.8536 -0.59967,1.94974 -0.82226,2.4375 -0.49958,1.09472 -0.91046,4.60797 -0.87305,7.46289 0.0154,1.17815 -0.22356,2.44415 -0.5293,2.8125 -0.30571,0.36842 -0.51293,1.29996 -0.46093,2.07032 0.0922,1.36601 0.0501,1.39828 -1.69727,1.33398 -2.4774,-0.0913 -3.09961,-0.74387 -3.09961,-3.25391 0,-1.45484 -0.28143,-2.46278 -0.91601,-3.26953 l -0.91797,-1.16601 -1.01953,1.21875 c -0.75495,0.90085 -0.96447,1.58982 -0.80664,2.65234 0.32065,2.15932 -0.0804,2.85058 -1.36719,2.36133 -0.65096,-0.24665 -1.22787,-0.24479 -1.47852,0.006 -0.64297,0.64297 -4.13475,0.8607 -4.13476,0.25781 0,-0.28167 -1.28054,-1.46068 -2.84571,-2.61914 -2.40881,-1.78286 -3.15379,-2.10547 -4.85156,-2.10547 -1.10313,0 -2.13053,0.19948 -2.28125,0.44336 -0.47189,0.76353 -2.70755,0.48404 -3.54687,-0.44336 -0.72843,-0.80495 -1.36629,-0.88672 -6.89844,-0.88672 h -6.09375 l -2.26172,2.60938 c -1.24354,1.43544 -2.26172,2.82863 -2.26172,3.0957 0,0.68067 -1.97704,1.10132 -3.79297,0.80664 -1.0687,-0.17343 -1.52734,-0.0789 -1.52734,0.31445 0,0.30927 -0.54806,0.84189 -1.21875,1.1836 -2.07778,1.05855 -5.11232,3.48507 -5.6543,4.52344 -0.28421,0.54451 -0.79864,0.91426 -1.14453,0.82226 -0.84006,-0.22342 -1.2414,-0.19729 -3.06836,0.18946 -0.85359,0.18063 -1.39765,0.16039 -1.20898,-0.043 0.18866,-0.2034 -0.2103,-0.60755 -0.88672,-0.89844 -1.02314,-0.44001 -1.45905,-0.39825 -2.59375,0.24609 -0.7502,0.42598 -2.18343,0.77539 -3.18555,0.77539 -1.09583,0 -2.11243,0.2882 -2.54883,0.72461 -0.39907,0.39906 -0.90304,0.72656 -1.12109,0.72656 -0.21806,0 -0.98553,0.57399 -1.70508,1.27735 -0.96275,0.94112 -1.17663,1.41126 -0.8125,1.77539 0.36415,0.36416 0.28678,0.49414 -0.29297,0.49414 -0.6094,0 -0.77009,-0.32669 -0.70898,-1.44141 0.11525,-2.10536 0.0737,-2.18315 -0.89258,-1.66601 -0.48489,0.25953 -0.99634,0.92901 -1.13672,1.48828 -0.14038,0.55927 -0.85492,1.37172 -1.58789,1.80469 -1.47672,0.87232 -2.15369,0.65478 -1.27148,-0.40821 0.64183,-0.7734 0.66682,-0.73653 -1.00977,-1.45703 -0.67753,-0.29116 -1.36344,-0.88165 -1.52344,-1.31054 -0.30419,-0.81539 -1.9205,-2.16702 -2.40429,-2.01172 -0.15418,0.0495 -1.05088,0.1392 -1.99414,0.19922 -1.62091,0.10317 -2.82422,0.7609 -2.82422,1.54492 0,0.82103 -3.33242,3.25781 -4.45508,3.25781 -0.6809,0 -1.82528,0.55432 -2.67578,1.29688 -0.81727,0.71354 -1.64071,1.20026 -1.83203,1.08203 -0.19133,-0.11823 -0.34961,0.0883 -0.34961,0.45703 0,0.36872 -0.23065,1.17765 -0.51368,1.79883 -0.45791,1.00499 -0.77595,1.1289 -2.88281,1.1289 -1.30219,0 -2.36719,0.18714 -2.36719,0.41406 0,0.56834 -1.70724,0.78162 -3.4121,0.42774 -0.97385,-0.20212 -1.73329,-0.0724 -2.42774,0.41406 -0.55576,0.38925 -1.31538,0.73167 -1.6875,0.75977 -1.90819,0.14415 -2.22851,0.23901 -2.22852,0.66406 0,0.73733 -1.61575,2.27053 -2.27734,2.16016 -0.33195,-0.0554 -1.00246,0.0501 -1.49023,0.23437 -3.48162,1.31522 -4.21289,1.53674 -4.21289,1.2832 0,-0.15775 -0.39895,0.0742 -0.88672,0.51563 -0.48777,0.44144 -0.88672,1.19191 -0.88672,1.66797 0,0.58007 -0.21668,0.78317 -0.6543,0.61523 -0.35913,-0.13779 -0.90723,0.0912 -1.21875,0.50781 -0.72076,0.96381 -1.23457,1.45739 -1.86328,1.59961 V 425.01758 H 883.17578 V 281.37109 c -3.50065,-0.25243 -6.47113,-0.5727 -6.61914,-0.7207 -0.15167,-0.15164 -0.3851,-1.27947 -0.51953,-2.50586 -0.13448,-1.22636 -0.64117,-2.91419 -1.12695,-3.75195 -0.80096,-1.38129 -0.88742,-1.39589 -0.90821,-0.14649 -0.0127,0.75779 -0.36433,1.16712 -0.7832,0.90821 -0.41889,-0.25888 -0.76172,-0.0875 -0.76172,0.38086 0,0.46842 -0.31231,0.65737 -0.69336,0.42187 -0.38104,-0.2355 -2.29436,0.25856 -4.25195,1.09766 -1.17798,0.50494 -2.06231,0.86091 -2.75586,1.09961 -0.73141,-0.0374 -1.46624,-0.13199 -2.16602,-0.27539 -0.0219,-0.12927 -0.0351,-0.27222 -0.0351,-0.44141 0,-2.02349 -1.41284,-1.21308 -1.66211,0.95312 -0.0788,0.68451 -0.16783,1.13435 -0.41406,1.45508 -0.0279,0.0385 -0.0551,0.0766 -0.084,0.11524 -0.52157,0.52339 -1.66114,0.61663 -4.44531,0.75 -1.46929,0.0704 -2.45439,0.0987 -3.16211,0.0547 -0.46707,-0.59008 -0.90744,-0.97083 -1.0625,-0.875 -0.1908,0.11794 -0.34766,-0.0224 -0.34766,-0.31054 0,-0.29451 -0.10598,-0.35727 -0.3457,-0.21094 -0.0103,-0.0632 -0.0235,-0.11319 -0.0332,-0.18164 -0.19589,-1.38135 -0.80554,-1.80259 -2.90625,-2.00195 -1.46246,-0.13882 -2.89378,-0.63114 -3.17969,-1.09375 -0.37804,-0.61171 -0.80139,-0.60599 -1.55273,0.0176 -0.56823,0.4716 -2.90804,0.96393 -5.19922,1.09374 l -1.49805,0.084 c -0.21009,-0.24905 -0.0753,-0.43453 0.41797,-0.92773 0.45304,-0.45309 0.53731,-0.74219 0.21484,-0.74219 -0.37189,0 -0.41097,-0.30892 -0.1289,-1.05078 0.50225,-1.32103 -0.15224,-2.05274 -1.83985,-2.05274 -0.68287,0 -1.24219,-0.21049 -1.24219,-0.46875 0,-0.25822 0.19949,-0.34605 0.44336,-0.19531 0.50222,0.31035 0.57509,-0.25083 0.16993,-1.30664 -0.21394,-0.55753 -0.40877,-0.60009 -0.89649,-0.19531 -0.49544,0.41116 -0.56972,0.38053 -0.36523,-0.15235 0.30213,-0.78694 -1.12537,-1.50193 -1.56836,-0.78515 -0.16093,0.26036 -0.61236,0.35141 -1.00391,0.20117 -0.56384,-0.21637 -0.70483,0.0123 -0.67383,1.10547 l 0.0391,1.38086 1.0039,-0.94336 1.00391,-0.94336 -0.1211,1.48437 c -0.16949,2.06727 -0.14456,2.01937 -1.17578,2.28907 -0.85998,0.22487 -0.87514,0.18407 -0.2207,-0.53907 0.94992,-1.04967 0.8914,-1.50576 -0.12305,-0.96289 -0.45569,0.24391 -0.95536,0.31806 -1.10937,0.16406 -0.15402,-0.15402 -0.2793,0.14027 -0.2793,0.6543 0,0.51403 -0.23016,1.07796 -0.51172,1.25195 -0.31716,0.19604 -0.39134,0.11992 -0.19531,-0.19726 0.17403,-0.28154 0.11709,-0.51172 -0.125,-0.51172 -0.24207,0 -0.5234,0.55004 -0.625,1.2207 -0.17186,1.13496 -0.1882,1.11865 -0.25,-0.22265 -0.0441,-0.95584 -0.29124,-1.44141 -0.73242,-1.44141 -0.36582,0 -0.66406,0.19948 -0.66406,0.44336 0,0.24388 -0.15107,0.42145 -0.33399,0.39258 -1.13506,-0.17924 -2.02869,0.23349 -3.52148,1.62695 -3.21472,3.00081 -3.2349,2.9914 -3.2793,-1.66992 -0.0215,-2.26448 -0.006,-6.1738 0.0352,-8.6875 0.0712,-4.37751 0.0259,-4.62058 -1.07813,-5.72461 -1.37481,-1.3748 -1.98891,-3.31425 -1.13867,-3.59766 0.39914,-0.13304 0.26213,-0.43367 -0.43945,-0.96289 -0.56037,-0.42268 -2.33532,-3.13891 -3.94532,-6.03711 -2.68236,-4.82866 -3.04278,-5.28103 -4.30859,-5.40429 l -1.38281,-0.13477 -0.50977,-3.85547 c -0.46931,-3.53813 -1.34753,-14.638 -1.27344,-16.0957 0.0174,-0.34084 -6.6e-4,-1.3015 -0.0391,-2.13477 -0.124,-2.68924 -0.56253,-1.12214 -0.73437,2.62305 -0.15683,3.41835 -0.38132,4.42338 -0.875,3.92969 -0.11492,-0.11491 -0.3951,-2.99153 -0.62305,-6.39258 -0.48972,-7.30682 -0.51132,-7.42838 -1.43555,-7.81055 -0.8076,-0.33392 -0.89691,-1.4309 -1.79687,-22.22851 -0.29334,-6.77882 -0.678,-12.06517 -0.85547,-11.74805 -0.17747,0.31712 -0.55326,7.958 -0.83398,16.98047 -0.28072,9.02247 -0.59032,16.65239 -0.6875,16.95312 -0.0972,0.30089 -0.45337,0.43894 -0.79297,0.3086 -0.79211,-0.30396 -1.1815,2.71193 -1.1875,9.20508 -0.002,2.87513 -0.18974,4.85595 -0.47657,5.0332 -0.78678,0.48627 -0.9202,-0.004 -1.11132,-4.04297 -0.18701,-3.95206 -0.58173,-5.55112 -0.69336,-2.81055 -0.034,0.83327 -0.097,2.31159 -0.13868,3.28711 -0.0417,0.97553 -0.14049,3.40315 -0.2207,5.39453 -0.15932,3.9583 -0.46925,4.22223 -2.20898,1.86915 -0.89973,-1.21697 -1.15326,-1.31498 -2.72852,-1.04883 l -1.73633,0.29297 -0.0937,-3.25391 c -0.0933,-3.27444 -0.1902,-5.60431 -0.30273,-7.24414 -0.0507,-0.73953 -0.13178,-0.77538 -0.49024,-0.2207 -0.2364,0.3658 -0.43449,1.90029 -0.4375,3.41015 -0.006,2.37082 -0.51206,3.76919 -1.13867,3.14258 -0.10283,-0.10283 -0.21826,-2.66813 -0.25586,-5.69922 -0.0376,-3.03108 -0.26286,-5.75792 -0.5,-6.06055 -0.23737,-0.30259 -0.34206,-1.15088 -0.23437,-1.88476 0.19243,-1.31119 -0.27629,-1.86598 -0.65821,-0.7793 -0.53237,1.51486 -1.18904,-5.78338 -1.7246,-19.17773 -0.32667,-8.17002 -0.58162,-16.00199 -0.56641,-17.4043 0.0153,-1.40231 -0.0934,-2.55078 -0.24219,-2.55078 z m 19.50391,1.77539 c -0.2439,0 -0.44336,0.39896 -0.44336,0.88672 0,0.48776 0.19946,0.88672 0.44336,0.88672 0.24388,0 0.44336,-0.39896 0.44336,-0.88672 0,-0.48776 -0.19948,-0.88672 -0.44336,-0.88672 z m 1.33008,46.11523 c 0.24387,0 0.44336,0.19948 0.44336,0.44336 0,0.24389 -0.19949,0.44336 -0.44336,0.44336 -0.2439,0 -0.44336,-0.19947 -0.44336,-0.44336 0,-0.24388 0.19946,-0.44336 0.44336,-0.44336 z m -25.27539,7.98243 c 0.24387,0 0.44335,0.39895 0.44336,0.88671 -10e-6,0.48777 -0.19949,0.88672 -0.44336,0.88672 -0.24388,0 -0.44336,-0.39894 -0.44336,-0.88672 0,-0.48776 0.19948,-0.88671 0.44336,-0.88671 z m 9.08984,0 c 0.36951,0 0.66601,0.39405 0.66602,0.88671 0,0.88341 -0.47299,1.152 -1.03516,0.58985 -0.54006,-0.54008 -0.30594,-1.47656 0.36914,-1.47656 z m 10.67578,1.33007 c 0.41292,0 0.63763,0.30073 0.55274,0.73829 -0.21578,1.11241 -1.25196,1.2662 -1.25196,0.18554 0,-0.54467 0.28789,-0.92383 0.69922,-0.92383 z m -39.27539,3.99024 c 0.24389,0 0.44336,0.28724 0.44336,0.63867 0,0.35143 -0.19947,0.76333 -0.44336,0.91406 -0.24388,0.15071 -0.44336,-0.13845 -0.44336,-0.64062 0,-0.50214 0.19948,-0.91211 0.44336,-0.91211 z m -15.57227,30.15234 c 0.24388,0 0.56608,0.19948 0.7168,0.44336 0.15075,0.24385 0.074,0.44336 -0.16992,0.44336 -0.24388,0 -0.56606,-0.19951 -0.7168,-0.44336 -0.15071,-0.24388 -0.0739,-0.44336 0.16992,-0.44336 z m 88.24414,4.9961 c -0.46094,-0.0347 -0.84076,0.17318 -0.84374,0.46289 -0.003,0.28967 -0.1094,1.027 -0.23438,1.63672 -0.22562,1.10058 -0.22214,1.09989 0.29688,0.10937 0.28751,-0.54874 0.66909,-0.99609 0.8496,-0.99609 0.77152,0 0.70645,-1.15449 -0.0684,-1.21289 z m 7.75391,3.60156 c 0.1616,0.005 0.27539,0.18164 0.27539,0.4668 0,0.7789 -0.26441,0.89237 -0.64453,0.27734 -0.14032,-0.22702 -0.0525,-0.53626 0.19531,-0.68945 0.062,-0.0383 0.11996,-0.0565 0.17383,-0.0547 z m -1.69336,0.71484 c 0.10755,0 0.19531,0.19948 0.19531,0.44336 0,0.24388 -0.21048,0.44336 -0.46875,0.44336 -0.25824,0 -0.34604,-0.19948 -0.19531,-0.44336 0.15074,-0.24388 0.36122,-0.44336 0.46875,-0.44336 z"
       id="rect5282"
       inkscape:connector-curvature="0" />
    <path
       style="fill:#e51f40;fill-opacity:1;stroke-width:1.20429111"
       d="m 1104.3672,230.98047 -0.4121,20.94531 c -0.2263,11.51937 -0.4823,21.03004 -0.5703,21.13477 -0.478,0.57029 -3.0229,-0.007 -4.3047,-0.97657 -0.8132,-0.61499 -2.2396,-1.11718 -3.1719,-1.11718 -0.9322,0 -1.8096,-0.33781 -1.9492,-0.75 -0.3968,-1.17163 -7.5203,-1.19525 -8.2422,-0.0273 -0.3394,0.54915 -1.114,0.80897 -1.7207,0.57617 -0.9249,-0.35489 -1.0435,-2.58763 -0.7344,-13.82031 0.3655,-13.28926 0.3563,-13.39648 -1.2578,-13.39648 -0.8949,0 -1.6269,0.35275 -1.6269,0.78515 0,0.43241 -0.7723,1.0958 -1.7149,1.47461 -1.3956,0.56101 -1.4552,0.699 -0.3242,0.73829 2.5387,0.0883 1.1416,2.68751 -1.5859,2.95117 -2.5906,0.2504 -2.7311,0.0588 -1.9883,-2.71289 0.3134,-1.16933 1.0369,-1.71485 2.2754,-1.71485 0.9984,0 1.8144,-0.3409 1.8144,-0.75976 0,-0.46476 -2.8944,-0.7101 -7.4258,-0.62891 -4.0837,0.0732 -5.9697,0.2635 -4.1894,0.42383 2.5972,0.23394 3.2383,0.58446 3.2383,1.77148 0,1.43358 -1.3259,1.88777 -4.709,1.61719 -0.7043,-0.0563 -1.4355,0.48988 -1.625,1.21289 -0.1897,0.72301 -0.4294,-0.0569 -0.5332,-1.73242 l -0.1895,-3.04492 -0.4707,2.63281 c -0.3501,1.95822 -0.9593,2.76802 -2.375,3.16016 l -1.9043,0.52734 2.0957,0.0762 c 1.1519,0.0418 2.086,0.3343 2.086,0.64844 -0.015,1.05569 -6.1889,7.04492 -7.2618,7.04492 -0.5837,0 -0.8807,0.46546 -0.6621,1.03516 0.2185,0.56966 -0.5084,2.11242 -1.6152,3.42773 -1.7357,2.06283 -2.5529,2.40875 -5.9434,2.52344 -3.8252,0.1295 -3.8431,0.14206 -0.6933,0.42578 1.7803,0.16033 3.2363,0.5111 3.2363,0.78125 0,1.12027 -4.9739,5.51563 -6.2422,5.51563 -0.7556,0 -1.373,0.34282 -1.373,0.76171 0,0.41887 0.3637,0.75977 0.8105,0.75977 0.4463,0 0.7048,0.94376 0.5723,2.0957 -0.2009,1.74521 -0.6542,2.13317 -2.7168,2.33203 -2.2239,0.21442 -2.4746,0.0367 -2.4746,-1.75781 0,-1.13753 -0.328,-1.79541 -0.7617,-1.52734 -0.4723,0.29188 -0.7835,-1.2097 -0.8164,-3.95313 -0.05,-4.139 -1.2818,-9.47716 -1.4161,-6.13672 -0.056,1.39607 -1.9842,1.71156 -5.1933,0.85157 -1.349,-0.36153 -1.7129,-1.0067 -1.7129,-3.03516 0,-2.45825 -0.6509,-3.19677 -1.8008,-2.04687 -0.9977,0.99781 -2.7695,0.85889 -2.7695,-0.2168 0,-1.91994 0.3474,-2.21994 2.4746,-2.12695 1.1694,0.0511 2.0957,-0.30936 2.0957,-0.81836 0,-0.58035 -0.8322,-0.7914 -2.2852,-0.57813 -1.7639,0.25888 -2.2851,0.0449 -2.2851,-0.94141 0,-0.98276 0.5706,-1.22299 2.4746,-1.03906 l 2.4766,0.24024 0.1621,-3.8086 c 0.1127,-2.6341 -0.035,-3.33876 -0.4766,-2.28515 -0.3516,0.83776 -0.5176,1.73319 -0.3711,1.99023 0.1464,0.25705 -1.114,0.46875 -2.8008,0.46875 -2.6685,0 -3.0379,-0.20645 -2.8379,-1.58008 0.1348,-0.92696 1.0167,-1.79434 2.1348,-2.10351 1.0472,-0.28959 -1.3526,-0.52162 -5.332,-0.51563 -5.2366,0.008 -6.4342,0.1665 -4.3379,0.57227 1.5929,0.30837 3.7347,0.40102 4.7597,0.20508 1.6547,-0.31632 1.8633,-0.0899 1.8633,2.01757 0,1.86589 -0.326,2.37305 -1.5234,2.37305 -1.0411,0 -1.556,-0.54158 -1.627,-1.71289 -0.1016,-1.67736 -0.1106,-1.67942 -0.4238,-0.0781 -0.4092,2.09315 -3.0296,2.8398 -4.0293,1.14843 -0.6547,-1.10779 -0.8391,-1.12195 -1.5098,-0.11914 -0.5895,0.88173 -0.7947,0.53393 -0.8984,-1.52344 l -0.1328,-2.66601 -0.3067,2.47656 c -0.3852,3.10436 -1.6263,3.2093 -2.2304,0.18945 -0.3127,-1.56385 -0.9074,-2.28515 -1.8848,-2.28515 -1.2787,0 -1.4277,0.64458 -1.4277,6.16406 0,5.45003 -0.1705,6.20885 -1.4707,6.54883 -0.8088,0.21153 -1.3256,0.77939 -1.1485,1.26172 0.1773,0.48233 -1.3831,2.76249 -3.46871,5.0664 -2.08562,2.30388 -3.80273,4.44563 -3.80273,4.75977 -0.006,0.31417 -0.37729,0.57227 -0.82618,0.57227 -1.34402,0 -2.99218,2.0658 -2.99218,3.75195 0,0.87775 -0.49451,1.57812 -1.11524,1.57812 -0.61356,0 -1.48314,0.68567 -1.93164,1.52344 -0.57747,1.07926 -1.59344,1.52344 -3.48828,1.52344 h -2.67578 l 0.22656,-20.18359 0.22656,-20.1836 -1.90429,0.002 -1.9043,0.002 -0.1875,11.23242 c -0.1037,6.17736 -0.39832,15.24683 -0.6543,20.1543 l -0.46484,8.92187 -2.77344,-0.043 c -3.42916,-0.0546 -7.72461,-1.3049 -7.72461,-2.24804 0,-0.38643 1.07959,-0.70313 2.40039,-0.70313 h 2.40235 l -1.75586,-1.52344 c -0.96603,-0.83779 -2.04764,-1.52343 -2.40235,-1.52343 -0.73926,0 -0.87494,-5.36529 -0.18164,-7.17188 0.27529,-0.71736 1.43011,-1.237 2.85547,-1.2832 l 2.39258,-0.0781 -2.45898,-0.78906 c -1.95304,-0.62695 -2.56018,-1.31789 -2.94141,-3.34961 -0.51673,-2.75498 -2.5957,-3.58571 -2.5957,-1.03711 0,1.34969 -0.54201,1.53496 -4.75977,1.62695 -2.61808,0.0571 -3.98936,0.25401 -3.04687,0.43555 0.94255,0.18151 1.71289,0.82125 1.71289,1.42383 0,0.81013 -0.89303,1.06267 -3.42969,0.9668 -1.88679,-0.0714 -3.6582,0.0976 -3.93555,0.375 -0.51906,0.51912 1.86421,0.77838 4.89063,0.5332 1.80721,-0.14639 2.13256,0.99798 1.23437,4.34961 -0.30577,1.14073 -1.03913,1.71484 -2.19336,1.71484 -0.9535,0 -1.92099,0.48783 -2.15039,1.08594 -0.22954,0.59814 -1.37999,1.19905 -2.55664,1.33398 -1.96872,0.22572 -2.12145,0.47367 -1.91601,3.10157 0.12659,1.618 -0.12211,2.85547 -0.57227,2.85547 -0.43699,0 -0.79492,-0.36644 -0.79492,-0.81446 0,-1.54327 -3.42047,-0.37628 -3.65235,1.2461 -0.29628,2.0721 -4.00902,3.37695 -9.60937,3.37695 h -4.39844 l 0.26172,-7.61719 c 0.14398,-4.18926 0.006,-7.6175 -0.30859,-7.61719 -0.31416,4.1e-4 -0.57031,3.08548 -0.57032,6.85547 10e-6,4.45252 -0.29297,6.85547 -0.83398,6.85547 -0.58287,0 -0.76135,-4.6284 -0.59766,-15.42383 0.32231,-21.25668 -1.06329,-20.72462 -1.81054,0.69532 -0.31679,9.08276 -0.68112,16.62019 -0.8086,16.74804 -0.38368,0.38422 -2.93219,0.51234 -7.56445,0.38477 l -4.37891,-0.11914 v -4.50977 c 0,-4.39676 -0.0578,-4.52147 -2.29882,-5.01367 -2.93065,-0.64325 -8.44501,-0.64858 -11.35352,-0.01 -1.93844,0.42577 -2.28965,0.88955 -2.49023,3.29493 -0.16212,1.94425 -0.64045,2.8753 -1.56641,3.05078 -1.06715,0.20224 -1.35296,-0.32871 -1.43945,-2.66016 l -0.10938,-2.91015 -0.46289,2.66406 c -0.75747,4.35997 -2.66525,3.4492 -3.1914,-1.52344 l -0.44336,-4.1875 -0.12696,4.49219 -0.1289,4.49219 -6.57032,-0.4629 c -0.0867,-0.006 -0.14049,-0.0133 -0.22656,-0.0195 v 143.6465 H 1241.6797 V 288.53711 l -2.6973,0.23047 c -1.0845,-1.34097 -2.002,-1.36036 -1.4433,0.0957 0,0.0109 0,0.0166 0.01,0.0273 l -1.8789,0.16016 c -0.426,-0.34083 -0.8927,-0.75595 -1.4024,-1.27734 -1.2009,-1.22851 -2.386,-2.02995 -2.6347,-1.78125 -0.2488,0.24875 -1.4832,0.48212 -2.7422,0.51953 -2.0629,0.0611 -2.2891,-0.16488 -2.2891,-2.27539 2e-4,-2.16696 -0.1933,-2.33601 -2.5898,-2.28321 -1.4245,0.0314 -2.3967,0.37245 -2.1602,0.75782 0.2389,0.38912 -0.1571,0.47357 -0.8926,0.1914 -0.7747,-0.29731 -1.8076,-0.0244 -2.4902,0.65821 -0.8985,0.89846 -1.4107,0.96383 -2.2285,0.28515 -0.8549,-0.7096 -1.0625,-0.54205 -1.0625,0.85352 v 1.73242 l -1.5235,-1.75586 c -0.8379,-0.96596 -1.5234,-2.04756 -1.5234,-2.40234 0,-0.35482 -0.3819,-0.64453 -0.8496,-0.64453 -0.4991,0 -0.6977,0.79496 -0.4824,1.92187 0.4534,2.37116 -0.574,3.13496 -2.127,1.58203 -1.6145,-1.61458 -4.6003,-0.17894 -5.6015,2.69336 -0.7152,2.05159 -2.0519,2.63394 -5.1622,2.25 -0.4919,-0.0607 -1.1112,0.24189 -1.3769,0.67188 -0.6207,1.0043 -4.7259,1.01905 -5.3438,0.0195 -0.2587,-0.4189 -2.336,-0.76172 -4.6152,-0.76172 h -4.1426 v -15.23242 c 0,-12.49624 -0.192,-15.23242 -1.0605,-15.23242 -0.8512,0 -1.168,3.0657 -1.6172,15.64648 -0.3646,10.20977 -0.8314,15.55426 -1.3457,15.38281 -0.4335,-0.14449 -0.9146,-1.08683 -1.0684,-2.09375 -0.311,-2.03836 -1.8525,-3.36796 -2.5664,-2.21289 -0.537,0.86891 -2.8236,0.18414 -4.6699,-1.39844 -0.7067,-0.60571 -1.6266,-0.89016 -2.043,-0.63281 -0.4164,0.2573 -0.9376,0.17538 -1.1582,-0.18164 -0.2207,-0.35702 -1.0148,-0.59403 -1.7656,-0.52734 -3.2155,0.28589 -4.7362,1.33795 -5.5664,3.85351 -0.4772,1.44609 -1.129,2.62891 -1.4473,2.62891 -0.3181,0 -2.0179,-1.36927 -3.7773,-3.04297 -2.6902,-2.55913 -3.0726,-3.27854 -2.4063,-4.52344 0.4358,-0.81417 0.5166,-1.65113 0.1797,-1.85937 -0.9461,-0.58796 -0.9512,-18.75391 0,-18.75391 0.5158,0 0.4837,-0.38278 -0.092,-1.07617 -0.4916,-0.59236 -1.1002,-4.70637 -1.3515,-9.14062 -0.406,-7.17105 -0.6125,-8.06055 -1.8653,-8.06055 -1.2849,0 -1.4082,0.73447 -1.4082,8.37695 v 8.37695 h -2.2402 c -1.232,0 -2.4521,0.34286 -2.7109,0.76172 -0.2733,0.44206 0.4744,0.76172 1.7793,0.76172 2.4134,0 3.4523,1.37649 2.3515,3.11524 -0.3737,0.59034 -0.7072,0.73136 -0.7402,0.3125 -0.033,-0.4189 -0.4311,0.0954 -0.8867,1.14257 -1.0056,2.31087 -0.8056,4.47172 0.541,5.81836 0.6407,0.64577 0.8794,2.16429 0.6543,4.25782 -0.962,8.95211 -1.4406,9.60724 -4.2578,5.83398 -1.8836,-2.52302 -1.9196,-3.03358 -2.0196,-28.33984 l -0.086,-21.94922 -1.7148,0.24414 -1.7129,0.24219 -0.3809,24.21093 c -0.3209,20.40405 -0.5606,24.32162 -1.5234,24.92969 -1.9929,1.25859 -3.6169,0.81266 -5.5957,-1.53906 -1.4505,-1.72381 -2.5651,-2.28516 -4.543,-2.28516 -1.4418,0 -3.0489,0.51426 -3.5703,1.14258 -1.6087,1.93823 -2.0681,1.31258 -2.6192,-3.55859 -0.4363,-3.85671 -0.3184,-4.8204 0.6622,-5.36914 0.6573,-0.36783 1.1953,-1.16593 1.1953,-1.77344 0,-1.78836 -4.4748,-1.39001 -6.0352,0.53711 -0.731,0.90265 -2.1563,1.70245 -3.168,1.77734 l -1.8398,0.13672 -0.3809,-19.86523 -0.3808,-19.86719 h -1.9043 z m -31.6738,14.08984 c 0.9758,0 1.372,0.43857 1.2011,1.33203 -0.1405,0.73308 -0.2834,1.76157 -0.3144,2.28516 -0.083,1.34937 -1.3305,1.18246 -1.8809,-0.25195 -0.8357,-2.17786 -0.4847,-3.36524 0.9942,-3.36524 z m -6.0879,5.70508 c 0.1365,0.0149 0.2863,0.0511 0.4433,0.11133 0.6284,0.24115 1.1426,0.57363 1.1426,0.73828 0,0.16462 -0.5142,0.29883 -1.1426,0.29883 -0.6283,0 -1.1426,-0.33255 -1.1426,-0.73828 0,-0.3043 0.2896,-0.45497 0.6993,-0.41016 z m 11.0175,0.38672 c 0.5795,0 1.232,0.68567 1.4512,1.52344 0.2954,1.12983 0.022,1.52343 -1.0547,1.52343 -0.9441,0 -1.4511,-0.53288 -1.4511,-1.52343 0,-0.83777 0.4751,-1.52344 1.0546,-1.52344 z m -57.1679,2.44141 c 0.157,0.0199 0.383,0.16815 0.6562,0.4414 0.4947,0.49568 0.7224,1.07654 0.5059,1.29297 -0.5081,0.50829 -1.4082,-0.39163 -1.4082,-1.4082 0,-0.23859 0.089,-0.34608 0.2461,-0.32617 z m 41.6699,1.36718 c 0.4041,0 0.7344,0.64845 0.7344,1.44141 0,1.42411 -1.7339,2.66448 -2.5645,1.83398 -0.5852,-0.58528 0.9178,-3.27539 1.8301,-3.27539 z m 15.6504,0.0156 c 0.092,-0.008 0.1871,-0.006 0.2812,0.004 0.4522,0.0488 0.9105,0.30942 1.2227,0.81446 0.6027,0.97537 -1.4085,3.26156 -2.1855,2.48437 -0.2894,-0.28921 -0.5254,-1.15393 -0.5254,-1.92187 0,-0.83082 0.5616,-1.32495 1.207,-1.38086 z m -67.1719,1.79492 c 0.2731,0.005 0.4668,0.29435 0.4668,0.76563 0,0.6283 -0.3429,1.35437 -0.7617,1.61328 -0.419,0.25887 -0.7617,-0.0436 -0.7617,-0.67188 0,-0.62835 0.3427,-1.35437 0.7617,-1.61328 0.1047,-0.0647 0.2039,-0.0955 0.2949,-0.0937 z m 4.7481,1.5332 c 0.093,-0.003 0.1943,0.026 0.3007,0.0918 0.4249,0.2631 0.5771,0.79754 0.336,1.1875 -0.6528,1.05637 -1.1094,0.85928 -1.1094,-0.47852 0,-0.48982 0.1951,-0.79145 0.4727,-0.80078 z m 5.332,0 c 0.093,-0.003 0.1924,0.026 0.2988,0.0918 0.4249,0.2631 0.5769,0.79754 0.336,1.1875 -0.6529,1.05637 -1.1094,0.85928 -1.1094,-0.47852 0,-0.48982 0.197,-0.79145 0.4746,-0.80078 z m 38.7129,1.22657 c 1.733,0 1.4472,0.97981 -0.957,3.2832 -2.0439,1.95822 -3.9846,2.68718 -3.9336,1.47656 0.049,-1.1583 3.7495,-4.75976 4.8906,-4.75976 z m 18.9121,0.76171 c 0.5386,0 0.9805,0.68372 0.9805,1.52149 v 0 c 0,0.8378 -0.029,1.52344 -0.064,1.52344 -0.036,0 -0.4758,-0.41143 -0.9786,-0.91407 -1.1916,-1.19233 -1.1643,-2.13086 0.065,-2.13086 z m -6.0313,0.26172 c 0.069,0.0105 0.151,0.12763 0.2422,0.35547 0.2192,0.5498 0.1926,1.20787 -0.061,1.46094 -0.2531,0.25307 -0.4334,-0.19713 -0.4004,-1 0.023,-0.55452 0.1033,-0.83389 0.2187,-0.81641 z m -9.623,0.71875 c 0.195,0.0824 0.2051,0.57949 0.2051,1.56641 0,1.51433 -0.3828,2.02148 -1.5235,2.02148 -0.8378,0 -1.5234,-0.2886 -1.5234,-0.64257 0,-0.35398 0.6856,-1.26528 1.5234,-2.02344 0.7431,-0.67281 1.1234,-1.00424 1.3184,-0.92188 z m 1.3223,0.89453 c 0.046,0.0171 0.096,0.0879 0.1484,0.21875 0.2113,0.52363 0.2113,1.38071 0,1.9043 -0.2113,0.52362 -0.3828,0.0941 -0.3828,-0.95312 0,-0.78549 0.097,-1.22126 0.2344,-1.16993 z m -53.668,0.40821 c 0.4188,0 0.75,0.60094 0.75,1.33398 -0.01,0.73307 -0.3439,1.84629 -0.75,2.47461 -0.5602,0.86692 -0.737,0.54631 -0.75,-1.33203 -0.01,-1.36136 0.331,-2.47656 0.75,-2.47656 z m 55.5976,0 c 0.4191,0 0.7618,0.32264 0.7618,0.71679 0,0.39419 -0.3427,0.92863 -0.7618,1.1875 -0.4187,0.25888 -0.7617,-0.0638 -0.7617,-0.71679 0,-0.65306 0.3429,-1.1875 0.7617,-1.1875 z m -60.4082,0.0723 c 0.1969,-0.0246 0.2024,0.40285 0.2149,1.25586 0.014,0.93895 -0.6603,2.13502 -1.4981,2.65821 -0.8377,0.52322 -1.5234,1.30711 -1.5234,1.74218 0,0.43508 -1.2382,2.0664 -2.75195,3.625 -1.51397,1.55861 -3.1414,2.82826 -3.61718,2.82227 -0.53024,-0.007 -0.47103,-0.26114 0.15234,-0.65625 0.55936,-0.3546 0.95807,-0.88718 0.88867,-1.18359 -0.0699,-0.29645 1.07838,-1.97342 2.55078,-3.72461 1.47234,-1.7512 3.37304,-4.04068 4.22464,-5.08789 0.7738,-0.9514 1.1625,-1.42655 1.3593,-1.45118 z m 106.0411,0.0234 c -0.2646,-0.0109 -0.5669,0.0365 -0.8418,0.14648 -0.6075,0.24314 -0.4263,0.42443 0.4609,0.46094 0.8029,0.0331 1.253,-0.14732 1,-0.40039 -0.1265,-0.12657 -0.3545,-0.19612 -0.6191,-0.20703 z m -148.95902,0.0566 c 1.47455,0 2.53906,0.38621 2.53906,0.91992 0,0.51928 -1.10435,0.94966 -2.53906,0.99024 -1.61308,0.0457 -2.53906,-0.28835 -2.53906,-0.91797 0,-0.61525 0.96276,-0.99219 2.53906,-0.99219 z m 75.50192,0.96289 c -0.1378,-0.0513 -0.2363,0.38451 -0.2363,1.16992 0,1.04731 0.1735,1.47675 0.3848,0.95313 0.2112,-0.52359 0.2112,-1.38071 0,-1.9043 -0.053,-0.1309 -0.1025,-0.20164 -0.1485,-0.21875 z m -76.77145,1.93164 c 0.55839,0 1.01562,0.68564 1.01562,1.52344 0,1.73176 -1.90948,2.07507 -2.53125,0.45508 -0.47786,-1.24558 0.083,-1.97852 1.51563,-1.97852 z m 92.84175,0 c 0.6002,0 1.0795,0.25809 1.0665,0.57227 -0.038,0.89048 -3.6274,4.75976 -4.4161,4.75976 -0.3878,0 -1.2429,0.7704 -1.9004,1.71289 -0.7401,1.06122 -1.2093,1.30926 -1.2343,0.65039 -0.056,-1.49792 5.1656,-7.69531 6.4843,-7.69531 z m 56.8047,0 c -0.3552,0 -0.6759,1.02849 -0.7109,2.28516 -0.036,1.25666 0.2556,2.28516 0.6465,2.28515 0.3907,0 0.7109,-1.02849 0.7109,-2.28515 0,-1.25667 -0.2913,-2.28516 -0.6465,-2.28516 z m -50.7402,0.14844 c 0.1093,-0.007 0.2144,-0.006 0.3164,0.006 2.4078,0.28049 3.1184,3.28755 1.1211,4.74805 -0.7374,0.53921 -1.5274,2.43671 -1.7754,4.26562 l -0.4473,3.29492 -3.6367,0.13672 c -2.001,0.0755 -3.8325,-0.17778 -4.0703,-0.5625 -1.5625,-2.52809 5.105,-11.66584 8.4922,-11.88867 z m -66.375,0.24219 c -0.64928,0.0452 -1.05215,0.51474 -0.65821,1.15234 0.2298,0.37164 0.94959,0.4721 1.59961,0.22266 0.92317,-0.35426 0.96825,-0.58571 0.20313,-1.0586 -0.2888,-0.17848 -0.58354,-0.27766 -0.85352,-0.30859 -0.10124,-0.0116 -0.19826,-0.0143 -0.29101,-0.008 z m 73.291,2.18554 c 0.091,-0.004 0.1922,0.0251 0.2969,0.0899 0.4189,0.25888 0.7617,0.79334 0.7617,1.1875 0,0.39415 -0.3428,0.7168 -0.7617,0.71679 -0.4189,10e-6 -0.7617,-0.53443 -0.7617,-1.1875 0,-0.48979 0.1917,-0.79454 0.4648,-0.80664 z m -62.1133,1.23243 c 0.9968,0 0.9011,3.33843 -0.164,5.67578 -0.8374,1.83807 -2.089,2.60764 -2.2266,1.36914 -0.035,-0.31418 -0.1488,-1.34827 -0.2539,-2.29688 -0.2014,-1.82021 1.429,-4.74804 2.6445,-4.74804 z m 5.125,0.33203 c 0.052,-0.003 0.1069,0.0135 0.1641,0.0488 0.4188,0.25887 0.75,1.04948 0.75,1.75781 -0.01,0.70833 -0.3439,1.80332 -0.75,2.43164 -0.5481,0.84804 -0.737,0.39372 -0.75,-1.75977 -0.01,-1.52471 0.2222,-2.45833 0.5859,-2.47851 z m -49.25388,0.42968 c 0.86786,10e-6 1.42916,0.40204 1.26172,0.9043 -0.47012,1.4102 -1.87427,1.56945 -2.37304,0.26953 -0.31584,-0.8232 0.0161,-1.17383 1.11132,-1.17383 z m 148.40238,1.52344 c 0.4058,0 0.5418,0.51423 0.3008,1.14258 -0.2414,0.62832 -0.5736,1.14258 -0.7383,1.14258 -0.1647,0 -0.2989,-0.51426 -0.2989,-1.14258 0,-0.62835 0.3307,-1.14258 0.7364,-1.14258 z m 33.832,3.33399 c -0.091,-0.002 -0.1922,0.029 -0.2969,0.0937 -0.4188,0.25891 -0.7617,0.98302 -0.7617,1.61132 0,0.62843 0.3429,0.93079 0.7617,0.67188 0.4189,-0.25888 0.7617,-0.98493 0.7617,-1.61328 0,-0.47131 -0.1917,-0.75844 -0.4648,-0.76367 z m -102.3965,0.47461 c -0.4435,0 -0.5949,0.34089 -0.3359,0.75976 0.2589,0.4189 0.6218,0.76172 0.8066,0.76172 0.1847,0 0.336,-0.34282 0.336,-0.76172 0,-0.41887 -0.363,-0.75976 -0.8067,-0.75976 z m 8.586,0.1582 c 0.3394,0.0179 0.5976,0.2757 0.5976,0.83789 0,0.61841 -0.5384,1.33119 -1.1973,1.58398 -0.8351,0.32051 -1.1245,0.0769 -0.9531,-0.80664 0.1954,-1.00756 0.9871,-1.64512 1.5528,-1.61523 z m 176.1425,0.23047 c -0.311,-0.0125 -0.7073,0.0386 -1.1797,0.16211 -1.6225,0.42436 -1.6697,0.56723 -1,3.0664 0.4813,1.79578 1.4977,2.12601 3.2032,1.04493 0.8077,-0.51202 0.7498,-0.74446 -0.2774,-1.13868 -0.9777,-0.37515 -1.0873,-0.74322 -0.4511,-1.50976 0.8085,-0.97422 0.6383,-1.58749 -0.295,-1.625 z m -226.61716,0.37109 c 0.44362,0 0.80664,0.34285 0.80664,0.76172 0,0.4189 -0.15122,0.76172 -0.33593,0.76172 -0.1846,0 -0.54779,-0.34282 -0.80664,-0.76172 -0.25884,-0.41887 -0.10769,-0.76172 0.33593,-0.76172 z m -45.68554,0.83594 c 0.66543,0.0408 0.81849,0.38745 0.66406,1.19726 -0.14783,0.77482 -1.05374,1.50634 -2.03906,1.64649 -1.3731,0.19529 -1.71374,-0.0629 -1.50782,-1.14258 0.14767,-0.7748 1.0539,-1.50633 2.03907,-1.64648 0.34331,-0.0488 0.62194,-0.0683 0.84375,-0.0547 z m -40.28711,8.30469 c 0.86251,0 1.35658,0.34282 1.09765,0.76172 -0.25884,0.41886 -0.96477,0.76171 -1.56836,0.76171 -0.60365,0 -1.09765,-0.34285 -1.09765,-0.76171 0,-0.4189 0.70586,-0.76172 1.56836,-0.76172 z"
       id="rect5280"
       inkscape:connector-curvature="0" />
    <path
       style="fill:#e51f40;fill-opacity:1;stroke-width:1.24825156"
       d="m 1419.541,262.42383 -0.2422,0.21679 c -0.1362,0.11805 -0.2461,0.2433 -0.2461,0.26954 0,0.0328 -0.022,0.0586 -0.053,0.0586 -0.026,0 -0.1,0.0787 -0.1602,0.18359 -0.061,0.0984 -0.158,0.21706 -0.2148,0.26954 -0.057,0.0524 -0.1035,0.1176 -0.1035,0.15039 0,0.0262 -0.022,0.0527 -0.049,0.0527 -0.026,0 -0.083,0.0516 -0.125,0.11719 -0.038,0.059 -0.1171,0.15065 -0.1739,0.20312 -0.061,0.0524 -0.1054,0.11956 -0.1054,0.15235 0,0.0262 -0.023,0.0508 -0.053,0.0508 -0.026,0 -0.1,0.0787 -0.1601,0.18359 -0.061,0.0984 -0.1581,0.21706 -0.2149,0.26953 -0.057,0.0525 -0.1015,0.11758 -0.1015,0.15039 0,0.0262 -0.024,0.0527 -0.051,0.0527 -0.026,0 -0.083,0.0535 -0.125,0.11914 -0.038,0.059 -0.1171,0.15065 -0.1738,0.20312 -0.061,0.0525 -0.1055,0.11761 -0.1055,0.15039 0,0.0263 -0.023,0.0527 -0.053,0.0527 -0.026,0 -0.098,0.0787 -0.1621,0.18359 -0.1059,0.17052 -0.3179,0.40625 -0.3671,0.40625 -0.011,0 -0.024,-0.171 -0.024,-0.38086 0,-0.20982 -0.014,-0.40597 -0.037,-0.44531 -0.019,-0.0328 -0.039,-0.30897 -0.047,-0.61719 l -0.01,-0.55664 -0.1856,-0.0195 c -0.1022,-0.0131 -0.2057,0.0121 -0.2246,0.0449 -0.023,0.0393 -0.1812,0.0723 -0.3516,0.0723 -0.174,0 -0.3245,0.0336 -0.3359,0.0664 -0.011,0.0394 -0.182,0.0645 -0.375,0.0645 -0.1892,0 -0.364,0.0278 -0.3867,0.0605 -0.019,0.0394 -0.1105,0.0709 -0.2051,0.084 l -0.1699,0.0195 -0.012,0.45312 c -0.01,0.25575 0.01,0.48606 0.031,0.5254 0.023,0.0394 0.037,0.39308 0.037,0.86523 0,0.46559 0.016,0.81944 0.039,0.8457 0.023,0.0262 0.037,0.36086 0.037,0.78711 0,0.42623 0.014,0.76091 0.037,0.78711 0.023,0.0197 0.039,0.20241 0.039,0.39258 0,0.28198 -0.015,0.36676 -0.072,0.42578 -0.042,0.0328 -0.095,0.10516 -0.125,0.14453 -0.026,0.0459 -0.1282,0.15693 -0.2266,0.24219 -0.1021,0.0853 -0.1816,0.18401 -0.1816,0.2168 0,0.0262 -0.022,0.0527 -0.049,0.0527 -0.026,0 -0.087,0.0587 -0.1328,0.13086 -0.045,0.0721 -0.094,0.13086 -0.1133,0.13086 -0.015,0 -0.066,0.0536 -0.1074,0.11914 -0.038,0.059 -0.1516,0.18431 -0.25,0.26953 -0.1022,0.0853 -0.1817,0.18206 -0.1817,0.21485 0,0.0262 -0.022,0.0527 -0.049,0.0527 -0.027,0 -0.087,0.0587 -0.1328,0.13086 -0.045,0.0722 -0.094,0.13281 -0.1133,0.13281 -0.015,0 -0.064,0.0516 -0.1055,0.11719 -0.038,0.059 -0.1516,0.18424 -0.25,0.26953 -0.1022,0.0852 -0.1816,0.18206 -0.1816,0.21484 0,0.0262 -0.022,0.0527 -0.049,0.0527 -0.026,0 -0.087,0.0587 -0.1329,0.13086 -0.045,0.0721 -0.094,0.13281 -0.1132,0.13281 -0.015,0 -0.064,0.0516 -0.1055,0.11719 -0.038,0.059 -0.1516,0.18427 -0.25,0.26953 -0.1022,0.0853 -0.1816,0.18206 -0.1816,0.21484 0,0.0262 -0.022,0.0527 -0.049,0.0527 -0.027,0 -0.087,0.0587 -0.1328,0.13086 -0.045,0.0721 -0.094,0.13281 -0.1133,0.13281 -0.015,0 -0.066,0.0516 -0.1074,0.11719 -0.038,0.059 -0.1496,0.1843 -0.248,0.26953 -0.1022,0.0853 -0.1817,0.18398 -0.1817,0.2168 0,0.0262 -0.024,0.0508 -0.051,0.0508 -0.03,0 -0.083,0.0528 -0.1171,0.125 -0.061,0.11801 -0.06,0.13894 0.019,0.375 0.042,0.13772 0.1067,0.28809 0.1445,0.33398 0.076,0.0984 0.6171,0.11011 0.6739,0.0117 0.019,-0.0328 0.1122,-0.058 0.2031,-0.0449 l 0.166,0.0195 0.012,1.59961 c 0,1.023 0,1.62598 -0.029,1.67187 -0.023,0.0394 -0.039,1.23356 -0.039,3.42383 0,2.17059 -0.014,3.37806 -0.037,3.4043 -0.029,0.0326 -0.036,1.44471 -0.027,2.45117 h -6.8223 c 0,-0.0196 0,-0.14067 -0.01,-0.14258 -0.024,-0.0156 -0.039,-0.73485 -0.039,-2.02929 0,-1.3062 -0.016,-2.0195 -0.039,-2.04297 -0.027,-0.0274 -0.035,-0.38601 -0.031,-0.9961 l 0.012,-0.95508 0.1719,-0.0117 c 0.094,-0.008 0.1914,0.008 0.2109,0.0273 0.059,0.0587 0.6171,0.0509 0.6953,-0.008 0.039,-0.0274 0.1055,-0.11707 0.1485,-0.19922 0.082,-0.14077 0.082,-0.15227 0.02,-0.22266 -0.035,-0.043 -0.09,-0.0742 -0.1211,-0.0742 -0.027,0 -0.051,-0.0156 -0.051,-0.0312 0,-0.0196 -0.082,-0.0781 -0.1875,-0.1289 -0.1016,-0.0508 -0.2187,-0.12495 -0.2578,-0.16016 -0.043,-0.0391 -0.094,-0.0703 -0.1094,-0.0703 -0.02,0 -0.07,-0.0351 -0.1171,-0.0781 -0.047,-0.043 -0.1094,-0.0781 -0.1368,-0.0781 -0.027,0 -0.051,-0.0156 -0.051,-0.0312 0,-0.0196 -0.082,-0.0781 -0.1875,-0.12891 -0.1017,-0.0508 -0.2207,-0.12495 -0.2598,-0.16015 -0.043,-0.0391 -0.094,-0.0723 -0.1094,-0.0723 -0.02,0 -0.07,-0.0351 -0.1172,-0.0781 -0.047,-0.043 -0.1093,-0.0781 -0.1367,-0.0781 -0.027,0 -0.051,-0.0156 -0.051,-0.0312 0,-0.0196 -0.082,-0.0781 -0.1875,-0.12891 -0.1016,-0.0509 -0.2187,-0.12498 -0.2578,-0.16015 -0.043,-0.0391 -0.094,-0.0703 -0.1094,-0.0703 -0.019,0 -0.07,-0.0351 -0.1171,-0.0781 -0.047,-0.043 -0.1094,-0.0781 -0.1368,-0.0781 -0.027,0 -0.051,-0.0156 -0.051,-0.0313 0,-0.0196 -0.082,-0.078 -0.1875,-0.1289 -0.1017,-0.0508 -0.2207,-0.12498 -0.2598,-0.16016 -0.043,-0.0391 -0.094,-0.0703 -0.1094,-0.0703 -0.019,0 -0.07,-0.0351 -0.1172,-0.0781 -0.047,-0.043 -0.1093,-0.0781 -0.1367,-0.0781 -0.027,0 -0.051,-0.0156 -0.051,-0.0312 0,-0.0195 -0.082,-0.0781 -0.1875,-0.12891 -0.1017,-0.0508 -0.207,-0.11717 -0.2343,-0.14453 -0.031,-0.0235 -0.086,-0.0664 -0.129,-0.0859 -0.059,-0.0352 -0.074,-0.0877 -0.074,-0.25586 0,-0.11342 0.016,-0.22264 0.039,-0.23438 0.024,-0.0156 0.039,-0.21459 0.039,-0.46875 0,-0.25422 0.016,-0.4531 0.039,-0.46875 0.024,-0.0157 0.039,-0.2282 0.039,-0.50586 0,-0.28157 0.016,-0.49212 0.039,-0.51562 0.024,-0.0234 0.039,-0.16 0.031,-0.3125 l -0.012,-0.26954 -0.1758,-0.0117 c -0.098,-0.008 -0.1914,-0.0273 -0.2109,-0.0508 -0.024,-0.0196 -0.2029,-0.0351 -0.3985,-0.0351 -0.1994,0 -0.3769,-0.0156 -0.3887,-0.0391 -0.012,-0.0196 -0.1677,-0.0391 -0.3476,-0.0391 -0.176,0 -0.3398,-0.0195 -0.3633,-0.043 -0.019,-0.0196 -0.1249,-0.0352 -0.2305,-0.0274 l -0.1914,0.0117 -0.012,0.33203 c -0.01,0.1838 -0.027,0.34763 -0.047,0.36719 -0.023,0.0234 -0.039,0.1405 -0.039,0.26562 0,0.12516 -0.012,0.22657 -0.024,0.22657 -0.051,0 -0.2713,-0.14051 -0.3808,-0.24219 -0.066,-0.0626 -0.1406,-0.10938 -0.168,-0.10938 -0.031,0 -0.055,-0.0156 -0.055,-0.0312 0,-0.0196 -0.047,-0.0586 -0.1094,-0.0898 -0.059,-0.0313 -0.1405,-0.0859 -0.1796,-0.12109 -0.043,-0.0391 -0.1016,-0.0703 -0.1289,-0.0703 -0.027,0 -0.051,-0.0156 -0.051,-0.0312 0,-0.0196 -0.047,-0.0585 -0.1055,-0.0898 -0.059,-0.0313 -0.1601,-0.10148 -0.2227,-0.16016 -0.062,-0.0626 -0.1366,-0.10937 -0.164,-0.10937 -0.031,0 -0.055,-0.0156 -0.055,-0.0312 0,-0.0196 -0.047,-0.0586 -0.1094,-0.0898 -0.059,-0.0313 -0.1425,-0.0859 -0.1816,-0.1211 -0.043,-0.0391 -0.1015,-0.0723 -0.1289,-0.0723 -0.027,0 -0.051,-0.0156 -0.051,-0.0312 0,-0.0196 -0.047,-0.0586 -0.1055,-0.0899 -0.059,-0.0313 -0.1601,-0.10147 -0.2226,-0.16015 -0.063,-0.0626 -0.1367,-0.10938 -0.1641,-0.10938 -0.031,0 -0.055,-0.0156 -0.055,-0.0352 0,-0.0156 -0.1131,-0.0898 -0.2539,-0.16015 l -0.25,-0.12891 -0.2187,0.10547 c -0.1174,0.0587 -0.2402,0.12887 -0.2676,0.15234 -0.024,0.0274 -0.1288,0.0898 -0.2344,0.14063 -0.1017,0.0509 -0.1836,0.10935 -0.1836,0.12891 0,0.0156 -0.023,0.0312 -0.051,0.0312 -0.027,0 -0.086,0.0312 -0.1289,0.0703 -0.039,0.0391 -0.1405,0.0976 -0.2187,0.13672 -0.078,0.0391 -0.168,0.0918 -0.1953,0.11914 -0.027,0.0274 -0.1327,0.0898 -0.2383,0.14062 -0.1017,0.0508 -0.1836,0.10938 -0.1836,0.12891 0,0.0156 -0.023,0.0312 -0.055,0.0312 -0.027,0 -0.1073,0.0507 -0.1738,0.11719 -0.07,0.0665 -0.1406,0.11718 -0.1563,0.11718 -0.019,0 -0.09,0.0546 -0.1562,0.11719 -0.07,0.0665 -0.1406,0.11719 -0.1563,0.11719 -0.019,0 -0.09,0.0546 -0.1562,0.11719 -0.07,0.0665 -0.1406,0.11718 -0.1563,0.11718 -0.019,0 -0.09,0.0507 -0.1562,0.11719 -0.07,0.0626 -0.1406,0.11719 -0.1563,0.11719 -0.019,0 -0.09,0.0546 -0.1562,0.11719 -0.07,0.0626 -0.1406,0.11718 -0.1563,0.11718 -0.019,0 -0.086,0.0468 -0.1484,0.10938 -0.063,0.0587 -0.166,0.13081 -0.2246,0.16211 -0.059,0.0313 -0.1055,0.0702 -0.1055,0.0898 0,0.0156 -0.023,0.0312 -0.055,0.0312 -0.027,0 -0.1054,0.0546 -0.1719,0.11719 -0.07,0.0665 -0.1406,0.11719 -0.1562,0.11719 -0.02,0 -0.09,0.0507 -0.1563,0.11718 -0.07,0.0626 -0.1406,0.11719 -0.1562,0.11719 -0.02,0 -0.09,0.0507 -0.1563,0.11719 -0.07,0.0626 -0.1406,0.11719 -0.1562,0.11719 -0.02,0 -0.09,0.0507 -0.1563,0.11718 -0.07,0.0626 -0.1406,0.11719 -0.1562,0.11719 -0.02,0 -0.088,0.0468 -0.1504,0.10938 -0.063,0.0587 -0.164,0.12886 -0.2226,0.16015 -0.059,0.0313 -0.1055,0.0703 -0.1055,0.0898 0,0.0156 -0.023,0.0312 -0.055,0.0312 -0.027,0 -0.1054,0.0565 -0.1719,0.11914 -0.07,0.0665 -0.1406,0.1172 -0.1562,0.11718 -0.02,0 -0.09,0.0507 -0.1563,0.11719 -0.07,0.0665 -0.1406,0.11719 -0.1562,0.11719 -0.02,0 -0.09,0.0507 -0.1563,0.11719 -0.07,0.0626 -0.1406,0.11719 -0.1562,0.11719 -0.02,0 -0.09,0.0507 -0.1563,0.11718 -0.07,0.0665 -0.1406,0.11719 -0.1562,0.11719 -0.02,0 -0.092,0.0546 -0.1582,0.11719 -0.07,0.0665 -0.1406,0.11719 -0.1563,0.11718 -0.019,0 -0.09,0.0546 -0.1562,0.11719 -0.07,0.0665 -0.1406,0.11719 -0.1563,0.11719 -0.02,0 -0.09,0.0507 -0.1562,0.11719 -0.07,0.0626 -0.1406,0.11718 -0.1563,0.11719 -0.019,0 -0.09,0.0546 -0.1562,0.11718 -0.07,0.0665 -0.1406,0.11914 -0.1602,0.11914 -0.02,0 -0.1054,0.0702 -0.1953,0.15625 -0.086,0.086 -0.1757,0.15625 -0.1953,0.15625 -0.02,0 -0.1073,0.0702 -0.1973,0.15625 -0.086,0.086 -0.1757,0.15625 -0.1953,0.15625 -0.016,0 -0.086,0.0546 -0.1523,0.11719 -0.07,0.0665 -0.1406,0.11719 -0.1602,0.11719 -0.055,0 -0.2422,0.20305 -0.2266,0.25 0.01,0.0274 0.2457,0.0508 0.6563,0.0625 l 0.6426,0.0195 0.01,1.97461 c 0.01,1.24754 0.027,2.00386 0.051,2.05469 0.023,0.0508 0.043,0.8247 0.051,2.11132 v 0.10352 h -7.5527 v -0.25195 c 0.025,-1.44556 0.064,-3.78533 0.096,-5.19922 l 0.043,-2.56836 0.6348,-0.0508 c 0.3487,-0.0254 0.9007,-0.0703 1.2304,-0.0957 0.3297,-0.0254 0.6084,-0.0694 0.6211,-0.10742 0.013,-0.0317 -0.5707,-0.79205 -1.2871,-1.67969 -0.7164,-0.88766 -2.5364,-3.13792 -4.0391,-5.00195 l -2.7382,-3.3789 -1.5918,0.043 c -1.0652,0.0254 -1.6113,0.0205 -1.6368,-0.0176 -0.025,-0.038 -0.07,-0.45123 -0.1015,-0.91407 -0.038,-0.46283 -0.088,-0.86136 -0.1133,-0.88671 -0.076,-0.0761 -3.3795,-0.26114 -3.4492,-0.19141 -0.038,0.038 -0.038,0.50815 0.01,1.22461 0.032,0.64036 0.039,1.1851 0.014,1.2168 -0.025,0.0254 -3.9132,0.17157 -8.6367,0.33007 -4.7235,0.15217 -8.9898,0.29693 -9.4844,0.32227 l -0.8945,0.0391 -2.9023,4.53906 c -1.5915,2.49806 -2.898,4.58356 -2.9043,4.64063 -0.01,0.0824 0.121,0.0957 0.8945,0.0957 0.4882,0 0.9126,0.0201 0.9316,0.0391 0.025,0.019 0.1271,2.24436 0.2285,4.94532 0.063,1.58087 0.097,1.99674 0.1446,2.9082 h -7.5508 v -0.6582 c 0.01,-1.65989 0.036,-2.65901 0.066,-2.72461 0.03,-0.0656 0.054,-1.03901 0.065,-2.64844 l 0.01,-2.54883 0.8281,-0.0234 c 0.5297,-0.0152 0.8377,-0.0467 0.8476,-0.082 0.02,-0.0606 -0.2223,-0.32226 -0.2929,-0.32226 -0.025,0 -0.1161,-0.0666 -0.2071,-0.15235 -0.086,-0.0807 -0.177,-0.15039 -0.1972,-0.15039 -0.025,0 -0.141,-0.0902 -0.252,-0.20117 -0.116,-0.111 -0.2267,-0.20312 -0.2519,-0.20312 -0.025,0 -0.141,-0.0902 -0.252,-0.20118 -0.116,-0.11096 -0.2267,-0.20117 -0.2519,-0.20117 -0.025,0 -0.1162,-0.0666 -0.2071,-0.15234 -0.086,-0.0807 -0.1759,-0.15039 -0.2011,-0.15039 -0.02,0 -0.1123,-0.0717 -0.2032,-0.15235 -0.086,-0.0858 -0.1759,-0.15039 -0.2011,-0.15039 -0.02,0 -0.1104,-0.0666 -0.2012,-0.15234 -0.086,-0.0807 -0.1779,-0.15039 -0.2031,-0.15039 -0.02,0 -0.1104,-0.0666 -0.2012,-0.15234 -0.086,-0.0807 -0.1759,-0.1504 -0.2012,-0.1504 -0.02,0 -0.1123,-0.0666 -0.2031,-0.15234 -0.086,-0.0858 -0.1759,-0.15039 -0.2012,-0.15039 -0.02,0 -0.1103,-0.0716 -0.2011,-0.15234 -0.086,-0.0858 -0.1779,-0.15039 -0.2032,-0.15039 -0.02,0 -0.1103,-0.0666 -0.2011,-0.15235 -0.086,-0.0858 -0.176,-0.15039 -0.2012,-0.15039 -0.02,0 -0.1123,-0.0666 -0.2031,-0.15234 -0.086,-0.0808 -0.1854,-0.15039 -0.2207,-0.15039 -0.04,0 -0.07,-0.0208 -0.07,-0.041 0,-0.0252 -0.061,-0.0748 -0.1368,-0.11523 -0.076,-0.0404 -0.2064,-0.13137 -0.2871,-0.20703 -0.081,-0.0807 -0.1681,-0.14258 -0.1933,-0.14258 -0.02,0 -0.1104,-0.0697 -0.2012,-0.15039 -0.086,-0.0858 -0.1759,-0.15235 -0.2012,-0.15235 -0.02,0 -0.1123,-0.0697 -0.2031,-0.15039 -0.086,-0.0858 -0.176,-0.15234 -0.2012,-0.15234 -0.02,0 -0.1103,-0.0697 -0.2011,-0.15039 -0.086,-0.0858 -0.1779,-0.15234 -0.2032,-0.15235 -0.02,1e-5 -0.1103,-0.0646 -0.2011,-0.15039 -0.086,-0.0808 -0.1874,-0.15234 -0.2227,-0.15234 -0.04,0 -0.07,-0.0189 -0.07,-0.0391 0,-0.0253 -0.059,-0.0768 -0.1348,-0.11719 -0.076,-0.0404 -0.2083,-0.13137 -0.289,-0.20703 -0.081,-0.0807 -0.1662,-0.14063 -0.1914,-0.14063 -0.02,0 -0.1104,-0.0697 -0.2012,-0.15039 -0.086,-0.0807 -0.176,-0.15234 -0.2012,-0.15234 -0.02,0 -0.1123,-0.0697 -0.2031,-0.15039 -0.086,-0.0858 -0.176,-0.15234 -0.2012,-0.15234 -0.02,0 -0.1103,-0.0646 -0.2012,-0.1504 -0.086,-0.0807 -0.1779,-0.15234 -0.2031,-0.15234 -0.02,0 -0.1103,-0.0646 -0.2012,-0.15039 -0.086,-0.0807 -0.1759,-0.15234 -0.2011,-0.15234 -0.02,0 -0.1123,-0.0646 -0.2032,-0.15039 -0.086,-0.0858 -0.1854,-0.15235 -0.2207,-0.15235 -0.04,0 -0.072,-0.0208 -0.072,-0.041 0,-0.0252 -0.1052,-0.10041 -0.2363,-0.16602 -0.1364,-0.0656 -0.2733,-0.14631 -0.3086,-0.18164 -0.035,-0.0353 -0.1511,-0.0999 -0.252,-0.15039 -0.1009,-0.0505 -0.2308,-0.12728 -0.2812,-0.17773 -0.055,-0.0505 -0.1327,-0.0899 -0.168,-0.0899 -0.035,0 -0.064,-0.0208 -0.064,-0.041 0,-0.0253 -0.107,-0.10042 -0.2383,-0.16602 -0.1361,-0.0656 -0.2724,-0.14634 -0.3027,-0.18164 -0.035,-0.0303 -0.1904,-0.12157 -0.3418,-0.19727 l -0.2832,-0.13671 -0.3223,0.16796 c -0.1815,0.0908 -0.3281,0.18685 -0.3281,0.20704 0,0.0252 -0.03,0.0449 -0.07,0.0449 -0.035,0 -0.1322,0.0599 -0.2129,0.14062 -0.081,0.0757 -0.2114,0.16664 -0.2871,0.20703 -0.076,0.0403 -0.1367,0.092 -0.1367,0.11719 0,0.0202 -0.029,0.0391 -0.065,0.0391 -0.035,0 -0.1124,0.0414 -0.1679,0.0918 -0.051,0.0454 -0.1548,0.11589 -0.2305,0.15625 -0.081,0.0404 -0.1426,0.09 -0.1426,0.11523 0,0.0202 -0.03,0.041 -0.07,0.041 -0.035,0 -0.1302,0.0599 -0.2109,0.14063 -0.081,0.0757 -0.2134,0.16666 -0.2891,0.20703 -0.076,0.0404 -0.1348,0.09 -0.1348,0.11523 0,0.0202 -0.031,0.041 -0.066,0.041 -0.035,0 -0.1105,0.0413 -0.166,0.0918 -0.05,0.0454 -0.1567,0.11589 -0.2324,0.15625 -0.081,0.0404 -0.1406,0.09 -0.1406,0.11524 0,0.0202 -0.032,0.041 -0.072,0.041 -0.035,0 -0.131,0.0599 -0.2168,0.14063 -0.1413,0.13118 -0.4227,0.3125 -0.4883,0.3125 -0.015,0 -0.031,-0.13152 -0.031,-0.29297 0,-0.16142 -0.021,-0.31153 -0.051,-0.3418 -0.025,-0.0252 -0.051,-0.23749 -0.061,-0.47461 l -0.014,-0.42968 -0.2481,-0.0137 c -0.1362,-0.0101 -0.2716,0.01 -0.2968,0.0352 -0.03,0.0303 -0.2417,0.0547 -0.4688,0.0547 -0.2321,0 -0.4341,0.0256 -0.4492,0.0508 -0.015,0.0303 -0.2427,0.0508 -0.5,0.0508 -0.2523,0 -0.4854,0.0197 -0.5156,0.0449 -0.025,0.0303 -0.1454,0.0563 -0.2715,0.0664 l -0.2266,0.0137 -0.016,0.34961 c -0.01,0.19675 0.011,0.37207 0.041,0.40234 0.03,0.0303 0.049,0.30276 0.049,0.66602 0,0.3582 0.021,0.63021 0.051,0.65039 0.03,0.0202 0.051,0.27751 0.051,0.60547 0,0.32793 0.02,0.58532 0.051,0.60547 0.03,0.0151 0.051,0.15643 0.051,0.30273 0,0.21696 -0.02,0.2827 -0.096,0.32813 -0.055,0.0252 -0.1276,0.0811 -0.168,0.11132 -0.035,0.0353 -0.1716,0.1219 -0.3027,0.1875 -0.1363,0.0656 -0.2422,0.14081 -0.2422,0.16602 0,0.0202 -0.029,0.041 -0.064,0.041 -0.035,0 -0.1172,0.0441 -0.1777,0.0996 -0.061,0.0555 -0.1252,0.10156 -0.1504,0.10156 -0.02,0 -0.085,0.0394 -0.1406,0.0898 -0.05,0.0454 -0.2028,0.14146 -0.334,0.20703 -0.1362,0.0656 -0.2422,0.14276 -0.2422,0.16797 0,0.0202 -0.029,0.0391 -0.064,0.0391 -0.035,0 -0.1171,0.0461 -0.1777,0.10157 -0.061,0.0555 -0.1252,0.10156 -0.1504,0.10156 -0.02,0 -0.087,0.0394 -0.1426,0.0898 -0.05,0.0454 -0.2008,0.1414 -0.332,0.20703 -0.1362,0.0656 -0.2422,0.14081 -0.2422,0.16602 0,0.0202 -0.031,0.041 -0.066,0.041 -0.035,0 -0.1152,0.0461 -0.1758,0.10156 -0.061,0.0555 -0.1271,0.0996 -0.1523,0.0996 -0.02,0 -0.085,0.0413 -0.1406,0.0918 -0.051,0.0454 -0.2009,0.14143 -0.3321,0.20704 -0.1362,0.0656 -0.2422,0.1408 -0.2422,0.16601 0,0.0202 -0.031,0.041 -0.066,0.041 -0.035,0 -0.1152,0.0441 -0.1757,0.0996 -0.061,0.0555 -0.1272,0.10156 -0.1524,0.10156 -0.02,0 -0.085,0.0394 -0.1406,0.0898 -0.051,0.0454 -0.2028,0.14146 -0.334,0.20703 -0.1362,0.0656 -0.2422,0.14273 -0.2422,0.16797 0,0.0202 -0.029,0.0391 -0.064,0.0391 -0.04,0 -0.1109,0.0402 -0.1563,0.0957 -0.081,0.0908 -0.081,0.10746 0.025,0.28906 0.056,0.10597 0.141,0.22056 0.1914,0.25586 0.1009,0.0757 0.8208,0.0855 0.8965,0.01 0.025,-0.0252 0.1523,-0.0453 0.2734,-0.0352 l 0.2227,0.0156 0.014,1.23047 c 0.01,0.78707 0,1.25181 -0.039,1.28711 -0.03,0.0303 -0.051,0.94967 -0.051,2.63477 0,1.66997 -0.021,2.597 -0.051,2.61719 -0.015,0.009 -0.017,0.4328 -0.025,0.70898 h -57.4394 l -13.6367,1.16211 c -0.7296,-0.33023 -1.2151,-0.24879 -1.9434,0.16602 l -1.3613,0.11523 V 425.0175 h 385.1543 v -138.75 l -176.2852,0.77734 c -1.6315,-0.94966 -0.8696,-4.26757 0.8516,-5.22265 1.3904,-0.43972 4.3572,-2.16145 5.3613,-0.99415 -0.034,0.0145 -0.07,0.0315 -0.1328,0.0703 -0.2134,0.36005 0.082,0.11058 0.1699,-0.0195 0.043,0.0556 0.067,0.13823 0.1016,0.20507 -0.016,-0.007 -0.041,0.0104 -0.08,0.0899 0.074,0.23934 0.1205,-0.0275 0.084,-0.0801 0.1154,0.22582 0.1998,0.49639 0.2031,0.88086 -0.091,-0.16863 -0.1743,-0.30138 -0.2539,-0.42188 0.013,-0.0201 0,-0.0262 -0.018,-0.0293 -0.2915,-0.4342 -0.5011,-0.55579 -0.6328,-0.49414 0.1048,0.0169 -0.046,0.14617 -0.1093,0.13281 -0.041,0.0969 -0.042,0.24843 -0.037,0.4082 0,-0.0115 0.018,-0.0367 0.084,-0.084 0.1524,0.0254 -0.073,0.1185 -0.084,0.084 0.024,0.82305 0.6257,2.19288 1.8008,1.42578 0.085,-0.11317 0.169,-0.21086 0.252,-0.29492 -0.011,-0.0107 -0.01,-0.0302 0.043,-0.0664 0.015,0.005 0.01,0.009 0.018,0.0137 1.2193,-1.14216 2.2798,0.59043 3.4629,-0.4668 0.4981,0.17797 1.0287,0.0761 1.5274,-0.16797 -0.01,-0.015 -0.015,-0.0215 -0.024,-0.0391 0.063,-0.0275 0.1116,-0.0339 0.1504,-0.0293 1.0917,-0.60192 1.9647,-1.93318 1.791,-2.94922 -0.053,-0.0143 -0.095,-0.052 -0.053,-0.16992 0.015,0.004 0.011,0.008 0.023,0.0117 -7e-4,-0.003 0,-0.005 0,-0.008 -0.1264,-1.09002 -0.7389,-1.86399 -1.4707,-2.60742 0.07,0.0696 0.3592,0.0565 0.1191,-0.14063 -0.1073,0.0454 -0.1431,0.0844 -0.1445,0.11524 -0.1574,-0.15912 -0.3155,-0.32899 -0.4805,-0.48829 0.042,-0.0354 0.05,-0.075 -0.098,-0.10156 v 0.002 c -0.3015,-0.29108 -0.5989,-0.59473 -0.8867,-0.91407 0.038,0.0109 0.1606,-0.0707 0.018,-0.0684 -0.028,0.0369 -0.027,0.053 -0.022,0.0625 -0.201,-0.22338 -0.4013,-0.44953 -0.5801,-0.70312 -0.093,0.0456 -0.6277,-0.0684 -0.1289,-0.11719 0.047,0.0216 0.064,0.0372 0.088,0.0527 -0.1451,-0.21106 -0.2867,-0.42581 -0.4063,-0.66407 -0.019,-0.0269 -0.031,-0.0585 -0.049,-0.0859 -0.044,0.0612 -0.1261,0.11224 -0.088,-0.0488 0.035,-0.0171 0.037,-0.005 0.055,-0.008 -0.2717,-0.42763 -0.472,-0.90298 -0.6406,-1.39843 0.055,-0.0435 0.091,-0.11959 -0.029,-0.0898 -0.1761,-0.52728 -0.3379,-1.06291 -0.5371,-1.57031 -0.042,0.006 -0.082,0.005 -0.1192,-0.0254 0.047,-0.034 0.052,-0.0261 0.088,-0.0488 -0.045,-0.11165 -0.092,-0.22244 -0.1426,-0.33008 -0.062,0.0441 -0.095,0.0383 -0.029,-0.0684 -0.3677,-0.75431 -0.8957,-1.39431 -1.8515,-1.73242 -2.1998,-0.51695 -3.9204,-2.56336 -6.3242,-2.31445 l -0.4414,0.0449 -0.3829,0.17578 c -1.3136,2.21338 -2.989,0.69408 -4.8886,0.69531 -1.355,-0.11702 -2.521,0.3173 -3.5821,0.98438 0.015,-0.0234 0.016,-0.057 -0.021,-0.11719 -0.3251,0.057 -0.108,0.16999 -0.01,0.13672 -0.7342,0.4658 -1.4191,1.03787 -2.0762,1.63086 -0.4012,0.12076 -0.842,0.32606 -1.2754,0.57031 -0.061,0.0992 -0.1468,0.19035 -0.1777,0.0957 -1.595,0.96035 -2.967,2.63277 -1.5137,4.26953 -2.5619,-0.28328 -1.536,3.31904 -3.9844,3.13281 -0.3268,0.24864 -0.5441,0.47147 -0.6855,0.67578 -0.015,-0.0148 -0.021,-0.0252 -0.043,-0.043 -0.1997,0.0753 -0.1241,0.14419 -0.031,0.16797 -0.6464,1.18028 1.544,1.7041 2.3379,2.76172 0.095,0.0493 0.1984,0.0772 0.2968,0.11719 -0.2905,0.11567 0.1038,0.14975 0.2344,0.0937 0.1917,0.0632 0.3892,0.11072 0.5918,0.14843 0.029,-0.0232 0.08,-0.0494 0.1602,-0.0781 0.1162,0.0593 0.1476,0.10097 0.1484,0.13281 1.3957,0.18416 3.0015,-0.0521 4.5918,0.29492 2.1392,1.84981 4.4391,-0.91503 6.584,0.7461 1.4275,1.17257 1.5436,4.01641 0,4.88476 l -7.8418,0.0352 h -11.7891 l 0.01,-2.38672 c 0.01,-2.15749 0.026,-3.45576 0.049,-3.54101 0.023,-0.0852 0.043,-1.35145 0.051,-3.44336 l 0.01,-3.31055 0.6211,-0.0332 c 0.3974,-0.0197 0.6292,-0.0596 0.6367,-0.10547 0.015,-0.0787 -0.1677,-0.41797 -0.2207,-0.41797 -0.019,0 -0.086,-0.0858 -0.1543,-0.19727 -0.064,-0.10491 -0.1333,-0.19726 -0.1484,-0.19726 -0.019,0 -0.1062,-0.11744 -0.1895,-0.26172 -0.087,-0.14428 -0.1685,-0.26367 -0.1875,-0.26367 -0.019,0 -0.1062,-0.11744 -0.1894,-0.26172 -0.087,-0.14425 -0.1705,-0.26172 -0.1895,-0.26172 -0.019,0 -0.088,-0.0858 -0.1562,-0.19727 -0.064,-0.10491 -0.1315,-0.19726 -0.1504,-0.19726 -0.015,0 -0.084,-0.0904 -0.1523,-0.19531 -0.065,-0.1115 -0.1315,-0.19727 -0.1504,-0.19727 -0.015,0 -0.084,-0.0858 -0.1524,-0.19727 -0.064,-0.10491 -0.1315,-0.19531 -0.1504,-0.19531 -0.015,0 -0.084,-0.0858 -0.1523,-0.19726 -0.064,-0.10495 -0.1315,-0.19727 -0.1504,-0.19727 -0.015,0 -0.084,-0.0858 -0.1524,-0.19727 -0.064,-0.11149 -0.1314,-0.19531 -0.1503,-0.19531 -0.015,0 -0.084,-0.0923 -0.1524,-0.19726 -0.064,-0.1115 -0.1315,-0.19727 -0.1504,-0.19727 -0.015,0 -0.084,-0.0858 -0.1523,-0.19726 -0.064,-0.11147 -0.1315,-0.19532 -0.1504,-0.19532 -0.015,0 -0.084,-0.0858 -0.1524,-0.19726 -0.064,-0.10494 -0.1395,-0.19727 -0.166,-0.19727 -0.03,0 -0.053,-0.0265 -0.053,-0.0527 0,-0.0328 -0.045,-0.0979 -0.1016,-0.15039 -0.057,-0.0525 -0.1562,-0.16922 -0.2168,-0.26758 -0.061,-0.10491 -0.1256,-0.18555 -0.1445,-0.18555 -0.015,0 -0.082,-0.0904 -0.1504,-0.19531 -0.064,-0.11149 -0.1334,-0.19727 -0.1523,-0.19727 -0.015,0 -0.082,-0.0923 -0.1504,-0.19726 -0.064,-0.11149 -0.1334,-0.19531 -0.1524,-0.19531 -0.015,0 -0.082,-0.0923 -0.1504,-0.19727 -0.064,-0.11146 -0.1334,-0.19727 -0.1523,-0.19727 -0.015,0 -0.082,-0.0858 -0.1504,-0.19726 -0.064,-0.10494 -0.1395,-0.19531 -0.166,-0.19531 -0.03,0 -0.055,-0.0265 -0.055,-0.0527 0,-0.0328 -0.045,-0.0979 -0.1016,-0.15039 -0.057,-0.0525 -0.1542,-0.17117 -0.2148,-0.26953 -0.061,-0.10491 -0.1256,-0.18359 -0.1445,-0.18359 -0.015,0 -0.082,-0.0924 -0.1504,-0.19727 -0.064,-0.10494 -0.1334,-0.19726 -0.1524,-0.19726 -0.015,0 -0.082,-0.0904 -0.1504,-0.19532 -0.064,-0.11149 -0.1334,-0.19726 -0.1523,-0.19726 -0.015,0 -0.084,-0.0858 -0.1523,-0.19727 -0.064,-0.10491 -0.1315,-0.19531 -0.1504,-0.19531 -0.015,0 -0.084,-0.0858 -0.1524,-0.19727 -0.064,-0.10494 -0.1314,-0.19726 -0.1504,-0.19726 -0.015,0 -0.084,-0.0858 -0.1523,-0.19727 -0.064,-0.11146 -0.1395,-0.19531 -0.166,-0.19531 -0.03,0 -0.053,-0.0265 -0.053,-0.0527 0,-0.0328 -0.079,-0.13154 -0.1777,-0.2168 -0.1022,-0.0853 -0.204,-0.19041 -0.2305,-0.23633 -0.026,-0.0459 -0.1137,-0.13169 -0.1894,-0.19727 -0.076,-0.0656 -0.1751,-0.16294 -0.2129,-0.22851 -0.042,-0.0656 -0.099,-0.11914 -0.125,-0.11914 -0.026,0 -0.049,-0.0246 -0.049,-0.0508 0,-0.0328 -0.079,-0.13154 -0.1778,-0.2168 -0.1022,-0.0852 -0.2038,-0.19044 -0.2265,-0.23633 -0.026,-0.0394 -0.1443,-0.15747 -0.2578,-0.25586 z m 16.5,18.70898 c -0.105,-0.0138 -0.2061,-0.0356 -0.3086,-0.0547 -0.1581,0.12544 0.3112,0.16177 0.3086,0.0547 z m 2.4883,-11.3789 c 0.059,-0.0354 0.1185,-0.0623 0.1777,-0.0957 0.085,-0.13878 0.1114,-0.27871 -0.1875,0.0801 0,0.01 0.01,0.008 0.01,0.0156 z m 21.0312,-0.16993 c 0.011,0.0221 0.019,0.0461 0.029,0.0684 0.086,-0.0611 0.1813,-0.17249 -0.01,-0.10937 -0.02,0.027 -0.01,0.0221 -0.02,0.041 z m 0.1719,0.39844 c 0.01,0.025 0.021,0.0491 0.031,0.0742 0.192,-0.0283 0.3385,-0.30937 -0.031,-0.0742 z m 1.2383,3.13281 c 0.012,0.0184 0.021,0.0384 0.033,0.0566 0.029,-0.0399 0.019,-0.0636 -0.033,-0.0566 z m 4.0781,5.72266 c 0.015,0.0513 0.02,0.10492 0.029,0.1582 0.1019,0.0274 0.2352,-0.0744 -0.029,-0.1582 z m -1.7617,3.10742 c -0.042,0.0233 -0.084,0.0474 -0.1269,0.0684 0.2073,0.38005 0.3471,-0.0425 0.1269,-0.0684 z m -5.1172,0.70313 c -0.02,0.0191 -0.04,0.032 -0.061,0.0527 0.026,0.0267 0.1446,-0.0104 0.061,-0.0527 z m -2.0761,-1.48633 c 0.027,-0.064 0.062,-0.11071 0.1093,-0.13281 -0.024,-0.004 -0.023,-0.0192 -0.082,-0.006 -0.061,0.0985 -0.056,0.13272 -0.027,0.13867 z m -2.2911,-15.79883 c -0.017,-0.0153 -0.056,0.01 -0.1289,0.1211 0.029,0.34683 0.1791,-0.0752 0.1289,-0.1211 z m -1.4765,0.46875 c 0.1486,0.007 0.1416,0.91647 -0.072,0.0586 0.028,-0.0437 0.051,-0.0596 0.072,-0.0586 z m 1.875,0.50781 c 0.3113,0.22718 -0.3932,0.20942 0,0 z m 4.3476,2.16211 c 0.2075,-0.0262 -0.1412,0.18809 0,0 z m 1.0391,1.69141 c 0.117,0.21879 -0.2699,-0.0205 0,0 z m -0.5547,0.13672 c 0.04,0.004 0.103,0.21897 -0.025,0.0879 3e-4,-0.0664 0.012,-0.0891 0.025,-0.0879 z m -11.1074,0.88086 c 0.3116,-6.2e-4 -0.1562,0.32414 0,0 z m -11.4903,0.10937 c 0,-0.01 -0.021,-0.009 -0.062,0.0137 -0.037,0.13346 0.074,0.0155 0.062,-0.0137 z m 10.9786,1.28321 c 0.045,-0.008 0.073,0.25877 -0.047,0.125 0.014,-0.0894 0.032,-0.12219 0.047,-0.125 z m 14.041,0.69921 c -0.3678,0.30331 0.4534,0.0928 0,0 z m -18.6758,0.043 c 0.3391,-0.0114 -0.2029,0.30586 0,0 z m 10.2031,0.0586 c 0.369,0.0602 -0.2668,0.64397 -0.2246,0.0117 0.099,-0.0178 0.1719,-0.0203 0.2246,-0.0117 z m -10.2793,0.0156 c 0,0.0351 -0.1362,0.14589 -0.066,0.002 0.047,-0.0176 0.065,-0.0136 0.066,-0.002 z m 3.2539,0.0234 c 0.3403,0.26329 -0.4323,0.2015 0,0 z m 14.9141,0.0215 c 0.2714,-0.0259 -0.132,0.2786 0,0 z m -15.4063,0.01 c 0.378,-0.0254 -0.2951,0.43874 0,0 z m 7.461,0.13281 c -0.084,0.14614 0.1653,-0.0388 0,0 z m -15.7656,0.0664 c 0.039,0.008 0.021,0.24578 -0.059,0.0918 0.025,-0.0715 0.045,-0.0944 0.059,-0.0918 z m 12.8632,0.0117 c 0.3376,0.1952 -0.4615,0.14173 0,0 z m 0.5313,0.043 c 0.01,0.0306 -0.1116,0.13167 -0.061,0.004 0.042,-0.0165 0.058,-0.0141 0.061,-0.004 z m -13.2109,0.2832 c 0.1533,0.22205 -0.2505,0.0914 0,0 z m 10.4453,0.0508 c 0.036,0.0299 -0.038,0.24428 -0.078,0.0527 0.043,-0.0532 0.066,-0.0627 0.078,-0.0527 z m -10.293,0.0469 c 0.1891,-0.057 -0.1012,0.17762 0,0 z m 21.3984,0.0957 c 0.014,0.0326 -0.1192,0.16775 -0.074,0.0156 0.049,-0.0265 0.07,-0.0265 0.074,-0.0156 z m -0.2871,0.20508 c 0.055,-0.0132 0.129,0.30786 -0.039,0.15429 0,-0.10884 0.021,-0.14988 0.039,-0.15429 z m 3.836,0.0312 c -0.029,-0.004 -0.074,7.9e-4 -0.1387,0.0156 -0.235,0.40438 0.3403,0.01 0.1387,-0.0156 z m -25.3496,0.004 c 0.1288,0.21116 -0.439,0.0281 0,0 z m 17.0292,0.41797 c 0.062,0.004 0.099,0.27947 -0.064,0.11328 0.019,-0.0857 0.044,-0.11452 0.064,-0.11328 z m 1.2618,0.13086 c 0.018,0.0423 -0.1511,0.18849 -0.096,0.008 0.063,-0.0252 0.09,-0.0219 0.096,-0.008 z m 5.4492,0.0254 c 0.058,0.0442 -0.088,0.30364 -0.1367,0.0547 0.075,-0.0597 0.1175,-0.0694 0.1367,-0.0547 z m -7.2656,0.006 c 0.018,0.0349 -0.1051,0.28726 -0.076,0.0625 0.048,-0.0627 0.07,-0.0742 0.076,-0.0625 z m -12.0586,0.26367 c 0.051,0.0451 -0.078,0.32189 -0.1211,0.0605 0.067,-0.0651 0.104,-0.0756 0.1211,-0.0605 z m 0.3515,0.11719 c 0.039,-0.0356 0.2337,0.1266 0.033,0.11523 -0.042,-0.0696 -0.046,-0.10336 -0.033,-0.11523 z m 0.1621,0.14258 c 0.3462,0.15468 -0.3951,0.23907 0,0 z m 9.1465,0.0664 c 0.359,-0.0609 -0.1786,0.42614 0,0 z m -0.3437,0.041 c 0.2182,0.0243 -0.3785,0.19014 0,0 z m 11.5097,0.0488 c 0.015,0.0286 -0.1009,0.1766 -0.068,0.0273 0.044,-0.032 0.064,-0.0369 0.068,-0.0273 z m -10.7363,0.0566 c 0.3363,-0.0749 -0.1634,0.31529 0,0 z m -1.9551,0.24609 c 0.027,0.0299 -0.092,0.25692 -0.086,0.0586 0.052,-0.057 0.077,-0.0686 0.086,-0.0586 z m 0.01,0.11328 c 0.2931,-0.0334 -0.1458,0.23221 0,0 z m -0.9257,0.1211 c 0.012,0.045 -0.1664,0.23978 -0.092,0.0254 0.062,-0.0391 0.088,-0.0404 0.092,-0.0254 z m 13.2109,0.008 c 0.015,0.0371 -0.1205,0.18154 -0.076,0.0137 0.051,-0.0273 0.071,-0.026 0.076,-0.0137 z m 0.4316,0.0762 c 0.1689,-0.0414 -0.086,0.14785 0,0 z m -29.791,1.31055 c 0.2878,-0.0455 -0.1084,0.25757 0,0 z m 17.9141,0.0508 c 0.014,0.0517 -0.1961,0.22479 -0.1074,0.008 0.073,-0.0287 0.1029,-0.025 0.1074,-0.008 z m 1.8418,0.11914 c 0.043,-0.0228 0.1941,0.10857 0.01,0.0859 -0.026,-0.0532 -0.022,-0.0783 -0.01,-0.0859 z m -5.5567,0.10352 c 0.013,-0.0165 0.07,-0.0216 0.2032,0 0.1144,0.19769 -0.2423,0.0496 -0.2032,0 z m 17.9903,0.24609 c 0.2389,-0.0363 -0.098,0.19973 0,0 z m -1.3828,0.14063 c 0.3437,-0.0914 -0.1162,0.31022 0,0 z m -0.076,0.0332 c 0.013,0.0282 -0.1039,0.14107 -0.066,0.0117 0.044,-0.0218 0.062,-0.0211 0.066,-0.0117 z m -31.2148,0.4414 c -0.2863,-0.007 0.1434,0.15295 0,0 z m 2.1582,0.24219 c 0.2067,0.0208 -0.1815,0.14968 0,0 z m 2.5683,0.0156 c 0.1928,0.0186 -0.5956,0.56568 -0.1484,0.0293 0.074,-0.0236 0.1209,-0.0319 0.1484,-0.0293 z m -3.8418,0.002 c 0.1768,-0.0572 -0.09,0.17126 0,0 z m 1.3555,0.0684 c 0.2799,0.11255 -0.3153,0.11221 0,0 z m 28.1074,0.18359 c 0.1964,0.18309 -0.4114,0.0486 0,0 z m -23.8691,0.002 c 0.054,-0.009 0.1943,0.25147 -0.01,0.12304 -0.017,-0.0878 -0.01,-0.11995 0.01,-0.12304 z m 24.1445,0.0273 c 0.3451,-0.002 -0.1919,0.23854 0,0 z m -28.6309,0.006 c 0.017,0.0566 -0.214,0.25329 -0.1211,0.0117 0.083,-0.0336 0.1153,-0.0306 0.1211,-0.0117 z m 0.098,0.0293 c 0.017,0.0236 -0.063,0.14573 -0.057,0.0215 0.034,-0.0271 0.051,-0.0294 0.057,-0.0215 z m 4.4629,0.0996 c 0.134,-0.0425 -0.063,0.1286 0,0 z m 14.7949,0.0566 c 0.3041,0.0252 -0.2539,0.23655 0,0 z m -14.9668,0.0566 c 0.041,-0.0145 0.1344,-0.0134 0.3086,0.0195 -0.081,0.19809 -0.4318,0.0238 -0.3086,-0.0195 z m 2.4199,0.006 c 0.4419,0.0437 -0.2091,0.34932 0,0 z m 24.1778,0.01 c -0.1103,0.22172 0.2302,0.009 0,0 z m -27.5137,0.0566 c 0.4453,0.005 -0.5808,0.35336 0,0 z m -0.9629,0.0332 c 0.054,-0.005 0.1654,0.234 -0.023,0.10937 -0.01,-0.0782 0.01,-0.10769 0.023,-0.10937 z m 16.9004,0.008 c 0.2122,-0.0582 -0.072,0.19597 0,0 z m 9.1445,0.0801 c 0.022,0.0241 -0.06,0.20275 -0.062,0.0449 0.037,-0.0447 0.055,-0.053 0.062,-0.0449 z m -25.3379,0.0351 c 0.3378,-0.0622 -0.2348,0.30079 0,0 z m 9.461,0.0449 c 0.04,0.048 -0.1132,0.29693 -0.1172,0.0449 0.069,-0.0547 0.1038,-0.0609 0.1172,-0.0449 z m -7.6621,0.002 c 0.3959,-0.0464 0.879,0.4008 0.2578,0.63867 1.454,0.43414 -0.8909,0.16468 -0.4199,-0.58594 0.05,-0.0288 0.1055,-0.0461 0.1621,-0.0527 z m -2.8204,0.0215 c 0.041,-0.002 0.085,0.27797 -0.033,0.1211 0.01,-0.09 0.02,-0.12057 0.033,-0.1211 z m 29.1036,0.002 c -0.01,-0.015 -0.034,-0.005 -0.084,0.0547 0.01,0.25179 0.115,-0.01 0.084,-0.0547 z m -0.8614,0.043 c 0.2285,-0.009 -0.1101,0.20365 0,0 z m -26.0234,0.0391 c 0,0.0315 -0.1834,0.33918 -0.076,0.0918 0.057,-0.0814 0.077,-0.1023 0.076,-0.0918 z m 4.041,0.0176 c 0.2677,0.26882 -0.4584,0.0531 0,0 z m -6.0273,0.006 c 0.081,0.005 -0.1181,0.31057 -0.1895,0.125 0.1039,-0.0944 0.1626,-0.12663 0.1895,-0.125 z m 4.7832,0.008 c 0.1557,-0.019 -0.071,0.43683 -0.092,0.041 0.04,-0.026 0.07,-0.0383 0.092,-0.041 z m 5.5156,0.0215 c 0.2075,-0.0763 0.3371,0.22631 0.2109,0.375 0.022,0.0337 0.026,0.0509 0.045,0.082 -0.019,-0.0164 0,-0.0527 0.096,-0.11719 0.3567,0.0415 -0.039,0.16645 -0.096,0.11719 0.7546,1.23088 -0.9356,0.53304 -0.5059,-0.19531 -0.016,-0.01 -0.027,-0.004 -0.061,-0.0625 0.014,-0.22661 0.075,-0.0837 0.09,0.0195 0.052,-0.0736 0.1181,-0.14759 0.2207,-0.21875 z m -7.4648,0.0605 c 0,-0.0185 -0.038,-0.0244 -0.1211,0.004 -0.105,0.22858 0.1349,0.0516 0.1211,-0.004 z m 3.8925,0.0215 c 0.08,-0.0312 0.1529,0.44903 -0.07,0.2461 0.017,-0.16818 0.044,-0.23571 0.07,-0.2461 z m 15.084,0.0312 c 0.022,-0.0102 0.071,0.0102 0.1582,0.0957 -0.058,0.25167 -0.2253,-0.0651 -0.1582,-0.0957 z m -1.9433,0.008 c 0.1339,0.0478 -0.01,0.45208 -0.2325,0.11133 0.112,-0.10434 0.1878,-0.12726 0.2325,-0.11133 z m 7.58,0.0352 c 0.05,0.0498 -0.1048,0.27715 -0.1308,0.0332 0.075,-0.047 0.114,-0.0498 0.1308,-0.0332 z m -17.2246,0.004 c -0.1715,0.27098 0.2905,-0.0747 0,0 z m 16.5313,0.002 c 0.02,0.0125 0.01,0.1324 -0.031,0.0352 0.014,-0.0318 0.025,-0.0393 0.031,-0.0352 z m -20.8946,0.008 c 0.047,0.002 0.1083,0.012 0.1875,0.0352 -0.1171,0.35056 -0.5146,-0.0524 -0.1875,-0.0352 z m 14.2051,0.0137 c 0.2615,-0.0811 -0.1621,0.25699 0,0 z m -20.6269,0.0156 c 0.061,-3.8e-4 -0.2615,0.40005 -0.2168,0.17187 0.133,-0.12743 0.1965,-0.17174 0.2168,-0.17187 z m 4.8808,0.0566 c 0.1901,-0.0572 -0.1217,0.47125 -0.1132,0.0645 0.05,-0.0365 0.086,-0.0563 0.1132,-0.0645 z m 12.8203,0.004 c 0.039,-0.006 0.1367,0.16062 -0.01,0.0801 -0.012,-0.056 -0.01,-0.078 0.01,-0.0801 z m -16.9238,0.0312 c 0.05,0.009 0.061,0.0245 0.1016,0.0351 -0.018,-0.009 -0.047,-0.002 -0.1055,0.0625 0.038,0.25454 0.1506,-0.002 0.1152,-0.0586 1.1656,0.31443 -1.3779,1.27634 -0.1113,-0.0391 z m 4.3692,0.004 c 1.6275,0.62829 -0.7905,1.246 -0.3282,0.39844 -0.1617,0.0478 -0.6149,-0.0631 -0.084,-0.17969 0.071,0.0431 0.1118,0.0772 0.1329,0.10547 0.063,-0.0938 0.1463,-0.19812 0.2793,-0.32422 z m -0.2793,0.32422 c -0.017,0.0251 -0.036,0.0513 -0.049,0.0742 0.046,-0.0136 0.083,-0.0289 0.049,-0.0742 z m -3.3926,-0.30273 c 0.094,0.312 -0.4198,-0.0563 0,0 z m 11.6367,0.002 c 0.2364,0.83465 -0.2883,0.6125 -0.4512,0.33594 0.098,-0.0372 0.2253,-0.31188 -0.043,-0.17969 0.025,-0.10709 0.158,-0.18497 0.4941,-0.15625 z m 3.291,0.0742 c 0.027,0.0293 -0.1055,0.26215 -0.092,0.0625 0.056,-0.0588 0.083,-0.0723 0.092,-0.0625 z m -16.2265,0.004 c 0.064,-0.0174 0.2229,0.2047 -0.016,0.11719 -0.018,-0.0795 -0.01,-0.11138 0.016,-0.11719 z m 27.3359,0.01 c 0.7401,0.65583 -0.2624,0.4194 0,0 z m -20.1367,0.0371 c 0.2255,-0.007 0.1162,0.11045 0.033,0.13281 -0.02,0.0829 -0.1699,0.19154 -0.1817,-0.0371 0.08,-0.0273 0.1059,-0.0151 0.1368,-0.008 0,-0.0236 -0.014,-0.0351 0.012,-0.0879 z m 10.375,0.008 c 0.047,0.0367 -0.054,0.28442 -0.1035,0.0586 0.056,-0.0601 0.088,-0.0709 0.1035,-0.0586 z m 6.1386,0 c 0.2202,-0.0362 -0.1391,0.2138 0,0 z m -18.6054,0.0391 c -0.018,0.002 -0.03,0.0323 -0.022,0.11132 0.186,0.11834 0.075,-0.1188 0.022,-0.11132 z m 0.7773,0.0195 c 0.087,0.0218 0.1819,0.0929 0.024,0.14648 -0.1879,-0.14085 -0.11,-0.16831 -0.024,-0.14648 z m 16.2852,0.0156 c 0.4701,0.12453 -0.2904,0.6535 0,0 z m -12.4727,0.008 c 0.4904,-0.009 -0.2144,0.39388 0,0 z m 13.4727,0.008 c 0.1825,-0.0288 -0.1175,0.16831 0,0 z m -0.7383,0.002 c 0.507,0.004 -0.2444,0.40573 0,0 z m -1.3066,0.0176 c 0.1543,0.27713 -0.43,0.0588 0,0 z m -21.7676,0.008 c 0.035,0.006 0.08,0.20117 -0.025,0.0762 0,-0.0589 0.014,-0.0781 0.025,-0.0762 z m 0.6484,0.01 c 0.054,-0.0274 0.1927,0.16445 -0.01,0.11718 -0.017,-0.075 -0.01,-0.10804 0.01,-0.11718 z m 19.9649,0.0234 c -0.064,0.0182 -0.1084,0.0388 -0.1348,0.0566 -0.064,-0.038 -0.1373,-0.0486 -0.068,0.084 0.061,0.0147 0.066,0.002 0.088,-0.002 0.095,0.0561 0.3277,0.0549 0.1153,-0.13868 z m -7.2422,0.0254 c -0.2399,0.30309 0.3177,-0.0135 0,0 z m -5.1914,0.0137 c 0.1516,0.0381 0.3894,0.52018 -0.094,0.1582 10e-4,-0.13328 0.043,-0.17092 0.094,-0.1582 z m -0.2422,0.0234 c 0.087,0.0193 0.1795,0.44225 -0.072,0.15625 0.015,-0.1245 0.043,-0.16269 0.072,-0.15625 z m 19.4785,0.0176 c 0.036,-0.008 0.1372,0.14857 0,0.0762 -0.014,-0.054 -0.01,-0.0736 0,-0.0762 z m -5.541,0.006 c 0.1965,-0.0759 -0.1001,0.52355 -0.1172,0.0781 0.05,-0.0435 0.089,-0.0673 0.1172,-0.0781 z m -14.3399,0.0391 c 0.3437,0 -0.204,0.25894 0,0 z m -4.3808,0.01 c 0.046,-6.4e-4 0.1394,0.21463 -0.02,0.0937 -0.01,-0.0683 0,-0.0935 0.02,-0.0937 z m 20.664,0 c 0.038,0.044 -0.1438,0.3412 -0.1269,0.0703 0.077,-0.0723 0.1142,-0.085 0.1269,-0.0703 z m -0.9492,0.006 c 0,-0.009 -0.019,-0.008 -0.055,0.0137 -0.027,0.1233 0.067,0.0126 0.055,-0.0137 z m -12.2129,0.0273 c 0.047,0.005 0.086,0.0372 -0.025,0.0801 -0.077,-0.0641 -0.022,-0.0854 0.025,-0.0801 z m -4.0722,0.0156 c 0.2401,0.0913 -0.2498,0.17101 0,0 z m 16.7421,0.0254 c 0.2901,-0.0977 -0.14,0.36307 0,0 z m -0.086,0.0879 c 0.1934,-0.0527 -0.1059,0.18737 0,0 z m -7.7558,0.041 c 0.5,0.53959 -0.5528,0.44514 0,0 z m 7.2558,0.0274 c 0.023,0.0349 -0.1681,0.22488 -0.1113,0.0371 0.073,-0.0422 0.1036,-0.0487 0.1113,-0.0371 z m 1.8555,0 c 0.039,0.0451 -0.018,0.30833 -0.074,0.0547 0.038,-0.0607 0.061,-0.0697 0.074,-0.0547 z m -12.5196,0.01 c 0.038,-7.3e-4 0.1693,0.17437 0.01,0.0762 -0.023,-0.0559 -0.02,-0.0759 -0.01,-0.0762 z m -4.9199,0.0117 c 0.2269,-0.048 -0.1285,0.20247 0,0 z m 20.461,0.0137 c 0.078,0.0586 -0.1109,0.28411 -0.1817,0.0215 0.099,-0.0417 0.1557,-0.041 0.1817,-0.0215 z m -12.5157,0.0664 c 0.062,0.0353 -0.059,0.50186 -0.1308,0.1543 0.07,-0.13029 0.1102,-0.16608 0.1308,-0.1543 z m -6.3808,0.0273 c 0.2173,-0.003 -0.227,0.42686 -0.1367,0.0312 0.061,-0.0217 0.1056,-0.0309 0.1367,-0.0312 z m 1.2168,0.0117 c 0.084,0.047 -0.1248,0.37009 -0.1973,0.0781 0.1095,-0.0786 0.1692,-0.0938 0.1973,-0.0781 z m -0.3047,0.0449 c 0.078,0.0653 -0.134,0.28389 -0.1914,0.01 0.1072,-0.0363 0.1653,-0.0315 0.1914,-0.01 z m -1.2949,0.0293 c 0.2146,-0.006 0.07,0.45942 -0.1153,0.0352 0.046,-0.0242 0.085,-0.0343 0.1153,-0.0352 z m 11.8183,0.0312 c -0.097,0.0582 -0.1396,0.10489 -0.1621,0.14649 -0.019,0.007 -0.026,-0.004 -0.066,0.0332 -0.017,0.15981 0.033,0.1273 0.074,0.0684 0.099,0.0831 0.4151,0.0228 0.1543,-0.24805 z m -10.0097,0.0879 c 0.054,0.0252 0.017,0.19382 -0.086,0.0391 0.04,-0.0412 0.068,-0.0475 0.086,-0.0391 z m 4.3242,0.0371 c 2.315,1.21087 -2.0231,2.01368 0,0 z m 0.5019,0.0274 c 0.1645,-0.0631 0.1467,0.37826 -0.082,0.0605 0.031,-0.0333 0.059,-0.0515 0.082,-0.0605 z m 6.084,0.0684 c 0.2967,9.4e-4 -0.1851,0.27326 0,0 z m -11.4472,0.0566 c 0.29,0.0242 -0.1413,0.27647 0,0 z m 12.2519,0.0195 c 0.3193,0.0578 -0.2984,0.197 0,0 z m -14.293,0.0137 c 0.475,0.35354 -0.4101,0.31864 0,0 z m 0.5078,0.0684 c 0.2483,-0.0831 -0.1085,0.25437 0,0 z m 15.2872,0.0176 c 0.013,0.0379 -0.1327,0.16045 -0.08,0.004 0.053,-0.0196 0.076,-0.0165 0.08,-0.004 z m -5.7325,0.0137 c -0.05,0.0153 -0.1129,0.0526 -0.1914,0.11914 0.2317,0.72772 0.5389,-0.22619 0.1914,-0.11914 z m 7.1778,0.0566 c 0.1754,-0.0146 -0.065,0.44358 -0.1035,0.0391 0.044,-0.0253 0.078,-0.037 0.1035,-0.0391 z m -16.9473,0.0332 c 0.4288,-0.024 -0.402,0.23957 0,0 z m 13.2109,0.0117 c 0.1016,0.0255 -0.2052,0.71156 -0.07,0.0352 0.034,-0.0292 0.056,-0.0388 0.07,-0.0352 z m 0.9336,0.0293 c 0.3357,0.0713 -0.2414,0.29433 0,0 z m -1.0566,0.0332 c 0.01,0.0306 -0.1247,0.12881 -0.062,0.002 0.044,-0.016 0.061,-0.0122 0.062,-0.002 z m 6.8418,0.0195 c 0.016,0.0196 -0.05,0.15103 -0.049,0.0312 0.029,-0.0317 0.043,-0.0378 0.049,-0.0312 z m -4.6504,0.11719 c 0.045,-0.007 0.1582,0.18159 -0.01,0.0898 -0.012,-0.0626 -0.01,-0.0877 0.01,-0.0898 z m 2.0078,0.22851 c 0.049,0.0582 -0.1663,0.31394 -0.1562,0.0352 0.093,-0.0513 0.1399,-0.0546 0.1562,-0.0352 z m -17.8984,0.0391 c -0.2062,0.30302 0.3472,-0.0131 0,0 z m 20.8359,0.0684 c -0.042,-5.5e-4 -0.082,0.0223 0,0.0684 0.082,-0.0439 0.039,-0.0678 0,-0.0684 z m -2.3887,0.0195 c -0.021,0.0441 -0.328,0.18935 -0.1054,0.006 0.087,-0.0236 0.1123,-0.0205 0.1054,-0.006 z m -3.8593,0.0762 c 0.1845,-0.0145 -0.1583,0.12307 0,0 z m 0.4082,0.0156 c 0.041,-0.008 0.1435,0.0126 0.3418,0.0899 -0.038,0.21558 -0.4651,-0.0659 -0.3418,-0.0899 z m 2.9922,0.0332 c 0.2283,0.0283 -0.2522,0.17123 0,0 z m -3.6934,0.084 c 0.1952,-0.005 -0.1616,0.1527 0,0 z m -14.0254,0.0156 c -0.1963,0.20299 0.2847,-0.0445 0,0 z m 18.3945,0.0117 c -0.4146,0.23199 0.4013,0.18042 0,0 z m -4.8574,0.12109 c 0.034,-0.0429 0.2157,0.0758 0.035,0.10547 -0.041,-0.0598 -0.046,-0.0912 -0.035,-0.10547 z m 1.7324,0.0742 c -0.136,0.0952 0.1444,0.0223 0,0 z m 2.4551,0.11133 c -0.5151,0.13987 0.5792,0.25279 0,0 z m -2.5898,0.0742 c -0.5223,0.16887 0.4481,0.23504 0,0 z"
       id="rect5278"
       inkscape:connector-curvature="0" />
  </g>
</svg>
