<?xml version="1.0" standalone="no"?>
<!DOCTYPE svg PUBLIC "-//W3C//DTD SVG 20010904//EN"
 "http://www.w3.org/TR/2001/REC-SVG-20010904/DTD/svg10.dtd">
<svg version="1.0" xmlns="http://www.w3.org/2000/svg"
 width="220.000000pt" height="217.000000pt" viewBox="0 0 220.000000 217.000000"
 preserveAspectRatio="xMidYMid meet">
<metadata>
Created by potrace 1.15, written by Peter Selinger 2001-2017
</metadata>
<g transform="translate(0.000000,217.000000) scale(0.100000,-0.100000)"
fill="#000000" stroke="none">
<path d="M1082 1865 c-12 -14 -26 -25 -31 -25 -14 0 -25 -50 -22 -102 3 -43 1
-48 -18 -48 -12 0 -24 -7 -27 -15 -4 -8 -12 -15 -20 -15 -8 0 -14 -7 -14 -15
0 -13 -25 -15 -164 -15 l-165 0 -31 38 c-20 24 -29 44 -25 57 18 68 19 65 -10
65 -23 0 -25 -3 -20 -22 4 -13 9 -30 11 -39 4 -15 -6 -40 -30 -78 -5 -8 -8
-36 -7 -63 4 -68 -5 -88 -38 -88 -27 0 -28 -1 -17 -35 6 -19 17 -35 23 -35 9
0 13 -22 13 -78 0 -64 -3 -79 -18 -89 -14 -8 -18 -20 -14 -41 3 -23 -1 -33
-17 -41 -12 -7 -21 -17 -21 -24 0 -7 -14 -20 -31 -29 -16 -10 -35 -31 -40 -48
-9 -25 -16 -30 -45 -30 l-34 0 0 -275 0 -275 209 0 c174 0 211 2 221 15 10 13
10 19 -4 33 -11 13 -16 37 -16 80 0 35 -4 62 -10 62 -6 0 -10 58 -10 154 0 93
4 157 10 161 19 12 11 45 -11 45 -19 0 -20 4 -14 36 9 48 50 109 89 133 44 27
191 27 235 0 41 -25 81 -89 88 -139 l6 -41 46 3 c45 3 46 3 53 47 8 49 46 104
90 131 36 22 178 25 218 4 29 -14 72 -59 89 -91 16 -32 14 -83 -4 -83 -17 0
-21 -35 -5 -45 6 -4 10 -68 10 -161 0 -96 -4 -154 -10 -154 -6 0 -10 -28 -10
-64 0 -49 -4 -65 -16 -70 -9 -3 -14 -15 -12 -28 3 -23 4 -23 216 -26 l212 -2
0 275 0 275 -34 0 c-29 0 -34 4 -40 30 -3 20 -16 37 -36 48 -16 9 -30 22 -30
29 0 7 -9 17 -20 23 -14 8 -20 21 -20 46 0 22 -6 37 -15 40 -12 5 -15 24 -15
85 0 64 3 79 15 79 8 0 15 9 15 19 0 11 3 26 6 35 5 12 0 16 -19 16 -30 0 -37
16 -37 87 0 39 -6 63 -20 83 -16 22 -19 37 -14 74 6 43 5 46 -16 46 -21 0 -22
-3 -16 -49 6 -43 3 -53 -20 -80 l-26 -31 -164 0 c-139 0 -164 2 -164 15 0 8
-6 15 -13 15 -8 0 -20 11 -27 25 -7 14 -17 25 -22 25 -5 0 -8 17 -7 38 3 38
-14 82 -31 82 -5 0 -15 12 -22 27 -17 37 -39 39 -66 8z m6 -287 c16 -16 15
-56 -2 -74 -12 -11 -61 -14 -263 -14 -266 0 -273 1 -273 50 0 14 5 31 12 38
17 17 509 17 526 0z m570 0 c7 -7 12 -24 12 -38 0 -49 -7 -50 -273 -50 -202 0
-251 3 -263 14 -17 18 -18 58 -2 74 17 17 509 17 526 0z m-682 -267 c28 -12
68 -40 89 -61 l38 -39 44 40 c69 63 123 84 218 83 97 0 153 -22 215 -84 49
-49 79 -110 87 -180 5 -45 4 -50 -14 -50 -16 0 -22 9 -27 41 -26 161 -183 267
-333 224 -47 -14 -69 -28 -115 -75 -32 -33 -58 -66 -58 -75 0 -8 -7 -15 -15
-15 -8 0 -15 7 -15 15 0 9 -26 42 -57 75 -48 48 -69 61 -117 75 -50 15 -68 16
-113 6 -109 -25 -202 -121 -218 -226 -5 -37 -10 -45 -27 -45 -19 0 -20 4 -13
48 18 130 107 231 230 263 49 13 147 3 201 -20z"/>
<path d="M1050 850 c0 -93 -4 -150 -10 -150 -6 0 -10 -28 -10 -65 0 -36 -5
-74 -12 -84 -6 -10 -8 -26 -5 -35 9 -23 185 -24 194 0 3 8 1 20 -6 27 -6 6
-11 43 -11 84 0 42 -4 73 -10 73 -6 0 -10 57 -10 150 l0 150 -60 0 -60 0 0
-150z"/>
</g>
</svg>
