<?xml version="1.0" encoding="UTF-8" standalone="no"?>
<!-- Created with Inkscape (http://www.inkscape.org/) -->

<svg
   xmlns:dc="http://purl.org/dc/elements/1.1/"
   xmlns:cc="http://creativecommons.org/ns#"
   xmlns:rdf="http://www.w3.org/1999/02/22-rdf-syntax-ns#"
   xmlns:svg="http://www.w3.org/2000/svg"
   xmlns="http://www.w3.org/2000/svg"
   xmlns:sodipodi="http://sodipodi.sourceforge.net/DTD/sodipodi-0.dtd"
   xmlns:inkscape="http://www.inkscape.org/namespaces/inkscape"
   version="1.1"
   id="svg2"
   width="273"
   height="160"
   viewBox="0 0 273.00001 160"
   sodipodi:docname="brno.svg"
   inkscape:version="0.92.3 (2405546, 2018-03-11)">
  <metadata
     id="metadata8">
    <rdf:RDF>
      <cc:Work
         rdf:about="">
        <dc:format>image/svg+xml</dc:format>
        <dc:type
           rdf:resource="http://purl.org/dc/dcmitype/StillImage" />
        <dc:title />
      </cc:Work>
    </rdf:RDF>
  </metadata>
  <defs
     id="defs6" />
  <sodipodi:namedview
     pagecolor="#e51f40"
     bordercolor="#666666"
     borderopacity="1"
     objecttolerance="10"
     gridtolerance="10"
     guidetolerance="10"
     inkscape:pageopacity="0"
     inkscape:pageshadow="2"
     inkscape:window-width="1366"
     inkscape:window-height="704"
     id="namedview4"
     showgrid="false"
     inkscape:zoom="16"
     inkscape:cx="257.25592"
     inkscape:cy="3.9518227"
     inkscape:window-x="0"
     inkscape:window-y="27"
     inkscape:window-maximized="1"
     inkscape:current-layer="layer2"
     showguides="true"
     inkscape:guide-bbox="true"
     fit-margin-top="0"
     fit-margin-left="0"
     fit-margin-right="0"
     fit-margin-bottom="0"
     inkscape:pagecheckerboard="true">
    <sodipodi:guide
       position="0.00066252127,-261.26531"
       orientation="1,0"
       id="guide5284"
       inkscape:locked="false" />
    <sodipodi:guide
       position="273.65101,-167.22015"
       orientation="1,0"
       id="guide5286"
       inkscape:locked="false" />
    <sodipodi:guide
       position="632.15413,-133.27903"
       orientation="1,0"
       id="guide5288"
       inkscape:locked="false" />
    <sodipodi:guide
       position="-295.29441,160.75076"
       orientation="0,1"
       inkscape:locked="false"
       id="guide1611" />
    <sodipodi:guide
       position="-356.1914,0.4999836"
       orientation="0,1"
       id="guide118"
       inkscape:locked="false" />
    <sodipodi:guide
       position="1017.3034,0.4584436"
       orientation="1,0"
       id="guide140"
       inkscape:locked="false" />
    <sodipodi:guide
       position="-354.54691,0.50075171"
       orientation="1,0"
       id="guide1129"
       inkscape:locked="false" />
  </sodipodi:namedview>
  <g
     inkscape:groupmode="layer"
     id="layer2"
     inkscape:label="Layer 2"
     transform="translate(-609.5254,-125.95507)">
    <path
       style="fill:#ffffff;fill-opacity:1;stroke-width:1.18452156"
       d="M 504.35098,45.552027 V 278.88536 l 40.24841,-2e-5 6.70729,0.5929 15.997,-1.1256 c 10e-6,-0.50403 0.37985,-0.61652 2.64262,-0.78745 0.44126,-0.0333 1.34204,-0.43937 2.00107,-0.90095 0.82349,-0.57686 1.72404,-0.73068 2.87886,-0.491 2.02165,0.41964 4.04615,0.16673 4.04615,-0.50721 0,-0.26909 1.26289,-0.49102 2.80705,-0.49102 2.49836,0 2.87551,-0.14693 3.4185,-1.33867 0.33563,-0.73661 0.60913,-1.69586 0.60913,-2.13309 0,-0.43724 0.18769,-0.68215 0.41457,-0.54195 0.22688,0.14019 1.20333,-0.43697 2.17246,-1.28309 1.00854,-0.88055 2.36557,-1.53787 3.17299,-1.53787 7.3989,13.15891 1.74714,19.80002 18.05898,17.11475 24.00093,-11.37363 25.15245,-3.1744 30.06843,-15.11122 29.80064,-8.00387 3.46768,3.45667 15.55221,-8.30628 0,-0.31669 5.80357,-0.0242 7.27818,-1.7264 l 3.12394,-3.00584 7.13771,-0.44195 c 11.91877,-0.5907 3.10921,-4.67496 14.3843,-3.72149 1.81144,-0.3018 3.22627,1.86279 6.07572,-0.53681 0.29722,-0.29756 0.98133,-0.29926 1.75326,-0.007 1.52589,0.58017 2.00146,-0.23954 1.62122,-2.80011 -0.18716,-1.25996 0.0613,-2.07695 0.95654,-3.1452 l 1.20899,3.68131 1.97241,2.62011 c 0.75251,0.95667 0.20236,-4.21205 0.20236,-2.48687 0,2.97645 0.73782,3.75028 3.67557,3.85854 2.07208,0.0763 2.122,0.038 2.01267,-1.58186 -0.0617,-0.91351 0.18406,-2.01813 0.54658,-2.45502 0.36254,-0.4368 0.64591,-1.93804 0.62765,-3.33512 -0.0444,-3.38542 0.44287,-7.55153 1.03528,-8.84965 0.26396,-0.57842 0.7018,-1.87821 0.97506,-2.89043 l 0.49795,-1.84127 0.0556,2.367 c 0.0407,1.73296 0.1918,2.1549 0.56511,1.57724 0.40917,-0.63322 0.51056,-0.54731 0.51648,0.43773 0.0124,1.8931 0.75628,1.22966 3.73349,-3.33048 2.64339,-4.04891 2.76457,-4.39333 3.20773,-9.17389 0.25321,-2.73173 0.54914,-5.05619 0.65776,-5.16481 0.10862,-0.10863 0.35613,0.52914 0.55123,1.41744 0.1951,0.88824 0.5745,1.6166 0.84072,1.6166 0.26623,0 0.48406,0.35366 0.48406,0.78746 0,0.4338 0.20959,0.78976 0.46784,0.78976 0.6663,0 1.10939,-1.3726 1.10939,-3.44165 0,-1.12304 0.40133,-2.15093 1.09319,-2.79548 0.61223,-0.57038 1.22327,-1.9697 1.38498,-3.17532 0.15902,-1.18551 0.49465,-2.15626 0.74578,-2.15623 0.25112,0 0.48293,-0.64991 0.51648,-1.44523 0.0465,-1.1017 0.12264,-1.19503 0.31961,-0.39373 0.14217,0.57839 0.4408,1.28804 0.66239,1.57723 0.22161,0.28921 0.56304,1.63785 0.75968,2.99699 0.26034,1.79974 0.6364,2.56021 1.385,2.79778 1.75545,0.5572 14.69073,-1.37202 14.69073,-2.19099 0,-0.39136 0.23655,-0.71334 0.52575,-0.71334 0.31606,0 0.53759,-2.25356 0.55585,-5.65116 0.0166,-3.10888 0.22625,-6.59968 0.46553,-7.75648 l 0.43542,-2.10298 0.1111,1.84126 c 0.0612,1.01222 0.0827,2.668 0.0486,3.68022 -0.034,1.01217 0.15118,2.54859 0.40994,3.41617 l 0.47017,1.57955 0.59291,-1.48227 c 0.32562,-0.81414 0.59058,-3.43951 0.59058,-5.83646 0,-5.96038 0.56654,-11.07292 1.13025,-10.19991 0.81615,1.26396 1.4847,-0.67691 1.47996,-4.30322 -0.009,-7.59099 1.30615,-42.06652 1.60501,-42.06652 0.17644,0 0.30535,1.36188 0.2872,3.02477 -0.0181,1.66288 0.28428,10.95019 0.67165,20.63836 0.63509,15.8833 1.41378,24.53771 2.04508,22.74135 0.45289,-1.2886 1.0087,-0.63072 0.78052,0.92411 -0.12771,0.87025 -0.003,1.87618 0.27791,2.235 0.28121,0.35886 0.54833,3.5924 0.59292,7.18671 0.0446,3.59433 0.18145,6.63631 0.3034,6.75825 0.74305,0.74305 1.34314,-0.91518 1.35026,-3.72653 0.003,-1.79043 0.23847,-3.61006 0.51879,-4.04383 0.42507,-0.65776 0.52122,-0.61524 0.58134,0.26172 0.13344,1.94454 0.24835,4.70736 0.35899,8.59025 l 0.1111,3.85854 2.05898,-0.34741 c 1.86798,-0.31561 2.16861,-0.19938 3.23553,1.24373 2.06301,2.79033 2.43053,2.47736 2.61946,-2.21646 0.0951,-2.36143 0.21226,-5.24017 0.26171,-6.39696 0.0494,-1.15679 0.12413,-2.90981 0.16445,-3.89792 0.13237,-3.24982 0.60044,-1.35363 0.82219,3.33281 0.22663,4.78947 0.38486,5.37085 1.31784,4.79423 0.34013,-0.21019 0.56275,-2.55908 0.56512,-5.96847 0.007,-7.69971 0.46886,-11.27601 1.40816,-10.91557 0.4027,0.15456 0.82505,-0.009 0.94032,-0.36594 0.11525,-0.35661 0.48236,-9.40433 0.81525,-20.10336 0.33288,-10.69903 0.77851,-19.75973 0.98895,-20.13579 0.21044,-0.37604 0.66659,5.89261 1.01444,13.93108 1.06719,24.66222 1.1731,25.96305 2.13076,26.35902 1.09598,0.45319 1.12158,0.59733 1.70231,9.26191 0.27031,4.03303 0.60255,7.44418 0.73882,7.58044 0.58542,0.58544 0.85162,-0.60636 1.0376,-4.65989 0.20377,-4.44113 0.72379,-6.29942 0.87083,-3.11047 0.0455,0.98811 0.067,2.12728 0.0463,2.53146 -0.0879,1.72856 0.95356,14.89102 1.51007,19.0866 l 0.6045,4.5719 1.63976,0.1598 c 1.50103,0.14617 1.92842,0.68262 5.10921,6.40854 1.90918,3.43674 4.01395,6.65769 4.67844,7.15891 0.83195,0.62757 0.99443,0.98407 0.52112,1.14183 -1.00823,0.33607 -0.28002,2.6359 1.35025,4.26616 1.30919,1.30918 1.36291,1.59743 1.27847,6.78836 -0.0488,2.9808 -0.0671,7.61655 -0.0417,10.30181 0.0526,5.5275 0.0766,5.53865 3.88865,1.98023 1.77018,-1.65239 2.82987,-2.14182 4.17585,-1.92926 0.21691,0.0342 0.39604,-0.17634 0.39604,-0.46553 0,-0.28921 0.35367,-0.52575 0.78746,-0.52575 0.52316,0 0.81622,0.5758 0.86853,1.70925 0.0733,1.59054 0.0925,1.60985 0.29644,0.26404 0.12049,-0.7953 0.45409,-1.44754 0.74114,-1.44754 0.28708,0 0.3546,0.27295 0.14823,0.6068 -0.23245,0.37612 -0.14449,0.4664 0.23161,0.23392 0.33388,-0.20632 0.60681,-0.87504 0.60681,-1.48459 0,-0.60955 0.14856,-0.95851 0.3312,-0.77587 0.18263,0.18261 0.77514,0.0946 1.31551,-0.19456 1.20295,-0.64374 1.27235,-0.10297 0.14592,1.14181 -0.77606,0.85751 -0.75808,0.9059 0.2617,0.63925 1.22284,-0.31982 1.19328,-0.26302 1.39427,-2.71443 l 0.1436,-1.7602 -1.19046,1.11866 -1.19045,1.11866 -0.0463,-1.63746 c -0.0367,-1.2963 0.13043,-1.56746 0.79904,-1.31089 0.46431,0.17816 0.99963,0.0702 1.19046,-0.23854 0.5253,-0.84999 2.21806,-0.002 1.85979,0.93104 -0.24249,0.6319 -0.1544,0.66822 0.4331,0.18066 0.57835,-0.48 0.80938,-0.42954 1.06308,0.2316 0.48043,1.252 0.39403,1.91746 -0.20151,1.54944 -0.28919,-0.17875 -0.52575,-0.0746 -0.52575,0.2316 0,0.30625 0.66326,0.55585 1.47302,0.55585 2.0012,0 2.77731,0.86768 2.18172,2.43419 -0.33448,0.87971 -0.28814,1.24603 0.15286,1.24603 0.3824,0 0.28246,0.34282 -0.25476,0.8801 -0.58493,0.58485 -0.74476,0.8048 -0.49563,1.10013 l 1.77642,-0.0996 c 2.71692,-0.15393 5.4915,-0.73776 6.16532,-1.29699 0.89096,-0.73949 1.39298,-0.7462 1.84127,-0.0208 0.33903,0.54857 2.03633,1.13238 3.77055,1.29699 2.49106,0.2364 3.21399,0.73592 3.44628,2.37396 0.0119,0.0812 0.0271,0.14044 0.0394,0.21539 0.28427,-0.17352 0.40995,-0.0992 0.40995,0.25014 0,0.34169 0.18601,0.50811 0.41225,0.36825 0.18389,-0.1136 0.70608,0.33786 1.25993,1.03759 0.83923,0.0522 2.00738,0.0186 3.7497,-0.0649 3.30153,-0.15814 4.65286,-0.26871 5.27134,-0.88935 0.0343,-0.0458 0.0666,-0.0909 0.0996,-0.13667 0.29198,-0.3803 0.39757,-0.91373 0.49101,-1.72545 0.29559,-2.56872 1.97097,-3.52973 1.97097,-1.13024 0,0.20064 0.0157,0.37014 0.0416,0.52344 0.82981,0.17004 1.70119,0.28221 2.56851,0.32657 0.82242,-0.28306 1.87107,-0.70518 3.26796,-1.30395 2.32134,-0.99502 4.5902,-1.58088 5.04204,-1.30163 0.45185,0.27926 0.8222,0.0551 0.8222,-0.50026 0,-0.55539 0.40653,-0.75861 0.90327,-0.45163 0.4967,0.30703 0.91367,-0.17836 0.92872,-1.07696 0.0247,-1.48157 0.12719,-1.46427 1.07698,0.1737 0.57605,0.99343 1.17689,2.99489 1.33636,4.44914 0.15942,1.45428 0.43622,-2.70895 0.61607,-2.52914 0.17551,0.1755 0.073,4.84577 4.22411,5.14511 l 9.8323,9.96012 40.81789,37.42523 V 45.552027 Z M 775.52864,148.98011 c 0.28919,0 0.52575,0.47309 0.52575,1.05149 0,0.57839 -0.23656,1.05148 -0.52575,1.05148 -0.28923,0 -0.52575,-0.47309 -0.52575,-1.05148 0,-0.5784 0.23652,-1.05149 0.52575,-1.05149 z m 1.57724,54.68438 c -0.28923,0 -0.52575,0.23655 -0.52575,0.52575 0,0.2892 0.23652,0.52575 0.52575,0.52575 0.28918,0 0.52574,-0.23655 0.52574,-0.52575 0,-0.2892 -0.23656,-0.52575 -0.52574,-0.52575 z m -29.97209,9.46573 c -0.28918,0 -0.52573,0.47309 -0.52573,1.05148 0,0.57842 0.23655,1.0515 0.52573,1.0515 0.2892,0 0.52574,-0.47309 0.52575,-1.0515 -10e-6,-0.57839 -0.23655,-1.05148 -0.52575,-1.05148 z m 10.77893,0 c -0.80054,0 -1.07815,1.11049 -0.43773,1.75092 0.66663,0.66661 1.2275,0.34812 1.2275,-0.69944 -10e-6,-0.58421 -0.35161,-1.05148 -0.78977,-1.05148 z m 12.65956,1.57723 c -0.48776,0 -0.82915,0.4496 -0.82915,1.09548 0,1.28147 1.22871,1.0991 1.48459,-0.22001 0.1007,-0.51887 -0.16579,-0.87547 -0.65544,-0.87547 z m -46.57355,4.73169 c -0.28921,0 -0.52575,0.48616 -0.52575,1.0816 0,0.59549 0.23654,0.93838 0.52575,0.75967 0.2892,-0.17876 0.52573,-0.66719 0.52573,-1.08391 0,-0.41674 -0.23653,-0.75736 -0.52573,-0.75736 z m 86.17577,41.67974 c 0.91888,0.0692 0.9959,1.43827 0.0811,1.43827 -0.21405,0 -0.66654,0.53048 -1.00748,1.18118 -0.61547,1.17458 -0.61958,1.1754 -0.35204,-0.12969 0.1482,-0.72302 0.27436,-1.59736 0.27792,-1.94085 0.003,-0.34355 0.45395,-0.59006 1.00054,-0.54891 z m 9.19475,4.2708 c -0.0639,-0.002 -0.13261,0.0194 -0.20614,0.0649 -0.29387,0.18165 -0.39799,0.54835 -0.2316,0.81756 0.45076,0.72932 0.7643,0.59476 0.7643,-0.32887 0,-0.33815 -0.13494,-0.54762 -0.32656,-0.55355 z m -2.00802,0.84767 c -0.12751,0 -0.37711,0.23655 -0.55586,0.52575 -0.17874,0.28919 -0.0746,0.52574 0.2316,0.52574 0.30627,0 0.55586,-0.23655 0.55586,-0.52574 0,-0.2892 -0.10411,-0.52575 -0.2316,-0.52575 z"
       id="rect1133"
       inkscape:connector-curvature="0"
       sodipodi:nodetypes="ccccccccsscsccccccccccccccccsccccccccccccscssssscccccccssccccccccsccscscccsccccccccccccccccscscccccccccccccccccssccsccscccccccccccccccsscsccccccccsccccccsccccsccccccccccssssssssssssscssccssscssscsscscccccccscscsssss" />
  </g>
</svg>
