<?xml version="1.0" encoding="UTF-8" standalone="no"?>
<!-- Created with Inkscape (http://www.inkscape.org/) -->

<svg
   xmlns:dc="http://purl.org/dc/elements/1.1/"
   xmlns:cc="http://creativecommons.org/ns#"
   xmlns:rdf="http://www.w3.org/1999/02/22-rdf-syntax-ns#"
   xmlns:svg="http://www.w3.org/2000/svg"
   xmlns="http://www.w3.org/2000/svg"
   xmlns:sodipodi="http://sodipodi.sourceforge.net/DTD/sodipodi-0.dtd"
   xmlns:inkscape="http://www.inkscape.org/namespaces/inkscape"
   version="1.1"
   id="svg2"
   width="273"
   height="160"
   viewBox="0 0 273.00001 160"
   sodipodi:docname="brno.svg"
   inkscape:version="0.92.3 (2405546, 2018-03-11)">
  <metadata
     id="metadata8">
    <rdf:RDF>
      <cc:Work
         rdf:about="">
        <dc:format>image/svg+xml</dc:format>
        <dc:type
           rdf:resource="http://purl.org/dc/dcmitype/StillImage" />
        <dc:title />
      </cc:Work>
    </rdf:RDF>
  </metadata>
  <defs
     id="defs6" />
  <sodipodi:namedview
     pagecolor="#e51f40"
     bordercolor="#666666"
     borderopacity="1"
     objecttolerance="10"
     gridtolerance="10"
     guidetolerance="10"
     inkscape:pageopacity="0"
     inkscape:pageshadow="2"
     inkscape:window-width="1366"
     inkscape:window-height="704"
     id="namedview4"
     showgrid="false"
     inkscape:zoom="4"
     inkscape:cx="273.81991"
     inkscape:cy="-9.6956043"
     inkscape:window-x="0"
     inkscape:window-y="27"
     inkscape:window-maximized="1"
     inkscape:current-layer="layer2"
     showguides="true"
     inkscape:guide-bbox="true"
     fit-margin-top="0"
     fit-margin-left="0"
     fit-margin-right="0"
     fit-margin-bottom="0"
     inkscape:pagecheckerboard="true">
    <sodipodi:guide
       position="0.00066252127,-261.26531"
       orientation="1,0"
       id="guide5284"
       inkscape:locked="false" />
    <sodipodi:guide
       position="273.65101,-167.22015"
       orientation="1,0"
       id="guide5286"
       inkscape:locked="false" />
    <sodipodi:guide
       position="632.15413,-133.27903"
       orientation="1,0"
       id="guide5288"
       inkscape:locked="false" />
    <sodipodi:guide
       position="-295.29441,160.75076"
       orientation="0,1"
       inkscape:locked="false"
       id="guide1611" />
    <sodipodi:guide
       position="-356.1914,0.4999836"
       orientation="0,1"
       id="guide118"
       inkscape:locked="false" />
    <sodipodi:guide
       position="1017.3034,0.4584436"
       orientation="1,0"
       id="guide140"
       inkscape:locked="false" />
    <sodipodi:guide
       position="-354.54691,0.50075171"
       orientation="1,0"
       id="guide1129"
       inkscape:locked="false" />
  </sodipodi:namedview>
  <g
     inkscape:groupmode="layer"
     id="layer2"
     inkscape:label="Layer 2"
     transform="translate(-609.5254,-125.95507)">
    <path
       style="fill:#ffffff;fill-opacity:1;stroke-width:1.18452156"
       d="M 504.35008,45.552027 V 278.88537 l 40.2484,-2e-5 6.7073,0.5929 15.997,-1.1256 c 0,-0.50403 0.3799,-0.61652 2.6426,-0.78745 0.4413,-0.0333 1.3421,-0.43937 2.0011,-0.90095 0.8235,-0.57687 1.724,-0.73068 2.8789,-0.491 2.0216,0.41964 4.0461,0.16672 4.0461,-0.50721 0,-0.26909 1.2629,-0.49102 2.8071,-0.49102 2.4983,0 2.8755,-0.14693 3.4185,-1.33867 0.3356,-0.73661 0.6091,-1.69586 0.6091,-2.13309 0,-0.43724 0.1877,-0.68215 0.4146,-0.54195 0.2268,0.14019 1.2033,-0.43697 2.1724,-1.28309 1.0086,-0.88055 2.3656,-1.53787 3.173,-1.53787 7.3989,13.15891 1.7471,19.80002 18.059,17.11475 24.0009,-11.37363 25.1524,-3.1744 30.0684,-15.11122 29.8006,-8.00387 3.4677,3.45667 15.5522,-8.30628 0,-0.31669 5.8036,-0.0242 7.2782,-1.7264 l 3.1239,-3.00584 7.1377,-0.44195 c 11.9188,-0.5907 3.1093,-4.67496 14.3843,-3.72149 1.8115,-0.3018 3.2263,1.86279 6.0758,-0.53681 0.2972,-0.29756 0.9813,-0.29926 1.7532,-0.007 1.5259,0.58017 2.0015,-0.23954 1.6212,-2.80011 -0.1871,-1.25996 0.061,-2.07695 0.9566,-3.1452 l 1.209,3.68131 1.9724,2.62011 c 0.7525,0.95667 0.2023,-4.21205 0.2023,-2.48687 0,2.97645 0.7379,3.75028 3.6756,3.85854 2.0721,0.0763 2.122,0.038 2.0127,-1.58186 -0.062,-0.91351 0.184,-2.01813 0.5466,-2.45502 0.3625,-0.4368 0.6459,-1.93804 0.6276,-3.33512 -0.044,-3.38542 0.4429,-7.55153 1.0353,-8.84965 0.2639,-0.57842 0.7018,-1.87821 0.9751,-2.89043 l 0.4979,-1.84127 0.056,2.367 c 0.041,1.73296 0.1918,2.1549 0.5651,1.57724 0.4092,-0.63322 0.5106,-0.54731 0.5165,0.43773 0.012,1.8931 0.7563,1.22966 3.7335,-3.33048 2.6434,-4.04891 2.7645,-4.39333 3.2077,-9.17389 0.2532,-2.73173 0.5492,-5.05619 0.6578,-5.16481 0.1086,-0.10863 0.3561,0.52914 0.5512,1.41744 0.1951,0.88824 0.5745,1.6166 0.8407,1.6166 0.2663,0 0.4841,0.35366 0.4841,0.78746 0,0.4338 0.2096,0.78976 0.4678,0.78976 0.6663,0 1.1094,-1.3726 1.1094,-3.44165 0,-1.12304 0.4013,-2.15093 1.0932,-2.79548 0.6122,-0.57038 1.2233,-1.9697 1.385,-3.17532 0.159,-1.18551 0.4946,-2.15626 0.7458,-2.15623 0.2511,0 0.4829,-0.64991 0.5164,-1.44523 0.047,-1.1017 0.1227,-1.19503 0.3197,-0.39373 0.1421,0.57839 0.4408,1.28804 0.6623,1.57723 0.2216,0.28921 0.5631,1.63785 0.7597,2.99699 0.2604,1.79974 0.6364,2.56021 1.385,2.79778 1.7555,0.5572 14.6908,-1.37202 14.6908,-2.19099 0,-0.39136 0.2365,-0.71334 0.5257,-0.71334 0.3161,0 0.5376,-2.25356 0.5559,-5.65116 0.016,-3.10888 0.2262,-6.59968 0.4655,-7.75648 l 0.4354,-2.10298 0.1111,1.84126 c 0.061,1.01222 0.083,2.668 0.049,3.68022 -0.034,1.01217 0.1512,2.54859 0.4099,3.41617 l 0.4702,1.57955 0.5929,-1.48227 c 0.3256,-0.81414 0.5906,-3.43951 0.5906,-5.83646 0,-5.96038 0.5665,-11.07292 1.1303,-10.19991 0.8161,1.26396 1.4847,-0.67691 1.4799,-4.30322 -0.01,-7.59099 1.3062,-42.06652 1.605,-42.06652 0.1765,0 0.3054,1.36188 0.2872,3.02477 -0.018,1.66288 0.2843,10.95019 0.6717,20.63836 0.6351,15.8833 1.4137,24.53771 2.045,22.74135 0.4529,-1.2886 1.0088,-0.63072 0.7806,0.92411 -0.1277,0.87025 0,1.87618 0.2779,2.235 0.2812,0.35886 0.5483,3.5924 0.5929,7.18671 0.045,3.59433 0.1814,6.63631 0.3034,6.75825 0.7431,0.74305 1.3431,-0.91518 1.3503,-3.72653 0,-1.79043 0.2384,-3.61006 0.5187,-4.04383 0.4251,-0.65776 0.5213,-0.61524 0.5814,0.26172 0.1334,1.94454 0.2483,4.70736 0.359,8.59025 l 0.1111,3.85854 2.059,-0.34741 c 1.8679,-0.31561 2.1686,-0.19938 3.2355,1.24373 2.063,2.79033 2.4305,2.47736 2.6194,-2.21646 0.095,-2.36143 0.2123,-5.24017 0.2618,-6.39696 0.049,-1.15679 0.1241,-2.90981 0.1644,-3.89792 0.1324,-3.24982 0.6005,-1.35363 0.8222,3.33281 0.2266,4.78947 0.3849,5.37085 1.3178,4.79423 0.3402,-0.21019 0.5628,-2.55908 0.5652,-5.96847 0.01,-7.69971 0.4688,-11.27601 1.4081,-10.91557 0.4027,0.15456 0.8251,-0.009 0.9403,-0.36594 0.1153,-0.35661 0.4824,-9.40433 0.8153,-20.10336 0.3329,-10.69903 0.7785,-19.75973 0.9889,-20.13579 0.2105,-0.37604 0.6666,5.89261 1.0145,13.93108 1.0672,24.66222 1.1731,25.96305 2.1307,26.35902 1.096,0.45319 1.1216,0.59733 1.7023,9.26191 0.2704,4.03303 0.6026,7.44418 0.7389,7.58044 0.5854,0.58544 0.8516,-0.60636 1.0376,-4.65989 0.2037,-4.44113 0.7238,-6.29942 0.8708,-3.11047 0.045,0.98811 0.067,2.12728 0.046,2.53146 -0.088,1.72856 0.9536,14.89102 1.5101,19.0866 l 0.6045,4.5719 1.6397,0.1598 c 1.5011,0.14617 1.9284,0.68262 5.1092,6.40854 1.9092,3.43674 4.014,6.65769 4.6785,7.15891 0.8319,0.62757 0.9944,0.98407 0.5211,1.14183 -1.0082,0.33607 -0.28,2.6359 1.3502,4.26616 1.3092,1.30918 1.363,1.59743 1.2785,6.78836 -0.049,2.9808 -0.067,7.61655 -0.042,10.30181 0.053,5.5275 0.077,5.53865 3.8887,1.98023 1.7701,-1.65239 2.8298,-2.14182 4.1758,-1.92926 0.2169,0.0342 0.3961,-0.17634 0.3961,-0.46553 0,-0.28921 0.3536,-0.52575 0.7874,-0.52575 0.5232,0 0.8162,0.5758 0.8685,1.70925 0.073,1.59054 0.093,1.60985 0.2965,0.26404 0.1205,-0.7953 0.4541,-1.44754 0.7411,-1.44754 0.2871,0 0.3546,0.27295 0.1483,0.6068 -0.2325,0.37612 -0.1445,0.4664 0.2316,0.23392 0.3339,-0.20632 0.6068,-0.87504 0.6068,-1.48459 0,-0.60955 0.1485,-0.95851 0.3312,-0.77587 0.1826,0.18261 0.7751,0.0946 1.3155,-0.19456 1.2029,-0.64374 1.2723,-0.10297 0.1459,1.14181 -0.776,0.85751 -0.7581,0.9059 0.2617,0.63925 1.2229,-0.31982 1.1933,-0.26302 1.3943,-2.71443 l 0.1436,-1.7602 -1.1905,1.11866 -1.1904,1.11866 -0.046,-1.63746 c -0.037,-1.2963 0.1304,-1.56746 0.799,-1.31089 0.4643,0.17816 0.9996,0.0702 1.1905,-0.23854 0.5253,-0.84999 2.218,-0.002 1.8598,0.93104 -0.2425,0.6319 -0.1544,0.66822 0.4331,0.18066 0.5783,-0.48 0.8093,-0.42954 1.063,0.2316 0.4805,1.252 0.3941,1.91746 -0.2015,1.54944 -0.2892,-0.17875 -0.5257,-0.0746 -0.5257,0.2316 0,0.30625 0.6632,0.55585 1.473,0.55585 2.0012,0 2.7773,0.86768 2.1817,2.43419 -0.3345,0.87971 -0.2881,1.24603 0.1529,1.24603 0.3824,0 0.2824,0.34282 -0.2548,0.8801 -0.5849,0.58485 -0.7447,0.8048 -0.4956,1.10013 l 1.7764,-0.0996 c 2.7169,-0.15393 5.4915,-0.73776 6.1653,-1.29699 0.891,-0.73949 1.393,-0.7462 1.8413,-0.0208 0.339,0.54857 2.0363,1.13238 3.7705,1.29699 2.4911,0.2364 3.214,0.73592 3.4463,2.37396 0.012,0.0812 0.027,0.14044 0.039,0.21539 0.2843,-0.17352 0.41,-0.0992 0.41,0.25014 0,0.34169 0.186,0.50811 0.4122,0.36825 0.1839,-0.1136 0.7061,0.33786 1.26,1.03759 0.8392,0.0522 2.0073,0.0186 3.7497,-0.0649 3.3015,-0.15814 4.6528,-0.26871 5.2713,-0.88935 0.034,-0.0458 0.067,-0.0909 0.1,-0.13667 0.292,-0.3803 0.3976,-0.91373 0.491,-1.72545 0.2956,-2.56872 1.971,-3.52973 1.971,-1.13024 0,0.20064 0.016,0.37014 0.042,0.52344 0.8298,0.17004 1.7012,0.28221 2.5685,0.32657 0.8224,-0.28306 1.8711,-0.70518 3.268,-1.30395 2.3213,-0.99502 4.5902,-1.58088 5.042,-1.30163 0.4518,0.27926 0.8222,0.0551 0.8222,-0.50026 0,-0.55539 0.4065,-0.75861 0.9033,-0.45163 0.4967,0.30703 0.9136,-0.17836 0.9287,-1.07696 0.025,-1.48157 0.1272,-1.46427 1.077,0.1737 0.576,0.99343 1.1769,2.99489 1.3363,4.44914 0.1594,1.45428 0.4362,-2.70895 0.6161,-2.52914 0.1755,0.1755 0.073,4.84577 4.2241,5.14511 l 9.8323,5.71012 6.17204,1.44981 34.64586,40.22542 V 45.552027 Z m 271.1777,103.428093 c 0.2891,0 0.5257,0.47309 0.5257,1.05149 0,0.57839 -0.2366,1.05148 -0.5257,1.05148 -0.2893,0 -0.5258,-0.47309 -0.5258,-1.05148 0,-0.5784 0.2365,-1.05149 0.5258,-1.05149 z m 1.5772,54.68438 c -0.2892,0 -0.5258,0.23655 -0.5258,0.52575 0,0.2892 0.2366,0.52575 0.5258,0.52575 0.2892,0 0.5257,-0.23655 0.5257,-0.52575 0,-0.2892 -0.2365,-0.52575 -0.5257,-0.52575 z m -29.9721,9.46573 c -0.2892,0 -0.5257,0.47309 -0.5257,1.05148 0,0.57842 0.2365,1.0515 0.5257,1.0515 0.2892,0 0.5257,-0.47309 0.5258,-1.0515 -10e-5,-0.57839 -0.2366,-1.05148 -0.5258,-1.05148 z m 10.7789,0 c -0.8005,0 -1.0781,1.11049 -0.4377,1.75092 0.6666,0.66661 1.2275,0.34812 1.2275,-0.69944 0,-0.58421 -0.3516,-1.05148 -0.7898,-1.05148 z m 12.6596,1.57723 c -0.4878,0 -0.8292,0.4496 -0.8292,1.09548 0,1.28147 1.2288,1.0991 1.4846,-0.22001 0.1007,-0.51887 -0.1658,-0.87547 -0.6554,-0.87547 z m -46.5736,4.73169 c -0.2892,0 -0.5257,0.48616 -0.5257,1.0816 0,0.59549 0.2365,0.93838 0.5257,0.75967 0.2892,-0.17876 0.5258,-0.66719 0.5258,-1.08391 0,-0.41674 -0.2366,-0.75736 -0.5258,-0.75736 z m 86.1758,41.67973 c 0.9189,0.0692 0.9959,1.43827 0.081,1.43827 -0.214,0 -0.6665,0.53048 -1.0075,1.18118 -0.6154,1.17458 -0.6195,1.1754 -0.352,-0.12969 0.1482,-0.72302 0.2744,-1.59735 0.2779,-1.94085 0,-0.34355 0.454,-0.59006 1.0006,-0.54891 z m 9.1948,4.2708 c -0.064,-0.002 -0.1326,0.0194 -0.2062,0.0649 -0.2938,0.18165 -0.398,0.54835 -0.2316,0.81756 0.4508,0.72932 0.7643,0.59476 0.7643,-0.32887 0,-0.33815 -0.1349,-0.54762 -0.3265,-0.55355 z m -2.0081,0.84767 c -0.1275,0 -0.3771,0.23656 -0.5558,0.52576 -0.1788,0.28919 -0.075,0.52573 0.2316,0.52573 0.3063,0 0.5558,-0.23655 0.5558,-0.52573 0,-0.2892 -0.1041,-0.52576 -0.2316,-0.52576 z"
       id="rect1133-3"
       inkscape:connector-curvature="0"
       sodipodi:nodetypes="ccccccccsscsccccccccccccccccsccccccccccccscssssscccccccssccccccccsccscscccsccccccccccccccccscscccccccccccccccccssccsccscccccccccccccccsscsccccccccsccccccsccccscccccccccccssssssssssssscssccssscssscsscsccccsccscssssss" />
  </g>
</svg>
