<?xml version="1.0" encoding="UTF-8" standalone="no"?>
<!-- Created with Inkscape (http://www.inkscape.org/) -->

<svg
   xmlns:dc="http://purl.org/dc/elements/1.1/"
   xmlns:cc="http://creativecommons.org/ns#"
   xmlns:rdf="http://www.w3.org/1999/02/22-rdf-syntax-ns#"
   xmlns:svg="http://www.w3.org/2000/svg"
   xmlns="http://www.w3.org/2000/svg"
   xmlns:sodipodi="http://sodipodi.sourceforge.net/DTD/sodipodi-0.dtd"
   xmlns:inkscape="http://www.inkscape.org/namespaces/inkscape"
   version="1.1"
   id="svg2"
   width="273"
   height="160"
   viewBox="0 0 273.00001 160"
   sodipodi:docname="brno.svg"
   inkscape:version="0.92.2 (5c3e80d, 2017-08-06)">
  <metadata
     id="metadata8">
    <rdf:RDF>
      <cc:Work
         rdf:about="">
        <dc:format>image/svg+xml</dc:format>
        <dc:type
           rdf:resource="http://purl.org/dc/dcmitype/StillImage" />
        <dc:title></dc:title>
      </cc:Work>
    </rdf:RDF>
  </metadata>
  <defs
     id="defs6" />
  <sodipodi:namedview
     pagecolor="#e51f40"
     bordercolor="#666666"
     borderopacity="1"
     objecttolerance="10"
     gridtolerance="10"
     guidetolerance="10"
     inkscape:pageopacity="0"
     inkscape:pageshadow="2"
     inkscape:window-width="1920"
     inkscape:window-height="990"
     id="namedview4"
     showgrid="false"
     inkscape:zoom="1.4142136"
     inkscape:cx="169.14408"
     inkscape:cy="64.436423"
     inkscape:window-x="1920"
     inkscape:window-y="147"
     inkscape:window-maximized="1"
     inkscape:current-layer="layer2"
     showguides="true"
     inkscape:guide-bbox="true"
     fit-margin-top="0"
     fit-margin-left="0"
     fit-margin-right="0"
     fit-margin-bottom="0"
     inkscape:pagecheckerboard="true">
    <sodipodi:guide
       position="0.00066252127,-261.26531"
       orientation="1,0"
       id="guide5284"
       inkscape:locked="false" />
    <sodipodi:guide
       position="273.65101,-167.22015"
       orientation="1,0"
       id="guide5286"
       inkscape:locked="false" />
    <sodipodi:guide
       position="632.15413,-133.27903"
       orientation="1,0"
       id="guide5288"
       inkscape:locked="false" />
    <sodipodi:guide
       position="-295.29441,160.75076"
       orientation="0,1"
       inkscape:locked="false"
       id="guide1611" />
    <sodipodi:guide
       position="-356.1914,0.4999836"
       orientation="0,1"
       id="guide118"
       inkscape:locked="false" />
    <sodipodi:guide
       position="1017.3034,0.4584436"
       orientation="1,0"
       id="guide140"
       inkscape:locked="false" />
    <sodipodi:guide
       position="-354.54691,0.50075171"
       orientation="1,0"
       id="guide1129"
       inkscape:locked="false" />
  </sodipodi:namedview>
  <g
     inkscape:groupmode="layer"
     id="layer2"
     inkscape:label="Layer 2"
     transform="translate(-609.5254,-125.95507)">
    <path
       style="fill:#ffffff;fill-opacity:1;stroke-width:0.99890482"
       d="m -39.597656,-37.269531 0,196.769551 L -5.65625,159.5 0,160 13.490234,159.05078 c 1e-5,-0.42505 0.320326,-0.51991 2.228516,-0.66406 0.37212,-0.0281 1.13174,-0.37052 1.6875,-0.75977 0.69445,-0.48646 1.453884,-0.61618 2.427734,-0.41406 1.70486,0.35388 3.41211,0.14061 3.41211,-0.42773 0,-0.22692 1.064997,-0.41407 2.367187,-0.41407 2.10686,0 2.424903,-0.12391 2.882813,-1.1289 0.28303,-0.62118 0.513672,-1.43011 0.513672,-1.79883 0,-0.36873 0.158279,-0.57526 0.349609,-0.45703 0.19132,0.11823 1.014761,-0.36849 1.832031,-1.08203 0.8505,-0.74256 1.994882,-1.29688 2.675782,-1.29688 1.122659,0 4.455078,-2.43678 4.455078,-3.25781 0,-0.78402 1.203308,-1.44175 2.824218,-1.54492 0.94326,-0.06 1.839961,-0.14972 1.994141,-0.19922 0.48379,-0.1553 2.100117,1.19633 2.404297,2.01172 0.16,0.42889 0.845907,1.01938 1.523437,1.31054 1.67659,0.7205 1.651596,0.68364 1.009766,1.45704 -0.88221,1.06299 -0.205236,1.28052 1.271484,0.4082 0.73297,-0.43297 1.447511,-1.24542 1.587891,-1.80469 0.14038,-0.55927 0.651839,-1.22875 1.136719,-1.48828 0.96628,-0.51714 1.007828,-0.43934 0.892578,1.66602 -0.0611,1.11472 0.09959,1.4414 0.708984,1.4414 0.57975,0 0.657119,-0.12998 0.292969,-0.49414 -0.36413,-0.36413 -0.15025,-0.83427 0.8125,-1.77539 0.71955,-0.70336 1.487018,-1.27734 1.705078,-1.27734 0.21805,0 0.722034,-0.32751 1.121094,-0.72657 0.4364,-0.43641 1.452998,-0.7246 2.548828,-0.7246 1.00212,0 2.435347,-0.34942 3.185547,-0.7754 1.1347,-0.64434 1.57061,-0.6861 2.59375,-0.24609 0.67642,0.29089 1.075379,0.69504 0.886719,0.89844 -0.18867,0.20342 0.355394,0.22357 1.208984,0.043 1.82696,-0.38675 2.228299,-0.41288 3.068359,-0.18946 0.34589,0.092 0.860322,-0.27775 1.144532,-0.82226 0.54198,-1.03837 3.576517,-3.46489 5.654297,-4.52344 0.67069,-0.34171 1.21875,-0.87432 1.21875,-1.18359 0,-0.39336 0.458643,-0.48789 1.527343,-0.31446 1.81593,0.29468 3.792969,-0.12597 3.792969,-0.80664 0,-0.26707 1.018179,-1.66026 2.261719,-3.0957 l 2.261719,-2.60937 h 6.09375 c 5.532152,0 6.170002,0.0818 6.898432,0.88671 0.83933,0.9274 3.07499,1.20689 3.54688,0.44336 0.15072,-0.24388 1.17812,-0.44336 2.28125,-0.44336 1.69777,0 2.44275,0.32261 4.85156,2.10547 1.56517,1.15846 2.84571,2.33747 2.84571,2.61914 1e-5,0.60289 3.49179,0.38516 4.13476,-0.25781 0.25065,-0.25093 0.82756,-0.25237 1.47852,-0.006 1.28679,0.48925 1.68783,-0.20201 1.36718,-2.36133 -0.15783,-1.06252 0.0517,-1.75149 0.80664,-2.65234 l 1.01954,-1.21875 0.91796,1.16601 c 0.63459,0.80676 0.91602,1.8147 0.91602,3.26954 0,2.51004 0.62221,3.1626 3.09961,3.2539 1.74737,0.0643 1.78947,0.032 1.69727,-1.33398 -0.052,-0.77036 0.15522,-1.70189 0.46093,-2.07031 0.30574,-0.36835 0.5447,-1.63435 0.5293,-2.8125 -0.0374,-2.85492 0.37347,-6.36819 0.87305,-7.46289 0.22259,-0.48778 0.59183,-1.5839 0.82226,-2.4375 l 0.41992,-1.55274 0.0469,1.99609 c 0.0343,1.4614 0.16175,1.81722 0.47656,1.33008 0.34505,-0.53399 0.43055,-0.46155 0.43555,0.36914 0.0104,1.59645 0.63776,1.03697 3.14844,-2.80859 2.22917,-3.41444 2.33135,-3.70488 2.70507,-7.73633 0.21354,-2.30366 0.46309,-4.26387 0.55469,-4.35547 0.0916,-0.0916 0.30033,0.44623 0.46485,1.19532 0.16453,0.74906 0.48447,1.36328 0.70898,1.36328 0.22451,0 0.4082,0.29825 0.4082,0.66406 0,0.36583 0.17675,0.66601 0.39453,0.66601 0.56189,0 0.93555,-1.15751 0.93555,-2.90234 0,-0.94706 0.33844,-1.81387 0.92188,-2.35742 0.5163,-0.481 1.03159,-1.66104 1.16796,-2.67774 0.1341,-0.99974 0.41713,-1.81837 0.62891,-1.81835 0.21177,0 0.40725,-0.54806 0.43555,-1.21876 0.0392,-0.92906 0.10342,-1.00776 0.26953,-0.33203 0.11988,0.48776 0.37172,1.0862 0.55859,1.33008 0.18688,0.24388 0.47481,1.38119 0.64063,2.52735 0.21954,1.51772 0.53668,2.15902 1.16797,2.35937 1.48037,0.46988 12.38867,-1.15703 12.38867,-1.84766 0,-0.33004 0.19948,-0.60156 0.44336,-0.60156 0.26653,0 0.45335,-1.90042 0.46875,-4.76562 0.014,-2.621703 0.19079,-5.565489 0.39258,-6.541019 l 0.36718,-1.773437 0.0937,1.552734 c 0.0516,0.8536 0.0697,2.249916 0.041,3.103516 -0.0287,0.85357 0.12749,2.149219 0.3457,2.880856 l 0.39649,1.33203 0.5,-1.25 c 0.27459,-0.68656 0.49804,-2.900531 0.49804,-4.921871 0,-5.02638 0.47776,-9.337772 0.95313,-8.601562 0.68827,1.06589 1.25205,-0.570846 1.24805,-3.628906 -0.008,-6.40146 1.10148,-35.47461 1.35351,-35.47461 0.14879,0 0.25749,1.148472 0.24219,2.550781 -0.0152,1.40231 0.23973,9.234277 0.5664,17.404297 0.53557,13.39435 1.19224,20.692595 1.72461,19.177735 0.38192,-1.08668 0.85064,-0.531893 0.65821,0.779297 -0.10769,0.73388 -0.003,1.582175 0.23437,1.884765 0.23714,0.30263 0.4624,3.029467 0.5,6.060547 0.0376,3.03109 0.15302,5.596387 0.25586,5.699217 0.62661,0.62661 1.13267,-0.77177 1.13867,-3.142576 0.003,-1.50986 0.2011,-3.044356 0.4375,-3.410156 0.35846,-0.554681 0.43954,-0.518827 0.49024,0.220703 0.11253,1.63983 0.20943,3.96971 0.30273,7.244139 l 0.0937,3.25391 1.73633,-0.29297 c 1.57526,-0.26615 1.82879,-0.16814 2.72852,1.04883 1.73973,2.35308 2.04966,2.08916 2.20898,-1.86914 0.0802,-1.99138 0.179,-4.41902 0.2207,-5.394535 0.0417,-0.97552 0.10468,-2.453839 0.13868,-3.287109 0.11163,-2.74057 0.50635,-1.141513 0.69335,2.810546 0.19112,4.038958 0.32455,4.529238 1.11133,4.042968 0.28683,-0.17725 0.47457,-2.15807 0.47657,-5.033202 0.006,-6.49315 0.39539,-9.509038 1.1875,-9.205078 0.3396,0.13034 0.69576,-0.0077 0.79296,-0.308594 0.0972,-0.30073 0.40678,-7.930655 0.6875,-16.953125 0.28072,-9.02247 0.65652,-16.663349 0.83399,-16.980469 0.17746,-0.317119 0.56213,4.969227 0.85547,11.748047 0.89996,20.79761 0.98927,21.894596 1.79687,22.228516 0.92423,0.38217 0.94583,0.503727 1.43555,7.810547 0.22795,3.40105 0.50813,6.277668 0.62305,6.392578 0.49368,0.49369 0.71817,-0.51135 0.875,-3.929688 0.17184,-3.745189 0.61037,-5.312286 0.73437,-2.623046 0.0384,0.83327 0.0565,1.793925 0.0391,2.134765 -0.0741,1.4577 0.80413,12.557569 1.27344,16.095699 l 0.50977,3.85547 1.38281,0.13477 c 1.26581,0.12326 1.62623,0.57564 4.30859,5.4043 1.61,2.8982 3.38495,5.61442 3.94532,6.0371 0.70158,0.52923 0.83859,0.82986 0.43945,0.9629 -0.85024,0.28341 -0.23614,2.22285 1.13867,3.59765 1.10403,1.10403 1.14933,1.3471 1.07813,5.72461 -0.0412,2.5137 -0.0566,6.42302 -0.0352,8.6875 0.0444,4.66132 0.0646,4.67073 3.2793,1.66992 1.49279,-1.39346 2.38642,-1.80619 3.52148,-1.62695 0.18292,0.0289 0.33398,-0.1487 0.33398,-0.39258 0,-0.24388 0.29825,-0.44336 0.66407,-0.44336 0.44118,0 0.68832,0.48557 0.73242,1.44141 0.0618,1.3413 0.0781,1.35759 0.25,0.22266 0.1016,-0.67067 0.38293,-1.22071 0.625,-1.22071 0.24209,0 0.29903,0.23018 0.125,0.51172 -0.19603,0.31718 -0.12185,0.39331 0.19531,0.19727 0.28157,-0.17399 0.51172,-0.73793 0.51172,-1.25196 0,-0.51403 0.12528,-0.80831 0.2793,-0.65429 0.15401,0.154 0.65368,0.0798 1.10937,-0.16407 1.01445,-0.54287 1.07297,-0.0868 0.12305,0.96289 -0.65444,0.72314 -0.63928,0.76394 0.2207,0.53907 1.03122,-0.2697 1.00629,-0.2218 1.17578,-2.28907 l 0.1211,-1.48437 -1.00391,0.94336 -1.00391,0.94336 -0.0391,-1.38086 c -0.031,-1.09317 0.10999,-1.32184 0.67383,-1.10547 0.39155,0.15024 0.84298,0.0592 1.00391,-0.20117 0.44299,-0.71678 1.87049,-0.002 1.56836,0.78515 -0.20449,0.53288 -0.13021,0.56351 0.36523,0.15235 0.48772,-0.40478 0.68255,-0.36222 0.89649,0.19531 0.40515,1.05581 0.33229,1.61699 -0.16993,1.30664 -0.24387,-0.15074 -0.44336,-0.0629 -0.44336,0.19531 0,0.25826 0.55932,0.46875 1.24219,0.46875 1.68761,0 2.3421,0.73171 1.83984,2.05274 -0.28206,0.74186 -0.24298,1.05078 0.12891,1.05078 0.32247,0 0.2382,0.2891 -0.21484,0.74219 -0.49327,0.4932 -0.62806,0.67868 -0.41797,0.92773 l 1.49805,-0.084 c 2.29118,-0.12981 4.63098,-0.62215 5.19921,-1.09375 0.75134,-0.62361 1.1747,-0.62927 1.55274,-0.0176 0.28591,0.46261 1.71723,0.95493 3.17969,1.09375 2.10071,0.19936 2.71036,0.6206 2.90625,2.00195 0.01,0.0685 0.0229,0.11844 0.0332,0.18164 0.23972,-0.14633 0.3457,-0.0836 0.3457,0.21094 0,0.28815 0.15687,0.42849 0.34766,0.31055 0.15507,-0.0958 0.59543,0.28492 1.0625,0.875 0.70772,0.044 1.69282,0.0157 3.16211,-0.0547 2.78417,-0.13337 3.92374,-0.22661 4.44531,-0.75 0.0289,-0.0386 0.0561,-0.0767 0.084,-0.11524 0.24623,-0.32071 0.33527,-0.77056 0.41407,-1.45507 0.24927,-2.1662 1.66211,-2.97662 1.66211,-0.95313 0,0.16919 0.0132,0.31214 0.0351,0.44141 0.69978,0.1434 1.43461,0.23799 2.16602,0.27539 0.69355,-0.2387 1.57788,-0.59467 2.75586,-1.09961 1.95759,-0.8391 3.87091,-1.33316 4.25195,-1.09766 0.38105,0.2355 0.69336,0.0465 0.69336,-0.42187 0,-0.46836 0.34283,-0.63974 0.76172,-0.38086 0.41887,0.25891 0.7705,-0.15041 0.7832,-0.9082 0.0208,-1.2494 0.10725,-1.23481 0.90821,0.14648 0.48578,0.83776 0.99247,2.52559 1.12695,3.75195 0.13444,1.22639 0.36786,-2.28445 0.51953,-2.13281 0.14801,0.148 3.11849,2.24171 6.61914,2.49414 l 5.65625,6.44922 34,35.35547 V -37.269531 Z M 189.08594,49.951172 c 0.24388,0 0.44336,0.398959 0.44336,0.886719 0,0.48776 -0.19948,0.886718 -0.44336,0.886718 -0.2439,0 -0.44336,-0.398958 -0.44336,-0.886718 0,-0.48776 0.19946,-0.886719 0.44336,-0.886719 z m 1.33008,46.115234 c -0.2439,0 -0.44336,0.19948 -0.44336,0.44336 0,0.24389 0.19946,0.443359 0.44336,0.443359 0.24387,0 0.44336,-0.199469 0.44336,-0.443359 0,-0.24388 -0.19949,-0.44336 -0.44336,-0.44336 z m -25.2754,7.982424 c -0.24387,0 -0.44335,0.39896 -0.44335,0.88672 0,0.48778 0.19948,0.88672 0.44335,0.88672 0.24388,0 0.44335,-0.39895 0.44336,-0.88672 -1e-5,-0.48776 -0.19948,-0.88672 -0.44336,-0.88672 z m 9.08985,0 c -0.67509,0 -0.9092,0.93648 -0.36914,1.47656 0.56217,0.56215 1.03515,0.29357 1.03515,-0.58984 -1e-5,-0.49266 -0.29651,-0.88672 -0.66601,-0.88672 z m 10.67578,1.33008 c -0.41133,0 -0.69922,0.37915 -0.69922,0.92382 0,1.08066 1.03617,0.92687 1.25195,-0.18554 0.0849,-0.43756 -0.13981,-0.73828 -0.55273,-0.73828 z m -39.27539,3.99023 c -0.24388,0 -0.44336,0.40997 -0.44336,0.91211 0,0.50217 0.19948,0.79133 0.44336,0.64063 0.24389,-0.15075 0.44336,-0.56264 0.44336,-0.91407 0,-0.35143 -0.19947,-0.63867 -0.44336,-0.63867 z m -15.57227,30.15234 c -0.24382,0 -0.32063,0.19948 -0.16992,0.44336 0.15073,0.24385 0.47292,0.44336 0.7168,0.44336 0.24392,0 0.32067,-0.19951 0.16992,-0.44336 -0.15072,-0.24388 -0.47292,-0.44336 -0.7168,-0.44336 z m 88.24414,4.9961 c 0.77489,0.0584 0.83984,1.21289 0.0684,1.21289 -0.18051,0 -0.5621,0.44735 -0.84961,0.99609 -0.51902,0.99052 -0.52249,0.99121 -0.29687,-0.10937 0.12498,-0.60972 0.23137,-1.34705 0.23437,-1.63672 0.003,-0.28971 0.38281,-0.49759 0.84375,-0.46289 z m 7.75391,3.60156 c -0.0539,-0.002 -0.11183,0.0164 -0.17383,0.0547 -0.24782,0.15319 -0.33563,0.46243 -0.19531,0.68945 0.38012,0.61503 0.64453,0.50156 0.64453,-0.27734 0,-0.28516 -0.11379,-0.4618 -0.27539,-0.4668 z m -1.69336,0.71484 c -0.10753,0 -0.31801,0.19948 -0.46875,0.44336 -0.15073,0.24388 -0.0629,0.44336 0.19531,0.44336 0.25827,0 0.46875,-0.19948 0.46875,-0.44336 0,-0.24388 -0.0878,-0.44336 -0.19531,-0.44336 z"
       transform="translate(609.5254,125.95507)"
       id="rect1133"
       inkscape:connector-curvature="0"
       sodipodi:nodetypes="ccccccccsscsccssccccccsccsccscscccccccscsccsccsccccccccsccccccccccccscssssscccccccssccccccccsccscscccsccccccccccccccccscscccccccccccccccccssccsccscccccccccccccccsscsccccccccsccccccsccccsccccccccccssssssssssssscssccssscssscssscscscscccccccscscsss" />
  </g>
</svg>
