<?xml version="1.0" encoding="UTF-8" standalone="no"?>
<!-- Created with Inkscape (http://www.inkscape.org/) -->

<svg
   xmlns:dc="http://purl.org/dc/elements/1.1/"
   xmlns:cc="http://creativecommons.org/ns#"
   xmlns:rdf="http://www.w3.org/1999/02/22-rdf-syntax-ns#"
   xmlns:svg="http://www.w3.org/2000/svg"
   xmlns="http://www.w3.org/2000/svg"
   xmlns:sodipodi="http://sodipodi.sourceforge.net/DTD/sodipodi-0.dtd"
   xmlns:inkscape="http://www.inkscape.org/namespaces/inkscape"
   version="1.1"
   id="svg2"
   width="273.65036"
   height="251.38672"
   viewBox="0 0 273.65036 251.38671"
   sodipodi:docname="brno.svg"
   inkscape:version="0.92.2 (5c3e80d, 2017-08-06)">
  <metadata
     id="metadata8">
    <rdf:RDF>
      <cc:Work
         rdf:about="">
        <dc:format>image/svg+xml</dc:format>
        <dc:type
           rdf:resource="http://purl.org/dc/dcmitype/StillImage" />
        <dc:title />
      </cc:Work>
    </rdf:RDF>
  </metadata>
  <defs
     id="defs6" />
  <sodipodi:namedview
     pagecolor="#ffffff"
     bordercolor="#666666"
     borderopacity="1"
     objecttolerance="10"
     gridtolerance="10"
     guidetolerance="10"
     inkscape:pageopacity="0"
     inkscape:pageshadow="2"
     inkscape:window-width="1366"
     inkscape:window-height="704"
     id="namedview4"
     showgrid="false"
     inkscape:zoom="1.4142136"
     inkscape:cx="179.7614"
     inkscape:cy="69.887171"
     inkscape:window-x="0"
     inkscape:window-y="27"
     inkscape:window-maximized="1"
     inkscape:current-layer="layer2"
     showguides="true"
     inkscape:guide-bbox="true"
     fit-margin-top="0"
     fit-margin-left="0"
     fit-margin-right="0"
     fit-margin-bottom="0">
    <sodipodi:guide
       position="0.00061538632,-122.20281"
       orientation="1,0"
       id="guide5284"
       inkscape:locked="false" />
    <sodipodi:guide
       position="273.65096,-28.157631"
       orientation="1,0"
       id="guide5286"
       inkscape:locked="false" />
    <sodipodi:guide
       position="632.15406,5.7834884"
       orientation="1,0"
       id="guide5288"
       inkscape:locked="false" />
  </sodipodi:namedview>
  <g
     inkscape:groupmode="layer"
     id="layer2"
     inkscape:label="Layer 2"
     transform="translate(-609.52543,-173.63086)">
    <path
       style="fill:#ffffff;fill-opacity:1"
       d="m 609.52606,173.28757 h 273.64975 l -3e-5,108.08352 -273.65035,11.71886 z"
       id="rect2827"
       inkscape:connector-curvature="0"
       sodipodi:nodetypes="ccccc" />
    <path
       style="fill:#e51f40;fill-opacity:1;stroke-width:1.05216289"
       d="m 779.10742,173.63086 c -0.25203,0 -1.36151,29.07315 -1.35351,35.47461 0.004,3.05806 -0.55977,4.6948 -1.24805,3.62891 -0.47537,-0.73621 -0.95313,3.57518 -0.95313,8.60156 0,2.02134 -0.22345,4.23531 -0.49804,4.92187 l -0.5,1.25 -0.39649,-1.33203 c -0.21821,-0.73164 -0.37439,-2.02729 -0.3457,-2.88086 0.0287,-0.8536 0.0106,-2.24991 -0.041,-3.10351 l -0.0937,-1.55274 -0.36718,1.77344 c -0.20179,0.97553 -0.37859,3.91931 -0.39258,6.54101 -0.0154,2.8652 -0.20222,4.76563 -0.46875,4.76563 -0.24388,0 -0.44336,0.27152 -0.44336,0.60156 0,0.69063 -10.9083,2.31754 -12.38867,1.84766 -0.63129,-0.20035 -0.94843,-0.84166 -1.16797,-2.35938 -0.16582,-1.14616 -0.45375,-2.28346 -0.64063,-2.52734 -0.18687,-0.24388 -0.43871,-0.84232 -0.55859,-1.33008 -0.16611,-0.67573 -0.23034,-0.59705 -0.26953,0.33203 -0.0283,0.67067 -0.22378,1.21875 -0.43555,1.21875 -0.21178,0 -0.4948,0.81862 -0.6289,1.81836 -0.13637,1.0167 -0.65167,2.19674 -1.16797,2.67774 -0.58344,0.54355 -0.92188,1.41036 -0.92188,2.35742 0,1.74483 -0.37366,2.90234 -0.93555,2.90234 -0.21778,0 -0.39453,-0.30018 -0.39453,-0.66601 0,-0.36581 -0.18369,-0.66407 -0.4082,-0.66407 -0.22451,0 -0.54445,-0.61421 -0.70898,-1.36328 -0.16452,-0.74909 -0.37326,-1.28693 -0.46485,-1.19531 -0.0916,0.0916 -0.34114,2.05181 -0.55468,4.35547 -0.37372,4.03145 -0.47591,4.32189 -2.70508,7.73633 -2.51068,3.84556 -3.13805,4.40504 -3.14844,2.80859 -0.005,-0.83069 -0.0905,-0.90313 -0.43555,-0.36914 -0.31482,0.48714 -0.44225,0.13132 -0.47656,-1.33008 l -0.0469,-1.99609 -0.41993,1.55273 c -0.23043,0.8536 -0.59967,1.94974 -0.82226,2.4375 -0.49958,1.09472 -0.91046,4.60797 -0.87305,7.46289 0.0154,1.17815 -0.22356,2.44415 -0.5293,2.8125 -0.30571,0.36842 -0.51293,1.29996 -0.46093,2.07032 0.0922,1.36601 0.0501,1.39828 -1.69727,1.33398 -2.4774,-0.0913 -3.09961,-0.74387 -3.09961,-3.25391 0,-1.45484 -0.28143,-2.46278 -0.91601,-3.26953 l -0.91797,-1.16601 -1.01953,1.21875 c -0.75495,0.90085 -0.96447,1.58982 -0.80664,2.65234 0.32065,2.15932 -0.0804,2.85058 -1.36719,2.36133 -0.65096,-0.24665 -1.22787,-0.24479 -1.47852,0.006 -0.64297,0.64297 -4.13475,0.8607 -4.13476,0.25781 0,-0.28167 -1.28054,-1.46068 -2.84571,-2.61914 -2.40881,-1.78286 -3.15379,-2.10547 -4.85156,-2.10547 -1.10313,0 -2.13053,0.19948 -2.28125,0.44336 -0.47189,0.76353 -2.70755,0.48404 -3.54687,-0.44336 -0.72843,-0.80495 -1.36629,-0.88672 -6.89844,-0.88672 h -6.09375 l -2.26172,2.60938 c -1.24354,1.43544 -2.26172,2.82863 -2.26172,3.0957 0,0.68067 -1.97704,1.10132 -3.79297,0.80664 -1.0687,-0.17343 -1.52734,-0.0789 -1.52734,0.31445 0,0.30927 -0.54806,0.84189 -1.21875,1.1836 -2.07778,1.05855 -5.11232,3.48507 -5.6543,4.52344 -0.28421,0.54451 -0.79864,0.91426 -1.14453,0.82226 -0.84006,-0.22342 -1.2414,-0.19729 -3.06836,0.18946 -0.85359,0.18063 -1.39765,0.16039 -1.20898,-0.043 0.18866,-0.2034 -0.2103,-0.60755 -0.88672,-0.89844 -1.02314,-0.44001 -1.45905,-0.39825 -2.59375,0.24609 -0.7502,0.42598 -2.18343,0.77539 -3.18555,0.77539 -1.09583,0 -2.11243,0.2882 -2.54883,0.72461 -0.39907,0.39906 -0.90304,0.72656 -1.12109,0.72656 -0.21806,0 -0.98553,0.57399 -1.70508,1.27735 -0.96275,0.94112 -1.17663,1.41126 -0.8125,1.77539 0.36415,0.36416 0.28678,0.49414 -0.29297,0.49414 -0.6094,0 -0.77009,-0.32669 -0.70898,-1.44141 0.11525,-2.10536 0.0737,-2.18315 -0.89258,-1.66601 -0.48489,0.25953 -0.99634,0.92901 -1.13672,1.48828 -0.14038,0.55927 -0.85492,1.37172 -1.58789,1.80469 -1.47672,0.87232 -2.15369,0.65478 -1.27148,-0.40821 0.64183,-0.7734 0.66682,-0.73653 -1.00977,-1.45703 -0.67753,-0.29116 -1.36344,-0.88165 -1.52344,-1.31054 -0.30419,-0.81539 -1.9205,-2.16702 -2.40429,-2.01172 -0.15418,0.0495 -1.05088,0.1392 -1.99414,0.19922 -1.62091,0.10317 -2.82422,0.7609 -2.82422,1.54492 0,0.82103 -3.33242,3.25781 -4.45508,3.25781 -0.6809,0 -1.82528,0.55432 -2.67578,1.29688 -0.81727,0.71354 -1.64071,1.20026 -1.83203,1.08203 -0.19133,-0.11823 -0.34961,0.0883 -0.34961,0.45703 0,0.36872 -0.23065,1.17765 -0.51368,1.79883 -0.45791,1.00499 -0.77595,1.1289 -2.88281,1.1289 -1.30219,0 -2.36719,0.18714 -2.36719,0.41406 0,0.56834 -1.70724,0.78162 -3.4121,0.42774 -0.97385,-0.20212 -1.73329,-0.0724 -2.42774,0.41406 -0.55576,0.38925 -1.31538,0.73167 -1.6875,0.75977 -1.90819,0.14415 -2.22851,0.23901 -2.22852,0.66406 0,0.73733 -1.61575,2.27053 -2.27734,2.16016 -0.33195,-0.0554 -1.00246,0.0501 -1.49023,0.23437 -3.48162,1.31522 -4.21289,1.53674 -4.21289,1.2832 0,-0.15775 -0.39895,0.0742 -0.88672,0.51563 -0.48777,0.44144 -0.88672,1.19191 -0.88672,1.66797 0,0.58007 -0.21668,0.78317 -0.6543,0.61523 -0.35913,-0.13779 -0.90723,0.0912 -1.21875,0.50781 -0.72076,0.96381 -1.23457,1.45739 -1.86328,1.59961 V 425.01758 H 883.17578 V 281.37109 c -3.50065,-0.25243 -6.47113,-0.5727 -6.61914,-0.7207 -0.15167,-0.15164 -0.3851,-1.27947 -0.51953,-2.50586 -0.13448,-1.22636 -0.64117,-2.91419 -1.12695,-3.75195 -0.80096,-1.38129 -0.88742,-1.39589 -0.90821,-0.14649 -0.0127,0.75779 -0.36433,1.16712 -0.7832,0.90821 -0.41889,-0.25888 -0.76172,-0.0875 -0.76172,0.38086 0,0.46842 -0.31231,0.65737 -0.69336,0.42187 -0.38104,-0.2355 -2.29436,0.25856 -4.25195,1.09766 -1.17798,0.50494 -2.06231,0.86091 -2.75586,1.09961 -0.73141,-0.0374 -1.46624,-0.13199 -2.16602,-0.27539 -0.0219,-0.12927 -0.0351,-0.27222 -0.0351,-0.44141 0,-2.02349 -1.41284,-1.21308 -1.66211,0.95312 -0.0788,0.68451 -0.16783,1.13435 -0.41406,1.45508 -0.0279,0.0385 -0.0551,0.0766 -0.084,0.11524 -0.52157,0.52339 -1.66114,0.61663 -4.44531,0.75 -1.46929,0.0704 -2.45439,0.0987 -3.16211,0.0547 -0.46707,-0.59008 -0.90744,-0.97083 -1.0625,-0.875 -0.1908,0.11794 -0.34766,-0.0224 -0.34766,-0.31054 0,-0.29451 -0.10598,-0.35727 -0.3457,-0.21094 -0.0103,-0.0632 -0.0235,-0.11319 -0.0332,-0.18164 -0.19589,-1.38135 -0.80554,-1.80259 -2.90625,-2.00195 -1.46246,-0.13882 -2.89378,-0.63114 -3.17969,-1.09375 -0.37804,-0.61171 -0.80139,-0.60599 -1.55273,0.0176 -0.56823,0.4716 -2.90804,0.96393 -5.19922,1.09374 l -1.49805,0.084 c -0.21009,-0.24905 -0.0753,-0.43453 0.41797,-0.92773 0.45304,-0.45309 0.53731,-0.74219 0.21484,-0.74219 -0.37189,0 -0.41097,-0.30892 -0.1289,-1.05078 0.50225,-1.32103 -0.15224,-2.05274 -1.83985,-2.05274 -0.68287,0 -1.24219,-0.21049 -1.24219,-0.46875 0,-0.25822 0.19949,-0.34605 0.44336,-0.19531 0.50222,0.31035 0.57509,-0.25083 0.16993,-1.30664 -0.21394,-0.55753 -0.40877,-0.60009 -0.89649,-0.19531 -0.49544,0.41116 -0.56972,0.38053 -0.36523,-0.15235 0.30213,-0.78694 -1.12537,-1.50193 -1.56836,-0.78515 -0.16093,0.26036 -0.61236,0.35141 -1.00391,0.20117 -0.56384,-0.21637 -0.70483,0.0123 -0.67383,1.10547 l 0.0391,1.38086 1.0039,-0.94336 1.00391,-0.94336 -0.1211,1.48437 c -0.16949,2.06727 -0.14456,2.01937 -1.17578,2.28907 -0.85998,0.22487 -0.87514,0.18407 -0.2207,-0.53907 0.94992,-1.04967 0.8914,-1.50576 -0.12305,-0.96289 -0.45569,0.24391 -0.95536,0.31806 -1.10937,0.16406 -0.15402,-0.15402 -0.2793,0.14027 -0.2793,0.6543 0,0.51403 -0.23016,1.07796 -0.51172,1.25195 -0.31716,0.19604 -0.39134,0.11992 -0.19531,-0.19726 0.17403,-0.28154 0.11709,-0.51172 -0.125,-0.51172 -0.24207,0 -0.5234,0.55004 -0.625,1.2207 -0.17186,1.13496 -0.1882,1.11865 -0.25,-0.22265 -0.0441,-0.95584 -0.29124,-1.44141 -0.73242,-1.44141 -0.36582,0 -0.66406,0.19948 -0.66406,0.44336 0,0.24388 -0.15107,0.42145 -0.33399,0.39258 -1.13506,-0.17924 -2.02869,0.23349 -3.52148,1.62695 -3.21472,3.00081 -3.2349,2.9914 -3.2793,-1.66992 -0.0215,-2.26448 -0.006,-6.1738 0.0352,-8.6875 0.0712,-4.37751 0.0259,-4.62058 -1.07813,-5.72461 -1.37481,-1.3748 -1.98891,-3.31425 -1.13867,-3.59766 0.39914,-0.13304 0.26213,-0.43367 -0.43945,-0.96289 -0.56037,-0.42268 -2.33532,-3.13891 -3.94532,-6.03711 -2.68236,-4.82866 -3.04278,-5.28103 -4.30859,-5.40429 l -1.38281,-0.13477 -0.50977,-3.85547 c -0.46931,-3.53813 -1.34753,-14.638 -1.27344,-16.0957 0.0174,-0.34084 -6.6e-4,-1.3015 -0.0391,-2.13477 -0.124,-2.68924 -0.56253,-1.12214 -0.73437,2.62305 -0.15683,3.41835 -0.38132,4.42338 -0.875,3.92969 -0.11492,-0.11491 -0.3951,-2.99153 -0.62305,-6.39258 -0.48972,-7.30682 -0.51132,-7.42838 -1.43555,-7.81055 -0.8076,-0.33392 -0.89691,-1.4309 -1.79687,-22.22851 -0.29334,-6.77882 -0.678,-12.06517 -0.85547,-11.74805 -0.17747,0.31712 -0.55326,7.958 -0.83398,16.98047 -0.28072,9.02247 -0.59032,16.65239 -0.6875,16.95312 -0.0972,0.30089 -0.45337,0.43894 -0.79297,0.3086 -0.79211,-0.30396 -1.1815,2.71193 -1.1875,9.20508 -0.002,2.87513 -0.18974,4.85595 -0.47657,5.0332 -0.78678,0.48627 -0.9202,-0.004 -1.11132,-4.04297 -0.18701,-3.95206 -0.58173,-5.55112 -0.69336,-2.81055 -0.034,0.83327 -0.097,2.31159 -0.13868,3.28711 -0.0417,0.97553 -0.14049,3.40315 -0.2207,5.39453 -0.15932,3.9583 -0.46925,4.22223 -2.20898,1.86915 -0.89973,-1.21697 -1.15326,-1.31498 -2.72852,-1.04883 l -1.73633,0.29297 -0.0937,-3.25391 c -0.0933,-3.27444 -0.1902,-5.60431 -0.30273,-7.24414 -0.0507,-0.73953 -0.13178,-0.77538 -0.49024,-0.2207 -0.2364,0.3658 -0.43449,1.90029 -0.4375,3.41015 -0.006,2.37082 -0.51206,3.76919 -1.13867,3.14258 -0.10283,-0.10283 -0.21826,-2.66813 -0.25586,-5.69922 -0.0376,-3.03108 -0.26286,-5.75792 -0.5,-6.06055 -0.23737,-0.30259 -0.34206,-1.15088 -0.23437,-1.88476 0.19243,-1.31119 -0.27629,-1.86598 -0.65821,-0.7793 -0.53237,1.51486 -1.18904,-5.78338 -1.7246,-19.17773 -0.32667,-8.17002 -0.58162,-16.00199 -0.56641,-17.4043 0.0153,-1.40231 -0.0934,-2.55078 -0.24219,-2.55078 z m 19.50391,1.77539 c -0.2439,0 -0.44336,0.39896 -0.44336,0.88672 0,0.48776 0.19946,0.88672 0.44336,0.88672 0.24388,0 0.44336,-0.39896 0.44336,-0.88672 0,-0.48776 -0.19948,-0.88672 -0.44336,-0.88672 z m 1.33008,46.11523 c 0.24387,0 0.44336,0.19948 0.44336,0.44336 0,0.24389 -0.19949,0.44336 -0.44336,0.44336 -0.2439,0 -0.44336,-0.19947 -0.44336,-0.44336 0,-0.24388 0.19946,-0.44336 0.44336,-0.44336 z m -25.27539,7.98243 c 0.24387,0 0.44335,0.39895 0.44336,0.88671 -10e-6,0.48777 -0.19949,0.88672 -0.44336,0.88672 -0.24388,0 -0.44336,-0.39894 -0.44336,-0.88672 0,-0.48776 0.19948,-0.88671 0.44336,-0.88671 z m 9.08984,0 c 0.36951,0 0.66601,0.39405 0.66602,0.88671 0,0.88341 -0.47299,1.152 -1.03516,0.58985 -0.54006,-0.54008 -0.30594,-1.47656 0.36914,-1.47656 z m 10.67578,1.33007 c 0.41292,0 0.63763,0.30073 0.55274,0.73829 -0.21578,1.11241 -1.25196,1.2662 -1.25196,0.18554 0,-0.54467 0.28789,-0.92383 0.69922,-0.92383 z m -39.27539,3.99024 c 0.24389,0 0.44336,0.28724 0.44336,0.63867 0,0.35143 -0.19947,0.76333 -0.44336,0.91406 -0.24388,0.15071 -0.44336,-0.13845 -0.44336,-0.64062 0,-0.50214 0.19948,-0.91211 0.44336,-0.91211 z m -15.57227,30.15234 c 0.24388,0 0.56608,0.19948 0.7168,0.44336 0.15075,0.24385 0.074,0.44336 -0.16992,0.44336 -0.24388,0 -0.56606,-0.19951 -0.7168,-0.44336 -0.15071,-0.24388 -0.0739,-0.44336 0.16992,-0.44336 z m 88.24414,4.9961 c -0.46094,-0.0347 -0.84076,0.17318 -0.84374,0.46289 -0.003,0.28967 -0.1094,1.027 -0.23438,1.63672 -0.22562,1.10058 -0.22214,1.09989 0.29688,0.10937 0.28751,-0.54874 0.66909,-0.99609 0.8496,-0.99609 0.77152,0 0.70645,-1.15449 -0.0684,-1.21289 z m 7.75391,3.60156 c 0.1616,0.005 0.27539,0.18164 0.27539,0.4668 0,0.7789 -0.26441,0.89237 -0.64453,0.27734 -0.14032,-0.22702 -0.0525,-0.53626 0.19531,-0.68945 0.062,-0.0383 0.11996,-0.0565 0.17383,-0.0547 z m -1.69336,0.71484 c 0.10755,0 0.19531,0.19948 0.19531,0.44336 0,0.24388 -0.21048,0.44336 -0.46875,0.44336 -0.25824,0 -0.34604,-0.19948 -0.19531,-0.44336 0.15074,-0.24388 0.36122,-0.44336 0.46875,-0.44336 z"
       id="rect5282"
       inkscape:connector-curvature="0" />
  </g>
</svg>
