<?xml version="1.0" encoding="UTF-8" standalone="no"?>
<!-- Created with Inkscape (http://www.inkscape.org/) -->

<svg
   xmlns:dc="http://purl.org/dc/elements/1.1/"
   xmlns:cc="http://creativecommons.org/ns#"
   xmlns:rdf="http://www.w3.org/1999/02/22-rdf-syntax-ns#"
   xmlns:svg="http://www.w3.org/2000/svg"
   xmlns="http://www.w3.org/2000/svg"
   xmlns:sodipodi="http://sodipodi.sourceforge.net/DTD/sodipodi-0.dtd"
   xmlns:inkscape="http://www.inkscape.org/namespaces/inkscape"
   version="1.1"
   id="svg2"
   width="222.49933"
   height="160.25078"
   viewBox="0 0 222.49934 160.25078"
   sodipodi:docname="brno.svg"
   inkscape:version="0.92.2 2405546, 2018-03-11">
  <metadata
     id="metadata8">
    <rdf:RDF>
      <cc:Work
         rdf:about="">
        <dc:format>image/svg+xml</dc:format>
        <dc:type
           rdf:resource="http://purl.org/dc/dcmitype/StillImage" />
        <dc:title></dc:title>
      </cc:Work>
    </rdf:RDF>
  </metadata>
  <defs
     id="defs6" />
  <sodipodi:namedview
     pagecolor="#e51f40"
     bordercolor="#666666"
     borderopacity="1"
     objecttolerance="10"
     gridtolerance="10"
     guidetolerance="10"
     inkscape:pageopacity="0"
     inkscape:pageshadow="2"
     inkscape:window-width="1920"
     inkscape:window-height="1016"
     id="namedview4"
     showgrid="false"
     inkscape:zoom="11.313708"
     inkscape:cx="197.91644"
     inkscape:cy="3.0672797"
     inkscape:window-x="0"
     inkscape:window-y="27"
     inkscape:window-maximized="1"
     inkscape:current-layer="layer2"
     showguides="true"
     inkscape:guide-bbox="true"
     fit-margin-top="0"
     fit-margin-left="0"
     fit-margin-right="0"
     fit-margin-bottom="0"
     inkscape:pagecheckerboard="true">
    <sodipodi:guide
       position="5.0953912e-07,-261.76528"
       orientation="1,0"
       id="guide5284"
       inkscape:locked="false" />
    <sodipodi:guide
       position="222.49934,104.00003"
       orientation="1,0"
       id="guide5286"
       inkscape:locked="false" />
    <sodipodi:guide
       position="632.15348,-133.779"
       orientation="1,0"
       id="guide5288"
       inkscape:locked="false" />
    <sodipodi:guide
       position="-295.29508,160.25079"
       orientation="0,1"
       inkscape:locked="false"
       id="guide1611" />
    <sodipodi:guide
       position="-356.19207,1.4604027e-05"
       orientation="0,1"
       id="guide118"
       inkscape:locked="false" />
    <sodipodi:guide
       position="1017.3028,-0.041525397"
       orientation="1,0"
       id="guide140"
       inkscape:locked="false" />
    <sodipodi:guide
       position="-354.54758,0.00078271404"
       orientation="1,0"
       id="guide1129"
       inkscape:locked="false" />
  </sodipodi:namedview>
  <g
     inkscape:groupmode="layer"
     id="layer2"
     inkscape:label="Layer 2"
     transform="translate(-609.52606,-125.20432)">
    <path
       style="fill:#ffffff;fill-opacity:1;stroke-width:1.11996353"
       d="M 510.08315,58.627059 V 279.24342 l 38.05481,-2e-5 6.34174,0.56059 15.12514,-1.06426 c 0,-0.47656 0.3592,-0.58291 2.49858,-0.74453 0.41724,-0.0315 1.26895,-0.41542 1.89203,-0.85185 0.77862,-0.54543 1.63004,-0.69085 2.722,-0.46424 1.91142,0.39677 3.82558,0.15764 3.82558,-0.47956 0,-0.25443 1.19407,-0.46426 2.65411,-0.46426 2.36214,0 2.71878,-0.13892 3.23219,-1.26571 0.31731,-0.69646 0.5759,-1.60343 0.5759,-2.01683 0,-0.41341 0.17747,-0.64498 0.392,-0.51242 0.21444,0.13255 1.13772,-0.41315 2.05401,-1.21316 0.95363,-0.83256 2.23667,-1.45405 3.00006,-1.45405 6.99565,12.44173 1.65188,20.72089 17.07476,18.18197 22.69282,-10.75375 23.78156,-5.00139 28.42963,-16.28764 28.17643,-7.56764 3.27871,3.26828 14.70459,-7.85357 0,-0.29943 5.48729,-0.0229 6.88153,-1.63231 l 2.95364,-2.84202 6.74868,-0.41786 c 11.26921,-0.55851 2.93984,-4.42017 13.60034,-3.51867 1.71277,-0.28535 3.05046,1.76127 5.74466,-0.50755 0.281,-0.28134 0.92782,-0.28295 1.65765,-0.007 1.44274,0.54855 1.89241,-0.22648 1.53284,-2.6475 -0.1769,-1.19129 0.0577,-1.96375 0.90447,-2.97378 l 1.1431,3.48067 1.86491,2.47731 c 0.71148,0.90453 0.19127,-3.98248 0.19127,-2.35133 0,2.81423 0.69768,3.54589 3.47527,3.64825 1.95917,0.0721 2.00635,0.0359 1.90301,-1.49565 -0.0586,-0.86372 0.17397,-1.90814 0.51681,-2.32122 0.34274,-0.41299 0.6107,-1.83241 0.59339,-3.15335 -0.0416,-3.20091 0.41877,-7.13996 0.97888,-8.36733 0.24952,-0.5469 0.66355,-1.77585 0.92195,-2.7329 l 0.47077,-1.74092 0.053,2.238 c 0.0388,1.63851 0.18134,2.03745 0.5343,1.49128 0.3869,-0.59871 0.48277,-0.51749 0.48835,0.41387 0.0113,1.78992 0.71508,1.16264 3.53002,-3.14897 2.49933,-3.82823 2.61383,-4.15388 3.03287,-8.6739 0.2394,-2.58284 0.51927,-4.78062 0.62195,-4.88332 0.10268,-0.10271 0.33669,0.5003 0.52116,1.34019 0.18447,0.83983 0.54319,1.52849 0.79488,1.52849 0.25179,0 0.45772,0.33439 0.45772,0.74455 0,0.41015 0.19817,0.74671 0.4423,0.74671 0.62999,0 1.04894,-1.29779 1.04894,-3.25407 0,-1.06184 0.37943,-2.0337 1.03362,-2.64312 0.57883,-0.5393 1.15662,-1.86235 1.30951,-3.00227 0.15034,-1.12089 0.46765,-2.03874 0.70515,-2.03871 0.23742,0 0.45659,-0.61449 0.48826,-1.36646 0.0444,-1.04166 0.11601,-1.1299 0.30228,-0.37227 0.13435,0.54686 0.41677,1.21784 0.6262,1.49127 0.20952,0.27344 0.53241,1.54858 0.7183,2.83365 0.2462,1.70165 0.60171,2.42067 1.30951,2.64529 1.65982,0.52684 13.89013,-1.29724 13.89013,-2.07157 0,-0.37003 0.22361,-0.67447 0.49705,-0.67447 0.29887,0 0.5083,-2.13073 0.5256,-5.34316 0.0151,-2.93944 0.21388,-6.23999 0.44013,-7.33374 l 0.41167,-1.98837 0.10505,1.74091 c 0.0577,0.95705 0.0785,2.52259 0.0463,3.47965 -0.0322,0.957 0.14296,2.40968 0.38756,3.22998 l 0.44457,1.49346 0.56059,-1.40148 c 0.30785,-0.76977 0.55841,-3.25205 0.55841,-5.51837 0,-5.63553 0.53562,-10.46943 1.0687,-9.644 0.77162,1.19507 1.40378,-0.64002 1.39924,-4.06869 -0.009,-7.17727 1.23501,-39.77383 1.51752,-39.77383 0.16689,0 0.28876,1.28765 0.27155,2.85991 -0.017,1.57225 0.26881,10.35339 0.63509,19.51354 0.60049,15.01764 1.33665,23.20037 1.93355,21.50192 0.42821,-1.21837 0.95382,-0.59635 0.73805,0.87374 -0.12074,0.82282 0,1.77393 0.26276,2.11319 0.26587,0.3393 0.51842,3.39661 0.56058,6.79503 0.0426,3.39843 0.17152,6.27462 0.28687,6.38991 0.7026,0.70256 1.2699,-0.8653 1.27671,-3.52343 0,-1.69285 0.2254,-3.4133 0.49043,-3.82343 0.40193,-0.62191 0.49288,-0.58171 0.54971,0.24745 0.12613,1.83856 0.23477,4.45081 0.33943,8.12207 l 0.10505,3.64825 1.94678,-0.32848 c 1.7661,-0.29841 2.05041,-0.18851 3.05916,1.17595 1.95056,2.63825 2.29803,2.34234 2.47664,-2.09566 0.0898,-2.23273 0.20073,-4.95458 0.24753,-6.04832 0.0463,-1.09374 0.11734,-2.75122 0.15544,-3.68548 0.12518,-3.0727 0.56777,-1.27985 0.77739,3.15117 0.21425,4.52844 0.36392,5.07813 1.24598,4.53294 0.32166,-0.19874 0.53212,-2.41961 0.53439,-5.64318 0.009,-7.28007 0.44325,-10.66145 1.33136,-10.32066 0.38075,0.14614 0.78013,-0.009 0.88905,-0.34599 0.10902,-0.33718 0.45611,-8.89179 0.77087,-19.0077 0.31475,-10.11592 0.73607,-18.6828 0.935,-19.03837 0.19903,-0.35554 0.63027,5.57146 0.95921,13.17182 1.00904,23.3181 1.10916,24.54803 2.01457,24.92242 1.03627,0.42849 1.06047,0.56477 1.60953,8.75712 0.25566,3.81323 0.56975,7.03846 0.69862,7.1673 0.5535,0.55353 0.80519,-0.57332 0.98105,-4.40592 0.1926,-4.19908 0.68436,-5.9561 0.82334,-2.94095 0.0425,0.93426 0.0633,2.01134 0.0435,2.39349 -0.0832,1.63436 0.90162,14.07944 1.42779,18.04636 l 0.57156,4.32272 1.55033,0.15109 c 1.41929,0.13821 1.8233,0.64542 4.83074,6.05927 1.80515,3.24943 3.79524,6.29484 4.42352,6.76874 0.78656,0.59337 0.9402,0.93044 0.4927,1.0796 -0.95325,0.31775 -0.26474,2.49224 1.27661,4.03365 1.23785,1.23783 1.28872,1.51037 1.20882,6.41838 -0.0463,2.81834 -0.0634,7.20144 -0.0397,9.74035 0.0501,5.22624 0.0728,5.23679 3.67676,1.8723 1.67363,-1.56233 2.67557,-2.02508 3.94821,-1.82411 0.20508,0.0323 0.37452,-0.16673 0.37452,-0.44016 0,-0.27344 0.33432,-0.49709 0.74448,-0.49709 0.49469,0 0.77172,0.54442 0.82117,1.61609 0.069,1.50385 0.0879,1.52211 0.28034,0.24965 0.11393,-0.75195 0.42935,-1.36865 0.70071,-1.36865 0.27145,0 0.33527,0.25808 0.14021,0.57373 -0.21982,0.35562 -0.13662,0.44098 0.21898,0.22117 0.3157,-0.19507 0.57373,-0.82735 0.57373,-1.40367 0,-0.57633 0.14041,-0.90627 0.31315,-0.73359 0.17265,0.17266 0.73286,0.0894 1.2438,-0.18395 1.13734,-0.60866 1.20296,-0.0974 0.13795,1.07958 -0.73371,0.81077 -0.71678,0.85652 0.24744,0.60441 1.15625,-0.30239 1.12826,-0.24869 1.31831,-2.56649 l 0.13577,-1.66427 -1.12562,1.05769 -1.12552,1.05769 -0.0435,-1.54821 c -0.035,-1.22565 0.12329,-1.48204 0.75545,-1.23945 0.439,0.16845 0.94512,0.0664 1.12562,-0.22554 0.49667,-0.80366 2.09712,-0.002 1.75844,0.8803 -0.22929,0.59746 -0.14599,0.6318 0.40949,0.17081 0.54679,-0.45384 0.7652,-0.40613 1.00507,0.21898 0.45431,1.18376 0.37262,1.81296 -0.19052,1.46499 -0.27344,-0.169 -0.49705,-0.0705 -0.49705,0.21898 0,0.28956 0.62706,0.52556 1.39272,0.52556 1.89213,0 2.62593,0.82039 2.0628,2.30152 -0.31627,0.83176 -0.2724,1.17812 0.14456,1.17812 0.36156,0 0.26701,0.32413 -0.24091,0.83213 -0.55302,0.55298 -0.70411,0.76094 -0.46859,1.04017 l 1.67958,-0.0942 c 2.56883,-0.14554 5.19221,-0.69755 5.82929,-1.2263 0.84244,-0.69919 1.31708,-0.70553 1.74094,-0.0197 0.32053,0.51868 1.92532,1.07067 3.56501,1.22631 2.35533,0.22351 3.03883,0.69581 3.25847,2.24457 0.0113,0.0768 0.99777,-0.57432 1.00917,-0.50346 0.26881,-0.16406 -0.91215,0.98629 -0.58461,0.94362 1.59099,-0.20726 3.8007,-0.53033 4.19043,-0.18215 l 5.91997,0.60909 c 0.0322,-0.0433 0.0634,-0.086 0.0946,-0.12922 0.27609,-0.35958 0.37593,-0.86393 0.46424,-1.63141 0.27949,-2.42873 1.86358,-3.33736 1.86358,-1.06864 0,0.1897 0.0151,0.34996 0.0397,0.49491 0.78458,0.16077 1.60848,0.26683 2.42851,0.30877 0.77758,-0.26763 1.76913,-0.66675 3.08989,-1.23288 2.19479,-0.94079 4.34003,-1.49472 4.76721,-1.23069 0.42717,0.26404 0.77739,0.0521 0.77739,-0.473 0,-0.52512 0.38434,-0.71726 0.85407,-0.42701 0.46963,0.29029 0.8638,-0.16864 0.87808,-1.01827 0.0236,-1.40082 0.12027,-1.38446 1.0183,0.16423 0.54461,0.93929 1.11276,2.83167 1.26347,4.20666 0.15071,1.37502 0.41243,-2.56131 0.58252,-2.3913 0.16594,0.16594 0.069,4.58167 3.99388,4.8647 l 9.29643,5.39891 5.83566,1.37079 32.75761,38.03308 V 58.627059 Z m 256.39814,97.791121 c 0.27335,0 0.49705,0.44731 0.49705,0.99419 0,0.54686 -0.2237,0.99417 -0.49705,0.99417 -0.27353,0 -0.49714,-0.44731 -0.49714,-0.99417 0,-0.54688 0.22361,-0.99419 0.49714,-0.99419 z m 1.49124,51.70401 c -0.27343,0 -0.49714,0.22366 -0.49714,0.4971 0,0.27343 0.22371,0.49709 0.49714,0.49709 0.27344,0 0.49705,-0.22366 0.49705,-0.49709 0,-0.27344 -0.22361,-0.4971 -0.49705,-0.4971 z m -28.33857,8.94984 c -0.27344,0 -0.49705,0.4473 -0.49705,0.99417 0,0.54689 0.22361,0.99419 0.49705,0.99419 0.27343,0 0.49704,-0.44731 0.49714,-0.99419 -10e-5,-0.54687 -0.22371,-0.99417 -0.49714,-0.99417 z m 10.19143,0 c -0.75687,0 -1.01934,1.04996 -0.41384,1.65549 0.63026,0.63028 1.1606,0.32914 1.1606,-0.66132 0,-0.55237 -0.33244,-0.99417 -0.74676,-0.99417 z m 11.96963,1.49126 c -0.46121,0 -0.784,0.4251 -0.784,1.03578 0,1.21163 1.16183,1.0392 1.40368,-0.20802 0.0952,-0.49059 -0.15676,-0.82776 -0.61968,-0.82776 z m -44.03527,4.47381 c -0.27344,0 -0.49705,0.45966 -0.49705,1.02265 0,0.56304 0.22361,0.88724 0.49705,0.71827 0.27344,-0.16902 0.49714,-0.63083 0.49714,-1.02484 0,-0.39402 -0.2237,-0.71608 -0.49714,-0.71608 z m 81.4791,39.40813 c 0.86882,0.0654 0.94162,1.35988 0.0766,1.35988 -0.20234,0 -0.63018,0.50157 -0.95259,1.1168 -0.58186,1.11057 -0.58574,1.11134 -0.33282,-0.12262 0.14012,-0.68361 0.25945,-1.51029 0.26276,-1.83507 0,-0.32482 0.42925,-0.5579 0.94606,-0.51899 z m 8.69367,4.03803 c -0.0605,-0.002 -0.12537,0.0183 -0.19496,0.0614 -0.27779,0.17175 -0.37631,0.51846 -0.21898,0.773 0.42623,0.68957 0.72265,0.56234 0.72265,-0.31095 0,-0.31972 -0.12755,-0.51777 -0.30871,-0.52338 z m -1.89865,0.80147 c -0.12056,0 -0.35655,0.22367 -0.52551,0.49711 -0.16906,0.27343 -0.0709,0.49708 0.21898,0.49708 0.2896,0 0.5255,-0.22366 0.5255,-0.49708 0,-0.27344 -0.0984,-0.49711 -0.21897,-0.49711 z"
       id="rect1133-3"
       inkscape:connector-curvature="0"
       sodipodi:nodetypes="ccccccccsscsccccccccccccccccsccccccccccccscssssscccccccssccccccccsccscscccsccccccccccccccccscscccccccccccccccccssccsccscccccccccccccccsscsccccccccsccccsccccscccccccccccssssssssssssscssccssscssscssssccccsscscsssssss" />
  </g>
</svg>
