<?xml version="1.0" encoding="UTF-8" standalone="no"?>
<svg
   xmlns:dc="http://purl.org/dc/elements/1.1/"
   xmlns:cc="http://creativecommons.org/ns#"
   xmlns:rdf="http://www.w3.org/1999/02/22-rdf-syntax-ns#"
   xmlns:svg="http://www.w3.org/2000/svg"
   xmlns="http://www.w3.org/2000/svg"
   viewBox="0 0 54.270493 54.978279"
   height="54.978279"
   width="54.270493"
   id="svg2"
   version="1.1">
  <metadata
     id="metadata8">
    <rdf:RDF>
      <cc:Work
         rdf:about="">
        <dc:format>image/svg+xml</dc:format>
        <dc:type
           rdf:resource="http://purl.org/dc/dcmitype/StillImage" />
        <dc:title></dc:title>
      </cc:Work>
    </rdf:RDF>
  </metadata>
  <defs
     id="defs6">
    <clipPath
       id="clipPath984"
       clipPathUnits="userSpaceOnUse">
      <path
         id="path982"
         d="M 0,198 H 198 V 0 H 0 Z" />
    </clipPath>
  </defs>
  <path
     id="rect1463"
     d="M -2.7265625 -2.6894531 L -2.7265625 58.117188 L 56.511719 58.117188 L 56.511719 -2.6894531 L -2.7265625 -2.6894531 z M 27.025391 0 C 41.263293 0 52.806641 11.542737 52.806641 25.78125 C 52.806641 27.121703 52.695304 28.435458 52.498047 29.720703 C 53.56802 30.4084 54.269531 30.693359 54.269531 30.693359 C 54.269531 30.693359 53.434258 31.328664 51.990234 32.189453 C 50.199448 39.182195 45.560868 45.034919 39.371094 48.417969 C 41.932175 45.05695 44.53222 38.577532 45.826172 35.109375 C 41.341399 36.747043 35.519216 37.838481 29.423828 36.117188 C 19.437596 33.296791 12.912109 28.296875 12.912109 28.296875 C 12.912109 28.296875 11.549177 31.865727 7.8808594 34.181641 C 8.9421966 37.123733 11.801882 44.643729 14.677734 48.417969 C 9.624487 45.655785 5.6027748 41.249365 3.3203125 35.919922 C 2.3093222 36.090165 1.2064479 36.15932 0 36.089844 C 1.0991611 35.58602 1.8739963 34.711459 2.4707031 33.609375 C 1.6834042 31.13863 1.2441406 28.512987 1.2441406 25.78125 C 1.2441406 11.542737 12.786572 -4.7369516e-15 27.025391 0 z "
     style="opacity:1;fill:#ffffff;fill-opacity:1;stroke:none;stroke-width:3.9987402;stroke-miterlimit:4;stroke-dasharray:none;stroke-opacity:1" />
  <path
     id="path1008"
     d="M 16.439453 37.927734 C 16.278489 38.025774 16.640625 38.515625 16.640625 38.515625 C 16.640625 38.515625 15.443852 38.03483 15.367188 38.203125 C 15.290216 38.371726 15.712891 38.960937 15.712891 38.960938 C 15.712891 38.960938 14.224034 38.054424 14.111328 38.292969 C 13.998317 38.532126 14.769531 39.335938 14.769531 39.335938 C 14.769531 39.335938 12.33652 38.188403 12.226562 38.632812 C 12.116608 39.077222 13.919922 40.402344 13.919922 40.402344 C 13.919922 40.402344 10.81464 39.176548 10.738281 39.638672 C 10.661311 40.101102 14.054686 42.015625 14.054688 42.015625 L 14.021484 41.810547 C 14.021484 41.810547 14.603082 40.933936 15.751953 40.207031 C 15.730266 40.338837 15.712891 40.471573 15.712891 40.609375 C 15.712891 42.009799 16.847317 43.146484 18.248047 43.146484 C 19.648472 43.146484 20.785156 42.009799 20.785156 40.609375 C 20.785156 40.42205 20.759198 40.240679 20.720703 40.064453 C 21.738982 40.737577 22.386719 41.613281 22.386719 41.613281 C 22.386719 41.613281 20.785058 38.816686 18.966797 38.345703 C 18.38372 38.194818 17.660156 38.265625 17.660156 38.265625 C 17.660156 38.265625 16.600418 37.829383 16.439453 37.927734 z M 37.609375 37.927734 C 37.449021 37.829383 36.388672 38.265625 36.388672 38.265625 C 36.388672 38.265625 35.664803 38.194818 35.082031 38.345703 C 33.263464 38.816686 31.664062 41.613281 31.664062 41.613281 C 31.664062 41.613281 32.310223 40.737515 33.328125 40.064453 C 33.28909 40.240679 33.263672 40.42205 33.263672 40.609375 C 33.263672 42.009799 34.400967 43.146484 35.800781 43.146484 C 37.201511 43.146484 38.335938 42.009799 38.335938 40.609375 C 38.335938 40.47091 38.318699 40.337488 38.296875 40.205078 C 39.447066 40.932256 40.027344 41.810547 40.027344 41.810547 L 39.994141 42.015625 C 39.994141 42.015625 43.38886 40.101102 43.3125 39.638672 C 43.23553 39.176548 40.128906 40.402344 40.128906 40.402344 C 40.128906 40.402344 41.932528 39.077222 41.822266 38.632812 C 41.71292 38.188403 39.279297 39.335938 39.279297 39.335938 C 39.279297 39.335938 40.050206 38.532126 39.9375 38.292969 C 39.824183 38.054424 38.335938 38.960938 38.335938 38.960938 C 38.335938 38.960937 38.758301 38.371726 38.681641 38.203125 C 38.604365 38.03483 37.408203 38.515625 37.408203 38.515625 C 37.408203 38.515625 37.77095 38.025774 37.609375 37.927734 z M 16.806641 39.964844 C 17.169805 39.964844 17.464844 40.259578 17.464844 40.623047 C 17.464844 40.986821 17.169805 41.283203 16.806641 41.283203 C 16.442867 41.283203 16.146484 40.986821 16.146484 40.623047 C 16.146484 40.259578 16.442867 39.964844 16.806641 39.964844 z M 34.371094 39.964844 C 34.734258 39.964844 35.029297 40.259578 35.029297 40.623047 C 35.029297 40.986821 34.734258 41.283203 34.371094 41.283203 C 34.00732 41.283203 33.712891 40.986821 33.712891 40.623047 C 33.712891 40.259578 34.00732 39.964844 34.371094 39.964844 z M 10.638672 41.066406 C 10.71778 41.395971 10.632496 42.524221 12.078125 44.041016 C 12.817675 44.816871 13.63167 45.225645 14.101562 45.419922 C 14.310837 47.347738 16.908239 49.570312 19.927734 49.570312 C 23.0215 49.570312 25.67772 47.237715 25.771484 45.279297 C 25.856448 45.262637 25.934156 45.242031 26.023438 45.228516 C 26.303522 45.060832 26.632448 44.964844 26.988281 44.964844 C 27.343808 44.964844 27.674077 45.060828 27.955078 45.228516 C 28.065595 45.245297 28.163712 45.271328 28.267578 45.292969 C 28.372818 47.248606 31.025237 49.570314 34.111328 49.570312 C 37.131409 49.570312 39.728226 47.347738 39.9375 45.419922 C 40.407483 45.225645 41.219435 44.816871 41.958984 44.041016 C 43.404919 42.524221 43.321283 41.395971 43.400391 41.066406 L 43.083984 41.681641 C 43.081284 41.696301 42.701603 42.8618 41.693359 43.740234 C 40.886303 44.444017 40.203338 44.790569 39.835938 44.960938 C 39.34657 44.478336 37.417898 44.244141 34.080078 44.244141 C 33.507058 44.244141 28.48922 44.266147 28.21875 44.984375 C 27.892809 44.700345 27.46426 44.521484 26.988281 44.521484 C 26.529834 44.521484 26.118229 44.689625 25.796875 44.955078 C 25.400775 44.265954 20.523395 44.242186 19.958984 44.242188 C 16.62036 44.242188 14.692181 44.478336 14.203125 44.960938 C 13.835836 44.790568 13.15299 44.444017 12.345703 43.740234 C 11.337763 42.8618 10.955825 41.696301 10.953125 41.681641 L 10.638672 41.066406 z M 20.416016 44.814453 C 23.147836 44.814453 24.981701 45.051049 25.396484 45.238281 L 25.396484 45.318359 C 25.396484 46.765821 23.246331 49 20.388672 49 C 17.530706 49 15.37897 46.764815 15.375 45.351562 C 15.47335 45.135619 16.896781 44.814453 20.416016 44.814453 z M 33.623047 44.814453 C 37.141976 44.814453 38.563758 45.135619 38.662109 45.351562 C 38.658109 46.764815 36.508356 49 33.650391 49 C 30.79212 49 28.640625 46.765821 28.640625 45.318359 L 28.640625 45.238281 C 29.056629 45.051049 30.891838 44.814453 33.623047 44.814453 z "
     style="fill:#231f20;fill-opacity:1;fill-rule:nonzero;stroke:none;stroke-width:0.30543607" />
</svg>
