<?xml version="1.0" encoding="UTF-8" standalone="no"?>
<!-- Created with Inkscape (http://www.inkscape.org/) -->

<svg
   xmlns:dc="http://purl.org/dc/elements/1.1/"
   xmlns:cc="http://creativecommons.org/ns#"
   xmlns:rdf="http://www.w3.org/1999/02/22-rdf-syntax-ns#"
   xmlns:svg="http://www.w3.org/2000/svg"
   xmlns="http://www.w3.org/2000/svg"
   xmlns:sodipodi="http://sodipodi.sourceforge.net/DTD/sodipodi-0.dtd"
   xmlns:inkscape="http://www.inkscape.org/namespaces/inkscape"
   version="1.1"
   id="svg2"
   width="315"
   height="160"
   viewBox="0 0 315.00001 159.99999"
   sodipodi:docname="hradec.svg"
   inkscape:version="0.92.3 (2405546, 2018-03-11)">
  <metadata
     id="metadata8">
    <rdf:RDF>
      <cc:Work
         rdf:about="">
        <dc:format>image/svg+xml</dc:format>
        <dc:type
           rdf:resource="http://purl.org/dc/dcmitype/StillImage" />
        <dc:title />
      </cc:Work>
    </rdf:RDF>
  </metadata>
  <defs
     id="defs6" />
  <sodipodi:namedview
     pagecolor="#e51f40"
     bordercolor="#666666"
     borderopacity="1"
     objecttolerance="10"
     gridtolerance="10"
     guidetolerance="10"
     inkscape:pageopacity="0"
     inkscape:pageshadow="2"
     inkscape:window-width="1366"
     inkscape:window-height="704"
     id="namedview4"
     showgrid="false"
     inkscape:zoom="2.8284272"
     inkscape:cx="166.64098"
     inkscape:cy="20.61293"
     inkscape:window-x="0"
     inkscape:window-y="27"
     inkscape:window-maximized="1"
     inkscape:current-layer="layer2"
     showguides="true"
     inkscape:guide-bbox="true"
     fit-margin-top="0"
     fit-margin-left="0"
     fit-margin-right="0"
     fit-margin-bottom="0"
     inkscape:pagecheckerboard="true"
     inkscape:measure-start="315.026,-0.0110485"
     inkscape:measure-end="315.026,0.773398">
    <sodipodi:guide
       position="-273.64973,-261.16529"
       orientation="1,0"
       id="guide5284"
       inkscape:locked="false" />
    <sodipodi:guide
       position="0.0006227469,-167.12013"
       orientation="1,0"
       id="guide5286"
       inkscape:locked="false" />
    <sodipodi:guide
       position="315.02588,0.59999999"
       orientation="1,0"
       id="guide5288"
       inkscape:locked="false" />
    <sodipodi:guide
       position="-568.9448,160.85078"
       orientation="0,1"
       inkscape:locked="false"
       id="guide1611" />
    <sodipodi:guide
       position="-629.84179,0.60000455"
       orientation="0,1"
       id="guide118"
       inkscape:locked="false" />
    <sodipodi:guide
       position="741.33448,-1.7631279"
       orientation="1,0"
       id="guide140"
       inkscape:locked="false" />
    <sodipodi:guide
       position="-628.1973,0.60077266"
       orientation="1,0"
       id="guide1129"
       inkscape:locked="false" />
  </sodipodi:namedview>
  <g
     inkscape:groupmode="layer"
     id="layer2"
     inkscape:label="Layer 2"
     transform="translate(-883.17579,-126.05508)">
    <path
       style="fill:#ffffff;fill-opacity:1;stroke-width:0.79490972"
       d="m 867.24182,104.5193 h 389.60258 v 91.34019 l -2.0649,110.225 -66.8945,-9.39419 -2.2976,-11.23522 -0.057,-9.47373 0.4256,-3e-4 0.045,-1.30141 -0.543,-0.0551 -0.1824,-3.31206 0.7238,-0.0263 0.058,-1.65947 -0.8855,-0.20723 0.2742,-0.51909 0.4429,-0.79555 -7.9931,-8.56753 -0.2592,-1.97867 -1.5955,0.13467 -0.2172,1.23537 -3.7968,-1.28773 c -3.3503,0.0461 -6.0794,-0.0154 -9.4297,0.0328 l -30.5108,0.14369 -0.328,-23.64256 1.4497,-1.5154 -1.2699,-1.9365 -3.7569,-1.49142 -1.0066,-8.92018 -1.8102,-0.54784 -0.8296,-1.16422 -0.6759,-7.58868 -0.614,7.61953 -0.4968,1.12221 -1.8337,0.33153 -0.2307,9.34374 -2.8536,1.29777 -1.4618,2.47634 1.823,1.635 0.076,23.08646 -7.4538,-4.29684 -26.4185,-0.0285 -0.119,-17.41189 2.0558,-1.52959 -0.7882,-2.22057 -3.3729,-1.12572 -0.5281,-10.9765 -1.8638,-0.42294 -1.0621,-1.23127 -0.7464,-5.40016 -1.0439,5.43349 -0.8958,1.2539 -1.6269,0.36212 -0.5699,11.44825 -3.344,0.46644 -0.556,2.07618 1.2862,1.73836 -0.012,19.81162 -5.1052,-5.17849 -5.9711,-0.20405 -2.446,-1.30288 -1.579,-0.60207 -0.4222,-1.93944 -0.5533,1.96235 -1.4367,0.58952 -1.8465,1.00743 -6.6945,1.87832 -2.9482,-0.61305 -1.0236,-4.18634 -2.4222,-0.72687 -1.2783,-3.79447 -1.5924,-1.48692 -0.1836,-3.45283 -1.8908,-1.23431 -2.2222,1.04046 -0.012,3.51039 -1.8326,1.77721 -1.145,3.26516 -2.212,1.04615 -0.4499,4.50714 -3.4153,-2.78272 -5.3193,4.39269 0.084,-13.20618 1.2432,0.0628 -0.2473,-4.20999 -1.7714,-0.0332 -0.1309,-8.24765 1.6968,0.0325 0.1514,-2.09875 -2.2802,-0.0112 -0.011,-4.81516 -1.4339,-1.01573 -0.7952,-3.29955 -3.3728,-1.23903 -0.8099,-5.83934 1.128,-4.78818 -3.5146,-2.41031 -0.7898,-9.49772 -0.4081,9.48012 -3.7597,2.5426 1.1549,4.72486 -1.4601,6.23759 -3.09876,0.89151 -0.008,3.85697 -1.84329,0.003 0.0757,5.12643 -1.80957,0.0837 0.0824,1.93545 1.55917,0.0221 0.0102,8.14119 -1.10406,-0.017 0.0108,4.05509 0.79074,-0.0102 v 0 l -0.0697,17.5777 -22.63151,0.058 -0.93586,-28.4714 0.70879,-0.0491 -0.0647,-1.87894 -0.90118,0.0464 -0.23415,-7.13577 1.43856,-0.54902 0.12125,-3.7491 -1.67919,-0.72564 -0.66005,-15.89817 -2.78942,14.97989 -2.15396,-17.68089 -0.88046,-10.47248 -1.41701,10.67688 -4.22656,-0.0155 -1.20854,-10.33324 -0.88099,10.30689 -1.8451,17.39771 -2.07096,-15.11484 -1.04071,15.86965 -1.11332,0.73556 0.26158,4.35114 1.28003,0.46396 0.0208,6.80105 -0.70781,-0.0442 0.11257,1.61755 0.64323,0.0467 -0.0102,10.80503 -9.68635,-14.58371 -0.0241,-1.70398 -1.75965,-1.42727 -0.77546,-11.70242 -0.89281,11.59858 -1.39438,1.55959 0.0181,1.42377 -9.68027,14.71624 -0.3929,-10.96745 0.65363,-0.0123 0.11276,-1.65148 -0.728,-0.0509 0.0293,-6.22722 1.54946,-0.36183 -0.0274,-4.76154 -0.91117,-1.3124 -1.93416,-15.51135 -1.91436,15.70485 -3.16843,-18.69786 -0.97736,-8.16696 -1.12713,8.03609 -4.42256,-0.0295 -1.01475,-8.06496 -0.84185,7.95295 -3.62086,18.32125 -1.26373,-14.95252 -1.57701,15.21277 -1.27376,0.33747 -0.11175,5.60076 1.52464,-0.0734 -0.0519,6.73959 -0.67734,-0.0641 0.0447,1.80151 0.69986,0.0639 -0.38659,39.615 -0.10891,1.54361 -1.49714,0.14694 -0.45672,0.7104 -0.96169,23.70563 -40.01057,15.08314 z"
       id="rect383"
       inkscape:connector-curvature="0"
       sodipodi:nodetypes="ccccccccccccccccccccccccccccccccccccccccccccccccccccccccccccccccccccccccccccccccccccccccccccccccccccccccccccccccccccccccccccccccccccccccccccccccccccccccccccccccccccccccccccccccccccccc" />
    <g
       style="fill:#e51f40;fill-opacity:1;stroke:none"
       transform="matrix(0.02354966,0,0,-0.02354966,992.91914,291.60185)"
       id="g8" />
    <path
       style="fill:none;stroke:#000000;stroke-width:1px;stroke-linecap:butt;stroke-linejoin:miter;stroke-opacity:1"
       d="m 1985.1182,745.60071 36.2239,-2.11852"
       id="path346"
       inkscape:connector-curvature="0" />
    <rect
       style="fill:#000000;fill-opacity:1"
       id="rect348"
       width="0.70710677"
       height="0.17677669"
       x="1986.9695"
       y="744.96735" />
    <rect
       style="fill:#000000;fill-opacity:1"
       id="rect360"
       width="12.8516"
       height="0.94139999"
       x="2134.3384"
       y="704.3205" />
  </g>
</svg>
