<?xml version="1.0" encoding="UTF-8" standalone="no"?>
<!-- Created with Inkscape (http://www.inkscape.org/) -->

<svg
   xmlns:dc="http://purl.org/dc/elements/1.1/"
   xmlns:cc="http://creativecommons.org/ns#"
   xmlns:rdf="http://www.w3.org/1999/02/22-rdf-syntax-ns#"
   xmlns:svg="http://www.w3.org/2000/svg"
   xmlns="http://www.w3.org/2000/svg"
   xmlns:sodipodi="http://sodipodi.sourceforge.net/DTD/sodipodi-0.dtd"
   xmlns:inkscape="http://www.inkscape.org/namespaces/inkscape"
   version="1.1"
   id="svg2"
   width="285.31757"
   height="160.25078"
   viewBox="0 0 285.31758 160.25077"
   sodipodi:docname="hradec.svg"
   inkscape:version="0.92.2 2405546, 2018-03-11">
  <metadata
     id="metadata8">
    <rdf:RDF>
      <cc:Work
         rdf:about="">
        <dc:format>image/svg+xml</dc:format>
        <dc:type
           rdf:resource="http://purl.org/dc/dcmitype/StillImage" />
        <dc:title></dc:title>
      </cc:Work>
    </rdf:RDF>
  </metadata>
  <defs
     id="defs6" />
  <sodipodi:namedview
     pagecolor="#e51f40"
     bordercolor="#666666"
     borderopacity="1"
     objecttolerance="10"
     gridtolerance="10"
     guidetolerance="10"
     inkscape:pageopacity="0"
     inkscape:pageshadow="2"
     inkscape:window-width="1920"
     inkscape:window-height="1016"
     id="namedview4"
     showgrid="false"
     inkscape:zoom="5.6568544"
     inkscape:cx="50.163342"
     inkscape:cy="50.797724"
     inkscape:window-x="0"
     inkscape:window-y="27"
     inkscape:window-maximized="1"
     inkscape:current-layer="layer2"
     showguides="true"
     inkscape:guide-bbox="true"
     fit-margin-top="0"
     fit-margin-left="0"
     fit-margin-right="0"
     fit-margin-bottom="0"
     inkscape:pagecheckerboard="true"
     inkscape:measure-start="315.026,-0.0110485"
     inkscape:measure-end="315.026,0.773398">
    <sodipodi:guide
       position="-290.26673,-261.76529"
       orientation="1,0"
       id="guide5284"
       inkscape:locked="false" />
    <sodipodi:guide
       position="1.7966457e-05,187.13684"
       orientation="1,0"
       id="guide5286"
       inkscape:locked="false" />
    <sodipodi:guide
       position="285.31759,190.91882"
       orientation="1,0"
       id="guide5288"
       inkscape:locked="false" />
    <sodipodi:guide
       position="-585.5618,160.25078"
       orientation="0,1"
       inkscape:locked="false"
       id="guide1611" />
    <sodipodi:guide
       position="-646.45879,2.610984e-06"
       orientation="0,1"
       id="guide118"
       inkscape:locked="false" />
    <sodipodi:guide
       position="724.7175,-2.3631299"
       orientation="1,0"
       id="guide140"
       inkscape:locked="false" />
    <sodipodi:guide
       position="-644.8143,0.00077072099"
       orientation="1,0"
       id="guide1129"
       inkscape:locked="false" />
  </sodipodi:namedview>
  <g
     inkscape:groupmode="layer"
     id="layer2"
     inkscape:label="Layer 2"
     transform="translate(-899.79279,-125.2043)">
    <path
       style="fill:#ffffff;fill-opacity:1;stroke-width:0.76261955"
       d="m 867.22016,123.5177 386.44224,-4.26497 v 84.75775 l -2.0481,102.28162 -63.3899,-24.59219 -9.404,1.38674 -2.557,-3.41601 0.4221,-2.7e-4 0.045,-1.20763 -0.5386,-0.0511 -0.1809,-3.07337 0.7179,-0.0244 0.057,-1.53988 -0.8783,-0.19229 0.272,-0.48168 0.4393,-0.73822 -7.9283,-7.95011 -0.2571,-1.83608 -1.5825,0.12496 -0.2155,1.14635 -3.766,-1.19493 c -3.3231,0.0428 -6.0301,-0.0143 -9.3532,0.0304 l -23.6003,0.13334 -0.3253,-21.93876 1.4379,-1.40619 -1.2596,-1.79695 -3.7264,-1.38394 -0.9984,-8.27734 -1.7956,-0.50836 -0.8228,-1.08032 -0.6705,-7.0418 -0.609,7.07042 -0.4927,1.04134 -1.8189,0.30764 -0.2288,8.67038 -2.8304,1.20425 -1.45,2.29788 1.8082,1.51717 0.075,21.42274 -7.3933,-3.98719 -26.2042,-0.0265 -0.1181,-16.1571 2.0392,-1.41936 -0.7818,-2.06054 -3.3456,-1.0446 -0.5238,-10.18547 -1.8487,-0.39246 -1.0535,-1.14254 -0.7403,-5.011 -1.0354,5.04192 -0.8886,1.16354 -1.6137,0.33603 -0.5653,10.62323 -3.3168,0.43282 -0.5515,1.92656 1.2757,1.61309 -0.012,18.38389 -5.0638,-4.8053 -5.9226,-0.18935 -2.4262,-1.20898 -1.5662,-0.55869 -0.4187,-1.79967 -0.5489,1.82093 -1.425,0.54704 -1.8315,0.93483 -6.6402,1.74296 -2.9243,-0.56887 -1.0153,-3.88465 -2.4026,-0.67449 -1.2679,-3.52102 -1.5795,-1.37977 -0.1821,-3.204 -1.8754,-1.14536 -2.2042,0.96548 -0.012,3.25741 -1.8178,1.64914 -1.1357,3.02985 -3.0779,0.97076 -0.4463,4.18234 -3.3876,-2.58219 -14.1149,4.07613 0.083,-5.994 1.2331,0.0583 -0.2453,-3.9066 -1.757,-0.0308 -0.1298,-6.59262 1.683,0.0302 0.1502,-1.94751 -2.2617,-0.0104 -0.011,-4.46815 -1.4222,-0.94254 -0.7888,-3.06176 -2.4615,-1.14974 -0.80333,-5.41853 1.11883,-4.44312 -2.9558,-2.23661 -0.7834,-8.81327 -0.58158,8.79694 -3.19887,2.35937 1.1456,4.38436 -1.4483,5.78808 -2.01296,0.82726 -0.008,3.57902 -1.82834,0.003 0.0751,4.75699 -1.79489,0.0777 0.0817,1.79597 1.54653,0.0205 0.0101,6.49383 -1.0951,-0.0158 0.0107,3.76286 0.78433,-0.009 v 0 l -0.0691,10.05049 -15.73042,0.0538 -0.92827,-23.46693 0.70304,-0.0456 -0.0642,-1.74354 -0.89387,0.0431 -0.23225,-6.62153 1.42689,-0.50946 0.12027,-3.47892 -1.66557,-0.67334 -0.6547,-14.75247 -2.76679,13.90036 -2.13649,-16.40671 -0.87332,-9.71778 -1.40551,9.90745 -2.95484,-0.0144 -1.19874,-9.58857 -0.87384,9.56412 -1.83013,16.14395 -2.05416,-14.02559 -1.03227,14.726 -1.10429,0.68255 0.25946,4.03758 1.26964,0.43052 0.0206,6.31093 -0.70207,-0.041 0.11165,1.50098 0.63802,0.0433 -0.0101,10.02637 -9.60778,-13.53274 -0.0239,-1.58118 -1.74538,-1.32441 -0.76917,-10.85908 -0.88557,10.76272 -1.38307,1.4472 0.018,1.32117 -9.60175,13.65571 -0.38971,-10.17708 0.64832,-0.0114 0.11185,-1.53247 -0.72209,-0.0472 0.0291,-5.77846 1.53689,-0.33575 -0.0272,-4.4184 -0.90378,-1.21782 -1.91847,-14.39353 -1.89883,14.57308 -3.14273,-17.35039 -0.96943,-7.57841 -1.11799,7.45697 -2.79569,-0.0274 -1.00652,-7.48375 -0.83502,7.37982 -3.59149,17.00092 -1.25348,-13.87496 -1.56422,14.11646 -1.26343,0.31315 -0.11084,5.19714 1.51227,-0.0681 -0.0515,6.2539 -0.67184,-0.0595 0.0443,1.67168 0.69418,0.0593 -0.38346,33.80747 -0.10802,1.43237 -1.485,0.13635 -0.45301,0.6592 -12.72337,11.17083 -30.56819,23.51033 z"
       id="rect383"
       inkscape:connector-curvature="0"
       sodipodi:nodetypes="ccccccccccccccccccccccccccccccccccccccccccccccccccccccccccccccccccccccccccccccccccccccccccccccccccccccccccccccccccccccccccccccccccccccccccccccccccccccccccccccccccccccccccccccccccccccc" />
    <g
       style="fill:#e51f40;fill-opacity:1;stroke:none"
       transform="matrix(0.02354966,0,0,-0.02354966,992.91914,291.60185)"
       id="g8" />
    <path
       style="fill:none;stroke:#000000;stroke-width:1px;stroke-linecap:butt;stroke-linejoin:miter;stroke-opacity:1"
       d="m 1985.1182,745.60071 36.2239,-2.11852"
       id="path346"
       inkscape:connector-curvature="0" />
    <rect
       style="fill:#000000;fill-opacity:1"
       id="rect348"
       width="0.70710677"
       height="0.17677669"
       x="1986.9695"
       y="744.96735" />
    <rect
       style="fill:#000000;fill-opacity:1"
       id="rect360"
       width="12.8516"
       height="0.94139999"
       x="2134.3384"
       y="704.3205" />
  </g>
</svg>
