<?xml version="1.0" encoding="UTF-8" standalone="no"?>
<!-- Created with Inkscape (http://www.inkscape.org/) -->

<svg
   xmlns:dc="http://purl.org/dc/elements/1.1/"
   xmlns:cc="http://creativecommons.org/ns#"
   xmlns:rdf="http://www.w3.org/1999/02/22-rdf-syntax-ns#"
   xmlns:svg="http://www.w3.org/2000/svg"
   xmlns="http://www.w3.org/2000/svg"
   xmlns:sodipodi="http://sodipodi.sourceforge.net/DTD/sodipodi-0.dtd"
   xmlns:inkscape="http://www.inkscape.org/namespaces/inkscape"
   version="1.1"
   id="svg2"
   width="222.49933"
   height="160.25078"
   viewBox="0 0 222.49934 160.25078"
   sodipodi:docname="olomouc.svg"
   inkscape:version="0.92.2 2405546, 2018-03-11">
  <metadata
     id="metadata8">
    <rdf:RDF>
      <cc:Work
         rdf:about="">
        <dc:format>image/svg+xml</dc:format>
        <dc:type
           rdf:resource="http://purl.org/dc/dcmitype/StillImage" />
        <dc:title></dc:title>
      </cc:Work>
    </rdf:RDF>
  </metadata>
  <defs
     id="defs6" />
  <sodipodi:namedview
     pagecolor="#e51f40"
     bordercolor="#666666"
     borderopacity="1"
     objecttolerance="10"
     gridtolerance="10"
     guidetolerance="10"
     inkscape:pageopacity="0"
     inkscape:pageshadow="2"
     inkscape:window-width="1920"
     inkscape:window-height="1016"
     id="namedview4"
     showgrid="false"
     inkscape:zoom="5.6568542"
     inkscape:cx="106.01448"
     inkscape:cy="65.828329"
     inkscape:window-x="0"
     inkscape:window-y="27"
     inkscape:window-maximized="1"
     inkscape:current-layer="layer2"
     showguides="true"
     inkscape:guide-bbox="true"
     fit-margin-top="0"
     fit-margin-left="0"
     fit-margin-right="0"
     fit-margin-bottom="0"
     inkscape:pagecheckerboard="true">
    <sodipodi:guide
       position="5.0953912e-07,-261.76528"
       orientation="1,0"
       id="guide5284"
       inkscape:locked="false" />
    <sodipodi:guide
       position="222.49934,104.00003"
       orientation="1,0"
       id="guide5286"
       inkscape:locked="false" />
    <sodipodi:guide
       position="632.15348,-133.779"
       orientation="1,0"
       id="guide5288"
       inkscape:locked="false" />
    <sodipodi:guide
       position="-295.29508,160.25079"
       orientation="0,1"
       inkscape:locked="false"
       id="guide1611" />
    <sodipodi:guide
       position="-356.19207,1.4604027e-05"
       orientation="0,1"
       id="guide118"
       inkscape:locked="false" />
    <sodipodi:guide
       position="1017.3028,-0.041525397"
       orientation="1,0"
       id="guide140"
       inkscape:locked="false" />
    <sodipodi:guide
       position="-354.54758,0.00078271404"
       orientation="1,0"
       id="guide1129"
       inkscape:locked="false" />
  </sodipodi:namedview>
  <g
     inkscape:groupmode="layer"
     id="layer2"
     inkscape:label="Layer 2"
     transform="translate(-609.52606,-125.20432)">
    <path
       style="opacity:1;fill:#ffffff;fill-opacity:1;stroke-width:1.00482249"
       d="m 511.18465,33.315164 c -0.13406,0 -0.24268,0.116157 -0.24268,0.262058 V 321.58504 c 0,0.1459 0.10862,0.2641 0.24268,0.2641 h 402.60142 c 0.13412,0 0.24263,-0.1182 0.24263,-0.2641 V 33.577222 c 0,-0.145901 -0.10851,-0.262058 -0.24263,-0.262058 z M 653.0243,163.67403 c 0,0 0.0581,1.93161 0.14673,4.79279 0,0.0677 0.11185,0.0538 0.22012,0.1597 0.0739,0.072 0.16309,0.25685 0.15422,0.3378 -0.0105,0.0684 -0.0676,0.22495 -0.17303,0.29277 -0.11386,0.073 -0.2741,0.0567 -0.27283,0.10036 0.21179,6.99744 1.0866,12.78381 1.11353,16.3212 l 0.43276,0.82098 -0.0654,1.17106 0.23322,2.62878 1.00653,1.10146 -0.126,1.39013 -0.57568,0.0799 -0.0148,1.69519 0.7788,0.11461 0.15431,1.51298 -0.7714,-0.23955 0.0465,3.68723 0.72059,0.56712 -0.0676,1.18541 -0.53807,0.10851 -0.0845,3.2225 1.30375,1.11579 0.42706,1.46383 -0.39325,1.06463 -0.18623,0.92948 0.67348,0.30915 0.16183,0.66128 0.0793,0.692 -0.41765,0.18426 -0.0264,1.038 0.31793,0.34803 0.0359,0.68791 -0.41575,0.49545 -0.46286,2.79051 0.71679,0.0962 0.0581,1.88559 -0.50226,0.21087 -0.26344,1.52116 0.7431,0.49545 -0.0887,2.51003 0.37253,0.3808 0.60948,1.9982 1.47688,4.84398 h 0.0105 v -4.21341 l 1.52568,-21.77742 1.86623,21.77742 v 4.24411 l 0.62827,0.64082 -0.83149,2.35852 h 0.41395 v 2.44451 l 0.53047,0.346 0.40254,1.47816 -0.0264,5.24637 c 0.0212,-0.0162 0.0434,-0.033 0.0697,-0.0266 l 0.66978,0.16378 c 0.0686,0.0166 2.73534,0.31734 2.73534,0.31734 0,0 2.01917,4.18415 2.47199,5.93315 l 9.58138,5.37378 1.24534,-2.86011 c 0.0295,-0.0693 0.0571,-0.13923 0.12793,-0.13921 l 16.91645,-2.59423 0.53796,-12.50063 -0.26332,-0.10644 0.0222,-1.52731 1.28866,-0.58553 0.45334,-14.49919 -0.20692,-0.17197 0.0116,-0.99706 0.58888,-0.58348 0.28783,-5.0876 c 0.0781,1.25848 0.18685,3.83935 0.26523,5.09784 l 0.53997,0.57531 0.0866,0.90081 -0.18062,0.14946 0.22382,14.56468 1.14195,0.60397 0.1279,1.59283 -0.24261,0.21086 0.39124,12.36346 20.32147,2.59424 c 0.0707,-2e-5 0.0954,0.0685 0.12611,0.13921 v 1.19973 h 22.92891 c 0.0228,0 0.0436,0.0195 0.0436,0.0451 v -0.0451 l 9.3217,3.52345 9.71302,16.82698 3.37275,1.31556 -0.18906,13.3874 -173.33576,6.28206 6.77306,-20.98747 31.47582,-4.99632 2.37733,-8.48241 0.0105,-1.38196 1.87752,-0.19245 4.1707,-4.00458 -0.10563,-17.28466 0.25214,-0.84143 0.35934,-0.2416 0.36115,-0.0941 v -2.44451 h 0.65277 l -1.51628,-2.3667 c 0.0191,-0.28749 0.88421,-0.81689 0.88421,-0.81689 l 0.0602,-3.29825 -0.22953,-0.53026 0.36124,-0.46269 1.52569,-21.03833 1.86622,21.03833 0.31794,0.66948 -0.27093,0.62648 0.14302,2.9502 -3.77387,0.0451 4.73328,0.043 c 0.25626,-2.07553 0.83689,-4.39909 1.36206,-6.99572 0.0254,-0.12472 0.19964,-0.18504 0.22394,-0.3112 0.10943,-0.57083 -0.0222,-1.75194 0.0814,-2.2971 0.0814,-0.42895 0.70696,-0.34663 0.68478,-0.78004 -0.0316,-0.61418 -0.25055,-1.37871 -0.16752,-1.92039 0.0179,-0.11768 -0.33209,-0.17727 -0.34984,-0.29276 -0.0655,-0.4243 -0.0676,-0.57033 0.0127,-1.02162 0.0993,-0.55479 0.67422,-0.0786 0.73178,-0.59373 0.0824,-0.73237 -0.16097,-2.04503 -0.14302,-2.62262 0.0127,-0.42104 -0.53796,-0.43067 -0.55305,-0.75957 l 0.11661,-1.08507 0.75629,0.0307 -0.12042,-0.82099 -0.77129,-0.47702 0.0982,-1.05233 0.56437,-0.63262 -0.28033,-0.68791 -0.41385,-0.995 0.53806,-1.44949 1.47678,-0.75548 0.22203,-3.37195 -0.60957,-0.17401 -0.0454,-1.19974 0.73179,-0.44222 -0.0465,-3.88993 -0.80329,-0.16993 0.12042,-1.26525 0.61148,0.11059 -0.14112,-1.48842 -0.62088,-0.33575 -0.0866,-1.54983 0.79389,-0.51388 0.1014,-2.82735 -0.0116,-1.17109 0.29165,-0.7616 0.76769,-16.40924 -0.27654,-0.10035 -0.16741,-0.39104 0.18432,-0.28048 0.30663,-0.0676 z m -11.06764,90.70992 -0.0307,13.68639 h 0.0307 z m 146.20882,-41.48179 0.50222,0.91924 0.28975,-0.91924 0.29162,0.83326 0.66034,-0.68995 -0.16,0.94996 0.95197,-0.23135 -0.39697,0.60396 0.97835,0.20064 -0.55499,0.5753 0.79395,0.26001 -0.82034,0.34395 0.71311,0.37466 -0.78086,0.12489 0.55688,0.65924 -1.17575,-0.0941 -0.58138,0.54458 0.0794,1.15265 c 0,0 2.14083,-0.66114 2.14083,-0.0859 0,0.57515 0.5287,2.53049 0.5287,2.53049 0,0 -0.21218,-6.1e-4 -0.31791,0.8046 -0.10565,0.80522 0.10642,0.80475 -0.21079,1.37991 -0.31703,0.57513 -0.63396,1.38193 -0.63396,1.38193 0,0 1.05622,0.9198 0.84475,1.3799 -0.21139,0.46014 -1.13628,0.97658 -1.13628,0.97658 l 0.65835,8.48643 0.79772,0.46475 -0.73363,0.75135 0.20305,3.93498 0.70557,1.35327 0.65279,0.19654 -0.34986,0.38695 1.21147,2.31963 -0.82024,-0.0859 1.00463,8.19545 0.34421,0.0573 0.10564,-8.39609 c 0.0982,0.22126 0.57265,-1.33698 0.93878,-1.47407 0.44161,-0.16542 0.76043,1.06852 0.53991,1.24272 l 0.21258,17.6582 1.05721,-0.28663 0.21079,-3.79779 0.48536,-5.6793 0.66976,0.14741 0.6415,5.53189 0.42335,1.03594 0.21059,11.8479 0.88055,-0.11266 0.18242,-3.24298 0.31792,-2.00227 0.0814,-1.5785 0.53992,0.0286 c 0,0 0.21782,1.6164 0.32357,2.53666 0.10574,0.92023 -0.10564,3.68123 0.42337,4.25638 0.5284,0.57516 1.48047,3.3351 1.48047,3.3351 l 2.85393,0.46066 c 0,0 1.37363,-0.34383 2.43065,0.23133 1.05702,0.57516 1.90186,0.91926 1.90186,0.91926 l 2.32532,1.37989 2.63541,3.05132 18.55286,0.67123 39.11745,-9.33625 -9.8398,25.1859 c -22.27014,2.99453 -95.49319,-8.40485 -95.49319,-8.40485 l 0.18906,-13.3874 5.28263,-2.37616 3.16807,-0.99705 0.11854,-2.03914 0.38745,-1.61739 c 0,0 0.34033,-3.74284 0.44023,-4.86855 l 0.33666,-0.0307 0.55887,5.85331 0.80139,-0.0717 0.12785,-7.2066 0.21645,-2.23363 0.22001,-0.98886 0.20137,-5.3599 0.47782,0.12897 0.41384,5.33739 0.36682,0.66332 0.54001,2.41176 0.71301,-0.086 -0.39698,-11.32991 0.39698,-5.98229 0.34421,-0.37672 0.49478,0.36853 0.29728,5.61582 0.2107,3.24911 0.50231,0.0286 0.18431,-7.30487 0.25215,-0.73704 -0.44211,-0.3419 1.11366,-2.29709 0.13172,-0.69405 0.63594,-0.2723 0.0774,-4.48365 -0.75438,-0.51797 0.78067,-0.94792 0.21445,-8.20389 -0.73929,-0.68996 -0.10723,-0.80664 1.17208,-0.92948 -0.64348,-0.33576 0.10734,-0.68997 -0.95198,-0.80458 0.10565,-1.7259 -0.84475,-1.61125 0.84475,-0.45861 2.1539,-0.3767 0.0922,-1.23455 -0.84652,0.0472 -0.72621,0.0472 0.5418,-0.58349 -1.0835,0.23136 0.87291,-0.60397 -1.05741,-0.28868 0.87291,-0.34394 -0.76757,-0.54664 0.87291,-0.11461 -0.58127,-0.94995 0.94998,0.43198 -0.10554,-1.20792 0.39688,0.66128 z m -124.09454,36.44332 v 0.0348 h 0.0793 c -0.0307,-1.6e-4 -0.0571,-0.0153 -0.0793,-0.0348 z m 82.32062,10.36721 c 0,0.0255 -0.0198,0.0451 -0.0436,0.0451 h 0.0436 z"
       id="rect1036"
       inkscape:connector-curvature="0"
       sodipodi:nodetypes="ssssssssscccccccccccccccccccccccccccccccccccccccccccccccccccccccccccccccccccccccccccccccccccscsccccccccccccccccccccccccccccccccccccccccccccccccccccccccccccccccccccccccccccccccccccccccccccccsccccccccccccccccccccccccccccccccccccccccccccccccccccccccccccccccccccccccccccccccccccccccccccccccccccccccccccccccc" />
  </g>
</svg>
