<?xml version="1.0" encoding="UTF-8" standalone="no"?>
<!-- Created with Inkscape (http://www.inkscape.org/) -->

<svg
   xmlns:dc="http://purl.org/dc/elements/1.1/"
   xmlns:cc="http://creativecommons.org/ns#"
   xmlns:rdf="http://www.w3.org/1999/02/22-rdf-syntax-ns#"
   xmlns:svg="http://www.w3.org/2000/svg"
   xmlns="http://www.w3.org/2000/svg"
   xmlns:sodipodi="http://sodipodi.sourceforge.net/DTD/sodipodi-0.dtd"
   xmlns:inkscape="http://www.inkscape.org/namespaces/inkscape"
   version="1.1"
   id="svg2"
   width="385.1543"
   height="162.59367"
   viewBox="0 0 385.1543 162.59367"
   sodipodi:docname="ostatni.svg"
   inkscape:version="0.92.2 (5c3e80d, 2017-08-06)">
  <metadata
     id="metadata8">
    <rdf:RDF>
      <cc:Work
         rdf:about="">
        <dc:format>image/svg+xml</dc:format>
        <dc:type
           rdf:resource="http://purl.org/dc/dcmitype/StillImage" />
        <dc:title />
      </cc:Work>
    </rdf:RDF>
  </metadata>
  <defs
     id="defs6" />
  <sodipodi:namedview
     pagecolor="#ffffff"
     bordercolor="#666666"
     borderopacity="1"
     objecttolerance="10"
     gridtolerance="10"
     guidetolerance="10"
     inkscape:pageopacity="0"
     inkscape:pageshadow="2"
     inkscape:window-width="1366"
     inkscape:window-height="704"
     id="namedview4"
     showgrid="false"
     inkscape:zoom="2"
     inkscape:cx="112.19046"
     inkscape:cy="90.481091"
     inkscape:window-x="0"
     inkscape:window-y="27"
     inkscape:window-maximized="1"
     inkscape:current-layer="layer2"
     showguides="true"
     inkscape:guide-bbox="true"
     fit-margin-top="0"
     fit-margin-left="0"
     fit-margin-right="0"
     fit-margin-bottom="0">
    <sodipodi:guide
       position="-632.14835,-122.20289"
       orientation="1,0"
       id="guide5284"
       inkscape:locked="false" />
    <sodipodi:guide
       position="-358.498,-28.157711"
       orientation="1,0"
       id="guide5286"
       inkscape:locked="false" />
    <sodipodi:guide
       position="0.0051071745,5.7834085"
       orientation="1,0"
       id="guide5288"
       inkscape:locked="false" />
  </sodipodi:namedview>
  <g
     inkscape:groupmode="layer"
     id="layer2"
     inkscape:label="Layer 2"
     transform="translate(-1241.6744,-262.42383)">
    <path
       style="fill:#ffffff;fill-opacity:1"
       d="m 1241.6796,263.79715 h 385.1492 l -10e-5,22.47035 -383.793,2.1543 z"
       id="rect2271"
       inkscape:connector-curvature="0"
       sodipodi:nodetypes="ccccc" />
    <path
       style="fill:#e51f40;fill-opacity:1;stroke-width:1.24825156"
       d="m 1419.541,262.42383 -0.2422,0.21679 c -0.1362,0.11805 -0.2461,0.2433 -0.2461,0.26954 0,0.0328 -0.022,0.0586 -0.053,0.0586 -0.026,0 -0.1,0.0787 -0.1602,0.18359 -0.061,0.0984 -0.158,0.21706 -0.2148,0.26954 -0.057,0.0524 -0.1035,0.1176 -0.1035,0.15039 0,0.0262 -0.022,0.0527 -0.049,0.0527 -0.026,0 -0.083,0.0516 -0.125,0.11719 -0.038,0.059 -0.1171,0.15065 -0.1739,0.20312 -0.061,0.0524 -0.1054,0.11956 -0.1054,0.15235 0,0.0262 -0.023,0.0508 -0.053,0.0508 -0.026,0 -0.1,0.0787 -0.1601,0.18359 -0.061,0.0984 -0.1581,0.21706 -0.2149,0.26953 -0.057,0.0525 -0.1015,0.11758 -0.1015,0.15039 0,0.0262 -0.024,0.0527 -0.051,0.0527 -0.026,0 -0.083,0.0535 -0.125,0.11914 -0.038,0.059 -0.1171,0.15065 -0.1738,0.20312 -0.061,0.0525 -0.1055,0.11761 -0.1055,0.15039 0,0.0263 -0.023,0.0527 -0.053,0.0527 -0.026,0 -0.098,0.0787 -0.1621,0.18359 -0.1059,0.17052 -0.3179,0.40625 -0.3671,0.40625 -0.011,0 -0.024,-0.171 -0.024,-0.38086 0,-0.20982 -0.014,-0.40597 -0.037,-0.44531 -0.019,-0.0328 -0.039,-0.30897 -0.047,-0.61719 l -0.01,-0.55664 -0.1856,-0.0195 c -0.1022,-0.0131 -0.2057,0.0121 -0.2246,0.0449 -0.023,0.0393 -0.1812,0.0723 -0.3516,0.0723 -0.174,0 -0.3245,0.0336 -0.3359,0.0664 -0.011,0.0394 -0.182,0.0645 -0.375,0.0645 -0.1892,0 -0.364,0.0278 -0.3867,0.0605 -0.019,0.0394 -0.1105,0.0709 -0.2051,0.084 l -0.1699,0.0195 -0.012,0.45312 c -0.01,0.25575 0.01,0.48606 0.031,0.5254 0.023,0.0394 0.037,0.39308 0.037,0.86523 0,0.46559 0.016,0.81944 0.039,0.8457 0.023,0.0262 0.037,0.36086 0.037,0.78711 0,0.42623 0.014,0.76091 0.037,0.78711 0.023,0.0197 0.039,0.20241 0.039,0.39258 0,0.28198 -0.015,0.36676 -0.072,0.42578 -0.042,0.0328 -0.095,0.10516 -0.125,0.14453 -0.026,0.0459 -0.1282,0.15693 -0.2266,0.24219 -0.1021,0.0853 -0.1816,0.18401 -0.1816,0.2168 0,0.0262 -0.022,0.0527 -0.049,0.0527 -0.026,0 -0.087,0.0587 -0.1328,0.13086 -0.045,0.0721 -0.094,0.13086 -0.1133,0.13086 -0.015,0 -0.066,0.0536 -0.1074,0.11914 -0.038,0.059 -0.1516,0.18431 -0.25,0.26953 -0.1022,0.0853 -0.1817,0.18206 -0.1817,0.21485 0,0.0262 -0.022,0.0527 -0.049,0.0527 -0.027,0 -0.087,0.0587 -0.1328,0.13086 -0.045,0.0722 -0.094,0.13281 -0.1133,0.13281 -0.015,0 -0.064,0.0516 -0.1055,0.11719 -0.038,0.059 -0.1516,0.18424 -0.25,0.26953 -0.1022,0.0852 -0.1816,0.18206 -0.1816,0.21484 0,0.0262 -0.022,0.0527 -0.049,0.0527 -0.026,0 -0.087,0.0587 -0.1329,0.13086 -0.045,0.0721 -0.094,0.13281 -0.1132,0.13281 -0.015,0 -0.064,0.0516 -0.1055,0.11719 -0.038,0.059 -0.1516,0.18427 -0.25,0.26953 -0.1022,0.0853 -0.1816,0.18206 -0.1816,0.21484 0,0.0262 -0.022,0.0527 -0.049,0.0527 -0.027,0 -0.087,0.0587 -0.1328,0.13086 -0.045,0.0721 -0.094,0.13281 -0.1133,0.13281 -0.015,0 -0.066,0.0516 -0.1074,0.11719 -0.038,0.059 -0.1496,0.1843 -0.248,0.26953 -0.1022,0.0853 -0.1817,0.18398 -0.1817,0.2168 0,0.0262 -0.024,0.0508 -0.051,0.0508 -0.03,0 -0.083,0.0528 -0.1171,0.125 -0.061,0.11801 -0.06,0.13894 0.019,0.375 0.042,0.13772 0.1067,0.28809 0.1445,0.33398 0.076,0.0984 0.6171,0.11011 0.6739,0.0117 0.019,-0.0328 0.1122,-0.058 0.2031,-0.0449 l 0.166,0.0195 0.012,1.59961 c 0,1.023 0,1.62598 -0.029,1.67187 -0.023,0.0394 -0.039,1.23356 -0.039,3.42383 0,2.17059 -0.014,3.37806 -0.037,3.4043 -0.029,0.0326 -0.036,1.44471 -0.027,2.45117 h -6.8223 c 0,-0.0196 0,-0.14067 -0.01,-0.14258 -0.024,-0.0156 -0.039,-0.73485 -0.039,-2.02929 0,-1.3062 -0.016,-2.0195 -0.039,-2.04297 -0.027,-0.0274 -0.035,-0.38601 -0.031,-0.9961 l 0.012,-0.95508 0.1719,-0.0117 c 0.094,-0.008 0.1914,0.008 0.2109,0.0273 0.059,0.0587 0.6171,0.0509 0.6953,-0.008 0.039,-0.0274 0.1055,-0.11707 0.1485,-0.19922 0.082,-0.14077 0.082,-0.15227 0.02,-0.22266 -0.035,-0.043 -0.09,-0.0742 -0.1211,-0.0742 -0.027,0 -0.051,-0.0156 -0.051,-0.0312 0,-0.0196 -0.082,-0.0781 -0.1875,-0.1289 -0.1016,-0.0508 -0.2187,-0.12495 -0.2578,-0.16016 -0.043,-0.0391 -0.094,-0.0703 -0.1094,-0.0703 -0.02,0 -0.07,-0.0351 -0.1171,-0.0781 -0.047,-0.043 -0.1094,-0.0781 -0.1368,-0.0781 -0.027,0 -0.051,-0.0156 -0.051,-0.0312 0,-0.0196 -0.082,-0.0781 -0.1875,-0.12891 -0.1017,-0.0508 -0.2207,-0.12495 -0.2598,-0.16015 -0.043,-0.0391 -0.094,-0.0723 -0.1094,-0.0723 -0.02,0 -0.07,-0.0351 -0.1172,-0.0781 -0.047,-0.043 -0.1093,-0.0781 -0.1367,-0.0781 -0.027,0 -0.051,-0.0156 -0.051,-0.0312 0,-0.0196 -0.082,-0.0781 -0.1875,-0.12891 -0.1016,-0.0509 -0.2187,-0.12498 -0.2578,-0.16015 -0.043,-0.0391 -0.094,-0.0703 -0.1094,-0.0703 -0.019,0 -0.07,-0.0351 -0.1171,-0.0781 -0.047,-0.043 -0.1094,-0.0781 -0.1368,-0.0781 -0.027,0 -0.051,-0.0156 -0.051,-0.0313 0,-0.0196 -0.082,-0.078 -0.1875,-0.1289 -0.1017,-0.0508 -0.2207,-0.12498 -0.2598,-0.16016 -0.043,-0.0391 -0.094,-0.0703 -0.1094,-0.0703 -0.019,0 -0.07,-0.0351 -0.1172,-0.0781 -0.047,-0.043 -0.1093,-0.0781 -0.1367,-0.0781 -0.027,0 -0.051,-0.0156 -0.051,-0.0312 0,-0.0195 -0.082,-0.0781 -0.1875,-0.12891 -0.1017,-0.0508 -0.207,-0.11717 -0.2343,-0.14453 -0.031,-0.0235 -0.086,-0.0664 -0.129,-0.0859 -0.059,-0.0352 -0.074,-0.0877 -0.074,-0.25586 0,-0.11342 0.016,-0.22264 0.039,-0.23438 0.024,-0.0156 0.039,-0.21459 0.039,-0.46875 0,-0.25422 0.016,-0.4531 0.039,-0.46875 0.024,-0.0157 0.039,-0.2282 0.039,-0.50586 0,-0.28157 0.016,-0.49212 0.039,-0.51562 0.024,-0.0234 0.039,-0.16 0.031,-0.3125 l -0.012,-0.26954 -0.1758,-0.0117 c -0.098,-0.008 -0.1914,-0.0273 -0.2109,-0.0508 -0.024,-0.0196 -0.2029,-0.0351 -0.3985,-0.0351 -0.1994,0 -0.3769,-0.0156 -0.3887,-0.0391 -0.012,-0.0196 -0.1677,-0.0391 -0.3476,-0.0391 -0.176,0 -0.3398,-0.0195 -0.3633,-0.043 -0.019,-0.0196 -0.1249,-0.0352 -0.2305,-0.0274 l -0.1914,0.0117 -0.012,0.33203 c -0.01,0.1838 -0.027,0.34763 -0.047,0.36719 -0.023,0.0234 -0.039,0.1405 -0.039,0.26562 0,0.12516 -0.012,0.22657 -0.024,0.22657 -0.051,0 -0.2713,-0.14051 -0.3808,-0.24219 -0.066,-0.0626 -0.1406,-0.10938 -0.168,-0.10938 -0.031,0 -0.055,-0.0156 -0.055,-0.0312 0,-0.0196 -0.047,-0.0586 -0.1094,-0.0898 -0.059,-0.0313 -0.1405,-0.0859 -0.1796,-0.12109 -0.043,-0.0391 -0.1016,-0.0703 -0.1289,-0.0703 -0.027,0 -0.051,-0.0156 -0.051,-0.0312 0,-0.0196 -0.047,-0.0585 -0.1055,-0.0898 -0.059,-0.0313 -0.1601,-0.10148 -0.2227,-0.16016 -0.062,-0.0626 -0.1366,-0.10937 -0.164,-0.10937 -0.031,0 -0.055,-0.0156 -0.055,-0.0312 0,-0.0196 -0.047,-0.0586 -0.1094,-0.0898 -0.059,-0.0313 -0.1425,-0.0859 -0.1816,-0.1211 -0.043,-0.0391 -0.1015,-0.0723 -0.1289,-0.0723 -0.027,0 -0.051,-0.0156 -0.051,-0.0312 0,-0.0196 -0.047,-0.0586 -0.1055,-0.0899 -0.059,-0.0313 -0.1601,-0.10147 -0.2226,-0.16015 -0.063,-0.0626 -0.1367,-0.10938 -0.1641,-0.10938 -0.031,0 -0.055,-0.0156 -0.055,-0.0352 0,-0.0156 -0.1131,-0.0898 -0.2539,-0.16015 l -0.25,-0.12891 -0.2187,0.10547 c -0.1174,0.0587 -0.2402,0.12887 -0.2676,0.15234 -0.024,0.0274 -0.1288,0.0898 -0.2344,0.14063 -0.1017,0.0509 -0.1836,0.10935 -0.1836,0.12891 0,0.0156 -0.023,0.0312 -0.051,0.0312 -0.027,0 -0.086,0.0312 -0.1289,0.0703 -0.039,0.0391 -0.1405,0.0976 -0.2187,0.13672 -0.078,0.0391 -0.168,0.0918 -0.1953,0.11914 -0.027,0.0274 -0.1327,0.0898 -0.2383,0.14062 -0.1017,0.0508 -0.1836,0.10938 -0.1836,0.12891 0,0.0156 -0.023,0.0312 -0.055,0.0312 -0.027,0 -0.1073,0.0507 -0.1738,0.11719 -0.07,0.0665 -0.1406,0.11718 -0.1563,0.11718 -0.019,0 -0.09,0.0546 -0.1562,0.11719 -0.07,0.0665 -0.1406,0.11719 -0.1563,0.11719 -0.019,0 -0.09,0.0546 -0.1562,0.11719 -0.07,0.0665 -0.1406,0.11718 -0.1563,0.11718 -0.019,0 -0.09,0.0507 -0.1562,0.11719 -0.07,0.0626 -0.1406,0.11719 -0.1563,0.11719 -0.019,0 -0.09,0.0546 -0.1562,0.11719 -0.07,0.0626 -0.1406,0.11718 -0.1563,0.11718 -0.019,0 -0.086,0.0468 -0.1484,0.10938 -0.063,0.0587 -0.166,0.13081 -0.2246,0.16211 -0.059,0.0313 -0.1055,0.0702 -0.1055,0.0898 0,0.0156 -0.023,0.0312 -0.055,0.0312 -0.027,0 -0.1054,0.0546 -0.1719,0.11719 -0.07,0.0665 -0.1406,0.11719 -0.1562,0.11719 -0.02,0 -0.09,0.0507 -0.1563,0.11718 -0.07,0.0626 -0.1406,0.11719 -0.1562,0.11719 -0.02,0 -0.09,0.0507 -0.1563,0.11719 -0.07,0.0626 -0.1406,0.11719 -0.1562,0.11719 -0.02,0 -0.09,0.0507 -0.1563,0.11718 -0.07,0.0626 -0.1406,0.11719 -0.1562,0.11719 -0.02,0 -0.088,0.0468 -0.1504,0.10938 -0.063,0.0587 -0.164,0.12886 -0.2226,0.16015 -0.059,0.0313 -0.1055,0.0703 -0.1055,0.0898 0,0.0156 -0.023,0.0312 -0.055,0.0312 -0.027,0 -0.1054,0.0565 -0.1719,0.11914 -0.07,0.0665 -0.1406,0.1172 -0.1562,0.11718 -0.02,0 -0.09,0.0507 -0.1563,0.11719 -0.07,0.0665 -0.1406,0.11719 -0.1562,0.11719 -0.02,0 -0.09,0.0507 -0.1563,0.11719 -0.07,0.0626 -0.1406,0.11719 -0.1562,0.11719 -0.02,0 -0.09,0.0507 -0.1563,0.11718 -0.07,0.0665 -0.1406,0.11719 -0.1562,0.11719 -0.02,0 -0.092,0.0546 -0.1582,0.11719 -0.07,0.0665 -0.1406,0.11719 -0.1563,0.11718 -0.019,0 -0.09,0.0546 -0.1562,0.11719 -0.07,0.0665 -0.1406,0.11719 -0.1563,0.11719 -0.02,0 -0.09,0.0507 -0.1562,0.11719 -0.07,0.0626 -0.1406,0.11718 -0.1563,0.11719 -0.019,0 -0.09,0.0546 -0.1562,0.11718 -0.07,0.0665 -0.1406,0.11914 -0.1602,0.11914 -0.02,0 -0.1054,0.0702 -0.1953,0.15625 -0.086,0.086 -0.1757,0.15625 -0.1953,0.15625 -0.02,0 -0.1073,0.0702 -0.1973,0.15625 -0.086,0.086 -0.1757,0.15625 -0.1953,0.15625 -0.016,0 -0.086,0.0546 -0.1523,0.11719 -0.07,0.0665 -0.1406,0.11719 -0.1602,0.11719 -0.055,0 -0.2422,0.20305 -0.2266,0.25 0.01,0.0274 0.2457,0.0508 0.6563,0.0625 l 0.6426,0.0195 0.01,1.97461 c 0.01,1.24754 0.027,2.00386 0.051,2.05469 0.023,0.0508 0.043,0.8247 0.051,2.11132 v 0.10352 h -7.5527 v -0.25195 c 0.025,-1.44556 0.064,-3.78533 0.096,-5.19922 l 0.043,-2.56836 0.6348,-0.0508 c 0.3487,-0.0254 0.9007,-0.0703 1.2304,-0.0957 0.3297,-0.0254 0.6084,-0.0694 0.6211,-0.10742 0.013,-0.0317 -0.5707,-0.79205 -1.2871,-1.67969 -0.7164,-0.88766 -2.5364,-3.13792 -4.0391,-5.00195 l -2.7382,-3.3789 -1.5918,0.043 c -1.0652,0.0254 -1.6113,0.0205 -1.6368,-0.0176 -0.025,-0.038 -0.07,-0.45123 -0.1015,-0.91407 -0.038,-0.46283 -0.088,-0.86136 -0.1133,-0.88671 -0.076,-0.0761 -3.3795,-0.26114 -3.4492,-0.19141 -0.038,0.038 -0.038,0.50815 0.01,1.22461 0.032,0.64036 0.039,1.1851 0.014,1.2168 -0.025,0.0254 -3.9132,0.17157 -8.6367,0.33007 -4.7235,0.15217 -8.9898,0.29693 -9.4844,0.32227 l -0.8945,0.0391 -2.9023,4.53906 c -1.5915,2.49806 -2.898,4.58356 -2.9043,4.64063 -0.01,0.0824 0.121,0.0957 0.8945,0.0957 0.4882,0 0.9126,0.0201 0.9316,0.0391 0.025,0.019 0.1271,2.24436 0.2285,4.94532 0.063,1.58087 0.097,1.99674 0.1446,2.9082 h -7.5508 v -0.6582 c 0.01,-1.65989 0.036,-2.65901 0.066,-2.72461 0.03,-0.0656 0.054,-1.03901 0.065,-2.64844 l 0.01,-2.54883 0.8281,-0.0234 c 0.5297,-0.0152 0.8377,-0.0467 0.8476,-0.082 0.02,-0.0606 -0.2223,-0.32226 -0.2929,-0.32226 -0.025,0 -0.1161,-0.0666 -0.2071,-0.15235 -0.086,-0.0807 -0.177,-0.15039 -0.1972,-0.15039 -0.025,0 -0.141,-0.0902 -0.252,-0.20117 -0.116,-0.111 -0.2267,-0.20312 -0.2519,-0.20312 -0.025,0 -0.141,-0.0902 -0.252,-0.20118 -0.116,-0.11096 -0.2267,-0.20117 -0.2519,-0.20117 -0.025,0 -0.1162,-0.0666 -0.2071,-0.15234 -0.086,-0.0807 -0.1759,-0.15039 -0.2011,-0.15039 -0.02,0 -0.1123,-0.0717 -0.2032,-0.15235 -0.086,-0.0858 -0.1759,-0.15039 -0.2011,-0.15039 -0.02,0 -0.1104,-0.0666 -0.2012,-0.15234 -0.086,-0.0807 -0.1779,-0.15039 -0.2031,-0.15039 -0.02,0 -0.1104,-0.0666 -0.2012,-0.15234 -0.086,-0.0807 -0.1759,-0.1504 -0.2012,-0.1504 -0.02,0 -0.1123,-0.0666 -0.2031,-0.15234 -0.086,-0.0858 -0.1759,-0.15039 -0.2012,-0.15039 -0.02,0 -0.1103,-0.0716 -0.2011,-0.15234 -0.086,-0.0858 -0.1779,-0.15039 -0.2032,-0.15039 -0.02,0 -0.1103,-0.0666 -0.2011,-0.15235 -0.086,-0.0858 -0.176,-0.15039 -0.2012,-0.15039 -0.02,0 -0.1123,-0.0666 -0.2031,-0.15234 -0.086,-0.0808 -0.1854,-0.15039 -0.2207,-0.15039 -0.04,0 -0.07,-0.0208 -0.07,-0.041 0,-0.0252 -0.061,-0.0748 -0.1368,-0.11523 -0.076,-0.0404 -0.2064,-0.13137 -0.2871,-0.20703 -0.081,-0.0807 -0.1681,-0.14258 -0.1933,-0.14258 -0.02,0 -0.1104,-0.0697 -0.2012,-0.15039 -0.086,-0.0858 -0.1759,-0.15235 -0.2012,-0.15235 -0.02,0 -0.1123,-0.0697 -0.2031,-0.15039 -0.086,-0.0858 -0.176,-0.15234 -0.2012,-0.15234 -0.02,0 -0.1103,-0.0697 -0.2011,-0.15039 -0.086,-0.0858 -0.1779,-0.15234 -0.2032,-0.15235 -0.02,1e-5 -0.1103,-0.0646 -0.2011,-0.15039 -0.086,-0.0808 -0.1874,-0.15234 -0.2227,-0.15234 -0.04,0 -0.07,-0.0189 -0.07,-0.0391 0,-0.0253 -0.059,-0.0768 -0.1348,-0.11719 -0.076,-0.0404 -0.2083,-0.13137 -0.289,-0.20703 -0.081,-0.0807 -0.1662,-0.14063 -0.1914,-0.14063 -0.02,0 -0.1104,-0.0697 -0.2012,-0.15039 -0.086,-0.0807 -0.176,-0.15234 -0.2012,-0.15234 -0.02,0 -0.1123,-0.0697 -0.2031,-0.15039 -0.086,-0.0858 -0.176,-0.15234 -0.2012,-0.15234 -0.02,0 -0.1103,-0.0646 -0.2012,-0.1504 -0.086,-0.0807 -0.1779,-0.15234 -0.2031,-0.15234 -0.02,0 -0.1103,-0.0646 -0.2012,-0.15039 -0.086,-0.0807 -0.1759,-0.15234 -0.2011,-0.15234 -0.02,0 -0.1123,-0.0646 -0.2032,-0.15039 -0.086,-0.0858 -0.1854,-0.15235 -0.2207,-0.15235 -0.04,0 -0.072,-0.0208 -0.072,-0.041 0,-0.0252 -0.1052,-0.10041 -0.2363,-0.16602 -0.1364,-0.0656 -0.2733,-0.14631 -0.3086,-0.18164 -0.035,-0.0353 -0.1511,-0.0999 -0.252,-0.15039 -0.1009,-0.0505 -0.2308,-0.12728 -0.2812,-0.17773 -0.055,-0.0505 -0.1327,-0.0899 -0.168,-0.0899 -0.035,0 -0.064,-0.0208 -0.064,-0.041 0,-0.0253 -0.107,-0.10042 -0.2383,-0.16602 -0.1361,-0.0656 -0.2724,-0.14634 -0.3027,-0.18164 -0.035,-0.0303 -0.1904,-0.12157 -0.3418,-0.19727 l -0.2832,-0.13671 -0.3223,0.16796 c -0.1815,0.0908 -0.3281,0.18685 -0.3281,0.20704 0,0.0252 -0.03,0.0449 -0.07,0.0449 -0.035,0 -0.1322,0.0599 -0.2129,0.14062 -0.081,0.0757 -0.2114,0.16664 -0.2871,0.20703 -0.076,0.0403 -0.1367,0.092 -0.1367,0.11719 0,0.0202 -0.029,0.0391 -0.065,0.0391 -0.035,0 -0.1124,0.0414 -0.1679,0.0918 -0.051,0.0454 -0.1548,0.11589 -0.2305,0.15625 -0.081,0.0404 -0.1426,0.09 -0.1426,0.11523 0,0.0202 -0.03,0.041 -0.07,0.041 -0.035,0 -0.1302,0.0599 -0.2109,0.14063 -0.081,0.0757 -0.2134,0.16666 -0.2891,0.20703 -0.076,0.0404 -0.1348,0.09 -0.1348,0.11523 0,0.0202 -0.031,0.041 -0.066,0.041 -0.035,0 -0.1105,0.0413 -0.166,0.0918 -0.05,0.0454 -0.1567,0.11589 -0.2324,0.15625 -0.081,0.0404 -0.1406,0.09 -0.1406,0.11524 0,0.0202 -0.032,0.041 -0.072,0.041 -0.035,0 -0.131,0.0599 -0.2168,0.14063 -0.1413,0.13118 -0.4227,0.3125 -0.4883,0.3125 -0.015,0 -0.031,-0.13152 -0.031,-0.29297 0,-0.16142 -0.021,-0.31153 -0.051,-0.3418 -0.025,-0.0252 -0.051,-0.23749 -0.061,-0.47461 l -0.014,-0.42968 -0.2481,-0.0137 c -0.1362,-0.0101 -0.2716,0.01 -0.2968,0.0352 -0.03,0.0303 -0.2417,0.0547 -0.4688,0.0547 -0.2321,0 -0.4341,0.0256 -0.4492,0.0508 -0.015,0.0303 -0.2427,0.0508 -0.5,0.0508 -0.2523,0 -0.4854,0.0197 -0.5156,0.0449 -0.025,0.0303 -0.1454,0.0563 -0.2715,0.0664 l -0.2266,0.0137 -0.016,0.34961 c -0.01,0.19675 0.011,0.37207 0.041,0.40234 0.03,0.0303 0.049,0.30276 0.049,0.66602 0,0.3582 0.021,0.63021 0.051,0.65039 0.03,0.0202 0.051,0.27751 0.051,0.60547 0,0.32793 0.02,0.58532 0.051,0.60547 0.03,0.0151 0.051,0.15643 0.051,0.30273 0,0.21696 -0.02,0.2827 -0.096,0.32813 -0.055,0.0252 -0.1276,0.0811 -0.168,0.11132 -0.035,0.0353 -0.1716,0.1219 -0.3027,0.1875 -0.1363,0.0656 -0.2422,0.14081 -0.2422,0.16602 0,0.0202 -0.029,0.041 -0.064,0.041 -0.035,0 -0.1172,0.0441 -0.1777,0.0996 -0.061,0.0555 -0.1252,0.10156 -0.1504,0.10156 -0.02,0 -0.085,0.0394 -0.1406,0.0898 -0.05,0.0454 -0.2028,0.14146 -0.334,0.20703 -0.1362,0.0656 -0.2422,0.14276 -0.2422,0.16797 0,0.0202 -0.029,0.0391 -0.064,0.0391 -0.035,0 -0.1171,0.0461 -0.1777,0.10157 -0.061,0.0555 -0.1252,0.10156 -0.1504,0.10156 -0.02,0 -0.087,0.0394 -0.1426,0.0898 -0.05,0.0454 -0.2008,0.1414 -0.332,0.20703 -0.1362,0.0656 -0.2422,0.14081 -0.2422,0.16602 0,0.0202 -0.031,0.041 -0.066,0.041 -0.035,0 -0.1152,0.0461 -0.1758,0.10156 -0.061,0.0555 -0.1271,0.0996 -0.1523,0.0996 -0.02,0 -0.085,0.0413 -0.1406,0.0918 -0.051,0.0454 -0.2009,0.14143 -0.3321,0.20704 -0.1362,0.0656 -0.2422,0.1408 -0.2422,0.16601 0,0.0202 -0.031,0.041 -0.066,0.041 -0.035,0 -0.1152,0.0441 -0.1757,0.0996 -0.061,0.0555 -0.1272,0.10156 -0.1524,0.10156 -0.02,0 -0.085,0.0394 -0.1406,0.0898 -0.051,0.0454 -0.2028,0.14146 -0.334,0.20703 -0.1362,0.0656 -0.2422,0.14273 -0.2422,0.16797 0,0.0202 -0.029,0.0391 -0.064,0.0391 -0.04,0 -0.1109,0.0402 -0.1563,0.0957 -0.081,0.0908 -0.081,0.10746 0.025,0.28906 0.056,0.10597 0.141,0.22056 0.1914,0.25586 0.1009,0.0757 0.8208,0.0855 0.8965,0.01 0.025,-0.0252 0.1523,-0.0453 0.2734,-0.0352 l 0.2227,0.0156 0.014,1.23047 c 0.01,0.78707 0,1.25181 -0.039,1.28711 -0.03,0.0303 -0.051,0.94967 -0.051,2.63477 0,1.66997 -0.021,2.597 -0.051,2.61719 -0.015,0.009 -0.017,0.4328 -0.025,0.70898 h -57.4394 l -13.6367,1.16211 c -0.7296,-0.33023 -1.2151,-0.24879 -1.9434,0.16602 l -1.3613,0.11523 V 425.0175 h 385.1543 v -138.75 l -176.2852,0.77734 c -1.6315,-0.94966 -0.8696,-4.26757 0.8516,-5.22265 1.3904,-0.43972 4.3572,-2.16145 5.3613,-0.99415 -0.034,0.0145 -0.07,0.0315 -0.1328,0.0703 -0.2134,0.36005 0.082,0.11058 0.1699,-0.0195 0.043,0.0556 0.067,0.13823 0.1016,0.20507 -0.016,-0.007 -0.041,0.0104 -0.08,0.0899 0.074,0.23934 0.1205,-0.0275 0.084,-0.0801 0.1154,0.22582 0.1998,0.49639 0.2031,0.88086 -0.091,-0.16863 -0.1743,-0.30138 -0.2539,-0.42188 0.013,-0.0201 0,-0.0262 -0.018,-0.0293 -0.2915,-0.4342 -0.5011,-0.55579 -0.6328,-0.49414 0.1048,0.0169 -0.046,0.14617 -0.1093,0.13281 -0.041,0.0969 -0.042,0.24843 -0.037,0.4082 0,-0.0115 0.018,-0.0367 0.084,-0.084 0.1524,0.0254 -0.073,0.1185 -0.084,0.084 0.024,0.82305 0.6257,2.19288 1.8008,1.42578 0.085,-0.11317 0.169,-0.21086 0.252,-0.29492 -0.011,-0.0107 -0.01,-0.0302 0.043,-0.0664 0.015,0.005 0.01,0.009 0.018,0.0137 1.2193,-1.14216 2.2798,0.59043 3.4629,-0.4668 0.4981,0.17797 1.0287,0.0761 1.5274,-0.16797 -0.01,-0.015 -0.015,-0.0215 -0.024,-0.0391 0.063,-0.0275 0.1116,-0.0339 0.1504,-0.0293 1.0917,-0.60192 1.9647,-1.93318 1.791,-2.94922 -0.053,-0.0143 -0.095,-0.052 -0.053,-0.16992 0.015,0.004 0.011,0.008 0.023,0.0117 -7e-4,-0.003 0,-0.005 0,-0.008 -0.1264,-1.09002 -0.7389,-1.86399 -1.4707,-2.60742 0.07,0.0696 0.3592,0.0565 0.1191,-0.14063 -0.1073,0.0454 -0.1431,0.0844 -0.1445,0.11524 -0.1574,-0.15912 -0.3155,-0.32899 -0.4805,-0.48829 0.042,-0.0354 0.05,-0.075 -0.098,-0.10156 v 0.002 c -0.3015,-0.29108 -0.5989,-0.59473 -0.8867,-0.91407 0.038,0.0109 0.1606,-0.0707 0.018,-0.0684 -0.028,0.0369 -0.027,0.053 -0.022,0.0625 -0.201,-0.22338 -0.4013,-0.44953 -0.5801,-0.70312 -0.093,0.0456 -0.6277,-0.0684 -0.1289,-0.11719 0.047,0.0216 0.064,0.0372 0.088,0.0527 -0.1451,-0.21106 -0.2867,-0.42581 -0.4063,-0.66407 -0.019,-0.0269 -0.031,-0.0585 -0.049,-0.0859 -0.044,0.0612 -0.1261,0.11224 -0.088,-0.0488 0.035,-0.0171 0.037,-0.005 0.055,-0.008 -0.2717,-0.42763 -0.472,-0.90298 -0.6406,-1.39843 0.055,-0.0435 0.091,-0.11959 -0.029,-0.0898 -0.1761,-0.52728 -0.3379,-1.06291 -0.5371,-1.57031 -0.042,0.006 -0.082,0.005 -0.1192,-0.0254 0.047,-0.034 0.052,-0.0261 0.088,-0.0488 -0.045,-0.11165 -0.092,-0.22244 -0.1426,-0.33008 -0.062,0.0441 -0.095,0.0383 -0.029,-0.0684 -0.3677,-0.75431 -0.8957,-1.39431 -1.8515,-1.73242 -2.1998,-0.51695 -3.9204,-2.56336 -6.3242,-2.31445 l -0.4414,0.0449 -0.3829,0.17578 c -1.3136,2.21338 -2.989,0.69408 -4.8886,0.69531 -1.355,-0.11702 -2.521,0.3173 -3.5821,0.98438 0.015,-0.0234 0.016,-0.057 -0.021,-0.11719 -0.3251,0.057 -0.108,0.16999 -0.01,0.13672 -0.7342,0.4658 -1.4191,1.03787 -2.0762,1.63086 -0.4012,0.12076 -0.842,0.32606 -1.2754,0.57031 -0.061,0.0992 -0.1468,0.19035 -0.1777,0.0957 -1.595,0.96035 -2.967,2.63277 -1.5137,4.26953 -2.5619,-0.28328 -1.536,3.31904 -3.9844,3.13281 -0.3268,0.24864 -0.5441,0.47147 -0.6855,0.67578 -0.015,-0.0148 -0.021,-0.0252 -0.043,-0.043 -0.1997,0.0753 -0.1241,0.14419 -0.031,0.16797 -0.6464,1.18028 1.544,1.7041 2.3379,2.76172 0.095,0.0493 0.1984,0.0772 0.2968,0.11719 -0.2905,0.11567 0.1038,0.14975 0.2344,0.0937 0.1917,0.0632 0.3892,0.11072 0.5918,0.14843 0.029,-0.0232 0.08,-0.0494 0.1602,-0.0781 0.1162,0.0593 0.1476,0.10097 0.1484,0.13281 1.3957,0.18416 3.0015,-0.0521 4.5918,0.29492 2.1392,1.84981 4.4391,-0.91503 6.584,0.7461 1.4275,1.17257 1.5436,4.01641 0,4.88476 l -7.8418,0.0352 h -11.7891 l 0.01,-2.38672 c 0.01,-2.15749 0.026,-3.45576 0.049,-3.54101 0.023,-0.0852 0.043,-1.35145 0.051,-3.44336 l 0.01,-3.31055 0.6211,-0.0332 c 0.3974,-0.0197 0.6292,-0.0596 0.6367,-0.10547 0.015,-0.0787 -0.1677,-0.41797 -0.2207,-0.41797 -0.019,0 -0.086,-0.0858 -0.1543,-0.19727 -0.064,-0.10491 -0.1333,-0.19726 -0.1484,-0.19726 -0.019,0 -0.1062,-0.11744 -0.1895,-0.26172 -0.087,-0.14428 -0.1685,-0.26367 -0.1875,-0.26367 -0.019,0 -0.1062,-0.11744 -0.1894,-0.26172 -0.087,-0.14425 -0.1705,-0.26172 -0.1895,-0.26172 -0.019,0 -0.088,-0.0858 -0.1562,-0.19727 -0.064,-0.10491 -0.1315,-0.19726 -0.1504,-0.19726 -0.015,0 -0.084,-0.0904 -0.1523,-0.19531 -0.065,-0.1115 -0.1315,-0.19727 -0.1504,-0.19727 -0.015,0 -0.084,-0.0858 -0.1524,-0.19727 -0.064,-0.10491 -0.1315,-0.19531 -0.1504,-0.19531 -0.015,0 -0.084,-0.0858 -0.1523,-0.19726 -0.064,-0.10495 -0.1315,-0.19727 -0.1504,-0.19727 -0.015,0 -0.084,-0.0858 -0.1524,-0.19727 -0.064,-0.11149 -0.1314,-0.19531 -0.1503,-0.19531 -0.015,0 -0.084,-0.0923 -0.1524,-0.19726 -0.064,-0.1115 -0.1315,-0.19727 -0.1504,-0.19727 -0.015,0 -0.084,-0.0858 -0.1523,-0.19726 -0.064,-0.11147 -0.1315,-0.19532 -0.1504,-0.19532 -0.015,0 -0.084,-0.0858 -0.1524,-0.19726 -0.064,-0.10494 -0.1395,-0.19727 -0.166,-0.19727 -0.03,0 -0.053,-0.0265 -0.053,-0.0527 0,-0.0328 -0.045,-0.0979 -0.1016,-0.15039 -0.057,-0.0525 -0.1562,-0.16922 -0.2168,-0.26758 -0.061,-0.10491 -0.1256,-0.18555 -0.1445,-0.18555 -0.015,0 -0.082,-0.0904 -0.1504,-0.19531 -0.064,-0.11149 -0.1334,-0.19727 -0.1523,-0.19727 -0.015,0 -0.082,-0.0923 -0.1504,-0.19726 -0.064,-0.11149 -0.1334,-0.19531 -0.1524,-0.19531 -0.015,0 -0.082,-0.0923 -0.1504,-0.19727 -0.064,-0.11146 -0.1334,-0.19727 -0.1523,-0.19727 -0.015,0 -0.082,-0.0858 -0.1504,-0.19726 -0.064,-0.10494 -0.1395,-0.19531 -0.166,-0.19531 -0.03,0 -0.055,-0.0265 -0.055,-0.0527 0,-0.0328 -0.045,-0.0979 -0.1016,-0.15039 -0.057,-0.0525 -0.1542,-0.17117 -0.2148,-0.26953 -0.061,-0.10491 -0.1256,-0.18359 -0.1445,-0.18359 -0.015,0 -0.082,-0.0924 -0.1504,-0.19727 -0.064,-0.10494 -0.1334,-0.19726 -0.1524,-0.19726 -0.015,0 -0.082,-0.0904 -0.1504,-0.19532 -0.064,-0.11149 -0.1334,-0.19726 -0.1523,-0.19726 -0.015,0 -0.084,-0.0858 -0.1523,-0.19727 -0.064,-0.10491 -0.1315,-0.19531 -0.1504,-0.19531 -0.015,0 -0.084,-0.0858 -0.1524,-0.19727 -0.064,-0.10494 -0.1314,-0.19726 -0.1504,-0.19726 -0.015,0 -0.084,-0.0858 -0.1523,-0.19727 -0.064,-0.11146 -0.1395,-0.19531 -0.166,-0.19531 -0.03,0 -0.053,-0.0265 -0.053,-0.0527 0,-0.0328 -0.079,-0.13154 -0.1777,-0.2168 -0.1022,-0.0853 -0.204,-0.19041 -0.2305,-0.23633 -0.026,-0.0459 -0.1137,-0.13169 -0.1894,-0.19727 -0.076,-0.0656 -0.1751,-0.16294 -0.2129,-0.22851 -0.042,-0.0656 -0.099,-0.11914 -0.125,-0.11914 -0.026,0 -0.049,-0.0246 -0.049,-0.0508 0,-0.0328 -0.079,-0.13154 -0.1778,-0.2168 -0.1022,-0.0852 -0.2038,-0.19044 -0.2265,-0.23633 -0.026,-0.0394 -0.1443,-0.15747 -0.2578,-0.25586 z m 16.5,18.70898 c -0.105,-0.0138 -0.2061,-0.0356 -0.3086,-0.0547 -0.1581,0.12544 0.3112,0.16177 0.3086,0.0547 z m 2.4883,-11.3789 c 0.059,-0.0354 0.1185,-0.0623 0.1777,-0.0957 0.085,-0.13878 0.1114,-0.27871 -0.1875,0.0801 0,0.01 0.01,0.008 0.01,0.0156 z m 21.0312,-0.16993 c 0.011,0.0221 0.019,0.0461 0.029,0.0684 0.086,-0.0611 0.1813,-0.17249 -0.01,-0.10937 -0.02,0.027 -0.01,0.0221 -0.02,0.041 z m 0.1719,0.39844 c 0.01,0.025 0.021,0.0491 0.031,0.0742 0.192,-0.0283 0.3385,-0.30937 -0.031,-0.0742 z m 1.2383,3.13281 c 0.012,0.0184 0.021,0.0384 0.033,0.0566 0.029,-0.0399 0.019,-0.0636 -0.033,-0.0566 z m 4.0781,5.72266 c 0.015,0.0513 0.02,0.10492 0.029,0.1582 0.1019,0.0274 0.2352,-0.0744 -0.029,-0.1582 z m -1.7617,3.10742 c -0.042,0.0233 -0.084,0.0474 -0.1269,0.0684 0.2073,0.38005 0.3471,-0.0425 0.1269,-0.0684 z m -5.1172,0.70313 c -0.02,0.0191 -0.04,0.032 -0.061,0.0527 0.026,0.0267 0.1446,-0.0104 0.061,-0.0527 z m -2.0761,-1.48633 c 0.027,-0.064 0.062,-0.11071 0.1093,-0.13281 -0.024,-0.004 -0.023,-0.0192 -0.082,-0.006 -0.061,0.0985 -0.056,0.13272 -0.027,0.13867 z m -2.2911,-15.79883 c -0.017,-0.0153 -0.056,0.01 -0.1289,0.1211 0.029,0.34683 0.1791,-0.0752 0.1289,-0.1211 z m -1.4765,0.46875 c 0.1486,0.007 0.1416,0.91647 -0.072,0.0586 0.028,-0.0437 0.051,-0.0596 0.072,-0.0586 z m 1.875,0.50781 c 0.3113,0.22718 -0.3932,0.20942 0,0 z m 4.3476,2.16211 c 0.2075,-0.0262 -0.1412,0.18809 0,0 z m 1.0391,1.69141 c 0.117,0.21879 -0.2699,-0.0205 0,0 z m -0.5547,0.13672 c 0.04,0.004 0.103,0.21897 -0.025,0.0879 3e-4,-0.0664 0.012,-0.0891 0.025,-0.0879 z m -11.1074,0.88086 c 0.3116,-6.2e-4 -0.1562,0.32414 0,0 z m -11.4903,0.10937 c 0,-0.01 -0.021,-0.009 -0.062,0.0137 -0.037,0.13346 0.074,0.0155 0.062,-0.0137 z m 10.9786,1.28321 c 0.045,-0.008 0.073,0.25877 -0.047,0.125 0.014,-0.0894 0.032,-0.12219 0.047,-0.125 z m 14.041,0.69921 c -0.3678,0.30331 0.4534,0.0928 0,0 z m -18.6758,0.043 c 0.3391,-0.0114 -0.2029,0.30586 0,0 z m 10.2031,0.0586 c 0.369,0.0602 -0.2668,0.64397 -0.2246,0.0117 0.099,-0.0178 0.1719,-0.0203 0.2246,-0.0117 z m -10.2793,0.0156 c 0,0.0351 -0.1362,0.14589 -0.066,0.002 0.047,-0.0176 0.065,-0.0136 0.066,-0.002 z m 3.2539,0.0234 c 0.3403,0.26329 -0.4323,0.2015 0,0 z m 14.9141,0.0215 c 0.2714,-0.0259 -0.132,0.2786 0,0 z m -15.4063,0.01 c 0.378,-0.0254 -0.2951,0.43874 0,0 z m 7.461,0.13281 c -0.084,0.14614 0.1653,-0.0388 0,0 z m -15.7656,0.0664 c 0.039,0.008 0.021,0.24578 -0.059,0.0918 0.025,-0.0715 0.045,-0.0944 0.059,-0.0918 z m 12.8632,0.0117 c 0.3376,0.1952 -0.4615,0.14173 0,0 z m 0.5313,0.043 c 0.01,0.0306 -0.1116,0.13167 -0.061,0.004 0.042,-0.0165 0.058,-0.0141 0.061,-0.004 z m -13.2109,0.2832 c 0.1533,0.22205 -0.2505,0.0914 0,0 z m 10.4453,0.0508 c 0.036,0.0299 -0.038,0.24428 -0.078,0.0527 0.043,-0.0532 0.066,-0.0627 0.078,-0.0527 z m -10.293,0.0469 c 0.1891,-0.057 -0.1012,0.17762 0,0 z m 21.3984,0.0957 c 0.014,0.0326 -0.1192,0.16775 -0.074,0.0156 0.049,-0.0265 0.07,-0.0265 0.074,-0.0156 z m -0.2871,0.20508 c 0.055,-0.0132 0.129,0.30786 -0.039,0.15429 0,-0.10884 0.021,-0.14988 0.039,-0.15429 z m 3.836,0.0312 c -0.029,-0.004 -0.074,7.9e-4 -0.1387,0.0156 -0.235,0.40438 0.3403,0.01 0.1387,-0.0156 z m -25.3496,0.004 c 0.1288,0.21116 -0.439,0.0281 0,0 z m 17.0292,0.41797 c 0.062,0.004 0.099,0.27947 -0.064,0.11328 0.019,-0.0857 0.044,-0.11452 0.064,-0.11328 z m 1.2618,0.13086 c 0.018,0.0423 -0.1511,0.18849 -0.096,0.008 0.063,-0.0252 0.09,-0.0219 0.096,-0.008 z m 5.4492,0.0254 c 0.058,0.0442 -0.088,0.30364 -0.1367,0.0547 0.075,-0.0597 0.1175,-0.0694 0.1367,-0.0547 z m -7.2656,0.006 c 0.018,0.0349 -0.1051,0.28726 -0.076,0.0625 0.048,-0.0627 0.07,-0.0742 0.076,-0.0625 z m -12.0586,0.26367 c 0.051,0.0451 -0.078,0.32189 -0.1211,0.0605 0.067,-0.0651 0.104,-0.0756 0.1211,-0.0605 z m 0.3515,0.11719 c 0.039,-0.0356 0.2337,0.1266 0.033,0.11523 -0.042,-0.0696 -0.046,-0.10336 -0.033,-0.11523 z m 0.1621,0.14258 c 0.3462,0.15468 -0.3951,0.23907 0,0 z m 9.1465,0.0664 c 0.359,-0.0609 -0.1786,0.42614 0,0 z m -0.3437,0.041 c 0.2182,0.0243 -0.3785,0.19014 0,0 z m 11.5097,0.0488 c 0.015,0.0286 -0.1009,0.1766 -0.068,0.0273 0.044,-0.032 0.064,-0.0369 0.068,-0.0273 z m -10.7363,0.0566 c 0.3363,-0.0749 -0.1634,0.31529 0,0 z m -1.9551,0.24609 c 0.027,0.0299 -0.092,0.25692 -0.086,0.0586 0.052,-0.057 0.077,-0.0686 0.086,-0.0586 z m 0.01,0.11328 c 0.2931,-0.0334 -0.1458,0.23221 0,0 z m -0.9257,0.1211 c 0.012,0.045 -0.1664,0.23978 -0.092,0.0254 0.062,-0.0391 0.088,-0.0404 0.092,-0.0254 z m 13.2109,0.008 c 0.015,0.0371 -0.1205,0.18154 -0.076,0.0137 0.051,-0.0273 0.071,-0.026 0.076,-0.0137 z m 0.4316,0.0762 c 0.1689,-0.0414 -0.086,0.14785 0,0 z m -29.791,1.31055 c 0.2878,-0.0455 -0.1084,0.25757 0,0 z m 17.9141,0.0508 c 0.014,0.0517 -0.1961,0.22479 -0.1074,0.008 0.073,-0.0287 0.1029,-0.025 0.1074,-0.008 z m 1.8418,0.11914 c 0.043,-0.0228 0.1941,0.10857 0.01,0.0859 -0.026,-0.0532 -0.022,-0.0783 -0.01,-0.0859 z m -5.5567,0.10352 c 0.013,-0.0165 0.07,-0.0216 0.2032,0 0.1144,0.19769 -0.2423,0.0496 -0.2032,0 z m 17.9903,0.24609 c 0.2389,-0.0363 -0.098,0.19973 0,0 z m -1.3828,0.14063 c 0.3437,-0.0914 -0.1162,0.31022 0,0 z m -0.076,0.0332 c 0.013,0.0282 -0.1039,0.14107 -0.066,0.0117 0.044,-0.0218 0.062,-0.0211 0.066,-0.0117 z m -31.2148,0.4414 c -0.2863,-0.007 0.1434,0.15295 0,0 z m 2.1582,0.24219 c 0.2067,0.0208 -0.1815,0.14968 0,0 z m 2.5683,0.0156 c 0.1928,0.0186 -0.5956,0.56568 -0.1484,0.0293 0.074,-0.0236 0.1209,-0.0319 0.1484,-0.0293 z m -3.8418,0.002 c 0.1768,-0.0572 -0.09,0.17126 0,0 z m 1.3555,0.0684 c 0.2799,0.11255 -0.3153,0.11221 0,0 z m 28.1074,0.18359 c 0.1964,0.18309 -0.4114,0.0486 0,0 z m -23.8691,0.002 c 0.054,-0.009 0.1943,0.25147 -0.01,0.12304 -0.017,-0.0878 -0.01,-0.11995 0.01,-0.12304 z m 24.1445,0.0273 c 0.3451,-0.002 -0.1919,0.23854 0,0 z m -28.6309,0.006 c 0.017,0.0566 -0.214,0.25329 -0.1211,0.0117 0.083,-0.0336 0.1153,-0.0306 0.1211,-0.0117 z m 0.098,0.0293 c 0.017,0.0236 -0.063,0.14573 -0.057,0.0215 0.034,-0.0271 0.051,-0.0294 0.057,-0.0215 z m 4.4629,0.0996 c 0.134,-0.0425 -0.063,0.1286 0,0 z m 14.7949,0.0566 c 0.3041,0.0252 -0.2539,0.23655 0,0 z m -14.9668,0.0566 c 0.041,-0.0145 0.1344,-0.0134 0.3086,0.0195 -0.081,0.19809 -0.4318,0.0238 -0.3086,-0.0195 z m 2.4199,0.006 c 0.4419,0.0437 -0.2091,0.34932 0,0 z m 24.1778,0.01 c -0.1103,0.22172 0.2302,0.009 0,0 z m -27.5137,0.0566 c 0.4453,0.005 -0.5808,0.35336 0,0 z m -0.9629,0.0332 c 0.054,-0.005 0.1654,0.234 -0.023,0.10937 -0.01,-0.0782 0.01,-0.10769 0.023,-0.10937 z m 16.9004,0.008 c 0.2122,-0.0582 -0.072,0.19597 0,0 z m 9.1445,0.0801 c 0.022,0.0241 -0.06,0.20275 -0.062,0.0449 0.037,-0.0447 0.055,-0.053 0.062,-0.0449 z m -25.3379,0.0351 c 0.3378,-0.0622 -0.2348,0.30079 0,0 z m 9.461,0.0449 c 0.04,0.048 -0.1132,0.29693 -0.1172,0.0449 0.069,-0.0547 0.1038,-0.0609 0.1172,-0.0449 z m -7.6621,0.002 c 0.3959,-0.0464 0.879,0.4008 0.2578,0.63867 1.454,0.43414 -0.8909,0.16468 -0.4199,-0.58594 0.05,-0.0288 0.1055,-0.0461 0.1621,-0.0527 z m -2.8204,0.0215 c 0.041,-0.002 0.085,0.27797 -0.033,0.1211 0.01,-0.09 0.02,-0.12057 0.033,-0.1211 z m 29.1036,0.002 c -0.01,-0.015 -0.034,-0.005 -0.084,0.0547 0.01,0.25179 0.115,-0.01 0.084,-0.0547 z m -0.8614,0.043 c 0.2285,-0.009 -0.1101,0.20365 0,0 z m -26.0234,0.0391 c 0,0.0315 -0.1834,0.33918 -0.076,0.0918 0.057,-0.0814 0.077,-0.1023 0.076,-0.0918 z m 4.041,0.0176 c 0.2677,0.26882 -0.4584,0.0531 0,0 z m -6.0273,0.006 c 0.081,0.005 -0.1181,0.31057 -0.1895,0.125 0.1039,-0.0944 0.1626,-0.12663 0.1895,-0.125 z m 4.7832,0.008 c 0.1557,-0.019 -0.071,0.43683 -0.092,0.041 0.04,-0.026 0.07,-0.0383 0.092,-0.041 z m 5.5156,0.0215 c 0.2075,-0.0763 0.3371,0.22631 0.2109,0.375 0.022,0.0337 0.026,0.0509 0.045,0.082 -0.019,-0.0164 0,-0.0527 0.096,-0.11719 0.3567,0.0415 -0.039,0.16645 -0.096,0.11719 0.7546,1.23088 -0.9356,0.53304 -0.5059,-0.19531 -0.016,-0.01 -0.027,-0.004 -0.061,-0.0625 0.014,-0.22661 0.075,-0.0837 0.09,0.0195 0.052,-0.0736 0.1181,-0.14759 0.2207,-0.21875 z m -7.4648,0.0605 c 0,-0.0185 -0.038,-0.0244 -0.1211,0.004 -0.105,0.22858 0.1349,0.0516 0.1211,-0.004 z m 3.8925,0.0215 c 0.08,-0.0312 0.1529,0.44903 -0.07,0.2461 0.017,-0.16818 0.044,-0.23571 0.07,-0.2461 z m 15.084,0.0312 c 0.022,-0.0102 0.071,0.0102 0.1582,0.0957 -0.058,0.25167 -0.2253,-0.0651 -0.1582,-0.0957 z m -1.9433,0.008 c 0.1339,0.0478 -0.01,0.45208 -0.2325,0.11133 0.112,-0.10434 0.1878,-0.12726 0.2325,-0.11133 z m 7.58,0.0352 c 0.05,0.0498 -0.1048,0.27715 -0.1308,0.0332 0.075,-0.047 0.114,-0.0498 0.1308,-0.0332 z m -17.2246,0.004 c -0.1715,0.27098 0.2905,-0.0747 0,0 z m 16.5313,0.002 c 0.02,0.0125 0.01,0.1324 -0.031,0.0352 0.014,-0.0318 0.025,-0.0393 0.031,-0.0352 z m -20.8946,0.008 c 0.047,0.002 0.1083,0.012 0.1875,0.0352 -0.1171,0.35056 -0.5146,-0.0524 -0.1875,-0.0352 z m 14.2051,0.0137 c 0.2615,-0.0811 -0.1621,0.25699 0,0 z m -20.6269,0.0156 c 0.061,-3.8e-4 -0.2615,0.40005 -0.2168,0.17187 0.133,-0.12743 0.1965,-0.17174 0.2168,-0.17187 z m 4.8808,0.0566 c 0.1901,-0.0572 -0.1217,0.47125 -0.1132,0.0645 0.05,-0.0365 0.086,-0.0563 0.1132,-0.0645 z m 12.8203,0.004 c 0.039,-0.006 0.1367,0.16062 -0.01,0.0801 -0.012,-0.056 -0.01,-0.078 0.01,-0.0801 z m -16.9238,0.0312 c 0.05,0.009 0.061,0.0245 0.1016,0.0351 -0.018,-0.009 -0.047,-0.002 -0.1055,0.0625 0.038,0.25454 0.1506,-0.002 0.1152,-0.0586 1.1656,0.31443 -1.3779,1.27634 -0.1113,-0.0391 z m 4.3692,0.004 c 1.6275,0.62829 -0.7905,1.246 -0.3282,0.39844 -0.1617,0.0478 -0.6149,-0.0631 -0.084,-0.17969 0.071,0.0431 0.1118,0.0772 0.1329,0.10547 0.063,-0.0938 0.1463,-0.19812 0.2793,-0.32422 z m -0.2793,0.32422 c -0.017,0.0251 -0.036,0.0513 -0.049,0.0742 0.046,-0.0136 0.083,-0.0289 0.049,-0.0742 z m -3.3926,-0.30273 c 0.094,0.312 -0.4198,-0.0563 0,0 z m 11.6367,0.002 c 0.2364,0.83465 -0.2883,0.6125 -0.4512,0.33594 0.098,-0.0372 0.2253,-0.31188 -0.043,-0.17969 0.025,-0.10709 0.158,-0.18497 0.4941,-0.15625 z m 3.291,0.0742 c 0.027,0.0293 -0.1055,0.26215 -0.092,0.0625 0.056,-0.0588 0.083,-0.0723 0.092,-0.0625 z m -16.2265,0.004 c 0.064,-0.0174 0.2229,0.2047 -0.016,0.11719 -0.018,-0.0795 -0.01,-0.11138 0.016,-0.11719 z m 27.3359,0.01 c 0.7401,0.65583 -0.2624,0.4194 0,0 z m -20.1367,0.0371 c 0.2255,-0.007 0.1162,0.11045 0.033,0.13281 -0.02,0.0829 -0.1699,0.19154 -0.1817,-0.0371 0.08,-0.0273 0.1059,-0.0151 0.1368,-0.008 0,-0.0236 -0.014,-0.0351 0.012,-0.0879 z m 10.375,0.008 c 0.047,0.0367 -0.054,0.28442 -0.1035,0.0586 0.056,-0.0601 0.088,-0.0709 0.1035,-0.0586 z m 6.1386,0 c 0.2202,-0.0362 -0.1391,0.2138 0,0 z m -18.6054,0.0391 c -0.018,0.002 -0.03,0.0323 -0.022,0.11132 0.186,0.11834 0.075,-0.1188 0.022,-0.11132 z m 0.7773,0.0195 c 0.087,0.0218 0.1819,0.0929 0.024,0.14648 -0.1879,-0.14085 -0.11,-0.16831 -0.024,-0.14648 z m 16.2852,0.0156 c 0.4701,0.12453 -0.2904,0.6535 0,0 z m -12.4727,0.008 c 0.4904,-0.009 -0.2144,0.39388 0,0 z m 13.4727,0.008 c 0.1825,-0.0288 -0.1175,0.16831 0,0 z m -0.7383,0.002 c 0.507,0.004 -0.2444,0.40573 0,0 z m -1.3066,0.0176 c 0.1543,0.27713 -0.43,0.0588 0,0 z m -21.7676,0.008 c 0.035,0.006 0.08,0.20117 -0.025,0.0762 0,-0.0589 0.014,-0.0781 0.025,-0.0762 z m 0.6484,0.01 c 0.054,-0.0274 0.1927,0.16445 -0.01,0.11718 -0.017,-0.075 -0.01,-0.10804 0.01,-0.11718 z m 19.9649,0.0234 c -0.064,0.0182 -0.1084,0.0388 -0.1348,0.0566 -0.064,-0.038 -0.1373,-0.0486 -0.068,0.084 0.061,0.0147 0.066,0.002 0.088,-0.002 0.095,0.0561 0.3277,0.0549 0.1153,-0.13868 z m -7.2422,0.0254 c -0.2399,0.30309 0.3177,-0.0135 0,0 z m -5.1914,0.0137 c 0.1516,0.0381 0.3894,0.52018 -0.094,0.1582 10e-4,-0.13328 0.043,-0.17092 0.094,-0.1582 z m -0.2422,0.0234 c 0.087,0.0193 0.1795,0.44225 -0.072,0.15625 0.015,-0.1245 0.043,-0.16269 0.072,-0.15625 z m 19.4785,0.0176 c 0.036,-0.008 0.1372,0.14857 0,0.0762 -0.014,-0.054 -0.01,-0.0736 0,-0.0762 z m -5.541,0.006 c 0.1965,-0.0759 -0.1001,0.52355 -0.1172,0.0781 0.05,-0.0435 0.089,-0.0673 0.1172,-0.0781 z m -14.3399,0.0391 c 0.3437,0 -0.204,0.25894 0,0 z m -4.3808,0.01 c 0.046,-6.4e-4 0.1394,0.21463 -0.02,0.0937 -0.01,-0.0683 0,-0.0935 0.02,-0.0937 z m 20.664,0 c 0.038,0.044 -0.1438,0.3412 -0.1269,0.0703 0.077,-0.0723 0.1142,-0.085 0.1269,-0.0703 z m -0.9492,0.006 c 0,-0.009 -0.019,-0.008 -0.055,0.0137 -0.027,0.1233 0.067,0.0126 0.055,-0.0137 z m -12.2129,0.0273 c 0.047,0.005 0.086,0.0372 -0.025,0.0801 -0.077,-0.0641 -0.022,-0.0854 0.025,-0.0801 z m -4.0722,0.0156 c 0.2401,0.0913 -0.2498,0.17101 0,0 z m 16.7421,0.0254 c 0.2901,-0.0977 -0.14,0.36307 0,0 z m -0.086,0.0879 c 0.1934,-0.0527 -0.1059,0.18737 0,0 z m -7.7558,0.041 c 0.5,0.53959 -0.5528,0.44514 0,0 z m 7.2558,0.0274 c 0.023,0.0349 -0.1681,0.22488 -0.1113,0.0371 0.073,-0.0422 0.1036,-0.0487 0.1113,-0.0371 z m 1.8555,0 c 0.039,0.0451 -0.018,0.30833 -0.074,0.0547 0.038,-0.0607 0.061,-0.0697 0.074,-0.0547 z m -12.5196,0.01 c 0.038,-7.3e-4 0.1693,0.17437 0.01,0.0762 -0.023,-0.0559 -0.02,-0.0759 -0.01,-0.0762 z m -4.9199,0.0117 c 0.2269,-0.048 -0.1285,0.20247 0,0 z m 20.461,0.0137 c 0.078,0.0586 -0.1109,0.28411 -0.1817,0.0215 0.099,-0.0417 0.1557,-0.041 0.1817,-0.0215 z m -12.5157,0.0664 c 0.062,0.0353 -0.059,0.50186 -0.1308,0.1543 0.07,-0.13029 0.1102,-0.16608 0.1308,-0.1543 z m -6.3808,0.0273 c 0.2173,-0.003 -0.227,0.42686 -0.1367,0.0312 0.061,-0.0217 0.1056,-0.0309 0.1367,-0.0312 z m 1.2168,0.0117 c 0.084,0.047 -0.1248,0.37009 -0.1973,0.0781 0.1095,-0.0786 0.1692,-0.0938 0.1973,-0.0781 z m -0.3047,0.0449 c 0.078,0.0653 -0.134,0.28389 -0.1914,0.01 0.1072,-0.0363 0.1653,-0.0315 0.1914,-0.01 z m -1.2949,0.0293 c 0.2146,-0.006 0.07,0.45942 -0.1153,0.0352 0.046,-0.0242 0.085,-0.0343 0.1153,-0.0352 z m 11.8183,0.0312 c -0.097,0.0582 -0.1396,0.10489 -0.1621,0.14649 -0.019,0.007 -0.026,-0.004 -0.066,0.0332 -0.017,0.15981 0.033,0.1273 0.074,0.0684 0.099,0.0831 0.4151,0.0228 0.1543,-0.24805 z m -10.0097,0.0879 c 0.054,0.0252 0.017,0.19382 -0.086,0.0391 0.04,-0.0412 0.068,-0.0475 0.086,-0.0391 z m 4.3242,0.0371 c 2.315,1.21087 -2.0231,2.01368 0,0 z m 0.5019,0.0274 c 0.1645,-0.0631 0.1467,0.37826 -0.082,0.0605 0.031,-0.0333 0.059,-0.0515 0.082,-0.0605 z m 6.084,0.0684 c 0.2967,9.4e-4 -0.1851,0.27326 0,0 z m -11.4472,0.0566 c 0.29,0.0242 -0.1413,0.27647 0,0 z m 12.2519,0.0195 c 0.3193,0.0578 -0.2984,0.197 0,0 z m -14.293,0.0137 c 0.475,0.35354 -0.4101,0.31864 0,0 z m 0.5078,0.0684 c 0.2483,-0.0831 -0.1085,0.25437 0,0 z m 15.2872,0.0176 c 0.013,0.0379 -0.1327,0.16045 -0.08,0.004 0.053,-0.0196 0.076,-0.0165 0.08,-0.004 z m -5.7325,0.0137 c -0.05,0.0153 -0.1129,0.0526 -0.1914,0.11914 0.2317,0.72772 0.5389,-0.22619 0.1914,-0.11914 z m 7.1778,0.0566 c 0.1754,-0.0146 -0.065,0.44358 -0.1035,0.0391 0.044,-0.0253 0.078,-0.037 0.1035,-0.0391 z m -16.9473,0.0332 c 0.4288,-0.024 -0.402,0.23957 0,0 z m 13.2109,0.0117 c 0.1016,0.0255 -0.2052,0.71156 -0.07,0.0352 0.034,-0.0292 0.056,-0.0388 0.07,-0.0352 z m 0.9336,0.0293 c 0.3357,0.0713 -0.2414,0.29433 0,0 z m -1.0566,0.0332 c 0.01,0.0306 -0.1247,0.12881 -0.062,0.002 0.044,-0.016 0.061,-0.0122 0.062,-0.002 z m 6.8418,0.0195 c 0.016,0.0196 -0.05,0.15103 -0.049,0.0312 0.029,-0.0317 0.043,-0.0378 0.049,-0.0312 z m -4.6504,0.11719 c 0.045,-0.007 0.1582,0.18159 -0.01,0.0898 -0.012,-0.0626 -0.01,-0.0877 0.01,-0.0898 z m 2.0078,0.22851 c 0.049,0.0582 -0.1663,0.31394 -0.1562,0.0352 0.093,-0.0513 0.1399,-0.0546 0.1562,-0.0352 z m -17.8984,0.0391 c -0.2062,0.30302 0.3472,-0.0131 0,0 z m 20.8359,0.0684 c -0.042,-5.5e-4 -0.082,0.0223 0,0.0684 0.082,-0.0439 0.039,-0.0678 0,-0.0684 z m -2.3887,0.0195 c -0.021,0.0441 -0.328,0.18935 -0.1054,0.006 0.087,-0.0236 0.1123,-0.0205 0.1054,-0.006 z m -3.8593,0.0762 c 0.1845,-0.0145 -0.1583,0.12307 0,0 z m 0.4082,0.0156 c 0.041,-0.008 0.1435,0.0126 0.3418,0.0899 -0.038,0.21558 -0.4651,-0.0659 -0.3418,-0.0899 z m 2.9922,0.0332 c 0.2283,0.0283 -0.2522,0.17123 0,0 z m -3.6934,0.084 c 0.1952,-0.005 -0.1616,0.1527 0,0 z m -14.0254,0.0156 c -0.1963,0.20299 0.2847,-0.0445 0,0 z m 18.3945,0.0117 c -0.4146,0.23199 0.4013,0.18042 0,0 z m -4.8574,0.12109 c 0.034,-0.0429 0.2157,0.0758 0.035,0.10547 -0.041,-0.0598 -0.046,-0.0912 -0.035,-0.10547 z m 1.7324,0.0742 c -0.136,0.0952 0.1444,0.0223 0,0 z m 2.4551,0.11133 c -0.5151,0.13987 0.5792,0.25279 0,0 z m -2.5898,0.0742 c -0.5223,0.16887 0.4481,0.23504 0,0 z"
       id="rect5278"
       inkscape:connector-curvature="0" />
  </g>
</svg>
