<?xml version="1.0" encoding="UTF-8" standalone="no"?>
<!-- Created with Inkscape (http://www.inkscape.org/) -->

<svg
   xmlns:dc="http://purl.org/dc/elements/1.1/"
   xmlns:cc="http://creativecommons.org/ns#"
   xmlns:rdf="http://www.w3.org/1999/02/22-rdf-syntax-ns#"
   xmlns:svg="http://www.w3.org/2000/svg"
   xmlns="http://www.w3.org/2000/svg"
   xmlns:sodipodi="http://sodipodi.sourceforge.net/DTD/sodipodi-0.dtd"
   xmlns:inkscape="http://www.inkscape.org/namespaces/inkscape"
   version="1.1"
   id="svg2"
   width="385.14929"
   height="160.39999"
   viewBox="0 0 385.14931 160.39999"
   sodipodi:docname="ostatni.svg"
   inkscape:version="0.92.2 (5c3e80d, 2017-08-06)">
  <metadata
     id="metadata8">
    <rdf:RDF>
      <cc:Work
         rdf:about="">
        <dc:format>image/svg+xml</dc:format>
        <dc:type
           rdf:resource="http://purl.org/dc/dcmitype/StillImage" />
        <dc:title />
      </cc:Work>
    </rdf:RDF>
  </metadata>
  <defs
     id="defs6" />
  <sodipodi:namedview
     pagecolor="#ffffff"
     bordercolor="#666666"
     borderopacity="1"
     objecttolerance="10"
     gridtolerance="10"
     guidetolerance="10"
     inkscape:pageopacity="0"
     inkscape:pageshadow="2"
     inkscape:window-width="1366"
     inkscape:window-height="704"
     id="namedview4"
     showgrid="false"
     inkscape:zoom="1.4142136"
     inkscape:cx="156.73025"
     inkscape:cy="16.335968"
     inkscape:window-x="0"
     inkscape:window-y="27"
     inkscape:window-maximized="1"
     inkscape:current-layer="layer2"
     showguides="true"
     inkscape:guide-bbox="true"
     fit-margin-top="0"
     fit-margin-left="0"
     fit-margin-right="0"
     fit-margin-bottom="0">
    <sodipodi:guide
       position="-632.15345,-261.26529"
       orientation="1,0"
       id="guide5284"
       inkscape:locked="false" />
    <sodipodi:guide
       position="-358.50309,-167.22013"
       orientation="1,0"
       id="guide5286"
       inkscape:locked="false" />
    <sodipodi:guide
       position="2.6260339e-05,-133.27901"
       orientation="1,0"
       id="guide5288"
       inkscape:locked="false" />
    <sodipodi:guide
       position="-927.44853,160.75078"
       orientation="0,1"
       inkscape:locked="false"
       id="guide1611" />
    <sodipodi:guide
       position="-988.34552,0.49999967"
       orientation="0,1"
       id="guide118"
       inkscape:locked="false" />
    <sodipodi:guide
       position="385.14932,0.45845967"
       orientation="1,0"
       id="guide140"
       inkscape:locked="false" />
    <sodipodi:guide
       position="-986.70103,0.50076779"
       orientation="1,0"
       id="guide1129"
       inkscape:locked="false" />
  </sodipodi:namedview>
  <g
     inkscape:groupmode="layer"
     id="layer2"
     inkscape:label="Layer 2"
     transform="translate(-1241.6796,-125.55509)">
    <rect
       style="fill:#ffffff;fill-opacity:1;stroke-width:0.99890488"
       id="rect1137"
       width="385.14929"
       height="159.89999"
       x="1241.6796"
       y="125.55509" />
    <path
       style="fill:#e51f40;fill-opacity:1;stroke-width:0.99921966"
       d="m 1626.8262,125.95509 v 160 0 z m -207.2852,135.11505 -0.2422,0.21452 c -0.1362,0.11786 -0.2461,0.24489 -0.2461,0.27105 0,0.0327 -0.022,0.0585 -0.053,0.0585 -0.026,0 -0.1001,0.0786 -0.1601,0.18332 -0.061,0.0982 -0.1579,0.21669 -0.2149,0.26911 -0.057,0.0523 -0.1035,0.1174 -0.1035,0.15015 0,0.0262 -0.024,0.0507 -0.051,0.0507 -0.026,0 -0.083,0.0515 -0.125,0.11701 -0.038,0.0589 -0.1168,0.15038 -0.1738,0.2028 -0.061,0.0523 -0.1055,0.11937 -0.1055,0.15211 0,0.0262 -0.023,0.0526 -0.053,0.0526 -0.026,0 -0.1001,0.0786 -0.1601,0.18332 -0.061,0.0982 -0.1579,0.21669 -0.2149,0.26911 -0.056,0.0524 -0.1015,0.11544 -0.1015,0.14819 0,0.0262 -0.024,0.0526 -0.051,0.0526 -0.026,0 -0.083,0.0534 -0.125,0.11896 -0.038,0.0589 -0.1169,0.15038 -0.1739,0.2028 -0.062,0.0524 -0.1054,0.11741 -0.1054,0.15015 0,0.0263 -0.025,0.0526 -0.055,0.0526 -0.026,0 -0.098,0.0786 -0.1621,0.18331 -0.1059,0.17025 -0.3182,0.40561 -0.3672,0.40561 -0.011,0 -0.023,-0.17073 -0.023,-0.38026 0,-0.2095 -0.014,-0.40538 -0.037,-0.44462 -0.019,-0.0328 -0.037,-0.30849 -0.047,-0.61623 l -0.01,-0.55577 -0.1856,-0.0195 c -0.1022,-0.0131 -0.2056,0.0121 -0.2246,0.0448 -0.023,0.0392 -0.1811,0.0722 -0.3515,0.0722 -0.174,0 -0.325,0.0335 -0.336,0.0663 -0.011,0.0393 -0.182,0.0663 -0.375,0.0663 -0.1892,0 -0.3637,0.0259 -0.3867,0.0585 -0.019,0.0393 -0.1101,0.0708 -0.2051,0.0839 l -0.1699,0.0195 -0.012,0.45242 c -0.01,0.25535 0.01,0.48533 0.031,0.52457 0.023,0.0393 0.037,0.39247 0.037,0.86388 0,0.46487 0.016,0.81812 0.039,0.84438 0.023,0.0262 0.037,0.3603 0.037,0.78589 0,0.42556 0.014,0.75972 0.037,0.78588 0.023,0.0197 0.039,0.20209 0.039,0.39197 0,0.28154 -0.015,0.3662 -0.072,0.42511 -0.042,0.0328 -0.095,0.10497 -0.125,0.14431 -0.026,0.0458 -0.1286,0.15664 -0.2266,0.24181 -0.1016,0.0852 -0.1816,0.18371 -0.1816,0.21646 0,0.0262 -0.022,0.0526 -0.049,0.0526 -0.026,0 -0.087,0.0586 -0.1328,0.13065 -0.045,0.072 -0.094,0.13066 -0.1133,0.13066 -0.015,0 -0.066,0.0535 -0.1074,0.11895 -0.038,0.0589 -0.152,0.18405 -0.25,0.26911 -0.1026,0.0852 -0.1817,0.18177 -0.1817,0.21452 0,0.0262 -0.024,0.0526 -0.051,0.0526 -0.027,0 -0.087,0.0586 -0.1328,0.13065 -0.045,0.0721 -0.094,0.1326 -0.1133,0.1326 -0.014,0 -0.063,0.0515 -0.1054,0.11701 -0.038,0.0589 -0.152,0.18394 -0.25,0.26911 -0.1026,0.0851 -0.1817,0.18176 -0.1817,0.21452 0,0.0261 -0.022,0.0526 -0.049,0.0526 -0.026,0 -0.087,0.0586 -0.1328,0.13066 -0.045,0.072 -0.094,0.1326 -0.1133,0.1326 -0.014,0 -0.063,0.0515 -0.1054,0.11701 -0.038,0.0589 -0.152,0.18394 -0.25,0.26911 -0.1026,0.0852 -0.1817,0.18175 -0.1817,0.2145 0,0.0262 -0.022,0.0526 -0.049,0.0526 -0.027,0 -0.087,0.0586 -0.1328,0.13066 -0.045,0.072 -0.094,0.1326 -0.1133,0.1326 -0.015,0 -0.066,0.0515 -0.1074,0.11701 -0.038,0.0589 -0.15,0.18404 -0.248,0.26911 -0.1017,0.0852 -0.1817,0.18371 -0.1817,0.21646 0,0.0262 -0.026,0.0507 -0.053,0.0507 -0.03,0 -0.083,0.0527 -0.1172,0.1248 -0.061,0.11783 -0.058,0.13873 0.021,0.37442 0.042,0.1375 0.1066,0.28763 0.1446,0.33346 0.076,0.0982 0.6168,0.10995 0.6738,0.0117 0.019,-0.0328 0.1121,-0.0579 0.2031,-0.0448 l 0.166,0.0195 0.012,1.59711 c 0,1.02141 -3e-4,1.62344 -0.029,1.66927 -0.023,0.0393 -0.039,1.23163 -0.039,3.41848 0,2.16721 -0.014,3.37283 -0.037,3.39899 -0.025,0.0325 -0.035,1.44246 -0.025,2.44735 h -6.8222 c 0,-0.0196 0,-0.14036 -0.012,-0.14236 -0.024,-0.0156 -0.039,-0.7337 -0.039,-2.02612 0,-1.30416 -0.016,-2.01632 -0.039,-2.03979 -0.029,-0.0274 -0.029,-0.3854 -0.029,-0.99454 l 0.012,-0.95359 0.1719,-0.0117 c 0.094,-0.008 0.1909,0.008 0.2109,0.0272 0.059,0.0584 0.6173,0.051 0.6953,-0.008 0.039,-0.0274 0.1054,-0.11684 0.1484,-0.19891 0.082,-0.14054 0.084,-0.15202 0.022,-0.22231 -0.035,-0.0429 -0.09,-0.0741 -0.121,-0.0741 -0.027,0 -0.051,-0.0157 -0.051,-0.0312 0,-0.0196 -0.082,-0.078 -0.1875,-0.1287 -0.1016,-0.0507 -0.2189,-0.12476 -0.2579,-0.15991 -0.043,-0.039 -0.094,-0.0702 -0.1093,-0.0702 -0.02,0 -0.07,-0.0351 -0.1172,-0.078 -0.047,-0.0429 -0.1097,-0.078 -0.1367,-0.078 -0.027,0 -0.053,-0.0156 -0.053,-0.0312 0,-0.0196 -0.082,-0.078 -0.1875,-0.12871 -0.1017,-0.0507 -0.2208,-0.12475 -0.2598,-0.1599 -0.043,-0.039 -0.094,-0.0722 -0.1094,-0.0722 -0.02,0 -0.07,-0.035 -0.1172,-0.078 -0.047,-0.0429 -0.1097,-0.078 -0.1367,-0.078 -0.027,0 -0.051,-0.0156 -0.051,-0.0311 0,-0.0196 -0.082,-0.078 -0.1875,-0.12871 -0.1016,-0.0508 -0.2188,-0.12476 -0.2578,-0.1599 -0.043,-0.039 -0.094,-0.0702 -0.1094,-0.0702 -0.019,0 -0.07,-0.035 -0.1172,-0.078 -0.047,-0.0429 -0.1097,-0.078 -0.1367,-0.078 -0.027,0 -0.053,-0.0155 -0.053,-0.0311 0,-0.0196 -0.082,-0.0779 -0.1875,-0.12871 -0.1017,-0.0507 -0.2207,-0.12476 -0.2598,-0.15991 -0.043,-0.039 -0.094,-0.0702 -0.1093,-0.0702 -0.019,0 -0.07,-0.035 -0.1172,-0.078 -0.047,-0.0429 -0.1097,-0.078 -0.1367,-0.078 -0.027,0 -0.051,-0.0156 -0.051,-0.0312 0,-0.0195 -0.082,-0.078 -0.1875,-0.1287 -0.1017,-0.0507 -0.2074,-0.11695 -0.2344,-0.14431 -0.031,-0.0235 -0.086,-0.0663 -0.1289,-0.0858 -0.059,-0.0351 -0.074,-0.0876 -0.074,-0.25547 0,-0.11324 0.016,-0.22233 0.039,-0.23401 0.024,-0.0156 0.039,-0.21426 0.039,-0.46802 0,-0.25382 0.016,-0.45244 0.039,-0.46802 0.024,-0.0157 0.039,-0.22784 0.039,-0.50507 0,-0.28113 0.016,-0.49135 0.039,-0.51481 0.021,-0.0234 0.041,-0.15975 0.031,-0.31202 l -0.012,-0.26911 -0.1758,-0.0117 c -0.098,-0.008 -0.1919,-0.0273 -0.2109,-0.0507 -0.024,-0.0196 -0.2029,-0.0331 -0.3985,-0.0331 -0.1994,0 -0.3766,-0.0175 -0.3886,-0.0409 -0.012,-0.0196 -0.1678,-0.039 -0.3477,-0.039 -0.176,0 -0.3393,-0.0195 -0.3633,-0.0429 -0.019,-0.0194 -0.1249,-0.0353 -0.2305,-0.0274 l -0.1914,0.0117 -0.012,0.33151 c -0.01,0.18352 -0.029,0.34705 -0.049,0.36662 -0.023,0.0234 -0.037,0.14028 -0.037,0.2652 0,0.12497 -0.013,0.22622 -0.025,0.22622 -0.051,0 -0.2713,-0.14029 -0.3808,-0.24181 -0.066,-0.0625 -0.141,-0.10921 -0.168,-0.10921 -0.031,0 -0.057,-0.0156 -0.057,-0.0312 0,-0.0196 -0.047,-0.0585 -0.1094,-0.0897 -0.059,-0.0312 -0.1406,-0.0858 -0.1796,-0.1209 -0.043,-0.039 -0.102,-0.0702 -0.129,-0.0702 -0.027,0 -0.051,-0.0137 -0.051,-0.0293 0,-0.0196 -0.046,-0.0584 -0.1054,-0.0897 -0.059,-0.0312 -0.1597,-0.10129 -0.2227,-0.1599 -0.062,-0.0625 -0.137,-0.10921 -0.164,-0.10921 -0.031,0 -0.055,-0.0156 -0.055,-0.0312 0,-0.0196 -0.047,-0.0585 -0.1094,-0.0897 -0.059,-0.0312 -0.1427,-0.0858 -0.1817,-0.12091 -0.043,-0.039 -0.1019,-0.0722 -0.1289,-0.0722 -0.027,0 -0.051,-0.0157 -0.051,-0.0312 0,-0.0196 -0.048,-0.0584 -0.1054,-0.0897 -0.059,-0.0312 -0.1607,-0.1013 -0.2227,-0.15991 -0.063,-0.0625 -0.137,-0.10921 -0.164,-0.10921 -0.031,0 -0.055,-0.0155 -0.055,-0.035 0,-0.0156 -0.1132,-0.0897 -0.254,-0.15991 l -0.25,-0.1287 -0.2187,0.10529 c -0.1174,0.0587 -0.2406,0.12865 -0.2676,0.15212 -0.024,0.0273 -0.1288,0.0897 -0.2344,0.1404 -0.1016,0.0508 -0.1835,0.10914 -0.1835,0.12871 0,0.0155 -0.025,0.0312 -0.053,0.0312 -0.027,0 -0.086,0.0312 -0.1289,0.0702 -0.039,0.039 -0.1408,0.0974 -0.2188,0.1365 -0.078,0.039 -0.1683,0.0917 -0.1953,0.11896 -0.027,0.0274 -0.1327,0.0897 -0.2383,0.14041 -0.1016,0.0507 -0.1836,0.10923 -0.1836,0.1287 0,0.0156 -0.023,0.0292 -0.055,0.0292 -0.027,0 -0.1068,0.0506 -0.1738,0.11701 -0.07,0.0664 -0.1403,0.117 -0.1563,0.117 -0.019,0 -0.09,0.0545 -0.1562,0.117 -0.07,0.0664 -0.1403,0.11701 -0.1563,0.11701 -0.019,0 -0.09,0.0545 -0.1562,0.11701 -0.07,0.0664 -0.1403,0.117 -0.1563,0.117 -0.019,0 -0.09,0.0506 -0.1562,0.117 -0.07,0.0625 -0.1403,0.11701 -0.1563,0.11701 -0.019,0 -0.09,0.0545 -0.1562,0.11701 -0.07,0.0625 -0.1403,0.11699 -0.1563,0.11699 -0.019,0 -0.086,0.0467 -0.1484,0.10921 -0.063,0.0586 -0.1656,0.13061 -0.2246,0.16186 -0.059,0.0312 -0.1055,0.0701 -0.1055,0.0897 0,0.0156 -0.025,0.0311 -0.057,0.0311 -0.027,0 -0.1049,0.0545 -0.1719,0.11701 -0.07,0.0664 -0.1402,0.11701 -0.1562,0.11701 -0.02,0 -0.09,0.0506 -0.1563,0.11699 -0.07,0.0625 -0.1402,0.11701 -0.1562,0.11701 -0.02,0 -0.09,0.0506 -0.1563,0.11701 -0.07,0.0625 -0.1402,0.11701 -0.1562,0.11701 -0.02,0 -0.09,0.0506 -0.1563,0.117 -0.07,0.0625 -0.1402,0.117 -0.1562,0.117 -0.02,0 -0.088,0.0467 -0.1504,0.10921 -0.063,0.0586 -0.1637,0.12865 -0.2227,0.1599 -0.059,0.0312 -0.1054,0.0702 -0.1054,0.0897 0,0.0156 -0.023,0.0311 -0.055,0.0311 -0.027,0 -0.1049,0.0564 -0.1719,0.11895 -0.07,0.0664 -0.1402,0.11703 -0.1562,0.11701 -0.02,0 -0.09,0.0506 -0.1563,0.117 -0.07,0.0664 -0.1402,0.11701 -0.1562,0.11701 -0.02,0 -0.09,0.0506 -0.1563,0.117 -0.07,0.0625 -0.1402,0.11701 -0.1562,0.11701 -0.02,0 -0.09,0.0506 -0.1563,0.117 -0.07,0.0664 -0.1402,0.117 -0.1562,0.117 -0.02,0 -0.092,0.0545 -0.1582,0.11701 -0.07,0.0664 -0.1403,0.11702 -0.1563,0.11701 -0.019,0 -0.09,0.0545 -0.1562,0.117 -0.07,0.0664 -0.1403,0.117 -0.1563,0.117 -0.02,0 -0.09,0.0506 -0.1562,0.11701 -0.07,0.0625 -0.1403,0.117 -0.1563,0.11701 -0.019,0 -0.09,0.0545 -0.1562,0.11699 -0.07,0.0664 -0.1402,0.11896 -0.1602,0.11896 -0.02,0 -0.1053,0.07 -0.1953,0.15601 -0.086,0.0858 -0.1753,0.156 -0.1953,0.156 -0.02,0 -0.1073,0.07 -0.1973,0.15601 -0.086,0.0858 -0.1753,0.156 -0.1953,0.156 -0.016,0 -0.086,0.0545 -0.1523,0.11701 -0.07,0.0664 -0.1402,0.11701 -0.1602,0.11701 -0.055,0 -0.2426,0.20268 -0.2266,0.24961 0.01,0.0274 0.2457,0.0507 0.6563,0.0624 l 0.6426,0.0195 0.01,1.97153 c 0.01,1.24559 0.029,2.00076 0.053,2.05148 0.023,0.0507 0.041,0.82344 0.051,2.10803 v 0.10336 h -7.5528 v -0.25156 c 0.025,-1.4433 0.064,-3.77942 0.096,-5.19111 l 0.043,-2.56435 0.6367,-0.0507 c 0.3487,-0.0254 0.8989,-0.0702 1.2286,-0.0956 0.3297,-0.0254 0.6081,-0.0693 0.6211,-0.10725 0.013,-0.0317 -0.5708,-0.79081 -1.2872,-1.67706 -0.7164,-0.88628 -2.5363,-3.13304 -4.039,-4.99416 l -2.7363,-3.37363 -1.5918,0.0429 c -1.0652,0.0254 -1.6137,0.0205 -1.6387,-0.0176 -0.025,-0.0379 -0.07,-0.45052 -0.1016,-0.91264 -0.038,-0.46211 -0.088,-0.85997 -0.1133,-0.88533 -0.076,-0.076 -3.3792,-0.2607 -3.4492,-0.19111 -0.038,0.0379 -0.036,0.50736 0.012,1.2227 0.032,0.63936 0.039,1.18325 0.014,1.2149 -0.025,0.0254 -3.9132,0.1713 -8.6367,0.32956 -4.7235,0.15193 -8.9898,0.2965 -9.4844,0.32176 l -0.8945,0.039 -2.9023,4.53198 c -1.5915,2.49416 -2.8943,4.57638 -2.9043,4.63339 -0.01,0.0823 0.121,0.0956 0.8945,0.0956 0.4882,0 0.9126,0.0201 0.9316,0.039 0.025,0.019 0.1271,2.24086 0.2285,4.93761 0.063,1.5784 0.096,1.99362 0.1446,2.90366 h -7.5508 v -0.65717 c 0.01,-1.6573 0.036,-2.65487 0.066,-2.72036 0.03,-0.0655 0.052,-1.03739 0.062,-2.64431 l 0.01,-2.54486 0.8281,-0.0234 c 0.5297,-0.0152 0.8377,-0.0466 0.8477,-0.0819 0.02,-0.0605 -0.222,-0.32176 -0.293,-0.32176 -0.025,0 -0.116,-0.0666 -0.207,-0.15211 -0.086,-0.0806 -0.1773,-0.15016 -0.1973,-0.15016 -0.025,0 -0.1409,-0.0901 -0.2519,-0.20085 -0.116,-0.11085 -0.227,-0.20281 -0.252,-0.20281 -0.025,0 -0.1409,-0.09 -0.2519,-0.20086 -0.116,-0.1108 -0.227,-0.20086 -0.252,-0.20086 -0.025,0 -0.116,-0.0665 -0.207,-0.1521 -0.086,-0.0806 -0.1762,-0.15016 -0.2012,-0.15016 -0.02,0 -0.1121,-0.0716 -0.2031,-0.1521 -0.086,-0.0857 -0.1762,-0.15016 -0.2012,-0.15016 -0.02,0 -0.1082,-0.0665 -0.1992,-0.15211 -0.086,-0.0806 -0.1801,-0.15015 -0.2051,-0.15015 -0.02,0 -0.1082,-0.0665 -0.1992,-0.1521 -0.086,-0.0806 -0.1781,-0.15016 -0.2031,-0.15016 -0.02,0 -0.1102,-0.0666 -0.2012,-0.15211 -0.086,-0.0857 -0.1781,-0.15016 -0.2031,-0.15016 -0.02,0 -0.1102,-0.0715 -0.2012,-0.1521 -0.086,-0.0857 -0.1781,-0.15015 -0.2031,-0.15015 -0.02,0 -0.1102,-0.0665 -0.2012,-0.15212 -0.086,-0.0857 -0.1762,-0.15015 -0.2012,-0.15015 -0.02,0 -0.1121,-0.0665 -0.2031,-0.1521 -0.086,-0.0807 -0.1857,-0.15016 -0.2207,-0.15016 -0.04,0 -0.066,-0.0208 -0.066,-0.0409 0,-0.0252 -0.063,-0.0747 -0.1387,-0.11505 -0.076,-0.0403 -0.2061,-0.13112 -0.2871,-0.2067 -0.081,-0.0806 -0.1664,-0.14236 -0.1914,-0.14236 -0.02,0 -0.1121,-0.0696 -0.2031,-0.15016 -0.086,-0.0857 -0.1762,-0.15211 -0.2012,-0.15211 -0.02,0 -0.1121,-0.0696 -0.2031,-0.15015 -0.086,-0.0857 -0.1762,-0.15211 -0.2012,-0.15211 -0.02,0 -0.1082,-0.0696 -0.1992,-0.15015 -0.086,-0.0857 -0.1801,-0.15209 -0.2051,-0.1521 -0.02,10e-6 -0.1082,-0.0645 -0.1992,-0.15017 -0.086,-0.0807 -0.1896,-0.1521 -0.2246,-0.1521 -0.04,0 -0.068,-0.0189 -0.068,-0.039 0,-0.0253 -0.059,-0.0767 -0.1347,-0.11701 -0.076,-0.0403 -0.2081,-0.13112 -0.2891,-0.2067 -0.081,-0.0806 -0.1664,-0.1404 -0.1914,-0.1404 -0.02,0 -0.1102,-0.0696 -0.2012,-0.15017 -0.086,-0.0806 -0.1762,-0.1521 -0.2012,-0.1521 -0.02,0 -0.1121,-0.0696 -0.2031,-0.15016 -0.086,-0.0857 -0.1761,-0.1521 -0.2011,-0.1521 -0.02,0 -0.1102,-0.0645 -0.2012,-0.15016 -0.086,-0.0805 -0.1781,-0.15211 -0.2031,-0.15211 -0.02,0 -0.1102,-0.0645 -0.2012,-0.15015 -0.086,-0.0806 -0.1762,-0.15211 -0.2012,-0.15211 -0.02,0 -0.1121,-0.0645 -0.2031,-0.15015 -0.086,-0.0857 -0.1857,-0.15211 -0.2207,-0.15211 -0.04,0 -0.072,-0.0208 -0.072,-0.0409 0,-0.0252 -0.1052,-0.10026 -0.2363,-0.16576 -0.1364,-0.0655 -0.2736,-0.14611 -0.3086,-0.18136 -0.035,-0.0352 -0.1511,-0.0997 -0.252,-0.15015 -0.1009,-0.0504 -0.2312,-0.12703 -0.2812,-0.17746 -0.055,-0.0504 -0.133,-0.0897 -0.168,-0.0897 -0.034,0 -0.064,-0.0208 -0.064,-0.0409 0,-0.0253 -0.107,-0.10026 -0.2383,-0.16576 -0.1361,-0.0655 -0.2727,-0.14611 -0.3027,-0.18136 -0.035,-0.0302 -0.1904,-0.12137 -0.3418,-0.19696 l -0.2832,-0.1365 -0.3223,0.16771 c -0.1815,0.0907 -0.3281,0.18654 -0.3281,0.20671 0,0.0252 -0.03,0.0448 -0.07,0.0448 -0.035,0 -0.1319,0.0598 -0.2129,0.1404 -0.081,0.0756 -0.2111,0.16637 -0.2871,0.2067 -0.076,0.0402 -0.1368,0.0919 -0.1368,0.11701 0,0.0202 -0.026,0.039 -0.062,0.039 -0.035,0 -0.1129,0.0413 -0.1679,0.0917 -0.051,0.0453 -0.1545,0.11567 -0.2305,0.156 -0.081,0.0403 -0.1426,0.0899 -0.1426,0.11506 0,0.0202 -0.03,0.0409 -0.07,0.0409 -0.035,0 -0.1299,0.0598 -0.2109,0.14041 -0.081,0.0756 -0.2131,0.16637 -0.2891,0.20671 -0.076,0.0403 -0.1348,0.0899 -0.1348,0.11505 0,0.0202 -0.033,0.0409 -0.068,0.0409 -0.035,0 -0.111,0.0412 -0.166,0.0917 -0.05,0.0453 -0.1565,0.11567 -0.2325,0.15601 -0.081,0.0403 -0.1406,0.0899 -0.1406,0.11506 0,0.0202 -0.03,0.0409 -0.07,0.0409 -0.035,0 -0.1308,0.0598 -0.2168,0.14041 -0.1413,0.13098 -0.4223,0.31202 -0.4883,0.31202 -0.015,0 -0.029,-0.13132 -0.029,-0.29252 0,-0.16116 -0.023,-0.31101 -0.053,-0.34126 -0.025,-0.0252 -0.05,-0.23712 -0.061,-0.47387 l -0.014,-0.42901 -0.2481,-0.0137 c -0.1362,-0.0101 -0.2718,0.01 -0.2968,0.0351 -0.03,0.0303 -0.2417,0.0546 -0.4688,0.0546 -0.2321,0 -0.4342,0.0256 -0.4492,0.0507 -0.015,0.0303 -0.2427,0.0507 -0.5,0.0507 -0.2523,0 -0.4856,0.0197 -0.5156,0.0448 -0.025,0.0303 -0.1454,0.0562 -0.2715,0.0663 l -0.2266,0.0137 -0.016,0.34906 c -0.01,0.19644 0.01,0.37146 0.039,0.40171 0.03,0.0302 0.051,0.30229 0.051,0.66498 0,0.35764 0.021,0.62921 0.051,0.64938 0.03,0.0202 0.051,0.27708 0.051,0.60452 0,0.32742 0.02,0.58436 0.051,0.60453 0.03,0.0151 0.051,0.15619 0.051,0.30226 0,0.21662 -0.02,0.28229 -0.096,0.32762 -0.055,0.0252 -0.128,0.081 -0.168,0.11115 -0.035,0.0353 -0.1717,0.12171 -0.3028,0.18721 -0.1363,0.0655 -0.2421,0.14059 -0.2421,0.16575 0,0.0202 -0.03,0.0409 -0.064,0.0409 -0.035,0 -0.1167,0.044 -0.1777,0.0994 -0.061,0.0554 -0.1254,0.1014 -0.1504,0.1014 -0.02,0 -0.085,0.0393 -0.1406,0.0897 -0.05,0.0453 -0.2028,0.14121 -0.334,0.20671 -0.1362,0.0655 -0.2422,0.14255 -0.2422,0.16771 0,0.0202 -0.027,0.039 -0.062,0.039 -0.035,0 -0.1167,0.046 -0.1777,0.10141 -0.061,0.0554 -0.1254,0.1014 -0.1504,0.1014 -0.02,0 -0.087,0.0393 -0.1426,0.0897 -0.05,0.0453 -0.2008,0.14122 -0.332,0.20671 -0.1362,0.0655 -0.2422,0.1406 -0.2422,0.16576 0,0.0202 -0.029,0.0409 -0.064,0.0409 -0.035,0 -0.1148,0.046 -0.1758,0.1014 -0.061,0.0554 -0.1273,0.0994 -0.1523,0.0994 -0.02,0 -0.085,0.0412 -0.1406,0.0917 -0.051,0.0453 -0.2009,0.14122 -0.3321,0.20671 -0.1362,0.0655 -0.2422,0.14059 -0.2422,0.16575 0,0.0202 -0.031,0.0409 -0.066,0.0409 -0.035,0 -0.1147,0.044 -0.1757,0.0994 -0.061,0.0554 -0.1274,0.10141 -0.1524,0.10141 -0.02,0 -0.085,0.0393 -0.1406,0.0897 -0.051,0.0453 -0.2028,0.14121 -0.334,0.2067 -0.1362,0.0655 -0.2422,0.14255 -0.2422,0.16771 0,0.0202 -0.029,0.039 -0.064,0.039 -0.04,0 -0.1113,0.0401 -0.1563,0.0956 -0.081,0.0907 -0.081,0.10729 0.025,0.28861 0.056,0.1058 0.1414,0.22022 0.1914,0.25546 0.1009,0.0758 0.8205,0.0852 0.8965,0.01 0.025,-0.0252 0.1523,-0.0452 0.2734,-0.0351 l 0.2227,0.0156 0.014,1.22855 c 0.01,0.78584 -10e-5,1.24985 -0.039,1.2851 -0.03,0.0303 -0.051,0.94819 -0.051,2.63066 0,1.66736 -0.021,2.59294 -0.051,2.6131 -0.015,0.009 -0.015,0.43213 -0.025,0.70788 -24.7504,0.64624 -74.3754,-0.76475 -74.3754,-0.76475 v 1.01989 h 363.3535 l -154.5019,-0.30421 c -1.6315,-0.94818 -0.8697,-4.26092 0.8515,-5.21451 1.3904,-0.43903 4.3572,-2.15807 5.3614,-0.99259 -0.034,0.0145 -0.07,0.0315 -0.1329,0.0702 -0.2134,0.35952 0.082,0.11038 0.17,-0.0195 0.043,0.0555 0.067,0.13806 0.1015,0.20476 -0.016,-0.007 -0.041,0.0103 -0.08,0.0897 0.074,0.23895 0.121,-0.0274 0.084,-0.08 0.1151,0.22547 0.2031,0.49562 0.2031,0.87949 -0.091,-0.16837 -0.1739,-0.30091 -0.2539,-0.42123 0.013,-0.0203 5e-4,-0.0263 -0.018,-0.0292 -0.2915,-0.43356 -0.5011,-0.55487 -0.6328,-0.49337 -0.014,-0.006 -0.018,-0.0166 -0.066,-0.006 -0.055,0.0894 -0.051,0.12222 -0.029,0.1326 0,0 -0.014,0.007 -0.014,0.006 -0.037,0.0967 -0.047,0.24805 -0.037,0.40757 0.024,0.82176 0.6257,2.18946 1.8008,1.42355 0.085,-0.11299 0.169,-0.21049 0.252,-0.29446 -0.011,-0.0107 -0.01,-0.0301 0.043,-0.0663 0.018,0.005 0.01,0.009 0.019,0.0137 1.2193,-1.14037 2.2797,0.58951 3.4629,-0.46607 0.498,0.17769 1.0286,0.076 1.5273,-0.16771 -0.01,-0.015 -0.013,-0.0215 -0.023,-0.039 0.063,-0.0273 0.1114,-0.0343 0.1504,-0.0293 1.0917,-0.60098 1.9647,-1.93016 1.791,-2.94462 -0.053,-0.0143 -0.095,-0.0519 -0.053,-0.16965 0.013,0.004 0.011,0.008 0.023,0.0117 -7e-4,-0.003 0,-0.005 0,-0.008 -0.1264,-1.08832 -0.7389,-1.86108 -1.4707,-2.60335 0.07,0.0695 0.3592,0.0564 0.1191,-0.14041 -0.1076,0.0453 -0.1445,0.0843 -0.1445,0.11506 -0.1574,-0.15887 -0.3155,-0.32847 -0.4805,-0.48752 0.042,-0.0353 0.048,-0.0749 -0.1,-0.10141 -0.3012,-0.29033 -0.5992,-0.5922 -0.8867,-0.91069 0.038,0.0109 0.1621,-0.0703 0.019,-0.0683 -0.032,0.0368 -0.033,0.0524 -0.023,0.0624 -0.201,-0.22303 -0.4013,-0.44883 -0.5801,-0.70202 -0.093,0.0455 -0.6277,-0.0683 -0.1289,-0.11701 0.047,0.0216 0.064,0.0371 0.088,0.0526 -0.1451,-0.21073 -0.2866,-0.42515 -0.4062,-0.66304 -0.019,-0.0269 -0.031,-0.0584 -0.049,-0.0858 -0.044,0.0611 -0.1279,0.11203 -0.09,-0.0487 0.035,-0.017 0.039,-0.005 0.057,-0.008 -0.2717,-0.42697 -0.472,-0.90157 -0.6407,-1.39625 0.055,-0.0434 0.093,-0.11946 -0.027,-0.0897 -0.176,-0.52646 -0.3379,-1.06125 -0.5371,-1.56786 -0.042,0.006 -0.082,0.005 -0.1191,-0.0254 0.047,-0.034 0.052,-0.0261 0.088,-0.0487 -0.045,-0.11147 -0.092,-0.22209 -0.1426,-0.32956 -0.062,0.0439 -0.095,0.0382 -0.029,-0.0683 -0.3677,-0.75314 -0.8958,-1.39215 -1.8515,-1.72973 -2.1999,-0.51614 -3.9205,-2.55936 -6.3243,-2.31084 l -0.4414,0.0448 -0.3828,0.17551 c -1.3136,2.20992 -2.9891,0.69323 -4.8887,0.69423 -1.355,-0.11684 -2.5209,0.3168 -3.582,0.98283 0.015,-0.0234 0.015,-0.0569 -0.022,-0.117 -0.3253,0.0569 -0.1078,0.16975 -0.01,0.1365 -0.7342,0.46508 -1.4191,1.03626 -2.0762,1.62832 -0.3964,0.11913 -0.8314,0.3216 -1.2597,0.56162 0.078,-0.1335 0.097,-0.25654 -0.1914,0.0897 0,0.01 0.01,0.008 0.01,0.0156 0.051,-0.0306 0.1033,-0.0543 0.1543,-0.0819 -0.06,0.0913 -0.1371,0.16861 -0.1661,0.08 -1.5947,0.95885 -2.9669,2.62866 -1.5136,4.26287 -2.5619,-0.28284 -1.536,3.31386 -3.9844,3.12792 -0.3268,0.24826 -0.5441,0.47074 -0.6855,0.67473 -0.015,-0.0148 -0.021,-0.0252 -0.043,-0.0429 -0.1995,0.0752 -0.1242,0.14394 -0.031,0.1677 -0.6465,1.17844 1.5439,1.70145 2.3378,2.75742 0.095,0.0492 0.1989,0.0771 0.2969,0.117 -0.2905,0.11542 0.1038,0.14952 0.2344,0.0936 0.1917,0.0631 0.3892,0.11056 0.5918,0.1482 0.029,-0.0232 0.08,-0.0493 0.1601,-0.078 0.1164,0.0592 0.1477,0.10085 0.1485,0.1326 -0.1007,-0.0139 -0.1979,-0.0362 -0.2969,-0.0546 -0.1581,0.12521 0.3086,0.16346 0.3086,0.0565 0,0 -0.01,-10e-4 -0.01,-0.002 1.3952,0.18341 3.0003,-0.0518 4.5898,0.29446 2.1392,1.84692 4.4391,-0.9136 6.584,0.74494 1.4275,1.17074 1.5436,4.01014 0,4.87714 l -7.8418,0.0351 h -11.789 l 0.01,-2.383 c 0.01,-2.15412 0.026,-3.45032 0.049,-3.53548 0.023,-0.0851 0.043,-1.34934 0.053,-3.43799 l 0.01,-3.30539 0.6211,-0.0331 c 0.3974,-0.0197 0.6267,-0.0595 0.6367,-0.10531 0.015,-0.0786 -0.1677,-0.41732 -0.2207,-0.41732 -0.019,0 -0.086,-0.0857 -0.1543,-0.19696 -0.064,-0.1048 -0.1335,-0.19695 -0.1484,-0.19695 -0.019,0 -0.1065,-0.11726 -0.1895,-0.26131 -0.087,-0.14406 -0.1685,-0.26326 -0.1875,-0.26326 -0.019,0 -0.1065,-0.11726 -0.1895,-0.26131 -0.087,-0.14403 -0.1704,-0.26132 -0.1894,-0.26132 -0.019,0 -0.088,-0.0857 -0.1563,-0.19696 -0.064,-0.10469 -0.1314,-0.19695 -0.1503,-0.19695 -0.015,0 -0.084,-0.0903 -0.1524,-0.19501 -0.065,-0.11129 -0.1314,-0.19696 -0.1504,-0.19696 -0.015,0 -0.084,-0.0857 -0.1523,-0.19696 -0.064,-0.10475 -0.1314,-0.19501 -0.1504,-0.19501 -0.015,0 -0.084,-0.0857 -0.1524,-0.19695 -0.064,-0.1048 -0.1313,-0.19696 -0.1503,-0.19696 -0.015,0 -0.084,-0.0857 -0.1524,-0.19695 -0.064,-0.11135 -0.1314,-0.19502 -0.1504,-0.19502 -0.015,0 -0.084,-0.0922 -0.1523,-0.19695 -0.064,-0.1113 -0.1314,-0.19696 -0.1504,-0.19696 -0.015,0 -0.084,-0.0857 -0.1524,-0.19695 -0.064,-0.11135 -0.1314,-0.19502 -0.1504,-0.19502 -0.015,0 -0.084,-0.0857 -0.1523,-0.19695 -0.064,-0.10481 -0.14,-0.19696 -0.166,-0.19696 -0.03,0 -0.055,-0.0265 -0.055,-0.0526 0,-0.0328 -0.045,-0.0978 -0.1016,-0.15016 -0.057,-0.0524 -0.1558,-0.16891 -0.2168,-0.26716 -0.062,-0.10479 -0.1255,-0.18526 -0.1445,-0.18526 -0.015,0 -0.082,-0.0903 -0.1504,-0.19501 -0.064,-0.11129 -0.1314,-0.19696 -0.1504,-0.19696 -0.015,0 -0.082,-0.0922 -0.1504,-0.19695 -0.064,-0.11134 -0.1353,-0.19501 -0.1543,-0.19501 -0.015,0 -0.082,-0.0922 -0.1504,-0.19696 -0.064,-0.11129 -0.1333,-0.19696 -0.1523,-0.19696 -0.015,1e-5 -0.082,-0.0857 -0.1504,-0.19695 -0.064,-0.10475 -0.139,-0.19501 -0.166,-0.19501 -0.03,0 -0.055,-0.0265 -0.055,-0.0526 0,-0.0327 -0.045,-0.0977 -0.1016,-0.15015 -0.057,-0.0524 -0.1538,-0.17086 -0.2148,-0.26911 -0.061,-0.10473 -0.1256,-0.1833 -0.1446,-0.1833 -0.015,0 -0.082,-0.0923 -0.1504,-0.19697 -0.064,-0.10479 -0.1333,-0.19695 -0.1523,-0.19695 -0.015,0 -0.082,-0.0903 -0.1504,-0.19501 -0.064,-0.11129 -0.1333,-0.19696 -0.1523,-0.19696 -0.015,0 -0.084,-0.0857 -0.1524,-0.19696 -0.064,-0.10474 -0.1314,-0.195 -0.1504,-0.195 -0.015,0 -0.084,-0.0857 -0.1523,-0.19697 -0.064,-0.10479 -0.1314,-0.19695 -0.1504,-0.19695 -0.015,0 -0.084,-0.0857 -0.1523,-0.19696 -0.064,-0.11124 -0.14,-0.19501 -0.1661,-0.19501 -0.03,0 -0.053,-0.0265 -0.053,-0.0526 0,-0.0328 -0.079,-0.1313 -0.1777,-0.21646 -0.1022,-0.0852 -0.2045,-0.19014 -0.2305,-0.23597 -0.026,-0.0458 -0.1134,-0.13146 -0.1894,-0.19695 -0.076,-0.0655 -0.1749,-0.16266 -0.2129,-0.22816 -0.042,-0.0655 -0.099,-0.11896 -0.125,-0.11896 -0.026,0 -0.049,-0.0246 -0.049,-0.0507 0,-0.0327 -0.079,-0.13129 -0.1777,-0.21646 -0.1022,-0.0851 -0.2036,-0.19013 -0.2266,-0.23596 -0.026,-0.0393 -0.1443,-0.15721 -0.2578,-0.25546 z m 34.2617,2.93487 c -0.017,-0.0153 -0.056,0.01 -0.1289,0.12091 0.029,0.34629 0.179,-0.0751 0.1289,-0.12091 z m -1.4765,0.46803 c 0.1489,0.007 0.1413,0.91503 -0.072,0.0585 0.028,-0.0436 0.051,-0.0595 0.072,-0.0585 z m 1.875,0.50506 c 0.3113,0.22682 -0.3932,0.20909 0,0 z m 4.3476,2.15873 c 0.2075,-0.0262 -0.1412,0.1878 0,0 z m 1.125,1.02185 c -0.017,-0.003 -0.046,0.004 -0.094,0.0195 -0.019,0.0255 -0.01,0.0237 -0.019,0.039 0.011,0.0221 0.019,0.0479 0.029,0.0702 0.065,-0.0457 0.134,-0.12073 0.084,-0.12871 z m 0.2461,0.36661 c -0.035,0.006 -0.096,0.0329 -0.1875,0.0917 0.01,0.025 0.021,0.0471 0.031,0.0722 0.1442,-0.0212 0.262,-0.18258 0.1563,-0.16381 z m -0.332,0.30226 c 0.117,0.21845 -0.2699,-0.0205 0,0 z m -0.5547,0.13651 c 0.04,0.004 0.1026,0.21862 -0.025,0.0878 0,-0.0663 0.012,-0.0888 0.025,-0.0878 z m -11.1074,0.87948 c 0.3116,-6.1e-4 -0.1562,0.32364 0,0 z m -11.4902,0.10921 c 0,-0.01 -0.022,-0.009 -0.062,0.0137 -0.038,0.13322 0.074,0.0155 0.062,-0.0137 z m 10.9785,1.2812 c 0.045,-0.008 0.073,0.25837 -0.047,0.12481 0.014,-0.0893 0.032,-0.12181 0.047,-0.12481 z m 13.5566,0.50897 c 0.012,0.0183 0.021,0.0383 0.033,0.0565 0.029,-0.0398 0.019,-0.0635 -0.033,-0.0565 z m 0.4844,0.1872 c -0.3678,0.30285 0.4534,0.0927 0,0 z m -18.6758,0.0448 c 0.3391,-0.0114 -0.2029,0.30539 0,0 z m 10.2031,0.0585 c 0.369,0.0601 -0.2666,0.64299 -0.2246,0.0117 0.099,-0.0177 0.1716,-0.0207 0.2246,-0.0117 z m -10.2793,0.0156 c 0,0.0351 -0.1364,0.14561 -0.066,0.002 0.047,-0.0176 0.065,-0.0136 0.066,-0.002 z m 3.2539,0.0215 c 0.3403,0.26288 -0.4323,0.20119 0,0 z m 14.9141,0.0215 c 0.2714,-0.0259 -0.132,0.27817 0,0 z m -15.4062,0.0117 c 0.378,-0.0254 -0.2951,0.43806 0,0 z m 7.4609,0.13262 c -0.084,0.14591 0.1653,-0.0387 0,0 z m -15.7656,0.0663 c 0.039,0.008 0.021,0.2454 -0.059,0.0917 0.025,-0.0714 0.045,-0.0947 0.059,-0.0917 z m 12.8633,0.0117 c 0.3376,0.1949 -0.4616,0.14151 0,0 z m 0.5312,0.0429 c 0.01,0.0306 -0.1116,0.13137 -0.061,0.004 0.042,-0.0166 0.061,-0.014 0.061,-0.004 z m -13.2109,0.28275 c 0.1533,0.22171 -0.2505,0.0913 0,0 z m 10.4453,0.0507 c 0.036,0.0299 -0.038,0.24393 -0.078,0.0526 0.043,-0.0531 0.066,-0.0626 0.078,-0.0526 z m -10.293,0.0468 c 0.1891,-0.0569 -0.1012,0.17735 0,0 z m 21.3984,0.0956 c 0.014,0.0326 -0.1192,0.16752 -0.074,0.0156 0.049,-0.0265 0.074,-0.0265 0.074,-0.0156 z m -0.2871,0.20476 c 0.055,-0.0132 0.129,0.30739 -0.039,0.15406 0,-0.10863 0.021,-0.15006 0.039,-0.15406 z m 3.836,0.0311 c -0.029,-0.004 -0.074,8.2e-4 -0.1387,0.0156 -0.235,0.40377 0.3403,0.01 0.1387,-0.0156 z m -25.3496,0.004 c 0.1288,0.21083 -0.439,0.0281 0,0 z m 17.0293,0.41731 c 0.062,0.004 0.099,0.27904 -0.064,0.11311 0.019,-0.0856 0.044,-0.11411 0.064,-0.11311 z m 1.2617,0.13065 c 0.018,0.0424 -0.1507,0.18802 -0.096,0.008 0.063,-0.0254 0.086,-0.0217 0.096,-0.008 z m 5.4492,0.0254 c 0.058,0.0441 -0.088,0.30315 -0.1367,0.0546 0.075,-0.0596 0.1177,-0.0693 0.1367,-0.0546 z m -7.2656,0.006 c 0.018,0.0349 -0.1052,0.28682 -0.076,0.0624 0.048,-0.0626 0.066,-0.0741 0.076,-0.0624 z m -12.0586,0.26327 c 0.051,0.045 -0.078,0.32143 -0.1211,0.0604 0.067,-0.0654 0.1041,-0.0755 0.1211,-0.0604 z m 0.3515,0.117 c 0.043,-0.0356 0.2339,0.12644 0.033,0.11506 -0.043,-0.0695 -0.046,-0.10318 -0.033,-0.11506 z m 0.1622,0.14236 c 0.3461,0.15444 -0.3951,0.23869 0,0 z m 9.1464,0.0663 c 0.359,-0.0608 -0.1786,0.42548 0,0 z m -0.3437,0.0409 c 0.2182,0.0243 -0.3785,0.18984 0,0 z m 11.5098,0.0487 c 0.015,0.0284 -0.1014,0.17638 -0.068,0.0274 0.044,-0.0324 0.068,-0.0373 0.068,-0.0274 z m -10.7364,0.0565 c 0.3363,-0.0748 -0.1634,0.3148 0,0 z m -1.9551,0.24572 c 0.027,0.0299 -0.096,0.25651 -0.086,0.0585 0.052,-0.0565 0.076,-0.0685 0.086,-0.0585 z m 0.01,0.1131 c 0.2931,-0.0333 -0.1458,0.23185 0,0 z m -0.9257,0.12091 c 0.012,0.0449 -0.1658,0.23939 -0.092,0.0254 0.062,-0.039 0.092,-0.0403 0.092,-0.0254 z m 13.2109,0.008 c 0.015,0.037 -0.1202,0.18124 -0.076,0.0137 0.051,-0.0273 0.076,-0.026 0.076,-0.0137 z m 0.4316,0.0761 c 0.1689,-0.0413 -0.086,0.14762 0,0 z m -29.791,1.3085 c 0.2878,-0.0454 -0.1084,0.25717 0,0 z m 17.9141,0.0507 c 0.014,0.0518 -0.1964,0.22426 -0.1074,0.008 0.073,-0.0289 0.1074,-0.0248 0.1074,-0.008 z m 1.8418,0.11895 c 0.043,-0.0228 0.1938,0.10847 0.01,0.0858 -0.026,-0.0531 -0.022,-0.0778 -0.01,-0.0858 z m -5.5567,0.10336 c 0.013,-0.0165 0.07,-0.0216 0.2032,0 0.1144,0.19738 -0.2422,0.0495 -0.2032,0 z m 17.9903,0.24571 c 0.2389,-0.0362 -0.098,0.19942 0,0 z m -1.3828,0.14041 c 0.3437,-0.0913 -0.1162,0.30974 0,0 z m -0.076,0.0331 c 0.013,0.0282 -0.1044,0.14087 -0.066,0.0117 0.044,-0.0218 0.066,-0.0207 0.066,-0.0117 z m -31.2149,0.44072 c -0.2863,-0.007 0.1434,0.15271 0,0 z m 32.9531,0.0663 c 0.015,0.0512 0.019,0.10278 0.029,0.156 0.1022,0.0274 0.2349,-0.0724 -0.029,-0.156 z m -30.7949,0.17551 c 0.2067,0.0208 -0.1815,0.14945 0,0 z m 2.5684,0.0156 c 0.1928,0.0186 -0.5957,0.56479 -0.1485,0.0292 0.074,-0.0233 0.1215,-0.0323 0.1485,-0.0292 z m -3.8418,0.002 c 0.1768,-0.0571 -0.09,0.171 0,0 z m 1.3554,0.0683 c 0.2799,0.11237 -0.3153,0.11203 0,0 z m 28.1075,0.18331 c 0.1964,0.1828 -0.4114,0.0485 0,0 z m -23.8692,0.002 c 0.054,-0.009 0.1946,0.25108 -0.01,0.12286 -0.017,-0.0878 -0.01,-0.11987 0.01,-0.12286 z m 24.1446,0.0273 c 0.3451,-0.002 -0.1919,0.23817 0,0 z m -28.6309,0.006 c 0.017,0.0565 -0.2141,0.25291 -0.1211,0.0117 0.083,-0.0335 0.1111,-0.0306 0.1211,-0.0117 z m 0.098,0.0292 c 0.017,0.0235 -0.067,0.14548 -0.057,0.0215 0.034,-0.0275 0.047,-0.0295 0.057,-0.0215 z m 4.4629,0.0994 c 0.134,-0.0424 -0.063,0.1284 0,0 z m 14.7949,0.0565 c 0.3041,0.0252 -0.2539,0.23618 0,0 z m -14.9668,0.0565 c 0.041,-0.0145 0.1344,-0.0134 0.3086,0.0195 -0.081,0.19781 -0.4318,0.0238 -0.3086,-0.0195 z m 2.4199,0.006 c 0.4419,0.0436 -0.2091,0.34877 0,0 z m 24.1778,0.01 c -0.1103,0.22138 0.2302,0.009 0,0 z m -27.5137,0.0565 c 0.4453,0.005 -0.5808,0.35281 0,0 z m -0.9629,0.0331 c 0.054,-0.005 0.1669,0.23364 -0.022,0.1092 -0.01,-0.0781 0.01,-0.1072 0.022,-0.1092 z m 16.9004,0.01 c 0.2122,-0.0581 -0.072,0.19566 0,0 z m 9.1445,0.08 c 0.022,0.0241 -0.061,0.20246 -0.061,0.0448 0.037,-0.0446 0.051,-0.0528 0.061,-0.0448 z m -25.3379,0.0351 c 0.3378,-0.0621 -0.2348,0.30032 0,0 z m 9.461,0.0448 c 0.04,0.0478 -0.1172,0.29648 -0.1172,0.0448 0.069,-0.0548 0.1042,-0.0608 0.1172,-0.0448 z m -7.6621,0.002 c 0.3959,-0.0463 0.879,0.40019 0.2578,0.63769 1.454,0.43346 -0.8909,0.16442 -0.4199,-0.58503 0.05,-0.0288 0.1051,-0.0456 0.1621,-0.0526 z m -2.8203,0.0215 c 0.041,-0.002 0.085,0.27753 -0.033,0.1209 0.01,-0.0899 0.02,-0.12037 0.033,-0.1209 z m 29.1035,0.002 c -0.01,-0.015 -0.034,-0.005 -0.084,0.0546 0.01,0.25139 0.1149,-0.01 0.084,-0.0546 z m -0.8614,0.0429 c 0.2285,-0.009 -0.1101,0.20333 0,0 z m -26.0234,0.039 c 0,0.0315 -0.1836,0.33865 -0.076,0.0917 0.057,-0.0813 0.076,-0.10214 0.076,-0.0917 z m 4.041,0.0176 c 0.2677,0.2684 -0.4584,0.053 0,0 z m -6.0273,0.006 c 0.081,0.005 -0.1185,0.31009 -0.1895,0.12481 0.1044,-0.0943 0.1625,-0.1268 0.1895,-0.12481 z m 4.7832,0.008 c 0.1555,-0.019 -0.071,0.43617 -0.092,0.0409 0.04,-0.026 0.07,-0.0379 0.092,-0.0409 z m 5.5156,0.0215 c 0.2109,-0.0762 0.3371,0.22595 0.2109,0.37441 0.022,0.0337 0.026,0.0508 0.045,0.0819 -0.019,-0.0164 0,-0.0526 0.098,-0.117 0.3564,0.0414 -0.041,0.16623 -0.098,0.117 0.7546,1.22896 -0.9355,0.53221 -0.5058,-0.195 -0.016,-0.01 -0.027,-0.004 -0.061,-0.0624 0.014,-0.22629 0.075,-0.0836 0.09,0.0195 0.052,-0.0735 0.1181,-0.14732 0.2207,-0.21841 z m -7.4648,0.0604 c 0,-0.0184 -0.038,-0.0245 -0.1211,0.004 -0.105,0.22813 0.1351,0.0516 0.1211,-0.004 z m 3.8925,0.0215 c 0.08,-0.0312 0.1546,0.44832 -0.068,0.2457 0.017,-0.16792 0.042,-0.23532 0.068,-0.2457 z m 15.084,0.0311 c 0.022,-0.0102 0.071,0.0102 0.1582,0.0956 -0.058,0.25128 -0.2252,-0.065 -0.1582,-0.0956 z m -1.9433,0.008 c 0.1339,0.0477 -0.01,0.45137 -0.2325,0.11115 0.112,-0.10416 0.1875,-0.12703 0.2325,-0.11115 z m 7.58,0.0351 c 0.05,0.0497 -0.1048,0.27672 -0.1308,0.0332 0.075,-0.0469 0.1138,-0.0497 0.1308,-0.0332 z m -17.2246,0.006 c -0.1715,0.27056 0.2905,-0.0746 0,0 z m 16.5313,0.002 c 0.02,0.0125 0.012,0.13215 -0.029,0.0351 0.014,-0.032 0.019,-0.0391 0.029,-0.0351 z m -20.8946,0.008 c 0.047,0.002 0.1085,0.012 0.1875,0.0351 -0.1175,0.34998 -0.5146,-0.0523 -0.1875,-0.0351 z m 14.2051,0.0137 c 0.2615,-0.081 -0.1621,0.25659 0,0 z m -20.6269,0.0156 c 0.061,-3.8e-4 -0.2618,0.39943 -0.2168,0.1716 0.1328,-0.12727 0.1968,-0.17147 0.2168,-0.1716 z m 4.8808,0.0565 c 0.1901,-0.0572 -0.1232,0.47047 -0.1132,0.0643 0.05,-0.0363 0.086,-0.0563 0.1132,-0.0643 z m 12.8203,0.004 c 0.039,-0.006 0.137,0.16032 -0.01,0.08 -0.012,-0.0559 -0.01,-0.078 0.01,-0.08 z m -16.9238,0.0311 c 0.049,0.009 0.061,0.0246 0.1016,0.0351 -0.018,-0.009 -0.046,-0.002 -0.1055,0.0624 0.038,0.25413 0.1502,-0.002 0.1152,-0.0585 1.1656,0.31391 -1.3779,1.27439 -0.1113,-0.039 z m 4.3692,0.004 c 1.6275,0.62731 -0.7905,1.24406 -0.3282,0.39782 -0.162,0.0477 -0.6149,-0.063 -0.084,-0.17941 0.071,0.043 0.1119,0.0771 0.1329,0.10531 0.063,-0.0937 0.1462,-0.19781 0.2792,-0.32372 z m -0.2793,0.32372 c -0.017,0.0251 -0.036,0.0512 -0.049,0.0741 0.049,-0.0136 0.083,-0.0288 0.049,-0.0741 z m -3.3926,-0.30226 c 0.094,0.31151 -0.4199,-0.0562 0,0 z m 11.6367,0.002 c 0.2364,0.83334 -0.2883,0.61154 -0.4512,0.33541 0.098,-0.0371 0.2254,-0.31139 -0.043,-0.17941 0.025,-0.10688 0.1581,-0.18466 0.4942,-0.156 z m 3.291,0.0741 c 0.027,0.0292 -0.1058,0.26174 -0.092,0.0624 0.056,-0.0584 0.082,-0.0724 0.092,-0.0624 z m -16.2265,0.004 c 0.064,-0.0174 0.2232,0.20436 -0.016,0.117 -0.018,-0.0794 -0.01,-0.11101 0.016,-0.117 z m 27.3359,0.01 c 0.7401,0.6548 -0.2624,0.41874 0,0 z m -20.1367,0.037 c 0.2253,-0.007 0.1162,0.11024 0.033,0.1326 -0.02,0.0828 -0.1697,0.19123 -0.1817,-0.037 0.08,-0.0275 0.1058,-0.0148 0.1368,-0.008 0,-0.0236 -0.014,-0.035 0.012,-0.0878 z m 10.375,0.008 c 0.047,0.0366 -0.054,0.28397 -0.1035,0.0585 0.057,-0.0605 0.089,-0.0708 0.1035,-0.0585 z m 6.1386,0 c 0.2202,-0.0362 -0.1391,0.21346 0,0 z m -18.6054,0.039 c -0.021,0.002 -0.029,0.0322 -0.019,0.11115 0.1856,0.11816 0.072,-0.11814 0.019,-0.11115 z m 0.7773,0.0195 c 0.087,0.0218 0.1833,0.0927 0.025,0.14625 -0.1875,-0.14027 -0.1114,-0.16802 -0.025,-0.14625 z m 16.2852,0.0156 c 0.4701,0.12434 -0.2904,0.65248 0,0 z m -12.4727,0.008 c 0.4904,-0.009 -0.2144,0.39326 0,0 z m 13.4727,0.01 c 0.1825,-0.0288 -0.1175,0.16805 0,0 z m -0.7383,0.002 c 0.507,0.004 -0.2444,0.4051 0,0 z m -1.3066,0.0176 c 0.1543,0.2767 -0.43,0.0587 0,0 z m -21.7676,0.008 c 0.035,0.006 0.083,0.20083 -0.022,0.0761 0,-0.0588 0.011,-0.0781 0.022,-0.0761 z m 0.6484,0.01 c 0.054,-0.0274 0.1929,0.16423 -0.01,0.117 -0.017,-0.0749 -0.01,-0.10802 0.01,-0.117 z m 19.9629,0.0234 c -0.064,0.0182 -0.1088,0.0387 -0.1348,0.0565 -0.066,-0.0379 -0.1354,-0.0485 -0.066,0.0839 0.061,0.0147 0.066,0.002 0.088,-0.002 0.095,0.056 0.3277,0.0548 0.1153,-0.13845 z m -7.2402,0.0254 c -0.2399,0.30262 0.3177,-0.0135 0,0 z m -5.1914,0.0137 c 0.1513,0.038 0.3896,0.51937 -0.094,0.15795 0,-0.1331 0.043,-0.17063 0.094,-0.15795 z m -0.2422,0.0234 c 0.087,0.0193 0.1812,0.44156 -0.07,0.15601 0.015,-0.12436 0.041,-0.162 0.07,-0.15601 z m 19.4785,0.0176 c 0.036,-0.008 0.1372,0.14835 0,0.0761 -0.014,-0.0539 -0.01,-0.0731 0,-0.0761 z m -5.541,0.006 c 0.1965,-0.0758 -0.1002,0.52277 -0.1172,0.078 0.05,-0.0434 0.089,-0.0672 0.1172,-0.078 z m -14.3399,0.039 c 0.3437,0 -0.204,0.25854 0,0 z m -4.3808,0.0117 c 0.046,-6.9e-4 0.1418,0.21434 -0.018,0.0936 -0.01,-0.0681 0,-0.0934 0.018,-0.0936 z m 20.664,0 c 0.038,0.0439 -0.1439,0.34068 -0.1269,0.0702 0.077,-0.0722 0.1139,-0.0849 0.1269,-0.0702 z m -0.9492,0.006 c 0,-0.009 -0.019,-0.008 -0.055,0.0137 -0.027,0.12308 0.067,0.0126 0.055,-0.0137 z m -12.2129,0.0274 c 0.047,0.005 0.089,0.0371 -0.022,0.08 -0.077,-0.064 -0.025,-0.085 0.022,-0.08 z m -4.0722,0.0156 c 0.2401,0.0912 -0.2498,0.17074 0,0 z m 16.7421,0.0254 c 0.2901,-0.0976 -0.14,0.3625 0,0 z m -0.086,0.0878 c 0.1934,-0.0526 -0.1059,0.18708 0,0 z m -7.7558,0.0409 c 0.5,0.53875 -0.5528,0.44444 0,0 z m 7.2558,0.0273 c 0.023,0.035 -0.1683,0.22453 -0.1113,0.037 0.073,-0.042 0.1013,-0.0486 0.1113,-0.037 z m 1.8555,0 c 0.039,0.0446 -0.018,0.30782 -0.074,0.0546 0.038,-0.0606 0.061,-0.0696 0.074,-0.0546 z m -12.5195,0.01 c 0.038,-7e-4 0.169,0.1741 0.01,0.0761 -0.023,-0.0558 -0.02,-0.0758 -0.01,-0.0761 z m -4.9199,0.0117 c 0.2269,-0.0479 -0.1285,0.20216 0,0 z m 20.4609,0.0137 c 0.078,0.0585 -0.1106,0.28365 -0.1816,0.0215 0.099,-0.0416 0.1556,-0.0409 0.1816,-0.0215 z m -6.9063,0.0351 c 0.06,0.0247 -0.027,0.0974 -0.092,0.11114 0.024,-0.0502 0.053,-0.0907 0.092,-0.11114 z m -5.6093,0.0312 c 0.062,0.0352 -0.059,0.50106 -0.1309,0.15405 0.07,-0.1301 0.1099,-0.16584 0.1309,-0.15405 z m -6.3812,0.0231 c 0.2173,-0.003 -0.2267,0.42624 -0.1367,0.0311 0.061,-0.0212 0.1057,-0.0308 0.1367,-0.0311 z m 1.2168,0.0117 c 0.084,0.0469 -0.1252,0.36953 -0.1972,0.078 0.1092,-0.0785 0.1692,-0.0937 0.1972,-0.078 z m -0.3046,0.0448 c 0.078,0.0654 -0.1345,0.28322 -0.1915,0.01 0.1075,-0.0365 0.1655,-0.0312 0.1915,-0.01 z m -1.295,0.0293 c 0.2146,-0.006 0.07,0.45865 -0.1152,0.0351 0.046,-0.0242 0.085,-0.0342 0.1152,-0.0351 z m 11.8184,0.0312 c -0.097,0.0581 -0.1391,0.10471 -0.1621,0.14625 -0.019,0.007 -0.024,-0.004 -0.064,0.0331 -0.017,0.15954 0.031,0.12705 0.072,0.0683 0.099,0.083 0.4151,0.0228 0.1543,-0.24765 z m -10.0098,0.0878 c 0.054,0.0252 0.017,0.19348 -0.086,0.039 0.04,-0.041 0.068,-0.047 0.086,-0.039 z m 4.3242,0.037 c 2.315,1.20898 -2.0231,2.01054 0,0 z m 0.502,0.0273 c 0.1645,-0.0631 0.1467,0.37772 -0.082,0.0605 0.031,-0.0333 0.059,-0.0515 0.082,-0.0605 z m 6.084,0.0683 c 0.2967,9.4e-4 -0.1851,0.27284 0,0 z m -0.418,0.0487 c 0.1524,0.0254 -0.073,0.11829 -0.084,0.0839 0,-0.0115 0.018,-0.0366 0.084,-0.0839 z m -11.0293,0.008 c 0.29,0.0242 -0.1413,0.27605 0,0 z m 12.252,0.0195 c 0.3193,0.0577 -0.2984,0.1967 0,0 z m -14.293,0.0137 c 0.475,0.35299 -0.4101,0.31815 0,0 z m 0.5078,0.0683 c 0.2483,-0.083 -0.1085,0.25397 0,0 z m 15.2871,0.0176 c 0.013,0.0379 -0.1331,0.16011 -0.08,0.004 0.053,-0.0197 0.08,-0.0164 0.08,-0.004 z m -5.7324,0.0137 c -0.05,0.0153 -0.1124,0.0525 -0.1914,0.11895 0.2314,0.72659 0.5389,-0.22584 0.1914,-0.11895 z m 7.1777,0.0565 c 0.1754,-0.0146 -0.066,0.44286 -0.1035,0.039 0.043,-0.0253 0.079,-0.037 0.1035,-0.039 z m -16.9472,0.0331 c 0.4288,-0.024 -0.402,0.23919 0,0 z m 13.2109,0.0117 c 0.1019,0.0252 -0.2055,0.7104 -0.07,0.0351 0.034,-0.0292 0.056,-0.0391 0.07,-0.0351 z m 0.9336,0.0292 c 0.3357,0.0712 -0.2414,0.29387 0,0 z m -1.0566,0.0331 c 0.01,0.0306 -0.1236,0.12856 -0.061,0.002 0.044,-0.016 0.06,-0.0122 0.061,-0.002 z m 6.8418,0.0195 c 0.016,0.0195 -0.049,0.15085 -0.049,0.0312 0.029,-0.0316 0.039,-0.0382 0.049,-0.0312 z m -4.6504,0.117 c 0.045,-0.007 0.1584,0.18136 -0.01,0.0897 -0.012,-0.0625 -0.01,-0.0877 0.01,-0.0897 z m 4.6601,0.0234 c -0.042,0.0233 -0.084,0.0473 -0.1269,0.0683 0.2069,0.37941 0.3471,-0.0424 0.1269,-0.0683 z m -2.6523,0.20476 c 0.049,0.0581 -0.1663,0.31341 -0.1563,0.0351 0.093,-0.0512 0.1403,-0.0545 0.1563,-0.0351 z m -17.8985,0.039 c -0.2062,0.30255 0.3472,-0.0131 0,0 z m 20.836,0.0683 c -0.042,-4.9e-4 -0.082,0.0223 0,0.0683 0.082,-0.0438 0.039,-0.0677 0,-0.0683 z m -2.3887,0.0195 c -0.021,0.0441 -0.3281,0.18892 -0.1055,0.006 0.088,-0.0237 0.1155,-0.0204 0.1055,-0.006 z m -3.8594,0.0761 c 0.1845,-0.0145 -0.1583,0.12288 0,0 z m 0.4082,0.0156 c 0.041,-0.008 0.1435,0.0125 0.3418,0.0897 -0.038,0.21519 -0.4651,-0.0657 -0.3418,-0.0897 z m 2.9922,0.0332 c 0.2283,0.0282 -0.2522,0.17096 0,0 z m -3.6933,0.0839 c 0.1952,-0.005 -0.1616,0.15246 0,0 z m -14.0254,0.0156 c -0.1963,0.20268 0.2847,-0.0444 0,0 z m 18.3945,0.0117 c -0.4146,0.23162 0.4013,0.18013 0,0 z m -4.8574,0.12091 c 0.035,-0.0428 0.2158,0.0757 0.035,0.10529 -0.045,-0.0597 -0.046,-0.0911 -0.035,-0.10529 z m 1.6269,0.0137 c -0.02,0.0191 -0.04,0.0301 -0.061,0.0507 0.027,0.0267 0.1446,-0.008 0.061,-0.0507 z m 0.1055,0.0604 c -0.136,0.0951 0.1444,0.0223 0,0 z m 2.4551,0.11116 c -0.5151,0.13965 0.5792,0.25239 0,0 z m -2.5899,0.0741 c -0.5223,0.16861 0.4481,0.23467 0,0 z"
       id="rect156"
       inkscape:connector-curvature="0" />
    <g
       id="g1272"
       transform="translate(16)"
       style="fill:#fa023c">
      <g
         style="fill:#fa023c;stroke:none"
         transform="matrix(0.02388699,0,0,0.02388699,1514.8053,-132.19665)"
         id="layer1-3" />
      <g
         style="fill:#fa023c;stroke:none"
         transform="matrix(0.00634024,0,0,0.00634024,1326.3286,256.21784)"
         id="layer1-6" />
      <g
         id="g917"
         transform="matrix(-0.01851576,0,0,0.01851576,1222.0756,-37.508575)"
         style="fill:#fa023c;stroke:none" />
      <g
         transform="matrix(0.0223685,0,0,0.0223685,1414.0491,264.25718)"
         id="g985"
         style="fill:#fa023c" />
      <g
         id="g1228"
         transform="matrix(0.01791895,0,0,0.03104793,1556.4419,-259.42378)"
         style="fill:#fa023c;stroke:none" />
    </g>
  </g>
</svg>
