<?xml version="1.0" encoding="UTF-8" standalone="no"?>
<!-- Created with Inkscape (http://www.inkscape.org/) -->

<svg
   xmlns:dc="http://purl.org/dc/elements/1.1/"
   xmlns:cc="http://creativecommons.org/ns#"
   xmlns:rdf="http://www.w3.org/1999/02/22-rdf-syntax-ns#"
   xmlns:svg="http://www.w3.org/2000/svg"
   xmlns="http://www.w3.org/2000/svg"
   xmlns:sodipodi="http://sodipodi.sourceforge.net/DTD/sodipodi-0.dtd"
   xmlns:inkscape="http://www.inkscape.org/namespaces/inkscape"
   version="1.1"
   id="svg2"
   width="304.76361"
   height="160.25078"
   viewBox="0 0 304.76362 160.25077"
   sodipodi:docname="ostrava.svg"
   inkscape:version="0.92.2 2405546, 2018-03-11">
  <metadata
     id="metadata8">
    <rdf:RDF>
      <cc:Work
         rdf:about="">
        <dc:format>image/svg+xml</dc:format>
        <dc:type
           rdf:resource="http://purl.org/dc/dcmitype/StillImage" />
        <dc:title />
      </cc:Work>
    </rdf:RDF>
  </metadata>
  <defs
     id="defs6" />
  <sodipodi:namedview
     pagecolor="#e51f40"
     bordercolor="#666666"
     borderopacity="1"
     objecttolerance="10"
     gridtolerance="10"
     guidetolerance="10"
     inkscape:pageopacity="0"
     inkscape:pageshadow="2"
     inkscape:window-width="1920"
     inkscape:window-height="1016"
     id="namedview4"
     showgrid="false"
     inkscape:zoom="5.6568543"
     inkscape:cx="35.299683"
     inkscape:cy="15.46756"
     inkscape:window-x="0"
     inkscape:window-y="27"
     inkscape:window-maximized="1"
     inkscape:current-layer="layer2"
     showguides="true"
     inkscape:guide-bbox="true"
     fit-margin-top="0"
     fit-margin-left="0"
     fit-margin-right="0"
     fit-margin-bottom="0"
     inkscape:pagecheckerboard="true">
    <sodipodi:guide
       position="-327.38983,-261.76529"
       orientation="1,0"
       id="guide5284"
       inkscape:locked="false" />
    <sodipodi:guide
       position="1.1374131e-05,127.38632"
       orientation="1,0"
       id="guide5286"
       inkscape:locked="false" />
    <sodipodi:guide
       position="304.76363,-133.77901"
       orientation="1,0"
       id="guide5288"
       inkscape:locked="false" />
    <sodipodi:guide
       position="-622.68491,160.25078"
       orientation="0,1"
       inkscape:locked="false"
       id="guide1611" />
    <sodipodi:guide
       position="-683.5819,2.6853702e-06"
       orientation="0,1"
       id="guide118"
       inkscape:locked="false" />
    <sodipodi:guide
       position="689.91292,-0.041537315"
       orientation="1,0"
       id="guide140"
       inkscape:locked="false" />
    <sodipodi:guide
       position="-681.93741,0.00077079538"
       orientation="1,0"
       id="guide1129"
       inkscape:locked="false" />
  </sodipodi:namedview>
  <g
     inkscape:groupmode="layer"
     id="layer2"
     inkscape:label="Layer 2"
     transform="translate(-936.91589,-125.2043)">
    <path
       style="fill:#ffffff;fill-opacity:1;stroke-width:1.25391078"
       d="m 853.14577,35.216332 -5.3235,282.914668 35.35414,-40.22542 44.72388,-5.42656 c 5.81299,0.16009 16.95207,-3.88977 17.43355,-4.37192 0.15998,-0.16044 0.61716,-9.61912 1.0147,-21.01701 0.93772,-26.87974 2.67651,-27.5474 2.27204,-0.87254 -0.20541,13.54711 0.0186,19.35524 0.75,19.35524 0.67891,0 1.04657,-3.01543 1.04656,-8.60287 10e-6,-4.73093 0.32144,-8.60236 0.71568,-8.60288 0.39478,-3.9e-4 0.56793,4.30167 0.38725,9.55875 l -0.32843,9.55876 h 5.51957 c 7.02784,0 11.68694,-1.63746 12.05874,-4.23771 0.29098,-2.03593 4.5833,-3.50038 4.5833,-1.56371 0,0.5622 0.44917,1.02204 0.99754,1.02204 0.5649,0 0.87699,-1.55289 0.71813,-3.58331 -0.2578,-3.29773 -0.0661,-3.60887 2.4044,-3.89212 1.47657,-0.16932 2.92026,-0.92341 3.20831,-1.67402 0.28788,-0.75056 1.50197,-1.36272 2.69851,-1.36272 1.44844,-3e-5 2.36872,-0.72046 2.75243,-2.15196 1.12712,-4.20593 0.71885,-5.642 -1.54901,-5.45829 -3.79783,0.30767 -6.78857,-0.0177 -6.13721,-0.66911 0.34803,-0.34811 2.57097,-0.56018 4.93869,-0.47059 3.18325,0.12035 4.30389,-0.1966 4.30389,-1.21323 0,-0.75617 -0.96669,-1.55897 -2.14949,-1.78675 -1.18273,-0.22781 0.53809,-0.4749 3.8235,-0.54656 5.29284,-0.11545 5.973,-0.34794 5.973,-2.04166 0,-3.19822 2.60889,-2.15574 3.25733,1.30146 0.4784,2.5496 1.24029,3.41665 3.69113,4.20341 l 3.0858,0.9902 -3.0024,0.098 c -1.7887,0.058 -3.2379,0.71007 -3.58336,1.61028 -0.87001,2.26708 -0.69975,8.99994 0.22794,8.99994 0.44513,0 1.80242,0.86042 3.01472,1.91176 l 2.2034,1.91174 h -3.0147 c -1.65746,0 -3.01224,0.39742 -3.01224,0.88235 0,1.18354 5.39034,2.75256 9.69354,2.82105 l 3.4804,0.054 0.5833,-11.19599 c 0.3212,-6.15832 0.691,-17.53956 0.8211,-25.29149 l 0.2353,-14.09549 2.3897,-0.003 2.3897,-0.003 -0.2843,25.32826 -0.2844,25.32825 h 3.3579 c 2.3778,0 3.6527,-0.5574 4.3774,-1.91175 0.5628,-1.05132 1.654,-1.91175 2.424,-1.91175 0.7789,0 1.3995,-0.8789 1.3995,-1.98038 0,-2.11594 2.0683,-4.7083 3.7549,-4.7083 0.5633,0 1.0292,-0.32388 1.0367,-0.71813 0,-0.39422 2.1548,-3.08187 4.772,-5.97299 2.6172,-2.89116 4.5754,-5.75253 4.353,-6.35781 -0.2223,-0.60527 0.4262,-1.31787 1.4411,-1.58332 1.6316,-0.42664 1.8456,-1.37888 1.8456,-8.21808 0,-6.92636 0.187,-7.73524 1.7916,-7.73524 1.2266,0 1.9728,0.90517 2.3652,2.86763 0.7581,3.78959 2.3156,3.65789 2.799,-0.23775 l 0.3848,-3.10782 0.1667,3.34557 c 0.1301,2.58178 0.3877,3.01822 1.1274,1.91176 0.8417,-1.25846 1.0731,-1.24065 1.8946,0.14951 1.2546,2.12248 4.5429,1.18551 5.0564,-1.44117 0.393,-2.00955 0.4043,-2.00682 0.5318,0.098 0.089,1.46987 0.7352,2.1495 2.0417,2.1495 1.5026,0 1.9117,-0.63642 1.9117,-2.97791 0,-2.64467 -0.2617,-2.9288 -2.3382,-2.53185 -1.2863,0.24587 -3.9741,0.12962 -5.973,-0.25735 -2.6306,-0.5092 -1.1278,-0.70809 5.4436,-0.71814 4.9937,-0.008 8.0053,0.28365 6.6911,0.64706 -1.4031,0.38797 -2.5097,1.47646 -2.6789,2.63969 -0.251,1.72376 0.2126,1.98282 3.5613,1.98282 2.1167,0 3.6984,-0.26566 3.5147,-0.58823 -0.1839,-0.32256 0.024,-1.44623 0.4656,-2.49753 0.5542,-1.32217 0.7395,-0.43788 0.5981,2.86763 l -0.2035,4.77938 -3.1078,-0.30147 c -2.3893,-0.23083 -3.1053,0.0707 -3.1053,1.30391 0,1.2377 0.6542,1.50623 2.8676,1.18136 1.8233,-0.26763 2.8676,-0.003 2.8676,0.72549 0,0.63874 -1.1624,1.09108 -2.6299,1.02696 -2.6694,-0.11671 -3.1053,0.25977 -3.1053,2.66909 0,1.34988 2.2234,1.52421 3.4754,0.27206 1.443,-1.443 2.2598,-0.51624 2.2598,2.5686 0,2.5455 0.4567,3.35512 2.1495,3.80881 4.0271,1.07919 6.4468,0.6833 6.5171,-1.06862 0.1685,-4.1919 1.7142,2.50692 1.777,7.70093 0.041,3.44271 0.4318,5.32702 1.0245,4.96074 0.5442,-0.3364 0.9558,0.48917 0.9558,1.91665 0,2.25193 0.3147,2.47495 3.1054,2.20587 2.5884,-0.24954 3.1572,-0.73639 3.4093,-2.92644 0.1663,-1.44557 -0.1581,-2.6299 -0.7181,-2.6299 -0.5607,0 -1.0172,-0.42778 -1.0172,-0.95341 0,-0.52567 0.7748,-0.95588 1.723,-0.95588 1.5916,0 7.8333,-5.51571 7.8333,-6.92153 0,-0.33901 -1.8271,-0.77919 -4.0612,-0.98038 -3.9527,-0.35604 -3.9303,-0.3718 0.8701,-0.53431 4.2547,-0.14392 5.2801,-0.57802 7.4583,-3.16665 1.3889,-1.65057 2.3011,-3.58657 2.0269,-4.30143 -0.2742,-0.71492 0.098,-1.29902 0.8309,-1.29902 1.3463,0 9.0938,-7.51584 9.1127,-8.84062 0,-0.39421 -1.1722,-0.76127 -2.6177,-0.81372 l -2.6299,-0.0956 2.3897,-0.66175 c 1.7766,-0.49209 2.5411,-1.50831 2.9804,-3.96566 l 0.5907,-3.3039 0.2377,3.82105 c 0.1303,2.1026 0.4311,3.0813 0.6691,2.174 0.2378,-0.9073 1.1554,-1.5927 2.0392,-1.52204 4.2455,0.33954 5.9093,-0.2304 5.9093,-2.02939 0,-1.48959 -0.8045,-1.92946 -4.0637,-2.22303 -2.2341,-0.2012 0.1328,-0.44001 5.2573,-0.53186 5.6866,-0.1019 9.3186,0.20599 9.3186,0.78921 0,0.52562 -1.0241,0.95343 -2.277,0.95342 -1.5541,2e-5 -2.462,0.68454 -2.8553,2.15195 -0.9322,3.47818 -0.7559,3.71861 2.4951,3.40439 3.4227,-0.33087 5.1759,-3.5926 1.9901,-3.7034 -1.4192,-0.0493 -1.3444,-0.22246 0.4069,-0.92647 1.1829,-0.47536 2.1519,-1.30785 2.1519,-1.85048 0,-0.54261 0.9187,-0.98529 2.0417,-0.98529 2.0256,0 2.0371,0.13458 1.5784,16.81115 -0.3879,14.09583 -0.2391,16.89768 0.9216,17.34303 0.7613,0.29214 1.7334,-0.0339 2.1593,-0.72303 0.9059,-1.46564 9.8451,-1.43598 10.343,0.0342 0.1752,0.51726 1.2763,0.94117 2.4461,0.94117 1.1699,0 2.9599,0.63021 3.9804,1.40196 1.6085,1.21669 4.802,1.94113 5.4019,1.22548 0.1104,-0.13143 0.4317,-12.0663 0.7157,-26.52188 l 0.5171,-26.28412 h 2.3922 2.3896 l 0.478,24.93119 0.4779,24.92874 2.3088,-0.17156 c 1.2695,-0.094 3.0582,-1.09765 3.9755,-2.23038 1.9581,-2.41833 7.5735,-2.91821 7.5735,-0.67401 0,0.76236 -0.6752,1.76388 -1.5,2.22548 -1.2306,0.68861 -1.3783,1.89793 -0.8309,6.73769 0.6917,6.1128 1.268,6.89792 3.2868,4.46565 0.6543,-0.78847 2.671,-1.43381 4.4803,-1.43381 2.4821,0 3.8807,0.70443 5.7009,2.86763 2.4832,2.95115 4.5212,3.51075 7.0221,1.93135 1.2082,-0.76306 1.509,-5.67918 1.9117,-31.28408 l 0.4779,-30.38214 2.1495,-0.30392 2.152,-0.30637 0.1078,27.54392 c 0.1255,31.75665 0.1706,32.39735 2.5343,35.56347 3.5353,4.73504 4.1359,3.91292 5.3431,-7.32102 0.2825,-2.62716 -0.017,-4.53272 -0.8211,-5.3431 -1.6898,-1.68989 -1.9408,-4.40152 -0.6789,-7.30142 0.5717,-1.3141 1.0713,-1.95949 1.1127,-1.43381 0.041,0.52562 0.46,0.34868 0.929,-0.39216 1.3813,-2.18193 0.078,-3.90929 -2.951,-3.90929 -1.6375,0 -2.5758,-0.40113 -2.2328,-0.95586 0.3247,-0.52563 1.8559,-0.95588 3.4019,-0.95588 h 2.8113 v -10.51219 c 0,-9.5905 0.1547,-10.51218 1.7671,-10.51218 1.5721,0 1.8312,1.11623 2.3407,10.11513 0.2844,5.01891 0.9325,9.67824 1.5098,11.0955 v 2.34557 c -0.786,3.15165 -0.7819,18.43642 0,22.09789 v 3.32105 c -0.3357,0.69393 -0.3924,1.27973 0,2.0294 v 54.98736 0 -52.70582 c 0.5225,0.0189 1.6892,0.87265 2.9975,2.21108 7.7233,4.25458 -1.3833,-2.66155 1.7598,1.60293 l 7.5438,1.56167 v 0 l 56.1559,46.99683 -3.549,-287.274937 z M 1130.0115,218.74199 c -1.8559,4e-5 -2.2963,1.49003 -1.2476,4.22302 0.6907,1.80003 2.2561,2.00948 2.3603,0.31617 0.039,-0.65705 0.2183,-1.94769 0.3946,-2.86762 0.2145,-1.1212 -0.2828,-1.67157 -1.5073,-1.67157 z m -7.6397,7.15927 c -0.5141,-0.0562 -0.8774,0.13284 -0.8774,0.5147 0,0.50915 0.6453,0.92646 1.4338,0.92646 0.7886,0 1.4338,-0.16841 1.4338,-0.375 0,-0.20661 -0.6452,-0.62384 -1.4338,-0.92646 -0.197,-0.0755 -0.3851,-0.12097 -0.5564,-0.1397 z m 13.8259,0.48529 c -0.7272,0 -1.3235,0.86044 -1.3235,1.91175 0,1.24304 0.6363,1.91176 1.821,1.91176 1.3512,0 1.6943,-0.49394 1.3236,-1.91176 -0.2751,-1.05131 -1.0939,-1.91175 -1.8211,-1.91175 z m -71.7397,3.06371 c -0.1971,-0.025 -0.3088,0.10992 -0.3088,0.4093 0,1.27569 1.1295,2.40499 1.7671,1.76714 0.2717,-0.27159 -0.014,-1.00051 -0.6348,-1.62253 -0.3428,-0.3429 -0.6265,-0.52894 -0.8235,-0.55391 z m 52.2913,1.71567 c -1.1448,0 -3.0309,3.3758 -2.2966,4.11027 1.0424,1.04219 3.2182,-0.51436 3.2182,-2.30146 0,-0.99508 -0.4145,-1.80881 -0.9216,-1.80881 z m 19.6396,0.0196 c -0.8099,0.0702 -1.5147,0.69024 -1.5147,1.73283 0,0.96368 0.2961,2.04882 0.6593,2.41176 0.975,0.97529 3.4989,-1.89365 2.7426,-3.11764 -0.3918,-0.63377 -0.9668,-0.9608 -1.5343,-1.02204 -0.1181,-0.0125 -0.2375,-0.0148 -0.3529,-0.005 z m -84.2936,2.25243 c -0.1142,-0.003 -0.2387,0.0364 -0.3701,0.11759 -0.5258,0.3249 -0.9558,1.23598 -0.9558,2.02449 0,0.78842 0.43,1.16799 0.9558,0.84314 0.5256,-0.32493 0.9559,-1.23605 0.9559,-2.0245 0,-0.5914 -0.2431,-0.95451 -0.5858,-0.96078 z m 5.9583,1.92402 c -0.3483,0.0113 -0.5931,0.39022 -0.5931,1.00489 0,1.6788 0.573,1.92611 1.3921,0.60048 0.3026,-0.48936 0.1117,-1.16002 -0.4215,-1.49019 -0.1335,-0.0826 -0.2608,-0.11896 -0.3775,-0.1152 z m 6.6912,0 c -0.3484,0.0113 -0.5956,0.39022 -0.5956,1.00489 0,1.6788 0.5728,1.92611 1.3921,0.60048 0.3023,-0.48936 0.1118,-1.16002 -0.4215,-1.49019 -0.1336,-0.0826 -0.2583,-0.11896 -0.375,-0.1152 z m 48.5805,1.5392 c -1.432,0 -6.0757,4.51945 -6.1372,5.97299 -0.064,1.5192 2.3713,0.60443 4.9362,-1.85293 3.017,-2.8905 3.3757,-4.12006 1.201,-4.12006 z m 23.7302,0.95588 c -1.5392,0.001 -1.5729,1.17864 -0.078,2.674 0.631,0.63076 1.1827,1.14703 1.2279,1.14704 0.044,0 0.081,-0.8604 0.081,-1.91175 0,-1.05004 -0.5532,-1.90678 -1.228,-1.90929 z m -7.5661,0.32843 c -0.1448,-0.022 -0.2456,0.32863 -0.2745,1.02449 -0.041,1.00752 0.1848,1.57247 0.5024,1.25489 0.319,-0.31757 0.351,-1.14338 0.076,-1.83332 -0.1145,-0.28591 -0.2174,-0.43289 -0.3039,-0.44606 z m -12.0759,0.90195 c -0.2447,-0.1034 -0.722,0.31254 -1.6544,1.15685 -1.0515,0.95141 -1.9117,2.09499 -1.9117,2.5392 0,0.44419 0.8602,0.80637 1.9117,0.80637 1.4313,0 1.9118,-0.63643 1.9118,-2.53675 0,-1.23848 -0.013,-1.86227 -0.2574,-1.96567 z m 1.6593,1.12254 c -0.1724,-0.0644 -0.2941,0.48241 -0.2941,1.46812 0,1.31415 0.2152,1.85316 0.4804,1.19607 0.2651,-0.65705 0.2651,-1.73258 0,-2.38968 -0.066,-0.1642 -0.1286,-0.25305 -0.1863,-0.27451 z m -67.3476,0.51225 c -0.5258,0 -0.9537,1.39945 -0.9411,3.10782 0.016,2.35711 0.2382,2.75944 0.9411,1.67155 0.5097,-0.78847 0.9287,-2.18545 0.9412,-3.10537 0,-0.91989 -0.4156,-1.674 -0.9412,-1.674 z m 69.7692,0 c -0.5256,0 -0.9559,0.67066 -0.9559,1.49018 0,0.81945 0.4304,1.22438 0.9559,0.89951 0.5259,-0.32485 0.9558,-0.99552 0.9558,-1.49018 0,-0.49462 -0.4299,-0.89951 -0.9558,-0.89951 z m -75.8059,0.0907 c -0.2469,0.0309 -0.7348,0.62715 -1.7058,1.82106 -1.0687,1.31414 -3.4539,4.18719 -5.3015,6.38476 -1.8477,2.19755 -3.2887,4.30197 -3.2009,4.67399 0.087,0.37196 -0.4133,1.04029 -1.1152,1.48527 -0.7823,0.49582 -0.8566,0.81474 -0.1912,0.82353 0.597,0.008 2.6393,-1.58575 4.5392,-3.54164 1.8995,-1.95587 3.4534,-4.00301 3.4534,-4.54898 0,-0.54597 0.8605,-1.52968 1.9117,-2.18627 1.0514,-0.65654 1.8975,-2.1575 1.8799,-3.33575 -0.016,-1.07045 -0.023,-1.60684 -0.2696,-1.57597 z m 133.0702,0.0294 c 0.332,0.0137 0.6182,0.10102 0.7769,0.2598 0.3175,0.31758 -0.2473,0.54399 -1.2549,0.50246 -1.1133,-0.0458 -1.3408,-0.27332 -0.5784,-0.57843 0.345,-0.13803 0.7243,-0.19751 1.0564,-0.18383 z m -186.92764,0.071 c -1.97809,0 -3.18625,0.47302 -3.18625,1.24509 0,0.79011 1.16201,1.2093 3.18625,1.15195 1.80041,-0.0509 3.18625,-0.59099 3.18625,-1.24263 0,-0.66975 -1.33585,-1.15441 -3.18625,-1.15441 z m 94.74684,1.20832 c 0.058,0.0215 0.1198,0.11031 0.1863,0.27451 0.265,0.65705 0.265,1.73264 0,2.38969 -0.2651,0.65709 -0.4828,0.11821 -0.4828,-1.19606 0,-0.98561 0.1236,-1.53251 0.2965,-1.46814 z m -96.33996,2.424 c -1.79781,0 -2.50162,0.91976 -1.90195,2.48283 0.78025,2.03292 3.17645,1.6021 3.17645,-0.57107 0,-1.05135 -0.57379,-1.91176 -1.2745,-1.91176 z m 116.50656,0 c -1.6549,3e-5 -8.2075,7.77708 -8.1372,9.65681 0.031,0.82681 0.6202,0.51555 1.549,-0.81617 0.8251,-1.18273 1.8981,-2.1495 2.3848,-2.1495 0.9897,0 5.4939,-4.85554 5.5416,-5.973 0.016,-0.39426 -0.5851,-0.71812 -1.3382,-0.71814 z m 71.2838,0 c 0.4457,3e-5 0.8112,1.29065 0.8112,2.86764 0,1.57697 -0.4018,2.86763 -0.8921,2.86763 -0.4905,1e-5 -0.8565,-1.29066 -0.8113,-2.86763 0.044,-1.57699 0.4464,-2.86762 0.8922,-2.86764 z m -63.6736,0.18628 c -4.2506,0.27963 -12.6176,11.74653 -10.6568,14.91901 0.2984,0.48278 2.5968,0.80062 5.1078,0.70588 l 4.5637,-0.17156 0.5613,-4.13478 c 0.3112,-2.29509 1.3026,-4.67625 2.2279,-5.3529 2.5064,-1.83277 1.6147,-5.60631 -1.4068,-5.9583 -0.128,-0.0151 -0.2599,-0.0161 -0.3971,-0.008 z m -83.2935,0.30392 c 0.1164,-0.008 0.2381,-0.005 0.3652,0.01 0.3388,0.0388 0.7086,0.16329 1.071,0.38726 0.9602,0.59343 0.9036,0.88386 -0.2549,1.32842 -0.8157,0.31302 -1.7189,0.18695 -2.0073,-0.27942 -0.4944,-0.80012 0.011,-1.38934 0.826,-1.44606 z m 91.9724,2.74263 c -0.3427,0.0152 -0.5834,0.39762 -0.5834,1.01225 0,0.81953 0.4302,1.4902 0.9559,1.49019 0.5257,1e-5 0.9559,-0.40489 0.9559,-0.89951 0,-0.49463 -0.4302,-1.16532 -0.9559,-1.49019 -0.1314,-0.0814 -0.2583,-0.11771 -0.3725,-0.11269 z m -77.9456,1.54656 c -1.5253,0 -3.5713,3.67413 -3.3186,5.95829 0.1319,1.19041 0.2748,2.48807 0.3187,2.88233 0.1726,1.55419 1.7432,0.58846 2.7941,-1.71812 1.3365,-2.93313 1.4567,-7.1225 0.2058,-7.1225 z m 6.4314,0.41666 c -0.4564,0.0254 -0.7479,1.19693 -0.7353,3.11028 0.016,2.7024 0.2533,3.27251 0.9411,2.20831 0.5097,-0.78847 0.9287,-2.16257 0.9412,-3.05145 0,-0.88888 -0.4156,-1.88101 -0.9412,-2.20586 -0.072,-0.0443 -0.1406,-0.065 -0.2058,-0.0612 z m -61.80842,0.53922 c -1.3744,0 -1.79095,0.44 -1.3946,1.47303 0.6259,1.63126 2.38797,1.4314 2.97792,-0.33825 0.21012,-0.63028 -0.49425,-1.13477 -1.58332,-1.13478 z m 186.22912,1.91175 c -0.5092,-2e-5 -0.9241,0.64529 -0.9241,1.4338 0,0.78848 0.1684,1.43382 0.375,1.43382 0.2067,0 0.6236,-0.64534 0.9265,-1.43382 0.3024,-0.78851 0.1318,-1.43381 -0.3774,-1.4338 z m 42.4555,4.18379 c 0.3427,0.006 0.5834,0.36688 0.5834,0.95832 0,0.78852 -0.4302,1.69963 -0.9559,2.0245 -0.5256,0.3249 -0.9559,-0.0546 -0.9559,-0.84313 0,-0.78845 0.4303,-1.69714 0.9559,-2.02204 0.1314,-0.0812 0.2583,-0.12035 0.3725,-0.11759 z m -128.4966,0.59558 c 0.5568,0 1.0122,0.42778 1.0122,0.95342 0,0.52568 -0.1897,0.95588 -0.4215,0.95588 -0.2319,0 -0.6874,-0.4302 -1.0123,-0.95588 -0.325,-0.52564 -0.135,-0.95342 0.4216,-0.95342 z m 10.7744,0.19853 c -0.7099,-0.0375 -1.7033,0.76257 -1.9485,2.02695 -0.2151,1.10875 0.1481,1.41445 1.1961,1.01225 0.8268,-0.31723 1.5024,-1.2117 1.5024,-1.98774 0,-0.70549 -0.3241,-1.029 -0.75,-1.05146 z m -63.3402,0.75489 c -0.5567,0 -0.7464,0.43024 -0.4216,0.95588 0.3249,0.52567 0.7806,0.95588 1.0123,0.95588 0.2318,0 0.4215,-0.43021 0.4215,-0.95588 0,-0.52564 -0.4555,-0.95588 -1.0122,-0.95588 z m -57.33049,1.04902 c -0.27834,-0.0171 -0.628,0.008 -1.05881,0.0686 -1.23629,0.17587 -2.3735,1.09387 -2.55881,2.06616 -0.25841,1.35488 0.16905,1.67888 1.89215,1.43381 1.23647,-0.17587 2.37329,-1.09384 2.5588,-2.06615 0.19379,-1.01623 10e-4,-1.45125 -0.83333,-1.50245 z"
       id="rect1135"
       inkscape:connector-curvature="0"
       sodipodi:nodetypes="ccccccssccccscssccccccccsccscccccsccsscccccccccscsssccccssccccccccsscccccscccccscscscsccccsccssssccccscccccccccsccscccccssccccsccccccccccscccscccccccccccccscscssccccccccccccccccccccccsssccssscscscccscsscscccccsscsccsccccscscsccssccsccccccsccsscccscccscccssscsccccccccscccscccssscsscccssscsssccscccsccccccccccccccscccscsccccccscccccccccccsscccscsccssscscccssscsscccccscsssccccccc" />
  </g>
</svg>
