<?xml version="1.0" encoding="UTF-8" standalone="no"?>
<svg
   xmlns:dc="http://purl.org/dc/elements/1.1/"
   xmlns:cc="http://creativecommons.org/ns#"
   xmlns:rdf="http://www.w3.org/1999/02/22-rdf-syntax-ns#"
   xmlns:svg="http://www.w3.org/2000/svg"
   xmlns="http://www.w3.org/2000/svg"
   viewBox="0 0 358.00001 159.99999"
   height="160"
   width="358"
   id="svg2"
   version="1.1">
  <metadata
     id="metadata8">
    <rdf:RDF>
      <cc:Work
         rdf:about="">
        <dc:format>image/svg+xml</dc:format>
        <dc:type
           rdf:resource="http://purl.org/dc/dcmitype/StillImage" />
        <dc:title></dc:title>
      </cc:Work>
    </rdf:RDF>
  </metadata>
  <defs
     id="defs6" />
  <g
     transform="translate(-883.17579,-126.05508)"
     id="layer2">
    <rect
       y="93.635292"
       x="852.06372"
       height="221.51826"
       width="431.53906"
       id="rect1135"
       style="fill:#ffffff;fill-opacity:1;stroke-width:0.99921721" />
    <path
       id="rect154"
       transform="translate(883.17579,126.05508)"
       d="m 221.19141,99.738281 -0.41211,20.945309 c -0.2263,11.51937 -0.48232,21.03004 -0.57032,21.13477 -0.478,0.57029 -3.02288,-0.007 -4.30468,-0.97656 -0.8132,-0.61499 -2.23958,-1.11719 -3.17188,-1.11719 -0.9322,0 -1.80962,-0.33781 -1.94922,-0.75 -0.3968,-1.17168 -7.52028,-1.19524 -8.24218,-0.0273 -0.3394,0.54917 -1.11401,0.80897 -1.72071,0.57617 -0.9249,-0.35489 -1.04347,-2.58764 -0.73437,-13.82032 0.3655,-13.28926 0.35629,-13.39648 -1.25782,-13.39648 -0.8949,0 -1.62695,0.35276 -1.62695,0.78516 0,0.43241 -0.77224,1.0958 -1.71484,1.47461 -1.3956,0.56101 -1.45522,0.69898 -0.32422,0.73828 2.5387,0.0883 1.14156,2.68751 -1.58594,2.95117 -2.5906,0.2504 -2.73108,0.0588 -1.98828,-2.71289 0.3134,-1.16935 1.03689,-1.71485 2.27539,-1.71485 0.9984,0 1.81445,-0.3409 1.81445,-0.75976 0,-0.46476 -2.89428,-0.71011 -7.42578,-0.62891 -4.0836,0.0732 -5.96975,0.2635 -4.18945,0.42383 2.5972,0.23394 3.23828,0.58447 3.23828,1.77149 0,1.43358 -1.32588,1.88776 -4.70898,1.61718 -0.7043,-0.0563 -1.4355,0.48988 -1.625,1.21289 -0.1897,0.72301 -0.42941,-0.0569 -0.53321,-1.73242 l -0.18945,-3.04492 -0.4707,2.63281 c -0.3501,1.95822 -0.9593,2.76802 -2.375,3.16016 l -1.9043,0.52734 2.0957,0.0762 c 1.1519,0.0418 2.08594,0.3343 2.08594,0.64844 -0.015,1.05569 -6.18882,7.04492 -7.26172,7.04492 -0.5837,0 -0.88061,0.46546 -0.66211,1.03516 0.2185,0.56966 -0.50843,2.11242 -1.61523,3.42773 -1.7357,2.06283 -2.55286,2.40875 -5.94336,2.52344 -3.8253,0.1295 -3.84316,0.14206 -0.69336,0.42578 1.7803,0.16033 3.23633,0.5111 3.23633,0.78125 0,1.12027 -4.97389,5.51563 -6.24219,5.51563 -0.7556,0 -1.37305,0.34283 -1.37305,0.76172 0,0.41887 0.36375,0.75976 0.81055,0.75976 0.4463,0 0.70477,0.94377 0.57227,2.09571 -0.2009,1.74521 -0.6542,2.13317 -2.7168,2.33203 -2.2239,0.21442 -2.47461,0.0367 -2.47461,-1.75782 0,-1.13753 -0.32802,-1.79541 -0.76172,-1.52734 -0.4723,0.29188 -0.78351,-1.20969 -0.8164,-3.95312 -0.05,-4.139 -1.28172,-9.47716 -1.41602,-6.13672 -0.056,1.39607 -1.98426,1.71155 -5.19336,0.85156 -1.349,-0.36153 -1.71289,-1.0067 -1.71289,-3.03516 0,-2.45825 -0.65088,-3.19677 -1.80078,-2.04687 -0.9977,0.99781 -2.76953,0.85889 -2.76953,-0.2168 0,-1.91994 0.34741,-2.21995 2.47461,-2.12695 1.1694,0.0511 2.0957,-0.30936 2.0957,-0.81836 0,-0.58014 -0.83216,-0.7914 -2.28516,-0.57813 -1.7638,0.25888 -2.28515,0.0449 -2.28515,-0.9414 0,-0.98276 0.57061,-1.223 2.47461,-1.03906 l 2.47656,0.24023 0.16211,-3.80859 c 0.1127,-2.6341 -0.035,-3.33877 -0.47656,-2.28516 -0.3516,0.83776 -0.5176,1.73319 -0.3711,1.99023 0.1464,0.25705 -1.11398,0.46875 -2.80078,0.46875 -2.6685,0 -3.03789,-0.20644 -2.83789,-1.58007 0.1348,-0.92696 1.01667,-1.79435 2.13477,-2.10352 1.0472,-0.28959 -1.35264,-0.52162 -5.33204,-0.51563 -5.2366,0.008 -6.43419,0.1665 -4.33789,0.57227 1.5929,0.30837 3.73477,0.40101 4.75977,0.20508 1.6547,-0.31632 1.86328,-0.0899 1.86328,2.01758 0,1.86589 -0.32604,2.37304 -1.52344,2.37304 -1.0411,0 -1.55595,-0.54158 -1.62695,-1.71289 -0.1016,-1.67733 -0.11063,-1.67947 -0.42383,-0.0781 -0.4092,2.09315 -3.02959,2.83981 -4.0293,1.14844 -0.6547,-1.10779 -0.83906,-1.12196 -1.50976,-0.11914 -0.5895,0.88173 -0.79474,0.53393 -0.89844,-1.52344 l -0.13281,-2.66602 -0.30664,2.47656 c -0.3852,3.10436 -1.62637,3.20931 -2.23047,0.18946 -0.3127,-1.56385 -0.90737,-2.28516 -1.88477,-2.28516 -1.2787,0 -1.42773,0.64458 -1.42773,6.16406 0,5.45003 -0.1705,6.20885 -1.4707,6.54883 -0.8088,0.21153 -1.32554,0.77939 -1.14844,1.26172 0.1773,0.48233 -1.38315,2.7625 -3.46875,5.06641 -2.08562,2.30388 -3.80273,4.44562 -3.80273,4.75976 -0.006,0.31417 -0.37729,0.57227 -0.82618,0.57227 -1.34402,0 -2.99218,2.0658 -2.99218,3.75195 0,0.87775 -0.49452,1.57813 -1.11524,1.57813 -0.61357,0 -1.48314,0.68566 -1.93164,1.52343 -0.57747,1.07926 -1.59344,1.52344 -3.48828,1.52344 h -2.675782 l 0.226563,-20.18359 0.226559,-20.1836 -1.904294,0.002 -1.904297,0.002 -0.1875,11.23242 c -0.1037,6.17736 -0.398317,15.24685 -0.654297,20.1543 l -0.464843,8.92187 -2.773438,-0.043 c -3.42916,-0.0546 -7.724609,-1.3049 -7.724609,-2.24804 0,-0.38643 1.079591,-0.70313 2.40039,-0.70313 h 2.402344 l -1.755859,-1.52343 c -0.96603,-0.83779 -2.047634,-1.52344 -2.402344,-1.52344 -0.73926,0 -0.874941,-5.36529 -0.181641,-7.17188 0.275291,-0.71736 1.430109,-1.237 2.855469,-1.2832 l 2.392578,-0.0781 -2.458984,-0.78907 c -1.95304,-0.62695 -2.560176,-1.31789 -2.941406,-3.34961 -0.51673,-2.75498 -2.595703,-3.58571 -2.595703,-1.03711 0,1.34969 -0.542006,1.53496 -4.759766,1.62696 -2.61808,0.0571 -3.989365,0.254 -3.046875,0.43554 0.94255,0.18151 1.712891,0.82125 1.712891,1.42383 0,0.81013 -0.893018,1.06271 -3.429688,0.9668 -1.88679,-0.0714 -3.658207,0.0976 -3.935547,0.375 -0.51906,0.51911 1.864205,0.77838 4.890625,0.5332 1.80721,-0.14639 2.132555,0.99798 1.234375,4.34961 -0.30577,1.14073 -1.039129,1.71485 -2.193359,1.71485 -0.9535,0 -1.920981,0.48782 -2.150391,1.08593 -0.22954,0.59814 -1.37999,1.19906 -2.55664,1.33399 -1.96872,0.22572 -2.121456,0.47366 -1.916016,3.10156 0.12659,1.618 -0.122106,2.85547 -0.572266,2.85547 -0.43699,0 -0.794921,-0.36643 -0.794921,-0.81445 0,-1.54328 -3.420464,-0.3763 -3.652344,1.24609 -0.29628,2.07209 -4.009025,3.37695 -9.609375,3.37695 h -4.398438 l 0.261719,-7.61719 c 0.14398,-4.18926 0.006,-7.61749 -0.308594,-7.61718 -0.31416,4.1e-4 -0.570302,3.08548 -0.570312,6.85547 1e-5,4.45252 -0.292975,6.85546 -0.833985,6.85546 -0.58286,0 -0.761346,-4.62839 -0.597656,-15.42382 0.32231,-21.25668 -1.063297,-20.72463 -1.810547,0.69531 -0.31679,9.08276 -0.681114,16.6202 -0.808594,16.74805 -0.38368,0.38422 -2.932193,0.51233 -7.564453,0.38476 l -4.378906,-0.11914 v -4.50976 c 0,-4.39676 -0.0578,-4.52148 -2.298828,-5.01368 -2.93065,-0.64348 -8.445006,-0.64811 -11.353516,-0.01 -1.93844,0.42577 -2.289654,0.88954 -2.490234,3.29492 -0.16212,1.94425 -0.640446,2.8753 -1.566406,3.05078 -1.06715,0.20224 -1.352953,-0.32871 -1.439453,-2.66016 l -0.109375,-2.91015 -0.462891,2.66406 c -0.75747,4.35997 -2.6652562,3.4492 -3.1914062,-1.52344 l -0.4433594,-4.1875 -0.1269532,4.49219 -0.1289062,4.49219 -3.6542969,1.26172 c 0,0 -3.0564781,1.17982 -3.1425781,1.17383 v 6.94921 L -4.1542969,159.40039 0,162.77734 l 358.50391,0.01 5.21484,-3.38672 -5.21484,0.5957 v -1.02148 l -2.69727,-1.44922 c -1.0845,-1.34097 -2.00206,-1.36036 -1.44336,0.0957 0,0.0109 -5.3e-4,0.0166 0.01,0.0273 l -1.87891,0.16015 c -0.426,-0.34083 -0.89264,-0.75595 -1.40234,-1.27734 -1.2009,-1.22851 -2.38607,-2.02995 -2.63477,-1.78125 -0.2488,0.24875 -1.48319,0.48213 -2.74219,0.51953 -2.0629,0.0611 -2.28906,-0.16488 -2.28906,-2.27539 2e-4,-2.16696 -0.19334,-2.336 -2.58984,-2.2832 -1.4245,0.0314 -2.39666,0.37244 -2.16016,0.75781 0.2389,0.38912 -0.15708,0.47358 -0.89258,0.19141 -0.7747,-0.29731 -1.80763,-0.0244 -2.49023,0.6582 -0.8985,0.89846 -1.41072,0.96384 -2.22852,0.28516 -0.8549,-0.7096 -1.0625,-0.54206 -1.0625,0.85351 v 1.73242 l -1.52343,-1.75586 c -0.8379,-0.96596 -1.52344,-2.04756 -1.52344,-2.40234 0,-0.35482 -0.38191,-0.64453 -0.84961,-0.64453 -0.4992,0 -0.69772,0.79496 -0.48242,1.92187 0.4534,2.37116 -0.57396,3.13496 -2.12696,1.58203 -1.6145,-1.61457 -4.60036,-0.17894 -5.60156,2.69336 -0.7152,2.05159 -2.05181,2.63394 -5.16211,2.25 -0.4919,-0.0607 -0.98565,0.47701 -1.37695,0.67188 -0.31739,0.15806 -1.00436,0.38288 -1.04883,0.46289 -0.78846,-0.11482 -4.17937,-0.25636 -4.29492,-0.44336 -0.2587,-0.41887 -2.33604,-0.76172 -4.61524,-0.76172 h -4.14257 v -15.23242 c 0,-12.49624 -0.19205,-15.23242 -1.06055,-15.23242 -0.8512,0 -1.16799,3.0657 -1.61719,15.64648 -0.3646,10.20977 -0.8314,15.55426 -1.3457,15.38281 -0.4335,-0.14449 -0.91456,-1.08683 -1.06836,-2.09374 -0.311,-2.03837 -1.85251,-3.36797 -2.56641,-2.2129 -0.537,0.86891 -2.82362,0.18415 -4.66992,-1.39843 -0.7067,-0.60571 -1.62657,-0.89017 -2.04297,-0.63282 -0.4164,0.2573 -0.9376,0.17538 -1.1582,-0.18164 -0.2207,-0.35702 -1.01483,-0.59404 -1.76563,-0.52734 -3.2155,0.28589 -4.7362,1.33796 -5.5664,3.85352 -0.4772,1.44609 -1.12897,2.6289 -1.44727,2.6289 -0.3181,0 -2.01794,-1.36927 -3.77734,-3.04297 -2.6902,-2.55913 -3.07255,-3.27853 -2.40625,-4.52343 0.4358,-0.81417 0.51659,-1.65114 0.17969,-1.85938 -0.9461,-0.58796 -0.9512,-18.75391 0,-18.75391 0.5158,0 0.4841,-0.38278 -0.0918,-1.07617 -0.4916,-0.59236 -1.10026,-4.70637 -1.35156,-9.14062 -0.406,-7.17105 -0.61244,-8.06055 -1.86524,-8.06055 -1.2849,0 -1.4082,0.73447 -1.4082,8.37695 v 8.37696 h -2.24023 c -1.232,0 -2.45214,0.34286 -2.71094,0.76172 -0.2733,0.44206 0.47439,0.76171 1.77929,0.76171 2.4134,0 3.45237,1.3765 2.35157,3.11524 -0.3737,0.59036 -0.70724,0.73136 -0.74024,0.3125 -0.033,-0.4189 -0.43112,0.0954 -0.88672,1.14258 -1.0056,2.31087 -0.80558,4.47172 0.54102,5.81836 0.6406,0.64577 0.8794,2.16428 0.6543,4.25781 -0.962,8.95211 -1.44062,9.60724 -4.25782,5.83398 -1.8836,-2.52302 -1.91953,-3.03358 -2.01953,-28.33984 l -0.0859,-21.94922 -1.71485,0.24414 -1.71289,0.24219 -0.38086,24.21094 c -0.3209,20.40405 -0.56064,24.32161 -1.52344,24.92968 -1.9929,1.25859 -3.6169,0.81266 -5.5957,-1.53906 -1.4505,-1.72381 -2.56507,-2.28516 -4.54297,-2.28516 -1.4418,0 -3.04891,0.51426 -3.57031,1.14258 -1.6087,1.93823 -2.06794,1.31258 -2.61914,-3.55859 -0.4362,-3.85671 -0.31849,-4.8204 0.66211,-5.36914 0.6573,-0.36784 1.19531,-1.16593 1.19531,-1.77344 0,-1.78836 -4.47476,-1.39001 -6.03516,0.53711 -0.731,0.90265 -2.15636,1.70244 -3.16796,1.77734 l -1.83985,0.13672 -0.38086,-19.86523 -0.38086,-19.867189 h -1.90429 z m -31.67383,14.089839 c 0.9758,0 1.37207,0.43858 1.20117,1.33204 -0.1405,0.73308 -0.28345,1.76156 -0.31445,2.28515 -0.083,1.34937 -1.33046,1.18246 -1.88086,-0.25195 -0.8357,-2.17786 -0.48476,-3.36523 0.99414,-3.36524 z m -6.08789,5.70508 c 0.1365,0.0149 0.28636,0.0511 0.44336,0.11133 0.6284,0.24115 1.14257,0.57363 1.14257,0.73828 0,0.16462 -0.51417,0.29883 -1.14257,0.29883 -0.6283,0 -1.14258,-0.33255 -1.14258,-0.73828 0,-0.3043 0.28952,-0.45496 0.69922,-0.41016 z m 11.01758,0.38672 c 0.5795,0 1.23197,0.68567 1.45117,1.52344 0.2954,1.12983 0.022,1.52344 -1.05469,1.52344 -0.9441,0 -1.45117,-0.53289 -1.45117,-1.52344 0,-0.83777 0.47519,-1.52344 1.05469,-1.52344 z m -57.16797,2.44141 c 0.157,0.0199 0.38305,0.16815 0.65625,0.4414 0.4947,0.49568 0.72236,1.07654 0.50586,1.29297 -0.5081,0.50829 -1.40821,-0.39163 -1.40821,-1.4082 0,-0.23858 0.089,-0.34607 0.2461,-0.32617 z m 41.66992,1.36719 c 0.4041,0 0.73437,0.64844 0.73437,1.4414 0,1.42411 -1.73385,2.66449 -2.56445,1.83399 -0.5852,-0.58528 0.91778,-3.27539 1.83008,-3.27539 z m 15.65039,0.0156 c 0.092,-0.008 0.18715,-0.006 0.28125,0.004 0.4522,0.0488 0.91046,0.30941 1.22266,0.81445 0.6027,0.97537 -1.40855,3.26157 -2.18555,2.48438 -0.2894,-0.28921 -0.52539,-1.15394 -0.52539,-1.92188 0,-0.83082 0.56163,-1.32496 1.20703,-1.38086 z m -67.17188,1.79492 c 0.2731,0.005 0.4668,0.29435 0.4668,0.76563 0,0.6283 -0.34292,1.35435 -0.76172,1.61328 -0.419,0.25887 -0.76172,-0.0436 -0.76172,-0.67188 0,-0.62835 0.34272,-1.35437 0.76172,-1.61328 0.1047,-0.0647 0.20392,-0.0958 0.29492,-0.0937 z m 4.74805,1.53321 c 0.093,-0.003 0.19438,0.026 0.30078,0.0918 0.4249,0.2631 0.57704,0.79754 0.33594,1.1875 -0.6528,1.05637 -1.10938,0.85929 -1.10938,-0.47851 0,-0.48982 0.19506,-0.79178 0.47266,-0.80078 z m 5.33203,0 c 0.093,-0.003 0.19243,0.026 0.29883,0.0918 0.425,0.2631 0.57684,0.79754 0.33594,1.1875 -0.6529,1.05637 -1.10938,0.85929 -1.10938,-0.47851 0,-0.48982 0.19701,-0.79178 0.47461,-0.80078 z m 38.71289,1.22656 c 1.733,0 1.44717,0.97981 -0.95703,3.2832 -2.0439,1.95822 -3.98459,2.68718 -3.93359,1.47656 0.049,-1.1583 3.74952,-4.75976 4.89062,-4.75976 z m 18.91016,0.76172 h 0.002 c 0.5377,0.002 0.97852,0.68472 0.97852,1.52148 0,0.8378 -0.0294,1.52344 -0.0645,1.52344 -0.036,-1e-5 -0.47572,-0.41142 -0.97852,-0.91406 -1.1909,-1.19162 -1.1641,-2.12986 0.0625,-2.13086 z m -6.0293,0.26172 c 0.069,0.0105 0.15099,0.12762 0.24219,0.35546 0.2192,0.5498 0.19355,1.20787 -0.0606,1.46094 -0.2531,0.25307 -0.43339,-0.19713 -0.40039,-1 0.023,-0.55452 0.10335,-0.8339 0.21875,-0.8164 z m -9.62304,0.71875 c 0.195,0.0824 0.20507,0.57948 0.20507,1.5664 0,1.51433 -0.38283,2.02149 -1.52343,2.02149 -0.8379,0 -1.52344,-0.28861 -1.52344,-0.64258 0,-0.35398 0.68554,-1.26528 1.52344,-2.02344 0.743,-0.67281 1.12336,-1.00427 1.31836,-0.92187 z m 1.32226,0.89453 c 0.046,0.0171 0.096,0.0879 0.14844,0.21875 0.2113,0.52363 0.2113,1.3807 0,1.90429 -0.2113,0.52362 -0.38281,0.0941 -0.38281,-0.95312 0,-0.7855 0.097,-1.22122 0.23437,-1.16992 z m -53.66797,0.4082 c 0.4188,0 0.75,0.60094 0.75,1.33398 -0.01,0.73307 -0.3439,1.84629 -0.75,2.47461 -0.5602,0.86692 -0.737,0.54631 -0.75,-1.33203 -0.01,-1.36136 0.331,-2.47656 0.75,-2.47656 z m 55.59766,0 c 0.4191,0 0.76172,0.32265 0.76172,0.7168 0,0.39419 -0.34262,0.92863 -0.76172,1.1875 -0.4187,0.25888 -0.76172,-0.0638 -0.76172,-0.7168 0,-0.65306 0.34292,-1.1875 0.76172,-1.1875 z m -60.4082,0.0723 c 0.1968,-0.0246 0.20234,0.40285 0.21484,1.25586 0.014,0.93894 -0.66025,2.13501 -1.49805,2.6582 -0.8377,0.52322 -1.52344,1.30712 -1.52344,1.74219 0,0.43508 -1.23822,2.0664 -2.75195,3.625 -1.51397,1.55861 -3.14141,2.82826 -3.61719,2.82226 -0.53024,-0.007 -0.47101,-0.26114 0.15235,-0.65625 0.55936,-0.3546 0.95807,-0.88718 0.88867,-1.18359 -0.0699,-0.29645 1.07838,-1.97342 2.55078,-3.72461 1.47232,-1.7512 3.37301,-4.04068 4.22461,-5.08789 0.7738,-0.9514 1.16258,-1.42657 1.35938,-1.45117 z m 106.04101,0.0234 c -0.2646,-0.0109 -0.5669,0.0365 -0.8418,0.14649 -0.6075,0.24314 -0.42626,0.42443 0.46094,0.46094 0.8029,0.0331 1.253,-0.14733 1,-0.4004 -0.1265,-0.12653 -0.35454,-0.19613 -0.61914,-0.20703 z m -148.958983,0.0566 c 1.47455,0 2.539062,0.38622 2.539062,0.91993 0,0.51928 -1.104352,0.94963 -2.539062,0.99023 -1.61308,0.0457 -2.539063,-0.28835 -2.539063,-0.91797 0,-0.61525 0.962763,-0.99219 2.539063,-0.99219 z m 75.501953,0.96289 c -0.1378,-0.0513 -0.23633,0.38452 -0.23633,1.16993 0,1.04733 0.17347,1.47674 0.38477,0.95312 0.2112,-0.52359 0.2112,-1.38071 0,-1.9043 -0.053,-0.13085 -0.10244,-0.20165 -0.14844,-0.21875 z m -76.771484,1.93164 c 0.55839,0 1.015625,0.68564 1.015625,1.52344 0,1.73176 -1.90948,2.07507 -2.53125,0.45508 -0.47786,-1.24558 0.08299,-1.97852 1.515625,-1.97852 z m 92.841794,0 c 0.6002,0 1.07941,0.25809 1.06641,0.57227 -0.038,0.89048 -3.62732,4.75977 -4.41602,4.75977 -0.3878,0 -1.24289,0.7704 -1.90039,1.71289 -0.7401,1.06122 -1.20937,1.30926 -1.23437,0.65039 -0.056,-1.49792 5.16567,-7.69531 6.48437,-7.69532 z m 56.80469,0 c -0.3552,0 -0.67594,1.02849 -0.71094,2.28516 -0.036,1.25666 0.25559,2.28517 0.64649,2.28516 0.3907,0 0.71093,-1.0285 0.71093,-2.28516 0,-1.25667 -0.29128,-2.28516 -0.64648,-2.28516 z m -50.74023,0.14844 c 0.1093,-0.007 0.2144,-0.006 0.3164,0.006 2.4078,0.28049 3.1184,3.28755 1.1211,4.74805 -0.7374,0.53921 -1.52739,2.43671 -1.7754,4.26562 l -0.44726,3.29493 -3.63672,0.13671 c -2.001,0.0755 -3.83251,-0.17778 -4.07031,-0.5625 -1.5625,-2.52809 5.10499,-11.66584 8.49219,-11.88867 z m -66.375,0.24219 c -0.6492,0.0452 -1.05215,0.51474 -0.65821,1.15234 0.2298,0.37164 0.94959,0.4721 1.59961,0.22266 0.92317,-0.35426 0.96825,-0.5857 0.20313,-1.05859 -0.2888,-0.17848 -0.58353,-0.2777 -0.85352,-0.3086 -0.10123,-0.012 -0.19821,-0.0136 -0.29101,-0.008 z m 73.29101,2.18555 c 0.091,-0.004 0.19218,0.0249 0.29688,0.0898 0.4189,0.25888 0.76171,0.79334 0.76171,1.1875 0,0.39415 -0.34281,0.71681 -0.76171,0.7168 -0.4189,1e-5 -0.76172,-0.53443 -0.76172,-1.1875 0,-0.48979 0.19174,-0.79454 0.46484,-0.80664 z m -62.11328,1.23242 c 0.9968,0 0.90104,3.33843 -0.16406,5.67578 -0.8374,1.83807 -2.08897,2.60764 -2.22657,1.36914 -0.035,-0.31418 -0.1488,-1.34826 -0.2539,-2.29687 -0.2014,-1.82021 1.42903,-4.74805 2.64453,-4.74805 z m 5.125,0.33203 c 0.052,-0.003 0.10686,0.0135 0.16406,0.0488 0.4188,0.25887 0.75,1.04948 0.75,1.75781 -0.01,0.70833 -0.3439,1.80332 -0.75,2.43164 -0.5481,0.84804 -0.737,0.39373 -0.75,-1.75976 -0.01,-1.52471 0.22224,-2.45832 0.58594,-2.47852 z m -49.253906,0.42969 c 0.86786,1e-5 1.429159,0.40203 1.261718,0.90429 -0.470119,1.4102 -1.874276,1.56946 -2.373046,0.26954 -0.31584,-0.8232 0.0161,-1.17383 1.111328,-1.17383 z m 148.402346,1.52344 c 0.4058,0 0.54178,0.51422 0.30078,1.14257 -0.2414,0.62832 -0.57358,1.14258 -0.73828,1.14258 -0.1647,0 -0.29883,-0.51426 -0.29883,-1.14258 0,-0.62835 0.33063,-1.14257 0.73633,-1.14257 z m 33.83203,3.33398 c -0.091,-0.002 -0.19218,0.029 -0.29688,0.0937 -0.4188,0.25891 -0.76172,0.98303 -0.76172,1.61133 0,0.62838 0.34292,0.93078 0.76172,0.67187 0.4189,-0.25888 0.76172,-0.98493 0.76172,-1.61328 0,-0.47131 -0.19174,-0.75867 -0.46484,-0.76367 z m -102.39649,0.47461 c -0.4435,0 -0.59493,0.34089 -0.33593,0.75976 0.2589,0.4189 0.62184,0.76172 0.80664,0.76172 0.1847,0 0.33594,-0.34282 0.33594,-0.76172 0,-0.41887 -0.36295,-0.75976 -0.80665,-0.75976 z m 8.58594,0.1582 c 0.3394,0.0179 0.59766,0.2757 0.59766,0.83789 0,0.61841 -0.53837,1.3312 -1.19727,1.58399 -0.8351,0.32051 -1.12452,0.0769 -0.95312,-0.80664 0.1954,-1.00756 0.98703,-1.64514 1.55273,-1.61524 z m 176.14258,0.23047 c -0.311,-0.0125 -0.70729,0.0386 -1.17969,0.16211 -1.6225,0.42436 -1.6697,0.56724 -1,3.06641 0.4813,1.79578 1.49763,2.126 3.20313,1.04492 0.8077,-0.51202 0.74985,-0.74445 -0.27735,-1.13867 -0.9777,-0.37515 -1.08737,-0.74323 -0.45117,-1.50977 0.8085,-0.97422 0.63838,-1.5875 -0.29492,-1.625 z m -226.61719,0.37109 c 0.44362,0 0.80664,0.34285 0.80664,0.76172 0,0.4189 -0.15122,0.76172 -0.33593,0.76172 -0.1846,0 -0.54779,-0.34282 -0.80665,-0.76172 -0.25883,-0.41887 -0.10768,-0.76172 0.33594,-0.76172 z m -45.685544,0.83594 c 0.66507,0.0408 0.818492,0.38746 0.664062,1.19727 -0.14783,0.77482 -1.053742,1.50633 -2.039062,1.64648 -1.3731,0.19529 -1.713733,-0.0629 -1.507813,-1.14258 0.14767,-0.7748 1.053893,-1.50633 2.039063,-1.64648 0.34331,-0.0487 0.62194,-0.0683 0.84375,-0.0547 z"
       style="fill:#333333;fill-opacity:1" />
    <g
       style="fill:#fa023c"
       transform="translate(16)"
       id="g1272">
      <g
         id="layer1-3"
         transform="matrix(0.02388699,0,0,0.02388699,1514.8053,-132.19665)"
         style="fill:#fa023c;stroke:none" />
      <g
         id="layer1-6"
         transform="matrix(0.00634024,0,0,0.00634024,1326.3286,256.21784)"
         style="fill:#fa023c;stroke:none" />
      <g
         style="fill:#fa023c;stroke:none"
         transform="matrix(-0.01851576,0,0,0.01851576,1222.0756,-37.508575)"
         id="g917" />
      <g
         style="fill:#fa023c"
         id="g985"
         transform="matrix(0.0223685,0,0,0.0223685,1414.0491,264.25718)" />
      <g
         style="fill:#fa023c;stroke:none"
         transform="matrix(0.01791895,0,0,0.03104793,1556.4419,-259.42378)"
         id="g1228" />
    </g>
  </g>
</svg>
