<?xml version="1.0" encoding="UTF-8" standalone="no"?>
<!-- Created with Inkscape (http://www.inkscape.org/) -->

<svg
   xmlns:dc="http://purl.org/dc/elements/1.1/"
   xmlns:cc="http://creativecommons.org/ns#"
   xmlns:rdf="http://www.w3.org/1999/02/22-rdf-syntax-ns#"
   xmlns:svg="http://www.w3.org/2000/svg"
   xmlns="http://www.w3.org/2000/svg"
   xmlns:sodipodi="http://sodipodi.sourceforge.net/DTD/sodipodi-0.dtd"
   xmlns:inkscape="http://www.inkscape.org/namespaces/inkscape"
   version="1.1"
   id="svg2"
   width="358"
   height="160"
   viewBox="0 0 358.00001 159.99999"
   sodipodi:docname="ostrava.svg"
   inkscape:version="0.92.2 (5c3e80d, 2017-08-06)">
  <metadata
     id="metadata8">
    <rdf:RDF>
      <cc:Work
         rdf:about="">
        <dc:format>image/svg+xml</dc:format>
        <dc:type
           rdf:resource="http://purl.org/dc/dcmitype/StillImage" />
        <dc:title></dc:title>
      </cc:Work>
    </rdf:RDF>
  </metadata>
  <defs
     id="defs6" />
  <sodipodi:namedview
     pagecolor="#e51f40"
     bordercolor="#666666"
     borderopacity="1"
     objecttolerance="10"
     gridtolerance="10"
     guidetolerance="10"
     inkscape:pageopacity="0"
     inkscape:pageshadow="2"
     inkscape:window-width="1920"
     inkscape:window-height="990"
     id="namedview4"
     showgrid="false"
     inkscape:zoom="1.4142136"
     inkscape:cx="105.16078"
     inkscape:cy="129.58326"
     inkscape:window-x="1920"
     inkscape:window-y="147"
     inkscape:window-maximized="1"
     inkscape:current-layer="layer2"
     showguides="true"
     inkscape:guide-bbox="true"
     fit-margin-top="0"
     fit-margin-left="0"
     fit-margin-right="0"
     fit-margin-bottom="0"
     inkscape:pagecheckerboard="true">
    <sodipodi:guide
       position="-273.64973,-261.16529"
       orientation="1,0"
       id="guide5284"
       inkscape:locked="false" />
    <sodipodi:guide
       position="0.0006227469,-167.12013"
       orientation="1,0"
       id="guide5286"
       inkscape:locked="false" />
    <sodipodi:guide
       position="358.50373,-133.17901"
       orientation="1,0"
       id="guide5288"
       inkscape:locked="false" />
    <sodipodi:guide
       position="-568.9448,160.85078"
       orientation="0,1"
       inkscape:locked="false"
       id="guide1611" />
    <sodipodi:guide
       position="-629.84179,0.60000455"
       orientation="0,1"
       id="guide118"
       inkscape:locked="false" />
    <sodipodi:guide
       position="743.65302,0.55846455"
       orientation="1,0"
       id="guide140"
       inkscape:locked="false" />
    <sodipodi:guide
       position="-628.1973,0.60077266"
       orientation="1,0"
       id="guide1129"
       inkscape:locked="false" />
  </sodipodi:namedview>
  <g
     inkscape:groupmode="layer"
     id="layer2"
     inkscape:label="Layer 2"
     transform="translate(-883.17579,-126.05508)">
    <path
       style="fill:#ffffff;fill-opacity:1;stroke-width:0.99921721"
       d="M -31.111328,-32.419922 -35.353968,193.02894 0,159.99609 v -6.94921 c 0.0861,0.006 3.1425781,-1.17383 3.1425781,-1.17383 l 3.6542969,-1.26172 0.1289062,-4.49219 0.1269532,-4.49219 0.4433594,4.1875 c 0.5261499,4.97264 2.4339362,5.88341 3.1914062,1.52344 l 0.462891,-2.66406 0.109375,2.91015 c 0.0865,2.33145 0.372303,2.8624 1.439453,2.66016 0.92596,-0.17548 1.404286,-1.10653 1.566406,-3.05078 0.20058,-2.40538 0.551794,-2.86915 2.490234,-3.29492 2.90851,-0.63811 8.422866,-0.63372 11.353516,0.01 2.241028,0.4922 2.298828,0.61691 2.298828,5.01368 v 4.50976 l 4.378906,0.11914 c 4.63226,0.12757 7.180774,-5.4e-4 7.564453,-0.38476 0.127481,-0.12785 0.491804,-7.66529 0.808594,-16.74805 0.74725,-21.41994 2.132857,-21.95199 1.810547,-0.69531 -0.16369,10.79543 0.0148,15.42382 0.597656,15.42382 0.54101,0 0.833995,-2.40294 0.833985,-6.85546 1e-5,-3.76999 0.256152,-6.85506 0.570312,-6.85547 0.314594,-3.1e-4 0.452574,3.42792 0.308594,7.61718 l -0.261719,7.61719 h 4.398438 c 5.60035,0 9.313095,-1.30486 9.609375,-3.37695 0.23188,-1.62239 3.652344,-2.78938 3.652344,-1.24609 0,0.44801 0.357931,0.81445 0.794921,0.81445 0.45016,0 0.698856,-1.23747 0.572266,-2.85547 -0.20544,-2.6279 -0.0527,-2.87584 1.916016,-3.10156 1.17665,-0.13493 2.3271,-0.73585 2.55664,-1.33399 0.22941,-0.59811 1.196891,-1.08593 2.150391,-1.08593 1.15423,-10e-6 1.887589,-0.57412 2.193359,-1.71485 0.89818,-3.35163 0.572835,-4.496 -1.234375,-4.34961 -3.02642,0.24518 -5.409685,-0.0141 -4.890625,-0.5332 0.27734,-0.2774 2.048757,-0.4464 3.935547,-0.375 2.53667,0.0959 3.429688,-0.15667 3.429688,-0.9668 0,-0.60258 -0.770341,-1.24232 -1.712891,-1.42383 -0.94249,-0.18154 0.428795,-0.37844 3.046875,-0.43554 4.21776,-0.092 4.759766,-0.27727 4.759766,-1.62696 0,-2.5486 2.078973,-1.71787 2.595703,1.03711 0.38123,2.03172 0.988366,2.72266 2.941406,3.34961 l 2.458984,0.78907 -2.392578,0.0781 c -1.42536,0.0462 -2.580178,0.56584 -2.855469,1.2832 -0.6933,1.80659 -0.557619,7.17188 0.181641,7.17188 0.35471,0 1.436314,0.68565 2.402344,1.52344 l 1.755859,1.52343 h -2.402344 c -1.320799,0 -2.40039,0.3167 -2.40039,0.70313 0,0.94314 4.295449,2.19345 7.724609,2.24804 l 2.773438,0.043 0.464843,-8.92187 c 0.25598,-4.90745 0.550597,-13.97694 0.654297,-20.1543 l 0.1875,-11.23242 1.904297,-0.002 1.904294,-0.002 -0.226559,20.1836 -0.226563,20.18359 h 2.675782 c 1.89484,0 2.91081,-0.44418 3.48828,-1.52344 0.4485,-0.83777 1.31807,-1.52343 1.93164,-1.52343 0.62072,0 1.11524,-0.70038 1.11524,-1.57813 0,-1.68615 1.64816,-3.75195 2.99218,-3.75195 0.44889,0 0.82017,-0.2581 0.82618,-0.57227 0,-0.31414 1.71711,-2.45588 3.80273,-4.75976 2.0856,-2.30391 3.64605,-4.58408 3.46875,-5.06641 -0.1771,-0.48233 0.33964,-1.05019 1.14844,-1.26172 1.3002,-0.33998 1.4707,-1.0988 1.4707,-6.54883 0,-5.51948 0.14903,-6.16406 1.42773,-6.16406 0.9774,0 1.57207,0.72131 1.88477,2.28516 0.6041,3.01985 1.84527,2.9149 2.23047,-0.18946 l 0.30664,-2.47656 0.13281,2.66602 c 0.1037,2.05737 0.30894,2.40517 0.89844,1.52344 0.6707,-1.00283 0.85507,-0.98865 1.50976,0.11914 0.99971,1.69137 3.6201,0.94471 4.0293,-1.14844 0.3132,-1.60137 0.32223,-1.59921 0.42383,0.0781 0.071,1.17131 0.58585,1.71289 1.62695,1.71289 1.1974,0 1.52344,-0.50715 1.52344,-2.37304 0,-2.10748 -0.20858,-2.3339 -1.86328,-2.01758 -1.025,0.19593 -3.16687,0.10329 -4.75977,-0.20508 -2.0963,-0.40577 -0.89871,-0.56427 4.33789,-0.57227 3.9794,-0.006 6.37924,0.22604 5.33204,0.51563 -1.1181,0.30917 -1.99997,1.17656 -2.13477,2.10352 -0.2,1.37363 0.16939,1.58007 2.83789,1.58007 1.6868,0 2.94718,-0.2117 2.80078,-0.46875 -0.1465,-0.25704 0.0195,-1.15247 0.3711,-1.99023 0.44156,-1.05361 0.58926,-0.34894 0.47656,2.28516 l -0.16211,3.80859 -2.47656,-0.24023 c -1.904,-0.18394 -2.47461,0.0563 -2.47461,1.03906 0,0.9863 0.52135,1.20028 2.28515,0.9414 1.453,-0.21327 2.28516,-0.002 2.28516,0.57813 0,0.509 -0.9263,0.86946 -2.0957,0.81836 -2.1272,-0.093 -2.47461,0.20701 -2.47461,2.12695 0,1.07569 1.77183,1.21461 2.76953,0.2168 1.1499,-1.1499 1.80078,-0.41138 1.80078,2.04687 0,2.02846 0.36389,2.67363 1.71289,3.03516 3.2091,0.85999 5.13736,0.54451 5.19336,-0.85156 0.1343,-3.34044 1.36601,1.99772 1.41602,6.13672 0.0329,2.74343 0.3441,4.245 0.8164,3.95312 0.4337,-0.26807 0.76172,0.38981 0.76172,1.52734 0,1.79452 0.25071,1.97224 2.47461,1.75782 2.0626,-0.19886 2.5159,-0.58682 2.7168,-2.33203 0.1325,-1.15194 -0.12597,-2.09571 -0.57227,-2.09571 -0.4468,0 -0.81055,-0.34089 -0.81055,-0.75976 0,-0.41889 0.61745,-0.76172 1.37305,-0.76172 1.2683,0 6.24219,-4.39536 6.24219,-5.51563 0,-0.27015 -1.45603,-0.62092 -3.23633,-0.78125 -3.1498,-0.28372 -3.13194,-0.29628 0.69336,-0.42578 3.3905,-0.11469 4.20766,-0.46061 5.94336,-2.52344 1.1068,-1.31531 1.83373,-2.85807 1.61523,-3.42773 -0.2185,-0.5697 0.0784,-1.03516 0.66211,-1.03516 1.0729,0 7.24672,-5.98923 7.26172,-7.04492 0,-0.31414 -0.93404,-0.60664 -2.08594,-0.64844 l -2.0957,-0.0762 1.9043,-0.52734 c 1.4157,-0.39214 2.0249,-1.20194 2.375,-3.16016 l 0.4707,-2.63281 0.18945,3.04492 c 0.1038,1.67552 0.34351,2.45543 0.53321,1.73242 0.1895,-0.72301 0.9207,-1.26919 1.625,-1.21289 3.3831,0.27058 4.70898,-0.1836 4.70898,-1.61718 0,-1.18702 -0.64108,-1.53755 -3.23828,-1.77149 -1.7803,-0.16033 0.10585,-0.35063 4.18945,-0.42383 4.5315,-0.0812 7.42578,0.16415 7.42578,0.62891 0,0.41886 -0.81605,0.75976 -1.81445,0.75976 -1.2385,1e-5 -1.96199,0.5455 -2.27539,1.71485 -0.7428,2.77169 -0.60232,2.96329 1.98828,2.71289 2.7275,-0.26366 4.12464,-2.86287 1.58594,-2.95117 -1.131,-0.0393 -1.07138,-0.17727 0.32422,-0.73828 0.9426,-0.37881 1.71484,-1.0422 1.71484,-1.47461 0,-0.4324 0.73205,-0.78516 1.62695,-0.78516 1.61412,0 1.62332,0.10723 1.25782,13.39648 -0.3091,11.23269 -0.19053,13.46543 0.73437,13.82032 0.6067,0.2328 1.38131,-0.027 1.72071,-0.57617 0.7219,-1.16794 7.84538,-1.14434 8.24218,0.0273 0.1396,0.41219 1.01702,0.75 1.94922,0.75 0.9323,0 2.35868,0.5022 3.17188,1.11719 1.2818,0.96956 3.82668,1.54685 4.30468,0.97656 0.088,-0.10473 0.34402,-9.6154 0.57032,-21.13477 l 0.41211,-20.945309 h 1.90625 1.90429 l 0.38086,19.867189 0.38086,19.86523 1.83985,-0.13672 c 1.0116,-0.0749 2.43696,-0.87469 3.16796,-1.77734 1.5604,-1.92712 6.03516,-2.32547 6.03516,-0.53711 0,0.60751 -0.53801,1.4056 -1.19531,1.77344 -0.9806,0.54874 -1.09831,1.51243 -0.66211,5.36914 0.5512,4.87117 1.01044,5.49682 2.61914,3.55859 0.5214,-0.62832 2.12851,-1.14258 3.57031,-1.14258 1.9779,0 3.09247,0.56135 4.54297,2.28516 1.9788,2.35172 3.6028,2.79765 5.5957,1.53906 0.9628,-0.60807 1.20254,-4.52563 1.52344,-24.92968 l 0.38086,-24.21094 1.71289,-0.24219 1.71485,-0.24414 0.0859,21.94922 c 0.1,25.30626 0.13593,25.81682 2.01953,28.33984 2.8172,3.77326 3.29582,3.11813 4.25782,-5.83398 0.2251,-2.09353 -0.0137,-3.61204 -0.6543,-4.25781 -1.3466,-1.34664 -1.54662,-3.50749 -0.54102,-5.81836 0.4556,-1.04718 0.85372,-1.56148 0.88672,-1.14258 0.033,0.41886 0.36654,0.27786 0.74024,-0.3125 1.1008,-1.73874 0.0618,-3.11524 -2.35157,-3.11524 -1.3049,0 -2.05259,-0.31965 -1.77929,-0.76171 0.2588,-0.41886 1.47893,-0.76172 2.71094,-0.76172 h 2.24023 v -8.37696 c 0,-7.64248 0.1233,-8.37695 1.4082,-8.37695 1.2528,0 1.45924,0.8895 1.86524,8.06055 0.2513,4.43425 0.85996,8.54826 1.35156,9.14062 0.5759,0.69339 0.6076,1.07617 0.0918,1.07617 -0.9512,0 -0.9461,18.16595 0,18.75391 0.3369,0.20824 0.25611,1.04521 -0.17969,1.85938 -0.6663,1.2449 -0.28395,1.9643 2.40625,4.52343 1.7594,1.6737 3.45924,3.04297 3.77734,3.04297 0.3183,0 0.97007,-1.18281 1.44727,-2.6289 0.8302,-2.51556 2.3509,-3.56763 5.5664,-3.85352 0.7508,-0.0667 1.54493,0.17032 1.76563,0.52734 0.2206,0.35702 0.7418,0.43894 1.1582,0.18164 0.4164,-0.25735 1.33627,0.0271 2.04297,0.63282 1.8463,1.58258 4.13292,2.26734 4.66992,1.39843 0.7139,-1.15507 2.25541,0.17453 2.56641,2.2129 0.1538,1.00691 0.63486,1.94926 1.06836,2.09374 0.5143,0.17145 0.9811,-5.17304 1.3457,-15.38281 0.4492,-12.58078 0.76599,-15.64648 1.61719,-15.64648 0.8685,0 1.06055,2.73618 1.06055,15.23242 v 15.23242 h 4.14257 c 2.2792,0 4.35654,0.34285 4.61524,0.76172 0.11555,0.187 3.50646,0.32854 4.29492,0.44336 0.0445,-0.08 0.73144,-0.30483 1.04883,-0.46289 0.3913,-0.19487 0.88505,-0.73258 1.37695,-0.67188 3.1103,0.38394 4.44691,-0.19841 5.16211,-2.25 1.0012,-2.8723 3.98706,-4.30792 5.60156,-2.69336 1.553,1.55293 2.58036,0.78913 2.12696,-1.58203 -0.2153,-1.12691 -0.0168,-1.92187 0.48242,-1.92187 0.4677,0 0.84961,0.28971 0.84961,0.64453 0,0.35478 0.68554,1.43638 1.52344,2.40234 l 1.52343,1.75586 v -1.73242 c 0,-1.39557 0.2076,-1.56311 1.0625,-0.85351 0.8178,0.67868 1.33002,0.6133 2.22852,-0.28516 0.6826,-0.6826 1.71553,-0.95551 2.49023,-0.6582 0.7355,0.28217 1.13148,0.19771 0.89258,-0.19141 -0.2365,-0.38537 0.73566,-0.72641 2.16016,-0.75781 2.3965,-0.0528 2.59004,0.11624 2.58984,2.2832 0,2.11051 0.22616,2.33649 2.28906,2.27539 1.259,-0.0374 2.49339,-0.27078 2.74219,-0.51953 0.2487,-0.2487 1.43387,0.55274 2.63477,1.78125 0.5097,0.52139 0.97634,0.93651 1.40234,1.27734 l 1.87891,-0.16015 c -0.0105,-0.0107 -0.01,-0.0164 -0.01,-0.0273 -0.5587,-1.45606 0.35886,-1.43667 1.44336,-0.0957 l 2.69727,1.44922 v 1.02148 l 44.75225,36.50784 -2.82843,-228.923852 z M 189.51758,113.82812 c -1.4789,2e-5 -1.82984,1.18738 -0.99414,3.36524 0.5504,1.43441 1.79786,1.60132 1.88086,0.25195 0.031,-0.52359 0.17395,-1.55207 0.31445,-2.28515 0.1709,-0.89346 -0.22537,-1.33204 -1.20117,-1.33204 z m -6.08789,5.70508 c -0.4097,-0.0448 -0.69922,0.10586 -0.69922,0.41016 0,0.40573 0.51428,0.73828 1.14258,0.73828 0.6284,0 1.14257,-0.13421 1.14257,-0.29883 0,-0.16465 -0.51417,-0.49713 -1.14257,-0.73828 -0.157,-0.0602 -0.30686,-0.0964 -0.44336,-0.11133 z m 11.01758,0.38672 c -0.5795,0 -1.05469,0.68567 -1.05469,1.52344 0,0.99055 0.50707,1.52344 1.45117,1.52344 1.07669,0 1.35009,-0.39361 1.05469,-1.52344 -0.2192,-0.83777 -0.87167,-1.52344 -1.45117,-1.52344 z m -57.16797,2.44141 c -0.1571,-0.0199 -0.2461,0.0876 -0.2461,0.32617 0,1.01657 0.90011,1.91649 1.40821,1.4082 0.2165,-0.21643 -0.0112,-0.79729 -0.50586,-1.29297 -0.2732,-0.27325 -0.49925,-0.4215 -0.65625,-0.4414 z m 41.66992,1.36719 c -0.9123,0 -2.41528,2.69011 -1.83008,3.27539 0.8306,0.8305 2.56445,-0.40988 2.56445,-1.83399 0,-0.79296 -0.33027,-1.4414 -0.73437,-1.4414 z m 15.65039,0.0156 c -0.6454,0.0559 -1.20703,0.55004 -1.20703,1.38086 0,0.76794 0.23599,1.63267 0.52539,1.92188 0.777,0.77719 2.78825,-1.50901 2.18555,-2.48438 -0.3122,-0.50504 -0.77046,-0.76565 -1.22266,-0.81445 -0.0941,-0.01 -0.18925,-0.0119 -0.28125,-0.004 z m -67.17188,1.79492 c -0.091,-0.002 -0.19022,0.029 -0.29492,0.0937 -0.419,0.25891 -0.76172,0.98493 -0.76172,1.61328 0,0.62828 0.34272,0.93075 0.76172,0.67188 0.4188,-0.25893 0.76172,-0.98498 0.76172,-1.61328 0,-0.47128 -0.1937,-0.76063 -0.4668,-0.76563 z m 4.74805,1.53321 c -0.2776,0.009 -0.47266,0.31096 -0.47266,0.80078 0,1.3378 0.45658,1.53488 1.10938,0.47851 0.2411,-0.38996 0.089,-0.9244 -0.33594,-1.1875 -0.1064,-0.0658 -0.20778,-0.0948 -0.30078,-0.0918 z m 5.33203,0 c -0.2776,0.009 -0.47461,0.31096 -0.47461,0.80078 0,1.3378 0.45648,1.53488 1.10938,0.47851 0.2409,-0.38996 0.0891,-0.9244 -0.33594,-1.1875 -0.1064,-0.0658 -0.20583,-0.0948 -0.29883,-0.0918 z m 38.71289,1.22656 c -1.1411,0 -4.84162,3.60146 -4.89062,4.75976 -0.051,1.21062 1.88969,0.48166 3.93359,-1.47656 2.4042,-2.30339 2.69003,-3.2832 0.95703,-3.2832 z m 18.91016,0.76172 c -1.2266,0.001 -1.2534,0.93924 -0.0625,2.13086 0.5028,0.50264 0.94251,0.91405 0.97852,0.91406 0.0351,0 0.0645,-0.68564 0.0645,-1.52344 0,-0.83676 -0.44082,-1.51948 -0.97852,-1.52148 z m -6.0293,0.26172 c -0.1154,-0.0175 -0.19575,0.26188 -0.21875,0.8164 -0.033,0.80287 0.14729,1.25307 0.40039,1 0.25415,-0.25307 0.27975,-0.91114 0.0606,-1.46094 -0.0912,-0.22784 -0.17319,-0.34496 -0.24219,-0.35546 z m -9.62304,0.71875 c -0.195,-0.0824 -0.57536,0.24906 -1.31836,0.92187 -0.8379,0.75816 -1.52344,1.66946 -1.52344,2.02344 0,0.35397 0.68554,0.64258 1.52344,0.64258 1.1406,0 1.52343,-0.50716 1.52343,-2.02149 0,-0.98692 -0.0101,-1.484 -0.20507,-1.5664 z m 1.32226,0.89453 c -0.13737,-0.0513 -0.23437,0.38442 -0.23437,1.16992 0,1.04722 0.17151,1.47674 0.38281,0.95312 0.2113,-0.52359 0.2113,-1.38066 0,-1.90429 -0.0524,-0.13085 -0.10244,-0.20165 -0.14844,-0.21875 z m -53.66797,0.4082 c -0.419,0 -0.76,1.1152 -0.75,2.47656 0.013,1.87834 0.1898,2.19895 0.75,1.33203 0.4061,-0.62832 0.74,-1.74154 0.75,-2.47461 0,-0.73304 -0.3312,-1.33398 -0.75,-1.33398 z m 55.59766,0 c -0.4188,0 -0.76172,0.53444 -0.76172,1.1875 0,0.653 0.34302,0.97568 0.76172,0.7168 0.4191,-0.25887 0.76172,-0.79331 0.76172,-1.1875 0,-0.39415 -0.34262,-0.7168 -0.76172,-0.7168 z m -60.4082,0.0723 c -0.1968,0.0246 -0.58558,0.49977 -1.35938,1.45117 -0.8516,1.04721 -2.75229,3.33669 -4.22461,5.08789 -1.4724,1.75119 -2.62068,3.42816 -2.55078,3.72461 0.0694,0.29641 -0.32931,0.82899 -0.88867,1.18359 -0.62336,0.39511 -0.68259,0.64925 -0.15235,0.65625 0.47578,0.006 2.10322,-1.26365 3.61719,-2.82226 1.51373,-1.5586 2.75195,-3.18992 2.75195,-3.625 0,-0.43507 0.68574,-1.21897 1.52344,-1.74219 0.8378,-0.52319 1.51205,-1.71926 1.49805,-2.6582 -0.0125,-0.85301 -0.018,-1.28046 -0.21484,-1.25586 z m 106.04101,0.0234 c 0.2646,0.0109 0.49264,0.0805 0.61914,0.20703 0.253,0.25307 -0.1971,0.43349 -1,0.4004 -0.8872,-0.0365 -1.06844,-0.2178 -0.46094,-0.46094 0.2749,-0.10999 0.5772,-0.15739 0.8418,-0.14649 z m -148.958983,0.0566 c -1.5763,0 -2.539063,0.37694 -2.539063,0.99219 0,0.62962 0.925983,0.96367 2.539063,0.91797 1.43471,-0.0406 2.539062,-0.47095 2.539062,-0.99023 0,-0.53371 -1.064512,-0.91993 -2.539062,-0.91993 z m 75.501953,0.96289 c 0.046,0.0171 0.0954,0.0879 0.14844,0.21875 0.2112,0.52359 0.2112,1.38071 0,1.9043 -0.2113,0.52362 -0.38477,0.0942 -0.38477,-0.95312 0,-0.78541 0.0985,-1.22123 0.23633,-1.16993 z m -76.771484,1.93164 c -1.432635,0 -1.993485,0.73294 -1.515625,1.97852 0.62177,1.61999 2.53125,1.27668 2.53125,-0.45508 0,-0.8378 -0.457235,-1.52344 -1.015625,-1.52344 z m 92.841794,0 c -1.3187,10e-6 -6.54037,6.1974 -6.48437,7.69532 0.025,0.65887 0.49427,0.41083 1.23437,-0.65039 0.6575,-0.94249 1.51259,-1.71289 1.90039,-1.71289 0.7887,0 4.37802,-3.86929 4.41602,-4.75977 0.013,-0.31418 -0.46621,-0.57227 -1.06641,-0.57227 z m 56.80469,0 c 0.3552,10e-6 0.64648,1.02849 0.64648,2.28516 0,1.25666 -0.32023,2.28516 -0.71093,2.28516 -0.3909,1e-5 -0.68249,-1.0285 -0.64649,-2.28516 0.035,-1.25667 0.35574,-2.28516 0.71094,-2.28516 z m -50.74023,0.14844 c -3.3872,0.22283 -10.05469,9.36058 -8.49219,11.88867 0.2378,0.38472 2.06931,0.638 4.07031,0.5625 l 3.63672,-0.13671 0.44726,-3.29493 c 0.24802,-1.82891 1.038,-3.72641 1.7754,-4.26562 1.9973,-1.4605 1.2867,-4.46756 -1.1211,-4.74805 -0.102,-0.012 -0.2071,-0.0129 -0.3164,-0.006 z m -66.375,0.24219 c 0.0928,-0.006 0.18978,-0.004 0.29101,0.008 0.26999,0.0309 0.56472,0.13012 0.85352,0.3086 0.76512,0.47289 0.72004,0.70433 -0.20313,1.05859 -0.65002,0.24944 -1.36981,0.14898 -1.59961,-0.22266 -0.39394,-0.6376 0.009,-1.10714 0.65821,-1.15234 z m 73.29101,2.18555 c -0.2731,0.0121 -0.46484,0.31685 -0.46484,0.80664 0,0.65307 0.34282,1.18751 0.76172,1.1875 0.4189,1e-5 0.76171,-0.32265 0.76171,-0.7168 0,-0.39416 -0.34281,-0.92862 -0.76171,-1.1875 -0.1047,-0.0649 -0.20588,-0.0938 -0.29688,-0.0898 z m -62.11328,1.23242 c -1.2155,0 -2.84593,2.92784 -2.64453,4.74805 0.1051,0.94861 0.21891,1.98269 0.2539,2.29687 0.13761,1.2385 1.38917,0.46893 2.22657,-1.36914 1.0651,-2.33735 1.16086,-5.67578 0.16406,-5.67578 z m 5.125,0.33203 c -0.3637,0.0202 -0.59594,0.95381 -0.58594,2.47852 0.013,2.15349 0.2019,2.6078 0.75,1.75976 0.4061,-0.62832 0.74,-1.72331 0.75,-2.43164 0,-0.70833 -0.3312,-1.49894 -0.75,-1.75781 -0.0572,-0.0353 -0.11206,-0.0518 -0.16406,-0.0488 z m -49.253906,0.42969 c -1.095228,0 -1.427168,0.35063 -1.111328,1.17383 0.49877,1.29992 1.902928,1.14066 2.373046,-0.26954 0.167441,-0.50226 -0.393858,-0.90428 -1.261718,-0.90429 z m 148.402346,1.52344 c -0.4057,-10e-6 -0.73633,0.51422 -0.73633,1.14257 0,0.62832 0.13413,1.14258 0.29883,1.14258 0.1647,0 0.49688,-0.51426 0.73828,-1.14258 0.241,-0.62835 0.10502,-1.14257 -0.30078,-1.14257 z m 33.83203,3.33398 c 0.2731,0.005 0.46484,0.29236 0.46484,0.76367 0,0.62835 -0.34282,1.3544 -0.76172,1.61328 -0.4188,0.25891 -0.76172,-0.0435 -0.76172,-0.67187 0,-0.6283 0.34292,-1.35242 0.76172,-1.61133 0.1047,-0.0647 0.20588,-0.0958 0.29688,-0.0937 z m -102.39649,0.47461 c 0.4437,0 0.80665,0.34089 0.80665,0.75976 0,0.4189 -0.15124,0.76172 -0.33594,0.76172 -0.1848,0 -0.54774,-0.34282 -0.80664,-0.76172 -0.259,-0.41887 -0.10757,-0.75976 0.33593,-0.75976 z m 8.58594,0.1582 c -0.5657,-0.0299 -1.35733,0.60768 -1.55273,1.61524 -0.1714,0.88354 0.11802,1.12715 0.95312,0.80664 0.6589,-0.25279 1.19727,-0.96558 1.19727,-1.58399 0,-0.56219 -0.25826,-0.81999 -0.59766,-0.83789 z m 176.14258,0.23047 c 0.9333,0.0375 1.10342,0.65078 0.29492,1.625 -0.6362,0.76654 -0.52653,1.13462 0.45117,1.50977 1.0272,0.39422 1.08505,0.62665 0.27735,1.13867 -1.7055,1.08108 -2.72183,0.75086 -3.20313,-1.04492 -0.6697,-2.49917 -0.6225,-2.64205 1,-3.06641 0.4724,-0.12351 0.86869,-0.17461 1.17969,-0.16211 z m -226.61719,0.37109 c -0.44362,0 -0.59477,0.34285 -0.33594,0.76172 0.25886,0.4189 0.62205,0.76172 0.80665,0.76172 0.18471,0 0.33593,-0.34282 0.33593,-0.76172 0,-0.41887 -0.36302,-0.76172 -0.80664,-0.76172 z m -45.685544,0.83594 c -0.22181,-0.0136 -0.50044,0.006 -0.84375,0.0547 -0.98517,0.14015 -1.891393,0.87168 -2.039063,1.64648 -0.20592,1.07968 0.134713,1.33787 1.507813,1.14258 0.98532,-0.14015 1.891232,-0.87166 2.039062,-1.64648 0.15443,-0.80981 0.001,-1.15647 -0.664062,-1.19727 z"
       transform="translate(883.17579,126.05508)"
       id="rect1135"
       inkscape:connector-curvature="0"
       sodipodi:nodetypes="ccccccccccccccccsccccssccccscssccccccccsccscccccsccsscccccccccscsssccccssccccccccsscccccscccccscscscsccccsccssssccccscccccccccsccscccccssccccsccccccccccscccscccccccccccccscscssccscccscccccccccsscscccccccssccsccccccccccccccccccccccccsssccssscscscccscsscsccccccscsccsccccscccsccscccscccccccscsssscscccscccssscsssccccccsccsscccssscsscccscscsscccscccsccccccccccccccscccscsccscccscccccccccccsscccscsccssscscccsccccccccscssscccccc" />
  </g>
</svg>
