<?xml version="1.0" encoding="UTF-8" standalone="no"?>
<!-- Created with Inkscape (http://www.inkscape.org/) -->

<svg
   xmlns:dc="http://purl.org/dc/elements/1.1/"
   xmlns:cc="http://creativecommons.org/ns#"
   xmlns:rdf="http://www.w3.org/1999/02/22-rdf-syntax-ns#"
   xmlns:svg="http://www.w3.org/2000/svg"
   xmlns="http://www.w3.org/2000/svg"
   xmlns:sodipodi="http://sodipodi.sourceforge.net/DTD/sodipodi-0.dtd"
   xmlns:inkscape="http://www.inkscape.org/namespaces/inkscape"
   version="1.1"
   id="svg2"
   width="358.50391"
   height="160.5"
   viewBox="0 0 358.50392 160.49999"
   sodipodi:docname="ostrava.svg"
   inkscape:version="0.92.2 (5c3e80d, 2017-08-06)">
  <metadata
     id="metadata8">
    <rdf:RDF>
      <cc:Work
         rdf:about="">
        <dc:format>image/svg+xml</dc:format>
        <dc:type
           rdf:resource="http://purl.org/dc/dcmitype/StillImage" />
        <dc:title />
      </cc:Work>
    </rdf:RDF>
  </metadata>
  <defs
     id="defs6" />
  <sodipodi:namedview
     pagecolor="#ffffff"
     bordercolor="#666666"
     borderopacity="1"
     objecttolerance="10"
     gridtolerance="10"
     guidetolerance="10"
     inkscape:pageopacity="0"
     inkscape:pageshadow="2"
     inkscape:window-width="1366"
     inkscape:window-height="704"
     id="namedview4"
     showgrid="false"
     inkscape:zoom="1.4142136"
     inkscape:cx="215.57135"
     inkscape:cy="57.490303"
     inkscape:window-x="0"
     inkscape:window-y="27"
     inkscape:window-maximized="1"
     inkscape:current-layer="layer2"
     showguides="true"
     inkscape:guide-bbox="true"
     fit-margin-top="0"
     fit-margin-left="0"
     fit-margin-right="0"
     fit-margin-bottom="0">
    <sodipodi:guide
       position="-273.64973,-261.26529"
       orientation="1,0"
       id="guide5284"
       inkscape:locked="false" />
    <sodipodi:guide
       position="0.0006227469,-167.22013"
       orientation="1,0"
       id="guide5286"
       inkscape:locked="false" />
    <sodipodi:guide
       position="358.50373,-133.27901"
       orientation="1,0"
       id="guide5288"
       inkscape:locked="false" />
    <sodipodi:guide
       position="-568.9448,160.75078"
       orientation="0,1"
       inkscape:locked="false"
       id="guide1611" />
    <sodipodi:guide
       position="-629.84179,0.50000455"
       orientation="0,1"
       id="guide118"
       inkscape:locked="false" />
    <sodipodi:guide
       position="743.65302,0.45846455"
       orientation="1,0"
       id="guide140"
       inkscape:locked="false" />
    <sodipodi:guide
       position="-628.1973,0.50077266"
       orientation="1,0"
       id="guide1129"
       inkscape:locked="false" />
  </sodipodi:namedview>
  <g
     inkscape:groupmode="layer"
     id="layer2"
     inkscape:label="Layer 2"
     transform="translate(-883.17579,-125.45509)">
    <rect
       style="fill:#ffffff;fill-opacity:1;stroke-width:0.99921721"
       id="rect1135"
       width="358.50311"
       height="160"
       x="883.17639"
       y="125.45509" />
    <path
       style="fill:#e51f40;fill-opacity:1"
       d="m 1104.3672,225.69728 -0.4121,20.94531 c -0.2263,11.51937 -0.4823,21.03004 -0.5703,21.13477 -0.478,0.57029 -3.0229,-0.007 -4.3047,-0.97657 -0.8132,-0.61499 -2.2396,-1.11718 -3.1719,-1.11718 -0.9322,0 -1.8096,-0.33781 -1.9492,-0.75 -0.3968,-1.17168 -7.5203,-1.1953 -8.2422,-0.0274 -0.3394,0.54917 -1.114,0.80897 -1.7207,0.57617 -0.9249,-0.35489 -1.0435,-2.58763 -0.7344,-13.82031 0.3655,-13.28926 0.3563,-13.39648 -1.2578,-13.39648 -0.8949,0 -1.6269,0.35275 -1.6269,0.78515 0,0.43241 -0.7723,1.0958 -1.7149,1.47461 -1.3956,0.56101 -1.4552,0.69898 -0.3242,0.73828 2.5387,0.0883 1.1416,2.68752 -1.5859,2.95118 -2.5906,0.2504 -2.7311,0.0588 -1.9883,-2.71289 0.3134,-1.16935 1.0369,-1.71485 2.2754,-1.71485 0.9984,0 1.8144,-0.3409 1.8144,-0.75976 0,-0.46476 -2.8943,-0.71011 -7.4258,-0.62891 -4.0836,0.0732 -5.9697,0.2635 -4.1894,0.42383 2.5972,0.23394 3.2383,0.58446 3.2383,1.77148 0,1.43358 -1.3259,1.88777 -4.709,1.61719 -0.7043,-0.0563 -1.4355,0.48988 -1.625,1.21289 -0.1897,0.72301 -0.4294,-0.0569 -0.5332,-1.73242 l -0.1895,-3.04492 -0.4707,2.63281 c -0.3501,1.95822 -0.9593,2.76802 -2.375,3.16016 l -1.9043,0.52734 2.0957,0.0762 c 1.1519,0.0418 2.086,0.3343 2.086,0.64844 -0.015,1.05569 -6.1888,7.04492 -7.2617,7.04492 -0.5837,0 -0.8807,0.46546 -0.6622,1.03516 0.2185,0.56966 -0.5084,2.11242 -1.6152,3.42773 -1.7357,2.06283 -2.5528,2.40875 -5.9433,2.52344 -3.8253,0.1295 -3.8432,0.14206 -0.6934,0.42578 1.7803,0.16033 3.2363,0.5111 3.2363,0.78125 0,1.12027 -4.9739,5.51562 -6.2422,5.51562 -0.7556,0 -1.373,0.34283 -1.373,0.76172 0,0.41887 0.3637,0.75977 0.8105,0.75977 0.4463,0 0.7048,0.94376 0.5723,2.0957 -0.2009,1.74521 -0.6542,2.13317 -2.7168,2.33203 -2.2239,0.21442 -2.4746,0.0367 -2.4746,-1.75781 0,-1.13753 -0.328,-1.79541 -0.7617,-1.52734 -0.4723,0.29188 -0.7835,-1.2097 -0.8164,-3.95313 -0.05,-4.139 -1.2817,-9.47716 -1.416,-6.13672 -0.056,1.39607 -1.9843,1.71156 -5.1934,0.85157 -1.349,-0.36153 -1.7129,-1.0067 -1.7129,-3.03516 0,-2.45825 -0.6509,-3.19678 -1.8008,-2.04688 -0.9977,0.99781 -2.7695,0.8589 -2.7695,-0.21679 0,-1.91994 0.3474,-2.21996 2.4746,-2.12696 1.1694,0.0511 2.0957,-0.30935 2.0957,-0.81835 0,-0.58014 -0.8322,-0.7914 -2.2852,-0.57813 -1.7638,0.25888 -2.2851,0.0449 -2.2851,-0.94141 0,-0.98276 0.5706,-1.22299 2.4746,-1.03906 l 2.4766,0.24024 0.1621,-3.8086 c 0.1127,-2.6341 -0.035,-3.33876 -0.4766,-2.28515 -0.3516,0.83776 -0.5176,1.73319 -0.3711,1.99023 0.1464,0.25705 -1.114,0.46875 -2.8008,0.46875 -2.6685,0 -3.0379,-0.20645 -2.8379,-1.58008 0.1348,-0.92696 1.0167,-1.79434 2.1348,-2.10351 1.0472,-0.28959 -1.3526,-0.52163 -5.332,-0.51563 -5.2366,0.008 -6.4342,0.1665 -4.3379,0.57227 1.5929,0.30837 3.7347,0.40101 4.7597,0.20508 1.6547,-0.31632 1.8633,-0.0899 1.8633,2.01757 0,1.86589 -0.326,2.37305 -1.5234,2.37305 -1.0411,0 -1.556,-0.54158 -1.627,-1.71289 -0.1016,-1.67733 -0.1106,-1.67945 -0.4238,-0.0781 -0.4092,2.09315 -3.0296,2.83981 -4.0293,1.14844 -0.6547,-1.10779 -0.8391,-1.12195 -1.5098,-0.11914 -0.5895,0.88173 -0.7947,0.53393 -0.8984,-1.52344 l -0.1328,-2.66601 -0.3066,2.47656 c -0.3852,3.10436 -1.6264,3.2093 -2.2305,0.18945 -0.3127,-1.56385 -0.9074,-2.28515 -1.8848,-2.28515 -1.2787,0 -1.4277,0.64458 -1.4277,6.16406 0,5.45003 -0.1705,6.20885 -1.4707,6.54883 -0.8088,0.21153 -1.3256,0.77939 -1.1485,1.26172 0.1773,0.48233 -1.3831,2.76249 -3.4687,5.0664 -2.08562,2.30388 -3.80273,4.44563 -3.80273,4.75977 -0.006,0.31417 -0.37728,0.57226 -0.82617,0.57226 -1.34402,0 -2.99219,2.06581 -2.99219,3.75196 0,0.87775 -0.49451,1.57812 -1.11523,1.57812 -0.61357,0 -1.48315,0.68567 -1.93165,1.52344 -0.57747,1.07926 -1.59344,1.52344 -3.48828,1.52344 h -2.67578 l 0.22656,-20.1836 0.22657,-20.18359 -1.9043,0.002 -1.9043,0.002 -0.1875,11.23242 c -0.1037,6.17736 -0.39831,15.24684 -0.65429,20.15429 l -0.46485,8.92188 -2.77344,-0.043 c -3.42916,-0.0546 -7.7246,-1.30491 -7.7246,-2.24805 0,-0.38643 1.07959,-0.70312 2.40039,-0.70312 h 2.40234 l -1.75586,-1.52344 c -0.96603,-0.83779 -2.04763,-1.52344 -2.40234,-1.52344 -0.73926,0 -0.87494,-5.36528 -0.18164,-7.17187 0.27529,-0.71736 1.43011,-1.237 2.85547,-1.2832 l 2.39257,-0.0781 -2.45898,-0.78906 c -1.95304,-0.62695 -2.56018,-1.31789 -2.94141,-3.34961 -0.51673,-2.75498 -2.5957,-3.58571 -2.5957,-1.03711 0,1.34969 -0.54201,1.53495 -4.75977,1.62695 -2.61808,0.0571 -3.98936,0.25401 -3.04687,0.43555 0.94255,0.18151 1.71289,0.82125 1.71289,1.42383 0,0.81013 -0.89302,1.0627 -3.42969,0.96679 -1.88679,-0.0714 -3.6582,0.0976 -3.93554,0.375 -0.51906,0.51911 1.8642,0.77839 4.89062,0.53321 1.80721,-0.14639 2.13256,0.99798 1.23438,4.34961 -0.30577,1.14073 -1.03913,1.71484 -2.19336,1.71484 -0.9535,0 -1.92099,0.48783 -2.1504,1.08594 -0.22954,0.59814 -1.37999,1.19905 -2.55664,1.33398 -1.96872,0.22572 -2.12145,0.47367 -1.91601,3.10157 0.12659,1.618 -0.12211,2.85546 -0.57227,2.85546 -0.43699,0 -0.79492,-0.36643 -0.79492,-0.81445 0,-1.54327 -3.42046,-0.37629 -3.65234,1.2461 -0.29628,2.07209 -4.00903,3.37695 -9.60938,3.37695 h -4.39844 l 0.26172,-7.61719 c 0.14398,-4.18926 0.006,-7.6175 -0.30859,-7.61719 -0.31416,4.1e-4 -0.5703,3.08548 -0.57031,6.85547 1e-5,4.45252 -0.29298,6.85547 -0.83399,6.85547 -0.58286,0 -0.76134,-4.6284 -0.59765,-15.42383 0.32231,-21.25668 -1.0633,-20.72462 -1.81055,0.69532 -0.31679,9.08276 -0.68111,16.62019 -0.80859,16.74804 -0.38368,0.38422 -2.9322,0.51234 -7.56446,0.38477 l -4.3789,-0.11914 v -4.50977 c 0,-4.39676 -0.0578,-4.52147 -2.29883,-5.01367 -2.93065,-0.64348 -8.44501,-0.64835 -11.35352,-0.01 -1.93844,0.42577 -2.28965,0.88955 -2.49023,3.29493 -0.16212,1.94425 -0.64045,2.8753 -1.56641,3.05078 -1.06715,0.20224 -1.35295,-0.32871 -1.43945,-2.66016 l -0.10938,-2.91016 -0.46289,2.66407 c -0.75747,4.35997 -2.66525,3.4492 -3.1914,-1.52344 l -0.44336,-4.1875 -0.12695,4.49219 -0.12891,4.49218 -3.6543,1.26172 c 0,0 -3.05648,1.17983 -3.14258,1.17383 v 6.94935 h 308.77731 c -0.3512,-0.11928 -0.641,-0.26908 -0.7656,-0.4707 -0.2587,-0.4189 -2.336,-0.76172 -4.6152,-0.76172 h -4.1426 v -15.23242 c 0,-12.49624 -0.192,-15.23243 -1.0605,-15.23243 -0.8512,0 -1.168,3.06571 -1.6172,15.64649 -0.3646,10.20977 -0.8314,15.55426 -1.3457,15.38281 -0.4335,-0.14449 -0.9146,-1.08683 -1.0684,-2.09375 -0.311,-2.03836 -1.8525,-3.36796 -2.5664,-2.21289 -0.537,0.86891 -2.8236,0.18414 -4.6699,-1.39844 -0.7067,-0.60571 -1.6266,-0.89016 -2.043,-0.63281 -0.4164,0.2573 -0.9376,0.17538 -1.1582,-0.18164 -0.2207,-0.35702 -1.0148,-0.59404 -1.7656,-0.52734 -3.2155,0.28589 -4.7362,1.33795 -5.5664,3.85351 -0.4772,1.44609 -1.129,2.62891 -1.4473,2.62891 -0.3181,0 -2.0179,-1.36927 -3.7773,-3.04297 -2.6902,-2.55913 -3.0726,-3.27854 -2.4063,-4.52344 0.4358,-0.81417 0.5166,-1.65113 0.1797,-1.85937 -0.9461,-0.58796 -0.9512,-18.75391 0,-18.75391 0.5158,0 0.4839,-0.38278 -0.092,-1.07617 -0.4916,-0.59236 -1.1003,-4.70638 -1.3516,-9.14063 -0.406,-7.17105 -0.6124,-8.06054 -1.8652,-8.06054 -1.2849,0 -1.4082,0.73447 -1.4082,8.37695 v 8.37695 h -2.2402 c -1.232,0 -2.4522,0.34286 -2.711,0.76172 -0.2733,0.44206 0.4744,0.76172 1.7793,0.76172 2.4134,0 3.4524,1.37649 2.3516,3.11523 -0.3737,0.59036 -0.7072,0.73136 -0.7402,0.3125 -0.033,-0.4189 -0.4312,0.0954 -0.8868,1.14258 -1.0056,2.31087 -0.8055,4.47172 0.5411,5.81836 0.6406,0.64577 0.8793,2.16429 0.6542,4.25782 -0.962,8.95211 -1.4406,9.60724 -4.2578,5.83398 -1.8836,-2.52302 -1.9195,-3.03358 -2.0195,-28.33984 l -0.086,-21.94922 -1.7148,0.24414 -1.7129,0.24218 -0.3809,24.21094 c -0.3209,20.40405 -0.5606,24.32162 -1.5234,24.92969 -1.9929,1.25859 -3.6169,0.81266 -5.5957,-1.53906 -1.4505,-1.72381 -2.5651,-2.28516 -4.543,-2.28516 -1.4418,0 -3.0489,0.51426 -3.5703,1.14258 -1.6087,1.93823 -2.068,1.31258 -2.6192,-3.55859 -0.4362,-3.85671 -0.3184,-4.8204 0.6622,-5.36914 0.6573,-0.36784 1.1953,-1.16593 1.1953,-1.77344 0,-1.78836 -4.4748,-1.39001 -6.0352,0.53711 -0.731,0.90265 -2.1563,1.70244 -3.1679,1.77734 l -1.8399,0.13672 -0.3808,-19.86523 -0.3809,-19.86719 h -1.9043 z m -31.6738,14.08984 c 0.9758,0 1.372,0.43857 1.2011,1.33203 -0.1405,0.73308 -0.2834,1.76157 -0.3144,2.28516 -0.083,1.34937 -1.3305,1.18246 -1.8809,-0.25195 -0.8357,-2.17786 -0.4847,-3.36524 0.9942,-3.36524 z m -6.0879,5.70508 c 0.1365,0.0149 0.2863,0.0511 0.4433,0.11133 0.6284,0.24115 1.1426,0.57363 1.1426,0.73828 0,0.16462 -0.5142,0.29883 -1.1426,0.29883 -0.6283,0 -1.1425,-0.33255 -1.1425,-0.73828 0,-0.3043 0.2895,-0.45496 0.6992,-0.41016 z m 11.0176,0.38672 c 0.5795,0 1.2319,0.68567 1.4511,1.52344 0.2954,1.12983 0.022,1.52343 -1.0547,1.52343 -0.9441,0 -1.4511,-0.53288 -1.4511,-1.52343 0,-0.83777 0.4752,-1.52344 1.0547,-1.52344 z m -57.168,2.4414 c 0.157,0.0199 0.383,0.16816 0.6562,0.44141 0.4947,0.49568 0.7224,1.07654 0.5059,1.29297 -0.5081,0.50829 -1.4082,-0.39163 -1.4082,-1.4082 0,-0.23858 0.089,-0.34608 0.2461,-0.32618 z m 41.6699,1.36719 c 0.4041,0 0.7344,0.64845 0.7344,1.44141 0,1.42411 -1.7339,2.66448 -2.5645,1.83398 -0.5852,-0.58528 0.9178,-3.27539 1.8301,-3.27539 z m 15.6504,0.0156 c 0.092,-0.008 0.1872,-0.006 0.2813,0.004 0.4522,0.0488 0.9104,0.30942 1.2226,0.81446 0.6027,0.97537 -1.4085,3.26156 -2.1855,2.48437 -0.2894,-0.28921 -0.5254,-1.15393 -0.5254,-1.92187 0,-0.83082 0.5616,-1.32496 1.207,-1.38086 z m -67.1719,1.79492 c 0.2731,0.005 0.4668,0.29434 0.4668,0.76562 0,0.6283 -0.3429,1.35436 -0.7617,1.61329 -0.419,0.25887 -0.7617,-0.0436 -0.7617,-0.67188 0,-0.62835 0.3427,-1.35437 0.7617,-1.61328 0.1047,-0.0647 0.2039,-0.0957 0.2949,-0.0937 z m 4.7481,1.5332 c 0.093,-0.003 0.1944,0.026 0.3008,0.0918 0.4249,0.2631 0.577,0.79754 0.3359,1.1875 -0.6528,1.05637 -1.1094,0.85928 -1.1094,-0.47852 0,-0.48982 0.1951,-0.79178 0.4727,-0.80078 z m 5.332,0 c 0.093,-0.003 0.1924,0.026 0.2988,0.0918 0.425,0.2631 0.5769,0.79754 0.336,1.1875 -0.6529,1.05637 -1.1094,0.85928 -1.1094,-0.47852 0,-0.48982 0.197,-0.79178 0.4746,-0.80078 z m 38.7129,1.22656 c 1.733,0 1.4472,0.97982 -0.957,3.28321 -2.0439,1.95822 -3.9846,2.68718 -3.9336,1.47656 0.049,-1.1583 3.7495,-4.75977 4.8906,-4.75977 z m 18.9121,0.76172 v 0 c 0.5377,0.002 0.9785,0.68473 0.9785,1.52149 0,0.8378 -0.029,1.52344 -0.064,1.52344 -0.036,-10e-6 -0.4757,-0.41143 -0.9785,-0.91407 -1.1909,-1.19162 -1.1646,-2.12986 0.062,-2.13086 z m -6.0312,0.26172 c 0.069,0.0105 0.1509,0.12763 0.2421,0.35547 0.2192,0.5498 0.1931,1.20787 -0.061,1.46094 -0.2531,0.25307 -0.4333,-0.19713 -0.4003,-1 0.023,-0.55452 0.1033,-0.83391 0.2187,-0.81641 z m -9.6231,0.71875 c 0.195,0.0824 0.2051,0.57949 0.2051,1.56641 0,1.51433 -0.3828,2.02148 -1.5234,2.02148 -0.8379,0 -1.5235,-0.28861 -1.5235,-0.64258 0,-0.35398 0.6856,-1.26527 1.5235,-2.02343 0.743,-0.67281 1.1233,-1.00428 1.3183,-0.92188 z m 1.3223,0.89453 c 0.046,0.0171 0.096,0.0879 0.1484,0.21875 0.2113,0.52363 0.2113,1.38071 0,1.9043 -0.2113,0.52362 -0.3828,0.0941 -0.3828,-0.95312 0,-0.7855 0.097,-1.22123 0.2344,-1.16993 z m -53.668,0.40821 c 0.4188,0 0.75,0.60094 0.75,1.33398 -0.01,0.73307 -0.3439,1.84629 -0.75,2.47461 -0.5602,0.86692 -0.737,0.54631 -0.75,-1.33203 -0.01,-1.36136 0.331,-2.47656 0.75,-2.47656 z m 55.5977,0 c 0.4191,0 0.7617,0.32264 0.7617,0.71679 0,0.39419 -0.3426,0.92863 -0.7617,1.1875 -0.4187,0.25888 -0.7618,-0.0638 -0.7618,-0.71679 0,-0.65306 0.343,-1.1875 0.7618,-1.1875 z m -60.4082,0.0723 c 0.1968,-0.0246 0.2023,0.40285 0.2148,1.25586 0.014,0.93895 -0.6602,2.13501 -1.498,2.6582 -0.8377,0.52322 -1.5235,1.30712 -1.5235,1.74219 0,0.43508 -1.2382,2.0664 -2.75193,3.625 -1.51397,1.55861 -3.14141,2.82827 -3.61719,2.82227 -0.53024,-0.007 -0.47102,-0.26114 0.15234,-0.65625 0.55936,-0.3546 0.95807,-0.88719 0.88867,-1.1836 -0.0699,-0.29645 1.07839,-1.97342 2.55079,-3.72461 1.47232,-1.7512 3.37302,-4.04068 4.22462,-5.08789 0.7738,-0.9514 1.1626,-1.42657 1.3594,-1.45117 z m 106.041,0.0234 c -0.2646,-0.0109 -0.5669,0.0365 -0.8418,0.14648 -0.6075,0.24314 -0.4263,0.42444 0.4609,0.46094 0.8029,0.0331 1.253,-0.14732 1,-0.40039 -0.1265,-0.12653 -0.3545,-0.19613 -0.6191,-0.20703 z m -148.95901,0.0566 c 1.47455,0 2.53906,0.38621 2.53906,0.91992 0,0.51928 -1.10435,0.94964 -2.53906,0.99024 -1.61308,0.0457 -2.53906,-0.28835 -2.53906,-0.91797 0,-0.61525 0.96276,-0.99219 2.53906,-0.99219 z m 75.50191,0.96289 c -0.1378,-0.0513 -0.2363,0.38451 -0.2363,1.16992 0,1.04733 0.1735,1.47675 0.3848,0.95313 0.2112,-0.52359 0.2112,-1.38071 0,-1.9043 -0.053,-0.13085 -0.1025,-0.20165 -0.1485,-0.21875 z m -76.77144,1.93164 c 0.55839,0 1.01562,0.68564 1.01562,1.52344 0,1.73176 -1.90948,2.07507 -2.53125,0.45508 -0.47786,-1.24558 0.083,-1.97852 1.51563,-1.97852 z m 92.84184,0 c 0.6002,0 1.0794,0.25809 1.0664,0.57227 -0.038,0.89048 -3.6274,4.75976 -4.4161,4.75976 -0.3878,0 -1.2428,0.7704 -1.9003,1.71289 -0.7401,1.06122 -1.2094,1.30926 -1.2344,0.65039 -0.056,-1.49792 5.1657,-7.69531 6.4844,-7.69531 z m 56.8046,0 c -0.3552,0 -0.6759,1.02849 -0.7109,2.28516 -0.036,1.25666 0.2556,2.28516 0.6465,2.28515 0.3907,0 0.7109,-1.02849 0.7109,-2.28515 0,-1.25667 -0.2913,-2.28516 -0.6465,-2.28516 z m -50.7402,0.14844 c 0.1093,-0.007 0.2144,-0.006 0.3164,0.006 2.4078,0.28049 3.1184,3.28755 1.1211,4.74805 -0.7374,0.53921 -1.5274,2.43671 -1.7754,4.26562 l -0.4472,3.29492 -3.6368,0.13672 c -2.001,0.0755 -3.8325,-0.17778 -4.0703,-0.5625 -1.5625,-2.52809 5.105,-11.66584 8.4922,-11.88867 z m -66.37499,0.24219 c -0.6492,0.0452 -1.05214,0.51474 -0.6582,1.15234 0.2298,0.37164 0.94959,0.4721 1.59961,0.22266 0.92317,-0.35426 0.96824,-0.58571 0.20312,-1.0586 -0.2888,-0.17848 -0.58353,-0.27769 -0.85352,-0.30859 -0.10123,-0.012 -0.19821,-0.0138 -0.29101,-0.008 z m 73.29099,2.18554 c 0.091,-0.004 0.1922,0.025 0.2969,0.0899 0.4189,0.25888 0.7617,0.79334 0.7617,1.1875 0,0.39415 -0.3428,0.7168 -0.7617,0.71679 -0.4189,10e-6 -0.7617,-0.53443 -0.7617,-1.1875 0,-0.48979 0.1917,-0.79454 0.4648,-0.80664 z m -62.1133,1.23242 c 0.9968,0 0.9011,3.33844 -0.164,5.67579 -0.8374,1.83807 -2.089,2.60764 -2.2266,1.36914 -0.035,-0.31418 -0.1488,-1.34827 -0.2539,-2.29688 -0.2014,-1.82021 1.429,-4.74805 2.6445,-4.74805 z m 5.125,0.33204 c 0.052,-0.003 0.1069,0.0135 0.1641,0.0488 0.4188,0.25887 0.75,1.04949 0.75,1.75782 -0.01,0.70833 -0.3439,1.80332 -0.75,2.43164 -0.5481,0.84804 -0.737,0.39372 -0.75,-1.75977 -0.01,-1.52471 0.2222,-2.45831 0.5859,-2.47851 z m -49.25386,0.42968 c 0.86786,10e-6 1.42916,0.40204 1.26172,0.9043 -0.47012,1.4102 -1.87428,1.56945 -2.37305,0.26953 -0.31584,-0.8232 0.0161,-1.17383 1.11133,-1.17383 z m 148.40236,1.52344 c 0.4058,0 0.5418,0.51423 0.3008,1.14258 -0.2414,0.62832 -0.5736,1.14258 -0.7383,1.14258 -0.1647,0 -0.2988,-0.51426 -0.2988,-1.14258 0,-0.62835 0.3306,-1.14258 0.7363,-1.14258 z m 33.832,3.33399 c -0.091,-0.002 -0.1922,0.029 -0.2969,0.0937 -0.4188,0.25891 -0.7617,0.98302 -0.7617,1.61132 0,0.62838 0.3429,0.93079 0.7617,0.67188 0.4189,-0.25888 0.7618,-0.98493 0.7618,-1.61328 0,-0.47131 -0.1918,-0.75867 -0.4649,-0.76367 z m -102.3965,0.47461 c -0.4435,0 -0.5949,0.34089 -0.3359,0.75976 0.2589,0.4189 0.6218,0.76172 0.8066,0.76172 0.1847,0 0.336,-0.34282 0.336,-0.76172 0,-0.41887 -0.363,-0.75976 -0.8067,-0.75976 z m 8.586,0.1582 c 0.3394,0.0179 0.5976,0.2757 0.5976,0.83789 0,0.61841 -0.5383,1.33119 -1.1972,1.58398 -0.8351,0.32051 -1.1246,0.0769 -0.9532,-0.80664 0.1954,-1.00756 0.9871,-1.64513 1.5528,-1.61523 z m 176.1425,0.23047 c -0.311,-0.0125 -0.7072,0.0386 -1.1796,0.16211 -1.6225,0.42436 -1.6697,0.56723 -1,3.0664 0.4813,1.79578 1.4976,2.126 3.2031,1.04492 0.8077,-0.51202 0.7498,-0.74445 -0.2774,-1.13867 -0.9777,-0.37515 -1.0873,-0.74322 -0.4511,-1.50976 0.8085,-0.97422 0.6383,-1.5875 -0.295,-1.625 z m -226.61714,0.37109 c 0.44362,0 0.80664,0.34285 0.80664,0.76172 0,0.4189 -0.15123,0.76172 -0.33594,0.76172 -0.1846,0 -0.54779,-0.34282 -0.80664,-0.76172 -0.25884,-0.41887 -0.10768,-0.76172 0.33594,-0.76172 z m -45.68555,0.83594 c 0.66507,0.0408 0.81849,0.38745 0.66406,1.19726 -0.14783,0.77482 -1.05374,1.50634 -2.03906,1.64649 -1.3731,0.19529 -1.71373,-0.0629 -1.50781,-1.14258 0.14767,-0.7748 1.05389,-1.50633 2.03906,-1.64648 0.34331,-0.0487 0.62194,-0.0683 0.84375,-0.0547 z m 258.12699,4.49804 c -0.4992,0 -0.6978,0.79497 -0.4825,1.92188 0.4534,2.37116 -0.5739,3.13496 -2.1269,1.58203 -1.6145,-1.61458 -4.6004,-0.17894 -5.6016,2.69336 -0.7152,2.05159 -2.0518,2.63394 -5.1621,2.25 -0.4919,-0.0607 -1.1112,0.24189 -1.3769,0.67188 -0.1298,0.20999 -0.434,0.36699 -0.8047,0.49023 h 45.9531 v -1.02148 l -2.6973,-1.44922 c -1.0845,-1.34097 -2.002,-1.36036 -1.4433,0.0957 0,0.0109 -3e-4,0.0166 0.01,0.0273 l -1.8789,0.16016 c -0.426,-0.34083 -0.8926,-0.75595 -1.4023,-1.27734 -1.2009,-1.22851 -2.3861,-2.02995 -2.6348,-1.78125 -0.2488,0.24875 -1.4832,0.48213 -2.7422,0.51953 -2.0629,0.0611 -2.289,-0.16488 -2.289,-2.27539 2e-4,-2.16696 -0.1934,-2.33601 -2.5899,-2.28321 -1.4245,0.0314 -2.3966,0.37245 -2.1601,0.75782 0.2389,0.38912 -0.1571,0.47357 -0.8926,0.1914 -0.7747,-0.29731 -1.8076,-0.0244 -2.4902,0.65821 -0.8985,0.89846 -1.4107,0.96383 -2.2285,0.28515 -0.8549,-0.7096 -1.0625,-0.54205 -1.0625,0.85352 v 1.73242 l -1.5235,-1.75586 c -0.8379,-0.96596 -1.5234,-2.04756 -1.5234,-2.40234 0,-0.35482 -0.3819,-0.64454 -0.8496,-0.64454 z m -298.4141,3.80665 c 0.86251,0 1.35659,0.34281 1.09766,0.76171 -0.25884,0.41886 -0.96477,0.76172 -1.56836,0.76172 -0.60365,0 -1.09766,-0.34286 -1.09766,-0.76172 0,-0.4189 0.70586,-0.76171 1.56836,-0.76171 z"
       id="rect154"
       inkscape:connector-curvature="0" />
    <g
       id="g1272"
       transform="translate(16)"
       style="fill:#fa023c">
      <g
         style="fill:#fa023c;stroke:none"
         transform="matrix(0.02388699,0,0,0.02388699,1514.8053,-132.19665)"
         id="layer1-3" />
      <g
         style="fill:#fa023c;stroke:none"
         transform="matrix(0.00634024,0,0,0.00634024,1326.3286,256.21784)"
         id="layer1-6" />
      <g
         id="g917"
         transform="matrix(-0.01851576,0,0,0.01851576,1222.0756,-37.508575)"
         style="fill:#fa023c;stroke:none" />
      <g
         transform="matrix(0.0223685,0,0,0.0223685,1414.0491,264.25718)"
         id="g985"
         style="fill:#fa023c" />
      <g
         id="g1228"
         transform="matrix(0.01791895,0,0,0.03104793,1556.4419,-259.42378)"
         style="fill:#fa023c;stroke:none" />
    </g>
  </g>
</svg>
