<?xml version="1.0" encoding="UTF-8" standalone="no"?>
<!-- Created with Inkscape (http://www.inkscape.org/) -->

<svg
   xmlns:dc="http://purl.org/dc/elements/1.1/"
   xmlns:cc="http://creativecommons.org/ns#"
   xmlns:rdf="http://www.w3.org/1999/02/22-rdf-syntax-ns#"
   xmlns:svg="http://www.w3.org/2000/svg"
   xmlns="http://www.w3.org/2000/svg"
   xmlns:sodipodi="http://sodipodi.sourceforge.net/DTD/sodipodi-0.dtd"
   xmlns:inkscape="http://www.inkscape.org/namespaces/inkscape"
   version="1.1"
   id="svg2"
   width="358.50391"
   height="194.03719"
   viewBox="0 0 358.50391 194.03718"
   sodipodi:docname="ostrava-blc.svg"
   inkscape:version="0.92.2 (5c3e80d, 2017-08-06)">
  <metadata
     id="metadata8">
    <rdf:RDF>
      <cc:Work
         rdf:about="">
        <dc:format>image/svg+xml</dc:format>
        <dc:type
           rdf:resource="http://purl.org/dc/dcmitype/StillImage" />
        <dc:title></dc:title>
      </cc:Work>
    </rdf:RDF>
  </metadata>
  <defs
     id="defs6" />
  <sodipodi:namedview
     pagecolor="#ffffff"
     bordercolor="#666666"
     borderopacity="1"
     objecttolerance="10"
     gridtolerance="10"
     guidetolerance="10"
     inkscape:pageopacity="0"
     inkscape:pageshadow="2"
     inkscape:window-width="1366"
     inkscape:window-height="704"
     id="namedview4"
     showgrid="false"
     inkscape:zoom="1"
     inkscape:cx="320.83434"
     inkscape:cy="-7.3266498"
     inkscape:window-x="0"
     inkscape:window-y="27"
     inkscape:window-maximized="1"
     inkscape:current-layer="layer2"
     showguides="true"
     inkscape:guide-bbox="true"
     fit-margin-top="0"
     fit-margin-left="0"
     fit-margin-right="0"
     fit-margin-bottom="0"
     showborder="true">
    <sodipodi:guide
       position="-628.34179,1.25e-06"
       orientation="0,1372"
       id="guide319"
       inkscape:locked="false" />
    <sodipodi:guide
       position="743.65822,1.25e-06"
       orientation="-251.38672,0"
       id="guide321"
       inkscape:locked="false" />
    <sodipodi:guide
       position="743.65822,251.38671"
       orientation="0,-1372"
       id="guide323"
       inkscape:locked="false" />
    <sodipodi:guide
       position="-628.34179,251.38671"
       orientation="251.38672,0"
       id="guide325"
       inkscape:locked="false" />
  </sodipodi:namedview>
  <g
     inkscape:groupmode="layer"
     id="layer2"
     inkscape:label="Layer 2"
     transform="translate(-883.17578,-230.9804)">
    <path
       style="fill:#ffffff;fill-opacity:1"
       d="m 883.17578,231.01758 358.50392,5.875 -0.082,57.74144 -357.50752,-16.68661 z"
       id="rect1035"
       inkscape:connector-curvature="0"
       sodipodi:nodetypes="ccccc" />
    <path
       style="fill:#333333;fill-opacity:1;stroke-width:0.70710677"
       d="M -0.03663971,50.856095 H 3.8082534 c 2.9863135,0 3.1854135,-0.119574 3.2378045,-1.944544 l 0.055826,-1.944543 0.7102081,1.944543 c 0.8616351,2.359151 1.8341452,2.486891 2.691642,0.353554 l 0.6395,-1.59099 0.04482,1.59099 c 0.04731,1.679542 1.720992,2.176212 2.590802,0.76883 0.279467,-0.452188 0.706575,-1.792485 0.949128,-2.978438 0.372155,-1.819634 0.878917,-2.250256 3.24592,-2.758227 1.542702,-0.331072 4.793953,-0.397307 7.225002,-0.147189 4.895168,0.503638 4.932189,0.550543 5.292925,6.706014 l 0.186477,3.181981 4.759657,0.208781 c 7.699272,0.337726 7.334596,1.042467 8.054029,-15.564524 L 44.11334,24.339591 44.521958,37.77462 c 0.22474,7.389266 0.463389,13.533357 0.53033,13.653537 0.06694,0.120179 0.43991,0.02185 0.828819,-0.218509 0.388909,-0.240359 0.707107,0.05906 0.707107,0.665376 0,0.891174 0.92815,1.102391 4.844231,1.102391 5.945973,0 8.858052,-0.947059 9.892387,-3.217176 0.808641,-1.774773 2.508824,-2.296883 3.301733,-1.01393 0.808915,1.308852 1.760639,-0.05775 1.760639,-2.528139 0,-1.584561 0.336657,-2.433143 0.9653,-2.433143 0.530916,0 1.774347,-0.636396 2.763182,-1.414213 0.988832,-0.777818 2.293345,-1.414214 2.898911,-1.414214 1.360933,0 2.564995,-2.135722 2.564995,-4.549708 0,-1.68842 -0.228869,-1.814253 -3.299834,-1.814253 -5.539069,0 -2.995934,-0.675319 3.291525,-0.874051 4.162667,-0.131572 5.996237,-0.464921 6.21694,-1.130257 0.233607,-0.704238 -0.416932,-0.890944 -2.564132,-0.735911 -1.582434,0.114255 -3.102834,-0.01795 -3.378677,-0.293789 -0.275835,-0.275839 0.993655,-0.501526 2.821095,-0.501526 2.791438,0 3.421265,-0.254348 3.939688,-1.59099 0.584148,-1.506118 0.678433,-1.447876 1.767463,1.091764 0.632719,1.475515 1.856226,2.966786 2.718903,3.313936 l 1.568504,0.631182 -1.566114,0.04482 c -1.920757,0.05497 -3.03008,1.977148 -3.03008,5.250383 0,1.943864 0.489601,2.855974 2.298097,4.281286 l 2.298097,1.811175 -1.90281,0.0078 c -1.046546,0.0043 -2.099838,0.326635 -2.340651,0.716272 -0.584176,0.945219 2.701565,2.151968 7.136582,2.621039 l 3.600227,0.38078 0.465637,-6.559949 c 0.256099,-3.607971 0.467284,-9.613495 0.469292,-13.34561 0.002,-3.732114 0.209106,-9.888093 0.460206,-13.679953 0.402012,-6.0708553 0.612716,-6.894291 1.764105,-6.894291 1.241432,0 1.307567,1.019301 1.307567,20.152543 v 20.152544 l 2.298098,-0.02874 c 2.71809,-0.03399 6.44192,-2.932011 7.56577,-5.887965 0.41787,-1.099078 1.31278,-2.15738 1.98868,-2.351782 1.13856,-0.327466 7.96633,-8.479686 8.56516,-10.226628 0.14584,-0.425451 0.86179,-1.370169 1.59099,-2.099373 1.06066,-1.06066 1.32583,-2.386485 1.32583,-6.629126 0,-4.078199 0.22904,-5.303301 0.99148,-5.303301 0.54532,0 1.32426,0.954594 1.73099,2.121321 0.73488,2.108074 2.2174,2.927751 2.2381,1.237436 0.008,-0.650377 0.17142,-0.630434 0.61872,0.07549 0.42705,0.673978 0.75277,0.724952 1.09492,0.171353 0.34014,-0.550377 0.8081,-0.466944 1.5517,0.276659 0.73008,0.730077 1.44052,0.863543 2.26054,0.424678 0.65773,-0.352001 2.06752,-0.473375 3.13288,-0.269718 1.82248,0.348388 1.93702,0.219067 1.93702,-2.187023 0,-1.887533 0.30047,-2.557306 1.14723,-2.557306 0.93524,0 0.98596,0.194346 0.27445,1.051655 -1.6062,1.935353 -0.28816,3.366296 2.82704,3.069214 2.544,-0.24261 2.82234,-0.110406 2.82234,1.340522 0,1.368226 -0.37123,1.609677 -2.47487,1.609677 -3.34206,0 -3.51135,2.092558 -0.17678,2.185093 l 2.2981,0.06377 -2.2981,0.663552 c -1.4987,0.432733 -2.29809,1.10746 -2.29809,1.939696 0,1.84606 0.63018,2.213199 2.54757,1.484204 1.48204,-0.56347 1.69507,-0.441485 1.69507,0.970655 0,0.888314 0.39774,2.146515 0.88388,2.796 0.92073,1.230115 4.5879,1.845596 5.95655,0.999722 1.04994,-0.6489 1.64485,1.071388 1.64485,4.756401 0,2.876177 1.49708,7.006167 2.84069,7.836557 0.34639,0.214084 1.40987,0.193461 2.36328,-0.04583 1.96887,-0.494154 2.83823,-2.743363 1.80592,-4.67226 -0.5104,-0.953677 -0.44947,-1.299896 0.22874,-1.299896 1.3234,0 6.1964,-4.164789 6.1964,-5.295856 0,-0.522639 -0.39775,-1.110748 -0.88389,-1.306908 -0.48613,-0.196161 -0.15274,-0.381776 0.74087,-0.41248 1.83092,-0.0629 5.08487,-3.204859 5.10786,-4.932048 0.008,-0.623801 1.26681,-2.019597 2.79669,-3.101769 1.52987,-1.082172 3.43971,-2.891834 4.24408,-4.021472 1.38372,-1.943246 1.39494,-2.09321 0.20852,-2.783883 -0.68969,-0.401498 -0.87957,-0.739673 -0.42194,-0.751498 0.45762,-0.01182 0.97755,-0.578349 1.15541,-1.25894 0.28957,-1.108074 0.33195,-1.099023 0.4054,0.08658 0.0606,0.978168 0.31365,1.131789 0.96874,0.588103 0.4877,-0.404752 1.99914,-0.841462 3.35876,-0.970464 1.89694,-0.179985 2.52232,-0.587255 2.68818,-1.750634 0.25079,-1.759153 2.84336,-2.507171 5.69796,-1.644002 1.05652,0.31947 1.34322,0.589986 0.66177,0.624433 -0.66126,0.03342 -1.52663,0.617625 -1.92304,1.298215 -0.68642,1.178512 -0.72176,1.178512 -0.74224,0 -0.0132,-0.758865 -0.56844,-1.237437 -1.43572,-1.237437 -0.99839,0 -1.41103,0.467795 -1.40338,1.590991 0.0157,2.308307 0.75209,2.985837 3.43486,3.160335 3.14762,0.204734 5.27124,-0.960709 4.82938,-2.650372 -0.40248,-1.539077 1.86516,-3.886862 3.04806,-3.15579 0.56842,0.351302 0.7377,4.212541 0.57489,13.113121 -0.17208,9.407163 -0.006,12.840552 0.65313,13.501357 0.68746,0.689229 1.07244,0.69759 1.73241,0.03762 1.30812,-1.308123 6.18263,-1.007756 10.47516,0.645479 2.13351,0.821704 4.70344,1.645872 5.71097,1.831485 l 1.83186,0.337478 0.46624,-9.721462 c 0.25642,-5.346804 0.46623,-14.76232 0.46623,-20.923369 V 0.6515136 h 1.76777 1.76776 l 0.0491,7.9549513 c 0.0814,13.1938521 0.70288,34.0449181 1.02429,34.3663231 0.1657,0.165697 0.62049,-0.538358 1.01065,-1.564567 0.39018,-1.026209 1.06484,-1.865834 1.49926,-1.865834 0.43442,0 1.5989,-0.636397 2.58774,-1.414214 2.13837,-1.682046 5.14269,-1.88859 5.14269,-0.353553 0,0.583363 -0.3182,1.06066 -0.70711,1.06066 -0.93797,0 -0.91069,7.49074 0.0337,9.255363 0.67921,1.269114 0.86869,1.294648 2.27866,0.307067 2.52106,-1.765813 5.6417,-1.35546 7.94069,1.044172 2.22114,2.318372 4.62374,2.731493 6.03015,1.036869 0.6646,-0.800798 1.03837,-7.320403 1.42898,-24.925514 0.2909,-13.112585 0.56125,-23.9206127 0.60075,-24.0178399 0.0395,-0.097227 0.70822,-0.1767767 1.48603,-0.1767767 1.38523,0 1.41422,0.4714045 1.41422,23.0036816 0,23.935618 0.24378,26.179027 3.10241,28.54979 1.75094,1.452113 2.53313,0.268913 3.2704,-4.947053 0.49876,-3.528536 0.4133,-4.958849 -0.39282,-6.574753 -1.40805,-2.822502 -1.29271,-4.86442 0.38397,-6.797647 1.91456,-2.207507 1.79582,-2.730835 -0.88388,-3.895544 l -2.2981,-0.998848 2.2981,-0.02768 2.29809,-0.02768 0.0108,-7.601398 c 0.0105,-7.346634 0.63105,-10.483792 1.72403,-8.715307 0.95274,1.541556 1.88083,14.634613 1.93351,27.27686 l 0.053,12.727922 3.10146,3.005204 c 1.70581,1.652862 3.33454,3.004344 3.61939,3.003293 0.28485,-0.0011 1.15431,-1.187936 1.93212,-2.637523 1.91463,-3.568214 4.20293,-4.286587 8.58469,-2.69502 1.88987,0.686449 4.37974,1.322709 5.53305,1.413912 1.623,0.128345 2.30565,0.677344 3.02043,2.429062 0.50792,1.244781 1.20341,2.090238 1.54554,1.878794 0.34212,-0.211444 0.81823,-4.123917 1.05801,-8.694384 0.95481,-18.199815 1.26536,-21.589914 1.88768,-20.607177 0.34255,0.540941 0.62769,7.239678 0.63364,14.886082 l 0.0108,13.902553 4.06587,0.357486 c 2.23622,0.196617 5.12589,0.582993 6.42149,0.858612 1.35383,0.28801 3.00776,0.173296 3.88909,-0.269741 0.8434,-0.423977 2.4857,-0.861639 3.64955,-0.972583 1.50161,-0.143139 2.3847,-0.764743 3.04106,-2.140572 1.22133,-2.56005 3.25709,-3.641438 5.04941,-2.682217 2.24076,1.199218 2.87491,0.856548 2.87491,-1.553479 v -2.285464 l 1.94206,2.815794 c 1.72755,2.504779 1.96672,2.644382 2.16538,1.263903 0.14687,-1.020633 0.57441,-1.417164 1.24893,-1.158329 0.56408,0.21646 1.4193,0.06954 1.90048,-0.326476 0.48119,-0.396021 2.34069,-0.938203 4.13223,-1.204849 3.22744,-0.480358 3.26148,-0.464228 3.70555,1.756151 0.42237,2.111878 0.60997,2.229281 3.2568,2.038174 2.04222,-0.147453 3.25001,0.194395 4.42619,1.252765 1.25959,1.13343 2.28264,1.384529 4.62277,1.134617 l 3.17953,0.0324 -0.0859,135.905228 -358.5405771,0 z M 70.271242,48.285257 c 1.352512,-1.352513 0.490365,-2.642866 -1.510832,-2.261222 -1.614486,0.307895 -2.256092,3.417847 -0.705127,3.417847 0.582633,0 1.579813,-0.520481 2.215959,-1.156625 z m 46.040648,-2.894508 c -0.71879,-0.718785 -1.31186,0.363376 -0.72211,1.31761 0.4455,0.720836 0.61206,0.721394 0.85157,0.0028 0.16376,-0.491287 0.10551,-1.085494 -0.12946,-1.32046 z m 50.24047,0.838656 c 0.2303,-0.600136 0.228,-1.281876 -0.005,-1.514977 -0.50377,-0.503622 -2.57947,1.094288 -2.57947,1.985608 0,1.067086 2.14418,0.676625 2.58442,-0.470631 z m 10.42318,-1.788227 c 0.25324,-1.583661 1.12103,-3.77288 1.92842,-4.864932 1.2002,-1.623356 1.32163,-2.258994 0.66572,-3.484578 -1.21954,-2.278718 -3.67368,-1.844457 -6.51383,1.152622 -3.60904,3.808454 -4.84527,5.87824 -4.84527,8.112286 0,1.924272 0.084,1.963985 4.15227,1.963985 h 4.15226 z M 122.3382,43.05783 c 0.44527,-1.486194 0.60712,-3.229816 0.35964,-3.874716 -1.13285,-2.952165 -4.40034,1.807086 -3.63451,5.29385 0.60864,2.771146 2.22992,2.068579 3.27487,-1.419134 z m -4.31878,-3.338667 c 3.96198,-4.398845 5.47813,-6.949072 4.62602,-7.781163 -0.56448,-0.551226 -4.52133,3.704804 -8.22026,8.841823 -3.28008,4.555326 -0.80657,3.825391 3.59424,-1.06066 z m 9.88607,1.195706 c 0,-2.254549 -0.99108,-2.787945 -1.70815,-0.919314 -0.56904,1.482911 0.18942,3.937533 1.05196,3.404455 0.36091,-0.223054 0.65619,-1.341367 0.65619,-2.485141 z m 40.87259,-1.435706 c 3.92473,-3.843155 4.43573,-4.886524 2.39322,-4.886524 -1.68929,0 -7.20336,6.074517 -7.20336,7.93551 0,1.210672 1.30449,0.383799 4.81014,-3.048986 z m -89.787886,0.534959 c 0.154156,-0.794848 -0.248923,-1.178842 -1.237437,-1.178842 -0.806328,0 -1.466058,0.424264 -1.466058,0.942809 0,2.165686 2.290481,2.365659 2.703495,0.236033 z M 185.18114,38.523458 c 0,-0.560411 -0.29621,-1.201998 -0.65824,-1.425748 -0.84067,-0.519564 -1.68618,0.804532 -1.10952,1.73757 0.65022,1.052083 1.76776,0.854957 1.76776,-0.311822 z M 78.987528,36.128243 c 0.169833,-1.154189 -0.137518,-1.535604 -1.237437,-1.535604 -0.947643,0 -1.463392,0.456882 -1.463392,1.296362 0,2.688157 2.310372,2.892811 2.700829,0.239242 z m 48.917962,-2.637995 c 0,-0.94932 -0.29675,-1.726036 -0.65945,-1.726036 -0.86482,0 -1.67973,2.610969 -1.1051,3.54074 0.71285,1.153405 1.76455,0.07181 1.76455,-1.814704 z m 47.59742,-1.587951 c 3.64982,-3.809593 1.45819,-5.244287 -2.28819,-1.497906 -1.19664,1.196643 -2.17571,2.469435 -2.17571,2.828427 0,1.360427 2.63956,0.57367 4.4639,-1.330521 z m 7.91047,0.543401 c 0,-0.568246 -0.4773,-1.051779 -1.06066,-1.074519 -0.58337,-0.02274 -1.62156,-0.297407 -2.3071,-0.610371 -1.39544,-0.637046 -3.34976,0.605924 -3.34976,2.130485 0,0.69231 0.92112,0.903684 3.35876,0.770748 2.39087,-0.130385 3.35876,-0.480897 3.35876,-1.216343 z m 13.08147,-1.346861 c 0,-1.555079 -1.06515,-2.462247 -2.12323,-1.808317 -0.4715,0.291403 -0.46317,0.89758 0.0249,1.809498 0.94441,1.764683 2.09834,1.764034 2.09834,-0.0012 z m -7.29514,-0.881421 c -0.22572,-0.564083 -0.39328,-0.396529 -0.42721,0.42721 -0.0307,0.745408 0.13643,1.163043 0.37139,0.928078 0.23496,-0.234966 0.26008,-0.844845 0.0558,-1.355288 z m -56.34447,-1.988738 c 0,-0.777817 -0.3182,-1.414213 -0.70711,-1.414213 -0.3889,0 -0.7071,0.636396 -0.7071,1.414213 0,0.777818 0.3182,1.414214 0.7071,1.414214 0.38891,0 0.70711,-0.636396 0.70711,-1.414214 z m 5.09117,-0.848528 c -0.65996,-0.659966 -0.84853,-0.471405 -0.84853,0.848528 0,1.319933 0.18857,1.508494 0.84853,0.848528 0.65996,-0.659966 0.65996,-1.03709 0,-1.697056 z m -10.04092,-0.565685 c 0,-0.777818 -0.31819,-1.414214 -0.7071,-1.414214 -0.38891,0 -0.70711,0.133075 -0.70711,0.295721 0,0.162646 -0.19314,0.799042 -0.42921,1.414214 -0.28164,0.733965 -0.0386,1.118492 0.70711,1.118492 0.66491,0 1.13631,-0.586693 1.13631,-1.414213 z m 51.91988,-0.471794 c 0.65117,-1.696922 -0.6873,-2.796115 -2.03888,-1.674399 -0.59985,0.497828 -1.09063,1.343477 -1.09063,1.879221 0,1.381601 2.58568,1.212371 3.12951,-0.204822 z m 16.24257,0.05443 c 0.53091,-1.383508 -0.0405,-2.41106 -1.34086,-2.41106 -1.27244,0 -1.99666,1.212005 -1.49906,2.508735 0.52566,1.369847 2.3002,1.308815 2.83992,-0.09767 z M 138.5121,23.632484 c 0,-0.583363 -0.3182,-1.06066 -0.70711,-1.06066 -0.38891,0 -0.70711,0.477297 -0.70711,1.06066 0,0.583363 0.3182,1.06066 0.70711,1.06066 0.38891,0 0.70711,-0.477297 0.70711,-1.06066 z m 57.98275,-1.327632 c 0,-0.535744 -0.49078,-1.381392 -1.09063,-1.87922 -1.3441,-1.115508 -2.84871,0.07397 -2.20743,1.745109 0.52391,1.365292 3.29806,1.478098 3.29806,0.134111 z m -11.31371,-1.854349 c 0,-0.388908 -0.63639,-0.707106 -1.41421,-0.707106 -0.77782,0 -1.41421,0.318198 -1.41421,0.707106 0,0.388909 0.63639,0.707107 1.41421,0.707107 0.77782,0 1.41421,-0.318198 1.41421,-0.707107 z"
       id="path2995"
       inkscape:connector-curvature="0"
       transform="translate(883.17578,230.9804)"
       sodipodi:nodetypes="csccssccssssscsscscssssssscsssssscscsscssscccscscssscsccccsscccccccsscsssccsscscsscscssccccccccscscccccscssssccscccsccccccscssccsccsssccsssccccccccccssccscccsccccsscscccssscscccccssccccccccscccscsssccccccccscscsssssscsscsccssssssscsccscsscssscsccccccccsssssssssssscssccsccsaccssssssccssssss" />
  </g>
</svg>
