<?xml version="1.0" encoding="UTF-8" standalone="no"?>
<!-- Created with Inkscape (http://www.inkscape.org/) -->

<svg
   xmlns:dc="http://purl.org/dc/elements/1.1/"
   xmlns:cc="http://creativecommons.org/ns#"
   xmlns:rdf="http://www.w3.org/1999/02/22-rdf-syntax-ns#"
   xmlns:svg="http://www.w3.org/2000/svg"
   xmlns="http://www.w3.org/2000/svg"
   xmlns:sodipodi="http://sodipodi.sourceforge.net/DTD/sodipodi-0.dtd"
   xmlns:inkscape="http://www.inkscape.org/namespaces/inkscape"
   version="1.1"
   id="svg2"
   width="261.62949"
   height="160.25078"
   viewBox="0 0 261.6295 160.25077"
   sodipodi:docname="plzen.svg"
   inkscape:version="0.92.2 2405546, 2018-03-11">
  <metadata
     id="metadata8">
    <rdf:RDF>
      <cc:Work
         rdf:about="">
        <dc:format>image/svg+xml</dc:format>
        <dc:type
           rdf:resource="http://purl.org/dc/dcmitype/StillImage" />
        <dc:title></dc:title>
      </cc:Work>
    </rdf:RDF>
  </metadata>
  <defs
     id="defs6" />
  <sodipodi:namedview
     pagecolor="#e51f40"
     bordercolor="#666666"
     borderopacity="1"
     objecttolerance="10"
     gridtolerance="10"
     guidetolerance="10"
     inkscape:pageopacity="0"
     inkscape:pageshadow="2"
     inkscape:window-width="1920"
     inkscape:window-height="1016"
     id="namedview4"
     showgrid="false"
     inkscape:zoom="16"
     inkscape:cx="18.372778"
     inkscape:cy="20.428991"
     inkscape:window-x="0"
     inkscape:window-y="27"
     inkscape:window-maximized="1"
     inkscape:current-layer="layer2"
     showguides="true"
     inkscape:guide-bbox="true"
     fit-margin-top="0"
     fit-margin-left="0"
     fit-margin-right="0"
     fit-margin-bottom="0"
     inkscape:pagecheckerboard="true"
     inkscape:measure-start="315.026,-0.0110485"
     inkscape:measure-end="315.026,0.773398">
    <sodipodi:guide
       position="-273.65034,-261.7653"
       orientation="1,0"
       id="guide5284"
       inkscape:locked="false" />
    <sodipodi:guide
       position="1.9543784e-05,-167.72013"
       orientation="1,0"
       id="guide5286"
       inkscape:locked="false" />
    <sodipodi:guide
       position="261.62951,141.0678"
       orientation="1,0"
       id="guide5288"
       inkscape:locked="false" />
    <sodipodi:guide
       position="-568.94541,160.25078"
       orientation="0,1"
       inkscape:locked="false"
       id="guide1611" />
    <sodipodi:guide
       position="-629.84241,2.6109841e-06"
       orientation="0,1"
       id="guide118"
       inkscape:locked="false" />
    <sodipodi:guide
       position="741.33389,-2.3631299"
       orientation="1,0"
       id="guide140"
       inkscape:locked="false" />
    <sodipodi:guide
       position="-628.19792,0.000770721"
       orientation="1,0"
       id="guide1129"
       inkscape:locked="false" />
  </sodipodi:namedview>
  <g
     inkscape:groupmode="layer"
     id="layer2"
     inkscape:label="Layer 2"
     transform="translate(-883.17639,-125.2043)">
    <path
       style="fill:#ffffff;fill-opacity:1"
       d="M -30.244141,-40.310547 V 188.61328 L -4.375,157.02539 -4,149.52539 C 1.4150815,149.3187 2.086234,147.913 7.509766,148.08004 l 4.66601,-13.11524 c -0.36736,-0.6854 -0.322287,-0.32983 -0.367187,-0.68554 l 0.328125,-0.78711 -0.01172,-1.12305 0.429688,-0.44336 1.023437,-0.30664 0.402344,0.22852 14.443359,-9.30469 v -17.05469 l 1.800781,-3.42383 -0.703125,-1.88281 0.566407,-2.550781 1.642578,-0.865234 -0.601563,-0.496094 3.228516,-3.960937 3.089844,-42.667969 4.171875,44.326172 2.794921,3.335937 1.236329,3.345706 -0.333985,0.74414 0.853516,6.41797 6.316406,0.12304 0.0098,-6.03125 1.724609,-11.384762 2.179688,11.253902 0.121093,6.03516 18.195313,0.22852 1.041015,-1.21485 0.9375,0.51953 0.464844,1.13282 2.582032,8.0957 5.9375,0.0273 -0.222657,-4.98242 1.367188,-10.85351 1.679687,10.63085 0.253906,5.01172 5.757813,0.40039 5.005859,6.83204 0.984378,-0.16211 0.5625,-2.23047 1.01758,3.89648 -0.6543,1.39453 0.29102,1.12696 2.67187,2.3164 0.71094,2.13672 c 0.086,18.26681 -0.009,12.36387 0.0566,18.25781 l -0.70503,0.24414 2.88281,-0.5332 0.0996,-9.26172 h 0.80078 c 0.68294,0 0.8486,-0.11829 1.06055,-0.70703 0.11775,-0.40034 0.56461,-0.89536 0.94141,-1.13086 0.40034,-0.21195 0.73047,-0.51679 0.73047,-0.68164 0,-0.16485 0.21154,-0.40158 0.49414,-0.5664 0.37679,-0.1884 0.47109,-0.42321 0.40039,-0.96485 -0.0942,-0.49454 3.8e-4,-0.7784 0.33008,-0.9668 0.3532,-0.23549 0.42382,-0.58852 0.42382,-2.0957 0,-1.31878 -0.0947,-1.83594 -0.30664,-1.83594 -0.1413,0 -0.39972,-0.37679 -0.54101,-0.82421 -0.25905,-0.80072 -0.23545,-0.82422 0.40039,-0.82422 0.77714,0 0.98873,-0.47089 0.89453,-2.07227 -0.0236,-0.63584 0.0463,-1.29598 0.16406,-1.48437 0.56519,-0.89489 0.80123,-1.4827 0.70703,-1.83594 -0.0471,-0.21195 -0.16556,-0.61378 -0.25976,-0.91992 -0.11775,-0.44748 -0.0709,-0.51758 0.4707,-0.51758 0.68294,0 0.66022,-0.0701 0.23633,1.53125 -0.0942,0.30614 0.1169,0.77662 0.58789,1.34179 l 0.73047,0.89454 h 3.88672 c 3.2734,0 3.86132,-0.0474 3.86132,-0.35352 0,-0.1884 0.14169,-0.35156 0.33008,-0.35156 0.1884,0 0.37651,-0.16512 0.47071,-0.35352 0.0706,-0.18839 0.35412,-0.35351 0.63671,-0.35351 0.44743,0 0.49453,-0.11823 0.42383,-1.13086 -0.0707,-1.22458 0.18789,-2.40235 0.51758,-2.40235 0.11775,0 0.44787,-0.25819 0.73047,-0.58789 0.63584,-0.73004 1.15434,-0.68383 1.55469,0.1875 0.16484,0.35325 0.39983,0.63672 0.51758,0.63672 0.40032,0 0.80116,1.03676 0.73046,1.93164 -0.0236,0.49455 0.0463,0.89453 0.16407,0.89453 0.11774,0 0.35273,0.2582 0.51757,0.58789 0.16485,0.3297 0.44833,0.58985 0.63672,0.58985 0.16485,0 0.30664,0.16316 0.30664,0.35156 0,0.30612 0.58793,0.35352 3.86133,0.35352 h 3.86133 l 0.61328,-0.72852 c 0.5416,-0.63584 0.612,-0.87215 0.4707,-1.88476 -0.14129,-1.0833 -0.11759,-1.1543 0.37696,-1.1543 0.49454,0 0.51825,0.0714 0.37695,1.08398 -0.11775,0.87134 -0.0467,1.2241 0.33008,1.74219 0.32969,0.47099 0.4707,1.03664 0.4707,1.95508 0,1.67202 0.16461,2.04883 0.8711,2.04883 0.44744,0 0.56501,0.0944 0.44726,0.37695 -0.0706,0.21195 -0.14062,0.56517 -0.14062,0.82422 0,0.23549 -0.16512,0.44726 -0.35352,0.44726 -0.28261,0 -0.35351,0.3522 -0.35351,1.85938 0,1.43653 0.0709,1.8842 0.35351,2.00195 0.21195,0.0707 0.35352,0.42527 0.35352,0.94336 0,0.58874 0.141,0.89364 0.4707,1.08203 0.25905,0.1413 0.4707,0.37812 0.4707,0.54297 0,0.16485 0.33024,0.46969 0.70703,0.68164 0.471,0.25905 0.77696,0.65987 0.84766,1.13086 0.1413,0.61233 0.25847,0.70703 0.94141,0.70703 h 0.80078 v 6.47461 4.61914 l 2.68764,0.23828 0.12939,-11.29825 c 1.46246,-0.62585 13.83223,-0.34654 16.28856,-0.97909 -0.10606,-0.28341 -0.18155,-0.5146 -0.31445,-0.83398 v -0.86133 l 13.2246,-7.10547 -0.6289,-0.65039 6.2168,-3.95899 -0.23047,-6.6875 1.06836,0.01 0.20703,6.36719 3.25976,-2.2168 -0.17382,-1.31836 0.86718,-0.0508 0.28516,0.82812 3.86523,-2.75586 4.27149,1.41211 0.01,-3.3457 -0.0859,-0.59765 0.69726,-1.00391 3.48242,-2.36719 3.02149,3.07617 0.79492,1.76172 -0.47852,0.81641 0.041,3.88086 1.46484,0.73633 0.0918,-5.75586 1.11523,-1.95899 0.01,8.125 1.52148,0.49414 0.0918,-5.0039 1.08594,-1.37305 -0.17969,6.70508 2.00977,0.66406 -0.15625,-3.48242 1.11523,-1.43164 0.14258,5.27929 3.67018,0.39454 -0.0351,-2.78907 0.80468,-0.63086 0.0918,3.70508 0.85352,0.28125 0.12304,-1.37695 1.07617,-0.79492 0.0703,2.59179 7.07031,2.33789 0.5918,-54.886714 4.33789,0.121093 2.16601,57.109371 8.65821,2.86133 0.0625,-20.82031 2.11523,-0.008 0.85938,21.83398 7.28515,0.61328 8.72345,12.67951 13.21659,12.44163 7.19382,-3.53553 0.50828,-36.49264 c 0,-0.63593 0.27735,-1.69422 -0.32485,-1.69422 -0.61778,0 -0.76032,-1.19158 -0.1068,-1.19158 -0.0307,-4.2681 -0.1836,-13.06836 -0.1836,-13.06836 -1.0808,-0.90493 -3.89062,-3.1226 -3.89062,-4.80859 0,-1.04766 0.18359,-1.71484 0.18359,-1.71484 l -0.30273,-7.732424 -0.0508,-3.460938 -0.59961,-1.572266 -0.0449,-1.777343 c -0.79978,-0.02036 -0.72082,-0.737625 -0.0156,-0.765625 0,0 2.63883,-3.314432 3.80273,-3.988282 1.16387,-0.673839 1.07227,-0.644531 1.07227,-0.644531 v -1.009765 l 1.80664,-1.142578 v -2.222657 l -0.13086,-0.638672 c -0.62587,-0.22637 -0.62483,-0.709581 0.0137,-0.988281 0,0 2.64931,-6.004373 6.84571,-6.126953 v -0.550781 c 0,-1.232436 -1.43555,-1.134766 -1.43555,-1.134766 v -2.71289 l 1.4043,0.01953 V 58.3125 c 0,0 0.32184,-2.817056 2.61914,-2.847656 v -1.31836 l 0.45898,-0.550781 0.0508,-1.650391 c -0.2255,-0.09638 -0.37109,-0.300297 -0.37109,-0.523437 4e-4,-0.22705 0.14916,-0.433144 0.38086,-0.527344 l 0.27148,-2.224609 0.25586,2.224609 c 0.2313,0.09432 0.37861,0.300384 0.37891,0.527344 -3e-4,0.22304 -0.14374,0.426939 -0.36914,0.523437 l 0.0488,1.650391 0.45898,0.550781 v 1.31836 c 2.2972,0.03064 2.61914,2.847656 2.61914,2.847656 v 5.667969 l 1.40625,-0.01953 v 2.714843 c 0,0 -1.43555,-0.09968 -1.43555,1.132813 v 0.550781 c 4.1964,0.12252 6.84571,6.126953 6.84571,6.126953 0.64453,0.2787 0.64547,0.761891 0.0137,0.988281 l -0.13281,0.638672 v 2.222657 l 1.80859,1.142578 v 1.009765 c 0,0 -0.0917,-0.02933 1.07226,0.644531 1.16391,0.67385 3.80274,3.988282 3.80274,3.988282 0.70567,0.02801 0.78553,0.745225 -0.0137,0.765625 l -0.0469,1.777343 -0.59765,1.572266 -0.0527,3.460938 -0.30078,7.732423 c 0,0 0.18359,0.66718 0.18359,1.71484 0,1.68599 -2.80962,3.90366 -3.89062,4.80859 0,2e-5 -0.15259,8.80026 -0.18359,13.06836 0.65343,0 0.53937,1.22852 -0.0781,1.22852 -0.6022,0 -0.83594,0.78204 -0.83594,1.41797 l 0.1172,36.4192 9.46866,0.12533 43.47783,0.1875 c 0,0 -0.50673,0 0,0 l 45.6199,29.21328 V -40.310547 Z M 165.55879,139.04102 c 0.94184,0.41862 0.92286,0.6773 0.31445,0.83398 0.80128,2.14114 0.92206,3.12548 0.91406,-0.28711 l -0.33789,-0.125 -0.17969,-0.37109 z m -44.42593,-2.67774 c -1.12449,0 -2.24753,0.15864 -2.76562,0.47656 -0.91844,0.5652 -1.88376,2.00243 -2.09571,3.13282 -0.14129,0.75355 -0.11931,0.84765 0.32813,0.84765 0.51809,0 0.70721,0.776 0.25976,1.0586 -0.14132,0.0942 -0.23632,1.60089 -0.23632,3.79101 0,2.26077 0.095,3.62696 0.23632,3.62696 0.14133,-2e-5 0.23633,0.63669 0.23633,1.46093 0,0.0972 0.0965,0.17776 0.23633,0.25196 l 7.96289,0.24414 c 0.016,-0.22307 0.043,-0.43184 0.043,-0.66211 0,-0.87134 0.0931,-1.5293 0.23438,-1.5293 0.14128,0 0.23632,-1.34308 0.23632,-3.5332 v -3.53125 l 0.16407,-1.88477 c -0.16485,-1.17748 -1.10673,-2.68469 -2.07227,-3.27344 -0.51809,-0.31792 -1.64308,-0.47656 -2.76758,-0.47656 z m 11.96289,0.0273 c -1.05997,0.0205 -2.10735,0.16674 -2.53125,0.42579 -1.03618,0.63584 -1.93074,1.93005 -2.11914,3.08398 l 0.18946,2.09766 v 3.53125 c 0,2.19012 0.0931,3.5332 0.23437,3.5332 0.1413,0 0.23633,0.72966 0.23633,1.71875 0,0.21998 0.024,0.38912 0.0351,0.5918 l 8.17579,0.25 c 0.21968,0.007 0.0312,-0.47636 0.0312,-0.81836 0,-0.84779 0.095,-1.50781 0.23632,-1.50781 0.14128,-1e-5 0.23438,-1.36619 0.23438,-3.62696 0,-2.19012 -0.0931,-3.69681 -0.23438,-3.79101 -0.37679,-0.2355 -0.28315,-1.0586 0.11719,-1.0586 0.42385,0 0.47055,-1.20149 0.0937,-1.95508 -0.40034,-0.75358 -1.41276,-1.81288 -2.0957,-2.14257 -0.471,-0.2473 -1.54355,-0.35251 -2.60352,-0.33204 z"
       id="rect277"
       inkscape:connector-curvature="0"
       sodipodi:nodetypes="ccccccccccccccccccccccccccccccccccccccccccccccccccccccsccscccsscsccccscccssscscsccscscssscccsccsscssscscsccscccccccccccccccccccccccccccccccccccccccccccccccccccccccccccccsccsccccccccccccccscccccccccccccccccccccsccccccccccccccsccscccccccccccccccccscscsccssscccsccccsssccscscsccccc"
       transform="translate(883.17579,126.05508)" />
    <g
       style="fill:#e51f40;fill-opacity:1;stroke:none"
       transform="matrix(0.02354966,0,0,-0.02354966,992.91914,291.60185)"
       id="g8" />
    <path
       style="fill:none;stroke:#000000;stroke-width:1px;stroke-linecap:butt;stroke-linejoin:miter;stroke-opacity:1"
       d="m 1985.1182,745.60071 36.2239,-2.11852"
       id="path346"
       inkscape:connector-curvature="0" />
    <rect
       style="fill:#000000;fill-opacity:1"
       id="rect348"
       width="0.70710677"
       height="0.17677669"
       x="1986.9695"
       y="744.96735" />
    <rect
       style="fill:#000000;fill-opacity:1"
       id="rect360"
       width="12.8516"
       height="0.94139999"
       x="2134.3384"
       y="704.3205" />
  </g>
</svg>
