<?xml version="1.0" encoding="UTF-8" standalone="no"?>
<!-- Created with Inkscape (http://www.inkscape.org/) -->

<svg
   xmlns:dc="http://purl.org/dc/elements/1.1/"
   xmlns:cc="http://creativecommons.org/ns#"
   xmlns:rdf="http://www.w3.org/1999/02/22-rdf-syntax-ns#"
   xmlns:svg="http://www.w3.org/2000/svg"
   xmlns="http://www.w3.org/2000/svg"
   xmlns:sodipodi="http://sodipodi.sourceforge.net/DTD/sodipodi-0.dtd"
   xmlns:inkscape="http://www.inkscape.org/namespaces/inkscape"
   version="1.1"
   id="svg2"
   width="354.69141"
   height="242.97461"
   viewBox="0 0 354.69141 242.9746"
   sodipodi:docname="praha.svg"
   inkscape:version="0.92.2 (5c3e80d, 2017-08-06)">
  <metadata
     id="metadata8">
    <rdf:RDF>
      <cc:Work
         rdf:about="">
        <dc:format>image/svg+xml</dc:format>
        <dc:type
           rdf:resource="http://purl.org/dc/dcmitype/StillImage" />
        <dc:title></dc:title>
      </cc:Work>
    </rdf:RDF>
  </metadata>
  <defs
     id="defs6" />
  <sodipodi:namedview
     pagecolor="#ffffff"
     bordercolor="#666666"
     borderopacity="1"
     objecttolerance="10"
     gridtolerance="10"
     guidetolerance="10"
     inkscape:pageopacity="1"
     inkscape:pageshadow="2"
     inkscape:window-width="1366"
     inkscape:window-height="704"
     id="namedview4"
     showgrid="false"
     inkscape:zoom="1"
     inkscape:cx="73.664405"
     inkscape:cy="128.13859"
     inkscape:window-x="0"
     inkscape:window-y="27"
     inkscape:window-maximized="1"
     inkscape:current-layer="layer2"
     showguides="true"
     inkscape:guide-bbox="true"
     fit-margin-top="0"
     fit-margin-left="0"
     fit-margin-right="0"
     fit-margin-bottom="0"
     inkscape:snap-page="true">
    <sodipodi:guide
       position="354.69206,-122.20281"
       orientation="1,0"
       id="guide5284"
       inkscape:locked="false" />
    <sodipodi:guide
       position="628.34241,-28.157631"
       orientation="1,0"
       id="guide5286"
       inkscape:locked="false" />
    <sodipodi:guide
       position="986.84551,5.7834885"
       orientation="1,0"
       id="guide5288"
       inkscape:locked="false" />
  </sodipodi:namedview>
  <g
     inkscape:groupmode="layer"
     id="layer2"
     inkscape:label="Layer 2"
     transform="translate(-254.83398,-182.04297)">
    <g
       id="g1272"
       transform="translate(16)"
       style="fill:#fa023c">
      <g
         style="fill:#fa023c;stroke:none"
         transform="matrix(0.02388699,0,0,0.02388699,1514.8053,-132.19665)"
         id="layer1-3" />
      <g
         style="fill:#fa023c;stroke:none"
         transform="matrix(0.00634024,0,0,0.00634024,1326.3286,256.21784)"
         id="layer1-6" />
      <g
         id="g917"
         transform="matrix(-0.01851576,0,0,0.01851576,1222.0756,-37.508575)"
         style="fill:#fa023c;stroke:none" />
      <g
         transform="matrix(0.0223685,0,0,0.0223685,1414.0491,264.25718)"
         id="g985"
         style="fill:#fa023c" />
      <g
         id="g1228"
         transform="matrix(0.01791895,0,0,0.03104793,1556.4419,-259.42378)"
         style="fill:#fa023c;stroke:none" />
    </g>
    <path
       style="fill:#ffffff;fill-opacity:1"
       d="m 254.83398,182.04297 h 354.69141 v 111.04687 c -116.7729,29.53554 -236.20857,0.49005 -354.69141,-7.59323 z"
       id="rect80"
       inkscape:connector-curvature="0"
       sodipodi:nodetypes="ccccc" />
    <path
       style="fill:#e51f40;fill-opacity:1"
       d="m 503.19531,182.04297 -1.04492,14.28515 -0.29297,0.72852 -0.29297,7.00977 -0.38867,0.24414 -0.36523,5.35351 -0.48633,0.33985 -0.19531,3.45703 -0.82813,0.0254 -0.0234,-2.41016 -1.1914,-9.00586 -1.02344,9.00586 -0.0488,8.61328 h 0.60938 l 0.0234,0.80274 0.80274,0.0254 0.0234,0.73047 0.70703,0.0234 0.0488,7.8125 c -1.04074,0 -2.07449,0.0125 -3.11524,0.0234 l -0.0488,-4.7207 c -0.36508,-3.35895 -0.37494,-6.64176 -0.60742,-10.00195 -0.25782,3.41136 -0.68728,6.59352 -0.85351,9.92968 v 8.75977 h -0.77735 c -1.18016,0.45792 -0.76795,0.93074 -0.80273,1.38867 h 1.43554 l 0.0488,0.75391 1.58203,0.82617 v 39.06055 l -1.36328,-0.0254 v -0.97265 l -1.21875,-0.0195 0.0742,-5.11133 c 0,0 0.0135,0.11745 0.46289,0.0684 1.64537,-0.59805 -0.0137,-1.07031 -0.0488,-1.07031 h -0.85156 l -0.82812,-3.21289 -0.0469,-5.57227 c -0.13183,-2.5224 -0.27667,-4.66398 -0.53711,-0.0488 l -0.0488,5.64649 -1.02148,3.0664 -0.90039,-0.0488 c -0.93218,0.36802 -0.98531,0.7511 0.0488,1.11915 l 0.45898,-0.0195 0.0469,5.98633 -1.94141,0.0449 -5.33008,-5.55078 -0.2207,-3.33203 c -0.19473,-0.78461 -0.35958,-2.09915 -0.67969,0 l -0.14648,3.38281 -9.95313,10.26953 -0.80273,-0.0469 -0.0488,1.58008 h 0.80273 v 0.92383 h 0.65625 v 9.90625 l -2.26367,-0.0234 v -6.25391 h -0.67969 v -5.2832 h 0.75391 l -0.97266,-0.80274 v -0.63281 l -1.33984,-0.0234 v -0.85157 c 2.75348,-0.33215 0.31779,-4.20974 -1.76172,-3.75976 l -0.0234,-5.28321 0.97461,0.0508 v -1.02343 h -0.80273 l 0.0488,-2.18946 -0.92383,-0.65625 v -1.02343 c 0.8864,-0.47109 0.94182,-0.99288 -0.0254,-1.55664 l -0.82813,-6.91211 -0.97265,6.91211 c -0.60788,0.40806 -1.34703,0.80663 0.0234,1.48437 v 1.02149 l -1.14258,0.65625 -0.0254,2.23828 -0.63282,0.0254 v 0.94922 l 0.76368,0.0937 0.0742,5.04492 c -2.75176,-0.45526 -4.263,4.24554 -1.68164,3.75781 v 0.84961 h -1.04492 l 0.0723,0.63477 -2.92188,1.89843 v 5.23047 l -1.6289,-0.0234 v -4.76953 l -1.75391,-0.0488 -0.0234,3.94335 -2.91992,-0.0254 0.0234,-7.83593 -1.48242,-0.0234 -0.0996,-6.10938 c 1.05078,-0.85065 0.44675,-1.42238 -0.0234,-2.01953 -1.11458,-0.0316 -1.8211,-0.0654 -1.89844,-1.26562 -0.4477,-11.20799 -7.8411,-15.67659 -14.60156,-17.64453 l 0.0723,-6.20508 h 1.11914 l 0.0742,-1.38672 h -1.26562 c -0.0215,-3.36591 -1.89419,-3.76221 -3.45508,-4.16211 l -0.36719,-4.25977 -0.60742,-0.0469 -0.48633,4.30664 c -1.77987,0.4805 -3.72764,0.7863 -3.69921,4.16016 l -1.31446,0.14648 v 1.12109 l 1.38867,0.0488 v 6.27735 c -11.75778,2.33163 -14.54659,11.9459 -14.45703,17.1582 l -3.40625,2.72461 0.0723,10.07617 h -2.23828 v 1.04688 l 1.46093,0.0742 0.0723,0.89844 -0.82812,-0.0723 v 3.13867 l -3.55079,-0.14649 c -0.13648,-7.67893 -0.2995,-15.40059 -0.32031,-23.41211 l -3.55273,-9.02734 -8.85938,-0.0742 v -1.55664 l -0.82617,-0.0254 0.0234,-1.58203 -0.68164,-0.0234 -0.0742,-1.46094 v -3.13867 l -1.53125,-0.0488 -0.0254,-2.33593 -0.70508,0.0234 -0.12109,-7.0332 -0.90039,-5.98633 v -0.85156 h 0.55859 v -0.38867 h -0.58399 v -0.60938 h -0.38867 v 0.60938 h -0.48828 v 0.36523 h 0.53711 l -0.0488,0.875 -0.46289,5.98633 v 4.69727 l -1.33984,-0.0234 0.0254,-4.64844 -0.36524,-6.03711 c 0.024,-0.40198 0.0243,-0.63607 0.0234,-0.92383 l 0.56055,0.0254 v -0.41602 h -0.50977 l 0.0234,-0.55859 h -0.4375 v 0.53515 l -0.48828,0.0234 c -0.029,0.31545 -0.009,0.24035 0,0.41602 L 381,229.08398 c -0.035,0.2786 -0.0178,0.57569 -0.0723,0.92383 l -0.36523,3.04297 -0.38867,2.96875 -0.0488,7.13086 h -0.68359 v 0.68164 l -0.19336,8.44531 -11.46289,-0.0488 -0.0488,-7.57032 -0.85156,-0.0469 -0.0254,-1.5586 h 1.02343 l -0.0488,-1.43554 -1.55664,0.0488 -0.0508,-1.63086 h -0.80273 l -0.0469,-4.06446 -0.68164,0.0488 c -0.24617,-2.14526 -0.19434,-3.95679 -0.39062,-6.10742 l -0.48633,6.10742 h -0.99805 l -0.0469,-3.625 0.70312,0.0723 v -1.02344 h -0.68164 v -1.53125 h -0.55859 l -0.0488,-0.73047 -0.68164,-0.0488 v -1.65429 h 0.7793 l 0.0234,-0.70704 -0.7539,0.0254 0.0254,-2.33594 0.82617,-0.0488 v -1.04688 h -0.87695 l -0.0703,-4.7207 -0.6582,1.87305 v -3.82031 c 0.24718,0.003 0.57463,-0.0338 0.70508,-0.0234 0.008,-0.26006 0.007,-0.78934 0,-0.85352 -0.23483,-0.006 -0.28886,0.021 -0.67969,0 0.005,-0.39164 0.0219,-0.52633 0.0234,-0.85156 -0.13927,-0.0166 -0.65659,-0.009 -0.90039,-0.0234 -0.0137,0.26947 -0.0319,0.54398 -0.0234,0.80274 -0.23194,-0.007 -0.45661,-0.005 -0.6582,0 0.0259,0.27073 -0.006,0.54547 0.0254,0.92578 0.18428,0.016 0.23998,6.5e-4 0.58203,0.0234 l -0.0469,3.77148 -0.65624,-1.84961 0.0234,4.55274 -0.90039,-0.0488 0.0488,1.1914 h 0.80273 v 2.3125 h -0.65625 v 0.77735 l 0.75196,0.0488 -0.0469,1.58204 h -0.80273 v 0.70703 l -0.82813,-0.0488 0.0488,1.72852 -0.80469,0.0215 v 1.04883 h 0.78125 l 0.1211,3.47851 h -0.7793 l 0.0234,1.5586 h -1.02149 v -2.36133 h -0.77734 v 5.42773 l -0.29297,0.48828 -0.29297,-4.23632 -0.51172,4.13672 -0.38671,-4.13672 -0.48829,4.23632 h -1.36328 l 0.19531,1.75196 1.36329,0.21679 v 1.36329 h -2.16602 v 1.58203 h 1.58203 c -0.28331,2.01644 0.1707,6.07351 -0.17187,8.08007 -0.0856,0.50162 -0.9475,-0.71072 -0.9961,0.31641 -0.0486,1.02713 0.22802,3.90875 0.19336,5.11133 -0.0346,1.20255 -0.7591,-0.34825 -0.80273,0.67969 -0.0437,1.02796 0.2946,2.95374 0.21875,3.45703 -0.79496,-0.2486 -0.77761,0.41229 -1.53321,0.875 -0.16552,2.03609 0.17335,3.69413 0.24415,5.76953 v 0.11523 l -8.09961,-0.0215 -2.36133,-2.36133 -7.0918,4.76758 -0.0937,-1.51563 -2.11523,-0.0117 0.0586,3.05468 -7.67187,0.19727 v -1.57422 l -3.84961,-0.0234 -0.0469,2.8711 -0.77734,0.01 -0.0801,0.63672 -13.05078,-0.15039 c -0.89391,-0.13481 -0.7822,1.01331 -0.90039,1.6543 -0.69732,0.0117 -2.55382,0.0525 -2.94141,-0.0117 l 0.0137,-1.44727 1.07617,0.0137 0.0332,-1.07812 -1.01758,-0.0352 c -0.13115,-1.70447 -0.94357,-2.47096 -1.86133,-2.33984 l 0.0215,-1.2207 h 1.08789 c 0.51999,-0.29701 0.39188,-0.59558 -0.0117,-0.89258 h -1.19141 l -0.0332,-1.375 c -0.23481,-0.58724 -1.07829,-0.35302 -1.12305,0 l -0.0117,1.42187 h -1.35351 c -0.39562,0.25351 -0.4498,0.54646 -0.0117,0.89258 l 1.09961,-0.0371 c -0.0268,0.83578 0.0842,0.84971 -0.0469,1.3086 -1.26875,-0.0232 -1.61109,0.87961 -1.57422,2.16211 H 295.039 v 0.98437 h 0.98242 v 1.75977 l -2.07031,-0.006 0.008,-3.73243 -2.45898,0.01 v 3.3457 h -2.16406 v -1.67187 h -2.94922 l -0.29492,1.67187 -2.95118,-0.0996 -0.0976,-1.27734 -3.83594,-0.0996 v 1.37695 h -5.01367 l -8.06445,7.17969 0.006,0.75781 H 254.83398 V 425.01758 H 609.52539 V 293.08984 c -0.5562,0.12582 -1.20133,-0.0212 -2.17383,-0.39257 -1.07469,-0.41043 -2.5706,-0.64633 -3.33789,-0.52539 -0.76476,0.12051 -1.51241,0.0242 -1.66015,-0.21485 -0.14775,-0.23907 -0.5361,-0.33259 -0.86329,-0.20703 -0.32718,0.12556 -1.25396,0.0213 -2.06054,-0.23047 -2.05032,-0.63987 -5.60978,-0.85214 -5.91797,-0.35351 -0.49976,0.80864 -1.08745,0.39736 -1.7793,-1.2461 -0.66683,-1.58406 -0.72986,-1.62271 -1.33594,-0.80273 -0.34992,0.47342 -0.63671,1.04633 -0.63671,1.27343 0,0.22774 -0.25184,0.20543 -0.56055,-0.0508 -0.39185,-0.32522 -1.05651,-0.31043 -2.2168,0.0527 l -1.27539,0.40039 c -4e-5,10e-6 -9e-5,0 -1.4e-4,0 l 0.0156,-28.70703 2.33593,-1.94727 0.0723,-15.47851 -1.28906,-13.8711 -0.0234,-0.92578 h 0.70508 l 0.0234,-0.7539 h -0.72852 v -1.58008 h -0.68164 l -0.0254,1.55664 -0.82813,-0.0254 v 0.80273 h 0.80469 l 0.0234,0.94922 -1.2168,13.80078 h -0.70508 l -0.85351,-9.36914 c 0,0 0.59485,-0.28639 0.58594,-0.73047 -0.0104,-0.51192 -0.39087,-0.75611 -0.90235,-0.77929 -0.46301,-0.0211 -0.80913,0.27561 -0.89844,0.73046 -0.0856,0.43607 0.58399,0.75391 0.58399,0.75391 l -0.97461,7.32617 h -0.70508 l -3.8457,-21.31836 v -5.33008 l 0.82812,-0.0254 v -0.82812 l -0.6582,-0.0234 -0.0234,-0.70508 c 0.647,-0.51462 0.95476,-1.05113 -0.0234,-1.63086 h -0.77929 c -0.72776,0.48777 -0.9484,1.02701 -0.0234,1.63086 v 0.67969 h -0.82812 l 0.0254,0.87695 h 0.7539 l -0.0254,5.35547 h -5.47461 l -0.0508,-5.42773 0.70703,0.0234 v -0.85157 l -0.73047,0.0234 -0.0469,-0.75391 c 0.99604,-0.69295 0.17792,-1.36063 -0.0508,-1.41015 -0.22996,0.0164 -0.81761,0.007 -0.75391,0.0234 -1.03068,0.58205 -0.43638,1.00489 0.0254,1.4121 l 0.0234,0.70508 -0.90039,0.0234 v 0.87695 l 0.90039,-0.0254 0.12109,5.4043 -4.03906,21.02539 -0.6582,0.0254 -0.58399,-7.0332 c 0,0 0.52862,-0.47871 0.50977,-0.85156 -0.0247,-0.48237 -0.42504,-0.82222 -0.77735,-0.85352 -0.33275,-0.0295 -0.88132,0.32144 -0.85156,0.87695 0.0216,0.40499 0.63281,0.82813 0.63281,0.82813 l -0.48632,9.17383 -0.7793,0.0254 -1.29102,-13.89649 0.0254,-0.73047 0.80274,0.0234 v -0.85156 l -0.75391,-0.0234 -0.0254,-1.38867 h -0.70508 v 1.41406 h -0.80273 v 0.77735 l 0.80273,0.0254 -0.0234,0.7539 c -0.43556,4.36068 -0.50668,9.00513 -1.04688,13.91992 l -0.0977,15.52539 2.23828,1.9961 v 6.5957 l -13.26368,0.14649 -0.29101,0.82812 -0.31641,0.90039 -0.0234,1.36133 h -0.77929 l 0.0254,0.92578 -1.58399,-0.0234 -0.12109,-36.62695 c 0.33516,-0.16005 0.95496,-0.58751 1.70508,-0.97266 v -0.75586 h 1.48242 c 0.0702,-0.72024 0.0787,-1.24186 -0.7793,-1.43554 l -0.80273,-0.0254 -0.0723,-8.54102 -0.68164,-10.09961 -0.77734,10.00196 0.0469,4.06445 -2.96875,0.0234 -0.0723,-7.78516 0.65625,-0.0254 -0.0234,-0.7793 0.73047,-0.0234 0.0234,-0.80273 h 0.7539 l -0.0723,-7.71484 -1.07031,-8.54297 -1.2168,8.51953 0.0234,2.26172 -0.67969,-0.0234 -0.39063,-3.23633 -0.39062,-0.58594 c 0,0 -0.60601,-4.68285 -0.67969,-4.86523 -0.0983,-0.24338 -0.1992,-0.16788 -0.24414,-0.56055 -0.22275,-1.94605 -0.31641,-7.05859 -0.31641,-7.05859 l -0.3164,-0.80273 -0.80274,-14.28711 -0.82812,14.28711 -0.33985,0.7539 -0.4375,6.93555 -0.29296,0.43945 -0.53516,5.13477 -0.48633,0.68164 -0.14648,3.21289 -0.85352,-0.0254 -0.0469,-2.38477 -1.19336,-8.58984 -1.07032,8.58984 v 7.76367 l 0.85157,0.0488 v 0.75391 l 0.77929,0.0488 0.0488,0.7539 h 0.77735 l -0.0469,7.86133 -3.14062,-0.0488 c 0.0138,-1.65473 -0.011,-2.22408 -0.0957,-3.94336 l -0.80273,-10.02539 -0.75586,9.97852 0.0488,8.49219 -0.65821,0.0742 c -0.70143,0.37223 -1.0855,0.28215 -1.01953,1.58007 h 1.60547 v 0.7793 c 0.81569,0.34944 1.23788,0.64109 1.5332,0.85156 l 0.0957,20.20117 -2.31055,0.0469 -0.002,-0.0547 h 0.19531 l -0.0488,-10.8164 h -0.81054 l 0.0469,6.14453 -0.76172,-0.0254 -0.0977,-10.83985 h -0.86133 l -0.0215,7.09375 -0.68164,-0.0684 -0.0586,-0.0605 -0.0234,-10.0625 -0.73633,0.0508 -0.0762,5.13672 -0.75976,0.0234 0.0234,-7.66992 -0.71289,0.0508 -0.0254,3.12305 -0.8789,0.008 -0.043,-6.18554 -0.60742,0.008 -0.043,6.17969 -0.75586,0.0176 -0.0723,-7.5332 c 0.50623,0.21507 1.71544,0.0389 1.55664,-0.97266 l 0.75586,-0.0254 c 0.9346,-0.32097 0.67748,-0.62818 0.0469,-0.94922 l -0.80274,-0.0234 c 0.12113,-0.73634 -0.49657,-1.11815 -1.53125,-0.94922 v -1.2168 c -0.3208,-0.85773 -0.90054,-1.08776 -1.50976,0 v 1.19141 c -0.7738,-0.29198 -1.91753,0.38331 -1.60743,0.99804 h -0.70507 c -0.8311,0.50888 -0.3274,0.70764 0,0.94922 l 0.65625,0.0254 c 0.2901,1.00499 0.69665,1.07794 1.53515,0.97266 l 0.16992,7.56445 -0.61328,0.0137 -0.0117,-6.22657 -0.5957,0.01 0.0176,6.23242 h -0.45313 v 0.0254 l -0.43164,0.006 v -3.29297 l -0.93359,0.0508 -0.0508,7.80469 -0.0918,0.10352 v 0.008 h -0.54687 v -5.50781 h -0.78711 l -0.12891,9.93554 -0.16797,0.16211 -0.67969,0.0449 0.043,-7.09375 h -0.93359 v 10.96485 h -0.63867 l -0.0996,-6.24414 h -0.73633 v 10.91406 l 0.66797,-0.002 -0.008,0.20312 c -1.04643,0.006 -1.74087,-0.0177 -2.96875,-0.0254 l -0.0742,-20.4414 1.63086,-0.78126 -0.0234,-0.80273 h 1.45898 c 0.0207,-0.63543 0.0409,-0.78177 -0.72851,-1.45898 l -0.75586,-0.0234 -0.0234,-8.5918 c -0.30903,-2.78441 -0.0961,-8.21701 -0.7539,-10.125 -0.091,2.31056 -0.48487,8.22558 -0.80469,10.125 l 0.0508,4.7461 -3.18945,-0.0488 v -7.76367 h 0.77929 l -0.0234,-0.80274 h 0.85156 l -0.0254,-0.70508 0.63281,0.0234 0.0254,-8.78516 -0.99805,-9.05273 -1.31445,9.12695 0.0234,2.26367 -0.82617,0.0234 -0.26758,-3.28515 -0.48633,-0.39063 -0.51172,-5.40234 -0.32812,-0.26563 -0.19532,-6.98437 -0.33984,-0.7793 z m -143.2207,42.75781 h 0.875 l -0.0234,1.60742 h -0.87695 z m 162.10351,3.58399 c 0.4362,-0.01 0.89104,0.0498 0.85547,0.57812 l -1.29101,0.0254 0.0254,-0.58594 c 0.1229,-0.003 0.26476,-0.0143 0.41015,-0.0176 z m -1.96874,0.0176 c 0.14245,0.003 0.29115,0.022 0.41406,0.0254 v 0.56055 h -1.24219 c -0.0356,-0.52834 0.40077,-0.59416 0.82813,-0.58594 z m -0.82813,1.41211 H 520.5 v 0.58399 c -0.49161,0.0142 -1.26618,0.12049 -1.21875,-0.58399 z m 2.38672,0 h 1.26562 c 0.0474,0.70448 -0.75054,0.59821 -1.24218,0.58399 z m -162.8125,3.16407 2.60351,0.0488 v 2.33594 h -2.58007 z"
       id="rect5194"
       inkscape:connector-curvature="0"
       sodipodi:nodetypes="cccccccccccccccccccccccccccccccccccscccccccccccccccccccccccccccccccccccccccccccccccccccccccccccccccccccccccccccccccccccccccccccccccccccccccccccccccccccccccccccccccccccccccccccccccccccccccccccccccccccccccccccccccccccccccccccccccccccccccccccccccccccccccccscccccccccccccccccccccccccccccccccccccccccccccccccccccccccccccccccccccscccccccccccccccccccccccccccccccccccccccccccccccccccccccccccccccccccccccccccccccccccccccccccccccccccccccccccccccccccccccccccccccccccccccccccccccccccccccccccccccccccccccccccccccccccccccccccccccccccccccccccccccccccccccccccccccccccccccccccccccccccccccccccccccccccccccccccccccc" />
  </g>
</svg>
