<?xml version="1.0" encoding="UTF-8" standalone="no"?>
<!-- Created with Inkscape (http://www.inkscape.org/) -->

<svg
   xmlns:dc="http://purl.org/dc/elements/1.1/"
   xmlns:cc="http://creativecommons.org/ns#"
   xmlns:rdf="http://www.w3.org/1999/02/22-rdf-syntax-ns#"
   xmlns:svg="http://www.w3.org/2000/svg"
   xmlns="http://www.w3.org/2000/svg"
   xmlns:sodipodi="http://sodipodi.sourceforge.net/DTD/sodipodi-0.dtd"
   xmlns:inkscape="http://www.inkscape.org/namespaces/inkscape"
   version="1.1"
   id="svg2"
   width="302.99524"
   height="160.25078"
   viewBox="0 0 302.99524 160.25078"
   sodipodi:docname="praha.svg"
   inkscape:version="0.92.2 2405546, 2018-03-11">
  <metadata
     id="metadata8">
    <rdf:RDF>
      <cc:Work
         rdf:about="">
        <dc:format>image/svg+xml</dc:format>
        <dc:type
           rdf:resource="http://purl.org/dc/dcmitype/StillImage" />
        <dc:title></dc:title>
      </cc:Work>
    </rdf:RDF>
  </metadata>
  <defs
     id="defs6" />
  <sodipodi:namedview
     pagecolor="#e51f40"
     bordercolor="#666666"
     borderopacity="1"
     objecttolerance="10"
     gridtolerance="10"
     guidetolerance="10"
     inkscape:pageopacity="0"
     inkscape:pageshadow="2"
     inkscape:window-width="1920"
     inkscape:window-height="1016"
     id="namedview4"
     showgrid="false"
     inkscape:zoom="32.000001"
     inkscape:cx="294.29456"
     inkscape:cy="3.8925892"
     inkscape:window-x="0"
     inkscape:window-y="27"
     inkscape:window-maximized="1"
     inkscape:current-layer="layer2"
     showguides="true"
     inkscape:guide-bbox="true"
     fit-margin-top="0"
     fit-margin-left="0"
     fit-margin-right="0"
     fit-margin-bottom="0"
     inkscape:pagecheckerboard="true">
    <sodipodi:guide
       position="302.99525,237.94143"
       orientation="1,0"
       id="guide5284"
       inkscape:locked="false" />
    <sodipodi:guide
       position="602.4988,-167.72013"
       orientation="1,0"
       id="guide5286"
       inkscape:locked="false" />
    <sodipodi:guide
       position="961.00191,-133.77901"
       orientation="1,0"
       id="guide5288"
       inkscape:locked="false" />
    <sodipodi:guide
       position="33.553377,160.25078"
       orientation="0,1"
       inkscape:locked="false"
       id="guide1611" />
    <sodipodi:guide
       position="-27.343613,-6.5530435e-07"
       orientation="0,1"
       id="guide118"
       inkscape:locked="false" />
    <sodipodi:guide
       position="1346.1512,-0.041540655"
       orientation="1,0"
       id="guide140"
       inkscape:locked="false" />
    <sodipodi:guide
       position="-6.547664e-06,247.84093"
       orientation="1,0"
       id="guide1129"
       inkscape:locked="false" />
  </sodipodi:namedview>
  <g
     inkscape:groupmode="layer"
     id="layer2"
     inkscape:label="Layer 2"
     transform="translate(-280.67761,-125.2043)">
    <path
       style="fill:#ffffff;fill-opacity:1;stroke-width:1.11751318"
       d="m 304.59015,71.576841 v 0.01311 H 220.62578 V 285.67758 l 50.8527,0.2775 6.28124,0.6875 4.94395,-2.23836 2.53416,-2.3388 7.67409,-7.11232 5.60899,-2.37732 v -1.53827 l 4.29141,0.11143 0.10925,1.42902 3.30159,0.11143 0.32994,-1.8704 h 3.29941 v 1.8704 h 2.42102 v -3.74298 l 2.75096,-0.0131 -0.009,4.17342 2.31614,0.0112 v -1.96872 h -1.09907 v -1.10125 h 1.09907 c -0.0412,-1.43447 0.34174,-2.44479 1.76114,-2.41884 0.14666,-0.51326 0.0224,-0.52915 0.0524,-1.46398 l -1.23018,0.0415 c -0.49014,-0.38713 -0.42948,-0.715 0.0131,-0.99856 h 1.51423 l 0.0131,-1.59071 c 0.0501,-0.39487 0.99371,-0.65685 1.2564,0 l 0.0371,1.53827 h 1.33287 c 0.45149,0.33218 0.59485,0.66636 0.0131,0.99856 h -1.21707 l -0.024,1.36564 c 1.02673,-0.14665 1.93562,0.71124 2.08234,2.61768 l 1.1384,0.0394 -0.0371,1.20615 -1.20395,-0.0153 -0.0153,1.61911 c 0.2403,0.0398 0.95942,0.044 1.7087,0.0371 l 3.32695,-11.30724 v 23.67897 -23.67924 l 2.88206,0.007 v -0.12891 c -0.0792,-2.32133 -0.45831,-4.17505 -0.27313,-6.45241 0.84532,-0.51754 0.8259,-1.25696 1.71525,-0.9789 0.0849,-0.56293 -0.29361,-2.71556 -0.24472,-3.86533 0.0488,-1.14975 0.85934,0.58467 0.89805,-0.76038 0.0388,-1.34509 -0.27069,-4.56939 -0.21632,-5.71824 0.0544,-1.14883 1.0186,0.20709 1.11437,-0.35398 0.38324,-2.24434 -0.12467,-6.78192 0.19228,-9.03731 h -1.76988 v -1.76987 h 2.42321 v -1.52517 l -1.52516,-0.24253 -0.2185,-1.95779 h 1.52515 l 0.54626,-4.73935 0.43264,4.62791 0.57248,-4.62791 0.32775,4.73935 0.32775,-0.54626 v -6.07222 h 0.86966 v 2.64171 h 1.14276 l -0.0262,-1.74365 h 0.87183 l -0.13547,-3.88938 h -0.87401 v -1.17336 l 0.90023,-0.024 -0.0546,-1.93375 0.92645,0.0546 v -0.79098 h 0.89805 l 0.0525,-1.76988 -0.84123,-0.0546 v -0.86964 h 0.73417 v -2.58708 h -0.89806 l -0.0546,-1.33069 1.0073,0.0546 -0.0262,-5.09332 0.73417,2.06923 0.0525,-4.2193 c -0.38266,-0.0254 -0.44498,-0.008 -0.65114,-0.0262 -0.0351,-0.42538 5.7e-4,-0.7329 -0.0284,-1.0357 0.22552,-0.006 0.47688,-0.008 0.73636,0 -0.0101,-0.28942 0.0112,-0.59666 0.0262,-0.89806 0.27275,0.0162 0.8515,0.008 1.0073,0.0262 -0.001,0.36377 -0.0206,0.51463 -0.0262,0.95267 0.43724,0.0235 0.49767,-0.007 0.76039,0 0.008,0.0718 0.009,0.66398 0,0.95486 -0.14594,-0.0116 -0.51226,0.0296 -0.78879,0.0262 v 4.27393 l 0.73635,-2.09545 0.0787,5.27905 h 0.98108 v 1.17117 l -0.92427,0.0546 -0.0284,2.61331 0.84343,-0.0284 -0.0262,0.79098 h -0.87183 v 1.85073 l 0.76258,0.0546 0.0546,0.8172 H 345.11 v 1.71307 h 0.76258 v 1.14277 l -0.78662,-0.0809 0.0525,4.05543 h 1.11654 l 0.54408,-6.83042 c 0.21958,2.40547 0.1616,4.43095 0.43701,6.83042 l 0.76258,-0.0546 0.0525,4.54706 h 0.89805 l 0.0568,1.82232 1.74148,-0.0546 0.0546,1.60599 h -1.14496 l 0.0284,1.74367 0.95267,0.0525 0.0546,8.46702 12.82398,0.0546 0.21632,-9.44591 v -0.76257 h 0.76475 l 0.0546,-7.97539 0.43482,-3.32125 0.40861,-3.4021 c 0.061,-0.3894 0.0417,-0.72191 0.0809,-1.03352 l -0.51785,0.0284 c -0.0101,-0.19648 -0.0324,-0.11258 0,-0.46541 l 0.54627,-0.0262 v -0.5987 h 0.48945 l -0.0262,0.62492 h 0.57029 v 0.46541 l -0.6271,-0.0284 c 10e-4,0.32187 6.2e-4,0.58391 -0.0262,1.03353 l 0.4086,6.75175 -0.0284,5.20039 1.49894,0.0262 v -5.25502 l 0.51785,-6.69494 0.0546,-0.9789 h -0.60088 v -0.4086 h 0.54626 v -0.68173 h 0.43482 v 0.68173 h 0.65332 v 0.43482 h -0.62491 v 0.95268 l 1.0073,6.69494 0.13547,7.86613 0.7888,-0.0262 0.0284,2.6133 1.71307,0.0546 v 3.51135 l 0.083,1.63441 0.76258,0.0262 -0.0262,1.7677 0.92428,0.0284 v 1.74148 l 9.91132,0.083 3.97458,10.09705 c 0.0233,8.96088 0.20566,17.59877 0.35834,26.18765 l 3.9724,0.16388 v -3.51136 l 0.92645,0.0809 -0.0809,-1.00512 -1.63441,-0.083 v -1.17118 h 2.50405 l -0.0809,-11.27041 3.8107,-3.04595 c -0.10024,-5.82996 3.01976,-16.58324 16.17364,-19.19116 v -7.02271 l -1.55356,-0.0546 v -1.2542 l 1.47052,-0.16388 c -0.0318,-3.77367 2.14725,-4.1145 4.13846,-4.65195 l 0.54408,-4.818 0.67954,0.0525 0.41079,4.76556 c 1.74623,0.44729 3.84127,0.88936 3.86532,4.65413 h 1.41591 l -0.083,1.55137 h -1.25203 l -0.0809,6.94187 c 7.56319,2.20114 15.83448,7.1991 16.33534,19.73523 0.0865,1.34241 0.87693,1.38056 2.12384,1.41591 0.52589,0.66791 1.20182,1.30568 0.0262,2.25714 l 0.11143,6.83479 1.65844,0.0262 0.0622,15.36722 c 0,0 -2.30164,0.43381 4.14129,0.50047 v -11.08032 h -0.73417 v -1.03351 h -0.89806 l 0.0546,-1.7677 0.89806,0.0525 11.13494,-11.48454 0.16388,-3.78449 c 0.35812,-2.34792 0.54253,-0.87759 0.76039,0 l 0.24691,3.72768 5.96296,6.20767 2.17193,-0.0502 -0.0525,-6.69494 -0.51349,0.0218 c -1.15683,-0.41166 -1.09753,-0.84039 -0.0546,-1.25202 l 1.0073,0.0546 1.14278,-3.43051 0.0546,-6.31475 c 0.29136,-5.16211 0.4534,-2.76665 0.60088,0.0546 l 0.0525,6.23172 0.92646,3.59438 h 0.95268 c 0.0393,0 1.8954,0.52848 0.0546,1.1974 -0.50275,0.0547 -0.51785,-0.0765 -0.51785,-0.0765 l -0.083,5.71606 1.36346,0.0218 v 1.08814 l 1.52515,0.0284 v -43.6898 l -1.76987,-0.92427 -0.0546,-0.84343 h -1.606 c 0.0389,-0.51219 -0.42224,-1.04138 0.89805,-1.55356 h 0.86964 v -9.7977 c 0.18597,-3.73149 0.66643,-7.29093 0.95487,-11.10653 0.26008,3.75836 0.27111,7.4304 0.67954,11.18738 l 0.0546,5.28123 c 1.16432,-0.0122 2.32081,-0.0262 3.48512,-0.0262 l -0.0546,-8.73796 -0.79098,-0.0262 -0.0262,-0.81721 -0.89805,-0.0284 -0.0262,-0.89805 h -0.68173 l 0.0546,-9.63382 1.14497,-10.07302 1.33287,10.07302 0.0262,2.69633 0.92645,-0.0284 0.2185,-3.86751 0.54408,-0.38019 0.40861,-5.987 0.43482,-0.27313 0.32775,-7.8421 0.32776,-0.81501 1.16898,-15.97686 0.97015,15.95513 0.3802,0.87183 0.2185,7.81369 0.36709,0.29498 0.57247,6.04381 0.54408,0.43701 0.29935,3.67304 0.92427,-0.024 -0.0262,-2.53246 1.47054,-10.20848 1.11654,10.12545 -0.0284,9.82611 -0.70795,-0.0262 0.0284,0.7888 h -0.95267 l 0.0262,0.89805 h -0.87183 v 8.68333 l 3.56816,0.0546 -0.0568,-5.30745 c 0.3578,-2.12449 0.79844,-8.74068 0.90024,-11.32504 0.73592,2.13408 0.49771,8.21067 0.84343,11.32504 l 0.0262,9.60979 0.84561,0.0262 c 0.86078,0.75749 0.83818,0.9215 0.81502,1.63223 h -1.63223 l 0.0262,0.89586 -1.8245,0.87402 0.083,22.86421 c 1.37367,0.009 2.15057,0.0351 3.32125,0.0284 l 0.009,-0.22724 -0.74727,0.002 v -12.2078 h 0.82375 l 0.11142,6.98556 h 0.71451 v -12.265 h 1.04445 l -0.0481,7.93387 0.76039,-0.0502 0.18792,-0.18135 0.1442,-11.1131 h 0.88057 v 6.16179 h 0.61182 v -0.009 l 0.1027,-0.1158 0.0568,-8.7314 1.04445,-0.0568 v 3.68397 l 0.4829,-0.007 v -0.0284 h 0.50692 l -0.0197,-6.97027 0.66643,-0.0131 0.0131,6.9659 0.6861,-0.0175 -0.19009,-8.46046 c -0.93807,0.11776 -1.3929,0.0359 -1.71745,-1.08815 l -0.73417,-0.0284 c -0.36627,-0.27021 -0.92978,-0.49275 0,-1.06193 h 0.7888 c -0.34692,-0.68758 0.9326,-1.44313 1.79828,-1.11655 v -1.33287 c 0.68156,-1.21667 1.33015,-0.95938 1.68904,0 v 1.36127 c 1.15754,-0.18894 1.84858,0.23834 1.71307,1.06193 l 0.89804,0.0262 c 0.7054,0.35908 0.99318,0.70293 -0.0525,1.06193 l -0.84561,0.0284 c 0.17765,1.13144 -1.17514,1.3287 -1.74148,1.08815 l 0.0809,8.4255 0.84561,-0.0197 0.0481,-6.91128 0.67955,-0.0112 0.0481,6.92002 0.98327,-0.009 0.0284,-3.49387 0.79754,-0.0568 -0.0262,8.57845 0.84998,-0.0262 0.0853,-5.74446 0.82376,-0.0568 0.0262,11.25512 0.0656,0.0677 0.76257,0.0765 0.0241,-7.93385 h 0.9636 l 0.1093,12.12257 0.85215,0.0284 -0.0525,-6.87194 h 0.90679 l 0.0546,12.09856 h -0.2185 l 0.002,0.0612 2.58489,-0.0525 -0.10706,-22.59546 c -0.33039,-0.23539 -0.80271,-0.56182 -1.71525,-0.95267 v -0.87182 h -1.7961 c -0.0738,-1.45173 0.35587,-1.35136 1.14058,-1.7677 l 0.73636,-0.083 -0.0546,-9.49835 0.84561,-11.16117 0.89806,11.21361 c 0.0948,1.92302 0.1225,2.56078 0.10706,4.41159 l 3.51354,0.0546 0.0525,-8.79258 h -0.86964 l -0.0546,-0.84342 -0.87183,-0.0546 v -0.84343 l -0.95268,-0.0546 v -8.68334 l 1.1974,-9.6076 1.33506,9.6076 0.0525,2.66793 0.95485,0.0284 0.16388,-3.59439 0.54407,-0.76258 0.5987,-5.74445 0.32776,-0.48945 0.48945,-7.75906 0.38019,-0.84343 0.92646,-15.97917 0.89805,15.97917 0.35398,0.89805 c 0,0 0.10482,5.72006 0.35397,7.89672 0.0502,0.43921 0.16316,0.3527 0.27314,0.62492 0.0824,0.20399 0.76038,5.44293 0.76038,5.44293 l 0.43701,0.65551 0.437,3.6206 0.7604,0.024 -0.0262,-2.52809 1.36128,-9.52894 1.1974,9.55516 0.0809,8.62871 h -0.84343 l -0.0262,0.89805 -0.8172,0.0262 0.0262,0.87183 -0.73417,0.0284 0.0809,8.70737 3.32126,-0.0262 -0.0525,-4.54706 0.86965,-11.18738 0.76258,11.29664 0.0809,9.55297 0.89806,0.0284 c 0.95986,0.21663 0.95037,0.80041 0.87182,1.606 h -1.65844 v 0.84561 c -0.83919,0.43078 -1.53258,0.90912 -1.90754,1.08814 l 0.13548,40.96724 1.77206,0.0262 -0.0284,-1.03571 h 0.87184 l 0.0262,-1.52297 0.35396,-1.0073 0.32558,-0.92645 14.83858,-0.16169 v -7.37887 l -2.50405,-2.23311 0.1093,-17.36448 c 0.60434,-5.4972 0.68389,-10.69095 1.17117,-15.56838 l 0.0262,-0.84342 -0.89806,-0.0284 v -0.86964 h 0.89806 v -1.58197 h 0.7888 l 0.0284,1.55356 0.84342,0.0262 v 0.95267 l -0.89804,-0.0262 -0.0284,0.8172 1.4443,15.54217 0.87184,-0.0284 0.54407,-10.26093 c 0,0 -0.68378,-0.47348 -0.70795,-0.92645 -0.0333,-0.62135 0.58042,-1.01409 0.95268,-0.98109 0.39414,0.035 0.842,0.41533 0.86964,0.95486 0.0211,0.41704 -0.5703,0.95268 -0.57029,0.95268 l 0.65332,7.86613 0.73635,-0.0284 4.51867,-23.51536 -0.13548,-6.04599 -1.0073,0.0284 v -0.98108 l 1.0073,-0.0262 -0.0262,-0.7888 c -0.51664,-0.45546 -1.18146,-0.92657 -0.0284,-1.57759 -0.0713,-0.0184 0.58615,-0.008 0.84342,-0.0262 0.25592,0.0554 1.17109,0.80035 0.0568,1.57541 l 0.0525,0.84343 0.8172,-0.0262 v 0.95268 l -0.79098,-0.0262 0.0568,6.07221 h 6.12466 l 0.0284,-5.99137 h -0.84343 l -0.0284,-0.98108 h 0.92645 v -0.76039 c -1.03492,-0.67541 -0.78791,-1.27676 0.0262,-1.82232 h 0.87183 c 1.09423,0.64842 0.7501,1.24672 0.0262,1.82232 l 0.0262,0.7888 0.73637,0.0262 v 0.92645 l -0.92647,0.0284 v 5.96296 l 4.30235,23.84311 h 0.78879 l 1.09033,-8.19388 c 0,0 -0.74908,-0.35567 -0.65332,-0.84342 0.0999,-0.50875 0.48713,-0.84081 1.00512,-0.81721 0.57221,0.026 0.99785,0.29924 1.00948,0.87183 0.0101,0.4967 -0.65551,0.8172 -0.65551,0.8172 l 0.95486,10.47944 h 0.7888 l 1.36127,-15.4351 -0.0262,-1.06192 h -0.90023 v -0.89805 l 0.92645,0.0284 0.0284,-1.74147 h 0.76258 v 1.76769 h 0.81502 l -0.0262,0.84342 h -0.7888 l 0.0262,1.03571 1.44212,15.51376 -0.0809,17.31203 -2.61331,2.17849 -0.0174,32.1091 3.39558,-0.19794 c 4.40694,1.16751 9.94018,1.30266 11.95648,1.91709 0.90235,0.28155 1.93918,-0.50798 2.30521,-0.64841 l 8.98883,0.3548 46.06055,-0.27313 V 71.589951 H 307.85459 v -0.01311 z m 37.36448,139.140899 -0.0284,1.79828 h 0.98109 l 0.0262,-1.79828 z m 161.35142,4.00954 c -0.16265,0.004 -0.32137,0.0163 -0.45886,0.0197 l -0.0284,0.65551 1.44431,-0.0284 c 0.0398,-0.59093 -0.46905,-0.65795 -0.95705,-0.64677 z m -2.20251,0.0197 c -0.47811,-0.009 -0.96629,0.0646 -0.92646,0.65551 h 1.38968 v -0.62711 c -0.1375,-0.004 -0.30386,-0.025 -0.46322,-0.0284 z m -0.92646,1.57978 c -0.053,0.78796 0.81348,0.66921 1.36346,0.65332 v -0.65332 z m 2.67011,0 0.0262,0.65332 c 0.55002,0.0159 1.44271,0.13464 1.38969,-0.65332 z m -162.14459,3.53757 0.0262,2.66793 h 2.88644 v -2.6133 z"
       id="rect1131"
       inkscape:connector-curvature="0"
       sodipodi:nodetypes="cccccccccccccccccccccccccccccccccccccccccccccccccccccccccccccccccccccccccccccccccccccccccccccccccccccccccccccccccccccccccccccccccccccccccccccccccccccccccccccccccccccccccccccccccccccccccccccccccccccccccccccccccccccccccccccccccccccccccsccccccccccccccccccccccccccccccccccccccccccccccccccccccccccccccccccccccccccccccccccccccccccccccccccccccccccccccccccccccccccccccccccccccccccccccccccccccccccccccccccccccccccccccccccccccccccccccccccccccccccccccccccccccccccccccccccccccccccccccccccccccccccccccccccccccccccccccccccccccccccccccccccccccccccccccccccccccc" />
  </g>
</svg>
