<?xml version="1.0" encoding="UTF-8" standalone="no"?>
<svg
   xmlns:dc="http://purl.org/dc/elements/1.1/"
   xmlns:cc="http://creativecommons.org/ns#"
   xmlns:rdf="http://www.w3.org/1999/02/22-rdf-syntax-ns#"
   xmlns:svg="http://www.w3.org/2000/svg"
   xmlns="http://www.w3.org/2000/svg"
   viewBox="0 0 354.00001 160"
   height="160"
   width="354"
   id="svg2"
   version="1.1">
  <metadata
     id="metadata8">
    <rdf:RDF>
      <cc:Work
         rdf:about="">
        <dc:format>image/svg+xml</dc:format>
        <dc:type
           rdf:resource="http://purl.org/dc/dcmitype/StillImage" />
        <dc:title></dc:title>
      </cc:Work>
    </rdf:RDF>
  </metadata>
  <defs
     id="defs6" />
  <g
     transform="translate(-254.97847,-125.95508)"
     id="layer2">
    <rect
       y="94.3424"
       x="227.40129"
       height="237.07463"
       width="423.29645"
       id="rect1131"
       style="fill:#ffffff;fill-opacity:1;stroke-width:0.99890488" />
    <path
       id="rect146"
       transform="translate(254.97847,125.95508)"
       d="m 248.2168,50 -1.04492,14.28125 -0.29297,0.728516 -0.29297,7.009765 -0.38867,0.244141 -0.36524,5.351562 -0.48633,0.339844 -0.19531,3.457031 -0.82812,0.02539 -0.0234,-2.410156 -1.19141,-9.003906 -1.02344,9.003906 -0.0488,8.611328 h 0.60937 l 0.0234,0.802734 0.80273,0.02539 0.0234,0.730469 0.70703,0.02344 0.0488,7.810547 c -1.04074,0 -2.07448,0.01254 -3.11523,0.02344 l -0.0488,-4.720704 c -0.36508,-3.35823 -0.37494,-6.64053 -0.60742,-10 -0.25782,3.41063 -0.68729,6.592285 -0.85352,9.927735 v 8.757811 h -0.77734 c -1.18016,0.45782 -0.76794,0.93084 -0.80274,1.38867 h 1.43555 l 0.0488,0.75391 1.58203,0.82617 v 39.05274 l -1.36328,-0.0254 v -0.97265 l -1.21875,-0.0195 0.0742,-5.10938 c 0,0 0.0135,0.11729 0.46289,0.0684 1.6454,-0.59792 -0.0137,-1.07031 -0.0488,-1.07031 h -0.85156 l -0.82813,-3.21289 -0.0469,-5.57031 c -0.13183,-2.52184 -0.27667,-4.66303 -0.53711,-0.0488 l -0.0488,5.64453 -1.02149,3.06641 -0.90039,-0.0488 c -0.93221,0.36794 -0.98525,0.75117 0.0488,1.11914 l 0.45899,-0.0195 0.0469,5.98437 -1.94141,0.0449 -5.33007,-5.54882 -0.22071,-3.33204 c -0.19473,-0.78444 -0.35957,-2.09872 -0.67968,0 l -0.14649,3.38282 -9.95312,10.26562 -0.80274,-0.0469 -0.0488,1.58008 h 0.80274 v 0.92382 h 0.65625 V 160 l -2.26367,-0.0234 v -6.25195 h -0.67969 v -5.2832 h 0.75391 l -0.97266,-0.80274 v -0.63281 l -1.33984,-0.0234 v -0.84961 c 2.75348,-0.33207 0.31779,-4.20965 -1.76172,-3.75976 l -0.0234,-5.28125 0.97461,0.0508 v -1.02344 h -0.80274 l 0.0488,-2.18945 -0.92383,-0.65625 V 132.25 c 0.88639,-0.47099 0.94184,-0.993 -0.0254,-1.55664 l -0.82812,-6.91016 -0.97266,6.91016 c -0.60792,0.40798 -1.34695,0.80675 0.0234,1.48437 v 1.02149 l -1.14258,0.65625 -0.0254,2.23828 -0.63281,0.0254 v 0.94922 l 0.76367,0.0937 0.0742,5.04297 c -2.75176,-0.45516 -4.263,4.24544 -1.68164,3.75781 v 0.84766 h -1.04492 l 0.0723,0.63476 -2.92187,1.89844 v 5.23047 l -1.62891,-0.0234 v -4.76953 l -1.75391,-0.0488 -0.0234,3.94336 -2.91993,-0.0254 0.0234,-7.83398 -1.48242,-0.0234 -0.0996,-6.10938 c 1.05082,-0.85047 0.44667,-1.42055 -0.0234,-2.01757 -1.11457,-0.0316 -1.82113,-0.0657 -1.89843,-1.26563 -0.4477,-11.2056 -7.84111,-15.6731 -14.60157,-17.64062 l 0.0723,-6.20508 h 1.11914 l 0.0742,-1.38672 h -1.26563 c -0.0215,-3.36519 -1.89418,-3.76034 -3.45507,-4.16016 l -0.36719,-4.25976 -0.60742,-0.0469 -0.48633,4.30664 c -1.77987,0.4804 -3.72762,0.78506 -3.69922,4.15821 l -1.31445,0.14648 v 1.12109 l 1.38867,0.0488 v 6.27735 c -11.75778,2.33113 -14.54663,11.9431 -14.45703,17.15429 l -3.40625,2.72266 0.0723,10.07422 h -2.23828 v 1.04687 l 1.46094,0.0742 0.0723,0.89844 -0.82812,-0.0723 v 3.13868 l -3.55078,-0.14649 c -0.13648,-7.67729 -0.29951,-15.39839 -0.32031,-23.4082 l -3.55274,-9.02539 -8.85937,-0.0742 v -1.55664 l -0.82618,-0.0254 0.0234,-1.58008 -0.68164,-0.0234 -0.0742,-1.46094 v -3.13867 l -1.53125,-0.0488 -0.0254,-2.33593 -0.70508,0.0234 -0.12109,-7.03125 -0.90039,-5.984371 v -0.851563 h 0.55859 v -0.388672 h -0.58398 v -0.609375 h -0.38867 v 0.609375 h -0.48828 v 0.365235 h 0.5371 l -0.0488,0.875 -0.46289,5.984371 v 4.69727 l -1.33985,-0.0234 0.0254,-4.64844 -0.36523,-6.035152 c 0.024,-0.4019 0.0243,-0.636128 0.0234,-0.923828 l 0.56054,0.02539 v -0.416016 h -0.50976 l 0.0234,-0.558594 h -0.4375 v 0.535157 l -0.48829,0.02344 c -0.029,0.31538 -0.009,0.240386 0,0.416016 l 0.46289,-0.02539 c -0.035,0.27854 -0.0178,0.575758 -0.0723,0.923828 l -0.36524,3.041012 -0.38867,2.96875 -0.0488,7.12891 h -0.68359 v 0.68164 l -0.19336,8.44336 -11.46289,-0.0488 -0.0488,-7.56836 -0.85156,-0.0469 -0.0254,-1.5586 h 1.02344 l -0.0488,-1.43554 -1.55664,0.0488 -0.0508,-1.62891 h -0.80274 l -0.0469,-4.06445 -0.68164,0.0488 c -0.24618,-2.1448 -0.19435,-3.9553 -0.39063,-6.105465 l -0.48633,6.105465 h -0.99804 l -0.0469,-3.625 0.70313,0.0723 v -1.021485 h -0.68164 v -1.53125 h -0.5586 l -0.0488,-0.730469 -0.68164,-0.04883 v -1.654297 h 0.7793 l 0.0234,-0.707031 -0.75391,0.02539 0.0254,-2.335938 0.82617,-0.04883 V 91.3125 h -0.87695 l -0.0703,-4.71875 -0.6582,1.873047 v -3.820313 c 0.24718,0.003 0.57462,-0.03384 0.70507,-0.02344 0.008,-0.26001 0.007,-0.789346 0,-0.853516 -0.23483,-0.006 -0.28885,0.021 -0.67968,0 0.005,-0.39155 0.0224,-0.526402 0.0234,-0.851562 -0.13927,-0.0166 -0.65659,-0.009 -0.90039,-0.02344 -0.0134,0.26941 -0.0324,0.544035 -0.0234,0.802735 -0.23194,-0.007 -0.45662,-0.005 -0.65821,0 0.0259,0.27067 -0.006,0.545551 0.0254,0.925781 0.18428,0.016 0.23998,7.17e-4 0.58203,0.02344 l -0.0469,3.771485 -0.65625,-1.84961 0.0234,4.552735 -0.90039,-0.04883 0.0488,1.189453 h 0.80274 v 2.3125 h -0.65625 v 0.777343 l 0.75195,0.04883 -0.0469,1.582031 h -0.80274 v 0.707031 l -0.82812,-0.04883 0.0488,1.728516 -0.80469,0.02148 v 1.048825 h 0.78125 l 0.12109,3.47657 h -0.7793 l 0.0234,1.55859 h -1.02148 v -2.36133 h -0.77735 v 5.42774 l -0.292964,0.48828 -0.292969,-4.23633 -0.511719,4.13672 -0.386719,-4.13672 -0.488281,4.23633 h -1.363281 l 0.195312,1.75 1.363282,0.21679 v 1.36329 h -2.166016 v 1.58203 h 1.582031 c -0.28331,2.01601 0.170695,6.07199 -0.171875,8.07812 -0.0856,0.50152 -0.947494,-0.71049 -0.996093,0.31641 -0.0486,1.02692 0.228029,3.909 0.193359,5.11133 -0.0346,1.20229 -0.759104,-0.34804 -0.802735,0.67968 -0.0437,1.02774 0.294601,2.95189 0.21875,3.45508 -0.79496,-0.24855 -0.777603,0.41239 -1.533203,0.875 -0.16552,2.03565 0.173341,3.69262 0.244141,5.76758 v 0.11523 l -8.099609,-0.0215 -2.361329,-2.35938 -7.091796,4.76563 -0.09375,-1.51563 -2.115235,-0.0117 0.05859,3.05468 -7.671875,0.19727 V 140.875 l -3.849609,-0.0234 -0.04687,2.8711 -0.777344,0.0117 -0.08008,0.63671 -13.050782,-0.15039 c -0.893889,-0.13478 -0.7822,1.01345 -0.90039,1.6543 -0.69732,0.0117 -2.553816,0.0525 -2.941406,-0.0117 l 0.01367,-1.44726 1.076171,0.0137 0.0332,-1.07813 -1.017578,-0.0352 c -0.13115,-1.7041 -0.943568,-2.47094 -1.861328,-2.33985 l 0.02148,-1.2207 h 1.08789 c 0.51999,-0.29694 0.391842,-0.59565 -0.01172,-0.89258 h -1.191406 l -0.0332,-1.375 c -0.23481,-0.58714 -1.078287,-0.35296 -1.123047,0 l -0.01172,1.42188 h -1.353516 c -0.39562,0.25346 -0.449839,0.54653 -0.01172,0.89257 l 1.099609,-0.0371 c -0.0268,0.8356 0.08423,0.84981 -0.04687,1.3086 -1.268751,-0.0232 -1.611089,0.87989 -1.574219,2.16211 h -0.982422 v 0.98437 h 0.982422 v 1.75977 l -2.070313,-0.01 0.0078,-3.73047 -2.458985,0.0117 v 3.34571 h -2.164062 v -1.67188 h -2.949219 l -0.294922,1.67188 -2.951172,-0.0996 -0.09766,-1.27735 -3.835937,-0.0996 v 1.375 l -5.013672,2.125 -8.064453,6.17969 0.0059,2.90039 L 0,160 -3.125,159.5 0,165.39062 l 354.54759,0.11757 4.13991,-6.00819 -4.14062,0.5 -8.03516,-0.31641 c -0.32718,0.12553 -1.25397,0.0212 -2.06055,-0.23047 -2.05032,-0.63972 -5.60978,-0.85203 -5.91797,-0.35351 -0.49976,0.80847 -1.08744,0.39702 -1.77929,-1.24609 -0.66683,-1.58373 -0.72986,-1.62255 -1.33594,-0.80274 -0.34992,0.47332 -0.63672,1.04639 -0.63672,1.27344 0,0.22767 -0.25184,0.20542 -0.56055,-0.0508 -0.39185,-0.32518 -1.0565,-0.31031 -2.21679,0.0527 l -1.27539,0.40039 0.0156,-28.70117 2.33594,-1.94727 0.0723,-15.4746 -1.28906,-13.867192 -0.0234,-0.925781 h 0.70508 l 0.0234,-0.753906 h -0.72852 v -1.580079 h -0.68164 l -0.0254,1.556641 -0.82812,-0.02539 v 0.802735 h 0.80469 l 0.0234,0.949219 -1.21679,13.796874 h -0.70508 l -0.85352,-9.36719 c 0,0 0.59494,-0.28648 0.58594,-0.73047 -0.0104,-0.51181 -0.39086,-0.7561 -0.90234,-0.77929 -0.46301,-0.0211 -0.80914,0.27572 -0.89844,0.73047 -0.0856,0.43598 0.58398,0.7539 0.58398,0.7539 l -0.97461,7.32422 h -0.70507 l -3.84571,-21.312499 v -5.330078 l 0.82813,-0.02539 v -0.828124 l -0.65821,-0.02344 -0.0234,-0.705078 c 0.64704,-0.51451 0.95469,-1.049306 -0.0234,-1.628906 h -0.7793 c -0.72773,0.48766 -0.94848,1.025186 -0.0234,1.628906 v 0.679687 h -0.82812 l 0.0254,0.876953 h 0.75391 l -0.0254,5.355469 h -5.47461 l -0.0508,-5.427734 0.70703,0.02344 v -0.851562 l -0.73047,0.02344 -0.0469,-0.753906 c 0.99602,-0.6928 0.17796,-1.358693 -0.0508,-1.408203 -0.22996,0.0164 -0.8176,0.007 -0.7539,0.02344 -1.03067,0.581929 -0.4364,1.003036 0.0254,1.410156 l 0.0234,0.705078 -0.90039,0.02344 v 0.876953 l 0.90039,-0.02539 0.1211,5.404297 -4.03907,21.019531 -0.6582,0.0254 -0.58398,-7.03125 c -10e-6,0 0.52866,-0.47879 0.50976,-0.85156 -0.0247,-0.48227 -0.42503,-0.82222 -0.77734,-0.85352 -0.33275,-0.0295 -0.88136,0.32156 -0.85156,0.87696 0.0216,0.4049 0.63281,0.82812 0.63281,0.82812 l -0.48633,9.17188 -0.7793,0.0254 -1.29101,-13.892582 0.0254,-0.730469 0.80273,0.02344 v -0.851563 l -0.7539,-0.02344 -0.0254,-1.388672 h -0.70508 v 1.414063 h -0.80274 v 0.777343 l 0.80274,0.02539 -0.0234,0.753906 c -0.43556,4.359762 -0.50667,9.002262 -1.04687,13.916012 l -0.0977,15.52149 2.23828,1.99609 v 6.59571 l -13.26367,0.14453 -0.29102,0.82812 -0.3164,0.90039 -0.0234,1.36133 h -0.7793 l 0.0254,0.92578 -1.58398,-0.0234 -0.1211,-36.61914 c 0.33516,-0.16002 0.95496,-0.58759 1.70508,-0.97265 v -0.75586 h 1.48242 c 0.0702,-0.72009 0.0787,-1.24191 -0.77929,-1.43555 l -0.80274,-0.0254 -0.0723,-8.539062 -0.68164,-10.097657 -0.77735,10 0.0469,4.064453 -2.96875,0.02344 -0.0723,-7.783203 0.65625,-0.02539 -0.0234,-0.779297 0.73046,-0.02344 0.0234,-0.802735 h 0.75391 l -0.0723,-7.71289 -1.07031,-8.541016 -1.2168,8.517578 0.0234,2.259766 -0.67969,-0.02148 -0.39062,-3.236328 -0.39063,-0.585937 c 0,0 -0.60598,-4.682894 -0.67968,-4.865235 -0.0983,-0.243329 -0.19925,-0.166003 -0.24415,-0.558593 -0.22271,-1.94564 -0.3164,-7.058594 -0.3164,-7.058594 l -0.31641,-0.802734 -0.80273,-14.283203 -0.82813,14.283203 -0.33984,0.753906 -0.4375,6.935547 -0.29297,0.4375 -0.53516,5.134765 -0.48632,0.681641 -0.14649,3.212891 -0.85351,-0.02539 -0.0469,-2.384766 -1.19336,-8.58789 -1.07031,8.58789 v 7.761719 l 0.85156,0.04883 v 0.753907 l 0.7793,0.04883 0.0488,0.753906 h 0.77734 l -0.0469,7.859375 -3.14063,-0.04883 c 0.0138,-1.65437 -0.011,-2.22444 -0.0957,-3.94336 l -0.80274,-10.023437 -0.75586,9.976562 0.0488,8.490236 -0.6582,0.0742 c -0.70143,0.37215 -1.08553,0.28243 -1.01953,1.58008 h 1.60547 v 0.77929 c 0.81569,0.34937 1.23788,0.64113 1.5332,0.85156 l 0.0957,20.19727 -2.31054,0.0469 -0.002,-0.0547 h 0.19531 l -0.0488,-10.81446 h -0.81055 l 0.0469,6.14258 -0.76171,-0.0254 -0.0977,-10.83593 h -0.86133 l -0.0215,7.09179 -0.68164,-0.0684 -0.0586,-0.0605 -0.0234,-10.06055 -0.73633,0.0508 -0.0762,5.13477 -0.75977,0.0234 0.0234,-7.66797 -0.71289,0.0508 -0.0254,3.12304 -0.87891,0.008 -0.043,-6.18555 -0.60742,0.01 -0.043,6.17774 -0.75586,0.0176 -0.0723,-7.531254 c 0.50623,0.21502 1.71544,0.03869 1.55664,-0.972656 l 0.75586,-0.02539 c 0.93463,-0.3209 0.67743,-0.628248 0.0469,-0.949218 l -0.80273,-0.02344 c 0.12113,-0.73618 -0.49657,-1.118109 -1.53125,-0.949219 v -1.216796 c -0.3208,-0.857551 -0.90055,-1.087531 -1.50977,0 v 1.191406 c -0.7738,-0.29192 -1.91752,0.383447 -1.60742,0.998047 h -0.70508 c -0.8311,0.50877 -0.3274,0.707688 0,0.949218 l 0.65625,0.02539 c 0.2901,1.00478 0.69666,1.077916 1.53516,0.972656 l 0.16992,7.562504 -0.61328,0.0156 -0.0117,-6.22656 -0.5957,0.0117 0.0176,6.23047 h -0.45312 v 0.0254 l -0.43164,0.006 v -3.29297 l -0.9336,0.0508 -0.0508,7.80469 -0.0918,0.10351 v 0.008 h -0.54688 v -5.50781 h -0.78711 l -0.1289,9.9336 -0.16797,0.16211 -0.67969,0.0449 0.043,-7.0918 h -0.9336 v 10.96289 h -0.63867 l -0.0996,-6.24414 h -0.73632 v 10.91211 l 0.66796,-0.002 -0.008,0.20312 c -1.04643,0.006 -1.74087,-0.0174 -2.96875,-0.0254 l -0.0742,-20.4375 1.63086,-0.78125 -0.0234,-0.80078 h 1.45899 c 0.0207,-0.63529 0.0409,-0.78192 -0.72852,-1.45899 l -0.75586,-0.0234 -0.0234,-8.589846 c -0.30903,-2.78382 -0.0961,-8.215467 -0.75391,-10.123047 -0.091,2.31007 -0.48487,8.224037 -0.80469,10.123047 l 0.0508,4.74414 -3.18945,-0.04883 v -7.761718 h 0.7793 l -0.0234,-0.802735 h 0.85156 l -0.0254,-0.705078 0.63281,0.02344 0.0254,-8.783203 -0.99804,-9.050781 -1.31446,9.125 0.0234,2.263672 -0.82617,0.02148 -0.26758,-3.283203 -0.48633,-0.390625 -0.51171,-5.402344 -0.32813,-0.263671 -0.19531,-6.984375 -0.33985,-0.779297 z M 104.99609,92.748047 h 0.875 l -0.0234,1.607422 h -0.87696 z m 162.10352,3.583984 c 0.4362,-0.01 0.89107,0.04991 0.85547,0.578125 l -1.29102,0.02539 0.0254,-0.585938 c 0.1229,-0.003 0.26477,-0.01428 0.41016,-0.01758 z m -1.96875,0.01758 c 0.14245,0.003 0.29115,0.02199 0.41406,0.02539 v 0.560547 h -1.24219 c -0.0356,-0.52822 0.40077,-0.594138 0.82813,-0.585938 z m -0.82813,1.41211 h 1.21875 v 0.583984 c -0.49161,0.0142 -1.26615,0.120346 -1.21875,-0.583984 z m 2.38672,0 h 1.26563 c 0.0474,0.70433 -0.75055,0.598204 -1.24219,0.583984 z m -162.8125,3.162111 2.60352,0.0488 v 2.33593 h -2.58008 z"
       style="fill:#e51f40;fill-opacity:1;stroke-width:0.99989349" />
    <g
       style="fill:#fa023c"
       transform="translate(16)"
       id="g1272">
      <g
         id="layer1-3"
         transform="matrix(0.02388699,0,0,0.02388699,1514.8053,-132.19665)"
         style="fill:#fa023c;stroke:none" />
      <g
         id="layer1-6"
         transform="matrix(0.00634024,0,0,0.00634024,1326.3286,256.21784)"
         style="fill:#fa023c;stroke:none" />
      <g
         style="fill:#fa023c;stroke:none"
         transform="matrix(-0.01851576,0,0,0.01851576,1222.0756,-37.508575)"
         id="g917" />
      <g
         style="fill:#fa023c"
         id="g985"
         transform="matrix(0.0223685,0,0,0.0223685,1414.0491,264.25718)" />
      <g
         style="fill:#fa023c;stroke:none"
         transform="matrix(0.01791895,0,0,0.03104793,1556.4419,-259.42378)"
         id="g1228" />
    </g>
  </g>
</svg>
