<?xml version="1.0" encoding="UTF-8" standalone="no"?>
<!-- Created with Inkscape (http://www.inkscape.org/) -->

<svg
   xmlns:dc="http://purl.org/dc/elements/1.1/"
   xmlns:cc="http://creativecommons.org/ns#"
   xmlns:rdf="http://www.w3.org/1999/02/22-rdf-syntax-ns#"
   xmlns:svg="http://www.w3.org/2000/svg"
   xmlns="http://www.w3.org/2000/svg"
   xmlns:sodipodi="http://sodipodi.sourceforge.net/DTD/sodipodi-0.dtd"
   xmlns:inkscape="http://www.inkscape.org/namespaces/inkscape"
   version="1.1"
   id="svg2"
   width="354"
   height="160"
   viewBox="0 0 354.00001 160"
   sodipodi:docname="praha.svg"
   inkscape:version="0.92.2 (5c3e80d, 2017-08-06)">
  <metadata
     id="metadata8">
    <rdf:RDF>
      <cc:Work
         rdf:about="">
        <dc:format>image/svg+xml</dc:format>
        <dc:type
           rdf:resource="http://purl.org/dc/dcmitype/StillImage" />
        <dc:title></dc:title>
      </cc:Work>
    </rdf:RDF>
  </metadata>
  <defs
     id="defs6" />
  <sodipodi:namedview
     pagecolor="#e51f40"
     bordercolor="#666666"
     borderopacity="1"
     objecttolerance="10"
     gridtolerance="10"
     guidetolerance="10"
     inkscape:pageopacity="0"
     inkscape:pageshadow="2"
     inkscape:window-width="1920"
     inkscape:window-height="990"
     id="namedview4"
     showgrid="false"
     inkscape:zoom="1.4142136"
     inkscape:cx="152.50374"
     inkscape:cy="138.77713"
     inkscape:window-x="1920"
     inkscape:window-y="147"
     inkscape:window-maximized="1"
     inkscape:current-layer="layer2"
     showguides="true"
     inkscape:guide-bbox="true"
     fit-margin-top="0"
     fit-margin-left="0"
     fit-margin-right="0"
     fit-margin-bottom="0"
     inkscape:pagecheckerboard="true">
    <sodipodi:guide
       position="354.54759,-261.2653"
       orientation="1,0"
       id="guide5284"
       inkscape:locked="false" />
    <sodipodi:guide
       position="628.19795,-167.22013"
       orientation="1,0"
       id="guide5286"
       inkscape:locked="false" />
    <sodipodi:guide
       position="986.70106,-133.27901"
       orientation="1,0"
       id="guide5288"
       inkscape:locked="false" />
    <sodipodi:guide
       position="59.252515,160.75078"
       orientation="0,1"
       inkscape:locked="false"
       id="guide1611" />
    <sodipodi:guide
       position="-1.6444757,0.5000013"
       orientation="0,1"
       id="guide118"
       inkscape:locked="false" />
    <sodipodi:guide
       position="1371.8503,0.4584613"
       orientation="1,0"
       id="guide140"
       inkscape:locked="false" />
    <sodipodi:guide
       position="1.4268037e-05,0.50076942"
       orientation="1,0"
       id="guide1129"
       inkscape:locked="false" />
  </sodipodi:namedview>
  <g
     inkscape:groupmode="layer"
     id="layer2"
     inkscape:label="Layer 2"
     transform="translate(-254.97847,-125.95508)">
    <path
       style="fill:#ffffff;fill-opacity:1;stroke-width:0.99890488"
       d="M -27.578125 -31.613281 L -27.578125 159.75195 L 0 160 L 11.15625 156.70117 L 11.150391 153.80078 L 19.214844 147.62109 L 24.228516 145.49609 L 24.228516 144.12109 L 28.064453 144.2207 L 28.162109 145.49805 L 31.113281 145.59766 L 31.408203 143.92578 L 34.357422 143.92578 L 34.357422 145.59766 L 36.521484 145.59766 L 36.521484 142.25195 L 38.980469 142.24023 L 38.972656 145.9707 L 41.042969 145.98047 L 41.042969 144.2207 L 40.060547 144.2207 L 40.060547 143.23633 L 41.042969 143.23633 C 41.006099 141.95411 41.348436 141.05102 42.617188 141.07422 C 42.748287 140.61543 42.637262 140.60122 42.664062 139.76562 L 41.564453 139.80273 C 41.126334 139.45669 41.180552 139.16362 41.576172 138.91016 L 42.929688 138.91016 L 42.941406 137.48828 C 42.986166 137.13532 43.829643 136.90114 44.064453 137.48828 L 44.097656 138.86328 L 45.289062 138.86328 C 45.692625 139.16021 45.820771 139.45892 45.300781 139.75586 L 44.212891 139.75586 L 44.191406 140.97656 C 45.109166 140.84547 45.921584 141.61231 46.052734 143.31641 L 47.070312 143.35156 L 47.037109 144.42969 L 45.960938 144.41602 L 45.947266 145.86328 C 46.334856 145.92748 48.191352 145.8867 48.888672 145.875 C 49.006862 145.23415 48.895173 144.08592 49.789062 144.2207 L 62.839844 144.37109 L 62.919922 143.73438 L 63.697266 143.72266 L 63.744141 140.85156 L 67.59375 140.875 L 67.59375 142.44922 L 75.265625 142.25195 L 75.207031 139.19727 L 77.322266 139.20898 L 77.416016 140.72461 L 84.507812 135.95898 L 86.869141 138.31836 L 94.96875 138.33984 L 94.96875 138.22461 C 94.89795 136.14965 94.559089 134.49268 94.724609 132.45703 C 95.480209 131.99442 95.462852 131.33348 96.257812 131.58203 C 96.333664 131.07884 95.995362 129.15469 96.039062 128.12695 C 96.082693 127.09923 96.807197 128.64956 96.841797 127.44727 C 96.876467 126.24494 96.599838 123.36286 96.648438 122.33594 C 96.697036 121.30904 97.558931 122.52105 97.644531 122.01953 C 97.987101 120.0134 97.533096 115.95742 97.816406 113.94141 L 96.234375 113.94141 L 96.234375 112.35938 L 98.400391 112.35938 L 98.400391 110.99609 L 97.037109 110.7793 L 96.841797 109.0293 L 98.205078 109.0293 L 98.693359 104.79297 L 99.080078 108.92969 L 99.591797 104.79297 L 99.884766 109.0293 L 100.17773 108.54102 L 100.17773 103.11328 L 100.95508 103.11328 L 100.95508 105.47461 L 101.97656 105.47461 L 101.95312 103.91602 L 102.73242 103.91602 L 102.61133 100.43945 L 101.83008 100.43945 L 101.83008 99.390625 L 102.63477 99.369141 L 102.58594 97.640625 L 103.41406 97.689453 L 103.41406 96.982422 L 104.2168 96.982422 L 104.26367 95.400391 L 103.51172 95.351562 L 103.51172 94.574219 L 104.16797 94.574219 L 104.16797 92.261719 L 103.36523 92.261719 L 103.31641 91.072266 L 104.2168 91.121094 L 104.19336 86.568359 L 104.84961 88.417969 L 104.89648 84.646484 C 104.55443 84.623761 104.49873 84.639047 104.31445 84.623047 C 104.28305 84.242817 104.31496 83.967936 104.28906 83.697266 C 104.49065 83.692266 104.71533 83.690266 104.94727 83.697266 C 104.93827 83.438566 104.9573 83.163941 104.9707 82.894531 C 105.2145 82.908971 105.73182 82.901369 105.87109 82.917969 C 105.87009 83.243129 105.85266 83.377981 105.84766 83.769531 C 106.23849 83.790531 106.29251 83.763531 106.52734 83.769531 C 106.53434 83.833701 106.53534 84.363037 106.52734 84.623047 C 106.39689 84.612647 106.06945 84.649484 105.82227 84.646484 L 105.82227 88.466797 L 106.48047 86.59375 L 106.55078 91.3125 L 107.42773 91.3125 L 107.42773 92.359375 L 106.60156 92.408203 L 106.57617 94.744141 L 107.33008 94.71875 L 107.30664 95.425781 L 106.52734 95.425781 L 106.52734 97.080078 L 107.20898 97.128906 L 107.25781 97.859375 L 107.81641 97.859375 L 107.81641 99.390625 L 108.49805 99.390625 L 108.49805 100.41211 L 107.79492 100.33984 L 107.8418 103.96484 L 108.83984 103.96484 L 109.32617 97.859375 C 109.52245 100.00954 109.47062 101.82004 109.7168 103.96484 L 110.39844 103.91602 L 110.44531 107.98047 L 111.24805 107.98047 L 111.29883 109.60938 L 112.85547 109.56055 L 112.9043 110.99609 L 111.88086 110.99609 L 111.90625 112.55469 L 112.75781 112.60156 L 112.80664 120.16992 L 124.26953 120.21875 L 124.46289 111.77539 L 124.46289 111.09375 L 125.14648 111.09375 L 125.19531 103.96484 L 125.58398 100.99609 L 125.94922 97.955078 C 126.00372 97.607008 125.98648 97.30979 126.02148 97.03125 L 125.55859 97.056641 C 125.54959 96.881011 125.52959 96.956005 125.55859 96.640625 L 126.04688 96.617188 L 126.04688 96.082031 L 126.48438 96.082031 L 126.46094 96.640625 L 126.9707 96.640625 L 126.9707 97.056641 L 126.41016 97.03125 C 126.41106 97.31895 126.41072 97.553178 126.38672 97.955078 L 126.75195 103.99023 L 126.72656 108.63867 L 128.06641 108.66211 L 128.06641 103.96484 L 128.5293 97.980469 L 128.57812 97.105469 L 128.04102 97.105469 L 128.04102 96.740234 L 128.5293 96.740234 L 128.5293 96.130859 L 128.91797 96.130859 L 128.91797 96.740234 L 129.50195 96.740234 L 129.50195 97.128906 L 128.94336 97.128906 L 128.94336 97.980469 L 129.84375 103.96484 L 129.96484 110.99609 L 130.66992 110.97266 L 130.69531 113.30859 L 132.22656 113.35742 L 132.22656 116.49609 L 132.30078 117.95703 L 132.98242 117.98047 L 132.95898 119.56055 L 133.78516 119.58594 L 133.78516 121.14258 L 142.64453 121.2168 L 146.19727 130.24219 C 146.21807 138.252 146.3811 145.9731 146.51758 153.65039 L 150.06836 153.79688 L 150.06836 150.6582 L 150.89648 150.73047 L 150.82422 149.83203 L 149.36328 149.75781 L 149.36328 148.71094 L 151.60156 148.71094 L 151.5293 138.63672 L 154.93555 135.91406 C 154.84595 130.70287 157.6348 121.0909 169.39258 118.75977 L 169.39258 112.48242 L 168.00391 112.43359 L 168.00391 111.3125 L 169.31836 111.16602 C 169.28996 107.79287 171.23771 107.48821 173.01758 107.00781 L 173.50391 102.70117 L 174.11133 102.74805 L 174.47852 107.00781 C 176.03941 107.40763 177.91209 107.80278 177.93359 111.16797 L 179.19922 111.16797 L 179.125 112.55469 L 178.00586 112.55469 L 177.93359 118.75977 C 184.69405 120.72729 192.08746 125.19479 192.53516 136.40039 C 192.61246 137.60032 193.31902 137.63442 194.43359 137.66602 C 194.90366 138.26304 195.50785 138.83312 194.45703 139.68359 L 194.55664 145.79297 L 196.03906 145.81641 L 196.01562 153.65039 L 198.93555 153.67578 L 198.95898 149.73242 L 200.71289 149.78125 L 200.71289 154.55078 L 202.3418 154.57422 L 202.3418 149.34375 L 205.26367 147.44531 L 205.19141 146.81055 L 206.23633 146.81055 L 206.23633 145.96289 C 203.65497 146.45052 205.16621 141.74992 207.91797 142.20508 L 207.84375 137.16211 L 207.08008 137.06836 L 207.08008 136.11914 L 207.71289 136.09375 L 207.73828 133.85547 L 208.88086 133.19922 L 208.88086 132.17773 C 207.51051 131.50011 208.2495 131.10134 208.85742 130.69336 L 209.83008 123.7832 L 210.6582 130.69336 C 211.62544 131.257 211.56998 131.77901 210.68359 132.25 L 210.68359 133.27344 L 211.60742 133.92969 L 211.55859 136.11914 L 212.36133 136.11914 L 212.36133 137.14258 L 211.38672 137.0918 L 211.41016 142.37305 C 213.48967 141.92316 215.92535 145.80074 213.17188 146.13281 L 213.17188 146.98242 L 214.51172 147.00586 L 214.51172 147.63867 L 215.48438 148.44141 L 214.73047 148.44141 L 214.73047 153.72461 L 215.41016 153.72461 L 215.41016 159.97656 L 217.67383 160 L 217.67383 150.0957 L 217.01758 150.0957 L 217.01758 149.17188 L 216.21484 149.17188 L 216.26367 147.5918 L 217.06641 147.63867 L 227.01953 137.37305 L 227.16602 133.99023 C 227.48613 131.89151 227.65097 133.20579 227.8457 133.99023 L 228.06641 137.32227 L 233.39648 142.87109 L 235.33789 142.82617 L 235.29102 136.8418 L 234.83203 136.86133 C 233.79798 136.49336 233.85099 136.11013 234.7832 135.74219 L 235.68359 135.79102 L 236.70508 132.72461 L 236.75391 127.08008 C 237.01435 122.46585 237.15919 124.60707 237.29102 127.12891 L 237.33789 132.69922 L 238.16602 135.91211 L 239.01758 135.91211 C 239.05268 135.91211 240.71181 136.3845 239.06641 136.98242 C 238.61702 137.03131 238.60352 136.91406 238.60352 136.91406 L 238.5293 142.02344 L 239.74805 142.04297 L 239.74805 143.01562 L 241.11133 143.04102 L 241.11133 103.98828 L 239.5293 103.16211 L 239.48047 102.4082 L 238.04492 102.4082 C 238.07972 101.95037 237.6675 101.47735 238.84766 101.01953 L 239.625 101.01953 L 239.625 92.261719 C 239.79123 88.926269 240.2207 85.744614 240.47852 82.333984 C 240.711 85.693454 240.72086 88.975754 241.08594 92.333984 L 241.13477 97.054688 C 242.17552 97.043788 243.20926 97.03125 244.25 97.03125 L 244.20117 89.220703 L 243.49414 89.197266 L 243.4707 88.466797 L 242.66797 88.441406 L 242.64453 87.638672 L 242.03516 87.638672 L 242.08398 79.027344 L 243.10742 70.023438 L 244.29883 79.027344 L 244.32227 81.4375 L 245.15039 81.412109 L 245.3457 77.955078 L 245.83203 77.615234 L 246.19727 72.263672 L 246.58594 72.019531 L 246.87891 65.009766 L 247.17188 64.28125 L 248.2168 50 L 249.08398 64.261719 L 249.42383 65.041016 L 249.61914 72.025391 L 249.94727 72.289062 L 250.45898 77.691406 L 250.94531 78.082031 L 251.21289 81.365234 L 252.03906 81.34375 L 252.01562 79.080078 L 253.33008 69.955078 L 254.32812 79.005859 L 254.30273 87.789062 L 253.66992 87.765625 L 253.69531 88.470703 L 252.84375 88.470703 L 252.86719 89.273438 L 252.08789 89.273438 L 252.08789 97.035156 L 255.27734 97.083984 L 255.22656 92.339844 C 255.54638 90.440834 255.94025 84.526867 256.03125 82.216797 C 256.68906 84.124377 256.47613 89.556024 256.78516 92.339844 L 256.80859 100.92969 L 257.56445 100.95312 C 258.33387 101.6302 258.31367 101.77682 258.29297 102.41211 L 256.83398 102.41211 L 256.85742 103.21289 L 255.22656 103.99414 L 255.30078 124.43164 C 256.52866 124.43964 257.2231 124.46303 258.26953 124.45703 L 258.27734 124.25391 L 257.60938 124.25586 L 257.60938 113.34375 L 258.3457 113.34375 L 258.44531 119.58789 L 259.08398 119.58789 L 259.08398 108.625 L 260.01758 108.625 L 259.97461 115.7168 L 260.6543 115.67188 L 260.82227 115.50977 L 260.95117 105.57617 L 261.73828 105.57617 L 261.73828 111.08398 L 262.28516 111.08398 L 262.28516 111.07617 L 262.37695 110.97266 L 262.42773 103.16797 L 263.36133 103.11719 L 263.36133 106.41016 L 263.79297 106.4043 L 263.79297 106.37891 L 264.24609 106.37891 L 264.22852 100.14844 L 264.82422 100.13672 L 264.83594 106.36328 L 265.44922 106.34766 L 265.2793 98.785156 C 264.4408 98.890416 264.03424 98.81728 263.74414 97.8125 L 263.08789 97.787109 C 262.76049 97.545579 262.25679 97.346661 263.08789 96.837891 L 263.79297 96.837891 C 263.48287 96.223291 264.62659 95.547924 265.40039 95.839844 L 265.40039 94.648438 C 266.00961 93.560907 266.58936 93.790886 266.91016 94.648438 L 266.91016 95.865234 C 267.94484 95.696344 268.56254 96.078273 268.44141 96.814453 L 269.24414 96.837891 C 269.87467 97.158861 270.1319 97.466209 269.19727 97.787109 L 268.44141 97.8125 C 268.60021 98.823846 267.391 99.000176 266.88477 98.785156 L 266.95703 106.31641 L 267.71289 106.29883 L 267.75586 100.12109 L 268.36328 100.11133 L 268.40625 106.29688 L 269.28516 106.28906 L 269.31055 103.16602 L 270.02344 103.11523 L 270 110.7832 L 270.75977 110.75977 L 270.83594 105.625 L 271.57227 105.57422 L 271.5957 115.63477 L 271.6543 115.69531 L 272.33594 115.76367 L 272.35742 108.67188 L 273.21875 108.67188 L 273.31641 119.50781 L 274.07812 119.5332 L 274.03125 113.39062 L 274.8418 113.39062 L 274.89062 124.20508 L 274.69531 124.20508 L 274.69727 124.25977 L 277.00781 124.21289 L 276.91211 104.01562 C 276.61679 103.8052 276.1946 103.51343 275.37891 103.16406 L 275.37891 102.38477 L 273.77344 102.38477 C 273.70744 101.08712 274.09154 101.17684 274.79297 100.80469 L 275.45117 100.73047 L 275.40234 92.240234 L 276.1582 82.263672 L 276.96094 92.287109 C 277.04564 94.006029 277.07044 94.576099 277.05664 96.230469 L 280.19727 96.279297 L 280.24414 88.419922 L 279.4668 88.419922 L 279.41797 87.666016 L 278.63867 87.617188 L 278.63867 86.863281 L 277.78711 86.814453 L 277.78711 79.052734 L 278.85742 70.464844 L 280.05078 79.052734 L 280.09766 81.4375 L 280.95117 81.462891 L 281.09766 78.25 L 281.58398 77.568359 L 282.11914 72.433594 L 282.41211 71.996094 L 282.84961 65.060547 L 283.18945 64.306641 L 284.01758 50.023438 L 284.82031 64.306641 L 285.13672 65.109375 C 285.13672 65.109375 285.23041 70.222329 285.45312 72.167969 C 285.49802 72.560559 285.59897 72.483233 285.69727 72.726562 C 285.77097 72.908903 286.37695 77.591797 286.37695 77.591797 L 286.76758 78.177734 L 287.1582 81.414062 L 287.83789 81.435547 L 287.81445 79.175781 L 289.03125 70.658203 L 290.10156 79.199219 L 290.17383 86.912109 L 289.41992 86.912109 L 289.39648 87.714844 L 288.66602 87.738281 L 288.68945 88.517578 L 288.0332 88.542969 L 288.10547 96.326172 L 291.07422 96.302734 L 291.02734 92.238281 L 291.80469 82.238281 L 292.48633 92.335938 L 292.55859 100.875 L 293.36133 100.90039 C 294.21932 101.09403 294.21082 101.61585 294.14062 102.33594 L 292.6582 102.33594 L 292.6582 103.0918 C 291.90808 103.47686 291.28828 103.90443 290.95312 104.06445 L 291.07422 140.68359 L 292.6582 140.70703 L 292.63281 139.78125 L 293.41211 139.78125 L 293.43555 138.41992 L 293.75195 137.51953 L 294.04297 136.69141 L 307.30664 136.54688 L 307.30664 129.95117 L 305.06836 127.95508 L 305.16602 112.43359 C 305.70622 107.51984 305.77733 102.87734 306.21289 98.517578 L 306.23633 97.763672 L 305.43359 97.738281 L 305.43359 96.960938 L 306.23633 96.960938 L 306.23633 95.546875 L 306.94141 95.546875 L 306.9668 96.935547 L 307.7207 96.958984 L 307.7207 97.810547 L 306.91797 97.787109 L 306.89258 98.517578 L 308.18359 112.41016 L 308.96289 112.38477 L 309.44922 103.21289 C 309.44922 103.21289 308.83801 102.78967 308.81641 102.38477 C 308.78661 101.82937 309.33522 101.47831 309.66797 101.50781 C 310.02028 101.53911 310.42061 101.87906 310.44531 102.36133 C 310.46421 102.7341 309.93554 103.21289 309.93555 103.21289 L 310.51953 110.24414 L 311.17773 110.21875 L 315.2168 89.199219 L 315.0957 83.794922 L 314.19531 83.820312 L 314.19531 82.943359 L 315.0957 82.919922 L 315.07227 82.214844 C 314.61047 81.807724 314.01621 81.386617 315.04688 80.804688 C 314.98317 80.788248 315.57082 80.79765 315.80078 80.78125 C 316.02954 80.83076 316.84758 81.496653 315.85156 82.189453 L 315.89844 82.943359 L 316.62891 82.919922 L 316.62891 83.771484 L 315.92188 83.748047 L 315.97266 89.175781 L 321.44727 89.175781 L 321.47266 83.820312 L 320.71875 83.820312 L 320.69336 82.943359 L 321.52148 82.943359 L 321.52148 82.263672 C 320.5964 81.659952 320.81719 81.122426 321.54492 80.634766 L 322.32422 80.634766 C 323.30231 81.214366 322.9947 81.749162 322.34766 82.263672 L 322.37109 82.96875 L 323.0293 82.992188 L 323.0293 83.820312 L 322.20117 83.845703 L 322.20117 89.175781 L 326.04688 110.48828 L 326.75195 110.48828 L 327.72656 103.16406 C 327.72656 103.16406 327.05698 102.84614 327.14258 102.41016 C 327.23188 101.95541 327.57801 101.65859 328.04102 101.67969 C 328.5525 101.70288 328.93296 101.94717 328.94336 102.45898 C 328.95236 102.90297 328.35742 103.18945 328.35742 103.18945 L 329.21094 112.55664 L 329.91602 112.55664 L 331.13281 98.759766 L 331.10938 97.810547 L 330.30469 97.810547 L 330.30469 97.007812 L 331.13281 97.033203 L 331.1582 95.476562 L 331.83984 95.476562 L 331.83984 97.056641 L 332.56836 97.056641 L 332.54492 97.810547 L 331.83984 97.810547 L 331.86328 98.736328 L 333.15234 112.60352 L 333.08008 128.07812 L 330.74414 130.02539 L 330.72852 158.72656 L 332.00391 158.32617 C 333.1642 157.96316 333.82885 157.94826 334.2207 158.27344 C 334.52941 158.52966 334.78125 158.55189 334.78125 158.32422 C 334.78125 158.09717 335.06805 157.5241 335.41797 157.05078 C 336.02405 156.23097 336.08708 156.26979 336.75391 157.85352 C 337.44576 159.49663 338.03344 159.90808 338.5332 159.09961 C 338.84139 158.60109 342.40085 158.8134 344.45117 159.45312 C 345.25775 159.70479 346.18454 159.80912 346.51172 159.68359 L 354.54688 160 L 395.71875 159.75586 L 395.71875 -31.613281 L -27.578125 -31.613281 z M 104.99609 92.748047 L 104.9707 94.355469 L 105.84766 94.355469 L 105.87109 92.748047 L 104.99609 92.748047 z M 267.09961 96.332031 C 266.95422 96.335331 266.81235 96.346609 266.68945 96.349609 L 266.66406 96.935547 L 267.95508 96.910156 C 267.99068 96.381941 267.53581 96.322031 267.09961 96.332031 z M 265.13086 96.349609 C 264.7035 96.341408 264.26713 96.407327 264.30273 96.935547 L 265.54492 96.935547 L 265.54492 96.375 C 265.42201 96.3716 265.27331 96.352609 265.13086 96.349609 z M 264.30273 97.761719 C 264.25533 98.466049 265.02987 98.359903 265.52148 98.345703 L 265.52148 97.761719 L 264.30273 97.761719 z M 266.68945 97.761719 L 266.71289 98.345703 C 267.20453 98.359923 268.00248 98.466049 267.95508 97.761719 L 266.68945 97.761719 z M 103.87695 100.92383 L 103.90039 103.30859 L 106.48047 103.30859 L 106.48047 100.97266 L 103.87695 100.92383 z "
       transform="translate(254.97847,125.95508)"
       id="rect1131" />
  </g>
</svg>
