<?xml version="1.0" encoding="UTF-8" standalone="no"?>
<!-- Created with Inkscape (http://www.inkscape.org/) -->

<svg
   xmlns:dc="http://purl.org/dc/elements/1.1/"
   xmlns:cc="http://creativecommons.org/ns#"
   xmlns:rdf="http://www.w3.org/1999/02/22-rdf-syntax-ns#"
   xmlns:svg="http://www.w3.org/2000/svg"
   xmlns="http://www.w3.org/2000/svg"
   xmlns:sodipodi="http://sodipodi.sourceforge.net/DTD/sodipodi-0.dtd"
   xmlns:inkscape="http://www.inkscape.org/namespaces/inkscape"
   version="1.1"
   id="svg2"
   width="354.54758"
   height="160.39999"
   viewBox="0 0 354.54759 160.39999"
   sodipodi:docname="praha.svg"
   inkscape:version="0.92.2 (5c3e80d, 2017-08-06)">
  <metadata
     id="metadata8">
    <rdf:RDF>
      <cc:Work
         rdf:about="">
        <dc:format>image/svg+xml</dc:format>
        <dc:type
           rdf:resource="http://purl.org/dc/dcmitype/StillImage" />
        <dc:title />
      </cc:Work>
    </rdf:RDF>
  </metadata>
  <defs
     id="defs6" />
  <sodipodi:namedview
     pagecolor="#ffffff"
     bordercolor="#666666"
     borderopacity="1"
     objecttolerance="10"
     gridtolerance="10"
     guidetolerance="10"
     inkscape:pageopacity="0"
     inkscape:pageshadow="2"
     inkscape:window-width="1366"
     inkscape:window-height="704"
     id="namedview4"
     showgrid="false"
     inkscape:zoom="2"
     inkscape:cx="223.98418"
     inkscape:cy="36.343428"
     inkscape:window-x="0"
     inkscape:window-y="27"
     inkscape:window-maximized="1"
     inkscape:current-layer="layer2"
     showguides="true"
     inkscape:guide-bbox="true"
     fit-margin-top="0"
     fit-margin-left="0"
     fit-margin-right="0"
     fit-margin-bottom="0">
    <sodipodi:guide
       position="354.54759,-261.2653"
       orientation="1,0"
       id="guide5284"
       inkscape:locked="false" />
    <sodipodi:guide
       position="628.19795,-167.22013"
       orientation="1,0"
       id="guide5286"
       inkscape:locked="false" />
    <sodipodi:guide
       position="986.70106,-133.27901"
       orientation="1,0"
       id="guide5288"
       inkscape:locked="false" />
    <sodipodi:guide
       position="59.252515,160.75078"
       orientation="0,1"
       inkscape:locked="false"
       id="guide1611" />
    <sodipodi:guide
       position="-1.6444757,0.5000013"
       orientation="0,1"
       id="guide118"
       inkscape:locked="false" />
    <sodipodi:guide
       position="1371.8503,0.4584613"
       orientation="1,0"
       id="guide140"
       inkscape:locked="false" />
    <sodipodi:guide
       position="1.4268037e-05,0.50076942"
       orientation="1,0"
       id="guide1129"
       inkscape:locked="false" />
  </sodipodi:namedview>
  <g
     inkscape:groupmode="layer"
     id="layer2"
     inkscape:label="Layer 2"
     transform="translate(-254.97847,-125.55509)">
    <rect
       style="fill:#ffffff;fill-opacity:1;stroke-width:0.99890488"
       id="rect1131"
       width="354.54758"
       height="159.89999"
       x="254.97847"
       y="125.55509" />
    <path
       style="fill:#e51f40;fill-opacity:1;stroke-width:0.99989349"
       d="m 503.19532,175.95508 -1.04492,14.28211 -0.29297,0.72836 -0.29296,7.00828 -0.38868,0.24409 -0.36523,5.35237 -0.48633,0.33977 -0.19531,3.4563 -0.82813,0.0254 -0.0234,-2.40964 -1.19141,-9.00394 -1.02344,9.00394 -0.0488,8.61144 h 0.60938 l 0.0234,0.80257 0.80273,0.0254 0.0234,0.73032 0.70703,0.0234 0.0488,7.81084 c -1.04074,0 -2.07449,0.0125 -3.11524,0.0234 l -0.0488,-4.7197 c -0.36508,-3.35823 -0.37495,-6.64035 -0.60743,-9.99982 -0.25782,3.41063 -0.68728,6.59212 -0.85351,9.92757 v 8.7579 h -0.77735 c -1.18016,0.45782 -0.76793,0.93054 -0.80273,1.38837 h 1.43555 l 0.0488,0.75375 1.58204,0.82599 v 39.05223 l -1.36328,-0.0254 v -0.97245 l -1.21876,-0.0195 0.0742,-5.11024 c 0,0 0.0135,0.11733 0.46289,0.0684 1.6454,-0.59792 -0.0137,-1.07008 -0.0488,-1.07008 h -0.85157 l -0.82812,-3.2122 -0.0469,-5.57109 c -0.13183,-2.52184 -0.27667,-4.663 -0.53711,-0.0488 l -0.0488,5.64528 -1.02149,3.06576 -0.90039,-0.0488 c -0.93221,0.36794 -0.98528,0.75093 0.0488,1.1189 l 0.45898,-0.0195 0.0469,5.98506 -1.94141,0.0449 -5.33008,-5.5496 -0.2207,-3.33132 c -0.19473,-0.78444 -0.35958,-2.09872 -0.67969,0 l -0.14648,3.38209 -9.95313,10.26734 -0.80273,-0.0469 -0.0488,1.57975 h 0.80274 v 0.92363 h 0.65625 v 9.90404 h 136.87304 l -8.03515,-0.31634 c -0.32718,0.12553 -1.25397,0.0213 -2.06055,-0.23042 -2.05032,-0.63973 -5.60978,-0.85196 -5.91797,-0.35344 -0.49976,0.80847 -1.08745,0.39729 -1.7793,-1.24582 -0.66683,-1.58373 -0.72985,-1.62238 -1.33593,-0.80257 -0.34992,0.47332 -0.63672,1.04612 -0.63672,1.27317 0,0.22767 -0.25184,0.2054 -0.56055,-0.0508 -0.39185,-0.32518 -1.05651,-0.31034 -2.2168,0.0527 l -1.27539,0.4003 0.0156,-28.70091 2.33594,-1.94685 0.0723,-15.47522 -1.28906,-13.86814 -0.0234,-0.92558 h 0.70508 l 0.0234,-0.75375 h -0.72852 v -1.57974 h -0.68164 l -0.0254,1.55631 -0.82812,-0.0254 v 0.80257 h 0.80468 l 0.0234,0.94901 -1.2168,13.79785 h -0.70507 l -0.85352,-9.36716 c 0,0 0.59494,-0.28631 0.58594,-0.7303 -0.0104,-0.51181 -0.39087,-0.75594 -0.90235,-0.77913 -0.46301,-0.0211 -0.80913,0.27556 -0.89843,0.73031 -0.0856,0.43598 0.58398,0.75374 0.58398,0.75374 l -0.97461,7.32462 h -0.70508 l -3.84563,-21.31377 v -5.32895 l 0.82812,-0.0254 v -0.82795 l -0.6582,-0.0234 -0.0234,-0.70493 c 0.64704,-0.51451 0.95473,-1.05091 -0.0234,-1.63051 h -0.7793 c -0.72773,0.48766 -0.94844,1.02679 -0.0234,1.63051 v 0.67954 H 575.672 l 0.0254,0.87677 h 0.7539 l -0.0254,5.35432 h -5.47461 l -0.0508,-5.42657 0.70703,0.0234 v -0.85138 l -0.73046,0.0234 -0.0469,-0.75375 c 0.99602,-0.6928 0.17794,-1.36035 -0.0508,-1.40986 -0.22996,0.0164 -0.81761,0.007 -0.75391,0.0234 -1.03067,0.58193 -0.43639,1.00469 0.0254,1.41181 l 0.0234,0.70493 -0.90039,0.0234 v 0.87677 l 0.90039,-0.0254 0.12109,5.40315 -4.03906,21.02091 -0.6582,0.0254 -0.58398,-7.03171 c -10e-6,0 0.52866,-0.47861 0.50976,-0.85138 -0.0247,-0.48227 -0.42503,-0.82204 -0.77734,-0.85334 -0.33275,-0.0295 -0.88137,0.32138 -0.85157,0.87678 0.0216,0.4049 0.63282,0.82794 0.63282,0.82794 l -0.48633,9.17188 -0.7793,0.0254 -1.29101,-13.89352 0.0254,-0.73032 0.80273,0.0234 v -0.85138 l -0.75391,-0.0234 -0.0254,-1.38837 h -0.70507 v 1.41376 h -0.80274 v 0.77718 l 0.80274,0.0254 -0.0234,0.75375 c -0.43556,4.35976 -0.50668,9.00321 -1.04688,13.91696 l -0.0976,15.52208 2.23828,1.99566 v 6.59431 l -13.26367,0.14645 -0.29102,0.82794 -0.3164,0.90021 -0.0234,1.36103 h -0.7793 l 0.0254,0.92558 -1.58398,-0.0234 -0.1211,-36.61916 c 0.33516,-0.16002 0.95496,-0.58738 1.70508,-0.97244 v -0.7557 h 1.48242 c 0.0702,-0.72009 0.0787,-1.24161 -0.77929,-1.43525 l -0.80274,-0.0254 -0.0723,-8.5392 -0.68164,-10.09746 -0.77735,9.99983 0.0469,4.06358 -2.96875,0.0234 -0.0723,-7.7835 0.65625,-0.0254 -0.0234,-0.77913 0.73047,-0.0234 0.0234,-0.80256 h 0.75391 l -0.0723,-7.7132 -1.07031,-8.54115 -1.2168,8.51771 0.0234,2.26124 -0.67969,-0.0234 -0.39062,-3.23564 -0.39063,-0.58582 c 0,0 -0.60599,-4.68185 -0.67969,-4.86419 -0.0983,-0.24333 -0.19924,-0.16784 -0.24414,-0.56043 -0.22271,-1.94564 -0.3164,-7.05709 -0.3164,-7.05709 l -0.31641,-0.80256 -0.80273,-14.28407 -0.82813,14.28407 -0.33984,0.75374 -0.4375,6.93407 -0.29297,0.43936 -0.53516,5.13367 -0.48633,0.6815 -0.14648,3.2122 -0.85352,-0.0254 -0.0469,-2.38426 -1.19336,-8.58801 -1.07031,8.58801 v 7.76202 l 0.85156,0.0488 v 0.75374 l 0.7793,0.0488 0.0488,0.75375 h 0.77735 l -0.0469,7.85965 -3.14062,-0.0488 c 0.0138,-1.65437 -0.011,-2.2236 -0.0957,-3.94252 l -0.80274,-10.02325 -0.75586,9.97639 0.0488,8.49038 -0.6582,0.0742 c -0.70143,0.37215 -1.08553,0.2821 -1.01953,1.57975 h 1.60546 v 0.77912 c 0.81569,0.34937 1.23789,0.64096 1.53321,0.85139 l 0.0957,20.19687 -2.31055,0.0469 -0.002,-0.0547 h 0.19531 l -0.0488,-10.81411 h -0.81054 l 0.0469,6.14322 -0.76172,-0.0254 -0.0977,-10.83753 h -0.86133 l -0.0215,7.09224 -0.68165,-0.0684 -0.0586,-0.0606 -0.0234,-10.06035 -0.73632,0.0508 -0.0762,5.13562 -0.75976,0.0234 0.0234,-7.66829 -0.71289,0.0508 -0.0254,3.12237 -0.8789,0.008 -0.043,-6.18423 -0.60742,0.008 -0.043,6.17837 -0.75586,0.0176 -0.0723,-7.5316 c 0.50623,0.21502 1.71544,0.0389 1.55664,-0.97245 l 0.75586,-0.0254 c 0.93463,-0.3209 0.67746,-0.62804 0.0469,-0.94901 l -0.80274,-0.0234 c 0.12113,-0.73618 -0.49657,-1.11791 -1.53125,-0.94902 v -1.21653 c -0.3208,-0.85755 -0.90054,-1.08753 -1.50976,0 v 1.19115 c -0.7738,-0.29192 -1.91752,0.38323 -1.60742,0.99783 h -0.70508 c -0.8311,0.50877 -0.3274,0.70749 0,0.94902 l 0.65625,0.0254 c 0.2901,1.00478 0.69665,1.07771 1.53515,0.97245 l 0.16993,7.56285 -0.61328,0.0156 -0.0117,-6.22718 -0.59571,0.0117 0.0176,6.2311 h -0.45312 v 0.0254 l -0.43164,0.006 v -3.29227 l -0.9336,0.0508 -0.0508,7.80303 -0.0918,0.10348 v 0.008 h -0.54687 v -5.50664 h -0.78691 l -0.12891,9.93343 -0.16797,0.16208 -0.67968,0.0449 0.043,-7.09224 h -0.9336 v 10.9625 h -0.63867 l -0.0996,-6.24281 h -0.73633 v 10.91175 l 0.66797,-0.002 -0.008,0.20308 c -1.04643,0.006 -1.74087,-0.0174 -2.96875,-0.0254 l -0.0742,-20.43706 1.63086,-0.78108 -0.0234,-0.80256 h 1.45899 c 0.0207,-0.63529 0.0409,-0.78161 -0.72852,-1.45868 l -0.75586,-0.0234 -0.0234,-8.58998 c -0.30903,-2.78382 -0.0961,-8.21526 -0.7539,-10.12284 -0.091,2.31007 -0.48487,8.22383 -0.80469,10.12284 l 0.0508,4.74508 -3.18945,-0.0488 v -7.76201 h 0.7793 l -0.0234,-0.80257 h 0.85156 l -0.0254,-0.70551 0.63281,0.0234 0.0254,-8.78329 -0.99804,-9.0508 -1.31446,9.125 0.0234,2.26319 -0.82617,0.0234 -0.26758,-3.28446 -0.48633,-0.39054 -0.51172,-5.40119 -0.32812,-0.26557 -0.19531,-6.98289 -0.33985,-0.77913 z m -30.54296,110 -2.26368,-0.0234 v -6.25256 H 469.709 v -5.28209 h 0.7539 l -0.97265,-0.80256 v -0.63267 l -1.33985,-0.0234 v -0.85138 c 2.75348,-0.33207 0.31779,-4.20885 -1.76172,-3.75896 l -0.0234,-5.28208 0.97461,0.0508 v -1.02322 h -0.80274 l 0.0488,-2.18899 -0.92383,-0.65611 v -1.02322 c 0.88639,-0.47099 0.94183,-0.99267 -0.0254,-1.55631 l -0.82812,-6.91063 -0.97266,6.91063 c -0.60792,0.40798 -1.34699,0.80645 0.0234,1.48407 v 1.02126 l -1.14258,0.65611 -0.0254,2.2378 -0.63281,0.0254 v 0.94902 l 0.76367,0.0937 0.0742,5.04384 c -2.75176,-0.45516 -4.263,4.24464 -1.68164,3.75701 v 0.84943 h -1.04493 l 0.0723,0.63463 -2.92188,1.89804 v 5.22936 l -1.6289,-0.0234 v -4.76851 l -1.75391,-0.0488 -0.0234,3.94252 -2.91993,-0.0254 0.0234,-7.83427 -1.48242,-0.0234 -0.0996,-6.10807 c 1.05082,-0.85047 0.44671,-1.42208 -0.0234,-2.0191 -1.11457,-0.0316 -1.82114,-0.0654 -1.89844,-1.26536 -0.4477,-11.2056 -7.8411,-15.67325 -14.60156,-17.64077 l 0.0723,-6.20376 h 1.11914 l 0.0742,-1.38643 h -1.26563 c -0.0215,-3.36519 -1.89419,-3.7614 -3.45508,-4.16122 l -0.36718,-4.25885 -0.60743,-0.0469 -0.48632,4.30572 c -1.77987,0.4804 -3.72762,0.78613 -3.69922,4.15928 l -1.31446,0.14644 v 1.12086 l 1.38868,0.0488 v 6.2759 c -11.75778,2.33113 -14.54663,11.94335 -14.45703,17.15454 l -3.40626,2.72403 0.0723,10.07403 h -2.23828 v 1.04665 l 1.46094,0.0742 0.0723,0.89825 -0.82812,-0.0723 v 3.138 l -3.55078,-0.14645 c -0.13648,-7.67729 -0.29952,-15.39731 -0.32032,-23.40712 l -3.55273,-9.02543 -8.85938,-0.0742 v -1.55631 l -0.82617,-0.0254 0.0234,-1.5817 -0.68164,-0.0234 -0.0742,-1.46063 v -3.138 l -1.53125,-0.0488 -0.0254,-2.33544 -0.70508,0.0234 -0.12109,-7.03171 -0.90039,-5.98505 v -0.85138 h 0.55859 v -0.38859 h -0.58398 v -0.60924 h -0.38868 v 0.60924 h -0.48828 v 0.36516 h 0.53711 l -0.0488,0.87481 -0.46289,5.98505 v 4.69627 l -1.33984,-0.0234 0.0254,-4.64744 -0.36523,-6.03582 c 0.024,-0.4019 0.0243,-0.63594 0.0234,-0.92364 l 0.56055,0.0254 v -0.41593 h -0.50976 l 0.0234,-0.55847 h -0.4375 v 0.53504 l -0.48828,0.0234 c -0.029,0.31538 -0.009,0.24029 0,0.41592 l 0.46289,-0.0254 c -0.035,0.27854 -0.0178,0.57556 -0.0723,0.92363 l -0.36524,3.04232 -0.38867,2.96811 -0.0488,7.12934 h -0.68359 v 0.6815 l -0.19336,8.44352 -11.46289,-0.0488 -0.0488,-7.5687 -0.85156,-0.0469 -0.0254,-1.55826 h 1.02343 l -0.0488,-1.43524 -1.55664,0.0488 -0.0508,-1.63052 h -0.80274 l -0.0469,-4.06358 -0.68165,0.0488 c -0.24618,-2.1448 -0.19434,-3.95595 -0.39062,-6.10611 l -0.48633,6.10611 h -0.99805 l -0.0469,-3.62423 0.70313,0.0723 v -1.02322 h -0.68165 v -1.53092 h -0.55859 l -0.0488,-0.73032 -0.68164,-0.0488 v -1.65394 h 0.7793 l 0.0234,-0.70688 -0.75391,0.0254 0.0254,-2.33544 0.82617,-0.0488 v -1.04665 h -0.87695 l -0.0703,-4.7197 -0.65821,1.87265 v -3.8195 c 0.24718,0.003 0.57463,-0.0338 0.70508,-0.0234 0.008,-0.26001 0.007,-0.78917 0,-0.85334 -0.23483,-0.006 -0.28886,0.021 -0.67969,0 0.005,-0.39155 0.0224,-0.52622 0.0234,-0.85138 -0.13927,-0.0166 -0.65659,-0.009 -0.90039,-0.0234 -0.0134,0.26941 -0.0324,0.54386 -0.0234,0.80256 -0.23194,-0.007 -0.45661,-0.005 -0.6582,0 0.0259,0.27067 -0.006,0.54536 0.0254,0.92559 0.18428,0.016 0.23998,6.8e-4 0.58203,0.0234 l -0.0469,3.77068 -0.65625,-1.84921 0.0234,4.55176 -0.90039,-0.0488 0.0488,1.19115 h 0.80274 v 2.31201 h -0.65625 v 0.77718 l 0.75195,0.0488 -0.0469,1.58169 h -0.80273 v 0.70688 l -0.82812,-0.0488 0.0488,1.72815 -0.80468,0.0215 v 1.0486 h 0.78125 l 0.12109,3.47778 h -0.7793 l 0.0234,1.55826 h -1.02148 v -2.36083 h -0.77735 v 5.42658 l -0.29297,0.48818 -0.29297,-4.23543 -0.51171,4.13584 -0.38672,-4.13584 -0.48828,4.23543 h -1.36329 l 0.19532,1.75158 1.36328,0.21675 v 1.36299 h -2.16602 v 1.58169 h 1.58203 c -0.28331,2.01601 0.1707,6.07223 -0.17187,8.07836 -0.0856,0.50152 -0.94749,-0.71056 -0.99609,0.31634 -0.0486,1.02692 0.22802,3.90791 0.19335,5.11024 -0.0346,1.20229 -0.7591,-0.34818 -0.80273,0.67954 -0.0437,1.02774 0.2946,2.95311 0.21875,3.4563 -0.79496,-0.24855 -0.7776,0.4122 -1.5332,0.87481 -0.16552,2.03565 0.17334,3.69334 0.24414,5.7683 v 0.11522 l -8.09961,-0.0215 -2.36133,-2.36083 -7.0918,4.76657 -0.0937,-1.5153 -2.11523,-0.0117 0.0586,3.05404 -7.67187,0.19722 v -1.57389 l -3.84961,-0.0234 -0.0469,2.87048 -0.77734,0.0117 -0.0801,0.63658 -13.05078,-0.15036 c -0.89389,-0.13478 -0.7822,1.01309 -0.90039,1.65394 -0.69732,0.0117 -2.55382,0.0525 -2.94141,-0.0117 l 0.0137,-1.44696 1.07617,0.0137 0.0332,-1.07789 -1.01758,-0.0352 c -0.13115,-1.7041 -0.94357,-2.47043 -1.86133,-2.33934 l 0.0215,-1.22045 h 1.08789 c 0.51999,-0.29694 0.39186,-0.59545 -0.0117,-0.89238 h -1.19141 l -0.0332,-1.3747 c -0.23481,-0.58714 -1.07829,-0.35296 -1.12305,0 l -0.0117,1.42156 h -1.35352 c -0.39562,0.25346 -0.44982,0.54635 -0.0117,0.89239 l 1.09961,-0.0371 c -0.0268,0.8356 0.0842,0.84952 -0.0469,1.30831 -1.26875,-0.0232 -1.61109,0.87943 -1.57422,2.16165 h -0.98242 v 0.98417 h 0.98242 v 1.75939 l -2.07032,-0.008 0.008,-3.73163 -2.45899,0.0117 v 3.34499 h -2.16406 v -1.67151 h -2.94922 l -0.29492,1.67151 -2.95117,-0.0996 -0.0977,-1.27707 -3.83594,-0.0996 v 1.37666 l -5.01367,2.12455 -8.06445,6.17837 0.006,2.90172 -11.15625,3.29813 z m -112.67774,-67.2513 h 0.875 l -0.0234,1.60708 h -0.87695 z m 162.10352,3.58322 c 0.4362,-0.01 0.89107,0.0498 0.85547,0.57801 l -1.29102,0.0254 0.0254,-0.58581 c 0.1229,-0.003 0.26477,-0.0143 0.41016,-0.0176 z m -1.96875,0.0176 c 0.14245,0.003 0.29115,0.022 0.41406,0.0254 v 0.56042 h -1.24219 c -0.0356,-0.52822 0.40077,-0.59401 0.82813,-0.58581 z m -0.82813,1.41181 h 1.21875 v 0.58386 c -0.49161,0.0142 -1.26615,0.12047 -1.21875,-0.58386 z m 2.38672,0 h 1.26563 c 0.0474,0.70433 -0.75055,0.59808 -1.24219,0.58386 z m -162.8125,3.16339 2.60352,0.0488 v 2.33544 h -2.58008 z"
       id="rect146"
       inkscape:connector-curvature="0" />
    <g
       id="g1272"
       transform="translate(16)"
       style="fill:#fa023c">
      <g
         style="fill:#fa023c;stroke:none"
         transform="matrix(0.02388699,0,0,0.02388699,1514.8053,-132.19665)"
         id="layer1-3" />
      <g
         style="fill:#fa023c;stroke:none"
         transform="matrix(0.00634024,0,0,0.00634024,1326.3286,256.21784)"
         id="layer1-6" />
      <g
         id="g917"
         transform="matrix(-0.01851576,0,0,0.01851576,1222.0756,-37.508575)"
         style="fill:#fa023c;stroke:none" />
      <g
         transform="matrix(0.0223685,0,0,0.0223685,1414.0491,264.25718)"
         id="g985"
         style="fill:#fa023c" />
      <g
         id="g1228"
         transform="matrix(0.01791895,0,0,0.03104793,1556.4419,-259.42378)"
         style="fill:#fa023c;stroke:none" />
    </g>
  </g>
</svg>
