<?xml version="1.0" standalone="no"?>
<!DOCTYPE svg PUBLIC "-//W3C//DTD SVG 20010904//EN"
 "http://www.w3.org/TR/2001/REC-SVG-20010904/DTD/svg10.dtd">
<svg version="1.0" xmlns="http://www.w3.org/2000/svg"
 width="718.000000pt" height="754.000000pt" viewBox="0 0 718.000000 754.000000"
 preserveAspectRatio="xMidYMid meet">
<metadata>
Created by potrace 1.15, written by Peter Selinger 2001-2017
</metadata>
<g transform="translate(0.000000,754.000000) scale(0.100000,-0.100000)"
fill="#000000" stroke="none">
<path d="M2451 7495 c0 -27 -78 -504 -172 -1060 -94 -555 -175 -1037 -180
-1070 -38 -240 -49 -277 -89 -326 -22 -26 -67 -64 -100 -85 -62 -41 -70 -51
-45 -60 15 -6 22 -66 8 -62 -5 1 -21 -4 -38 -11 -16 -6 -35 -13 -42 -16 -6 -2
-14 -22 -18 -44 -4 -23 -11 -41 -16 -41 -5 0 -9 -7 -9 -15 0 -8 -5 -15 -11
-15 -6 0 -1 -13 10 -29 37 -52 29 -104 -35 -221 -49 -91 -56 -111 -59 -169
-13 -271 -28 -427 -41 -442 -7 -8 -10 -19 -5 -25 4 -5 2 -83 -5 -174 -7 -91
-16 -218 -19 -283 -6 -99 -10 -121 -27 -137 -11 -10 -15 -20 -10 -24 11 -6 5
-66 -6 -78 -4 -3 -143 -90 -309 -192 -334 -205 -555 -334 -651 -379 l-63 -29
-23 21 c-29 27 -54 26 -91 -4 -26 -21 -30 -32 -32 -77 -2 -68 -53 -655 -59
-686 l-5 -23 -44 25 -43 26 -6 -38 c-3 -20 -26 -208 -51 -417 -25 -209 -52
-429 -60 -490 -8 -60 -17 -135 -19 -165 -3 -30 -23 -194 -45 -365 -22 -170
-39 -311 -37 -312 1 -1 1600 101 3552 227 1952 127 3566 230 3587 230 l37 0
-5 63 c-3 34 -9 118 -15 186 -8 102 -14 129 -30 146 -17 18 -21 40 -26 121 -3
54 -10 110 -15 124 -5 14 -11 85 -14 157 l-4 133 -34 30 -34 29 -12 223 c-7
123 -19 264 -27 313 -7 50 -16 146 -18 215 -3 69 -5 128 -5 133 -1 4 -13 7
-28 8 -49 0 -117 106 -80 123 10 5 10 7 0 12 -7 3 -13 11 -13 17 0 14 -104
107 -118 107 -6 0 -24 16 -41 35 -23 27 -31 45 -31 74 0 21 -3 52 -6 69 -6 27
-3 33 20 43 19 9 25 17 20 28 -4 9 -22 66 -39 126 l-33 110 -7 -50 c-11 -81
-12 -83 -58 -87 -23 -3 -45 -2 -49 1 -4 3 -84 143 -178 311 -95 167 -181 315
-191 329 -10 13 -19 34 -19 47 0 13 -4 24 -10 24 -5 0 -7 -6 -5 -12 10 -28
-17 -38 -168 -63 -87 -14 -162 -25 -167 -25 -4 0 -8 36 -8 80 0 43 -3 88 -6
98 -4 11 -2 30 3 44 7 20 3 37 -21 85 -24 49 -36 101 -64 274 -19 118 -35 251
-37 297 -2 76 -8 100 -19 70 -3 -7 -2 -44 2 -81 4 -38 6 -76 4 -85 -3 -10 -11
-112 -18 -228 -7 -116 -19 -221 -25 -233 -21 -39 -39 -111 -30 -117 5 -3 9
-38 9 -77 1 -40 5 -91 9 -115 5 -23 5 -44 1 -47 -4 -2 -90 -16 -191 -30 -101
-15 -194 -28 -205 -31 -19 -5 -22 0 -27 48 -3 29 -48 261 -101 515 -52 254
-98 485 -102 513 -7 53 -42 117 -59 109 -6 -2 -8 -29 -7 -60 2 -31 -1 -59 -6
-63 -12 -7 -1274 -266 -1297 -266 -7 0 -3 161 5 197 8 34 7 48 -5 66 -8 12
-21 43 -30 67 -25 71 -79 443 -80 558 -1 56 -5 105 -9 110 -4 4 -7 2 -6 -3 1
-6 1 -14 0 -20 -1 -5 -1 -39 0 -75 0 -36 -6 -99 -15 -140 -9 -41 -29 -150 -44
-241 -20 -116 -37 -185 -56 -225 -27 -57 -28 -65 -26 -206 2 -168 14 -149
-104 -167 -48 -8 -253 -43 -308 -54 -8 -1 -11 13 -9 43 2 29 -8 82 -28 147
-16 56 -30 121 -30 144 0 40 26 99 43 99 5 0 -1 13 -12 29 -12 16 -21 45 -21
64 0 24 -8 45 -25 64 -13 15 -25 22 -25 15 0 -10 -5 -10 -20 -2 -24 13 -28 60
-5 60 25 0 17 19 -29 73 -44 53 -92 137 -107 192 -5 16 -14 127 -19 245 -5
118 -17 350 -25 515 -9 165 -24 471 -35 680 -17 340 -55 941 -63 1020 -2 17
-5 8 -6 -20z"/>
</g>
</svg>
