<?xml version="1.0" encoding="UTF-8" standalone="no"?>
<!-- Generator: Adobe Illustrator 14.0.0, SVG Export Plug-In . SVG Version: 6.00 Build 43363)  -->
<svg
   xmlns:dc="http://purl.org/dc/elements/1.1/"
   xmlns:cc="http://creativecommons.org/ns#"
   xmlns:rdf="http://www.w3.org/1999/02/22-rdf-syntax-ns#"
   xmlns:svg="http://www.w3.org/2000/svg"
   xmlns="http://www.w3.org/2000/svg"
   xmlns:xlink="http://www.w3.org/1999/xlink"
   xmlns:sodipodi="http://sodipodi.sourceforge.net/DTD/sodipodi-0.dtd"
   xmlns:inkscape="http://www.inkscape.org/namespaces/inkscape"
   version="1.0"
   id="Layer_1"
   x="0px"
   y="0px"
   width="390.52783"
   height="65.852654"
   viewBox="0 0 595.276 841.891"
   enable-background="new 0 0 595.276 841.891"
   xml:space="preserve"
   sodipodi:version="0.32"
   inkscape:version="0.46"
   sodipodi:docname="notice_of_meeting_2006.svg"
   inkscape:output_extension="org.inkscape.output.svg.inkscape"><metadata
   id="metadata4205"><rdf:RDF><cc:Work
       rdf:about=""><dc:format>image/svg+xml</dc:format><dc:type
         rdf:resource="http://purl.org/dc/dcmitype/StillImage" /></cc:Work></rdf:RDF></metadata><defs
   id="defs4203"><inkscape:perspective
   sodipodi:type="inkscape:persp3d"
   inkscape:vp_x="0 : 420.9455 : 1"
   inkscape:vp_y="0 : 1000 : 0"
   inkscape:vp_z="595.276 : 420.9455 : 1"
   inkscape:persp3d-origin="297.638 : 280.63033 : 1"
   id="perspective4207" />
	<defs
   id="defs4018">
		<path
   d="M -203.862,562.153 L -203.862,447.633 C -203.861,441.039 -198.963,436.279 -192.5,436.279 C -198.963,436.279 -204.202,430.931 -204.202,424.34 L -204.232,392.137 C -204.232,389.249 -201.938,386.91 -199.114,386.91 L 79.182,386.91 C 90.916,386.91 100.428,396.613 100.428,408.581 L 100.428,572.869 C 100.428,578.279 96.127,583.821 90.82,583.821 L -182.616,583.821 C -194.355,583.821 -203.862,571.037 -203.862,562.153"
   id="SVGID_676_" />
	</defs>
	<clipPath
   id="SVGID_677_">
		<use
   height="841.89099"
   width="595.276"
   y="0"
   x="0"
   style="overflow:visible"
   id="use4022"
   overflow="visible"
   xlink:href="#SVGID_676_" />
	</clipPath>
	
	
	
	
	
	
	
	
	
	
	
	
	
	
	
	
	
	
	
	
</defs><sodipodi:namedview
   inkscape:window-height="978"
   inkscape:window-width="1280"
   inkscape:pageshadow="2"
   inkscape:pageopacity="0.0"
   guidetolerance="10.0"
   gridtolerance="10.0"
   objecttolerance="10.0"
   borderopacity="1.0"
   bordercolor="#666666"
   pagecolor="#ffffff"
   id="base"
   showgrid="false"
   inkscape:zoom="4.390117"
   inkscape:cx="73.791107"
   inkscape:cy="37.277891"
   inkscape:window-x="-4"
   inkscape:window-y="-4"
   inkscape:current-layer="Layer_1" />





















































































































































































































































<g
   id="g6604"
   transform="matrix(26.77527,0,0,26.77527,-8671.1389,-11193.393)"><path
     id="path21"
     d="M 427.24,427.105 C 426.244,425.3 424.097,423.931 421.765,423.931 C 419.714,423.931 417.91,424.771 417.91,426.949 C 417.91,428.783 420.181,430.027 422.545,431.552 C 425.125,433.169 427.801,435.158 427.801,438.612 C 427.801,443.122 423.416,445.889 418.346,445.889 C 416.262,445.889 414.086,445.485 411.629,444.552 L 412.032,438.549 C 413.215,440.945 415.424,442.841 418.687,442.841 C 421.207,442.841 423.072,441.629 423.072,439.513 C 423.072,437.709 421.547,436.59 419.683,435.471 C 415.763,433.108 413.277,431.209 413.277,427.789 C 413.277,422.656 417.568,420.946 422.015,420.946 C 424.595,420.946 426.214,421.413 427.861,421.413 L 427.24,427.105 M 405.502,432.484 C 404.94,433.418 404.228,434.691 403.79,435.626 C 403.418,437.398 403.231,439.763 403.231,442.374 C 403.231,443.463 403.418,444.924 403.915,445.422 L 397.416,445.422 C 398.565,444.334 399.033,437.649 398.972,435.533 C 398.101,432.517 396.917,429.624 395.114,426.109 C 393.966,423.902 392.627,421.816 391.787,421.413 C 393.248,421.29 395.114,421.196 396.017,421.196 C 397.633,421.196 398.07,421.413 399.066,423.591 C 400.618,427.106 401.769,429.747 402.454,431.708 C 404.103,429.126 405.253,427.354 406.746,424.928 C 407.119,424.337 407.43,423.591 407.43,422.875 C 407.43,422.314 407.336,421.693 407.088,421.413 L 413.526,421.413 C 412.282,421.693 406.683,430.495 405.502,432.484 M 382.892,427.044 L 379.037,435.408 L 385.318,435.408 L 382.892,427.044 M 390.45,445.639 C 388.396,445.639 388.242,445.578 386.593,439.918 L 386.003,437.834 C 385.009,438.3 383.234,438.518 380.405,438.518 L 377.544,438.518 L 377.046,439.575 C 376.331,441.163 375.367,443.026 375.367,444.335 C 375.367,444.646 375.398,444.987 375.523,445.423 L 358.542,445.423 C 359.507,444.335 359.818,440.821 360.284,434.444 L 360.377,432.921 C 360.626,429.282 360.815,426.483 360.782,424.525 C 360.751,422.908 360.595,421.881 360.16,421.415 L 366.723,421.415 C 365.789,422.131 365.446,425.986 365.012,432.363 L 364.887,433.886 C 364.731,436.25 364.421,438.675 364.421,441.039 C 364.421,442.126 364.856,442.375 365.977,442.375 C 369.956,442.375 370.953,442.282 372.755,441.069 C 373.874,439.016 375.151,436.434 376.393,433.76 L 378.075,430.184 C 379.66,426.825 381.214,423.403 381.214,422.751 C 381.214,422.283 381.09,421.849 380.905,421.413 L 386.129,421.413 C 386.129,421.413 388.243,429.251 388.71,430.929 L 389.735,434.724 C 391.507,441.1 392.628,444.209 394.121,445.422 C 392.875,445.578 391.103,445.639 390.45,445.639 M 348.125,445.889 C 341.936,445.889 338.359,440.789 338.359,435.067 C 338.359,427.106 342.681,420.946 350.923,420.946 C 353.504,420.946 354.718,421.413 356.8,421.413 L 356.179,427.54 C 354.997,425.394 353.068,423.932 350.488,423.932 C 345.357,423.932 343.273,429.469 343.273,434.227 C 343.273,439.389 346.166,442.218 350.021,442.218 C 352.105,442.218 353.939,441.658 357.019,439.513 C 355.775,443.495 352.882,445.889 348.125,445.889 M 326.667,424.337 C 326.076,424.337 325.359,424.337 324.801,424.399 C 324.614,425.425 324.458,427.198 324.24,430.058 L 324.115,431.739 C 324.428,431.802 324.831,431.834 325.205,431.834 C 328.189,431.834 330.243,430.028 330.243,427.293 C 330.243,425.425 328.937,424.337 326.667,424.337 M 335.342,446.449 C 333.57,446.449 333.134,446.168 332.544,445.359 L 325.826,436.029 C 325.297,435.314 324.893,434.723 324.054,434.723 L 323.898,434.723 L 323.775,436.527 C 323.618,438.984 323.525,440.945 323.525,442.406 C 323.556,444.023 323.743,445.017 324.179,445.422 L 317.679,445.422 C 318.611,444.582 318.952,441.783 319.482,434.443 L 319.576,432.92 C 319.825,429.313 320.012,426.513 319.98,424.555 C 319.948,422.844 319.763,421.786 319.295,421.413 C 322.996,421.413 328.158,421.413 328.158,421.413 C 331.05,421.413 335.031,421.912 335.031,426.607 C 335.031,430.462 332.449,432.578 329.247,433.572 C 329.558,433.853 330.117,434.568 330.46,435.004 L 335.342,441.473 C 338.39,445.485 338.638,445.671 339.728,446.231 C 338.359,446.386 336.525,446.449 335.342,446.449 M 305.054,427.044 L 301.164,435.408 L 307.477,435.408 L 305.054,427.044 M 312.609,445.639 C 310.558,445.639 310.402,445.578 308.754,439.918 L 308.163,437.834 C 307.166,438.3 305.394,438.518 302.564,438.518 L 299.703,438.518 L 299.206,439.575 C 298.708,440.696 297.495,442.998 297.526,444.335 C 297.526,444.646 297.557,444.957 297.682,445.423 L 291.929,445.423 C 293.577,443.775 295.661,439.95 298.553,433.761 L 300.233,430.185 C 301.756,426.951 303.374,423.281 303.374,422.752 C 303.374,422.284 303.251,421.85 303.063,421.414 L 308.289,421.414 C 308.289,421.414 309.655,426.608 310.869,430.93 L 311.895,434.725 C 313.668,441.101 314.787,444.21 316.28,445.423 C 314.943,445.578 313.263,445.639 312.609,445.639 M 283.002,424.306 C 282.535,424.306 281.914,424.306 281.323,424.369 C 281.074,426.048 280.918,427.665 280.795,429.437 C 280.795,429.437 280.701,430.96 280.701,430.898 L 281.323,430.898 C 284.371,430.898 287.171,429.841 287.171,427.044 C 287.171,425.425 285.833,424.306 283.002,424.306 M 282.226,433.822 L 280.516,433.822 L 280.267,437.367 C 280.143,438.923 280.08,440.228 280.049,441.783 C 280.049,442.002 280.733,442.468 282.349,442.468 C 285.708,442.468 287.917,440.789 287.917,438.02 C 287.917,434.941 285.397,433.822 282.226,433.822 M 282.599,445.422 L 274.202,445.422 C 275.26,444.488 275.54,440.85 276.006,434.443 L 276.099,432.951 C 276.349,429.312 276.535,426.513 276.504,424.555 C 276.473,422.875 276.286,421.786 275.819,421.413 L 285.211,421.413 C 287.45,421.413 291.929,421.538 291.929,426.202 C 291.929,429.312 289.036,431.24 286.393,431.926 C 290.125,432.299 292.924,434.102 292.924,437.958 C 292.923,442.125 289.005,445.422 282.599,445.422"
     style="fill:#00aeef" /><path
     transform="translate(235.56141,-71.280318)"
     clip-path="url(#SVGID_677_)"
     d="M 19.741,489.332 C 18.909,489.332 18.737,489.477 18.467,489.778 C 18.361,489.771 18.25,489.769 18.134,489.769 C 17.494,489.769 16.672,489.863 15.971,490.332 C 15.294,490.779 14.972,491.57 15.333,492.149 C 15.333,492.149 15.575,491.794 16.371,491.794 C 16.483,491.794 16.607,491.806 16.739,491.817 C 17.839,491.947 18.653,492.526 18.554,494.055 C 18.466,495.583 17.893,497.287 15.549,497.307 C 15.549,497.307 15.247,497.307 14.925,497.277 C 13.834,497.158 13.491,496.473 13.491,496.473 C 13.491,496.473 14.434,496.217 14.442,495.02 C 14.434,494.206 13.725,493.461 12.702,493.16 C 12.367,493.062 11.999,493.014 11.616,493.014 C 10.41,493.014 9.056,493.519 8.143,494.711 C 6.073,497.444 5.905,501.428 6.41,505.133 C 6.918,508.846 9.273,512.285 9.342,512.379 C 9.392,512.445 9.437,512.481 9.488,512.481 C 9.514,512.481 9.541,512.469 9.569,512.446 C 10.586,511.459 11.556,510.11 11.971,509.208 C 12.415,509.562 12.183,510.315 11.939,511.119 C 11.707,511.941 11.143,513.032 10.939,513.384 C 10.742,513.728 10.478,514.128 10.833,514.337 C 10.869,514.359 10.915,514.371 10.97,514.371 C 11.426,514.371 12.499,513.576 13.696,511.98 C 15.036,510.184 15.716,508.59 15.716,508.59 C 15.814,508.612 15.978,508.778 15.951,509.23 C 15.933,509.689 15.461,511.397 14.542,512.987 C 13.613,514.576 12.755,515.57 12.582,515.796 C 12.475,515.927 12.566,516.009 12.635,516.062 C 12.703,516.108 14.346,517.642 16.733,518.938 C 19.561,520.445 20.815,520.716 20.815,520.716 C 20.815,520.716 22.066,520.452 24.894,518.946 C 27.28,517.648 28.93,516.107 28.991,516.055 C 29.06,516.008 29.148,515.934 29.044,515.79 C 28.881,515.574 28.02,514.575 27.093,512.986 C 26.177,511.407 25.687,509.688 25.68,509.235 C 25.661,508.778 25.815,508.627 25.909,508.589 C 25.909,508.589 26.596,510.193 27.936,511.979 C 29.139,513.577 30.202,514.37 30.66,514.37 C 30.718,514.37 30.764,514.358 30.802,514.336 C 31.146,514.127 30.89,513.721 30.688,513.381 C 30.5,513.031 29.928,511.947 29.685,511.118 C 29.452,510.305 29.21,509.553 29.662,509.207 C 30.078,510.109 31.041,511.465 32.061,512.438 C 32.088,512.466 32.119,512.48 32.149,512.48 C 32.194,512.48 32.242,512.445 32.284,512.384 C 32.359,512.284 34.718,508.851 35.222,505.132 C 35.728,501.419 35.561,497.444 33.489,494.71 C 32.582,493.515 31.218,493.007 30.004,493.007 C 29.625,493.007 29.263,493.056 28.932,493.151 C 27.901,493.461 27.195,494.213 27.201,495.019 C 27.201,496.216 28.149,496.472 28.149,496.472 C 28.149,496.472 27.832,497.14 26.702,497.276 C 26.491,497.302 26.286,497.314 26.09,497.314 C 25.24,497.314 24.524,497.044 23.864,496.112 C 23.224,495.215 23.245,493.368 23.208,492.752 C 23.179,492.127 23.045,490.725 22.388,490.153 C 21.733,489.566 20.935,489.369 19.94,489.33 C 19.867,489.332 19.802,489.332 19.741,489.332"
     id="path4050"
     style="fill:#00afe9" /></g>














</svg>