<svg xmlns="http://www.w3.org/2000/svg" viewBox="0 0 208 60">
  <defs>
    <linearGradient id="a" x1="22" x2=".02" y1="11.01" y2="11.01" gradientTransform="scale(1.52685 .65494)" gradientUnits="userSpaceOnUse">
      <stop offset="0%" stop-color="#37BDA6"/>
      <stop offset="100%" stop-color="#8AD3B8"/>
    </linearGradient>
    <linearGradient id="b" x1="31.13" x2=".03" y1="20.73" y2="20.73" gradientTransform="scale(1.0793 .92653)" gradientUnits="userSpaceOnUse">
      <stop offset="50%" stop-color="#4BB6AD"/>
      <stop offset="100%" stop-color="#78BBC1"/>
    </linearGradient>
    <linearGradient id="c" x1="22.03" x2="44.02" y1="14.66" y2="14.66" gradientTransform="scale(.76317 1.31032)" gradientUnits="userSpaceOnUse">
      <stop offset="0%" stop-color="#4379A7"/>
      <stop offset="100%" stop-color="#7CC9B8"/>
    </linearGradient>
  </defs>
  <g fill="none">
    <path fill="#13a049" d="M29.46 25.77l14.7-8.4V.6l-14.7 8.37" opacity=".5"/>
    <path fill="#a2cc39" d="M14.79.6v16.8l14.67 8.39V8.99" opacity=".5"/>
    <path fill="url(#a)" d="M33.6 4.8L25.2 0l-8.4 4.8L8.43 0 .02 4.8l16.8 9.6" opacity=".9" transform="translate(.06 .6) scale(1.7486)"/>
    <path fill="url(#b)" d="M16.8 33.62l8.4-4.8v-9.6l8.4-4.8V4.8l-16.8 9.6L.04 4.8v9.6l8.4 4.8v9.62" transform="translate(.06 .6) scale(1.7486)"/>
    <path fill="url(#c)" d="M33.6 4.8l-16.8 9.6v19.22l8.4-4.8v-9.6l8.4-4.8" transform="translate(.06 .6) scale(1.7486)"/>
    <path fill="#231f20" d="M29.46 59.38l14.7-8.4-14.7-8.4" opacity=".05"/>
    <path fill="#231f20" d="M29.46 42.6L14.79 51l14.67 8.4" opacity=".1"/>
    <path fill="#231f20" d="M.1 25.79l14.69 8.4 14.67-8.4-14.67-8.4m14.67 8.4l14.7 8.4 14.66-8.4-14.66-8.4" opacity=".05"/>
  </g>
  <path fill="#5d6579" fill-rule="evenodd" d="M100.64 24.87v13.67c.13 1.26 1.24 2 3.32 2.25l-.16 2.45c-2.63 0-4.55-.68-5.77-2.04a24.09 24.09 0 0 1-9.6 2.08c-2.28 0-4-.65-5.2-1.96-1.2-1.3-1.8-3.2-1.8-5.62 0-2.43.6-4.23 1.82-5.4 1.2-1.18 3.1-1.9 5.7-2.18l8.67-.86v-2.4c0-1.9-.42-3.28-1.25-4.1a4.52 4.52 0 0 0-3.35-1.26c-2.17 0-5 .2-8.47.6l-1.58.16-.15-2.45c3.74-.7 7-1.06 9.82-1.06 2.8 0 4.84.67 6.1 2 1.26 1.32 1.9 3.36 1.9 6.12zM84.6 35.53c0 3.44 1.42 5.16 4.24 5.16 1.22 0 2.57-.15 4.03-.44a24.5 24.5 0 0 0 3.47-.9l1.28-.45v-9.25l-8.32.87c-1.67.14-2.87.6-3.6 1.43-.73.82-1.1 2-1.1 3.57zm23.94 18.73v-37h3v1.94a15.76 15.76 0 0 1 8.4-2.46c2.95 0 5.14 1.04 6.6 3.12 1.43 2.07 2.16 5.45 2.16 10.13 0 4.66-.85 8.05-2.56 10.14-1.7 2.1-4.52 3.14-8.47 3.14-2.1 0-4.15-.22-6.12-.66v11.63h-3zM119.3 19.5c-1.12 0-2.32.2-3.62.56-1.3.37-2.3.77-3 1.17l-1.13.57v18.16c2.3.4 4.32.62 6.02.62 2.93 0 5-.83 6.18-2.48 1.2-1.65 1.78-4.37 1.78-8.17s-.52-6.48-1.55-8.06a5.22 5.22 0 0 0-4.67-2.37zm15.93 23.27V17.26h3v25.52zm0-31.9V7.06h3v3.82zm28.22 14v13.66c.14 1.26 1.24 2 3.32 2.25l-.16 2.45c-2.6 0-4.53-.68-5.75-2.04a24.09 24.09 0 0 1-9.6 2.08c-2.28 0-4-.65-5.2-1.96-1.2-1.3-1.8-3.2-1.8-5.62 0-2.43.62-4.23 1.82-5.4 1.2-1.18 3.1-1.9 5.7-2.18l8.67-.86v-2.4c0-1.9-.42-3.28-1.25-4.1a4.53 4.53 0 0 0-3.35-1.26c-2.18 0-5 .2-8.48.6l-1.58.16-.16-2.45c3.74-.7 7.02-1.06 9.82-1.06 2.8 0 4.84.67 6.1 2 1.26 1.32 1.9 3.36 1.9 6.12zm-16.02 10.65c0 3.44 1.4 5.16 4.23 5.16 1.23 0 2.57-.15 4.03-.44 1.46-.3 2.6-.58 3.46-.9l1.28-.45v-9.25l-8.32.87c-1.67.14-2.87.6-3.6 1.43-.73.82-1.1 2-1.1 3.57zm23.93 7.25V17.26h3v3.68c1.27-.9 2.8-1.74 4.63-2.55a21.8 21.8 0 0 1 5.02-1.64v3.06c-1.47.3-3 .78-4.6 1.4-1.6.64-2.84 1.2-3.72 1.67l-1.33.76v19.14zm14.85-25.52h3.12l6.8 22.87h1.83l6.84-22.87h3.1l-11.02 37h-3.07l3.43-11.48h-3.52l-7.5-25.52z"/>
</svg>
