<svg xmlns="http://www.w3.org/2000/svg" viewBox="0 0 500 200">
  <g fill-rule="evenodd">
    <path fill="#003893" d="M176.79 129.45c0-4.15.4-8.29 1.67-12.04h-33.6l44.79-46.05V48.58h-78.78v23.23h41.87l-43.55 45.2v23.64h69.28c-1.26-3.31-1.67-7.06-1.67-11.19zM303.7 46.09c-12.85 0-23.23 7.06-27.37 15.34h-.43V48.58h-29.44v52.68a40.61 40.61 0 0 1 10.79 27.78c0 4.16-.41 8.29-1.66 11.61h21.15V90.87c0-10.79 5.8-19.9 16.57-19.9 10.8 0 13.7 9.1 13.7 19.5v50.17h30.28v-56.8c0-18.68-8.72-37.77-33.6-37.77zm-236 24.9c5.81 0 12.44 2.89 15.76 7.46l17.83-20.33c-7.47-7.47-21.15-12.44-34.42-12.44-28.63 0-51.44 19.08-51.44 48.94 0 30.7 22.82 48.94 51.85 48.94 13.27 0 26.54-4.14 34-11.61L84.3 111.64c-3.75 4.14-10.4 6.66-16.61 6.66-13.27 0-21.57-10.8-21.57-23.67C46.13 81.77 54.85 71 67.7 71zm301.96 69.68h-15.35v-92.1h30.27v92.1h-14.94zm81.7-22.42c-13.68 0-21.98-10.77-21.98-23.63s8.69-23.64 21.57-23.64c5.8 0 12.85 2.9 16.16 7.47l17.43-20.33c-7.47-7.47-21.15-12.44-34.01-12.44-29.03 0-51.84 19.08-51.84 48.94 0 30.7 22.82 49.36 51.84 49.36 13.27 0 26.55-4.56 34-12.03l-17-20.31c-3.73 4.14-10.36 6.66-16.16 6.66z"/>
    <path fill="#ce1126" d="M217.44 154.33c-13.69 0-25.71-10.78-25.71-24.88a25.84 25.84 0 0 1 25.71-25.72c13.27 0 24.89 11.2 24.89 25.3 0 14.12-11.62 25.3-24.89 25.3z"/>
  </g>
</svg>
