<svg xmlns="http://www.w3.org/2000/svg" viewBox="0 0 432 158.7">
    <path fill="#6e8f82" d="M147.3 5.2C144 1.9 139.5 0 134.8 0s-9.1 1.8-12.5 5.2L95.5 31.8c-3.3 3.3-5.2 7.8-5.2 12.5s1.8 9.2 5.2 12.5c3.3 3.3 7.8 5.2 12.5 5.2s9.2-1.8 12.5-5.2l26.7-26.7c6.9-6.8 6.9-18 .1-24.9z" />
    <path fill="#6390c6" d="M147.2 122.3l-26.7-26.7c-3.3-3.3-7.8-5.2-12.5-5.2s-9.2 1.8-12.5 5.2c-3.3 3.3-5.2 7.8-5.2 12.5s1.8 9.2 5.2 12.5l26.7 26.7c3.3 3.3 7.8 5.2 12.5 5.2s9.2-1.8 12.5-5.2c6.9-6.9 6.9-18.1 0-25z" />
    <path fill="#e77c22" d="M93.8 76.2c0-4.8-1.8-9.2-5.2-12.5L30.1 5.2C26.8 1.8 22.4 0 17.6 0 12.9 0 8.5 1.8 5.2 5.2c-6.9 6.9-6.9 18.1 0 25l46 46.1-46 46.1a17.68 17.68 0 0 0 12.5 30.2c4.7 0 9.2-1.8 12.5-5.2l58.5-58.5c3.2-3.5 5.1-7.9 5.1-12.7 0 .1 0 0 0 0z" />
    <path fill="#466ea5" d="M421.3 51.5a5.67 5.67 0 0 1 3-3c.7-.3 1.4-.4 2.2-.4a5.38 5.38 0 0 1 4 1.6 5.38 5.38 0 0 1 1.6 4 5.38 5.38 0 0 1-1.6 4 5.38 5.38 0 0 1-4 1.6 5.38 5.38 0 0 1-4-1.6 5.38 5.38 0 0 1-1.6-4c-.1-.8.1-1.5.4-2.2zm.9 4.1c.2.6.6 1.1 1 1.5.4.4.9.8 1.5 1 .6.2 1.2.4 1.8.4.6 0 1.2-.1 1.8-.4.6-.2 1-.6 1.4-1 .4-.4.7-.9 1-1.5.2-.6.3-1.2.3-1.9s-.1-1.3-.3-1.9c-.2-.6-.6-1.1-1-1.5-.4-.4-.9-.8-1.4-1-.6-.2-1.2-.4-1.8-.4-.7 0-1.3.1-1.8.4-.6.2-1 .6-1.5 1-.4.4-.7.9-1 1.5-.2.6-.3 1.2-.3 1.9-.1.6.1 1.3.3 1.9zm4.6-5.2c.8 0 1.3.2 1.7.5.4.3.6.8.6 1.4 0 .6-.2 1-.5 1.3-.3.3-.7.4-1.2.5l1.9 2.9h-1.1l-1.8-2.8h-1.1V57h-1v-6.5h2.5zm-.5 2.9h.6c.2 0 .4-.1.5-.1.2-.1.3-.2.4-.3.1-.1.1-.3.1-.6 0-.2 0-.4-.1-.5l-.3-.3c-.1-.1-.3-.1-.5-.1h-1.8v2.1h1.1zm-27.9 38.8c.6.9 1.3 1.7 2.3 2.3.9.6 2 1 3.2 1.2 1.2.2 2.4.4 3.7.4 1 0 2-.1 3.1-.2s2-.4 2.9-.8c.9-.4 1.6-1 2.2-1.7.6-.8.9-1.7.9-2.9 0-1.6-.6-2.8-1.8-3.6-1.2-.8-2.7-1.5-4.5-2-1.8-.5-3.8-1-5.9-1.4-2.1-.4-4.1-1-5.9-1.7-1.8-.8-3.3-1.8-4.5-3.2-1.2-1.4-1.8-3.3-1.8-5.7 0-1.9.4-3.5 1.3-4.9.8-1.4 1.9-2.5 3.3-3.3 1.3-.8 2.8-1.5 4.5-1.9 1.7-.4 3.3-.6 5-.6 2.1 0 4.1.2 5.9.5 1.8.4 3.4 1 4.8 1.9 1.4.9 2.5 2.1 3.3 3.6.8 1.5 1.3 3.4 1.5 5.7h-6.2c-.1-1.2-.4-2.2-.9-3-.5-.8-1.2-1.4-2-1.9s-1.7-.8-2.7-1.1c-1-.2-2-.3-3-.3-.9 0-1.9.1-2.8.2-.9.1-1.8.4-2.6.8s-1.4.8-1.9 1.5c-.5.6-.7 1.4-.7 2.4 0 1.1.4 2 1.1 2.7.8.7 1.7 1.3 2.9 1.7 1.2.5 2.5.8 3.9 1.2 1.5.3 2.9.6 4.4 1 1.6.3 3.1.8 4.5 1.2 1.5.5 2.8 1.1 3.9 1.9 1.1.8 2.1 1.8 2.8 3 .7 1.2 1.1 2.7 1.1 4.5 0 2.3-.5 4.2-1.4 5.7-.9 1.5-2.2 2.7-3.7 3.6-1.5.9-3.3 1.6-5.2 1.9-1.9.4-3.8.5-5.7.5-2.1 0-4.1-.2-6-.7-1.9-.5-3.6-1.2-5-2.1-1.5-1-2.6-2.3-3.5-3.9-.9-1.6-1.4-3.6-1.5-5.9h6.2a4 4 0 0 0 .5 3.4zm-19.6-36v-7.6h6.2v7.6zm6.2 6.7v37.6h-6.2V62.8zm-25.2 0v7.9h.1c1.5-3.1 3.3-5.3 5.5-6.8s5-2.1 8.3-2v6.6c-2.5 0-4.6.3-6.3 1-1.7.7-3.2 1.7-4.2 3-1.1 1.3-1.8 2.9-2.3 4.8-.5 1.9-.7 4-.7 6.4v16.7H354V62.8zm-17.3 35.3c-2.8 2.1-6.4 3.2-10.6 3.2-3 0-5.6-.5-7.8-1.5s-4.1-2.3-5.6-4.1c-1.5-1.7-2.6-3.8-3.4-6.3-.8-2.4-1.2-5.1-1.3-7.9 0-2.9.4-5.5 1.3-7.9a17.64 17.64 0 0 1 9.3-10.3c2.2-1 4.5-1.5 7.1-1.5 3.3 0 6.1.7 8.3 2.1 2.2 1.4 4 3.1 5.3 5.3 1.3 2.1 2.3 4.5 2.8 7s.7 4.9.6 7.2h-28.2c0 1.7.1 3.2.6 4.7.4 1.5 1.1 2.8 2.1 3.9s2.2 2.1 3.7 2.7c1.5.7 3.3 1 5.3 1 2.6 0 4.8-.6 6.4-1.8 1.7-1.2 2.8-3.1 3.3-5.5h6.1c-.7 4.3-2.5 7.5-5.3 9.7zM341 73.9c-.6-1.3-1.3-2.4-2.3-3.4-1-1-2.1-1.7-3.3-2.3a10 10 0 0 0-4.3-.8c-1.6 0-3 .3-4.3.8-1.3.6-2.4 1.3-3.3 2.3-.9 1-1.7 2.1-2.2 3.4-.5 1.3-.8 2.7-.9 4.1H342c-.1-1.4-.4-2.8-1-4.1zm-60.7-11.1v5.1h.1c1-2.1 2.6-3.6 4.8-4.5 2.2-.9 4.6-1.4 7.2-1.4 2.9 0 5.4.5 7.6 1.6 2.2 1.1 4 2.5 5.4 4.3 1.4 1.8 2.5 3.9 3.2 6.3a26.84 26.84 0 0 1 0 15.2c-.7 2.4-1.8 4.5-3.2 6.2a14.1 14.1 0 0 1-5.4 4.2 17.94 17.94 0 0 1-10.6 1.2c-1.1-.2-2.3-.5-3.4-.9a11.37 11.37 0 0 1-5.7-4.6h-.1v19.4H274v-52h6.3zm22.3 13.4c-.5-1.7-1.2-3.2-2.1-4.5-.9-1.3-2.2-2.4-3.6-3.1-1.5-.8-3.2-1.2-5.2-1.2-2.1 0-3.9.4-5.3 1.2-1.5.8-2.6 1.9-3.6 3.2-.9 1.3-1.6 2.9-2 4.5-.4 1.7-.6 3.4-.6 5.2 0 1.8.2 3.6.7 5.4.4 1.7 1.1 3.2 2.1 4.5.9 1.3 2.2 2.4 3.7 3.2 1.5.8 3.3 1.2 5.5 1.2 2.1 0 3.9-.4 5.4-1.2 1.4-.8 2.6-1.9 3.5-3.3.9-1.4 1.5-2.9 1.9-4.7.4-1.7.6-3.5.6-5.4-.3-1.6-.6-3.3-1-5zm-67.5-13.4h7.9l9 13.2 9.4-13.2h7.4l-13 17.3 14.6 20.3h-7.9L252 84.9l-10.5 15.6H234l14.1-19.8zm-5-14.3v5.8h-29v16.5h27v5.8h-27v18h29.2v5.8h-36.1v-52h35.9zm181.8 87.6v2.2h.1c.4-.9 1.1-1.6 2.1-2 .9-.4 2-.6 3.1-.6a6.71 6.71 0 0 1 5.6 2.6c.6.8 1.1 1.7 1.4 2.7a11.42 11.42 0 0 1 0 6.6c-.3 1-.8 1.9-1.4 2.7-.6.8-1.4 1.4-2.3 1.8-.9.4-2 .7-3.3.7-.4 0-.8 0-1.3-.1s-1-.2-1.5-.4-.9-.4-1.4-.8c-.5-.4-.8-.7-1.1-1.2h-.1v8.4h-2.7v-22.5h2.8zm9.7 5.8c-.2-.7-.5-1.4-.9-1.9-.4-.6-.9-1-1.6-1.4-.6-.3-1.4-.5-2.3-.5-.9 0-1.7.2-2.3.5-.6.4-1.1.8-1.5 1.4-.4.6-.7 1.2-.9 2a8.92 8.92 0 0 0 0 4.5c.2.7.5 1.4.9 2 .4.6.9 1 1.6 1.4a5.68 5.68 0 0 0 4.7 0c.6-.4 1.1-.8 1.5-1.4.4-.6.7-1.3.8-2a9.08 9.08 0 0 0 0-4.6zm-18.5 10.5v-2.6h-.1c-.6 1-1.3 1.8-2.2 2.2-.9.4-1.9.7-3.1.7-1.1 0-2-.1-2.7-.4-.7-.3-1.3-.7-1.7-1.2-.4-.5-.8-1.2-.9-1.9-.2-.7-.3-1.5-.3-2.4v-10.7h2.7v11c0 1 .3 1.8.9 2.4.6.6 1.4.9 2.4.9a4.64 4.64 0 0 0 3.6-1.5c.4-.5.7-1 .9-1.6.2-.6.3-1.3.3-2v-9.2h2.7v16.3h-2.5zM374 140.9a7.2 7.2 0 0 1 4-4.5c1-.4 2.1-.7 3.4-.7 1.3 0 2.4.2 3.4.7a7.2 7.2 0 0 1 4 4.5 11.42 11.42 0 0 1 0 6.7 7.2 7.2 0 0 1-4 4.5c-1 .4-2.1.6-3.4.6-1.3 0-2.4-.2-3.4-.6a7.2 7.2 0 0 1-4-4.5 11.42 11.42 0 0 1 0-6.7zm2.8 6c.3.8.6 1.4 1.1 1.9a4.48 4.48 0 0 0 3.6 1.6 4.48 4.48 0 0 0 3.6-1.6c.4-.5.8-1.2 1.1-1.9.3-.8.4-1.6.4-2.6s-.1-1.9-.4-2.6c-.3-.8-.6-1.4-1.1-1.9a4.48 4.48 0 0 0-3.6-1.6 4.48 4.48 0 0 0-3.6 1.6c-.4.5-.8 1.2-1.1 1.9-.3.8-.4 1.6-.4 2.6s.1 1.9.4 2.6zm-9.7-10.8v3.4h.1c.7-1.3 1.5-2.3 2.4-2.9.9-.6 2.1-.9 3.6-.9v2.8c-1.1 0-2 .1-2.7.4a4 4 0 0 0-1.8 1.3c-.4.6-.8 1.3-1 2.1-.2.8-.3 1.7-.3 2.8v7.3h-2.7v-16.3h2.4zM355 152.2a10.87 10.87 0 0 1-8.4-.1c-1.3-.6-2.5-1.5-3.4-2.5a11.75 11.75 0 0 1-2.8-7.9c0-1.6.2-3.2.7-4.7.5-1.5 1.1-2.8 2-3.9.9-1.1 2-2 3.3-2.7 1.3-.7 2.9-1 4.7-1 1.2 0 2.4.1 3.5.4 1.1.3 2.1.7 2.9 1.3.9.6 1.6 1.4 2.1 2.3.6.9 1 2.1 1.2 3.4h-3c-.1-.9-.4-1.6-.8-2.2-.4-.6-.9-1.1-1.5-1.5-.6-.4-1.3-.7-2-.9a8.75 8.75 0 0 0-5.9.5c-1 .5-1.8 1.3-2.4 2.2-.6.9-1.1 1.9-1.4 3.1a13.42 13.42 0 0 0 .1 6.9 8.03 8.03 0 0 0 3.9 4.9c.9.5 2.1.7 3.3.7 1.2 0 2.2-.2 3.1-.6a6.78 6.78 0 0 0 4.1-6.8H351v-2.5h9.9v11.9H359l-.8-2.8c-.8 1.1-1.9 2-3.2 2.5zm-22.1-16.1v3.4h.1c.7-1.3 1.5-2.3 2.4-2.9.9-.6 2.1-.9 3.6-.9v2.8c-1.1 0-2 .1-2.7.4a4 4 0 0 0-1.8 1.3c-.4.6-.8 1.3-1 2.1-.2.8-.3 1.7-.3 2.8v7.3h-2.7v-16.3h2.4zm-7.9 15.3c-1.2.9-2.8 1.4-4.6 1.4-1.3 0-2.4-.2-3.4-.6-1-.4-1.8-1-2.4-1.8-.7-.8-1.1-1.7-1.5-2.7-.3-1.1-.5-2.2-.6-3.4a9.34 9.34 0 0 1 2.2-6.1c.7-.8 1.5-1.3 2.4-1.8.9-.4 2-.6 3.1-.6 1.5 0 2.7.3 3.6.9 1 .6 1.7 1.4 2.3 2.3.6.9 1 1.9 1.2 3 .2 1.1.3 2.1.3 3.1h-12.2c0 .7.1 1.4.3 2 .2.6.5 1.2.9 1.7s1 .9 1.6 1.2c.7.3 1.4.4 2.3.4 1.1 0 2.1-.3 2.8-.8.7-.5 1.2-1.3 1.4-2.4h2.7c-.4 1.9-1.1 3.3-2.4 4.2zm-.6-10.5c-.2-.6-.6-1.1-1-1.5-.4-.4-.9-.7-1.5-1-.6-.2-1.2-.4-1.8-.4-.7 0-1.3.1-1.9.4-.6.2-1 .6-1.4 1-.4.4-.7.9-.9 1.5-.2.6-.4 1.2-.4 1.8h9.4c-.1-.6-.3-1.2-.5-1.8zm-20.6 11.5l-3.3-13h-.1l-3.3 13h-2.9l-5.2-16.3h3l3.7 13.4h.1l3.3-13.4h2.9l3.4 13.4h.1l3.7-13.4h2.8l-5.2 16.3zm-31-11.5a7.2 7.2 0 0 1 4-4.5c1-.4 2.1-.7 3.4-.7 1.3 0 2.4.2 3.4.7a7.2 7.2 0 0 1 4 4.5 11.42 11.42 0 0 1 0 6.7 7.2 7.2 0 0 1-4 4.5c-1 .4-2.1.6-3.4.6-1.3 0-2.4-.2-3.4-.6a7.2 7.2 0 0 1-4-4.5 11.42 11.42 0 0 1 0-6.7zm2.7 6c.3.8.6 1.4 1.1 1.9a4.48 4.48 0 0 0 3.6 1.6 4.48 4.48 0 0 0 3.6-1.6c.4-.5.8-1.2 1.1-1.9.3-.8.4-1.6.4-2.6s-.1-1.9-.4-2.6c-.3-.8-.6-1.4-1.1-1.9a4.48 4.48 0 0 0-3.6-1.6 4.48 4.48 0 0 0-3.6 1.6c-.4.5-.8 1.2-1.1 1.9-.3.8-.4 1.6-.4 2.6s.2 1.9.4 2.6zm-18.1-10.8v2.2h.1c.4-.9 1.1-1.6 2.1-2 .9-.4 2-.6 3.1-.6a6.71 6.71 0 0 1 5.6 2.6c.6.8 1.1 1.7 1.4 2.7a11.42 11.42 0 0 1 0 6.6c-.3 1-.8 1.9-1.4 2.7-.6.8-1.4 1.4-2.3 1.8-.9.4-2 .7-3.3.7-.4 0-.8 0-1.3-.1s-1-.2-1.5-.4-.9-.4-1.4-.8c-.5-.4-.8-.7-1.1-1.2h-.1v8.4h-2.7v-22.5h2.8zm9.6 5.8c-.2-.7-.5-1.4-.9-1.9-.4-.6-.9-1-1.6-1.4-.6-.3-1.4-.5-2.3-.5-.9 0-1.7.2-2.3.5-.6.4-1.1.8-1.5 1.4-.4.6-.7 1.2-.9 2a8.92 8.92 0 0 0 0 4.5c.2.7.5 1.4.9 2 .4.6.9 1 1.6 1.4a5.68 5.68 0 0 0 4.7 0c.6-.4 1.1-.8 1.5-1.4.4-.6.7-1.3.8-2a9.08 9.08 0 0 0 0-4.6zm-26.9-5.8v2.6h.1c1.1-2 2.9-3 5.3-3 1.1 0 2 .1 2.7.4.7.3 1.3.7 1.7 1.2.4.5.8 1.2.9 1.9.2.7.3 1.5.3 2.4v10.7h-2.7v-11c0-1-.3-1.8-.9-2.4-.6-.6-1.4-.9-2.4-.9a4.64 4.64 0 0 0-3.6 1.5c-.4.5-.7 1-.9 1.6-.2.6-.3 1.3-.3 2v9.2h-2.7V136h2.5zm-4.9 16.3c-.5.3-1.1.4-1.9.4-.7 0-1.2-.2-1.7-.6-.4-.4-.6-1-.6-1.9-.7.9-1.6 1.5-2.6 1.9a8.3 8.3 0 0 1-5.3.3 4.47 4.47 0 0 1-2.9-2.2c-.3-.6-.4-1.3-.4-2.1 0-.9.2-1.7.5-2.3.3-.6.7-1.1 1.2-1.4.5-.3 1.1-.6 1.8-.8.7-.2 1.3-.3 2-.5.7-.1 1.4-.3 2.1-.3.7-.1 1.2-.2 1.8-.3.5-.1.9-.3 1.2-.6.3-.3.4-.6.4-1.2s-.1-1.1-.3-1.4c-.2-.4-.5-.6-.9-.8-.4-.2-.7-.3-1.2-.4-.4-.1-.9-.1-1.3-.1-1.1 0-2.1.2-2.8.6-.8.4-1.2 1.2-1.2 2.4h-2.7c0-1 .3-1.9.6-2.6.3-.7.9-1.3 1.5-1.7.6-.4 1.4-.7 2.2-.9.8-.2 1.7-.3 2.6-.3.7 0 1.5.1 2.2.2.7.1 1.4.3 2 .6.6.3 1.1.8 1.4 1.4.4.6.5 1.4.5 2.3v8.4c0 .6 0 1.1.1 1.4.1.3.3.4.7.4.2 0 .5 0 .8-.1v2.2zm-4.4-8.4c-.3.3-.8.4-1.3.5-.5.1-1.1.2-1.7.3l-1.8.3c-.6.1-1.2.2-1.6.5-.5.2-.9.5-1.2.9-.3.4-.5.9-.5 1.6 0 .4.1.8.3 1.1.2.3.4.5.7.7.3.2.6.3 1 .4.4.1.8.1 1.2.1.9 0 1.6-.1 2.3-.4.6-.2 1.1-.5 1.5-.9.4-.4.7-.8.9-1.2.2-.4.3-.8.3-1.2V144zm-32.5-14.1l7.1 18.9 7.1-18.9h4.1v22.5h-2.8v-18.8h-.1l-7 18.8h-2.6l-7-18.8h-.1v18.8h-2.8v-22.5z" />
</svg>
