<?xml version="1.0" encoding="UTF-8" standalone="no"?>
<svg
   xmlns:dc="http://purl.org/dc/elements/1.1/"
   xmlns:cc="http://creativecommons.org/ns#"
   xmlns:rdf="http://www.w3.org/1999/02/22-rdf-syntax-ns#"
   xmlns:svg="http://www.w3.org/2000/svg"
   xmlns="http://www.w3.org/2000/svg"
   xmlns:sodipodi="http://sodipodi.sourceforge.net/DTD/sodipodi-0.dtd"
   xmlns:inkscape="http://www.inkscape.org/namespaces/inkscape"
   viewBox="0 0 80.260887 68.370384"
   height="68.370384"
   width="80.260887"
   xml:space="preserve"
   id="svg2"
   version="1.1"
   sodipodi:docname="fimuni.svg"
   inkscape:version="0.92.3 (2405546, 2018-03-11)"><sodipodi:namedview
     pagecolor="#ffffff"
     bordercolor="#666666"
     borderopacity="1"
     objecttolerance="10"
     gridtolerance="10"
     guidetolerance="10"
     inkscape:pageopacity="0"
     inkscape:pageshadow="2"
     inkscape:window-width="1920"
     inkscape:window-height="1016"
     id="namedview14"
     showgrid="false"
     inkscape:zoom="7.0644624"
     inkscape:cx="44.195073"
     inkscape:cy="22.359033"
     inkscape:window-x="0"
     inkscape:window-y="27"
     inkscape:window-maximized="1"
     inkscape:current-layer="g10" /><metadata
     id="metadata8"><rdf:RDF><cc:Work
         rdf:about=""><dc:format>image/svg+xml</dc:format><dc:type
           rdf:resource="http://purl.org/dc/dcmitype/StillImage" /></cc:Work></rdf:RDF></metadata><defs
     id="defs6"><clipPath
       id="clipPath18"
       clipPathUnits="userSpaceOnUse"><path
         id="path16"
         d="M 0,70.866 H 70.866 V 0 H 0 Z"
         inkscape:connector-curvature="0" /></clipPath></defs><g
     transform="matrix(1.3333333,0,0,-1.3333333,-7.3607863,94.557798)"
     id="g10"><g
       id="g12"
       transform="matrix(0.71192856,0,0,0.71192856,10.891613,18.671955)"><g
         clip-path="url(#clipPath18)"
         id="g14"
         transform="matrix(0.71350288,0,0,0.71350288,9.7146338,21.100568)"><g
           transform="translate(38.2039,10.8486)"
           id="g20"><path
             id="path22"
             style="fill:#231f20;fill-opacity:1;fill-rule:nonzero;stroke:none"
             d="m 0,0 -0.173,-0.084 h -4.763 l -1.642,2.943 h 4.586 l 0.173,0.085 20.425,35.574 1.559,-3.201 z M 2.165,25.879 2.337,25.795 2.943,22.851 1.125,19.301 0.518,22.59 0.345,22.678 h -11.337 l 1.904,3.201 z M -2.599,3.811 -18.349,31.249 h 3.807 l 4.068,-7.185 -0.867,-1.474 1.907,-3.546 2.337,-0.088 6.318,-11.771 z m 8.744,27.438 1.385,2.51 0.345,-2.51 H 9.522 L -2.426,10.735 -6.839,18.956 h 7.964 l 1.991,3.895 -0.694,3.205 H -9.261 l -1.04,-1.735 -3.98,6.928 z m 5.453,3.719 -1.904,-3.462 H 8.136 l -0.522,3.462 z m -3.811,1.04 -0.518,-0.867 0.173,-1.037 -1.297,-2.425 -0.519,3.722 1.643,2.944 z m -31.245,2.598 H 7.096 L 5.454,35.574 H -25.361 Z M -7.446,3.811 h 1.129 L -6.839,3.032 -5.02,-0.257 H 0 l 20.425,35.574 c -0.26,0.602 -1.731,3.546 -1.731,3.546 H 9.434 L 7.963,36.269 7.357,38.863 H -23.63 l -2.077,-3.289 z M 0.345,22.678 0.518,22.59 2.337,25.795 2.165,25.879 Z M 0,0 -0.173,-0.084 -1.992,2.859 -1.819,2.944 Z m -35.747,21.727 c 0,-0.519 0.434,-0.952 0.952,-0.952 0.434,0 0.864,0.433 0.864,0.952 0,0.433 -0.43,0.863 -0.864,0.863 -0.518,0 -0.952,-0.43 -0.952,-0.863 m 63.618,0 c 0,-0.519 0.43,-0.952 0.952,-0.952 0.43,0 0.864,0.433 0.864,0.952 0,0.433 -0.434,0.863 -0.864,0.863 -0.522,0 -0.952,-0.43 -0.952,-0.863 m -64.485,2.337 v 0.434 c 0,0.084 0,0.257 0.261,0.257 h 3.201 c 0.261,0 0.261,-0.173 0.261,-0.257 v -0.434 h 0.172 v 1.904 h -0.172 v -0.434 c 0,-0.085 -0.088,-0.257 -0.346,-0.257 h -1.473 v 0.345 c 0,0.346 0.349,0.607 0.779,0.691 v 0.173 h -1.732 v -0.173 c 0.434,-0.084 0.695,-0.345 0.695,-0.691 v -0.345 h -1.385 c -0.261,0 -0.261,0 -0.261,0.257 v 0.606 c 0,0.261 0.088,0.519 0.261,0.779 0.172,0.088 0.518,0.262 0.952,0.346 v 0.172 l -1.386,-0.084 v -3.289 z m 0.173,5.711 c 2.253,-1.47 3.377,-2.165 3.462,-2.249 0.088,-0.089 0.176,-0.173 0.088,-0.434 h 0.172 l 0.261,1.473 -0.172,0.085 c -0.173,-0.779 -0.089,-0.951 -1.125,-0.172 l 0.257,1.558 0.779,0.172 c 0.089,0 0.346,-0.087 0.261,-0.518 l 0.173,-0.088 0.261,1.647 h -0.177 c 0,-0.261 -0.084,-0.35 -0.345,-0.434 l -3.895,-0.779 c -0.173,-0.089 -0.173,-0.173 0,-0.261 m 2.686,0.172 -0.261,-1.382 -1.731,0.953 z m -1.128,5.282 c -0.346,-0.434 -0.518,-0.607 -0.606,-0.952 -0.346,-1.04 0.348,-2.076 1.646,-2.422 1.124,-0.349 2.076,0.346 2.422,1.297 0.26,0.779 -0.173,1.47 -0.952,1.904 -0.085,0 -0.173,-0.088 -0.085,-0.173 0.691,-0.434 1.125,-0.952 0.864,-1.731 -0.085,-0.694 -0.952,-0.951 -2.076,-0.606 -1.386,0.345 -1.819,1.04 -1.559,1.642 0.088,0.261 0.261,0.522 0.519,0.695 0.261,0.085 0.694,0.173 1.128,0.173 l 0.084,0.085 -1.643,0.521 v -0.173 z m 0.349,1.297 c 0.346,0.694 0,0.867 1.731,-0.085 0.864,-0.433 1.382,-0.606 1.642,-0.606 0.434,0 1.82,0.779 1.386,2.249 -0.088,0.261 -0.346,0.522 -0.779,0.695 l -1.819,0.863 c -0.346,0.261 -0.43,0.434 -0.173,0.868 l -0.257,0.172 -0.695,-1.474 0.261,-0.172 c 0.258,0.606 0.258,0.606 0.864,0.261 2.771,-1.125 2.51,-1.559 2.165,-2.249 -0.258,-0.607 -0.434,-0.695 -0.864,-0.695 -0.173,0 -0.695,0.173 -1.558,0.606 -0.78,0.434 -1.213,0.607 -1.301,0.691 0,0.088 0.088,0.262 0.261,0.607 l -0.173,0.173 -0.867,-1.816 z m 2.161,4.502 c 0.349,0.606 0.088,0.691 1.907,-0.434 1.988,-1.124 1.643,-0.952 1.298,-1.558 l 0.084,-0.084 1.819,2.855 -1.297,0.952 -0.088,-0.173 c 0.778,-0.691 0.951,-1.125 0.606,-1.731 -0.606,-0.952 -0.173,-0.952 -2.164,0.173 -1.816,1.124 -1.559,0.951 -1.125,1.646 l -0.173,0.085 -1.04,-1.643 z m 3.116,2.422 0.089,0.176 c -0.953,1.731 -0.173,1.903 0,1.731 1.642,-1.386 2.509,-2.165 2.509,-2.253 0.085,-0.084 0,-0.172 -0.26,-0.43 l 0.172,-0.176 1.125,1.385 -0.173,0.173 c -0.173,-0.257 -0.345,-0.43 -0.43,-0.43 -0.088,0.084 -0.867,0.779 -2.51,2.161 -0.349,0.349 0,1.213 1.643,0.172 l 0.088,0.261 -1.213,0.952 -2.076,-2.594 z m 2.598,5.453 c 1.125,-2.422 1.643,-3.719 1.559,-3.895 0,-0.085 -0.088,-0.258 -0.173,-0.346 l 0.173,-0.084 1.036,1.036 -0.084,0.173 c -0.607,-0.779 -0.78,-0.173 -0.868,0.088 l -0.172,0.434 1.124,1.124 c 1.385,-0.694 1.04,-0.518 0.606,-0.952 l 0.173,-0.088 1.213,1.125 -0.173,0.088 c -0.172,-0.173 -0.345,-0.261 -0.518,-0.173 l -3.638,1.643 c -0.173,0.088 -0.346,0.088 -0.258,-0.173 m 2.338,-1.385 -1.04,-1.037 -0.779,1.816 z m 2.076,4.59 c -0.434,0 -2.425,-0.434 -1.297,-2.08 0.345,-0.43 0.863,-0.43 1.643,-0.173 1.212,0.434 1.212,0.434 1.558,0.088 0.345,-0.345 0.173,-0.867 -0.261,-1.213 -0.603,-0.345 -1.297,-0.345 -1.988,0.346 l -0.173,-0.173 0.864,-1.297 0.26,0.173 0.085,0.518 c 1.301,-0.43 1.908,1.386 1.473,1.992 -0.521,0.694 -0.867,0.606 -1.991,0.172 -0.607,-0.172 -1.731,-0.345 -1.47,0.607 0.172,0.779 1.125,1.04 2.161,0.261 l 0.176,0.084 -0.955,1.125 -0.085,-0.085 z m 4.932,-0.522 c 0,-0.43 -0.084,-0.691 -0.346,-0.779 v -0.173 l 1.298,0.607 -0.085,0.172 c -0.345,-0.257 -0.606,-0.518 -0.606,0.868 l 1.385,0.69 c 1.041,-0.779 1.041,-0.779 0.434,-1.036 v -0.176 l 1.47,0.694 -0.088,0.085 c -0.257,-0.085 -0.43,-0.085 -0.603,0.088 l -2.859,2.683 c -0.173,0.172 -0.257,0.172 -0.257,-0.085 z m 1.474,1.558 -1.298,-0.606 -0.176,1.992 z m 0.951,3.032 c 0.607,0.258 0.607,0.518 1.298,-1.474 0.694,-1.988 0.606,-1.731 0,-1.988 v -0.176 l 1.819,0.606 -0.088,0.173 c -0.607,-0.085 -0.518,-0.518 -1.213,1.558 0.867,0.261 1.213,0.173 1.473,-0.691 0.258,-0.779 1.559,-1.297 1.386,0.434 0,0.084 -0.173,0.257 -0.173,0 0.173,-0.607 -0.176,-0.868 -0.694,-0.173 -0.346,0.779 -0.434,0.603 -1.213,0.779 0.867,0.43 1.128,0.864 0.952,1.297 -0.258,0.691 -0.864,0.864 -1.643,0.519 l -1.992,-0.691 z m 1.816,-1.128 c -0.779,1.819 -0.779,1.558 0.176,1.819 0.43,0.088 0.779,0 0.952,-0.346 0.345,-0.694 -0.088,-1.124 -0.779,-1.385 z m 2.859,1.128 0.173,0.084 c 0.172,1.386 0.779,1.732 1.036,1.474 0.088,0 0.176,-0.522 0.349,-1.646 0.258,-1.125 0.345,-1.731 0.258,-1.819 0,-0.085 -0.173,-0.085 -0.519,-0.173 v -0.173 l 1.819,0.261 v 0.173 c -0.695,-0.088 -0.606,-0.346 -1.04,1.819 -0.173,1.125 -0.26,1.643 -0.26,1.731 0.087,0.085 0.867,0.606 1.473,-1.128 h 0.257 l -0.345,1.558 -3.289,-0.603 z m 4.241,2.076 c 0.691,0.085 0.691,0.085 0.691,-0.26 0.173,-2.077 0.173,-3.201 0.088,-3.29 -0.088,-0.084 -0.261,-0.084 -0.606,-0.172 v -0.173 l 1.903,0.173 v 0.172 c -0.345,0 -0.606,0 -0.691,0.089 -0.088,0.084 -0.088,1.124 -0.176,3.201 0,0.345 0,0.345 0.695,0.433 v 0.173 l -1.904,-0.173 z m 4.675,0 c -0.434,0.261 -0.695,0.434 -1.04,0.434 -0.695,0 -1.213,-0.522 -1.213,-1.301 0,-0.257 0.088,-0.518 0.345,-0.779 0.173,-0.085 0.434,-0.257 0.868,-0.346 1.124,-0.257 1.297,-0.345 1.297,-0.863 0,-0.434 -0.346,-0.779 -0.952,-0.779 -0.691,0 -1.297,0.43 -1.385,1.385 h -0.258 v -1.558 h 0.258 l 0.345,0.346 c 0.261,-0.261 0.606,-0.434 1.04,-0.434 0.779,0 1.386,0.606 1.386,1.297 0,0.695 -0.346,0.952 -1.559,1.213 -0.952,0.345 -1.04,0.345 -1.04,0.867 0,0.346 0.434,0.691 0.868,0.691 0.606,0 0.951,-0.345 1.297,-1.297 h 0.172 l -0.084,1.47 H -1.125 Z M 2.249,58.08 C 3.028,57.819 2.943,58.164 2.594,56.003 2.337,53.923 2.249,54.269 1.558,54.357 v -0.173 l 1.904,-0.345 v 0.172 c -0.695,0.085 -0.779,-0.172 -0.434,1.904 0.346,2.165 0.173,2.077 1.124,1.819 v 0.173 L 2.249,58.252 Z M 4.674,57.558 C 4.932,57.474 5.104,57.474 5.192,57.385 5.277,57.301 5.02,56.349 4.414,54.445 4.325,54.096 3.98,53.923 3.634,54.011 L 3.546,53.839 5.192,53.405 v 0.088 C 4.759,53.75 4.674,54.011 4.759,54.357 l 0.695,2.337 1.469,-3.807 0.262,-0.088 c 0.602,2.337 0.951,3.461 1.124,3.55 0.173,0.085 0.345,0.085 0.518,0 l 0.089,0.172 -1.474,0.434 V 56.779 C 7.614,56.694 7.703,56.606 7.787,56.434 7.875,56.349 7.703,55.397 7.185,53.666 l -1.559,3.808 -0.952,0.26 z m 4.414,-1.382 c 0.691,-0.261 0.952,0 0,-2.08 C 8.309,52.108 8.394,52.453 7.787,52.714 L 7.703,52.538 9.434,51.847 9.522,52.02 c -0.695,0.261 -0.956,-0.085 0,1.903 0.775,-0.345 0.775,-0.606 0.69,-1.209 h 0.085 l 0.695,1.643 -0.173,0.088 C 10.558,54.011 10.297,53.75 9.606,54.096 l 0.519,1.385 c 0.521,0.261 1.991,-0.345 1.558,-1.642 l 0.088,-0.089 0.434,1.298 -3.032,1.301 z m 5.799,-2.51 c -0.694,0.518 -2.076,0 -2.598,-0.867 -0.606,-1.213 -0.257,-2.338 0.607,-2.856 0.867,-0.518 2.076,-0.172 2.682,0.952 0.607,1.04 0.345,2.249 -0.691,2.771 m 0,-0.261 c 0.518,-0.345 0.78,-0.867 0.085,-2.249 -0.779,-1.301 -1.47,-1.385 -1.989,-1.04 -0.606,0.345 -0.778,1.04 -0.087,2.337 0.69,1.04 1.385,1.297 1.991,0.952 m 2.338,-1.558 c 0.345,-0.261 0.429,-0.518 0.257,-0.779 -1.209,-1.643 -1.904,-2.422 -1.988,-2.51 -0.089,0 -0.261,0.088 -0.522,0.345 l -0.085,-0.173 1.47,-1.124 0.088,0.088 c -0.433,0.43 -0.778,0.173 0.607,1.816 0.864,-0.519 0.779,-0.78 0.345,-1.386 -0.434,-0.691 -0.434,-1.124 -0.172,-1.385 0.429,-0.258 0.778,-0.085 1.209,0.348 0.088,0.085 0.172,0.346 -0.085,0.085 -0.695,-0.518 -0.867,-0.172 -0.518,0.346 0.43,0.779 0.345,0.951 -0.088,1.646 0.951,-1.04 2.944,-0.088 1.213,1.559 l -1.647,1.212 z m 0,-2.164 c 1.036,1.473 0.863,1.473 1.558,0.867 0.43,-0.261 0.518,-0.522 0.43,-0.779 -0.173,-0.607 -0.779,-1.125 -1.988,-0.088 m 3.98,-1.214 c 0.26,-0.257 0.345,-0.429 0.26,-0.518 0,-0.084 -0.778,-0.69 -2.252,-1.992 -0.346,-0.256 -0.519,-0.256 -0.864,0 l -0.173,-0.084 1.037,-1.125 0.172,0.085 c -0.257,0.349 -0.345,0.606 -0.257,0.694 0.085,0.085 0.952,0.864 2.595,2.25 l -1.989,-3.635 0.085,-0.088 3.895,1.385 c -1.73,-1.47 -2.682,-2.249 -2.855,-2.249 -0.088,0 -0.261,0.173 -0.434,0.434 l -0.172,-0.088 1.212,-1.47 0.173,0.084 c -0.433,0.607 -0.779,0.346 0.952,1.731 1.815,1.474 1.47,1.125 1.731,0.779 l 0.173,0.088 -0.78,0.953 -3.2,-1.213 1.642,3.116 -0.779,0.952 z m 5.108,-6.317 c -2.599,-0.433 -3.984,-0.606 -4.157,-0.606 -0.084,0.088 -0.26,0.173 -0.345,0.349 l -0.173,-0.088 0.779,-1.297 0.173,0.084 c -0.261,0.606 -0.606,0.695 0.779,0.867 l 0.864,-1.385 c -0.691,-1.04 -0.691,-1.04 -1.037,-0.434 l -0.173,-0.084 0.864,-1.386 0.089,0.085 c -0.089,0.261 -0.089,0.433 0,0.522 l 2.421,3.2 c 0.088,0.173 0.088,0.173 -0.084,0.173 m -1.908,-1.903 -0.775,1.297 1.904,0.349 z m 1.647,-0.779 0.088,-0.173 c 0.43,0.088 0.776,0.088 1.036,0 0.695,-0.261 0.695,-0.607 0.607,-0.691 0,-0.088 -1.04,-0.522 -3.201,-1.386 -0.088,0 -0.088,-0.088 -0.349,0.518 l -0.173,-0.088 0.694,-1.642 0.173,0.088 c -0.088,0.43 -0.606,0.518 1.47,1.297 1.04,0.434 1.559,0.607 1.647,0.519 0.084,0 0.863,-0.607 -0.779,-1.559 l 0.084,-0.173 1.474,0.607 -1.301,3.028 z m 4.329,-9.173 c 0.257,0.43 0.257,0.779 0.257,1.124 -0.173,0.952 -1.124,1.731 -2.51,1.558 -1.036,-0.172 -1.903,-1.124 -1.731,-2.08 0.088,-0.952 0.695,-1.381 1.647,-1.381 0.172,0 0.172,0.172 0,0.172 -0.779,0.085 -1.386,0.431 -1.474,1.209 -0.085,0.695 0.522,1.302 1.646,1.386 1.471,0.261 2.077,-0.257 2.165,-0.952 0,-0.257 -0.088,-0.518 -0.261,-0.779 -0.261,-0.257 -0.518,-0.433 -0.952,-0.691 v -0.088 l 1.643,0.261 -0.084,0.172 z m -1.301,5.45 c 0.088,-0.691 0.173,-0.691 -0.173,-0.779 l -3.028,-0.864 c -0.088,0 -0.172,-0.088 -0.434,0.606 h -0.172 l 0.518,-1.903 0.173,0.084 c -0.085,0.695 -0.43,0.695 1.646,1.297 2.164,0.607 1.731,0.35 1.992,-0.257 h 0.172 l -0.521,1.904 z m 1.819,-7.703 c 0,-0.779 -0.088,-0.691 -0.172,-0.691 -0.089,0 -0.607,0.257 -1.731,0.691 -2.165,0.952 -1.992,0.867 -1.992,1.213 h -0.173 l 0.085,-1.125 h 0.176 c 0,0.691 0,0.518 1.642,-0.173 v -1.128 c -1.73,-0.084 -1.558,-0.172 -1.558,0.522 h -0.172 l 0.261,-3.289 1.558,0.084 -0.089,0.173 c -1.124,0.177 -1.297,0.261 -1.469,1.213 0,0.695 -0.261,0.779 1.815,0.779 0,-0.952 -0.173,-1.036 -0.779,-1.036 v -0.089 l 1.904,0.089 v 0.084 c -0.603,0.088 -0.864,0.346 -0.952,0.952 l 1.474,0.088 c 0.084,0 0.257,0.173 0.257,-0.952 0.088,-0.521 -0.346,-0.867 -1.125,-0.951 l 0.088,-0.177 1.298,0.177 -0.173,3.546 z m -1.903,-1.213 v 1.04 l 1.815,-0.779 c 0,-0.173 -0.173,-0.173 -0.346,-0.173 z M -32.803,20.08 c 0.084,-0.779 0.345,-0.69 -1.474,-1.124 -0.864,-0.173 -1.386,-0.346 -1.558,-0.519 -0.346,-0.345 -0.43,-0.867 -0.346,-1.558 0.089,-0.434 0.346,-0.779 0.692,-1.04 0.26,-0.172 0.866,-0.084 1.819,0.173 0.951,0.261 1.558,0.349 1.646,0.261 0.085,-0.085 0.172,-0.345 0.257,-0.606 l 0.261,0.088 -0.433,1.642 -0.173,-0.084 c 0,-0.345 0,-0.522 -0.261,-0.606 -0.085,-0.088 -2.595,-0.868 -3.028,-0.607 -0.607,0.607 -0.607,1.558 -0.088,1.904 0.088,0.088 0.606,0.173 1.473,0.433 0.864,0.261 1.297,0.434 1.386,0.346 0.084,-0.085 0.172,-0.257 0.257,-0.606 h 0.261 l -0.518,1.991 z m 1.209,-4.498 c 0.088,-0.173 0.088,-0.345 0,-0.522 0,-0.084 -0.952,-0.518 -2.767,-1.124 -0.349,-0.085 -0.695,0.088 -0.78,0.434 l -0.172,-0.089 0.603,-1.554 0.176,0.084 c -0.089,0.261 -0.176,0.434 -0.089,0.519 0.089,0.172 1.041,0.606 2.771,1.212 l -2.252,-3.55 c -0.084,-0.173 0,-0.173 0.088,-0.173 2.164,0.78 3.374,1.129 3.55,1.04 0.173,-0.088 0.258,-0.172 0.345,-0.26 h 0.173 l -0.518,1.385 -0.176,-0.085 c 0.088,-0.088 0.088,-0.26 0,-0.434 -0.085,-0.172 -0.952,-0.517 -2.683,-1.124 l 2.164,3.462 -0.26,0.864 z m 1.473,-3.983 c 0.346,-0.607 0.519,-0.692 -1.212,-1.471 -1.646,-0.779 -1.731,-0.867 -2.077,-0.261 l -0.172,-0.084 0.863,-1.646 0.173,0.088 c -0.345,0.606 -0.257,0.691 1.213,1.47 1.643,0.779 1.731,0.867 2.076,0.261 l 0.173,0.084 -0.952,1.731 z m 0.953,-1.816 c 0.084,-0.173 0.172,-0.345 0.084,-0.434 0,-0.088 -0.779,-1.297 -2.337,-3.461 0,0 -0.085,-0.173 0.088,-0.089 2.598,0.607 3.98,0.868 4.068,0.78 0.173,-0.085 0.261,-0.173 0.346,-0.258 l 0.087,0.085 -0.778,1.301 -0.173,-0.088 c 0.346,-0.607 0.43,-0.692 0.173,-0.78 -0.089,-0.088 -1.125,-0.26 -2.944,-0.606 1.124,1.646 1.731,2.426 1.819,2.426 0.085,0.084 0.085,0.084 0.173,0.084 0.084,0 0.172,-0.173 0.345,-0.434 l 0.173,0.088 -0.952,1.47 z m 2.421,-3.635 c 0.346,-0.349 0.261,-0.606 -1.125,-1.731 -1.296,-1.04 -1.385,-1.128 -1.73,-0.694 l -0.173,-0.085 2.165,-2.598 1.209,0.868 -0.085,0.172 c -1.47,-1.04 -2.337,0.691 -2.337,0.691 0,0.088 0.433,0.434 1.386,1.213 0.433,-0.695 0.345,-0.952 -0.089,-1.301 l 0.089,-0.173 1.469,1.301 -0.084,0.085 c -0.434,-0.346 -0.695,-0.434 -1.301,0.172 l 1.128,0.952 c 0.603,0.088 1.815,-1.382 0.518,-2.076 l 0.085,-0.085 1.128,0.864 -2.165,2.51 z m 2.51,-2.943 C -23.542,2.51 -23.892,2.51 -25.016,1.128 -26.14,-0.172 -26.225,0 -26.659,0.434 l -0.173,-0.085 1.471,-1.301 0.088,0.088 c -0.606,0.607 -0.522,0.519 0.779,1.816 l 0.257,-0.258 c 0.345,-0.345 0.345,-0.606 0,-1.124 -0.691,-1.04 -0.518,-1.213 -0.345,-1.385 0.345,-0.346 0.779,-0.261 1.212,0.257 0.085,0.088 0.085,0.176 -0.088,0.088 -1.815,-0.952 0.779,1.298 -0.434,1.904 0.868,-0.606 1.302,-0.518 1.647,-0.173 0.434,0.433 0.346,1.04 -0.261,1.647 l -1.558,1.469 z M -24.41,1.04 c 1.298,1.47 1.04,1.47 1.647,0.868 0.779,-0.78 0.346,-1.214 -0.088,-1.474 -0.346,-0.085 -0.607,-0.173 -1.559,0.606 m 5.366,-2.076 c -0.346,0.433 -0.346,0.691 -0.691,0.952 -0.606,0.345 -1.297,0.257 -1.731,-0.346 -0.173,-0.261 -0.173,-0.606 -0.088,-0.867 0.088,-0.261 0.261,-0.518 0.522,-0.779 0.691,-0.864 0.864,-1.037 0.518,-1.47 -0.261,-0.346 -0.607,-0.434 -1.213,-0.088 -0.606,0.345 -0.779,1.124 -0.345,1.903 l -0.173,0.173 -0.867,-1.297 0.176,-0.173 0.519,0.088 c 0,-0.349 0.172,-0.694 0.606,-0.952 1.988,-0.694 2.855,1.037 1.209,2.249 -0.603,0.779 -0.691,0.864 -0.346,1.298 0.261,0.261 0.695,0.345 1.125,0.088 0.433,-0.346 0.606,-0.868 0.349,-1.819 l 0.084,-0.085 0.78,1.209 -0.173,0.088 z m 0.867,-0.434 c 0.261,-0.088 0.434,-0.261 0.434,-0.518 0,-0.173 -0.522,-1.125 -1.474,-2.771 -0.084,-0.173 -0.345,-0.173 -0.779,0.088 l -0.085,-0.176 1.732,-0.864 0.084,0.173 c -0.43,0.088 -0.606,0.261 -0.518,0.518 l 1.47,2.771 c 0.088,0.261 0.176,0.261 0.779,-0.088 l 0.088,0.176 -1.646,0.864 z m 1.47,-2.422 0.173,-0.088 c 0.779,1.297 1.558,1.04 1.558,0.691 0.088,-0.085 -0.084,-0.603 -0.518,-1.558 -0.345,-0.952 -0.607,-1.555 -0.691,-1.643 -0.088,-0.088 -0.349,0 -0.606,0.173 l -0.088,-0.173 1.646,-0.691 0.085,0.173 c -0.691,0.257 -0.607,0.257 0.088,2.076 0.434,0.952 0.606,1.386 0.691,1.47 0.261,0.088 1.124,0.173 0.694,-1.642 l 0.258,-0.088 0.433,1.473 -3.028,1.209 z m 5.627,-0.349 c -1.643,-2.076 -2.51,-3.116 -2.595,-3.201 -0.088,-0.088 -0.261,-0.088 -0.433,0 l -0.089,-0.173 1.558,-0.433 v 0.173 c -0.863,0.172 -0.691,0.345 -0.084,1.212 l 1.558,-0.518 c 0.257,-1.128 0,-1.128 -0.434,-1.04 l -0.088,-0.173 1.559,-0.433 0.088,0.172 c -0.261,0.089 -0.434,0.173 -0.434,0.434 l -0.345,3.98 c -0.089,0.173 -0.173,0.089 -0.261,0 m -0.085,-2.682 -1.385,0.433 1.124,1.558 z m 4.759,1.297 c -0.433,0.522 -1.819,1.301 -2.337,-0.519 -0.085,-0.257 0,-0.518 0.173,-0.778 0.173,-0.174 0.433,-0.346 0.867,-0.519 1.036,-0.433 1.125,-0.433 1.125,-1.04 0,-0.43 -0.434,-0.691 -1.04,-0.606 -0.692,0.088 -1.21,0.606 -1.21,1.558 h -0.26 L -9.261,-9 l 0.257,-0.088 0.349,0.349 c 0.258,-0.349 0.603,-0.522 1.037,-0.606 1.385,-0.261 1.646,1.209 1.385,1.642 -0.084,0.346 -0.434,0.522 -1.213,0.868 -0.951,0.518 -0.951,0.433 -0.951,1.036 0.087,0.349 0.522,0.607 0.951,0.522 0.607,-0.088 0.868,-0.434 1.129,-1.474 h 0.172 l 0.085,1.474 h -0.173 z m 3.029,0 c 0.694,0 0.606,0 0.606,-0.257 l 0.172,-2.856 c 0,-0.434 -0.084,-0.606 -0.518,-0.606 v -0.173 l 1.558,0.084 v 0.173 c -0.606,0 -0.778,0.261 -0.778,0.695 l -0.173,3.028 1.731,-3.807 h 0.173 l 1.04,3.98 0.257,-3.462 c 0,-0.085 -0.085,-0.261 -0.346,-0.261 H 0 L 0.084,-9.261 1.992,-9.173 1.903,-9 H 1.558 c -0.261,0 -0.346,0 -0.346,0.261 l -0.176,3.113 c 0,0.261 -0.084,0.349 0.607,0.349 v 0.173 L 0.257,-5.192 -0.606,-8.566 -2.165,-5.365 -3.462,-5.45 Z m 6.923,1.04 C 3.028,-7.269 2.767,-8.655 2.683,-8.739 c 0,-0.088 -0.089,-0.088 -0.346,-0.173 v -0.176 l 1.47,0.261 v 0.172 C 3.201,-8.739 2.855,-8.827 3.201,-7.615 l 1.558,0.258 c 0.867,-1.209 0.606,-1.037 0.088,-1.125 v -0.173 l 1.643,0.346 -0.085,0.173 c -0.26,-0.085 -0.433,0 -0.522,0.176 l -2.076,3.374 c -0.173,0.172 -0.173,0.088 -0.261,0 m 1.128,-2.511 -1.473,-0.26 0.345,1.907 z m 3.547,3.463 c -0.346,0.088 -2.51,0.172 -1.731,-1.643 0.261,-0.606 0.695,-0.695 1.473,-0.606 1.21,0.257 1.298,0.172 1.471,-0.434 0.26,-0.346 0.088,-0.691 -0.518,-0.952 -0.695,-0.261 -1.474,0 -1.82,0.779 L 6.835,-6.578 7.357,-8.048 7.53,-7.96 7.875,-7.442 C 8.136,-7.703 8.566,-7.703 9,-7.53 c 1.385,0.433 0.952,1.992 0.434,2.165 -0.261,0.261 -0.518,0.261 -1.471,0.173 -1.128,-0.173 -1.558,0.172 -1.3,0.867 0.433,0.951 1.124,0.691 2.253,-0.261 l 0.172,0.088 -0.606,1.297 -0.173,-0.088 z m 2.076,1.297 c 0.261,-2.595 0.349,-3.98 0.261,-4.065 -0.084,-0.088 -0.173,-0.261 -0.346,-0.349 l 0.085,-0.084 1.386,0.69 -0.085,0.173 c -0.433,-0.345 -0.779,-0.257 -0.779,0.78 l 1.386,0.694 c 1.297,-0.867 0.951,-0.779 0.345,-1.04 l 0.084,-0.173 1.474,0.691 -0.088,0.173 -0.173,-0.085 c -0.084,-0.088 -0.261,0 -0.433,0.085 l -2.94,2.686 c -0.089,0.085 -0.177,0.085 -0.177,-0.176 m 1.735,-1.988 -1.301,-0.607 -0.173,1.904 z m 0.257,2.767 c 0.607,0.349 0.694,0.261 0.779,0.176 1.125,-1.646 1.731,-2.598 1.731,-2.77 0.088,-0.089 -0.085,-0.262 -0.345,-0.434 l 0.088,-0.173 1.554,1.04 -0.084,0.173 C 15.405,-3.98 15.405,-3.807 15.321,-3.719 l -0.867,1.297 c 0.867,0.519 0.867,0.519 1.469,-0.088 0.78,-0.952 0.868,-0.779 1.213,-0.603 0.434,0.258 0.434,0.603 0.089,1.21 -0.089,0.088 -0.089,0 -0.089,-0.085 0.261,-1.731 -1.04,0.863 -2.076,0.085 0.607,0.606 1.036,1.124 0.518,1.646 -0.257,0.43 -0.864,0.43 -1.642,0 l -1.731,-1.125 z m 2.076,-0.691 c -1.036,1.47 -1.036,1.297 -0.429,1.646 1.469,0.864 2.16,-0.522 0.429,-1.646 m 1.647,3.117 c 0.261,0.172 0.345,0.26 0.433,0.26 0.085,0.085 0.952,-0.176 2.422,-0.694 l 0.779,-0.952 c 0.088,-0.085 0.088,-0.173 -0.345,-0.607 L 19.385,-1.297 20.859,0 20.687,0.173 C 20.253,-0.257 20.165,-0.779 19.128,0.868 18.434,3.55 18.606,3.205 18.956,3.55 l -0.173,0.088 -1.04,-0.955 0.088,-0.173 0.172,0.173 c 0.085,0.088 0.346,0.088 0.431,0 0.088,-0.085 0.172,-0.691 0.433,-1.815 -2.51,0.606 -1.992,0.778 -1.642,1.124 L 17.136,2.165 15.839,1.04 Z m 3.289,3.028 c 0.345,0.433 0.433,0.345 0.518,0.261 1.558,-1.298 2.337,-2.077 2.426,-2.165 0.084,-0.084 0.084,-0.261 -0.173,-0.518 l 0.173,-0.088 1.209,1.385 -0.173,0.173 c -0.43,-0.691 -0.43,-0.518 -1.385,0.261 l -0.085,0.863 c 2.51,0 2.249,-0.345 1.819,-0.779 L 23.803,3.205 24.927,4.59 24.754,4.674 C 24.667,4.59 24.582,4.502 24.405,4.417 c -0.084,0 -1.036,0.085 -2.682,0.257 -0.258,1.732 -0.173,1.905 0.088,2.253 l -0.173,0.085 -1.04,-1.213 0.173,-0.173 c 0.261,0.346 0.434,0.434 0.522,0.089 0.084,-0.089 0.257,-0.867 0.345,-2.338 -1.992,1.643 -1.646,1.471 -1.213,1.904 l -0.084,0.173 -1.213,-1.47 z m 2.683,3.377 c 0.345,0.606 0.345,0.606 0.69,0.346 1.731,-1.04 2.599,-1.647 2.687,-1.731 0.084,-0.089 0,-0.346 -0.261,-0.607 l 0.173,-0.088 1.04,1.558 -0.173,0.088 C 25.791,6.233 26.052,5.972 22.936,8.052 22.59,8.309 22.59,8.225 23.023,8.831 l -0.172,0.085 -1.04,-1.559 z m 1.646,3.462 c 1.815,-1.819 2.683,-2.771 2.767,-3.028 0.088,-0.177 0.088,-0.35 0,-0.522 H 26.57 L 27.265,8.57 27.092,8.659 C 26.743,7.879 26.658,7.964 25.879,8.831 l 0.691,1.386 c 1.125,0 1.213,-0.177 0.952,-0.607 l 0.173,-0.088 0.694,1.47 -0.173,0.088 c -0.088,-0.173 -0.172,-0.261 -0.433,-0.345 l -4.069,0.257 c -0.084,0 -0.26,0 -0.084,-0.257 m 2.683,-0.518 -0.606,-1.301 -1.386,1.385 z m -1.559,2.16 c 0.258,0.607 0,0.868 3.117,-0.429 0.345,-0.089 0.518,-0.523 0.43,-0.78 l 0.173,-0.088 0.522,1.559 -0.173,0.088 c -0.089,-0.434 0.084,-0.779 -3.116,0.345 l 3.895,1.298 0.085,0.172 c -2.165,0.779 -3.29,1.213 -3.374,1.297 -0.088,0.089 -0.173,0.261 -0.088,0.606 l -0.173,0.089 -0.434,-1.386 0.173,-0.088 c 0.088,0.434 0,0.868 3.032,-0.43 l -3.896,-1.3 -0.345,-0.865 z m 4.587,3.378 c 0.346,-0.261 0.433,-0.434 0.346,-0.779 h 0.172 l 0.346,1.469 -0.173,0.089 c -0.173,-0.779 -0.173,-0.867 -1.125,-0.173 l 0.346,1.558 c 1.558,0.431 1.128,0 1.04,-0.433 h 0.172 l 0.346,1.558 -0.173,0.084 c -0.084,-0.257 -0.173,-0.345 -0.345,-0.43 l -3.98,-0.606 c -0.088,0 -0.261,0 -0.088,-0.173 z m -0.345,2.164 -0.346,-1.474 -1.646,1.125"
             inkscape:connector-curvature="0" /></g><g
           transform="translate(58.3684,46.1655)"
           id="g24"><path
             id="path26"
             style="fill:#f5d63f;fill-opacity:1;fill-rule:nonzero;stroke:none"
             d="m 0,0 -1.558,3.201 -20.426,-35.574 1.819,-2.944 z m -29.253,-9.438 -1.904,-3.201 h 11.338 L -18,-9.438 Z m 8.309,-18.694 -6.317,11.771 -2.338,0.088 -1.907,3.546 0.867,1.474 -4.068,7.185 h -3.807 l 15.751,-27.438 z m 1.904,12.116 1.819,3.55 -0.607,2.944 -1.818,-3.205 z m -6.06,-19.385 h 4.763 l -1.82,2.943 h -4.586 z m 12.55,35.052 0.522,-3.462 h 1.558 l 1.904,3.462 z m -0.346,3.377 -1.642,-2.944 0.518,-3.722 1.297,2.425 -0.173,1.037 0.519,0.867 z m -32.63,-2.771 h 30.815 l 1.643,3.032 h -30.554"
             inkscape:connector-curvature="0" /></g></g></g></g></svg>