<svg xmlns="http://www.w3.org/2000/svg" viewBox="0 0 270 150">
  <path fill="#231f20" d="M141.01 128.35l-.37.18H130.3l-3.56-6.39h9.95l.38-.18 44.32-77.2 3.38 6.95zm4.7-56.16l.37.18 1.32 6.4-3.95 7.7-1.31-7.14-.38-.2h-24.6l4.13-6.94zm-10.34 47.89L101.2 60.54h8.26l8.82 15.59-1.88 3.2 4.14 7.7 5.07.18 13.71 25.55zm18.98-59.54l3-5.45.75 5.45h3.58l-25.93 44.51-9.58-17.84h17.28l4.32-8.45-1.5-6.95h-25.35l-2.26 3.76-8.64-15.03zm11.83-8.07l-4.13 7.51h-3.38l-1.13-7.51zm-8.27-2.26l-1.12 1.88.37 2.25-2.81 5.26-1.13-8.07 3.57-6.4zm-67.8-5.64h66.3l-3.56 6.58H85.98zm34.75 75.5h2.45l-1.14 1.7 3.95 7.13h10.9l44.31-77.19c-.56-1.3-3.75-7.7-3.75-7.7h-20.1l-3.19 5.63-1.31-5.62H89.74l-4.51 7.13zm16.9-40.93l.38.19 3.94-6.96-.37-.18zm-.75 49.2l-.37.19-3.95-6.39.38-.18zM63.44 81.2c0 1.13.95 2.07 2.07 2.07.94 0 1.87-.94 1.87-2.07a2 2 0 0 0-1.87-1.87c-1.12 0-2.07.93-2.07 1.87m138.05 0c0 1.13.94 2.07 2.07 2.07.93 0 1.87-.94 1.87-2.07 0-.94-.94-1.87-1.87-1.87-1.13 0-2.07.93-2.07 1.87M61.56 76.13v-.94c0-.19 0-.56.57-.56h6.94c.57 0 .57.37.57.56v.94h.37V72h-.37v.94c0 .18-.19.56-.75.56h-3.2v-.75c0-.75.76-1.32 1.7-1.5v-.38h-3.76v.38c.94.18 1.5.75 1.5 1.5v.75h-3c-.57 0-.57 0-.57-.56v-1.32c0-.56.2-1.12.57-1.69.37-.19 1.12-.57 2.06-.75v-.37l-3 .18v7.14zm.38-12.4c4.89 3.2 7.33 4.7 7.51 4.89.2.19.38.37.2.94H70l.57-3.2-.37-.18c-.38 1.69-.2 2.06-2.44.37l.55-3.38 1.7-.37c.19 0 .74.18.56 1.12l.38.2.56-3.58h-.38c0 .56-.18.76-.75.94l-8.45 1.69c-.38.2-.38.37 0 .57m5.83-.38l-.57 3-3.76-2.07zM65.32 51.9c-.75.94-1.13 1.32-1.32 2.07-.75 2.25.76 4.5 3.58 5.25 2.43.76 4.5-.75 5.25-2.81.56-1.7-.37-3.2-2.07-4.13-.18 0-.37.19-.18.37 1.5.94 2.44 2.07 1.88 3.76-.19 1.5-2.07 2.06-4.51 1.31-3-.75-3.95-2.25-3.38-3.56.19-.57.56-1.13 1.12-1.5a8.5 8.5 0 0 1 2.45-.38l.18-.19-3.56-1.13v.38zm.76-2.81c.75-1.51 0-1.89 3.75.18 1.88.94 3 1.32 3.56 1.32.95 0 3.95-1.7 3.01-4.88-.19-.57-.75-1.14-1.69-1.51l-3.95-1.88c-.75-.56-.93-.94-.37-1.88l-.56-.37-1.5 3.2.56.37c.56-1.32.56-1.32 1.87-.57 6.02 2.44 5.45 3.39 4.7 4.88-.56 1.32-.94 1.51-1.87 1.51-.38 0-1.51-.37-3.38-1.31-1.7-.95-2.64-1.32-2.83-1.5 0-.2.2-.57.57-1.32l-.38-.38-1.88 3.95zm4.68-9.77c.76-1.32.2-1.5 4.14.94 4.32 2.44 3.57 2.06 2.82 3.38l.18.18 3.95-6.2-2.82-2.06-.19.38c1.7 1.5 2.07 2.44 1.32 3.75-1.32 2.07-.38 2.07-4.7-.37-3.94-2.44-3.38-2.07-2.44-3.57l-.37-.19-2.26 3.57zm6.77-5.26l.19-.38c-2.07-3.76-.38-4.13 0-3.76 3.56 3.01 5.44 4.7 5.44 4.9.19.17 0 .37-.56.93l.37.38 2.44-3-.37-.38c-.38.55-.75.93-.93.93-.2-.18-1.89-1.7-5.45-4.69-.76-.76 0-2.63 3.56-.37l.2-.57-2.64-2.07-4.5 5.63zm5.63-11.83c2.45 5.25 3.57 8.07 3.39 8.45 0 .19-.2.56-.38.75l.38.18 2.25-2.24-.19-.38c-1.31 1.7-1.69.38-1.88-.2l-.37-.93 2.44-2.44c3 1.5 2.25 1.12 1.31 2.06l.38.2 2.63-2.45-.38-.19c-.37.38-.75.57-1.12.38l-7.9-3.57c-.37-.19-.75-.19-.56.38m5.08 3l-2.26 2.25-1.69-3.94zm4.5-9.96c-.94 0-5.26.95-2.81 4.52.75.93 1.87.93 3.56.37 2.63-.94 2.63-.94 3.38-.19s.38 1.88-.56 2.63c-1.31.75-2.82.75-4.32-.75l-.37.38 1.87 2.81.57-.37.18-1.13c2.82.94 4.14-3 3.2-4.32-1.13-1.5-1.88-1.31-4.32-.37-1.32.37-3.76.75-3.2-1.32.38-1.69 2.45-2.26 4.7-.57l.38-.18-2.07-2.44-.19.19zm10.7 1.14c0 .93-.18 1.5-.75 1.69v.37l2.82-1.31-.18-.38c-.75.56-1.32 1.13-1.32-1.88l3-1.5c2.27 1.7 2.27 1.7.95 2.25v.38l3.19-1.5-.2-.19c-.55.19-.93.19-1.3-.19l-6.2-5.82c-.38-.38-.56-.38-.56.18zm3.2-3.38l-2.81 1.31-.39-4.32zm2.07-6.58c1.31-.56 1.31-1.13 2.81 3.2 1.5 4.3 1.32 3.75 0 4.3v.4l3.95-1.32-.2-.38c-1.3.18-1.11 1.12-2.62-3.38 1.88-.57 2.63-.38 3.2 1.5.55 1.69 3.38 2.81 3-.94 0-.18-.37-.56-.37 0 .37 1.31-.39 1.88-1.51.37-.75-1.69-.94-1.3-2.63-1.69 1.88-.93 2.45-1.87 2.06-2.81-.56-1.5-1.87-1.88-3.56-1.13l-4.32 1.5zm3.94 2.44c-1.7-3.94-1.7-3.38.38-3.94.93-.2 1.69 0 2.06.75.75 1.5-.19 2.44-1.69 3zm6.2-2.44l.38-.19c.37-3 1.69-3.75 2.24-3.2.2 0 .39 1.14.76 3.58.56 2.44.75 3.75.56 3.94 0 .19-.37.19-1.12.38v.38l3.94-.57v-.38c-1.5.2-1.31.75-2.25-3.94-.38-2.44-.57-3.57-.57-3.76.2-.18 1.88-1.31 3.2 2.45h.56l-.75-3.38-7.14 1.3zm9.2-4.5c1.5-.2 1.5-.2 1.5.56.38 4.5.38 6.94.2 7.14-.2.18-.57.18-1.32.37v.37l4.13-.37v-.37c-.75 0-1.32 0-1.5-.2-.2-.18-.2-2.44-.38-6.94 0-.75 0-.75 1.5-.94v-.38l-4.13.38zm10.15 0c-.94-.57-1.51-.95-2.26-.95-1.5 0-2.63 1.13-2.63 2.82 0 .56.2 1.13.75 1.7.37.18.94.55 1.88.74 2.44.56 2.82.75 2.82 1.88 0 .94-.75 1.69-2.07 1.69-1.5 0-2.81-.94-3-3h-.56v3.37h.56l.74-.75a3.1 3.1 0 0 0 2.26.94c1.7 0 3-1.31 3-2.81s-.74-2.07-3.37-2.63c-2.07-.75-2.26-.75-2.26-1.88 0-.76.94-1.5 1.88-1.5 1.32 0 2.07.74 2.82 2.81h.37l-.18-3.19h-.38zm7.7.36c1.68.57 1.5-.18.74 4.51-.56 4.52-.75 3.76-2.25 3.57v.38l4.14.75v-.38c-1.51-.18-1.7.38-.95-4.13.75-4.7.38-4.5 2.44-3.94v-.38l-4.13-.75zm5.26 1.14c.56.18.93.18 1.12.37.18.19-.37 2.25-1.69 6.38-.2.76-.94 1.14-1.7.94l-.18.38 3.57.94v-.2c-.94-.55-1.12-1.12-.94-1.87l1.5-5.07 3.2 8.26.56.2c1.31-5.08 2.07-7.52 2.44-7.7.38-.2.75-.2 1.13 0l.19-.38-3.2-.94v.38c.38.18.57.37.75.75.2.18-.18 2.25-1.3 6l-3.39-8.26-2.06-.56zm9.57 3c1.5.56 2.07 0 0 4.51-1.69 4.31-1.5 3.57-2.82 3l-.18.38 3.75 1.5.2-.38c-1.51-.56-2.08.19 0-4.12 1.68.74 1.68 1.31 1.5 2.62h.18l1.5-3.57-.37-.19c-.57.94-1.13 1.51-2.63.76l1.12-3c1.13-.57 4.32.74 3.38 3.56l.2.2.94-2.83-6.58-2.82zm12.59 5.44c-1.5-1.12-4.5 0-5.64 1.88-1.32 2.64-.56 5.08 1.32 6.2 1.88 1.13 4.5.38 5.82-2.06 1.31-2.26.75-4.88-1.5-6.02m0 .57c1.12.75 1.69 1.88.18 4.88-1.69 2.82-3.19 3-4.31 2.26-1.32-.75-1.7-2.26-.2-5.07 1.5-2.26 3.01-2.82 4.33-2.07m5.07 3.38c.75.57.93 1.12.56 1.7a70.89 70.89 0 0 1-4.32 5.44c-.19 0-.56-.2-1.13-.75l-.18.37 3.19 2.44.19-.19c-.94-.93-1.69-.37 1.32-3.94 1.87 1.13 1.69 1.7.74 3-.94 1.5-.94 2.45-.37 3.01.93.56 1.69.19 2.62-.75.2-.19.38-.75-.18-.19-1.5 1.13-1.88.38-1.12-.75.93-1.69.74-2.06-.2-3.57 2.07 2.26 6.4.2 2.64-3.38l-3.58-2.63zm0 4.7c2.25-3.2 1.87-3.2 3.38-1.89.93.57 1.13 1.14.93 1.7-.37 1.31-1.69 2.44-4.3.19m8.63 2.63c.56.56.75.93.56 1.12 0 .19-1.69 1.5-4.89 4.33-.75.55-1.12.55-1.87 0l-.38.18 2.25 2.44.38-.18c-.56-.76-.75-1.32-.56-1.51.18-.18 2.07-1.87 5.63-4.88l-4.31 7.89.18.19 8.45-3c-3.75 3.18-5.82 4.87-6.2 4.87-.18 0-.56-.37-.94-.94l-.37.2 2.63 3.18.38-.18c-.94-1.32-1.7-.75 2.06-3.76 3.94-3.2 3.2-2.44 3.76-1.69l.37-.19-1.69-2.07-6.94 2.63 3.56-6.76-1.69-2.06zm11.08 13.7a131.2 131.2 0 0 1-9.02 1.32c-.18-.19-.56-.37-.75-.75l-.37.19 1.69 2.81.37-.18c-.56-1.32-1.31-1.5 1.7-1.88l1.87 3c-1.5 2.26-1.5 2.26-2.25.94l-.38.19 1.88 3 .19-.18c-.2-.57-.2-.94 0-1.13l5.25-6.95c.2-.37.2-.37-.18-.37M193.97 41l-1.68-2.82 4.13-.75zm3.57 1.69l.2.37c.93-.19 1.68-.19 2.24 0 1.51.57 1.51 1.32 1.32 1.5 0 .2-2.26 1.14-6.95 3.01-.19 0-.19.2-.75-1.12l-.38.19 1.5 3.56.38-.2c-.19-.92-1.31-1.11 3.2-2.8 2.25-.95 3.38-1.32 3.57-1.13.18 0 1.87 1.32-1.7 3.38l.19.38 3.2-1.32-2.83-6.57zm9.4 19.9c.56-.93.56-1.69.56-2.44-.38-2.06-2.44-3.75-5.45-3.38-2.25.38-4.13 2.44-3.76 4.52.2 2.06 1.51 3 3.58 3 .37 0 .37-.38 0-.38-1.7-.18-3.01-.94-3.2-2.62-.19-1.51 1.13-2.83 3.57-3.01 3.2-.57 4.5.56 4.7 2.06 0 .56-.2 1.13-.57 1.7-.56.55-1.12.93-2.06 1.5v.19l3.56-.57-.18-.37zm-2.82-11.82c.19 1.5.37 1.5-.38 1.69l-6.57 1.87c-.2 0-.37.2-.94-1.31h-.38l1.13 4.13.37-.19c-.18-1.5-.93-1.5 3.58-2.81 4.7-1.32 3.75-.76 4.32.56h.37l-1.13-4.13zm3.94 16.71c0 1.7-.19 1.5-.37 1.5-.2 0-1.32-.56-3.76-1.5-4.7-2.06-4.32-1.88-4.32-2.63h-.37l.18 2.44h.38c0-1.5 0-1.12 3.56.38v2.44c-3.75.19-3.38.38-3.38-1.13h-.37l.57 7.14 3.38-.18-.2-.38c-2.43-.38-2.81-.57-3.18-2.63 0-1.51-.57-1.7 3.94-1.7 0 2.07-.38 2.26-1.7 2.26v.19l4.14-.2v-.18c-1.31-.19-1.88-.75-2.07-2.06l3.2-.2c.18 0 .56-.37.56 2.07.19 1.13-.75 1.88-2.44 2.07l.19.38 2.81-.38-.37-7.7zm-4.13 2.63v-2.25l3.94 1.69c0 .37-.37.37-.75.37zM69.83 84.77c.18 1.7.75 1.5-3.2 2.44-1.87.38-3 .75-3.38 1.13-.75.75-.93 1.88-.75 3.38.2.94.75 1.69 1.5 2.26.57.37 1.88.18 3.95-.38 2.06-.57 3.38-.76 3.57-.57.19.19.38.75.56 1.32l.57-.2-.94-3.55-.38.18c0 .75 0 1.13-.57 1.31-.18.2-5.63 1.89-6.57 1.32-1.31-1.32-1.31-3.38-.19-4.13.2-.2 1.32-.38 3.2-.94 1.87-.57 2.81-.94 3-.75.19.18.38.56.56 1.31h.57l-1.12-4.32zm2.63 9.76c.19.38.19.75 0 1.14 0 .18-2.07 1.12-6 2.44-.77.18-1.52-.2-1.7-.95l-.37.2 1.3 3.37.39-.18c-.2-.57-.39-.94-.2-1.13.2-.37 2.26-1.31 6.02-2.63l-4.9 7.7c-.17.38 0 .38.2.38 4.7-1.7 7.32-2.45 7.7-2.26.38.2.56.38.75.57h.38l-1.13-3-.38.18c.2.19.2.56 0 .94-.18.37-2.06 1.12-5.82 2.44l4.7-7.52-.57-1.87zm3.2 8.65c.74 1.31 1.12 1.5-2.64 3.19-3.57 1.69-3.75 1.88-4.5.57l-.38.18 1.87 3.57.38-.2c-.75-1.3-.56-1.5 2.63-3.18 3.57-1.7 3.76-1.88 4.5-.57l.38-.18-2.06-3.76zm2.06 3.94c.18.37.37.75.18.94 0 .19-1.69 2.81-5.07 7.51 0 0-.18.37.2.2 5.63-1.32 8.63-1.9 8.82-1.7.37.18.57.38.75.56l.19-.18-1.69-2.83-.38.2c.76 1.31.94 1.5.38 1.69-.2.19-2.44.56-6.39 1.31 2.44-3.57 3.76-5.26 3.95-5.26.18-.19.18-.19.37-.19s.38.38.75.95l.38-.2-2.07-3.18zm5.25 7.89c.75.75.57 1.31-2.44 3.75-2.81 2.26-3 2.45-3.75 1.5l-.38.2 4.7 5.63 2.62-1.88-.18-.38c-3.19 2.26-5.07-1.5-5.07-1.5 0-.19.94-.94 3-2.63.95 1.5.75 2.07-.19 2.82l.2.38 3.18-2.82-.18-.19c-.94.75-1.5.94-2.82-.37l2.45-2.07c1.3-.19 3.93 3 1.12 4.5l.18.2 2.45-1.88-4.7-5.45zm5.45 6.38c1.5 1.51.75 1.51-1.7 4.5-2.43 2.83-2.61 2.46-3.56 1.51l-.37.19 3.2 2.82.18-.19c-1.31-1.32-1.13-1.13 1.7-3.94l.55.56c.75.75.75 1.32 0 2.44-1.5 2.26-1.12 2.63-.75 3 .75.76 1.7.57 2.63-.55.19-.2.19-.38-.19-.2-3.94 2.07 1.69-2.81-.94-4.13 1.88 1.32 2.82 1.13 3.57.38.94-.94.75-2.26-.56-3.57L88.8 121zm-.38 4.7c2.82-3.19 2.26-3.19 3.58-1.88 1.69 1.69.75 2.63-.2 3.2-.74.18-1.31.37-3.38-1.32m11.65 4.5c-.75-.94-.75-1.5-1.5-2.06-1.32-.75-2.82-.56-3.76.75a2.24 2.24 0 0 0-.19 1.88c.2.57.57 1.12 1.13 1.7 1.5 1.87 1.88 2.24 1.13 3.18-.57.75-1.32.94-2.63.2-1.32-.76-1.7-2.45-.75-4.14l-.38-.37-1.88 2.81.38.38 1.13-.2c0 .76.37 1.51 1.31 2.07 4.32 1.5 6.2-2.25 2.63-4.88-1.31-1.69-1.5-1.87-.75-2.82.56-.56 1.5-.74 2.44-.19.94.75 1.31 1.89.76 3.95l.18.19 1.69-2.63-.38-.19zm1.88.95c.57.19.94.56.94 1.12 0 .38-1.13 2.44-3.2 6.01-.18.38-.75.38-1.69-.19l-.18.38 3.76 1.88.18-.38c-.93-.19-1.32-.56-1.13-1.12l3.2-6.01c.19-.57.38-.57 1.68.19l.2-.38-3.58-1.88zm3.19 5.25l.37.2c1.7-2.82 3.39-2.26 3.39-1.5.19.18-.19 1.3-1.13 3.37a20.93 20.93 0 0 1-1.5 3.57c-.19.19-.76 0-1.31-.38l-.2.38 3.58 1.5.18-.38c-1.5-.55-1.31-.55.2-4.5.94-2.07 1.3-3 1.5-3.2.56-.18 2.43-.37 1.5 3.57l.56.2.94-3.2-6.57-2.63zm12.21.76c-3.57 4.5-5.45 6.76-5.63 6.95-.2.19-.57.19-.94 0l-.2.37 3.39.94v-.38c-1.88-.37-1.5-.74-.19-2.63l3.39 1.13c.55 2.45 0 2.45-.95 2.26l-.19.37 3.39.94.19-.37c-.57-.2-.95-.38-.95-.94l-.74-8.64c-.2-.38-.38-.2-.57 0m-.18 5.82l-3.01-.94 2.44-3.38zm10.32-2.82c-.94-1.13-3.94-2.82-5.07 1.13-.18.56 0 1.12.38 1.69.37.38.94.75 1.88 1.13 2.25.93 2.44.93 2.44 2.25 0 .93-.94 1.5-2.26 1.32-1.5-.2-2.62-1.32-2.62-3.38h-.57l-.37 3.19.55.19.76-.76c.56.76 1.31 1.13 2.25 1.31 3 .57 3.57-2.62 3-3.56-.17-.75-.93-1.13-2.62-1.88-2.07-1.13-2.07-.94-2.07-2.25.2-.76 1.13-1.32 2.07-1.13 1.31.19 1.88.94 2.45 3.2h.37l.18-3.2h-.37zm6.57 0c1.51 0 1.32 0 1.32.56l.37 6.2c0 .94-.18 1.31-1.12 1.31v.38l3.38-.18v-.38c-1.32 0-1.69-.56-1.69-1.5l-.37-6.58 3.75 8.26h.38l2.25-8.63.56 7.51c0 .19-.18.57-.75.57h-.75l.19.37 4.14-.19-.2-.37h-.75c-.56 0-.75 0-.75-.57l-.38-6.76c0-.56-.18-.75 1.32-.75v-.38l-3 .2-1.88 7.31-3.39-6.94-2.8.18zm15.03-2.25c-1.13 5.82-1.7 8.83-1.88 9.01 0 .2-.19.2-.75.38v.38l3.2-.57v-.37c-1.32.18-2.07.37-1.32-2.26l3.38-.56c1.88 2.62 1.31 2.25.2 2.44v.38l3.56-.75-.19-.38c-.56.19-.94 0-1.13-.38l-4.5-7.32c-.38-.38-.38-.2-.57 0m2.45 5.45l-3.2.56.75-4.14zm7.7-7.52c-.76-.19-5.45-.37-3.76 3.57.56 1.31 1.5 1.5 3.2 1.31 2.62-.56 2.8-.37 3.18.94.57.75.2 1.5-1.12 2.07-1.5.57-3.2 0-3.95-1.7l-.57.2 1.14 3.19.37-.2.75-1.11c.57.56 1.5.56 2.44.19 3-.94 2.07-4.33.94-4.7-.56-.57-1.12-.57-3.19-.38-2.45.38-3.38-.37-2.82-1.88.94-2.06 2.44-1.5 4.89.57l.37-.2-1.31-2.8-.38.18zm4.5-2.81c.56 5.63.75 8.63.56 8.82-.18.19-.37.56-.75.76l.19.18 3-1.5-.18-.37c-.94.74-1.69.55-1.69-1.7l3-1.5c2.82 1.88 2.07 1.69.76 2.25l.18.38 3.2-1.5-.2-.38-.37.19c-.18.19-.57 0-.94-.19l-6.38-5.82c-.2-.19-.38-.19-.38.38m3.76 4.31l-2.82 1.32-.38-4.13zm.56-6c1.32-.76 1.5-.57 1.69-.38 2.44 3.57 3.76 5.63 3.76 6 .19.2-.19.57-.75.95l.19.37 3.37-2.25-.18-.38c-1.32.94-1.32.57-1.5.38l-1.88-2.82c1.88-1.12 1.88-1.12 3.19.2 1.69 2.06 1.88 1.68 2.63 1.3.94-.56.94-1.3.2-2.62-.2-.2-.2 0-.2.18.56 3.76-2.26-1.87-4.5-.18 1.31-1.32 2.24-2.44 1.12-3.58-.56-.93-1.88-.93-3.57 0l-3.75 2.45zm4.5 1.5c-2.24-3.2-2.24-2.82-.93-3.58 3.2-1.87 4.7 1.14.93 3.58m3.58-6.77c.56-.37.75-.56.94-.56.18-.19 2.06.38 5.25 1.5l1.7 2.07c.18.18.18.38-.75 1.32l.18.37 3.2-2.81-.38-.38c-.94.93-1.13 2.07-3.38-1.5-1.5-5.83-1.13-5.08-.37-5.83l-.38-.19-2.26 2.07.2.38.37-.38c.18-.19.75-.19.93 0 .2.19.38 1.5.94 3.94-5.44-1.31-4.32-1.69-3.56-2.44l-.2-.37-2.8 2.44zm7.14-6.57c.74-.94.93-.75 1.12-.56 3.38 2.81 5.07 4.5 5.26 4.7.19.18.19.56-.37 1.12l.37.19 2.63-3-.38-.38c-.93 1.5-.93 1.12-3-.57l-.19-1.87c5.45 0 4.88.75 3.95 1.69l.37.18 2.44-3-.37-.19c-.2.19-.38.38-.76.56-.18 0-2.25-.18-5.82-.56-.56-3.75-.37-4.13.2-4.89l-.38-.18-2.26 2.63.38.38c.56-.75.94-.94 1.13-.2.18.2.56 1.89.75 5.08-4.33-3.57-3.58-3.2-2.64-4.13l-.18-.38-2.63 3.2zm5.82-7.33c.75-1.31.75-1.31 1.5-.75a68.82 68.82 0 0 1 5.83 3.76c.18.2 0 .75-.57 1.32l.37.19 2.26-3.38-.37-.2c-.76 1.32-.2 1.89-6.96-2.63-.75-.55-.75-.37.2-1.69l-.38-.18-2.26 3.38zm3.57-7.5c3.94 3.94 5.82 6 6 6.56.2.39.2.76 0 1.14h.38l1.5-3.01-.37-.2c-.76 1.7-.94 1.51-2.63-.37l1.5-3c2.44 0 2.63.38 2.06 1.31l.38.2 1.5-3.2-.37-.19c-.19.38-.37.57-.94.75l-8.83-.56c-.18 0-.56 0-.18.56m5.82 1.13L196.8 109l-3.01-3zm-3.38-4.7c.56-1.3 0-1.87 6.76.94.75.2 1.13 1.13.93 1.7l.38.18 1.13-3.38-.37-.2c-.2.95.18 1.7-6.76-.74l8.45-2.82.18-.37c-4.7-1.69-7.14-2.63-7.32-2.81-.19-.2-.37-.57-.19-1.32l-.38-.2-.94 3.02.38.19c.19-.95 0-1.89 6.58.93l-8.46 2.82-.75 1.88zm9.95-7.32c.75.56.94.94.75 1.69h.38l.75-3.19-.38-.2c-.37 1.7-.37 1.89-2.44.38l.75-3.38c3.38-.93 2.45 0 2.26.94h.37l.75-3.38-.37-.18c-.19.56-.38.75-.75.93l-8.64 1.32c-.19 0-.57 0-.19.37zm-.75-4.7l-.75 3.2-3.57-2.44"/>
  <path fill="#f5d63f" d="M184.77 51.71l-3.38-6.95-44.33 77.2 3.95 6.39zm-63.48 20.48l-4.13 6.95h24.6l3.95-6.95zm18.03 40.57l-13.7-25.55-5.08-.19-4.14-7.7 1.88-3.2-8.82-15.58h-8.26l34.17 59.54zm4.13-26.3l3.95-7.7-1.32-6.39-3.94 6.96zm-13.15 42.07h10.34l-3.95-6.39h-9.95zm27.24-76.06l1.13 7.51h3.38l4.13-7.51zm-.75-7.33l-3.57 6.39 1.13 8.07 2.81-5.26-.37-2.25 1.12-1.88zm-70.81 6.01h66.87l3.56-6.58h-66.3"/>
</svg>
