<?xml version="1.0" encoding="UTF-8" standalone="no"?>
<svg
   xmlns:dc="http://purl.org/dc/elements/1.1/"
   xmlns:cc="http://creativecommons.org/ns#"
   xmlns:rdf="http://www.w3.org/1999/02/22-rdf-syntax-ns#"
   xmlns:svg="http://www.w3.org/2000/svg"
   xmlns="http://www.w3.org/2000/svg"
   xmlns:sodipodi="http://sodipodi.sourceforge.net/DTD/sodipodi-0.dtd"
   xmlns:inkscape="http://www.inkscape.org/namespaces/inkscape"
   viewBox="0 0 88.278114 47.045884"
   version="1.1"
   id="svg154"
   sodipodi:docname="kinali.svg"
   inkscape:version="0.92.2 2405546, 2018-03-11"
   width="88.278114"
   height="47.045883">
  <metadata
     id="metadata160">
    <rdf:RDF>
      <cc:Work
         rdf:about="">
        <dc:format>image/svg+xml</dc:format>
        <dc:type
           rdf:resource="http://purl.org/dc/dcmitype/StillImage" />
      </cc:Work>
    </rdf:RDF>
  </metadata>
  <defs
     id="defs158" />
  <sodipodi:namedview
     pagecolor="#ffffff"
     bordercolor="#666666"
     borderopacity="1"
     objecttolerance="10"
     gridtolerance="10"
     guidetolerance="10"
     inkscape:pageopacity="0"
     inkscape:pageshadow="2"
     inkscape:window-width="1920"
     inkscape:window-height="1016"
     id="namedview156"
     showgrid="false"
     inkscape:zoom="11.180574"
     inkscape:cx="48.680149"
     inkscape:cy="32.13997"
     inkscape:window-x="0"
     inkscape:window-y="27"
     inkscape:window-maximized="1"
     inkscape:current-layer="svg154" />
  <g
     id="g152"
     transform="matrix(0.70769912,0,0,0.70769912,12.142892,2.5294573)">
    <circle
       cx="18.17"
       cy="48.380001"
       r="3.6700001"
       id="circle144"
       style="fill:#0098ab" />
    <circle
       cx="43.990002"
       cy="3.6700001"
       r="3.6700001"
       id="circle146"
       style="fill:#009fe3" />
    <circle
       cx="69.800003"
       cy="48.380001"
       r="3.6700001"
       id="circle148"
       style="fill:#4565ad" />
    <path
       d="m 16.11,34.36 h -5.23 l -4.4,-6.5 -2.11,2.34 v 4.16 H 0 V 17.6 h 4.37 v 7.27 l 6.29,-7.27 h 5.07 L 9.51,24.51 Z M 19.29,17.6 h 4.37 v 16.76 h -4.37 z m 20.71,0 h 4.06 v 16.76 h -3.8 l -7.6,-10 v 10 H 28.57 V 17.6 h 3.85 L 40,27.69 Z M 61.18,34.36 60,31.4 h -7.21 l -1.17,3 h -4.49 l 7.2,-16.76 h 4.49 l 7,16.76 z M 54.11,28 h 4.64 L 56.46,22 Z M 68.88,17.6 h 4.37 v 13 h 7.1 v 3.73 H 68.88 Z m 14.75,0 H 88 v 16.76 h -4.37 z"
       id="path150"
       inkscape:connector-curvature="0"
       style="fill:#354049" />
  </g>
</svg>
