<?xml version="1.0" encoding="UTF-8"?>
<svg width="740px" height="400px" viewBox="0 0 740 400" version="1.1" xmlns="http://www.w3.org/2000/svg" xmlns:xlink="http://www.w3.org/1999/xlink">
    <!-- Generator: Sketch 43.1 (39012) - http://www.bohemiancoding.com/sketch -->
    <title>logo</title>
    <desc>Created with Sketch.</desc>
    <defs></defs>
    <g id="old-teal" stroke="none" stroke-width="1" fill="none" fill-rule="evenodd">
        <g id="logo">
            <g id="kiwi-logo" transform="translate(70.000000, 52.000000)">
                <path d="M259.246104,122.648577 C259.55087,121.885788 259.855635,120.668482 259.855635,119.907446 C259.855635,115.796252 256.653211,113.815907 253.298528,113.815907 C250.400619,113.815907 248.570017,115.187473 247.500452,118.384874 L234.079465,159.347568 L218.673361,118.079859 C217.759064,115.491237 216.081472,113.815907 212.87704,113.815907 C209.674615,113.815907 207.996773,115.491237 207.082224,118.079859 L191.82913,159.347568 L178.406639,118.384874 C177.338579,115.187473 175.507977,113.815907 172.610067,113.815907 C169.25388,113.815907 166.051204,115.796252 166.051204,119.907446 C166.051204,120.668482 166.356221,121.885788 166.660987,122.648577 L185.421522,178.229714 C186.032809,180.664326 188.015167,182.342411 191.371605,182.342411 C194.72704,182.342411 196.557642,180.515074 197.47194,178.077206 L212.87704,135.895704 L228.435151,178.077206 C229.350953,180.664326 231.332809,182.342411 234.537993,182.342411 C237.740418,182.342411 239.57102,180.820089 240.485569,178.229714 L259.246104,122.648577 Z M119.380635,169.632441 L97.1833946,147.607737 L119.380635,125.582032 C122.185234,122.782052 122.402709,118.473775 119.380635,115.459433 C116.361823,112.44459 112.047441,112.659203 109.243595,115.460935 L82.2368227,142.422479 C80.7922575,143.865416 80.0934281,145.73257 80.1245318,147.605984 C80.0934281,149.478397 80.7907525,151.347805 82.2368227,152.790492 L109.243595,179.752035 C112.047441,182.552265 116.361823,182.76838 119.380635,179.752035 C122.400953,176.739196 122.185234,172.432671 119.380635,169.632441 L119.380635,169.632441 Z M76.7219398,174.669951 L76.7219398,120.457125 C76.7219398,116.498438 73.6730268,113.301287 69.5535452,113.301287 C65.4348161,113.301287 62.3851505,116.498438 62.3851505,120.457125 L62.3851505,174.669951 C62.3851505,178.627135 65.2813043,181.824536 69.5535452,181.824536 C73.8242809,181.824536 76.7219398,178.627135 76.7219398,174.669951 L76.7219398,174.669951 Z M137.407475,120.973748 L137.407475,175.181815 C137.407475,179.142005 140.306137,182.342411 144.576873,182.342411 C148.84811,182.342411 151.747023,179.142005 151.747023,175.181815 L151.747023,120.973748 C151.747023,117.015061 148.695351,113.815907 144.576873,113.815907 C140.458896,113.815907 137.407475,117.015061 137.407475,120.973748 L137.407475,120.973748 Z M274.405385,175.181815 L274.405385,120.973748 C274.405385,117.015061 277.456806,113.815907 281.575535,113.815907 C285.692508,113.815907 288.74393,117.015061 288.74393,120.973748 L288.74393,175.181815 C288.74393,179.142005 285.84602,182.342411 281.575535,182.342411 C277.304799,182.342411 274.405385,179.142005 274.405385,175.181815 Z M593.446906,114.402472 C597.27291,114.402472 599.843729,116.969809 599.843729,120.790763 L599.843729,175.38273 C599.843729,178.910689 597.033863,181.674107 593.446906,181.674107 C589.971823,181.674107 587.144649,178.851589 587.144649,175.38273 L587.144649,146.285329 L572.280853,178.132625 C571.206271,180.383677 569.184783,181.674107 566.734114,181.674107 C564.161288,181.674107 562.402174,180.558723 561.198411,178.164178 L546.127425,146.279068 L546.127425,175.285315 C546.127425,178.748415 543.197157,181.674107 539.728846,181.674107 C536.313712,181.674107 533.428344,178.748415 533.428344,175.285315 L533.428344,120.694351 C533.428344,117.166141 536.195819,114.402472 539.728846,114.402472 C542.301923,114.402472 544.17291,115.621281 545.617475,118.238452 L566.546739,161.591434 L566.729599,161.975332 L587.60995,118.325599 C588.782358,115.86895 590.964381,114.402472 593.446906,114.402472 Z M486.726171,114.017147 C505.986873,114.017147 520.511288,128.642602 520.511288,148.037363 C520.511288,167.432876 505.986873,182.059333 486.726171,182.059333 C467.464465,182.059333 452.939548,167.432876 452.939548,148.037363 C452.939548,128.642602 467.464465,114.017147 486.726171,114.017147 Z M486.726171,169.909059 C496.846154,169.909059 507.090803,162.396368 507.090803,148.037363 C507.090803,137.170006 500.095485,126.168172 486.726171,126.168172 C476.609448,126.168172 466.368311,133.680111 466.368311,148.037363 C466.368311,158.905972 473.36112,169.909059 486.726171,169.909059 Z M419.977324,126.50469 C408.128579,126.50469 399.853244,135.359147 399.853244,148.037313 C399.853244,160.716731 408.128579,169.57219 419.977324,169.57219 C426.396472,169.57219 430.241789,167.05043 433.630334,164.467316 C435.129833,163.430565 436.561355,162.928217 438.01194,162.928217 C441.494047,162.928217 444.119799,165.592467 444.119799,169.125184 C444.119799,170.771465 443.439281,172.251215 442.039615,173.649577 C436.945635,178.914721 428.697642,182.059283 419.977324,182.059283 C400.197642,182.059283 386.383344,168.069151 386.383344,148.037313 C386.383344,128.006728 400.197642,114.017096 419.977324,114.017096 C428.69689,114.017096 436.957926,117.173428 442.075736,122.460359 C443.450819,123.835431 444.119799,125.305665 444.119799,126.953448 C444.119799,130.484914 441.494047,133.147912 438.01194,133.147912 C436.565117,133.147912 435.165452,132.668853 433.732926,131.683438 C430.146472,128.952575 426.399732,126.50469 419.977324,126.50469 Z" id="letters" fill="#1A1918"></path>
                <path d="M323.863119,210.80554 C328.632768,214.322481 329.649156,221.057358 326.129674,225.81815 C310.54949,246.883984 288.723236,264.469439 263.010527,276.675557 C236.700326,289.155138 206.720895,295.751781 176.314038,295.751781 C141.320895,295.748776 107.518721,287.176796 78.560694,270.96441 C50.0130351,254.979158 27.7927174,232.5673 14.300995,206.152681 C4.89288462,187.734319 0.123737458,168.140221 0.128503344,147.914305 C0.123737458,127.687639 4.89288462,108.09304 14.300995,89.6721733 C23.304005,72.0336284 36.1448077,56.2319364 52.4674666,42.7040853 C85.6503261,15.2214118 129.633186,0.0808365482 176.314038,0.0713204738 C206.803671,0.0730734349 236.849072,6.70152014 263.200911,19.2396995 C288.962032,31.5021631 310.801831,49.1665015 326.360694,70.3227384 C329.868888,75.0932968 328.834941,81.8241665 324.056513,85.3260819 C322.198821,86.687131 320.001497,87.4068467 317.703838,87.4068467 C314.288704,87.4068467 311.045393,85.7685794 309.027166,83.0231919 C295.574323,64.716268 276.528085,49.3618315 253.947818,38.6191851 C230.467801,27.4445591 203.622567,21.537581 176.314038,21.537581 C144.992885,21.537581 114.830594,29.1599567 89.0775,43.5813171 C64.2269147,57.4928162 44.9950585,76.80018 33.4603595,99.4166335 C25.6159615,114.801371 21.6359448,131.118684 21.6316806,147.914305 C21.6359448,164.71243 25.6159615,181.028241 33.4603595,196.408221 C41.1246572,211.428593 52.1403763,224.952187 66.2027508,236.602366 C95.4971488,260.901913 134.581931,274.282515 176.2576,274.282515 C203.570142,274.282515 230.349908,268.405838 253.780008,257.285053 C276.313119,246.598001 295.349072,231.308925 308.828754,213.070116 C310.847232,210.338502 314.085025,208.707997 317.488119,208.707997 C319.796062,208.707997 322.000661,209.433974 323.863119,210.80554 Z M341.058135,139.56117 C347.585895,139.56117 352.896848,144.864128 352.896848,151.382889 C352.896848,157.90115 347.585895,163.204358 341.058135,163.204358 C334.530376,163.204358 329.219423,157.90115 329.219423,151.382889 C329.219423,144.864128 334.530376,139.56117 341.058135,139.56117 Z" id="symbol" fill="#0097A9"></path>
            </g>
        </g>
    </g>
</svg>