<svg xmlns="http://www.w3.org/2000/svg" viewBox="0 0 500 200"><g stroke-width=".19"><path d="M277.46 94.4c-4.37 0-7.92 3.56-7.92 7.92 0 4.37 3.55 7.92 7.92 7.92 4.36 0 7.9-3.55 7.9-7.92 0-4.36-3.54-7.9-7.9-7.9" fill="#0097a9"/><path d="M222.76 83.08c.2-.5.4-1.32.4-1.83 0-2.76-2.13-4.08-4.37-4.08-1.95 0-3.17.92-3.9 3.06l-8.96 27.43-10.3-27.64c-.6-1.73-1.73-2.85-3.88-2.85-2.14 0-3.26 1.12-3.87 2.85l-10.2 27.64-8.98-27.43c-.7-2.14-1.94-3.06-3.88-3.06-2.24 0-4.38 1.32-4.38 4.08 0 .5.2 1.32.4 1.83l12.55 37.22c.42 1.63 1.74 2.76 4 2.76 2.23 0 3.45-1.23 4.06-2.86l10.3-28.25 10.4 28.25c.62 1.73 1.94 2.86 4.08 2.86 2.15 0 3.37-1.02 3.98-2.76zm-93.5 31.47L114.42 99.8l14.84-14.75c1.87-1.88 2.02-4.76 0-6.78-2.02-2.02-4.9-1.88-6.78 0l-18.05 18.05c-.97.97-1.44 2.22-1.42 3.48 0 1.25.46 2.5 1.43 3.47l18.05 18.05c1.88 1.88 4.76 2.02 6.78 0 2.02-2.02 1.87-4.9 0-6.77m-28.52 3.37v-36.3c0-2.65-2.04-4.8-4.8-4.8-2.75 0-4.8 2.15-4.8 4.8v36.3c0 2.65 1.95 4.8 4.8 4.8 2.86 0 4.8-2.15 4.8-4.8m40.57-35.96v36.3c0 2.65 1.95 4.8 4.8 4.8 2.86 0 4.8-2.15 4.8-4.8v-36.3c0-2.65-2.04-4.8-4.8-4.8-2.75 0-4.8 2.15-4.8 4.8m91.6 0v36.3c0 2.65 1.94 4.8 4.8 4.8 2.85 0 4.78-2.15 4.78-4.8v-36.3c0-2.65-2.04-4.8-4.8-4.8-2.74 0-4.78 2.15-4.78 4.8m0 0v36.3c0 2.65 1.94 4.8 4.8 4.8 2.85 0 4.78-2.15 4.78-4.8v-36.3c0-2.65-2.04-4.8-4.8-4.8-2.74 0-4.78 2.15-4.78 4.8m0 0v36.3c0 2.65 1.94 4.8 4.8 4.8 2.85 0 4.78-2.15 4.78-4.8v-36.3c0-2.65-2.04-4.8-4.8-4.8-2.74 0-4.78 2.15-4.78 4.8m0 0v36.3c0 2.65 1.94 4.8 4.8 4.8 2.85 0 4.78-2.15 4.78-4.8v-36.3c0-2.65-2.04-4.8-4.8-4.8-2.74 0-4.78 2.15-4.78 4.8" fill="#231f20"/><path d="M265.96 142.12c-1.24-.92-2.72-1.4-4.26-1.4-2.27 0-4.44 1.08-5.8 2.9-9 12.23-21.73 22.46-36.8 29.62-15.65 7.45-33.56 11.38-51.82 11.38-27.86 0-54-8.96-73.57-25.23-9.4-7.8-16.76-16.87-21.88-26.92-5.25-10.3-7.9-21.23-7.9-32.48 0-11.24 2.65-22.17 7.9-32.47 7.7-15.15 20.57-28.08 37.18-37.4 17.22-9.65 37.38-14.76 58.32-14.76 18.26 0 36.2 3.96 51.9 11.44 15.1 7.2 27.83 17.5 36.82 29.75 1.35 1.84 3.52 2.93 5.8 2.93 1.54 0 3-.48 4.25-1.4 3.2-2.33 3.88-6.84 1.53-10.04-10.4-14.16-25-26-42.22-34.2C207.8 5.44 187.7 1 167.33 1c-31.2 0-60.6 10.15-82.8 28.55C73.62 38.6 65.02 49.2 59.02 61c-6.3 12.34-9.5 25.46-9.5 39 0 13.55 3.2 26.67 9.5 39 9 17.7 23.86 32.7 42.95 43.4 19.36 10.86 41.96 16.6 65.35 16.6 20.33 0 40.37-4.42 57.96-12.77 17.2-8.18 31.78-19.95 42.2-34.06 2.35-3.2 1.67-7.7-1.52-10.05" fill="#0097a9"/><path d="M330.22 85.67c4.3 0 6.8 1.63 9.2 3.46.95.66 1.9.98 2.86.98 2.32 0 4.08-1.77 4.08-4.13 0-1.1-.45-2.1-1.37-3-3.43-3.55-8.95-5.67-14.78-5.67-13.23 0-22.46 9.37-22.46 22.78 0 13.42 9.23 22.8 22.46 22.8 5.83 0 11.34-2.12 14.75-5.64.93-.94 1.4-1.93 1.4-3.03 0-2.36-1.77-4.14-4.1-4.14-.97 0-1.92.33-2.92 1.03-2.27 1.72-4.84 3.4-9.13 3.4-7.92 0-13.46-5.92-13.46-14.42s5.54-14.4 13.46-14.4M374.84 114.73c-8.93 0-13.6-7.37-13.6-14.65 0-9.6 6.84-14.64 13.6-14.64 8.94 0 13.62 7.37 13.62 14.64 0 9.62-6.85 14.65-13.62 14.65m0-37.43c-12.88 0-22.6 9.8-22.6 22.78 0 13 9.72 22.8 22.6 22.8s22.6-9.8 22.6-22.8c0-12.98-9.72-22.78-22.6-22.78M446.2 77.56c-1.67 0-3.13.98-3.9 2.63l-13.97 29.22-.13-.26-14-29.03c-.95-1.75-2.2-2.57-3.92-2.57-2.37 0-4.22 1.85-4.22 4.2v36.57c0 2.32 1.93 4.28 4.22 4.28 2.32 0 4.27-1.95 4.27-4.27V98.9l10.08 21.36c.8 1.6 1.98 2.35 3.7 2.35 1.64 0 3-.86 3.7-2.36L442 98.9v19.5c0 2.32 1.9 4.2 4.2 4.2 2.4 0 4.3-1.84 4.3-4.2V81.84c0-2.56-1.73-4.28-4.3-4.28" fill="#231f20"/></g></svg>