<svg xmlns="http://www.w3.org/2000/svg" width="740" height="400" viewBox="0 0 740 400">
  <g fill="none" fill-rule="evenodd">
    <path fill="#1A1918" d="M329.25 174.65c.3-.76.6-1.98.6-2.74 0-4.1-3.2-6-6.55-6-2.9 0-4.73 1.4-5.8 4.6l-13.42 41-15.4-41.23c-.92-2.6-2.6-4.3-5.8-4.3-3.2 0-4.88 1.68-5.8 4.27l-15.25 41.27-13.42-40.96c-1-3.2-2.9-4.6-5.8-4.6-3.3 0-6.5 2-6.5 6.1 0 .77.3 2 .6 2.75l18.8 55.6c.6 2.44 2.6 4.1 6 4.1s5.2-1.8 6.1-4.24L283 188l15.57 42.2c.9 2.54 2.9 4.22 6.1 4.22 3.2 0 5.03-1.5 5.95-4.1l18.77-55.6zm-139.87 46.98l-22.2-22.02 22.2-22c2.8-2.8 3.02-7.1 0-10.1s-7.33-2.8-10.14 0l-27 27c-1.45 1.5-2.15 3.3-2.12 5.2-.03 1.9.67 3.8 2.12 5.2l27 27c2.8 2.8 7.12 3 10.14 0 3.02-3 2.8-7.3 0-10.1zm-42.66 5.04v-54.2c0-3.97-3.05-7.17-7.17-7.17s-7.16 3.2-7.16 7.16v54.2c0 3.97 2.8 7.16 7.1 7.16s7.1-3.2 7.1-7.15zm60.7-53.7v54.2c0 3.97 2.9 7.17 7.16 7.17 4.27 0 7.17-3.2 7.17-7.16v-54.2c0-3.96-3.05-7.16-7.17-7.16s-7.17 3.2-7.17 7.15zm137 54.2v-54.2c0-3.95 3.04-7.15 7.16-7.15 4.1 0 7.16 3.2 7.16 7.15v54.2c0 3.97-2.9 7.17-7.16 7.17-4.28 0-7.17-3.2-7.17-7.16zm319.03-60.77c3.82 0 6.4 2.57 6.4 6.4v54.58c0 3.53-2.82 6.3-6.4 6.3-3.48 0-6.3-2.83-6.3-6.3v-29.1l-14.87 31.85c-1.07 2.25-3.1 3.54-5.55 3.54-2.57 0-4.33-1.1-5.53-3.5l-15.07-31.9v29.02c0 3.4-2.93 6.3-6.4 6.3-3.42 0-6.3-2.9-6.3-6.4v-54.6c0-3.6 2.77-6.3 6.3-6.3 2.57 0 4.44 1.2 5.9 3.8l20.92 43.3.18.4 20.88-43.67c1.2-2.48 3.4-3.95 5.9-3.95zm-106.72-.38c19.26 0 33.78 14.62 33.78 34.02 0 19.4-14.5 34.02-33.7 34.02-19.2 0-33.8-14.63-33.8-34.02 0-19.4 14.6-34.02 33.8-34.02zm0 55.9c10.12 0 20.36-7.52 20.36-21.88 0-10.87-7-21.87-20.4-21.87-10.1 0-20.4 7.5-20.4 21.87 0 10.87 7 21.87 20.3 21.87zm-66.75-43.42c-11.85 0-20.13 8.86-20.13 21.54s8.28 21.53 20.13 21.53c6.42 0 10.26-2.52 13.65-5.1 1.5-1.04 2.93-1.54 4.38-1.54 3.5 0 6.2 2.66 6.2 6.2 0 1.64-.7 3.12-2.1 4.52-5.1 5.26-13.3 8.4-22 8.4-19.8 0-33.6-13.98-33.6-34 0-20.04 13.8-34.03 33.6-34.03 8.7 0 17 3.15 22.1 8.44 1.4 1.38 2.1 2.85 2.1 4.5 0 3.52-2.63 6.2-6.1 6.2-1.45 0-2.85-.5-4.3-1.48-3.57-2.73-7.32-5.18-13.74-5.18z"/>
    <path fill="#0097A9" d="M393.86 262.8c4.77 3.52 5.8 10.26 2.27 15.02-15.58 21.06-37.4 38.65-63.12 50.86-26.3 12.48-56.2 19.07-86.7 19.07-34.9 0-68.7-8.57-97.7-24.8-28.6-15.95-50.8-38.37-64.3-64.8-9.4-18.4-14.1-38-14.1-58.23 0-20.2 4.8-39.8 14.2-58.23 9-17.7 21.9-33.5 38.2-47 33.2-27.5 77.2-42.6 123.88-42.6 30.5 0 60.57 6.6 86.9 19.1 25.78 12.2 47.6 29.9 63.18 51.1 3.5 4.7 2.5 11.5-2.3 15-1.84 1.3-4.04 2.1-6.34 2.1-3.4 0-6.62-1.7-8.64-4.4-13.45-18.3-32.5-33.7-55.07-44.4-23.5-11.2-50.32-17.1-77.63-17.1-31.3 0-61.5 7.6-87.24 22-24.8 13.9-44.04 33.2-55.6 55.8-7.82 15.4-11.8 31.7-11.8 48.5s4 33.1 11.82 48.5c7.66 15 18.68 28.5 32.74 40.2 29.3 24.3 68.36 37.7 110.04 37.7 27.3 0 54.1-5.9 77.5-17 22.54-10.7 41.58-26 55.06-44.2 2-2.8 5.26-4.4 8.66-4.4 2.3 0 4.5.7 6.37 2.1zm17.2-71.24c6.53 0 11.84 5.3 11.84 11.82 0 6.52-5.3 11.82-11.84 11.82-6.53 0-11.84-5.3-11.84-11.82 0-6.52 5.3-11.82 11.84-11.82z"/>
  </g>
</svg>
