<svg xmlns="http://www.w3.org/2000/svg" viewBox="0 0 20000 3620">
  <path fill="#4869ab" d="M452 2175a204 204 0 1 1-381-140L479 900a206 206 0 1 1 385 144L448 2178"/>
  <path fill="#678dcc" d="M1155 2473a268 268 0 1 1-503-185l564-1534a265 265 0 1 1 498 181l-559 1538"/>
  <path fill="#688f7d" d="M2039 2832a359 359 0 1 1-672-245l733-2018a359 359 0 1 1 672 245l-733 2018"/>
  <path fill="#e66d19" d="M3145 3286a473 473 0 1 1-887-325l959-2627a473 473 0 1 1 888 325l-960 2627"/>
  <path fill="#4869ab" d="M5148 1207l462 1233 465-1232h265v1462h-186V1453l-460 1217h-164l-461-1217h-8v1217h-181V1207h264m2381 1459a246 246 0 0 1-125 26 151 151 0 0 1-110-37c-26-23-37-65-37-121a416 416 0 0 1-166 120 552 552 0 0 1-340 23 317 317 0 0 1-114-49 246 246 0 0 1-75-94 306 306 0 0 1-30-136 284 284 0 0 1 113-238 370 370 0 0 1 113-57 1380 1380 0 0 1 269-53c45 0 83-11 113-19a189 189 0 0 0 80-38 100 100 0 0 0 30-75c0-38-8-68-23-91a151 151 0 0 0-57-57 227 227 0 0 0-75-22 567 567 0 0 0-84-8c-75 0-132 15-180 42-50 30-77 83-84 158h-174a378 378 0 0 1 42-162 310 310 0 0 1 98-114c41-26 87-45 140-56a990 990 0 0 1 310-8c49 4 94 20 132 38 38 23 68 53 90 90 23 39 38 88 38 152v540l4 90c4 20 23 31 50 31 14 0 33 0 52-7v132m-283-540a220 220 0 0 1-87 37l-114 15-113 16-110 30a193 193 0 0 0-75 60 162 162 0 0 0-30 102 144 144 0 0 0 64 121l64 27 76 7c60 0 110-7 150-22 39-20 76-38 100-61a234 234 0 0 0 56-76 196 196 0 0 0 19-79zm608-514v170h4a372 372 0 0 1 344-193c72 0 128 7 177 26 46 20 84 46 114 80 26 38 45 75 56 124 12 46 20 99 20 155v696h-175v-718a212 212 0 0 0-56-151 212 212 0 0 0-159-60 355 355 0 0 0-140 26c-38 15-72 37-94 68a302 302 0 0 0-60 105c-12 38-20 87-20 133v597h-173V1612h162m1111 0v143a265 265 0 0 1 136-128 530 530 0 0 1 204-38c83 0 151 15 216 45 60 30 113 68 150 121 39 50 73 110 91 178a726 726 0 0 1 0 427c-18 64-49 124-90 174-38 49-91 87-151 117a491 491 0 0 1-299 38 484 484 0 0 1-94-30 370 370 0 0 1-91-50 280 280 0 0 1-68-75h-4v536h-178V1612h178m624 377a390 390 0 0 0-60-128 291 291 0 0 0-246-120 302 302 0 0 0-152 37 302 302 0 0 0-102 90 378 378 0 0 0-53 129 616 616 0 0 0 0 295c12 49 30 90 57 128a299 299 0 0 0 257 121c60 0 113-11 151-34s76-53 98-90c23-38 42-84 53-133a662 662 0 0 0-3-295zm351-64a461 461 0 0 1 260-295c65-30 140-41 224-41 83 0 158 11 219 41a465 465 0 0 1 264 295 707 707 0 0 1 0 435 528 528 0 0 1-102 174 453 453 0 0 1-162 117c-60 30-136 41-220 41-82 0-158-11-222-37a453 453 0 0 1-163-121 491 491 0 0 1-98-174 707 707 0 0 1 0-435m178 390c19 49 37 90 71 124a306 306 0 0 0 235 102 314 314 0 0 0 302-227c19-49 26-105 26-170 0-64-7-120-26-173a370 370 0 0 0-72-125 302 302 0 0 0-230-106 314 314 0 0 0-235 106 370 370 0 0 0-71 125 529 529 0 0 0-27 173c0 65 12 121 27 170zm1836 358l-215-842-216 842h-189l-340-1058h190l241 866h4l215-870h190l222 870h4l238-870h181l-340 1059h-185m1360-65c-75 60-177 87-298 87-83 0-159-11-220-37a549 549 0 0 1-158-114 537 537 0 0 1-94-177 846 846 0 0 1-38-227c0-76 15-151 38-220 26-67 60-124 105-173a469 469 0 0 1 356-155 418 418 0 0 1 385 207c38 57 64 125 76 193 15 76 22 140 19 205h-794a391 391 0 0 0 76 245c30 30 64 57 105 76 42 19 91 26 152 26a302 302 0 0 0 180-49c46-38 77-87 92-155h173a420 420 0 0 1-150 265m-46-680a302 302 0 0 0-276-182 302 302 0 0 0-125 27c-37 15-68 37-90 64a310 310 0 0 0-65 94c-15 38-22 76-26 114h608c0-38-10-76-26-114zm555-310v226c46-90 99-150 160-192 60-42 139-60 233-57v181c-71 0-128 12-177 30a280 280 0 0 0-121 84 348 348 0 0 0-64 136 661 661 0 0 0-23 181v472h-174V1615h166m1460 1040a692 692 0 0 1-772-174 714 714 0 0 1-136-235 824 824 0 0 1-45-280c0-105 11-207 41-302 30-98 76-180 133-253a635 635 0 0 1 521-238c76 0 151 12 227 27a518 518 0 0 1 329 238c37 60 60 136 75 223h-196a385 385 0 0 0-53-148 344 344 0 0 0-98-98 360 360 0 0 0-129-57 597 597 0 0 0-155-22 457 457 0 0 0-385 192c-38 60-68 129-87 200-20 76-30 152-30 227 0 80 10 152 34 227 22 68 52 129 94 182a465 465 0 0 0 374 177c76 0 144-11 204-38a427 427 0 0 0 238-249c23-60 30-120 27-189h-465v-162h642v770h-124l-53-185a502 502 0 0 1-212 167m778-1043v226c46-90 99-150 160-192 60-42 139-60 233-57v181a520 520 0 0 0-180 30 280 280 0 0 0-114 84 348 348 0 0 0-68 136 661 661 0 0 0-23 181v472h-174V1615h166m454 310a465 465 0 0 1 260-295c65-30 140-41 224-41 83 0 158 11 219 41a465 465 0 0 1 260 295 707 707 0 0 1 0 435 463 463 0 0 1-98 174 453 453 0 0 1-162 117c-60 30-136 41-220 41-82 0-158-11-222-37a453 453 0 0 1-163-121 520 520 0 0 1-98-174 707 707 0 0 1 0-435m178 390c18 49 37 90 71 124a302 302 0 0 0 235 102 314 314 0 0 0 302-227c19-49 26-105 26-170 0-64-7-120-26-173a370 370 0 0 0-72-125 302 302 0 0 0-230-106 314 314 0 0 0-235 106 370 370 0 0 0-71 125 529 529 0 0 0-27 173c0 65 8 121 27 170zm1692 358v-170a374 374 0 0 1-143 144c-57 30-125 45-204 45-68 0-129-7-174-26a276 276 0 0 1-174-200 658 658 0 0 1-15-155v-700h174v719c0 64 19 117 57 154 37 38 90 57 158 57 53 0 99-7 136-22 38-20 76-38 99-72a302 302 0 0 0 60-106c11-38 19-83 19-132v-597h174v1058h-167m567-1058v143h4a265 265 0 0 1 136-128c60-27 129-38 204-38a435 435 0 0 1 367 166c38 50 68 110 90 178a726 726 0 0 1 0 427c-18 64-49 124-90 174-38 49-91 87-151 117a491 491 0 0 1-303 38 484 484 0 0 1-94-30 370 370 0 0 1-87-50 280 280 0 0 1-72-75v536h-178V1612h174m628 377a390 390 0 0 0-60-128 291 291 0 0 0-250-120 302 302 0 0 0-151 37 302 302 0 0 0-99 90 378 378 0 0 0-56 129 616 616 0 0 0 0 295c15 49 34 90 60 128a299 299 0 0 0 257 121c60 0 113-11 151-34s72-53 98-90c23-38 38-84 53-133 8-49 15-98 15-150 0-50-7-100-18-145zm71-695a155 155 0 0 1 144-94 155 155 0 0 1 155 150 151 151 0 0 1-45 114 151 151 0 0 1-114 46 159 159 0 0 1-106-42 159 159 0 0 1-37-174m26 114a128 128 0 0 0 68 71c19 8 38 8 53 8a125 125 0 0 0 90-38 128 128 0 0 0 27-41 140 140 0 0 0 11-53 136 136 0 0 0-37-95 128 128 0 0 0-144-26 128 128 0 0 0-68 68 144 144 0 0 0 0 106zm129-144c22 0 37 4 49 11 11 12 15 23 15 38 0 19 0 30-12 38a60 60 0 0 1-37 15l56 80h-34l-49-76h-30v75h-26v-181zm-12 80h34l12-12v-30a23 23 0 0 0-8-12 38 38 0 0 0-15 0l-15-3h-38v56z"/>
</svg>
