<?xml version="1.0" encoding="UTF-8" standalone="no"?>
<!-- Generator: Adobe Illustrator 15.0.0, SVG Export Plug-In . SVG Version: 6.00 Build 0)  -->

<svg
   xmlns:dc="http://purl.org/dc/elements/1.1/"
   xmlns:cc="http://creativecommons.org/ns#"
   xmlns:rdf="http://www.w3.org/1999/02/22-rdf-syntax-ns#"
   xmlns:svg="http://www.w3.org/2000/svg"
   xmlns="http://www.w3.org/2000/svg"
   xmlns:sodipodi="http://sodipodi.sourceforge.net/DTD/sodipodi-0.dtd"
   xmlns:inkscape="http://www.inkscape.org/namespaces/inkscape"
   version="1.1"
   id="Layer_1"
   x="0px"
   y="0px"
   width="201.2308"
   height="65.702003"
   viewBox="0 0 201.23081 65.702005"
   enable-background="new 0 0 200 28.873"
   xml:space="preserve"
   sodipodi:docname="mergado.svg"
   inkscape:export-filename="/home/terezievahalova/Stažené/mergado.png"
   inkscape:export-xdpi="96"
   inkscape:export-ydpi="96"
   inkscape:version="0.92.2 2405546, 2018-03-11"><metadata
   id="metadata17"><rdf:RDF><cc:Work
       rdf:about=""><dc:format>image/svg+xml</dc:format><dc:type
         rdf:resource="http://purl.org/dc/dcmitype/StillImage" /></cc:Work></rdf:RDF></metadata><defs
   id="defs15" /><sodipodi:namedview
   pagecolor="#ffffff"
   bordercolor="#666666"
   borderopacity="1"
   objecttolerance="10"
   gridtolerance="10"
   guidetolerance="10"
   inkscape:pageopacity="0"
   inkscape:pageshadow="2"
   inkscape:window-width="1920"
   inkscape:window-height="1016"
   id="namedview13"
   showgrid="false"
   inkscape:zoom="3.3941125"
   inkscape:cx="25.886461"
   inkscape:cy="36.854743"
   inkscape:window-x="0"
   inkscape:window-y="27"
   inkscape:window-maximized="1"
   inkscape:current-layer="Layer_1" />
<rect
   style="opacity:1;fill:#ffffff;fill-opacity:1;stroke:none;stroke-width:2.37524199;stroke-linecap:round;stroke-linejoin:round;stroke-miterlimit:4;stroke-dasharray:none;stroke-dashoffset:21.1607151;stroke-opacity:0.99044584;paint-order:normal"
   id="rect819"
   width="200.92418"
   height="76.013977"
   x="0"
   y="-10.311971" /><g
   id="g8"
   transform="translate(-0.012,13.258782)">
	<polygon
   points="28.873,28.873 0.012,0.012 0.012,28.873 "
   id="polygon2"
   style="fill:#7fbb42" />
	<polygon
   points="0,28.861 28.861,0 28.861,28.861 "
   id="polygon4"
   style="fill:#06a9b8" />
	<polygon
   points="14.435,14.418 28.87,28.861 0,28.861 "
   id="polygon6"
   style="fill:#0c7c3e" />
</g>
<path
   d="m 65.202,38.541782 -0.015,-12.727 -6.582,7.315 -6.583,-7.315 v 12.727 h -4.39 v -21.945 h 1.464 l 9.51,10.827 9.522,-10.827 h 1.462 v 21.945 z m 12.748,-17.848 v 4.681 h 8.792 v 4.083 H 77.95 v 4.988 h 11.703 v 4.097 H 73.562 v -21.93 l 16.122,-0.016 v 4.097 z m 28.377,8.282 5.473,9.566 h -5.034 l -5.251,-9.069 h -4.01 v 9.069 h -4.388 v -21.945 h 9.568 c 5.121,0 7.681,2.107 7.681,6.321 -0.001,3.171 -1.348,5.188 -4.039,6.058 z m -2.633,-8.266 h -6.189 v 4.665 h 6.146 c 1.766,-0.029 2.673,-0.832 2.721,-2.412 -0.049,-1.444 -0.943,-2.196 -2.678,-2.253 z m 20.205,8.763 v -4.098 h 7.314 v 10.241 c -2.234,1.952 -4.921,2.927 -8.061,2.927 -3.103,-0.009 -5.704,-1.06 -7.806,-3.152 -2.101,-2.092 -3.151,-4.713 -3.151,-7.863 0.009,-3.083 1.063,-5.675 3.158,-7.776 2.098,-2.103 4.696,-3.154 7.799,-3.154 3.131,0 5.818,0.976 8.061,2.927 l -2.925,3.204 c -1.491,-1.172 -3.203,-1.756 -5.135,-1.756 -1.97,0.009 -3.559,0.624 -4.761,1.843 -1.206,1.22 -1.808,2.779 -1.808,4.682 0.01,2.039 0.618,3.656 1.827,4.857 1.21,1.199 2.801,1.799 4.77,1.799 1.58,0 2.795,-0.311 3.645,-0.937 v -3.76 z m 26.178,9.069 -1.315,-3.363 h -9.949 l -1.317,3.363 h -4.682 l 8.778,-21.945 h 4.389 l 8.763,21.931 z m -6.174,-16.092 -3.337,8.339 h 6.584 z m 21.423,16.092 h -8.456 v -21.96 h 8.456 c 6.828,0 10.241,3.664 10.241,10.987 0,7.317 -3.413,10.973 -10.241,10.973 z m 0,-17.554 h -4.065 v 13.181 h 4.065 c 3.892,-0.011 5.842,-2.209 5.853,-6.6 -0.011,-4.388 -1.962,-6.581 -5.853,-6.581 z m 31.517,14.409 c -2.098,2.098 -4.708,3.146 -7.829,3.146 -3.121,0 -5.729,-1.051 -7.827,-3.152 -2.097,-2.103 -3.146,-4.708 -3.146,-7.82 0,-3.121 1.049,-5.729 3.146,-7.825 2.098,-2.098 4.706,-3.147 7.827,-3.147 3.121,0 5.731,1.049 7.829,3.147 2.096,2.096 3.145,4.704 3.145,7.825 0,3.121 -1.049,5.73 -3.145,7.826 z m -3.073,-12.726 c -1.22,-1.317 -2.809,-1.977 -4.77,-1.977 -1.94,0 -3.521,0.659 -4.74,1.977 -1.22,1.315 -1.828,2.95 -1.828,4.899 0,1.953 0.608,3.584 1.828,4.901 1.22,1.317 2.808,1.975 4.77,1.975 1.94,0 3.521,-0.657 4.74,-1.975 1.218,-1.317 1.827,-2.948 1.827,-4.901 0,-1.949 -0.609,-3.584 -1.827,-4.899 z m 0,0"
   id="path10"
   inkscape:connector-curvature="0"
   style="fill:#343434" />
</svg>