<svg xmlns="http://www.w3.org/2000/svg" viewBox="0 0 500 200"><g fill="#009d95" stroke-width=".3"><path d="M88.08 137.5h75c0 20.7-16.8 37.5-37.5 37.5s-37.5-16.8-37.5-37.5m0-75c0-20.7 16.8-37.5 37.5-37.5s37.5 16.8 37.5 37.5h-75m75 0c20.7 0 37.5 16.8 37.5 37.5s-16.8 37.5-37.5 37.5c0-20.7-16.8-37.5-37.5-37.5 20.7 0 37.5-16.8 37.5-37.5M50.58 100c0-20.7 16.78-37.5 37.5-37.5 0 20.7 16.78 37.5 37.5 37.5-20.72 0-37.5 16.8-37.5 37.5-20.72 0-37.5-16.8-37.5-37.5"/><path d="M371.74 132.72c-11.15 7.63-29.26 8.02-40.5.5-6.56-5.1-8.7-12.55-8.6-20.57h15.25c-.3 5 1.36 10.2 6.15 12.54 4.8 2.14 11.84 1.36 16.24-1.78 2.34-1.75 3.32-4.3 3.42-7.04 0-2.64-1.47-4.9-3.63-6.45-8.32-4.6-18.6-4.4-26.23-10.57-6.16-4.5-9.97-11.05-8.9-18.88.7-7.44 7.05-14.28 13.8-17.12 9.98-4.5 24.16-4.3 32.48 3.82 4.7 4.5 6.45 10.17 6.55 16.63h-14.38c-.4-3.9-1.76-8.1-5.58-9.87-4.1-1.76-9.78-1.67-13.5.87-3.23 2.35-4.1 6.17-3.23 9.78.8 3.04 4.12 5.1 6.76 6.08 11.94 4.4 30.82 6.25 31.7 22.8.4 7.72-1.76 14.47-7.82 19.26m-71.22 3.82v-.72l.02-50.95c-7.73 16.93-15.43 34.48-22.77 51.6h-1.04l-21.82-51.6-.28.68.03 50.97h-16.33l-.03-74.35h23.98l14.98 37.57 15.62-37.62c7.3 0 16.82.03 23.72 0l.03 74.42h-16.1zm85.3-74.42l23.76-.1c20.8.17 39.7 11.84 39.84 39.13.17 28.16-24.28 35.37-43.86 35.22l-19.72.23V62.12zm16.36 60.93l5.06.05c5.72-.08 25.76-1.53 25.8-21.95.04-25.33-19.2-24.7-25.8-24.82h-5.08l.02 46.72" fill-rule="evenodd"/></g></svg>