<svg xmlns="http://www.w3.org/2000/svg" viewBox="0 0 3006 2862">
  <path fill="#194787" d="m2612 0-137 136h395v394l136-136V0Z"/>
  <path fill="#ed1c24" d="M0 0v394l136 136V136h394L394 0Z"/>
  <path fill="#00adef" d="M0 2468v394h394l136-136H136v-394z"/>
  <path fill="#9e0b0f" d="M2870 2726h-395l137 136h394v-394l-136-136z"/>
  <path fill="#194787" d="M2195 1126h125v252l237-252h165l-251 252 264 360h-164l-189-267-62 62v205h-125zm-212 0h133l-209 612h-120l-207-612h136l133 465zm-833 423c4 28 12 49 23 63 21 25 58 38 109 38 31 0 56-4 75-10 37-13 55-37 55-71 0-21-9-36-27-47s-46-21-85-29l-66-14c-65-15-110-30-135-47-41-29-61-73-61-133 0-55 20-100 60-137 41-36 100-54 178-54 65 0 121 17 167 51 46 35 70 84 73 149h-123c-3-37-19-63-50-78-20-10-46-16-76-16-34 0-61 7-81 20a63 63 0 0 0-30 56c0 22 10 38 30 49 13 7 40 16 81 25l108 26c47 11 82 26 106 44 36 29 54 71 54 125 0 56-21 103-65 140-43 37-104 55-183 55-80 0-144-18-190-55-46-36-69-86-69-150zm-395-423h184v612H820v-414a5779 5779 0 0 1 1-100l-116 514H580l-115-514a4421 4421 0 0 0 1 100v414H347v-612h186l111 481z"/>
</svg>
