<svg xmlns="http://www.w3.org/2000/svg" viewBox="0 0 120 63">
  <path fill="#e5d1b0" d="M69.8 14.02l.18.19a5.79 5.79 0 0 0-6.42-5.87l1.49 4.03.01-.04h.1l.05.53-.08-.08-3.44 1.27-1.7-4.6-.02.02-.36-.95a5.83 5.83 0 0 0-10.72-.48c.01.1 0 .2-.11.24a5.8 5.8 0 0 0-.1 4.27l.35.94-.94.35c-.16.06-.32.12-.47.2l-1.49.54c0 .08-.02.17-.07.33a.27.27 0 0 1-.12-.25l-1.29.47a3.43 3.43 0 0 0-2.03 4.4L44.27 24a3.42 3.42 0 0 0 3.22 2.23l-.05-.22.08-.01c-.01.08.02.16.07.23.36-.01.72-.07 1.08-.2l6.15-2.26 2.26-.83.02-.2.13.14 4.14-1.52.01-.03.16-.36c-.01.15-.03.26-.05.34L64 20.4h.01l-.41-1.14-.16-.45c-.09.16-.3.2-.4.34a.26.26 0 0 0-.05.1l-.06-.04.05-.08.38-.5-.63-1.74-.07.02-.08-.36.03.02-.38-1.04 3.5-1.28 1.73 4.68a5.83 5.83 0 0 0 2.51-4.58l-.35.06.18-.38m-9.68.85c.1.16-.15.36-.58.43l.58-.43m-1.54-2.41l.89 2.4-6.5 2.4-6.49 2.38-.72-1.96-.04.02.02-.07-.14-.4 4.91-1.8.56-.21.95-.35zm-6.87 6.74l-.01.06c-.07 0-.16 0-.22-.03-.04-.03-.06-.11-.08-.17l.04-.04.27.18m-3.94 1.05l.1-.45c.17.22.17.23-.1.44m2.13 3.54c-.02.11-.2.2-.33.3a.65.65 0 0 1 0-.52c.06-.1.13-.2.22-.29l.06.18c.04.12.07.23.05.33m-3.79-.66l.11-.82h.04c.03.2.08.41.08.62 0 .05-.11.1-.22.2m7.86-9.61c.2.03.2.03.18.37l-.18-.37m2.05-2.14l.18-.49.1.05-.22.47-.06-.03m1.8-4.76c0 .09-.06.18-.1.27l-.05-.02-.1-.4c.12.07.23.1.24.16m-4.88.64a3.47 3.47 0 0 1 4.48 2.06l.36.95-.21.07-.05.32h-.05l.03-.3-6.28 2.32-.34-.94a3.5 3.5 0 0 1 2.06-4.48m-3 1.35l-.08-.03.2-.48c.24.31-.12.33-.12.5m-.06-1.33c.21.14.14.26.05.41-.26-.14-.07-.26-.05-.41M43.52 20l-.03-.54h.11l.03.54h-.11m.7-3.21l.1-.5c.15.2.1.37-.1.5m3.77 8.77l-.07-.02.02-.26.29.07-.24.2m6.4-2.94l-.05-.53.11.06.09.04-.04.14-.11.3m-1.94-.47c-.14.11-.32.15-.43.29l-.06-.08.1-.06L48 23.78l-.98-2.67 4.92-1.8.23-.1L57 17.45l.33-.12c-.07-.15-.12-.29-.19-.4-.1-.17 0-.23.1-.28.06.2.13.36.16.52a.3.3 0 0 1-.01.14l2.62-.97.98 2.68zm10.37-1.35l-.06-.05.29-.36c.13.35-.13.3-.23.41m.28-.85l-.05-.02c0-.07-.03-.16-.01-.23l.01-.03.08-.12c.04.07.1.13.1.19l-.02.03c-.02.07-.07.13-.1.18m.63-.17c.1.22.13.34.07.43-.07.07-.2.13-.45.2l.02-.35c.13.33.22 0 .32.06l.04-.34m.17-5.77l.08-.58c.23.11.27.05-.08.58m2.58-1.03a.48.48 0 0 0-.06-.01l.1-.63c.16.15.28.23.08.38-.07.06-.08.17-.12.26m.18 1.68c.07-.32.2-.44.38-.33l-.38.33m1.3 1.75c-.11-.22.11-.3.16-.44.02-.05.13-.06.2-.1l.03.1-.4.44m.72.23l.04-.49c.3.3.3.32-.04.49m.44-2.43l.27.3c-.2.07-.21.05-.27-.3"/>
  <path fill="#665031" d="M31.33 32.23a4.2 4.2 0 0 0-.55-.8l-.23-.2c-.05-.05-.12-.07-.17-.1-.07 0-.18.02-.23.1a.68.68 0 0 0-.1.45v.03h.05c.03 0 .05-.03.07-.03.06 0 .1.05.13.1.03.07.03.15.03.2-.03.18-.05.33-.1.48-.13.37-.26.76-.4 1.1a6.08 6.08 0 0 1-.94 1.56c-.3.36-.63.71-.98 1.04l-.76.7-1.12.9-1.66 1.16c-.06.03-.13.06-.18.1-.03 0-.05-.02-.05-.04v-.1c0-.29.02-.53.05-.81l.07-.98.08-1.01.07-.77c0-.19.03-.34.03-.51v-.1c.05-.23.05-.48.07-.72l.1-.58.1-.71.08-.58c.05-.28.05-.56.07-.83 0-.28 0-.56-.04-.83 0-.12-.03-.23-.05-.36l-.1-.24a.45.45 0 0 0-.3-.23.98.98 0 0 0-.26-.05c-.2 0-.4 0-.6.03a10.47 10.47 0 0 0-2.14.43c-.14.04-.17.04-.22.22 0 .02 0 .05-.03.07-.07.3-.1.6-.14.88l-.06.58c-.05.28-.05.55-.07.83-.03.32-.06.65-.06 1.01-.05.55-.05 1.1-.07 1.66l-.03.55c0 .57-.03 1.15-.03 1.73l-.02 1.13v5.1c.02.77.05 1.55.05 2.32l.03.56c.02.14.07.27.2.35a2.4 2.4 0 0 0 1.03.38l.5.07c.22.03.48.03.7.03h.13c.05 0 .07-.03.1-.07 0-.08.03-.13.03-.19.05-.25.07-.52.1-.78.05-.43.07-.83.1-1.22a.43.43 0 0 0 .03-.19l.07-.83.05-.8.05-.3c0-.02.03-.02.03-.05l.02.03c.05.07.07.14.1.22.28.73.58 1.43.93 2.14a11.56 11.56 0 0 0 1.56 2.44c.18.15.35.3.58.4.15.07.3.13.48.13.35 0 .7-.03 1.05-.13a6.72 6.72 0 0 0 2.01-.95c.18-.16.36-.3.5-.48.08-.07.13-.15.18-.23l.03-.1c.02-.1 0-.18-.1-.22a.64.64 0 0 0-.22-.06c-.2 0-.39-.05-.58-.14a4.68 4.68 0 0 1-.68-.39c-.33-.22-.65-.47-.96-.72-.35-.33-.7-.63-1.03-.96-.5-.43-.96-.9-1.44-1.38l-.95-1.01-.7-.75-.05-.05c-.03-.03-.03-.08.02-.1l.07-.06 1.29-.72 2.59-1.52 3-1.73c.14-.1.3-.17.44-.25.1-.07.2-.18.23-.3.03-.05.05-.1.05-.14.05-.21.05-.42.05-.61a8 8 0 0 0-.98-3.2m-7.07 2.52c.03 0 .05 0 .05.02 0 .03 0 .03.03.05 0 .03 0 .05-.03.1 0 .03-.02.05-.05.05-.07.03-.12-.02-.12-.1.02-.07.05-.1.12-.12m-3.47 7.79v-.02c0-.03 0-.03.03-.03 0 0 .03 0 .03.03s-.03.02-.06.02m.1-.27l-.02-.03v-.07c.03 0 .05.02.05.07zm1.21-4.28h-.05l-.03-.03h.03c.02 0 .02 0 .05.03m-.07-1.3c0 .02 0 .05-.03.05-.05 0-.07-.05-.13-.08.06 0 .11 0 .15.03m-.07 2.94l-.03.02c-.02 0-.02-.02 0-.02v-.03c.03 0 .03.03.03.03m-.27-6.8c-.03.03-.05.03-.08.03-.05-.03-.08-.05-.08-.07 0-.05.03-.07.08-.07.03 0 .05 0 .05.02.05.02.05.07.03.1m-.08 6.41c0 .02-.02.02-.02.02v-.02s0-.03.02 0m.03.3l.02.2c0 .05-.02.07-.05.07-.02.03-.05.03-.08 0l-.07-.12c-.03-.02-.03-.02-.03-.05l.03-.07a.17.17 0 0 1 .1-.05c.03 0 .07 0 .07.02m-.1-7.77l.03-.02c.03 0 .03.02.03.02.02.03.02.07.02.07 0 .08 0 .13-.02.16-.03.02-.06.02-.06 0l-.02-.03a.28.28 0 0 1 .02-.2m-.4.03l.03.02c0 .03-.03.07-.03.05-.02 0-.02-.02-.05-.02 0-.03.03-.05.05-.05m-.14 5.6c0-.02.02-.05.04-.05 0 0 .03.03.03.06v.14c-.03.03-.03.03-.05.03 0 0-.03 0-.03-.03v-.14zm.07.38v.02c-.03.03-.03.03-.05.03v-.05s.02-.03.05 0m.07 6.16c-.07.03-.1.07-.14.13h-.04c0-.07.07-.18.14-.18l.03.03v.02zm-.05-5.23c0-.03 0-.03.03-.03v.03l-.03.15c-.02-.05-.05-.1 0-.15m-.02-.5v-.05l.02-.02h.03c.1.02.2.04.32.02 0-.02.03 0 .03 0 .02.03.02.05 0 .07-.03.03-.06.05-.13.05-.07-.02-.17-.02-.27-.07m.34 2.77c-.02 0-.02-.03-.02-.03v-.02l.2-.08c.03 0 .06 0 .06.02v.06c-.03 0-.03.02-.05.05-.08 0-.13.02-.19 0m.13 2.86l.03-.02c.03 0 .03 0 .03.02.02.03.02.07.02.1v.07c0 .06-.05.08-.05.08l-.05-.05c0-.07 0-.14.02-.2m.06 1.36v-.03c.02 0 .02.03.02.03zm.1-.3c-.03.02-.1.02-.13-.03a.09.09 0 0 1 0-.1h.05c.03 0 .05 0 .05.02.05.03.05.08.03.11m.32-3.92l-.03.07c0 .02-.02.05 0 .07 0 .03-.02.03-.02.03h-.03v-.03l.05-.07a.14.14 0 0 1-.12-.07v-.05c0-.03.03-.03.05-.06.03 0 .05.03.07.03.05 0 .05.05.03.07m.05-.65c0 .05-.03.07-.07.07-.05-.02-.08-.02-.1.03-.03.02-.05.02-.1 0 0 0-.03 0-.03-.02-.02.05-.05.07-.1.05-.05 0-.07.02-.1.07 0 .02-.03.02-.08.02-.02 0-.05-.02-.05-.07v-.05l.08-.1h.2a.35.35 0 0 1 0-.23c0-.02.05-.07.07-.05.08.03.16.05.21.05.1.05.12.13.07.23m.13.86c-.03.02-.06.02-.08 0 0 0-.03-.03-.03-.05 0-.03.03-.03.03-.05l.05.02.03.03zm.02-4.99l-.02-.02c.02 0 .02-.02.02-.02 0-.03.03-.03.05 0 0 .02-.02.02-.05.05m.05-.15l-.02-.03.02-.02c.03 0 .03.02.03.02s0 .03-.03.03m.08-.48c0 .02-.02.02-.05.02-.05-.02-.08-.05-.1-.12 0-.03.02-.03.02-.05h.03l.13.07c.02.03 0 .07-.03.07m1.36 2.72s0-.02.02-.02v.02c0 .03 0 .03-.02.03zm-.48-8.24v.02h-.03c0-.03 0-.03.03-.03m-.1 2.42c.03 0 .03 0 .03.03v.02h-.06c0-.02.03-.02.03-.05m-.15.18c.05-.03.12-.03.17-.03.15-.05.23.03.3.15.03 0 0 .05 0 .05l-.1.05c-.02-.03-.07-.03-.12-.03l-.05-.05c0-.07-.07-.07-.12-.04-.06 0-.08 0-.1-.03l-.03-.02c0-.03.02-.05.05-.05m.25 9.5c-.03 0-.03 0-.03-.03h.03c.02.03 0 .03 0 .03m-.13-4.1s0-.02.03-.02l.05.02c0 .03 0 .03-.03.05-.02 0-.05-.02-.05-.05m.05 6.5s0 .04-.02.04c0 0-.03 0-.03-.02l.03-.03s.03 0 .03.03m-.3-5.86l.01-.03h.03c0 .02 0 .02-.03.05l-.02-.03zm.01 5.05v.03h-.02zm-.02-5.28c-.03 0-.03-.03-.05-.05a.3.3 0 0 1 .05-.17c.02-.03.08-.03.1-.03.03.03.03.05.08.05a.3.3 0 0 1-.08.2c-.02.02-.05.02-.1 0m.13-.4s0 .02-.03.02v-.02zm-.03-.38h.03v.02zm-.18-5.28c0-.02 0-.05.03-.05 0-.03.05-.03.07 0 .03.03.06.05.03.07 0 .06-.03.08-.05.08h-.07v-.1zm-.12.93c.02 0 .05.02.05.07 0 .03 0 .03-.03.03-.05.02-.07 0-.07-.05 0-.03.03-.05.05-.05m-.13 4.6h-.02c-.03-.03-.03-.03 0-.05l.02.02v.04zm.03 6.64v-.02c.03 0 .03 0 .03.02zm0-12.07v-.02c.03 0 .03 0 .03.02zm.1 13c-.03 0-.05-.03-.05-.05 0-.02.02-.05.05-.05.02 0 .05.03.05.05 0 .05-.03.07-.05.05m.05-6.43c-.03 0-.03-.03-.03-.06 0-.02 0-.05.03-.05.02.03.05.03.05.05 0 .03-.03.05-.05.05m.2 5.44c0 .05-.03.07-.05.07h-.07v-.1c0-.03 0-.05.02-.05 0-.03.05-.03.07 0 .03.02.06.05.03.07m.55.8c-.02.06-.1.06-.12 0v-.01h.12zm-.02-.42c0 .02-.03.02-.03.02-.02 0-.05 0-.07.03-.03-.02-.05-.02-.1-.02-.02 0-.02-.03-.05-.06-.02-.07-.02-.07-.12-.07-.03.02-.06.02-.08.02l-.05-.04s0-.05.02-.05c.05-.03.13-.03.18-.03.2-.02.17-.05.32.13.03.02 0 .07-.02.07m.05-11.64c-.05.05-.1.05-.15.03v-.03c.05-.02.07-.05.12-.02h.03zm.28 6.06l-.23.15s-.03 0-.03-.03c0 0-.02 0 0-.02a.55.55 0 0 0 .13-.2c.03-.03.05-.05.08-.05.05-.03.1 0 .1.05l-.05.1m.47.48c.03 0 .03.05.03.05-.03.05-.05.05-.1.05l-.03-.03c.03-.05.05-.07.1-.07m-.17-8.93c.02 0 .07.02.07.08l-.02.02c-.05 0-.07 0-.1-.05 0 0 .02-.05.05-.05m.07 12.17c-.05.03-.12-.02-.12-.05 0-.03.02-.03.02-.05.05 0 .13.05.1.08zm.13-1.73c0 .02 0 .04-.03.04-.02-.02-.02-.05-.02-.07v-.03h.02v-.02c.03 0 .03 0 .03.03v.04zm-.07-.33v-.12c0-.03 0-.05.02-.03l.02.03v.05c0 .02 0 .05-.02.07h-.03zm.04-.65c0 .02-.03.02-.03.02h-.02l-.07-.15c0-.03.02-.03.02-.05.05-.03.1-.03.13 0 .02 0 .05.02.05.05 0 .05-.03.1-.08.13m5.99 5.9c.05 0 .1.05.07.1 0 .05-.04.1-.1.07-.04 0-.07-.04-.07-.09.03-.05.05-.1.1-.07m-3.04-1.36c0 .02 0 .02-.03.04a.05.05 0 0 1-.05-.04h-.03v-.07c.03 0 .03-.04.03-.06.02 0 .02-.02.05-.02l.02.02v.12zm.67 2.36c-.02-.03 0-.03 0-.03zm.33-.13s0 .03-.02.03c0 .02-.03.02-.05 0-.03 0-.05-.03-.07-.05 0 .02 0 .05-.03.07-.03.05-.03.05-.1.05l-.06-.22c0-.03.03-.05.05-.05.06 0 .08.02.1.02.1 0 .15.05.18.15m-.07-.8v.05c-.03.05-.05.05-.13.02h-.02c-.06.03-.1 0-.15-.02l-.08-.13-.07-.1c.02-.02.04-.07.1-.1.04 0 .07 0 .1.05v.03c.02.05.02.07.07.07h.13c.05.03.07.07.05.13m-.4-1.16v.05c-.03.1 0 .2.04.27l.05.02c.03 0 .05 0 .08-.02h.1c.03-.03.03 0 .05 0-.02.02-.02.02-.05.02-.02 0-.08 0-.1-.02.02.05.05.1.1.13.08.05.08.13.05.2-.05-.02-.1-.05-.15-.02-.07 0-.1.07-.15.12-.05 0-.07.03-.13.03-.02 0-.05-.05-.05-.1v-.03c.03-.02.03-.05.03-.05l-.07-.05c-.03-.03-.06-.05-.03-.1.02 0 .05-.03.05-.06.02-.02 0-.05-.03-.05l-.07-.02c-.03 0-.03-.02-.03-.02l.07-.07v-.08c-.01-.03-.04-.05-.07-.05 0-.03 0-.05.03-.05h.1c.02 0 .02 0 .02-.05v-.02c.03-.03.05-.03.1-.03.03-.03.07.02.05.05m-.32-.28v-.05h.02v.02l-.02.03zm.22-.28l.03.03c.02.1.02.17.02.25 0 .05-.05.07-.1.05h-.02c.02-.05 0-.1 0-.16-.03-.04 0-.12.05-.14zm-.27-.38l.2-.02c.02 0 .02.02.02.02.03 0 0 .03 0 .03v.03c-.05.05-.1.07-.2.07l-.22-.07c-.03 0-.03 0-.03-.03-.03 0 0-.03 0-.05h.02l.2.02m-.27-.57c0-.03.02-.03.02 0 0 0 0 .02.03.05h-.03c-.02 0-.02 0-.02-.03-.03 0-.03-.02 0-.02m-.4 1.08v.02c-.02 0-.02-.02-.02-.02zm-.18-1.13s.03 0 .03.02c.02 0 .02 0 0 .03h-.08zM26.1 43c.02 0 .07 0 .1.03.02.05.02.1 0 .13a.09.09 0 0 1-.1 0c-.02-.03-.05-.05-.05-.08-.02-.02 0-.07.05-.07m-.13.5l.05.05-.02.02-.05-.02c0-.03.03-.03.03-.05m-.08-.66h.03v.03h-.03v-.03zm-.07.86c.02 0 .05 0 .07.02 0 .03-.02.05-.05.05a.05.05 0 0 1-.05-.05c.03 0 .03-.02.03-.02M25.56 46c0-.04.08-.04.1-.02v.03c-.02.02-.04.02-.1.02 0 0-.02-.02 0-.02m-.2-1.77h.03v.02l-.07.05.04-.07m-.12-.25c0 .03 0 .05-.03.07V44c-.02-.02 0-.02.03-.02zm-.07-.38l.02-.02c.02 0 .02.02.02.05 0 0-.02.02-.05 0v-.03zm.07-3.92h.02v.03h-.02c-.03-.03 0-.03 0-.03m-.5.5c-.03.03-.06.03-.06.03-.07 0-.14-.02-.17-.08v-.05h.02c.07 0 .15 0 .2.05.03 0 .03.03.03.03zm.15-.17c-.06-.03-.08-.03-.08-.05 0-.02 0-.05.02-.05.06 0 .08.02.08.07 0 0-.02 0-.02.02m.25-1.05c-.03 0-.03 0-.03-.02 0 0 0-.03.03-.03.02 0 .02.03.02.03 0 .02-.02.02-.02.02m.1 1.26h-.03l.03-.02zm0-.18c-.05 0-.05-.03-.05-.05-.03-.02 0-.05.02-.05.05.03.05.03.07.07 0 .03-.04.06-.04.03m.2-.8c0 .05-.05.07-.1.1-.03 0-.03-.03-.03-.03a.23.23 0 0 1 .1-.1h.03zm.35-1.05c-.02.02-.05.02-.07 0v-.05c.02-.03.05-.06.07-.06.03 0 .03 0 .07.03l-.07.07m.13-.1c.02 0 .02 0 .02.03v.03h-.02c-.03 0-.03 0-.03-.03zm.02.22l-.02-.02.02-.02h.03c-.03.02-.03.02-.03.05m.46-.65h-.03l.03-.03v.02zm.7-.13c-.02.02-.05 0-.05-.02.03-.03.03-.03.05-.03 0 0 .03 0 .03.03zm.05.4v-.03c.03 0 .03 0 .03.03zm.37.63l-.02-.05c-.03-.03-.05-.03-.1-.03.05-.05.1-.07.17-.1 0 .05.03.1.03.13 0 .02-.03.05-.05.05zm.08.2h-.03c0-.02 0-.02.03-.02h.02c0 .02 0 .02-.02.02m.33-1.69c0 .03-.02.03-.05.03l-.02-.03c0-.02 0-.04.02-.07h.05c.02.02.02.05 0 .07m.37-.62c-.02.02-.07 0-.07-.03l.02-.05c.05 0 .08.03.08.05zm.16-.33h-.03l.03-.02zm.3 0c0-.02-.03-.02-.03-.02v-.03c0 .03.03.03.03.03zm.1 1.63l-.03-.02h.05c0 .02-.02.02-.02.02m.22-1.45c0 .02-.02.02-.02.02-.03-.05-.03-.12-.03-.17 0-.03.03-.05.03-.05.02 0 .02.02.02.02.03.07.03.13 0 .18m.08.48h-.02l.02-.03v.03zm1.03-2.47c-.05 0-.1-.03-.1-.07 0-.06.03-.08.05-.13.03-.03.07 0 .1 0 0 .05.03.07.03.1.02.07-.03.1-.07.1m.14 1.16h-.03c-.02 0-.02 0-.02-.03l.02-.02c.03 0 .06.02.03.05m.13-.15c0 .02-.03.02-.06.02v-.07h.08l-.02.05m.13-1.38l-.08.04h-.28l-.07-.02a.12.12 0 0 1 0-.2l.1-.03c.12-.02.22.03.33.1.02.03.02.1 0 .1m.22 1.59v-.03l.03-.02v.02c.02.03 0 .03-.03.03m.43-.38a.19.19 0 0 0-.05.1c.02.03.02.03.05.03.02.05.02.07 0 .12 0 .03-.05.05-.1.05l-.06-.02-.04-.07.02-.13c.02-.1.1-.15.2-.15 0 0 .03 0 .03.02-.03.02-.03.05-.05.05m11.23 11.69v-.2l-.08-.98-.07-.73-.08-.83c0-.17-.03-.35-.05-.53 0-.25-.03-.52-.06-.8l-.05-.5c-.05-.25-.05-.53-.07-.78-.05-.23-.05-.48-.07-.7l-.08-.86-.13-1.08-.02-.4c-.05-.38-.1-.76-.13-1.14l-.15-1a9.4 9.4 0 0 0-2.46-4.65c-.28-.26-.56-.51-.86-.73a.76.76 0 0 0-.48-.16 2.9 2.9 0 0 0-.8.03c-.46.05-.93.15-1.41.28l-.12.35c-.13.5-.2.98-.28 1.48l-.13.86-.17 1.48-.05.55-.07.68c-.03.13-.06.28-.06.4l-.07.79-.08.97c-.02.03-.02.08-.02.1l-.08.79-.05.8c-.05.36-.08.73-.1 1.08v.13l-.07.83c-.03.2-.06.43-.06.63-.02.1-.05.13-.14.13h-.18c-.2-.03-.4-.03-.6-.03-.1 0-.2.03-.34.05-.07 0-.12.05-.14.12-.03.18-.1.33-.15.48-.05.1-.08.2-.1.3-.05.1-.05.18-.05.28 0 .15.1.22.2.22.05 0 .07.03.12.03.33 0 .65 0 .98.03h.2c.03 0 .05.05.05.07 0 .03.03.03.03.05l-.05.6-.07 1.13-.08 1.09v.1c-.03.2-.03.4-.03.63 0 .17.08.32.2.42.15.15.36.28.56.36.32.12.68.17 1.03.22h.2c.02 0 .05 0 .05-.05l.07-.25.13-.7c.05-.4.1-.78.17-1.16l.1-.78c.05-.27.1-.56.13-.83l.12-.8c0-.07.03-.1.1-.13h1.2l.5-.02c.04 0 .1 0 .14.02.07 0 .13.03.13.07v.08c.02.27.05.56.05.83l.05.43c0 .37.05.73.05 1.1 0 .03.03.05.03.08 0 .1 0 .2.02.28v.27l.07.76c.03.3.08.58.13.85 0 .08.03.15.05.23.05.15.15.28.3.35.13.07.26.12.38.15.25.08.5.08.75.08.43-.03.86-.08 1.29-.15l.7-.13.15-.03c.03-.02.05-.05.05-.07.03-.1.03-.22.03-.33 0-.45 0-.9-.03-1.33-.05-.43-.07-.83-.1-1.26m-9.5-3.1h-.03c0-.01.03-.01.03-.04zm1.15.2h-.02c0-.01-.03-.04-.05-.04l-.03-.07h.03c.02-.03.05 0 .07.02 0 .03.03.05.03.07-.03 0-.03 0-.03.03m.07 3.4c-.02 0-.02 0-.02-.03h.03v.03zm.24-5c.02-.03.02-.03.05-.03l.02.05-.05.05h-.02l-.03-.03c0-.02.03-.05.03-.05m-.05.51c-.03 0-.06-.03-.06-.03-.02-.03-.02-.05-.02-.07l.02-.08.13-.07s.03 0 .03.02a.07.07 0 0 1 .02.05.29.29 0 0 1-.12.17m.17 2.6c-.02 0-.02-.03-.05-.03 0-.03.03-.03.03-.03.02 0 .02 0 .05.03zm.07-2.9v-.02c-.02 0 0-.03 0-.03l.03.03s0 .02-.02.02m.1-.27h-.03s-.02 0-.02-.03c.02 0 .02-.03.05-.03zm.77-9.5c.03 0 .03.04 0 .04 0 .05-.05.05-.1.02-.02-.02-.04-.07-.02-.1.03 0 .03-.02.05-.02zm-.07 7.06l-.03.02c-.02-.02-.02-.02 0-.05zm-.03.55c0 .03-.02.03-.02.03-.02.02-.05 0-.05-.03l.03-.02.04.02m-.04-8.5l.02-.02c0 .02.03.02.03.05l-.03.07h-.05c0-.05 0-.07.03-.1m-.53 5.54c0-.03 0-.03.02-.03l.02.03-.02.07c0 .02-.03.05-.03.02-.02 0-.02-.02-.02-.04 0 0 0-.03.03-.05m0 .37h.04v.02s-.02 0-.02.03c0-.03-.03-.03-.03-.05m.39.48c0 .02-.03.02-.05.02l-.26-.07c-.03-.03-.03-.03-.03-.05l.03-.02c.02 0 .05 0 .08.02a.5.5 0 0 0 .25 0c.03-.02.05 0 .05.02s0 .05-.02.05c0 .03-.03.03-.05.03m.1 1.33c.02.03.05.05.05.07 0 0-.03.03-.05.03 0 0-.03 0-.03-.02-.02-.03 0-.05.03-.07m0 4.42l.02-.07c0-.06.03-.06.05-.06 0 .03.03.03.03.05 0 .03 0 .05-.03.1h-.02c-.03 0-.05 0-.05-.02m.2.85c0 .05-.06.05-.1.02-.03-.02-.05-.07-.03-.1.03 0 .03-.02.05-.02l.07.05c.03 0 .03.05 0 .05m.26-3.74v-.1l.02.1c-.02.02-.02 0-.02 0m.05-.15l-.05.02v-.05c0-.02 0-.02.02-.02h.03c.03 0 0 .02 0 .05m.03-.76l-.19.18s-.05 0-.05-.03a.23.23 0 0 1-.09-.2c0-.05.04-.1.1-.1a.5.5 0 0 1 .23.07zm.02-2.27h-.02l.02-.02zm.1 3.25c-.05-.02-.07-.07-.05-.12h.03l.04.07c0 .03-.02.05-.02.05m.12-5.06h-.05c-.02-.04 0-.1.03-.12h.07a.2.2 0 0 0-.05.13m.03-.58c-.05-.03-.07-.05-.07-.1v-.03h.04l.1.13c-.02 0-.05.02-.07 0m2.33-.68c0 .02.03.02.03.05 0 0 0 .02-.03.02 0 .03-.02.03-.02 0l-.07-.1.1.03m-.43-.07c.03-.08.1-.13.18-.11.02 0 .05 0 .07.03l.05.1c-.02 0-.05 0-.07-.03-.05 0-.07.03-.07.07v.03c-.03.05-.03.05-.11.07-.05-.04-.07-.09-.05-.17m-.15-3.92h.02v.03h-.02v-.03zm-.9 1.73a.21.21 0 0 1 .17 0c.05.03.1.06.13.13v.02s0 .03-.03.03c-.02.02-.08.02-.1.02-.1-.02-.15-.07-.18-.17v-.02zm-.06-.14c.03-.03.03-.03.03 0 0 .02 0 .02-.03.02zm-.12.14l.02.06s0 .02-.02.02-.05 0-.07-.05c.02-.02.04-.05.07-.02m-.13-.25l.03.02c0 .05-.03.07-.03.1-.02-.02-.02-.05-.02-.1-.03 0 0-.02.03-.02m-.26 1c0-.03.02-.05.05-.05.02 0 .05.02.05.07-.03 0-.03.03-.05.03-.03.02-.05-.02-.05-.05m.12 5.66h-.02c-.03.02-.03 0-.03-.03 0-.02.03-.02.03-.02.02 0 .05.02.02.05m.15-.81h.03l.02.03v.1c0 .02-.03.05-.03.05 0 .02-.02.05-.05.02-.02 0-.02-.02-.05-.05 0-.05.03-.1.08-.14m1.74 5.32c0 .05-.03.1-.1.1-.06-.02-.1-.02-.15-.02l-1.11-.18-.3-.02c-.03-.03-.05-.03-.07-.03-.03-.02-.08-.05-.06-.07 0-.1 0-.2.03-.3l.1-.78c.07-.4.12-.83.17-1.23l.08-.56.13-.78c.02-.3.07-.6.12-.93l.1-.86.17-1.1c.03-.3.08-.6.13-.9 0-.06 0-.13.05-.2h.05c0 .1.03.2.06.3.02.25.05.5.1.75l.02.37.07.73.07.78.06.61.15 1.96v.13c.02.35.05.7.05 1.06l.08.8h-.03c.03.12.03.25.03.37m.07-3.36c-.05 0-.1 0-.15-.06v-.03h.02c.06-.02.1 0 .13.03.03 0 .03.02.03.02 0 .03-.03.03-.03.03m.1-5.46l.05-.03c.03 0 .05.03.05.03 0 .05-.02.1-.05.12a.19.19 0 0 1-.05-.12m.05 5.23v-.02c.03-.03.05 0 .05 0 .03.02.03.05.03.07-.03 0-.05-.02-.07-.05m.4-8V32c-.03 0-.03-.03-.03-.05zm-.03 7.98v.02c-.03 0-.03-.02-.03-.02h.03zm.02 4.1c-.02 0-.02-.03-.02-.06h.02zm.03-2.67c0 .03 0 .03-.03.05 0 .03-.02.05-.07.03-.03 0-.05-.03-.03-.03 0-.05.03-.08.03-.13.02 0 .02 0 .05-.03.02 0 .05.03.05.06zm.4-3.92v.02c-.02 0-.02-.02-.02-.02zm-.05-3.53v.03l-.02-.03zm-.17 5.31v-.02c.02 0 .02.02.02.02zm.1-1.35l.14-.16h.03l.03.03c0 .1-.05.15-.15.18-.03 0-.03 0-.05-.03zm.05 8.14V46h.02zm.07 3.52c-.02 0-.02 0-.02-.02h.02zm.05.3h-.02v-.02s0-.03.02-.03h.03c0 .02 0 .05-.03.05m.05-11.71c-.02.02-.02 0-.02-.03l.02-.02zm.1-.58c.03-.03.05-.03.08-.03.07.1.07.13.13.25v.03h-.03c-.1-.03-.15-.1-.2-.2 0-.03 0-.05.02-.05m.1 11.29c0 .02.03.02 0 .02zm-.02-5.99h.02c.03 0 .03.03 0 .03-.02 0-.02 0-.02-.03m-.03-4.78c.03 0 .05.03.08.03-.05.03-.05.03-.08-.02m.08 5.45h.02v.03h-.02c-.03-.03-.03-.03 0-.03m-.15.2c.02-.02.02 0 .05 0l-.03.03c0 .02-.03 0-.03 0v-.03zm.22 6.14c0 .02-.05 0-.07 0l-.08-.08-.07-.12s0-.03.02-.05a.12.12 0 0 1 .05-.03c.08.07.13.15.15.23v.05zm.18-.63c-.02.13-.07.15-.23.13v.02a.2.2 0 0 0-.1-.1v-.07c.08-.03.13-.03.18-.08 0-.03.05-.03.07-.03h.1c0 .03.03.05.03.05zm-.1-6.21c.03-.02.07 0 .07.05s-.02.07-.04.07c-.05 0-.08-.02-.08-.07-.02-.02 0-.05.05-.05m.1-5.86c-.02.13-.07.15-.23.13l-.1-.08c0-.02 0-.05.03-.07.05-.03.1-.03.15-.1h.18l.02.04-.05.08zm.1.7v-.02h.03zm.07 3.45c-.02.02-.04-.03-.02-.03 0-.02.03-.02.03-.02.02 0 .02.02.02.02 0 .03 0 .03-.02.03m.02-.2c-.02 0-.02 0-.02-.03 0 0 0-.02.02-.02zm.05 2.46s-.03 0 0-.02c.03 0 .03 0 .03.02h-.03zm1.48-1.28h.03v.03c0 .02-.03.02-.03 0zm-.32-3.54c0 .02 0 .02-.02.02-.03-.02 0-.05.02-.02M41.4 42h.06l.05.16v.25l-.03.02-.05-.02s0-.03-.03-.05c-.07-.12-.05-.23 0-.36m0 2.68c0 .04 0 .07-.02.12.02.05.02.05 0 .07v-.07c0-.03-.03-.03-.05-.05 0-.03 0-.07.02-.07.03-.03.03-.03.05 0m-.27-2.34l.02.02c0 .02 0 .02.03.05-.03.02-.03.07-.03.1h-.02c-.03 0-.03 0 0-.03 0-.02.02-.04.05-.07-.03 0-.05-.03-.05-.03-.03 0-.03-.02-.03-.04zm-.63-.91v-.02h.02c0 .02 0 .02-.02.02m.23.83c-.03-.02 0-.05.02-.05.03 0 .05 0 .08.03.02 0 .02.05.05.07-.03-.02-.08-.02-.13-.02-.02 0-.02-.03-.02-.03m.1 1.36a.16.16 0 0 1 0-.15l.02-.03c.03 0 .03.02.03.05.02 0 .02.03.02.08v.07h-.05zm.12 1.28c-.02 0-.02-.03-.04-.03v-.13s.02 0 .02-.02c0 0 .02 0 .02.02.03.06.03.08.03.13zm-.02-.65c-.02 0-.02-.03-.02-.03 0-.03.02-.05.02-.05.1.02.22.05.35.05 0 0 .02 0 .05.03a.2.2 0 0 1-.2.05.44.44 0 0 1-.2-.05m.5 1.63h-.05c0-.02-.03-.05-.03-.05l.05-.12a.05.05 0 0 0-.05-.06c-.02 0-.05.03-.05 0-.02 0-.02-.02-.02-.02l.07-.13s0-.02-.02-.02l-.15-.05h.02c.03-.03.07-.05.07-.1s-.02-.07-.04-.1v-.03h.1c.02 0 .05 0 .05-.05 0-.02 0-.05.02-.07.03 0 .06-.03.08 0 0 0 0 .02.03.05 0 0 0 .02-.03.02-.02.13 0 .23.07.32.08.05.18.08.23.16.03 0 .03.02 0 .05l-.02.03c-.03-.03-.03-.03-.05-.03-.05 0-.07 0-.1.05-.05.03-.08.07-.13.13-.02 0-.02.02-.05.02m.13.35c-.03-.05-.05-.1-.05-.15l.02-.05c.03 0 .05 0 .05.03.03 0 .05.02.05.07l.1.07c.03-.02.05-.04.1-.04 0 .02.03.04.03.04v.05c-.15.13-.23.13-.3-.02m.14 2.92c0-.03 0-.03.03-.03 0 .03 0 .05-.02.03m.2-2.04h-.03c-.02-.02-.05-.02-.1 0v.03c-.02.03-.07 0-.07-.03-.03-.02-.03-.05-.03-.05v-.13c.07-.02.13 0 .18.03.05 0 .07.05.1.13l-.05.02m.05-4.95c-.03 0-.03-.03-.05-.03l.02-.02h.03zm12.7-10.05v-.15c0-.03.02-.05.05-.07v-.3c-.05-.06-.05-.14-.07-.2a.2.2 0 0 0-.06-.14c-.04-.02-.07-.07-.12-.07a.97.97 0 0 0-.28-.13 5.4 5.4 0 0 0-.7-.1c-.43-.02-.86 0-1.3.03h-.14c-.05 0-.1.05-.12.1l-.18.37c-.25.58-.45 1.19-.65 1.77l-.56 1.8c-.12.36-.22.71-.32 1.06-.18.65-.36 1.3-.56 1.96l-.4 1.54-.37 1.38-.07.18c0 .02 0 .02-.03.02-.03-.07-.05-.12-.05-.2l-.18-1.06a7.23 7.23 0 0 0-.1-.72l-.15-.96-.23-1.59-.05-.4-.07-.5-.13-.85c-.03-.28-.08-.58-.13-.88 0-.18-.05-.38-.05-.58 0-.46-.05-.94-.1-1.39-.02-.14-.02-.32-.07-.48a5.03 5.03 0 0 0-.13-.7c-.05-.35-.18-.68-.3-1l-.18-.28c-.07-.05-.12-.13-.2-.15a.62.62 0 0 0-.33-.03c-.17.02-.35.02-.52.1-.2.05-.38.1-.58.18-.6.25-1.2.55-1.79.88-.05 0-.07.02-.12.05 0 .05 0 .1-.03.14v.49c.03.37.05.78.1 1.16l.2 1.27.2 1.16c.1.5.18.98.26 1.49l.3 1.4c.13.71.28 1.41.43 2.12l.45 1.99c.15.72.32 1.45.5 2.18.15.73.33 1.46.51 2.19l.52 2.14.07.3c.06.2.18.33.36.4.03 0 .05.03.08.03.12.02.22.07.32.07.3.05.58.07.85.05.08-.02.16-.02.24-.02.3-.03.6-.07.9-.15l.14-.05c.06-.03.08-.05.08-.1l-.02-.36c-.03-.37-.07-.75-.13-1.1a.16.16 0 0 1 0-.15l.07-.23c.16-.43.31-.88.44-1.3.3-.84.58-1.7.85-2.55l.98-3 .75-2.28c.1-.33.2-.65.34-.98.12-.46.3-.9.42-1.33l.4-.96c.25-.67.5-1.37.68-2.08.03-.15.07-.28.07-.44m-11.08-1.17c0 .02 0 .02-.03.02h-.02c-.03 0-.05-.05-.05-.08h.02c.05 0 .05 0 .08.03v.03zm.53 4.04c0 .03-.03.03-.05.03l-.07-.13c.04.03.07.03.12.03v.05c.02 0 0 .02 0 .02m.2-.1a.19.19 0 0 1-.05-.12s.02-.02.05-.02c.03 0 .02.02.02.02.03.05 0 .1-.02.12m.4 2.62h-.02l.02-.02zm0-5.53c0 .02-.02.02-.02.02-.03 0 0-.02 0-.05h.02zm.4 5.5h.03l-.02.03c0-.02-.03-.02 0-.02m-.06-3.53h.02l-.02.03v-.03zm-.15 5.31h-.03v-.03h.03c.02.03 0 .03 0 .03m.28-1.49c0 .13-.05.18-.15.18 0 0-.03 0-.03-.03v-.02l.15-.15h.03zm.03.39v-.06l.02.03c0 .03 0 .03-.02.03m.37-7.17c.05 0 .07.02.07.05 0 .05-.02.07-.05.07-.05 0-.07-.05-.07-.07 0-.03.02-.05.05-.05m-.15.52v-.02h.03c.02.02 0 .02-.03.02m-.02-.7s.02 0 .02.02h-.05s0-.02.03-.02m.02 5.99v.02h-.03zm-.12-5.13c0 .02.02.02.02.02 0 .03 0 .03-.02.05 0-.02-.03-.02-.03-.02 0-.03.03-.03.03-.05m.07 6.43c.03.03.03.03.07.03-.07.03-.07.03-.07-.03m.12-.28h-.05l-.02-.02-.12-.15c-.03-.02 0-.05.02-.07 0-.03.05-.03.05-.03.07.07.1.15.12.22zm.15 5.34c-.02 0-.05-.03-.05-.05l.03-.03c.02 0 .05.03.05.05-.03 0-.03.03-.03.03m.08-6.04l-.02.07c-.06.13-.08.16-.23.13l-.1-.07c-.03-.03-.03-.06 0-.08.05-.03.12-.03.14-.1h.21v.05zm.1 5h-.02l.03-.02zm0-12.07h-.02l.03-.02zm.03 11.3c-.02 0-.02-.05 0-.05h.03c.02.02.02.02.02.05zm.05-.2h-.02c-.03-.03-.03-.03 0-.05l.02.02zm.05 2.45c-.03 0-.03 0-.03-.02h.03zm0-12.06h-.03c0-.03 0-.03.03-.03 0 0 .03 0 0 .03M47.6 35c.03.02 0 .05 0 .05h-.05c-.02-.03-.07-.05-.1 0 0 0 0 .02-.02.02s-.05 0-.07-.02v-.1c0-.07 0-.07.07-.07s.14.04.17.12m-.12 7.34c-.03.03-.03.03-.05 0v-.02h.02c.03 0 .03.02.03.02m-.07-5.28c0 .02 0 .02-.03.02h-.03c0-.02 0-.02.03-.02h.02zm.12-2.92c0 .03 0 .05-.03.05-.12.13-.2.13-.3-.02l-.05-.15c0-.03.02-.05.05-.05.03 0 .03 0 .05.02.03 0 .03.03.06.07l.07.08c.02-.02.05-.05.1-.05.02.03.02.05.05.05m-.5 10.74l.02-.07c-.03-.03-.05-.03-.05-.05-.03-.03 0-.07.02-.07 0-.03.03-.03.03 0h.02l-.02.12c.02.04.02.04-.03.07m.03-2.54a.36.36 0 0 1-.03-.23c0-.02 0-.05.03-.07 0-.03.02-.03.02-.03.03 0 .03 0 .05.03.05.07.03.17.05.33v.03c0 .02-.02.04-.05.04 0 0-.02 0-.02-.02zm.02-3.54v-.03c.03-.02.03-.02.03 0v.03zm.05-5.79c.03 0 .03.03.03.05v.03c-.03.13 0 .22.05.32.1.05.18.07.25.15v.05h-.02s0 .03-.03.03c0-.03-.02-.03-.02-.03-.05 0-.1 0-.13.05l-.1.13c-.03 0-.05.03-.07.03h-.03c-.03-.03-.03-.05-.03-.05 0-.05.03-.08.03-.13.02-.03 0-.05-.05-.05 0 0-.03.02-.05 0 0 0-.03-.03 0-.03l.07-.12-.02-.03-.15-.05c.05-.02.1-.04.1-.1 0-.04-.05-.07-.07-.1l.02-.02h.07c.05 0 .05 0 .07-.05 0-.03 0-.05.03-.08.03 0 .05-.02.05 0m-.07-2.87v.03h-.03c0-.03 0-.03.03-.03m-.03 2.47c0-.02.03-.02.03 0h.02l-.02.12c.02.05.02.05-.03.07 0-.02.03-.04.03-.07-.03-.02-.05-.02-.05-.04-.03-.03 0-.08.02-.08m-.24-2.28v-.06h.02v.03l.02.05c0 .02 0 .07-.02.1-.03 0-.03 0-.03-.03.03-.02.05-.04.05-.07l-.04-.02m.14 1.82c.03 0 .03.03.05.03-.05.08-.12.08-.2.05l-.2-.05-.02-.03c0-.02.03-.04.03-.04.12.02.24.04.34.04m-.14 10.3v-.1c.02 0 .02.02.02.02 0 .05-.03.05-.03.07m.03.07v.03c-.03 0-.05 0-.05-.02s0-.02.02-.02c0 0 0 .02.03.02m-.15-9.74c0 .03-.03.05-.03.05l-.05-.02c0-.03 0-.05-.02-.05.03-.03.03-.05.03-.07 0 0 0-.03.02-.03l.02.03.03.1m-.07-1.24c-.03.03-.03.03-.06.03a.15.15 0 0 1-.02-.18c0-.02.02-.02.02-.02s0 .02.03.02v.03c0 .02 0 .07.02.1v.02zm-.16-1.4c.02 0 .05 0 .08.02l.05.08c-.05-.03-.1-.03-.15-.03l-.03-.02c0-.03.02-.06.05-.06m-.05 12.13c0-.03.02-.06.05-.06.02 0 .05 0 .08.03l.05.08c-.05-.03-.1-.03-.15-.03zm.13 1.35c-.03-.02-.03-.07-.03-.1 0-.02 0-.02.03-.05v-.02a.07.07 0 0 0 .05.02c0 .05 0 .1.03.13 0 .05-.03.07-.06.05 0 0-.02 0-.02-.03m.1 1.28c0-.02-.02-.02-.02-.02 0-.03 0-.05-.03-.07.03-.03.03-.03.03-.05 0 0 .02 0 .02-.03l.03.03.02.1c0 .02-.02.04-.05.04m.17-.6a.8.8 0 0 1-.2-.05l-.02-.02c0-.03.03-.05.03-.05.12.02.24.05.34.05.03 0 .03.02.05.02-.05.07-.12.07-.2.05m.28 1.6l-.03-.06c0-.06.03-.08.03-.13.02-.03 0-.05-.05-.05 0 0-.03.02-.05 0 0 0-.03-.03 0-.03l.07-.12-.02-.02-.15-.05c.05-.03.1-.05.1-.1s-.05-.08-.07-.1l.02-.03h.07c.05 0 .05 0 .07-.05 0-.03 0-.05.03-.08.03 0 .05-.03.05 0 .03 0 .03.03.03.05v.03c-.03.13 0 .23.05.32.1.05.18.07.25.15v.05h-.02s0 .03-.03.03c0-.03-.02-.03-.02-.03-.05 0-.1 0-.13.05l-.1.13c-.03 0-.05.03-.07.03h-.03zm.15.34l-.05-.15c0-.02.02-.05.05-.05.03 0 .03 0 .05.03.03 0 .03.02.06.07l.07.07a.13.13 0 0 1 .1-.04c.02.02.02.04.05.04 0 .03 0 .05-.03.05-.12.13-.2.13-.3-.02m.4.88h-.05c-.05-.05-.07-.03-.1.02-.05.03-.1 0-.1-.05v-.07c0-.07 0-.07.05-.07.1 0 .18.04.2.12.03.02 0 .02 0 .05m.03-4.93c-.03.02-.05 0-.07-.03 0-.07.02-.12.07-.17h.02c.03.02.03.02.03.05.02.07 0 .12-.05.15m.1-5.79h.02s0 .03-.02 0m.07 5.9c-.02-.03-.05-.06-.02-.08l.05-.06.02.08c0 .03-.02.05-.05.05m.1 5.9v-.01l.03.02zm.2-8.77c0-.02 0-.05.03-.05s.05.03.05.08c0 0 0 .03-.02.03-.03.02-.07-.03-.05-.06m.1 5.69a.05.05 0 0 1-.05-.06s.02-.02.02-.05c.05 0 .07.03.07.08 0 .03-.02.05-.04.03m.05 3.09c-.03 0-.03-.02 0-.02 0 0 .02.02 0 .02m.1-3.75h-.03l-.02-.02c.02-.05.05-.05.07-.08 0 .03 0 .08-.02.1m.17-.72h.03c0 .02.02.02 0 .02 0 .03-.03.03-.03 0v-.02zm.03 4.65c0 .02 0 .02-.03.02l-.02-.02v-.15c0-.03.02-.05.02-.03.03 0 .03 0 .03.03.02.02.02.05.02.07l-.02.07m.07-4.3l-.02-.02h.02v.03zm1.41-3.49l.03-.02c.05 0 .07.02.05.05h-.05c-.03 0-.05-.03-.03-.03m-1.03 4.9H49c-.03 0-.03-.02 0-.02h.05zm.22-.14l-.02.02c-.03 0-.07 0-.1.02v-.1c0-.02 0-.04.02-.04.03-.06.08-.06.1-.06l.06.06c0 .05-.03.07-.06.1m.26-.99c0-.02.05-.02.05-.02.03.02.03.02.03.05v.02h-.05c-.03 0-.03-.02-.03-.05m.18 2.04h-.05c-.03-.03-.05-.05-.05-.07l.07-.1c.03-.03.07-.03.1.02 0 .02 0 .05.02.05 0 .05-.04.1-.1.1m.25-.35c-.02.03-.02.03-.05.03h-.07c-.03 0-.07 0-.12-.03-.03 0-.05-.03-.07-.07 0-.03 0-.08.02-.1l.07-.06c.07-.03.14 0 .22.03.05 0 .08.05.08.1s-.03.1-.08.1m.48-5.13a.8.8 0 0 1-.4.2l-.23-.07c-.05 0-.1-.03-.14-.08l.07-.15c.05-.06.12-.1.2-.08a.4.4 0 0 0 .23 0l.1-.02c.07.02.12-.05.2 0 0 .07-.03.12-.03.2m.3-5.58c.03.02.03.02.03.05l-.05.02c0-.02-.03-.05-.03-.05 0-.02.05-.05.05-.02m-.02 8.42v-.05c.02 0 .02 0 .02.03 0 0 0 .02-.02.02m.05-.22v-.03h.03l-.03.02zm.15-6.6v-.02h.03l-.02.03zm1.11.36v.02c-.03 0-.03 0-.03-.02zm-.07-2.04c.02 0 .02 0 .02.03h-.03c-.02 0-.02 0 0-.03m-.14-3.5s.04-.02.07 0c.02.03.05.08.02.13l-.1-.07v-.05zm-.11 4.88h.05v.06l-.04.02c-.03-.02-.03-.02-.03-.05 0-.03 0-.03.02-.03m-.07.18c.03 0 .03.03.03.03v.02h-.03c-.03-.02 0-.05 0-.05m-.36.17l.05-.02c.15 0 .28 0 .4.02.03 0 .06.03.06.06 0 .02-.03.04-.05.04 0 0-.03.03-.03 0-.1-.04-.2-.02-.3-.02-.05.02-.1 0-.13-.03-.02-.02-.02-.04 0-.04m.78.55c0 .02 0 .05-.02.05-.07 0-.13.03-.2.03-.03-.03-.05 0-.07 0l-.08.17c-.02.05-.05.05-.13.05-.07-.03-.15-.03-.23-.03v.08l-.05-.08c0-.02-.02 0-.02-.02-.05 0-.05-.05-.03-.07.03 0 .03-.03.05-.03l.1-.07c.03 0 .05-.05.03-.07-.03-.06-.03-.11.02-.16.03-.05.08-.1.13-.15.05-.03.08-.03.13 0 .03.02.03.02.03.05h.02a.22.22 0 0 0-.15.05c-.03.02-.05.05-.03.07 0 0 0 .03.03.06l.1.02c.07 0 .14.02.22 0l.15.02zm.2-.23h-.02c-.03.03-.03.03-.05 0l-.08-.13c0-.02-.02-.05-.05-.07 0-.03.03-.05.03-.07h.15c0 .02.03.02.03.04zm.06-3.95c-.03 0-.03-.02-.03-.02 0-.02.03-.02.03-.02.02 0 .02 0 .02.02zm.3 4.03c.02 0 .02.03.02.03 0 .02 0 .07-.02.1h-.03c-.02-.05-.02-.08.03-.13m.02.43l-.02.02v-.05c.02 0 .05 0 .02.02m.48-5.83c0 .03-.02 0-.02-.02 0-.05 0-.07.02-.1 0-.03.03-.03.03-.03l.02.03c.03.05.03.07 0 .1 0 .02-.02.02-.05.02m.18.83c-.03.05-.07.05-.1.02-.05-.02-.05-.07-.03-.1l.05-.02.07.05v.05zm.95.63c-.05 0-.07-.02-.05-.05 0-.02 0-.05.02-.05.03 0 .05.03.05.05 0 .03-.02.05-.02.05m.18-.93c0-.02-.03-.05-.03-.1l.03-.02c.03 0 .03.02.05.02 0 .05-.02.07-.05.1m10 14.33v-.2l-.07-.98-.07-.73-.08-.83c0-.17-.03-.35-.05-.53 0-.25-.03-.52-.05-.8l-.05-.5c-.05-.25-.05-.53-.07-.78-.05-.23-.05-.48-.07-.7l-.08-.86-.13-1.08-.03-.4a17.2 17.2 0 0 1-.13-1.14l-.14-1a9.38 9.38 0 0 0-2.46-4.65c-.29-.26-.56-.51-.86-.73a.76.76 0 0 0-.48-.16 2.9 2.9 0 0 0-.8.03c-.46.05-.94.15-1.41.28l-.13.35c-.13.5-.2.98-.28 1.48l-.12.86-.17 1.48-.05.55-.08.68c-.03.13-.06.28-.06.4l-.07.79-.07.97c-.03.03-.03.08-.03.1l-.07.79-.05.8c-.05.36-.08.73-.1 1.08v.13l-.08.83c-.03.2-.05.43-.05.63-.02.1-.05.12-.15.12h-.18c-.2-.02-.4-.02-.6-.02-.1 0-.2.02-.33.05-.07 0-.12.05-.14.12-.03.18-.11.33-.16.48-.05.1-.08.2-.1.3-.06.1-.06.18-.06.27 0 .16.1.24.2.24l.14.02c.32 0 .65 0 .97.03h.2c.03 0 .06.05.06.07 0 .03.02.03.02.05l-.05.6-.07 1.13-.08 1.09v.1c-.03.2-.03.4-.03.63 0 .17.08.32.2.42.16.15.36.28.56.35.33.13.68.18 1.03.23h.2c.03 0 .05 0 .05-.05l.07-.25.13-.7c.05-.4.1-.78.18-1.16l.1-.79c.05-.28.1-.55.13-.83l.12-.8c0-.07.02-.1.1-.13h1.18l.5-.02c.06 0 .1 0 .16.02.07 0 .12.03.12.07v.08c.03.28.05.56.05.83l.05.43c0 .38.05.72.05 1.1 0 .03.03.06.03.08 0 .1 0 .2.02.28v.27l.08.76a8.46 8.46 0 0 0 .18 1.08.6.6 0 0 0 .3.35c.12.08.25.13.38.15.25.08.5.08.75.08.43-.03.85-.07 1.28-.15l.7-.13c.06 0 .1-.03.15-.03.03-.02.06-.05.06-.07.02-.1.02-.22.02-.32 0-.46 0-.91-.02-1.34-.05-.43-.07-.82-.1-1.26m-9.5-3.1h-.03c0-.01.02-.01.02-.04zm1.15.21H56c0-.02-.02-.05-.04-.05l-.03-.07h.03c.02-.03.05 0 .07.02l.02.07c-.02 0-.02 0-.02.03m.07 3.4c-.02 0-.02 0-.02-.03h.02v.04zm.23-5c.02-.03.02-.03.05-.03 0 0 0 .03.02.05l-.05.05h-.02l-.03-.03c0-.02.03-.04.03-.04m-.05.5c-.03 0-.05-.03-.05-.03-.03-.02-.03-.05-.03-.07l.03-.08.12-.07s.03 0 .03.02a.07.07 0 0 1 .02.05.29.29 0 0 1-.12.18m.17 2.58c-.02 0-.02-.02-.05-.02 0-.03.03-.03.03-.03.02 0 .02 0 .05.03zm.08-2.89v-.02c-.02 0 0-.03 0-.03l.03.03s0 .02-.03.02m.1-.27h-.02s-.03 0-.03-.02c.03 0 .03-.03.06-.03v.05zm.78-9.5c.03 0 .03.04 0 .04 0 .05-.05.05-.1.03-.02-.03-.05-.08-.02-.1.02 0 .02-.03.05-.03zm-.07 7.06l-.03.02c-.02-.02-.02-.02 0-.05zm-.03.55c0 .03-.02.03-.02.03-.03.02-.05 0-.05-.03l.02-.02c.03 0 .03.02.05.02m-.05-8.5l.03-.02c0 .02.02.02.02.05l-.02.07h-.05c0-.05 0-.07.02-.1m-.53 5.54c0-.03 0-.03.03-.03l.02.03-.02.07c0 .02-.03.05-.03.02-.02 0-.02-.02-.02-.04 0 0 0-.03.02-.05m0 .37h.05v.03s-.02 0-.02.02c0-.02-.02-.02-.02-.05m.37.48c0 .02-.03.02-.05.02l-.25-.07c-.03-.03-.03-.03-.03-.05l.03-.02c.02 0 .05 0 .07.02a.5.5 0 0 0 .25 0c.03-.02.05 0 .05.02s0 .05-.02.05c0 .03-.03.03-.05.03m.1 1.33c.03.03.05.05.05.07 0 0-.02.03-.05.03 0 0-.03 0-.03-.02-.02-.03 0-.05.03-.07m0 4.42c0-.03.03-.05.03-.07 0-.06.02-.06.05-.06 0 .03.02.03.02.05l-.02.1h-.03c-.02 0-.05 0-.05-.02m.2.85c0 .05-.05.05-.1.03-.02-.03-.05-.08-.02-.1.02 0 .02-.03.05-.03l.07.05c.03 0 .03.05 0 .05m.25-3.74v-.1c0 .04.03.07.03.1-.03.02-.03 0-.03 0m.05-.15s-.02.02-.05.02v-.05c0-.02 0-.02.03-.02h.02c.03 0 0 .02 0 .05m.03-.76l-.18.18s-.05 0-.05-.03a.23.23 0 0 1-.1-.2c0-.05.05-.1.1-.1a.5.5 0 0 1 .23.07zm.02-2.26h-.02l.02-.02zm.1 3.24c-.05-.02-.07-.07-.05-.12h.03c.02.02.05.05.05.07 0 .03-.03.05-.03.05m.13-5.06h-.05c-.03-.04 0-.1.03-.12h.07a.2.2 0 0 0-.05.13m.03-.58c-.05-.03-.08-.05-.08-.1v-.03H58l.1.13c-.02 0-.05.02-.07 0m2.33-.68c0 .02.03.02.03.05 0 0 0 .03-.03.03 0 .02-.02.02-.02 0l-.07-.1.1.02m-.44-.07c.03-.08.1-.13.18-.1.03 0 .06 0 .08.02l.05.1c-.02 0-.05 0-.07-.03-.06 0-.08.03-.08.08v.02c-.03.06-.03.06-.1.08-.06-.05-.08-.1-.06-.18m-.14-3.92h.02v.03h-.03v-.03zm-.91 1.73a.21.21 0 0 1 .18 0c.05.03.1.06.12.13v.03s0 .02-.03.02c-.02.03-.07.03-.09.03-.1-.03-.15-.08-.18-.18v-.02zm-.05-.14c.03-.03.03-.03.03 0 0 .02 0 .02-.03.02zm-.12.14l.02.06s0 .02-.02.02c-.03 0-.06 0-.08-.05.02-.02.05-.05.08-.02m-.13-.25l.02.02-.02.1c-.03-.02-.03-.05-.03-.1-.03 0 0-.02.03-.02m-.25 1c0-.03.02-.05.05-.05.02 0 .05.02.05.07-.03 0-.03.03-.05.03-.03.02-.05-.02-.05-.05m.12 5.66h-.03c-.02.02-.02 0-.02-.03 0-.02.03-.02.03-.02.02 0 .04.02.02.05m.15-.8h.03l.02.02v.1l-.02.05c0 .02-.03.05-.05.02-.03 0-.03-.02-.06-.05 0-.05.03-.1.08-.14m1.74 5.33c0 .05-.02.1-.1.1-.05-.02-.1-.02-.15-.02l-1.11-.19-.3-.02c-.03-.03-.05-.03-.08-.03-.02-.02-.07-.05-.05-.07 0-.1 0-.2.03-.3l.1-.78c.07-.4.13-.83.18-1.23l.07-.56.12-.78c.03-.3.07-.6.13-.92l.1-.86.18-1.1c.03-.3.07-.6.13-.91 0-.05 0-.13.04-.2h.05c0 .1.03.2.05.3.03.25.05.5.1.75 0 .13.03.25.03.38l.07.73.08.78.05.6.16 1.96v.13c.02.35.04.7.04 1.06l.07.8h-.02c.03.12.03.25.03.38m.07-3.37c-.04 0-.1 0-.14-.05v-.03h.02a.1.1 0 0 1 .12.03c.03 0 .03.02.03.02 0 .03-.03.03-.03.03m.1-5.46l.05-.03c.03 0 .05.03.05.03 0 .05-.02.1-.05.12a.19.19 0 0 1-.05-.12m.05 5.23v-.02c.03-.03.05 0 .05 0 .03.02.03.05.03.07-.03 0-.05-.02-.07-.05m.4-8V32c-.02 0-.02-.03-.02-.05zm-.02 7.98v.02c-.03 0-.03-.02-.03-.02zm.02 4.1c-.02 0-.02-.03-.02-.06h.02zm.02-2.67c0 .03 0 .03-.02.05 0 .03-.02.05-.07.03-.03 0-.06-.03-.03-.03 0-.05.03-.08.03-.13.02 0 .02 0 .05-.03.02 0 .04.03.04.06zm.4-3.92v.02c-.02 0-.02-.02-.02-.02zm-.05-3.53v.03l-.02-.03zm-.17 5.31v-.02c.02 0 .02.02.02.02zm.1-1.35l.15-.16h.02l.03.03c0 .1-.05.15-.15.18-.03 0-.03 0-.05-.03zm.05 8.14V46h.02zm.07 3.52c-.02 0-.02 0-.02-.02h.02zm.05.3h-.02v-.02s0-.03.02-.03h.03c0 .02 0 .05-.03.05m.06-11.71c-.03.02-.03 0-.03-.03l.03-.02zm.1-.58c.02-.03.05-.03.07-.03.07.1.07.13.13.25v.03h-.03c-.1-.03-.14-.1-.2-.2 0-.03 0-.05.03-.05m.1 11.29c0 .02.03.02 0 .02zm-.03-5.99h.03c.02 0 .02.03 0 .03-.03 0-.03 0-.03-.03m-.02-4.78l.07.03c-.05.03-.05.03-.07-.02m.07 5.45h.03v.03h-.02c-.03-.03-.03-.03 0-.03m-.16.2c.03-.02.03 0 .05 0l-.02.03c0 .02-.03 0-.03 0zm.23 6.14c0 .02-.05 0-.07 0l-.08-.08-.08-.12s0-.03.03-.05a.12.12 0 0 1 .05-.03c.07.07.12.15.14.23v.05zm.17-.63c-.02.13-.07.15-.22.13v.02a.19.19 0 0 0-.1-.1v-.07c.07-.03.12-.03.17-.08 0-.03.05-.03.07-.03H62c0 .03.02.05.02.05zm-.1-6.21c.03-.02.07 0 .07.05s-.02.07-.04.07c-.05 0-.07-.02-.07-.07-.03-.02 0-.05.04-.05m.1-5.86c-.02.13-.07.15-.22.13l-.1-.08c0-.02 0-.05.02-.07.05-.03.1-.03.15-.1h.18l.02.04-.05.08zm.1.7v-.02h.03zm.08 3.45c-.03.02-.05-.03-.03-.03 0-.02.03-.02.03-.02.02 0 .02.02.02.02 0 .03 0 .03-.02.03m.02-.2c-.02 0-.02 0-.02-.03 0 0 0-.02.02-.02zm.06 2.46s-.03 0 0-.02c.02 0 .02 0 .02.02h-.02zm1.48-1.28h.03v.03c0 .02-.03.02-.03 0zm-.33-3.54c0 .02 0 .02-.02.02-.03-.02 0-.05.02-.02M63.32 42h.05l.05.16v.25l-.03.02-.05-.02s0-.03-.02-.05c-.07-.12-.05-.23 0-.36m0 2.68c0 .04 0 .07-.02.12.02.05.02.05 0 .07v-.07c0-.03-.03-.03-.05-.05 0-.03 0-.07.02-.07.02-.03.02-.03.05 0m-.27-2.34l.02.02c0 .02 0 .02.03.05-.03.02-.03.07-.03.1h-.02c-.03 0-.03 0 0-.03 0-.02.02-.04.05-.07-.03 0-.05-.03-.05-.03-.03 0-.03-.02-.03-.04zm-.63-.91v-.02h.02c0 .02 0 .02-.02.02m.22.83c-.02-.02 0-.05.03-.05s.04 0 .07.03c.02 0 .02.05.05.07-.03-.02-.07-.02-.13-.02-.02 0-.02-.03-.02-.03m.1 1.36a.15.15 0 0 1 0-.15l.02-.03c.03 0 .03.02.03.05.03 0 .03.03.03.08v.07h-.06zm.13 1.28c-.03 0-.03-.03-.05-.03v-.13s.02 0 .02-.02c0 0 .03 0 .03.02.02.06.02.08.02.13zm-.03-.65c-.02 0-.02-.03-.02-.03 0-.03.02-.05.02-.05.1.02.23.05.36.05 0 0 .02 0 .05.03-.05.05-.13.07-.2.05a.48.48 0 0 1-.2-.05m.5 1.63h-.06l-.02-.05.05-.12a.05.05 0 0 0-.05-.06c-.02 0-.05.03-.05 0-.02 0-.02-.02-.02-.02l.07-.13s0-.02-.02-.02l-.15-.05h.02c.03-.03.07-.05.07-.1s-.02-.07-.04-.1v-.03h.1c.02 0 .05 0 .05-.05 0-.02 0-.05.02-.07.03 0 .05-.03.07 0 0 0 0 .02.03.05 0 0 0 .02-.03.02-.02.13 0 .23.08.32.08.05.18.08.23.16.02 0 .02.02 0 .05l-.02.03c-.03-.03-.03-.03-.06-.03-.05 0-.07 0-.1.05-.05.03-.07.07-.13.13-.02 0-.02.02-.05.02m.13.35a.32.32 0 0 1-.05-.15l.02-.05c.03 0 .05 0 .05.03.03 0 .06.02.06.07l.1.07c.03-.02.05-.04.1-.04l.02.04v.05c-.15.13-.22.13-.3-.02m.15 2.92c0-.03 0-.03.03-.03 0 .03 0 .05-.03.03m.2-2.04h-.02c-.02-.02-.05-.02-.1 0v.03c-.02.03-.08 0-.08-.03-.02-.02-.02-.05-.02-.05v-.13c.07-.02.13 0 .18.03.05 0 .07.05.1.13l-.05.02m.05-4.95c-.03 0-.03-.03-.05-.03l.02-.02h.03zm14.03-8.4a13.59 13.59 0 0 0-.7-2.16 8.18 8.18 0 0 0-1.3-2.08 2.15 2.15 0 0 0-.37-.33.95.95 0 0 0-.5-.14c-.25 0-.47.07-.7.14-.33.12-.6.28-.9.46-.44.24-.87.57-1.3.87-.5.4-.97.81-1.45 1.23l-.1.08c-.03.03-.05.03-.05.03-.03.02-.05 0-.05-.03l-.07-.4-.11-.33c-.04-.12-.14-.2-.3-.25-.1 0-.18-.03-.28-.03a8.93 8.93 0 0 0-1.99.44c-.21.07-.17.07-.24.29 0 .03 0 .05-.03.1-.02.26-.05.51-.1.76l-.05.7-.07 1.34-.06 1.53v.73l-.05 1.76v5.06c0 .55.03 1.1.03 1.63 0 .3 0 .6.02.9a58.79 58.79 0 0 0 .06 2.54c0 .13.05.26.14.36l.13.12.3.15c.18.07.38.13.56.15.25.05.5.05.75.08h.1c.1 0 .15-.05.15-.13.03-.22.08-.45.08-.68v-.1c.05-.4.05-.8.07-1.18l.08-1.03.03-.6c0-.06 0-.08.02-.1v-.06c0-.02.05-.02.05-.02.1.05.14.12.22.2.65.68 1.34 1.36 2.04 2.01.36.36.72.65 1.1.96.21.13.38.25.59.35a4.57 4.57 0 0 0 1.76.43c.43.05.85 0 1.28-.08.13-.02.25-.07.37-.13a.9.9 0 0 0 .3-.22c.06-.07.06-.14.04-.22a.55.55 0 0 0-.13-.18l-.4-.43-.78-.6c-.43-.33-.88-.63-1.34-.94l-1.8-1.2-1.07-.7c-.45-.28-.9-.59-1.35-.88l-.13-.1c-.25-.2-.25-.24.03-.39.22-.12.45-.21.65-.34a36.2 36.2 0 0 0 2.41-1.26l.84-.5a13.06 13.06 0 0 0 2.58-1.94c.33-.3.61-.65.86-1.03.15-.25.28-.53.36-.83l.1-.85v-.53c0-.39-.06-.76-.08-1.1a9.87 9.87 0 0 0-.25-1.3m-10.48 7.1c0 .05-.03.07-.06.07-.02.03-.05.03-.07.03-.03 0-.05 0-.05-.02-.03-.08-.03-.16.05-.2.02 0 .02 0 .05-.04.05-.02.07 0 .07.03v.13zm.24-9.23h.02c.03.03.03.03 0 .05h-.02zm.02 3.5c0-.03.03-.03.03-.03v.02l-.02.03-.05.02c.02-.02.02-.05.04-.05m0 .18c.03 0 .03.03.03.05 0 .03 0 .05-.02.05 0 0-.03 0-.03-.02l-.05-.07h.07zm0 8.4v.05l-.02-.02.02-.03zm0 3.77s-.02 0-.02-.02l-.05-.08h.07c.03 0 .03.03.03.05 0 .03 0 .05-.02.05m.02-.28l-.02.03-.05.02c.02-.02.02-.05.04-.05 0-.02.03-.02.03-.02zm.02-3.67h-.02l.02-.02zm0-12.07h-.02l.02-.02v.02zm1.31 5.59h.13l.02.04v.23h-.02c0 .03-.03.03-.03 0-.05-.02-.07-.07-.09-.13l-.03-.07c-.02-.03 0-.05.02-.07m.15 5.3v.08h-.05l-.02-.03c0-.05.02-.07.05-.07.03 0 .02 0 .02.02m-.22-5.05s.03 0 0 .02h-.02c0-.02 0-.02.02-.02m-.07-2.04h.02v.03h-.02s-.03 0 0-.03m-.13-3.5h.03c.02 0 .05.03.07.1h-.02c0 .03 0 .03-.03.03l-.07-.1zm-.15 4.88h.08c0 .03.02.03 0 .06 0 0 0 .02-.03.02s-.03-.02-.05-.02v-.06zm-.03.2v.03c-.02 0-.02-.02-.02-.02.02-.03.02-.03.02 0m-.37.17c0-.03 0-.03.02-.05h.25a.7.7 0 0 0 .2.02c.03 0 .06.06.06.06-.03.04-.05.07-.08.04-.13-.04-.23-.02-.33-.02-.05 0-.07-.03-.13-.03v-.02zm-.33 12h-.03v-.03h.03zm0-12.07l-.03-.03h.03zm.7 12.36v-.02l.03.02zm.1-.14c-.02 0-.02.02-.02 0-.1-.03-.2-.03-.33-.03-.05.03-.07 0-.12-.02v-.03c0-.02 0-.05.02-.05h.1c.1 0 .17 0 .25.03h.13s0 .02.03.05c0 .02-.05.05-.05.05m-.3-7.12c0-.03.02-.05.04-.03.02 0 .05.03.05.05-.03 0-.03.03-.05.03-.02 0-.05-.03-.05-.05m.18 6.87c0-.03.02-.03.02 0v.02zm.05-.15v-.06h.02c.03-.02.06 0 .08.03-.02 0-.02.03-.02.03h-.08zm.23-4.83c0 .02-.03.02-.03 0l-.07-.05c0-.03 0-.03.02-.05h.05c.03.02.05.05.05.07 0 .03 0 .03-.02.03m.07 3.42h-.02v-.03h.02zm.07-9.81v.05c-.07 0-.14.03-.22.03-.02-.03-.05 0-.07 0 0 .04-.03.12-.06.17-.02.05-.05.05-.15.05-.07-.03-.12-.03-.2-.03l-.02.08c0-.03-.03-.05-.03-.08-.02-.02-.05 0-.05-.02-.02 0-.05-.05-.02-.07l.07-.03.1-.07c.03 0 .03-.05.03-.07-.05-.06-.03-.11 0-.16.02-.05.07-.1.14-.15.03-.03.08-.03.13 0 0 .02 0 .02.03.05-.05 0-.1.02-.15.05-.03.02-.03.05-.03.07l.05.06.08.02c.07 0 .15.02.23 0l.14.02c0 .03.03.03 0 .03m.2 11.62c0 .04 0 .1-.02.14 0 .03-.03.03-.05 0-.03 0-.05-.02-.07-.05 0-.02-.03-.04-.03-.07-.02-.02 0-.05.03-.07.04 0 .1 0 .12.02.02 0 .05.03.02.03m-.1-6.32l-.07-.02v-.07c0-.03 0-.06.02-.08l.13-.07s.02 0 .02.02a.07.07 0 0 1 .03.05.44.44 0 0 1-.13.17m.18 2.6h-.03c-.02-.03-.02-.06 0-.06h.03zm0-12.08h-.03c-.02-.02-.02-.04 0-.04h.03zm.08 9.16c.02 0 .02.02 0 .02l-.03-.02s.03 0 .03-.03zm.07-.25c0-.03-.02-.03 0-.06 0 0 .03 0 .03.03 0 0 0 .03-.02.03m7 6.86h.03c0 .03 0 .03-.02.03-.03-.03 0-.03 0-.03m-1.88.1c0-.03.02-.03.02-.03.02-.07.1-.1.2-.07-.03 0 0 0 .02.03h.03l-.07.1c-.06.04-.1.04-.18.04-.03-.02-.05-.05-.03-.07m-.05-.37v.02h-.02zm-1.13-2.07c.02 0 .02.03.05.03a.2.2 0 0 1-.05.12.2.2 0 0 1-.05-.12s.02-.03.05-.03m-.2.18c0 .02.02.02.02.05 0 0 0 .02-.02.02 0 .03-.02.03-.02 0-.05-.02-.05-.05-.07-.1l.09.03m-.43-.07c.02-.08.1-.13.18-.11.03 0 .05 0 .07.03l.06.1c-.03 0-.05 0-.08-.03-.05 0-.08.03-.08.07-.02 0 0 0 0 .03-.02.05-.02.05-.1.07-.05-.04-.07-.09-.05-.17m-1.25-2.18s.02 0 .02.02c.03 0 .03.02.03.02 0 .03-.03.03-.05.03 0 0-.03 0-.03-.03-.03 0-.03-.02-.03-.02 0-.02.03-.02.06-.02m-.3.7c.02.02.04.02.04.05 0 .02-.02.05-.05.05-.02 0-.05 0-.05-.03 0-.05.03-.07.05-.07m4.97-15.37c0-.02.05-.02.05 0 0 0 .02 0 .02.03l.02.2v.07s0 .03-.02.03h-.05l-.07-.2c0-.05 0-.1.04-.13m-.04 2.57c.02-.02.02-.02.04 0l-.02.12c.02.05.02.05 0 .07v-.07c0-.02-.02-.02-.05-.04-.02-.03 0-.08.03-.08m-.26-2.28v-.06h.03s0 .03.02.03c0 .03 0 .03.03.05-.03.02-.03.07-.03.1h-.02c-.03 0-.03 0-.03-.03l.08-.07-.08-.02m-1.2.7c0-.05.02-.08.05-.05.05 0 .07.02.07.07 0 .03-.05.05-.07.05-.05 0-.08-.05-.05-.07m-.1.45h.02v.02h-.02c-.03-.02-.03-.02 0-.02m-.06-.68c.03 0 .03 0 .03.02h-.03zm-.1.88s.03-.02.03 0l.02.03-.05.02zm-.6.23v.07c-.03 0-.03 0-.03-.02 0-.03.03-.03.03-.05m-1.21-1.04c.05 0 .08 0 .08.03v.03c0 .02-.03.02-.03.02-.02 0-.05-.02-.05-.05-.02 0 0-.03 0-.03M71.4 32.4l.02.02c0 .05-.02.07-.04.1 0-.02 0-.05-.03-.1l.05-.02m-1.13.42c-.03 0-.03.02-.05.02-.05.03-.1-.02-.1-.07 0 0 0-.03.02-.03.03-.02.03-.02.05 0 .03 0 .05.03.08.08m-.2-.95s.02-.03.05-.03c0 0 0 .03.02.05v.03l-.02.07h-.03l-.05-.02c0-.03 0-.07.03-.1m-.53 5.56c.03-.03.03-.03.05-.03v.1c0 .03-.02.05-.05.03v-.1zm.03.4c0-.03.02-.03.02-.03.03 0 .03 0 .03.02l-.03.03s-.02 0-.02-.03m.27.46l-.17-.02c-.05-.03-.08-.05-.05-.08.02-.02.05-.02.05-.02.1.02.2.05.3.02l.02.03v.04c-.02.03-.07.05-.14.03m.21 5.78c-.04-.05-.02-.1.03-.12 0-.03.03-.03.03 0 .02 0 .02.02.02.02 0 .05 0 .1-.05.1h-.02zm.18.78v.05c0 .05-.05.05-.1.02-.02-.02-.05-.07-.02-.1.02 0 .02-.02.05-.02zm.26-3.7v-.02s0 .03.02.03c-.02.02-.02 0-.02 0m.05-.15c-.03 0-.03.02-.05.02 0-.02-.03-.02-.03-.05 0-.03.03-.02.05-.02h.03zm.02-.61c0-.02-.02-.02 0-.02zm.13.83s-.03 0-.03-.02c-.02 0-.05-.03-.05-.07.03 0 .03-.03.03-.03h.02l.05.07-.02.05m1.08.93h-.02l.02-.03v.03zm1-1.83c0 .02-.04.02-.04 0l-.07-.13s0-.03.02-.05c.02-.03.07-.03.12 0 .02 0 .02.02.02.02 0 .06-.02.1-.05.15m-.07-.45v-.02c0-.03.03-.03.05-.03h.02v.05c-.02.02-.04.02-.07 0m.55.33s0 .03-.02.03c-.03.02-.1 0-.15-.06v-.03h.02c.05-.02.1 0 .15.03v.02zm.13-.2c-.03 0 0-.03 0-.03.02-.02.05 0 .05 0a.1.1 0 0 1 .02.07l-.07-.04m.4 1.45c0 .03-.07.05-.1.03v-.03c-.03-.05 0-.1.05-.12.02-.03.05 0 .05 0v.12zm-.05-1.45s0-.03.02-.03v.03zm.05-.25h-.03l.03-.03zm.2-.48h-.02s.02 0 .02-.03h.03c0 .03 0 .03-.03.03m.25-1.36c-.05.05-.1.05-.12 0 .02 0 .07-.05.1-.05.02 0 .02.02.02.02zm.07.26c-.02.02-.02 0-.02-.03l.03-.03v.06zm-.17-.39l-.05.1v-.02c-.1.15-.25.28-.38.4-.32.25-.68.48-1 .7-.35.23-.7.44-1.06.64l-1.1.63c-.15.07-.3.14-.46.25h-.07c-.03.02-.07 0-.07-.05v-.13l.04-.65.07-1.31v-.23l.08-1.1.08-1.16v-.1c.02-.43.08-.86.13-1.28l.07-.66v-.1c.03-.05.03-.1.07-.15l.1-.07c.28-.28.59-.53.9-.76a3.69 3.69 0 0 1 .97-.53c.15-.05.32-.07.5-.07.15 0 .3.07.43.17.14.16.27.33.37.51a6.4 6.4 0 0 1 .68 2.28c.05.3.05.58.08.89 0 .32-.03.67-.08 1-.07.27-.15.56-.3.8m.33.33l.07.03c-.05.03-.05.03-.07-.03m.1-.28c-.08-.02-.13-.1-.18-.2 0-.02.03-.06.05-.06.03 0 .03 0 .05.02.06.07.1.14.13.24zm.25-.7c0 .02 0 .05-.02.07-.05.13-.07.16-.23.13v.03l-.05-.1c-.03-.03-.03-.06 0-.06.03-.05.08-.07.13-.1 0-.02.03-.02.05-.02h.13c0 .02.02.05 0 .05m.07.78v-.03h.02zm.1-8.63h-.05c-.03 0-.03-.05 0-.05H75zm.04 2.27c-.02 0-.02-.03 0-.03 0 0 .03 0 .03.03h-.02zm.44-1.33c-.03-.03 0-.06.02-.06.03 0 .05 0 .07.03.03 0 .03.05.05.08-.05-.03-.07-.03-.12-.03-.02 0-.02-.02-.02-.02m.1 1.2c0-.02.02-.02.02-.02s.03 0 .03.02c0 .03 0 .07.02.1v.08h-.07c-.03-.08-.03-.13 0-.18m.12 1.43c-.03 0-.05-.02-.05-.02v-.12l.02-.03s.03 0 .03.03c.02.05.02.07.02.12zm-.02-.65c-.03 0-.03-.02-.03-.02 0-.03 0-.05.03-.05.1.02.22.05.35.05 0 0 .03 0 .03.02-.05.05-.1.08-.18.05a.52.52 0 0 1-.2-.05m.5 6.62c-.03 0-.03-.03 0-.03v-.02c0 .02.02.02.02.02 0 .03-.02.03-.02.03m0-4.98h-.05l-.02-.05c0-.05.02-.08.04-.13 0-.03-.02-.05-.07-.05 0 0-.02.02-.02 0-.03 0-.03-.03-.03-.03l.07-.12s0-.02-.02-.02l-.15-.05h.02c.03-.03.08-.05.08-.1s-.02-.08-.05-.1v-.03h.1c.03 0 .05 0 .05-.05 0-.03 0-.05.02-.08.03 0 .05-.02.08 0v.05c.02 0 0 .03 0 .03-.03.13 0 .23.07.32.07.05.18.07.23.15.02 0 0 .03 0 .05-.03 0-.03.03-.03.03-.02-.03-.02-.03-.05-.03-.05 0-.07 0-.1.05-.05.03-.07.08-.12.13-.02 0-.05.03-.05.03m.12.35a.35.35 0 0 1-.05-.15c0-.03 0-.05.03-.05.02 0 .05 0 .05.02.02 0 .05.03.05.07l.07.08.1-.05.05.05v.05c-.14.13-.22.13-.3-.02m.15 2.91c-.02-.02 0-.02 0-.02h.03c0 .02 0 .02-.03.02m.23-2.03h-.05c-.03-.03-.05-.05-.1 0v.02c-.03 0-.07 0-.07-.02-.03-.05-.03-.07-.03-.1 0-.07.02-.07.07-.07.1 0 .16.04.2.12l-.02.05m.3 1.09v-.03l.03.02h-.02zm.25-3.15c0-.03.03-.06.05-.06.03.03.05.06.05.08 0 .03-.02.05-.05.03-.02 0-.05-.03-.05-.05m.1 3.14s0-.02-.02-.02h.05c0 .02 0 .02-.03.02m.08 2.41l-.02-.1s.02-.02.05-.02l.02.02c0 .05-.02.07-.05.1m.22-2.2h-.03l-.02-.21h.05c.02.07.05.15 0 .2m.28.28h.02c0 .02-.02 0-.02 0m13.5-6.23l-.15-.05-.78-.3c-.35-.1-.68-.21-1.03-.28-.25-.05-.5-.1-.75-.08-.1 0-.2 0-.3.05-.08.03-.15.07-.18.17l-.07.15-.69 1.79-1 2.56-1.06 2.77-1 2.64c-.4 1.06-.83 2.1-1.23 3.12 0 .05-.03.13-.08.15h-.02v-.1c0-.33.02-.63.04-.96l.08-.95V41l.07-1 .05-1.1c0-.01.03-.06.03-.1l.02-.34.05-.88.08-1.06.08-.9.05-.58c0-.15.02-.3.05-.48l.1-.75.07-.53v-.25a.75.75 0 0 0 .05-.26c0-.42.03-.85 0-1.28a2 2 0 0 0-.05-.4c-.02-.07-.05-.17-.1-.25-.05-.13-.15-.2-.3-.22a.95.95 0 0 0-.38-.03c-.17 0-.35.02-.53.05l-.78.17c-.22.05-.43.13-.65.2-.07.03-.1.08-.12.15l-.1.54-.08.67-.08.8-.02.38-.03.6c0 .05 0 .1-.02.15 0 .46-.05.92-.05 1.36-.03.33-.03.65-.03.99-.02.27-.02.55-.02.8a46.9 46.9 0 0 0-.05 2c0 .51 0 1-.03 1.5v4.07c0 .75 0 1.51.03 2.29v.2c.02.14.07.3.2.4.1.05.18.13.28.15.12.07.27.13.4.15.3.07.57.1.88.13.07.02.18 0 .25 0 .05 0 .1-.03.1-.1.02-.03.02-.05.02-.07.03-.18.05-.39.05-.58.03-.15.05-.3.13-.46.2-.5.4-1.03.63-1.54a49.84 49.84 0 0 1 1.18-2.66 44.46 44.46 0 0 1 2.72-5.23l.75-1.13.13-.15c0-.03.02-.03.05 0 0 0 .02 0 .02.02v1.38c.03.76.03 1.52.03 2.3l.02.6c0 .43 0 .86.03 1.3l.02 1.62.08 1.86c0 .33 0 .63.02.95 0 .23 0 .45.03.68.02.28.02.55.02.83.03.45.06.88.06 1.31l.02.15a.65.65 0 0 0 .33.47c.17.13.35.2.55.26l.43.07c.2.03.4.06.62.06.18-.03.18-.03.2-.2.04-.08.04-.16.04-.24l.07-1.35.02-.86.06-1.08.04-1.48.05-2.14c.03-.2.03-.43.03-.65l.02-.7c0-.26 0-.51.03-.76 0-.22 0-.45.02-.68 0-.3 0-.62.03-.93l.02-1.08c0-.18 0-.35.02-.53 0-.6.05-1.23.05-1.84.03-.6.08-1.17.14-1.75.05-.36.05-.68.07-1.01.03-.18.03-.35.03-.53-.03-.33-.03-.63-.03-.93 0-.1 0-.23.03-.33l.07-.37c0-.13 0-.26-.05-.35-.02-.05-.05-.1-.1-.12m-7.7 2.86c0-.02 0-.05.03-.05h.03c.02 0 .02.03.02.03l-.07.1zm-.12.15h.03c0 .02-.03.02-.03.02h-.02s0-.02.02-.02m-.45-1.73h.03v.02c0 .03-.03.03-.03 0zm-.03 4.48h.05c0 .07.03.14-.02.2h-.03v-.21zm-2.33 5.3l-.03-.03c.03-.03.03 0 .03 0zm1.25-6.37h-.05c-.05-.07-.05-.12-.02-.2h.02c.13 0 .2.05.23.13v.05h-.03c-.05-.03-.1-.05-.15.02m.02 7.25v.02c0 .03-.02.03-.02 0v-.02zM82 37.06c0 .03-.02.03-.02.03h-.02c0-.03 0-.03.02-.03zm.13-2.92c0 .03-.02.05-.02.05-.15.13-.22.13-.3-.02l-.05-.15c0-.03.02-.05.05-.05 0 0 .02 0 .02.02.03 0 .05.03.07.07 0 .03.03.06.08.08.02-.02.05-.05.1-.05.03.03.03.05.05.05m-.5 10.67l-.02-.06c-.03-.02-.03-.07 0-.07.02-.02.05-.02.05 0h.02l-.05.12zm0 .07v-.05c.05.03.03.03 0 .05m.03-2.54a.24.24 0 0 1-.03-.23c0-.02 0-.07.03-.1h.05c.02.05.04.1.04.15 0 .05 0 .1.03.2 0 0 0 .03-.03.06 0 0 0 .02-.02.02 0 0-.02 0-.02-.02zm.07-9.33s.03.03.03.05v.03c-.03.13-.03.22.05.32.07.05.17.07.24.15v.05h-.02l-.03.03c0-.03-.02-.03-.04-.03-.03 0-.07 0-.1.05-.05.03-.07.08-.13.13 0 0-.02.03-.05.03h-.05c0-.03-.02-.05-.02-.05l.05-.13a.05.05 0 0 0-.05-.05c-.03 0-.03.02-.05 0l-.03-.03.08-.12v-.03l-.18-.05h.02c.06-.02.1-.04.1-.1 0-.04-.04-.07-.07-.1v-.02h.1c.03 0 .05 0 .05-.05 0-.03.03-.05.03-.08.02 0 .07-.02.07 0m-.1-.2v-.05c.05.02.03.02 0 .05m-.02-.2c.02-.02.05-.02.05 0h.02l-.05.12-.02-.04c-.03-.03-.03-.08 0-.08m-.08-.46c.03 0 .03 0 .05.03-.05.05-.1.08-.2.05-.08 0-.13-.03-.2-.05-.03 0-.03-.03-.03-.03 0-.02.03-.04.03-.04.12.02.22.04.35.04m-.15 10.37v.02s-.03 0-.03-.02v-.16l.03-.02.02.02c0 .05-.02.07-.05.1.03.02.03.02.03.05m-.15-9.7v.02c-.03 0-.05 0-.05-.03a.16.16 0 0 1 0-.14h.02c.03.04.05.1.03.14m-.15-1.38c0-.02.02-.02.05-.02.02.05.02.1.02.18h-.05l-.02-.1zm-.1 10.85c0-.03.02-.06.05-.06 0 0 .05 0 .05.03.02 0 .04.05.04.07-.04-.02-.1-.02-.12-.02l-.02-.03zm.12 1.37c-.05-.05-.02-.12-.02-.18l.02-.02.03.02c.02.06.02.1.02.16 0 .02-.02.02-.02.02zm.1 1.26c-.02 0-.02-.03-.02-.03-.03-.02-.03-.05-.03-.05 0-.02 0-.05.03-.07v-.03c.02 0 .02 0 .04.03 0 .02 0 .07.03.1 0 .02-.02.05-.05.05m-.02-.65c-.03 0-.03-.03-.03-.03 0-.03.03-.05.03-.05.12.02.22.05.35.05.03 0 .03 0 .05.03-.05.05-.1.07-.2.05-.08 0-.13-.03-.2-.05m.5 1.63h-.05l-.02-.05.05-.12c0-.03-.03-.06-.05-.06-.03 0-.03.03-.05 0l-.03-.02.08-.13v-.02l-.18-.05h.02c.06-.03.1-.05.1-.1s-.04-.07-.07-.1v-.03h.1c.03 0 .06 0 .06-.05l.02-.07c.03 0 .07-.03.07 0 0 0 .03.02.03.05v.02c-.03.13-.03.23.05.32.07.05.17.08.25.16v.05h-.03l-.02.03c0-.03-.03-.03-.05-.03-.03 0-.07 0-.1.05-.05.03-.07.07-.13.13 0 0-.02.02-.05.02m.13.35l-.05-.15c0-.02.02-.05.05-.05 0 0 .02 0 .02.03.03 0 .05.02.07.07 0 .03.03.05.07.07.03-.02.06-.04.11-.04.03.02.03.04.05.04 0 .03-.02.05-.02.05-.15.13-.23.13-.3-.02m.4.88h-.05c-.05-.02-.08-.05-.1 0l-.03.03c-.03.03-.07 0-.07-.03 0-.05-.03-.07-.03-.1 0-.07.03-.07.07-.07.1 0 .18.04.2.12zm0-4.92h-.03l-.02-.03c0-.08.02-.13.07-.15 0-.03.03-.03.03-.03 0 .02.03.02.03.05.02.08-.03.13-.08.15m.2.1c-.02-.02-.05-.04-.02-.07 0-.02.02-.02.05-.02 0 0 .02.02.02.05 0 .02-.02.05-.05.05m.35-9.31c0-.02.02-.05.05-.02.03 0 .03.02.03.05l-.03.02c-.05 0-.07-.02-.05-.05m-.07 6.44c0-.02.02-.05.04-.05.03 0 .05.03.05.05 0 .03-.02.05-.02.05-.05.03-.07-.02-.07-.05m.1 5.68c-.03 0-.03-.02-.03-.05l.02-.05c.03 0 .06.03.06.07 0 .03-.03.06-.06.03m.08-8.98h-.02v-.02h.02v.02zm.11 8.33h-.03c-.02 0-.02-.02-.02-.02 0-.05.05-.05.07-.08l-.02.1m-.05-6l.02-.03.03.02c.02.05 0 .07-.03.1-.02-.02-.02-.05-.02-.1m.05-6.05h-.03c-.02 0-.02-.03-.02-.03 0-.05.05-.05.07-.08l-.02.1m.05 6.31c0-.02.02-.02.02-.02l.06.02c.02.03 0 .06-.03.06h-.05c-.03-.03-.03-.06 0-.06m.15 5.09l-.02-.05c.02 0 .02.02.02.02zm1.49-3.2c0-.02.02-.02.05 0h.02c-.02 0-.02.03-.02.03h-.05l-.03-.03zm.34.33a.94.94 0 0 1-.42.2l-.2-.07a.27.27 0 0 1-.18-.08c.03-.05.05-.1.1-.15.05-.06.1-.1.2-.08.08.02.13.02.2 0l.13-.02c.07.02.13-.05.18 0 .02.07 0 .12 0 .2m1.55-3.62c.03 0 .03 0 0 .02h-.02c0-.02.02-.02.02-.02m-.07-2.04h.02c.03 0 .03.03 0 .03h-.02zm-.23 1.38c.03-.02.05 0 .05.06 0 0-.02 0-.02.02-.03 0-.05-.02-.05-.02l-.02-.03c0-.03.02-.03.04-.03m-.07.2v.03l-.03-.02zm-.36.13h.24l.21.02c.03 0 .06.03.06.06 0 .02-.03.04-.05.04h-.05c-.07-.02-.15-.02-.22-.02a.16.16 0 0 1-.19-.02l-.02-.03c0-.03.02-.05.02-.05m.76.63c-.07 0-.15.03-.2.03-.03-.03-.05 0-.07 0l-.07.17c-.03.05-.06.05-.14.05-.07-.03-.15-.03-.22-.03 0 .03 0 .05-.03.05 0 0-.03-.02-.03-.05l-.04-.02c-.03 0-.03-.05 0-.07 0 0 .02-.03.04-.03l.1-.07c.03 0 .06-.05.03-.07a.16.16 0 0 1 0-.16l.15-.15c.03-.03.07-.03.13 0 0 .02.02.02.02.05l-.14.05-.03.07.05.06.07.02c.1 0 .18.02.25 0l.13.02.02.03c0 .03-.02.05-.02.05m.2-.28c-.02.03-.05.03-.05 0l-.07-.13-.06-.07c0-.03 0-.05.03-.07h.15c0 .02.03.02.03.04 0 .08 0 .15-.02.23m.37.2s-.03.03-.03 0h-.02v-.07l.05-.05c0 .03.02.03.02.05 0 .03 0 .05-.02.07m.5-5.53s-.02 0-.02-.02a.07.07 0 0 1 0-.1c.02 0 .05-.03.05-.03l.02.05v.03c0 .02 0 .05-.02.07 0 0-.03.03-.03 0m.13.88c-.05 0-.1-.05-.1-.07l.02-.07c.05 0 .1.02.13.07 0 .02-.03.04-.05.07m.6 3.3h-.05c0-.05 0-.1.03-.13h.07l-.05.13m.1-.58c-.05 0-.05.02-.07 0-.05-.03-.07-.05-.07-.1v-.03h.04l.1.13v-.03l.03.03zm.25-2.24h.05c0 .02.03.02.03.05 0 .02 0 .05-.03.05-.02.02-.05 0-.05 0-.02-.05-.02-.07 0-.1m.05 12.17c-.05.03-.07-.03-.07-.05 0-.02.02-.05.05-.05.02 0 .05.03.05.05 0 .02-.03.05-.03.05m.06-6.46h-.03c-.03 0-.03-.05 0-.05h.03zm.37-6.6c.03 0 .03.04.03.04 0 .02 0 .02-.03.02zm-.25-.06l.03.02c.02.05 0 .07-.03.1l-.02-.1zm0 12.19l-.02-.1.02-.03.03.03c.02.05 0 .07-.03.1m0-6.14c-.02 0-.02-.02-.02-.05 0-.05.02-.1.07-.14.03 0 .03.02.03.02v.12s0 .03-.03.03c0 .02-.02.05-.05.02m.15 6.34c-.02.02-.05 0-.07 0-.03-.03-.03-.05 0-.07h.02c.03 0 .05.02.05.02.03.02 0 .05 0 .05m0-12.1c0 .03-.02.03-.02.03-.03 0-.05 0-.05-.02-.03-.03 0-.05.02-.05 0 0 .03 0 .05.02 0 0 .03.03 0 .03m.12 11.89h-.02v-.02s0-.03.03-.03c0 0 .02.03 0 .05m.33.28c0 .02-.03.02-.06.04h-.13a.19.19 0 0 1-.1-.1l-.02-.05.02-.04a.2.2 0 0 1 .23.04l.06.06zm-.24-2.72c-.02 0-.02-.03 0-.03 0 0 0 .03.03.03zm.2-9.33c-.04.05-.12.02-.17 0-.05 0-.05-.05-.07-.07 0-.03-.03-.05-.03-.1.02 0 .05 0 .07-.03.05 0 .1 0 .16.05l.07.07c.03.03 0 .08-.02.08m.07 6.64s0 .03-.02 0c0-.03 0-.03.03-.03v.03zm.2-.15c-.02 0-.07-.03-.04-.05 0-.03 0-.05.02-.07.05-.03.1 0 .1.02.02.05-.02.1-.07.1m.95-4.35v.02c-.03.03-.05.03-.05 0l-.07-.1.1.03c.02.02.02.02.02.05m-.45-.13c.03-.07.13-.12.2-.1 0 0 .02 0 .05.03l.07.1c-.02 0-.05 0-.07-.03-.05 0-.1.03-.1.07v.03c0 .05 0 .05-.1.07-.05-.04-.07-.09-.05-.17m0 4.99h.03c.02.02 0 .04 0 .04s-.03 0-.05.03v-.03c-.03 0-.03-.02-.03-.02.03-.03.03-.03.05-.03m-.15-8.93c.02 0 .05 0 .07.03v.03c-.02.02-.05.02-.05.02-.02 0-.02-.02-.05-.05 0 0 0-.03.03-.03M90.26 43c-.02.02-.05.02-.05.02-.02 0-.02-.02-.05-.05 0 0 0-.03.03-.03.02 0 .05 0 .07.03zm0-2.77c-.02-.08 0-.13.08-.13.03 0 .05.03.05.03.02 0 .05.02.05.05a.19.19 0 0 0-.05.13c-.02.02-.05.02-.07 0 0-.03-.03-.05-.06-.08m.23 6.74v.02c0 .05 0 .05-.1.07-.05-.04-.07-.09-.05-.17a.18.18 0 0 1 .2-.1s.02 0 .05.03l.07.1c-.02 0-.05 0-.07-.03-.05 0-.1.03-.1.07m.25.08v-.02c-.03-.03-.05-.03-.07-.07l.1.04c0 .03 0 .03-.03.05m.07-6.83c-.05 0-.1-.03-.12-.03-.03 0-.03-.03-.03-.05h.03a.1.1 0 0 1 .12.02c.03 0 .03.03.03.03 0 .03-.03.03-.03.03m.16-.23v-.05h.02c.03.02.03.02.03.05zm.02-5.1c-.02-.03-.07-.08-.05-.13 0 0 .03-.03.05-.03l.03.03c0 .05-.03.1-.03.12m12.09 13.23c-.05-.43-.07-.83-.1-1.26v-.2l-.07-.98-.08-.73-.07-.83c0-.17-.03-.35-.06-.53 0-.25-.02-.52-.05-.8l-.05-.5c-.05-.25-.05-.53-.07-.79-.05-.21-.05-.47-.07-.7l-.08-.85-.12-1.08-.03-.4c-.05-.38-.1-.76-.13-1.14l-.15-1a9.38 9.38 0 0 0-2.46-4.65c-.28-.26-.56-.51-.86-.73a.79.79 0 0 0-.47-.16 2.9 2.9 0 0 0-.81.03c-.45.05-.93.15-1.41.28l-.12.35c-.13.5-.2.98-.28 1.48l-.13.86-.17 1.48-.05.55-.08.68c-.02.13-.05.28-.05.4l-.08.79-.07.97c-.03.03-.03.08-.03.1l-.07.79-.05.8c-.05.36-.07.73-.1 1.08v.13l-.07.83c-.03.2-.05.43-.05.63-.03.1-.05.13-.16.13h-.18c-.2-.03-.4-.03-.6-.03-.1 0-.2.03-.32.05-.07 0-.13.05-.15.12-.03.18-.1.33-.15.48-.06.1-.08.2-.1.3-.06.1-.06.18-.06.28 0 .15.1.22.2.22.06 0 .08.03.13.03.33 0 .65 0 .98.03h.2c.03 0 .05.05.05.07 0 .03.03.03.03.05l-.05.6-.08 1.13-.07 1.09v.1c-.03.2-.03.4-.03.63 0 .17.07.32.2.42.15.15.35.28.55.36.33.12.68.17 1.04.22h.2c.02 0 .05 0 .05-.05l.07-.25.13-.7c.05-.4.1-.78.18-1.16l.1-.78c.05-.27.1-.56.12-.83l.13-.8c0-.07.02-.1.1-.13h1.18l.5-.02c.06 0 .1 0 .15.02.07 0 .13.03.13.07v.08c.02.27.05.56.05.83l.05.43c0 .37.05.73.05 1.1l.02.08c0 .1 0 .2.03.28v.27l.07.76a8.26 8.26 0 0 0 .19 1.08c.05.15.14.28.3.35a2.54 2.54 0 0 0 1.12.23c.43-.03.86-.08 1.29-.15l.7-.13.15-.03c.03-.02.05-.05.05-.07.03-.1.03-.22.03-.33 0-.45 0-.9-.03-1.33m-9.6-4.35h-.03c0-.02.02-.02.02-.05zm1.15.2h-.02c0-.02-.03-.05-.05-.05l-.02-.07h.02c.02-.03.05 0 .07.02 0 .03.03.05.03.07-.03 0-.03 0-.03.03m.07 3.4c-.02 0-.02 0-.02-.03h.03v.03zm.23-5c.03-.03.03-.03.05-.03 0 0 0 .02.03.05l-.05.05h-.03l-.03-.03c0-.02.03-.05.03-.05m-.05.51c-.02 0-.05-.03-.05-.03-.02-.03-.02-.05-.02-.07l.02-.08.13-.07s.02 0 .02.02a.07.07 0 0 1 .03.05.28.28 0 0 1-.13.17m.18 2.6c-.03 0-.03-.03-.05-.03 0-.03.02-.03.02-.03.03 0 .03 0 .06.03zm.07-2.9v-.02c-.02 0 0-.03 0-.03l.04.03s0 .02-.03.02m.1-.27h-.03s-.02 0-.02-.03c.02 0 .02-.03.05-.03zm.78-9.5c.02 0 .02.04 0 .04 0 .05-.05.05-.1.02-.03-.02-.05-.07-.03-.1.03 0 .03-.02.05-.02l.07.05zm-.07 7.06l-.03.02c-.03-.02-.03-.02 0-.05l.02.03zm-.03.55c0 .03-.03.03-.03.03-.02.02-.05 0-.05-.03l.03-.02c.02 0 .02.02.05.02m-.05-8.5l.02-.02c0 .02.03.02.03.05l-.03.07h-.05c0-.05 0-.07.03-.1m-.53 5.54c0-.03 0-.03.02-.03l.03.03-.03.07c0 .02-.02.05-.02.02-.03 0-.03-.02-.03-.04 0 0 0-.03.03-.05m0 .37h.05v.02s-.03 0-.03.03c0-.03-.02-.03-.02-.05m.37.48c0 .02-.02.02-.05.02l-.25-.07-.02-.05.02-.02c.03 0 .05 0 .07.02.08.02.16.02.26 0 .02-.02.05 0 .05.02s0 .05-.03.05c0 .03-.02.03-.05.03m.1 1.33c.03.03.06.05.06.07 0 0-.03.03-.05.03 0 0-.03 0-.03-.02-.03-.03 0-.05.03-.07m0 4.42l.02-.07c0-.06.03-.06.05-.06 0 .03.03.03.03.05 0 .03 0 .05-.03.1h-.02c-.03 0-.05 0-.05-.02m.2.85c0 .05-.05.05-.1.02-.03-.02-.05-.07-.03-.1.03 0 .03-.02.05-.02l.07.05c.03 0 .03.05 0 .05m.25-3.74v-.1c0 .04.03.07.03.1-.03.02-.03 0-.03 0m.06-.15l-.06.02v-.05c0-.02 0-.02.03-.02h.03c.02 0 0 .02 0 .05m.02-.76l-.18.18s-.04 0-.04-.03a.23.23 0 0 1-.1-.2c0-.05.05-.1.1-.1.07 0 .14.02.22.07v.08zm.02-2.27h-.02l.02-.02zm.1 3.25c-.04-.02-.07-.07-.04-.12h.02c.03.02.05.05.05.07 0 .03-.02.05-.02.05m.13-5.06h-.05c-.03-.04 0-.1.02-.12h.07a.19.19 0 0 0-.04.13m.02-.58c-.05-.03-.07-.05-.07-.1v-.03h.05l.1.13c-.03 0-.05.02-.08 0m2.34-.68c0 .02.02.02.02.05 0 0 0 .02-.02.02 0 .03-.03.03-.03 0l-.07-.1.1.03m-.43-.07c.02-.08.1-.13.18-.11.02 0 .05 0 .07.03l.05.1c-.02 0-.05 0-.07-.03-.05 0-.08.03-.08.07v.03c-.02.05-.02.05-.1.07-.05-.04-.08-.09-.05-.17m-.15-3.92h.02v.03h-.02zm-.9 1.73a.21.21 0 0 1 .17 0c.05.03.1.06.12.13v.02s0 .03-.02.03c-.03.02-.07.02-.1.02-.1-.02-.15-.07-.18-.17v-.02zm-.05-.14c.02-.03.02-.03.02 0 0 .02 0 .02-.02.02zm-.13.14s.03.03.03.06c0 0 0 .02-.03.02s-.05 0-.08-.05c.03-.02.06-.05.08-.02m-.13-.25l.03.02c0 .05-.03.07-.03.1-.02-.02-.02-.05-.02-.1-.03 0 0-.02.02-.02m-.25 1c0-.03.02-.05.05-.05.02 0 .05.02.05.07-.03 0-.03.03-.05.03-.02.02-.05-.02-.05-.05m.12 5.66h-.02c-.03.02-.03 0-.03-.03 0-.02.03-.02.03-.02.02 0 .05.02.02.05m.16-.81h.02l.03.03v.1c0 .02-.03.05-.03.05 0 .02-.02.05-.05.02-.02 0-.02-.02-.05-.05 0-.05.03-.1.08-.14m1.73 5.32c0 .05-.02.1-.1.1-.05-.02-.1-.02-.15-.02l-1.1-.18-.3-.02c-.03-.03-.06-.03-.08-.03-.03-.02-.08-.05-.05-.07 0-.1 0-.2.02-.3l.1-.78c.08-.4.13-.83.18-1.23l.07-.56.13-.78c.02-.3.07-.6.12-.93l.1-.86.19-1.1c.02-.3.07-.6.12-.9 0-.06 0-.13.05-.2h.05c0 .1.02.2.05.3.02.25.05.5.1.75l.02.37.08.73.08.78.05.61.15 1.96v.13c.02.35.05.7.05 1.06l.07.8h-.02c.02.12.02.25.02.37m.07-3.36c-.04 0-.1 0-.14-.06v-.03h.02c.05-.02.1 0 .13.03.02 0 .02.02.02.02 0 .03-.02.03-.02.03m.1-5.46l.04-.03c.03 0 .06.03.06.03 0 .05-.03.1-.06.12a.19.19 0 0 1-.04-.12m.04 5.23v-.02c.03-.03.06 0 .06 0a.1.1 0 0 1 .02.07c-.02 0-.05-.02-.07-.05m.4-8V32c-.02 0-.02-.03-.02-.05zm-.02 7.98v.02c-.03 0-.03-.02-.03-.02zm.02 4.1c-.02 0-.02-.03-.02-.06h.02zm.03-2.67c0 .03 0 .03-.03.05 0 .03-.02.05-.07.03-.03 0-.05-.03-.03-.03 0-.05.03-.08.03-.13.02 0 .02 0 .05-.03.02 0 .05.03.05.06zm.4-3.92v.02c-.03 0-.03-.02-.03-.02zm-.05-3.53v.03l-.03-.03zm-.18 5.31v-.02c.02 0 .02.02.02.02zm.1-1.35l.15-.16h.03l.03.03c0 .1-.06.15-.16.18-.02 0-.02 0-.05-.03zm.05 8.14V46h.03zm.08 3.52c-.03 0-.03 0-.03-.02h.03zm.05.3H100v-.02s0-.03.03-.03h.03c0 .02 0 .05-.03.05m.05-11.71c-.02.02-.02 0-.02-.03l.02-.02zm.1-.58c.03-.03.05-.03.07-.03.08.1.08.13.13.25v.03h-.03c-.1-.03-.14-.1-.2-.2 0-.03 0-.05.03-.05m.1 11.29c0 .02.03.02 0 .02zm-.02-5.99h.02c.03 0 .03.03 0 .03-.02 0-.02 0-.02-.03m-.03-4.78c.03 0 .05.03.07.03-.04.03-.04.03-.07-.02m.07 5.45h.03v.03h-.02c-.03-.03-.03-.03 0-.03m-.15.2c.02-.02.02 0 .05 0l-.03.03c0 .02-.02 0-.02 0zm.21 6.14c0 .02-.04 0-.07 0l-.07-.08-.07-.12s0-.03.02-.05a.12.12 0 0 1 .05-.03c.07.07.12.15.14.23v.05zm.18-.63c-.02.13-.07.15-.21.13v.02a.2.2 0 0 0-.11-.1v-.07c.07-.03.12-.03.17-.08 0-.03.05-.03.07-.03h.11c0 .03.02.05.02.05zm-.09-6.21c.02-.02.07 0 .07.05s-.03.07-.05.07c-.05 0-.07-.02-.07-.07-.03-.02 0-.05.05-.05m.1-5.86c-.03.13-.08.15-.22.13l-.11-.08c0-.02 0-.05.03-.07.05-.03.1-.03.14-.1h.18l.02.04-.05.08zm.1.7v-.02h.02zm.07 3.45c-.02.02-.05-.03-.02-.03 0-.02.02-.02.02-.02.03 0 .03.02.03.02 0 .03 0 .03-.03.03m.03-.2c-.03 0-.03 0-.03-.03 0 0 0-.02.03-.02zm.05 2.46s-.02 0 0-.02c.03 0 .03 0 .03.02h-.03zm1.48-1.28h.03v.03c0 .02-.03.02-.03 0zm-.33-3.54c0 .02 0 .02-.02.02-.03-.02 0-.05.02-.02m-.05 3.23h.05l.05.16v.25l-.02.02c-.03 0-.03 0-.05-.02 0 0 0-.03-.03-.05-.07-.12-.05-.23 0-.36m0 2.68c0 .04 0 .07-.02.12.02.05.02.05 0 .07v-.07c0-.03-.03-.03-.05-.05 0-.03 0-.07.02-.07.03-.03.03-.03.05 0m-.27-2.34l.03.02.02.05c-.03.02-.03.07-.03.1h-.02c-.02 0-.02 0 0-.03 0-.02.03-.04.05-.07-.03 0-.05-.03-.05-.03-.02 0-.02-.02-.02-.04zm-.63-.91v-.02h.02c0 .02 0 .02-.02.02m.22.83c-.02-.02 0-.05.03-.05.02 0 .05 0 .07.03.03 0 .03.05.06.07-.03-.02-.08-.02-.13-.02-.03 0-.03-.03-.03-.03m.1 1.36a.16.16 0 0 1 0-.15l.03-.03c.03 0 .03.02.03.05.02 0 .02.03.02.08v.07h-.05zm.13 1.28c-.02 0-.02-.03-.05-.03v-.13s.03 0 .03-.02c0 0 .02 0 .02.02.03.06.03.08.03.13zm-.02-.65c-.03 0-.03-.03-.03-.03 0-.03.03-.05.03-.05.1.02.22.05.35.05 0 0 .02 0 .05.03a.2.2 0 0 1-.2.05.47.47 0 0 1-.2-.05m.5 1.63h-.05c0-.02-.03-.05-.03-.05l.05-.12a.05.05 0 0 0-.05-.06c-.02 0-.04.03-.04 0-.03 0-.03-.02-.03-.02l.07-.13s0-.02-.02-.02l-.14-.05h.02c.02-.03.07-.05.07-.1s-.02-.07-.05-.1v-.03h.1c.02 0 .05 0 .05-.05 0-.02 0-.05.02-.07.03 0 .05-.03.07 0 0 0 0 .02.03.05 0 0 0 .02-.02.02-.03.13 0 .23.07.32.08.05.19.08.24.16.02 0 .02.02 0 .05l-.03.03c-.02-.03-.02-.03-.05-.03-.05 0-.08 0-.1.05-.06.03-.08.07-.13.13-.03 0-.03.02-.05.02m.12.35a.35.35 0 0 1-.05-.15c0-.02.03-.05.03-.05.02 0 .05 0 .05.03.03 0 .05.02.05.07l.1.07c.03-.02.05-.04.1-.04 0 .02.03.04.03.04v.05c-.15.13-.23.13-.3-.02m.14 2.92c0-.03 0-.03.04-.03 0 .03 0 .05-.03.03m.2-2.04h-.02c-.03-.02-.06-.02-.1 0v.03c-.03.03-.08 0-.08-.03-.03-.02-.03-.05-.03-.05v-.13c.08-.02.13 0 .18.03.05 0 .07.05.1.13-.02.02-.02.02-.05.02m.05-4.95c-.03 0-.03-.03-.05-.03l.03-.02h.02zM22.43 16.55c.5.95.97 1.94 1.4 2.92.43.87.81 1.76 1.19 2.66.22.5.42 1.03.62 1.54.08.14.1.3.13.45 0 .2.03.4.05.58 0 .02 0 .05.03.07 0 .08.05.1.1.1.07 0 .17.03.24 0 .3-.02.58-.04.89-.12.13-.03.27-.08.4-.15.1-.03.17-.1.27-.16.13-.1.18-.24.2-.4v-.2c.03-.78.03-1.53.03-2.29v-4.07c-.02-.5-.02-.98-.02-1.49 0-.68-.03-1.33-.05-2 0-.26 0-.53-.03-.8 0-.34 0-.66-.02-1 0-.45-.05-.9-.05-1.35-.03-.05-.03-.1-.03-.14 0-.21-.03-.4-.03-.61l-.02-.38-.07-.8-.08-.69-.1-.52c-.03-.08-.05-.13-.13-.15-.22-.08-.43-.16-.65-.2a9.2 9.2 0 0 0-.78-.18 3.73 3.73 0 0 0-.53-.05.95.95 0 0 0-.37.03.36.36 0 0 0-.3.22c-.06.07-.08.17-.1.25-.03.13-.06.28-.06.4-.02.44 0 .86 0 1.29 0 .07.03.17.05.25v.25l.07.53.1.75c.03.18.05.33.05.48l.06.58.07.9.08 1.06.05.88c0 .13.03.22.03.35l.02.1.05 1.09.07 1v.05l.08.96c.02.32.05.63.05.95v.1h-.03c-.04-.03-.07-.1-.07-.15-.4-1.03-.83-2.06-1.23-3.11l-1.01-2.65-1.06-2.76-1-2.57-.68-1.78-.07-.15c-.03-.1-.1-.15-.18-.18-.1-.05-.2-.05-.3-.05-.25-.03-.5.02-.76.07-.34.08-.68.18-1.02.29l-.78.29-.16.05c-.05.03-.07.08-.1.13-.05.1-.05.23-.05.36l.07.37c.03.1.03.24.03.33 0 .3 0 .6-.03.93 0 .18 0 .36.03.53.03.32.03.65.08 1.01.05.58.1 1.16.13 1.76 0 .6.05 1.23.05 1.83.02.18.02.35.02.53 0 .35.03.7.03 1.08.02.3.02.63.02.93.03.23.03.46.03.68.02.25.02.5.02.75 0 .23.03.46.03.7 0 .23 0 .46.02.66l.05 2.14.05 1.48.05 1.08.02.86.08 1.36c0 .07 0 .15.02.22.03.18.03.18.2.2.24 0 .44-.02.64-.05l.43-.07c.2-.05.37-.12.55-.25a.65.65 0 0 0 .32-.48c0-.05.03-.1.03-.14 0-.44.02-.87.05-1.32 0-.27 0-.55.02-.83.03-.22.03-.45.03-.68.03-.33.03-.62.03-.95l.07-1.86c0-.56.03-1.09.03-1.61.02-.46.02-.89.02-1.3 0-.21.03-.4.03-.61 0-.78 0-1.53.02-2.3V13c0-.03.03-.03.03-.03.02-.02.05-.02.05 0l.12.15.76 1.13a42.4 42.4 0 0 1 1.3 2.32m5.26 1.38s0-.02.02 0l-.02.03zm-1.18 5.7c0 .04-.05.06-.07.04l-.03-.03c-.03-.05-.05-.03-.1 0h-.06v-.05c.03-.08.1-.13.2-.13.06 0 .08 0 .08.08l-.02.1m.15-.88c-.07.15-.15.15-.3.02 0 0-.03-.02-.03-.05.03 0 .03-.03.05-.05.06 0 .08.02.1.05.06-.03.08-.05.08-.07.03-.06.05-.08.07-.08 0-.03.03-.03.03-.03.03 0 .05.03.05.05zm.27-.6l-.02.02c-.03.03-.03 0-.05 0-.03 0-.05.03-.05.05l.05.13s-.03.02-.03.04h-.05l-.05-.02c-.05-.05-.07-.1-.12-.12-.02-.05-.07-.05-.1-.05-.02 0-.05 0-.05.02l-.02-.02h-.03v-.05c.07-.08.18-.1.25-.16.07-.1.07-.2.05-.32v-.03l.02-.05c0-.02.05 0 .07 0 0 .03.03.05.03.07 0 .06.03.06.05.06h.1v.02c-.02.02-.07.05-.07.1s.05.07.1.1h.02l-.17.05v.03zm-.52-3.3v-.03h.03v.03c0 .02-.03.02-.03 0m.05-5.28h.03c.02 0 .02 0 .02.03h-.02s-.03 0-.03-.03m.35 4.95c.02.03.02.08.02.1.03.08.03.15-.02.22l-.05.09c0 .02-.03.02-.03.02-.02 0-.02-.02-.02-.02-.03-.03-.03-.06-.03-.06.03-.1.03-.14.03-.2 0-.04.02-.1.05-.15zm-.03 2.66h.03c0-.02.02-.02.05 0 .02 0 .02.05 0 .08 0 .03 0 .03-.03.05zm.05.16v.05c-.02-.02-.05-.02 0-.05m.46.05s0 .03-.03.03c-.02 0-.05-.03-.05-.05.03-.03.03-.08.03-.1.02-.04.02-.04.05-.04v.03c.03.03.03.05.03.08 0 0 0 .03-.03.05m0-.63c-.07.03-.13.05-.2.05-.1.03-.15 0-.2-.05l.04-.02c.13 0 .23-.03.36-.05 0 0 .03.02.03.05 0 0 0 .02-.03.02m-.23-1.88l.03-.03.02.02v.15c0 .03-.02.03-.02.03v-.03c0-.03 0-.03.02-.05a.12.12 0 0 1-.05-.1m.2-9.71h.03c.02.05.02.1 0 .15 0 .03-.03.03-.05.03v-.03c-.03-.05 0-.1.02-.14m.1 10.98h-.02s-.03 0-.03-.03c0-.05 0-.1.03-.14l.02-.03.03.03c0 .05.02.12-.03.17m.13-1.38l-.03.02c-.02 0-.07 0-.12.03 0-.03.02-.08.05-.08 0-.03.05-.03.05-.03.02 0 .05.03.05.05m-.15-10.86c.02 0 .05 0 .05.03V8c0 .02 0 .05-.03.1h-.05c0-.07 0-.12.03-.18m-.4.76c.12 0 .22-.03.35-.05 0 0 .03.02.03.05 0 0 0 .02-.03.02-.07.03-.13.05-.2.05-.1.03-.15 0-.2-.05l.04-.02m-.12.45c0-.02.02-.02.05 0 .02 0 .02.05 0 .07 0 .03 0 .03-.03.06l-.05-.13zm.02.15v.05c-.02-.02-.05-.02 0-.05m-.42.8c.07-.06.18-.1.25-.14.07-.1.07-.2.05-.33v-.03c0-.02.03-.05.03-.05 0-.02.04 0 .07 0l.02.07c0 .06.03.06.05.06h.1v.02c-.02.03-.07.05-.07.1 0 .06.05.08.1.1h.02l-.17.06v.02l.07.13-.02.02c-.03.03-.03 0-.05 0-.03 0-.05.03-.05.05l.05.12s-.03.03-.03.05h-.05l-.05-.02c-.05-.05-.07-.1-.12-.12-.02-.05-.07-.05-.1-.05-.02 0-.05 0-.05.02l-.02-.02h-.03zm-.03.54c.06 0 .08.02.1.05.06-.03.08-.05.08-.08.03-.05.05-.07.07-.07 0-.03.03-.03.03-.03.03 0 .05.03.05.05l-.05.15c-.07.15-.15.15-.3.03 0 0-.03-.03-.03-.05.03 0 .03-.03.05-.05m-.13.9c.03-.07.1-.12.24-.12h.02c.03.07.03.12-.02.2h-.05c-.06-.08-.1-.06-.16-.03h-.03zm-.05 6.99s.03 0 .03.03c.05.02.07.07.07.14l-.02.03h-.03c-.05-.02-.1-.07-.07-.14l.02-.06m-.17.2c.03 0 .05 0 .05.03.03.02 0 .04-.02.07a.05.05 0 0 1-.05-.05c0-.03.02-.05.02-.05m-1.29-8.87l-.07-.1s0-.03.03-.03h.02c.03 0 .03.02.03.05v.07zm.13.1s-.03 0-.03-.03h.03c.03 0 .03.03.03.03zm.8 11.7c-.02.01-.04 0-.04-.04 0-.05.02-.07.05-.07a.07.07 0 0 1 .03.05c0 .02 0 .05-.03.05m.1-5.69c0 .03-.02.08-.07.05 0 0-.03-.02-.03-.05 0-.02.03-.05.05-.05.03 0 .05.03.05.05m-.13-6.46c.03-.02.06 0 .06.03.02.02 0 .05-.06.05l-.02-.03c0-.02 0-.05.02-.05m-.05 3.15h.03v.02h-.03v-.02zm-.05-3.75s0 .02-.03.02h-.02l-.03-.1c.03.03.08.03.08.07m0 6.1c0 .05 0 .07-.03.1-.02-.03-.04-.05-.02-.1l.02-.03zm0 5.98s0 .02-.03.02h-.02l-.03-.1c.03.03.08.03.08.07M25.3 8.17h.03v.03c0 .02-.03.02-.03 0zm.05 4.68h-.02c-.05-.05-.03-.12-.03-.2h.05zm.03 2.36l.04-.02s.03 0 .03.02c.03 0 .03.03 0 .05h-.05c-.03 0-.05-.02-.03-.05m-.07 5.06s0-.03.03-.03c0 .03 0 .03-.03.05zm-1.53-3.16c.02-.03.05-.03.05 0h.02l-.02.02h-.05s0-.03-.03-.03h.03zm-.3.12c.05-.05.1.02.18 0l.12.02c.07.03.12.03.2 0 .1-.02.15.03.2.07.05.06.08.11.1.16a.27.27 0 0 1-.18.07l-.2.08c-.14-.02-.3-.1-.43-.2 0-.07-.02-.13 0-.2m-1.17-3.87h.02l-.02.02zm-.08-.2c.03 0 .05 0 .05.02l-.02.02s-.03.03-.05.03c0-.03-.03-.03-.03-.03 0-.05.03-.07.05-.05m-.02.36c.07 0 .14-.03.22-.03h.22s.03.03.03.05l-.03.03a.15.15 0 0 1-.17.02c-.07 0-.15 0-.22.03h-.06c-.03 0-.05-.03-.05-.05 0-.03.02-.05.05-.05m-.23-1.74h.03v.02h-.03c-.02 0-.02-.02 0-.02m-.05 2.04s.03 0 .03.02h-.03c-.03-.02-.03-.02 0-.02m.1.2c.07.02.15 0 .25 0 .03 0 .05-.03.07-.03l.06-.05-.03-.07-.14-.05c0-.03.02-.03.02-.05.05-.03.1-.03.12 0l.15.14c.02.06.02.1 0 .16-.03.03 0 .07.02.07l.1.08c.04 0 .06.03.06.03.03.02.03.07 0 .07-.02 0-.02 0-.05.03 0 .02-.03.05-.03.05-.02 0-.02-.03-.02-.05-.08 0-.15 0-.22.02-.08 0-.11 0-.13-.05l-.07-.17c-.03 0-.06-.03-.08 0-.05 0-.13-.03-.2-.03 0 0-.03-.02-.03-.05l.02-.03.13-.02m-.33-.45h.15c.03.02.03.05.03.07l-.05.07-.08.13c0 .02-.02.02-.05 0-.02-.07-.02-.14-.02-.22 0-.03.02-.03.02-.05m-.37.35l.05.05v.07h-.03c0 .03-.02 0-.02 0-.03-.02-.03-.05-.03-.07 0-.02.03-.03.03-.05m-3.8 2.59h-.04c0-.03 0-.03.02-.05h.03zm-.02-5.1l-.02-.13.02-.03c.03 0 .05.03.05.03.03.05-.02.1-.05.13m.4-.13c.03-.03.06-.03.06-.03.07-.02.17.03.2.1.02.08 0 .13-.05.18-.1-.02-.1-.02-.1-.07v-.03c0-.05-.05-.07-.1-.07-.03.02-.06.02-.08.02zm.3 5.08s0 .03-.02.03v.02c-.03-.03-.05-.03-.05-.03s-.02-.02 0-.05h.03c.02 0 .02 0 .04.03m-.5-4.88l.02-.05.1-.02-.07.1c0 .02-.03.02-.05 0v-.03zm-.03 5.25s-.02 0-.02-.02c0 0 0-.03.02-.03.03-.02.08-.05.13-.02h.03c0 .02 0 .05-.03.05l-.13.02m.08 6.82v.03c-.03-.03-.03-.03-.03-.05a.17.17 0 0 1 .1-.05c-.02.05-.05.05-.07.07m.36.05c-.1-.02-.1-.02-.1-.07v-.03c0-.05-.05-.07-.1-.07-.03.02-.06.02-.08.02l.07-.1c.03-.03.06-.03.06-.03.07-.02.17.03.2.1.02.08 0 .13-.05.18m0-6.77a.2.2 0 0 0-.05-.12c0-.03.02-.05.05-.05 0 0 .02-.03.05-.03.07 0 .1.05.07.13-.03.02-.05.05-.05.07-.02.03-.05.03-.07 0m.17 2.72s-.03 0-.05-.03v-.02c.02-.03.05-.03.07-.03.03 0 .03.03.03.03-.03.02-.03.05-.05.05m0-12.07s-.03 0-.05-.03v-.02c.02-.03.05-.03.07-.03.03 0 .03.03.03.03-.03.02-.03.05-.05.05m1.41 2.39h.05c.02.03.02.05 0 .1 0 0-.03.03-.05 0-.03 0-.03-.02-.03-.05 0-.02.03-.02.03-.05m-.33-.67c.03-.03.05-.03.05-.03.03 0 .05.02.03.05 0 .02-.03.02-.05.02 0 0-.03 0-.03-.02-.02 0 0-.03 0-.03m-.7 6.64c-.05 0-.1-.05-.08-.1 0-.02.05-.05.1-.02.03.02.03.05.03.07.03.02-.02.05-.05.05m.2.14v-.02c.02 0 .02 0 .02.03-.02.02-.02 0-.02 0m.32 5.35a.2.2 0 0 1-.1.1h-.12c-.03-.02-.05-.02-.05-.04v-.05l.05-.05c.07-.08.14-.08.22-.05 0 0 .03.02.03.05 0 0-.03.02-.03.05m-.07-2.67c.02 0 .02-.02.02-.02.03 0 .03.02 0 .02zm.07-9.4c-.02.02-.02.07-.07.07-.05.03-.13.05-.18 0-.02 0-.05-.05-.02-.07l.07-.07c.05-.06.1-.06.15-.06.03.03.05.03.08.03 0 .05-.03.07-.03.1m.08 11.84h-.03c-.02-.03 0-.05 0-.05.03 0 .03.02.03.02v.03zm0-12.07c-.03 0-.03 0-.03-.03 0 0 0-.02.03-.02v.05zm.18 12.27c-.03 0-.05.03-.08 0 0 0-.02-.02 0-.05l.05-.02h.03c.03.02.03.05 0 .07m.07-.2c-.02-.03-.05-.05-.02-.1l.02-.03.03.03c0 .05-.03.07-.03.1m0-6.14c-.02.03-.05 0-.05-.02-.02 0-.02-.02-.02-.02v-.13s0-.03.02-.03c.05.06.07.1.07.15 0 .03 0 .06-.02.06m0-5.94c-.02-.03-.04-.05-.02-.1l.02-.03.03.03c0 .05-.03.07-.03.1m.13 6.49h.02c.03 0 .03.05 0 .05h-.02zm.05 6.5s-.03-.01-.03-.04c0-.02.03-.05.05-.05.03 0 .05.03.05.05 0 .03-.02.07-.07.05m.4-9.35c-.02-.05-.02-.1-.05-.13h.08c.02.02.02.08.02.13zm.05-.68c0 .05-.02.07-.07.1-.03.02-.03 0-.08 0h-.03l.02-.02v.02l.1-.13h.05V12zm.55-2.62c-.02-.02-.05-.05-.05-.07.03-.05.08-.07.13-.07 0 .02.03.04.03.07 0 .03-.05.07-.1.07m.14-.9c0 .02-.02.02-.02.02 0 .03-.02 0-.02 0-.03-.02-.03-.04-.03-.07V8.4c0-.02.03-.05.03-.05s.02.03.05.03c.02.02.02.07 0 .1m9.33 16.17c.3.12.63.17.95.2.17.02.33.02.5.07.51.07.98.2 1.47.3l.87.15.86.18.98.15 1.18.2.5.05h.59c.07 0 .13-.03.18-.07v-.1l.1-.04.04-.07-.11-.13c.07 0 .13-.03.2-.04.1-.23.18-.47.24-.7.12-.38.2-.76.25-1.14.02-.22.02-.45 0-.68a.5.5 0 0 0-.07-.27c-.03-.1-.11-.15-.23-.15h-.8c-.41-.03-.82-.03-1.21-.03l-1.01-.02-.76-.03-1-.03a6.78 6.78 0 0 0-.7-.05c-.33 0-.64-.04-.93-.07-.03 0-.08 0-.1-.02-.03 0-.08-.03-.08-.05v-.15l.05-.4.07-.84.08-.75c0-.27.03-.53.05-.8l.05-.46v-.07c0-.06.05-.07.1-.1.02 0 .05 0 .07-.03l1.12-.14c.24-.03.47-.06.72-.11l.48-.05c.28-.02.58-.05.86-.05.1 0 .2 0 .3-.03.1-.05.2-.1.24-.22a.63.63 0 0 0 .05-.23 3.04 3.04 0 0 0 0-.68.19.19 0 0 0-.05-.1l-.12-.05c-.2-.02-.4-.05-.58-.02-.4.02-.78.05-1.15.1-.3.05-.58.1-.86.12-.3.05-.6.1-.9.18h-.08c-.03 0-.07-.03-.07-.07.02-.08.02-.18.02-.28l.07-.8.08-.87c0-.2.02-.37.05-.57 0-.25.05-.53.05-.78l.08-.8c0-.06 0-.1.02-.16l.06-.7.09-.86.03-.3.17-1.03c0-.02 0-.05.03-.1 0-.02.02-.07.07-.07h.1l.89-.05h.14l1.37-.08h.02l.85-.07c.15 0 .3-.03.48-.06.3 0 .58-.05.88-.1l.36-.07c.1-.03.15-.1.2-.18l.07-.27c.05-.28.1-.58.1-.86V7.8c0-.28 0-.58-.05-.88a3 3 0 0 0-.1-.45l-.13-.26c-.07-.1-.17-.15-.3-.12-.02 0-.02.02-.05.02-.14.03-.3.05-.45.1l-.88.2-1.56.33c-.3.07-.63.15-.93.2-.48.1-.93.2-1.38.28-.13.03-.26.03-.36.03-.17 0-.34 0-.52.02-.3.02-.6.1-.88.12-.03 0-.05.03-.07.03-.11.02-.21.05-.31.1a3.1 3.1 0 0 0-.48.13c-.02 0-.05 0-.07.02l-.07.06c-.03.05-.03.07-.03.1-.08.2-.1.42-.15.63l-.1.95c-.03.17-.06.38-.06.55l-.07 1.08c-.03.13-.03.26-.03.38l-.07 1.56c-.03.48-.05.93-.05 1.4l-.05.91v.55l-.05 1.04c0 .52 0 1.05-.03 1.6v.96h-.02v4.53c0 .2.1.35.25.47.12.1.28.15.43.2m8.27-1.33l.02.03c0 .05 0 .1-.02.13a.19.19 0 0 1-.05-.13s.02-.03.05-.03m-.2.23v.03c-.03.02-.05.02-.05 0l-.07-.1.1.02.02.05m-.46-.12c.03-.08.13-.13.2-.1.03 0 .06 0 .06.02l.07.1c-.02 0-.05 0-.07-.02-.05 0-.1.02-.1.07v.03c0 .05 0 .05-.1.07-.06-.05-.08-.1-.06-.17m-1.95.62h.02l.13.13c-.03 0-.07.03-.1 0-.03-.02-.08-.05-.08-.1 0 0 0-.03.03-.03m0 .58h.07c0 .02-.02.08-.05.13h-.05c0-.05 0-.1.03-.13m-1.87-.78h.03c0 .02-.03.02-.03.02-.02 0-.02-.02 0-.02m-1.23-.13c0-.02.02-.02.05-.02v.02c-.03 0-.03 0-.03.03l-.07.02c.02-.02.02-.05.05-.05m0 .18c.02 0 .05.02.05.05 0 .03-.03.05-.03.05-.02 0-.05 0-.05-.02l-.02-.08zm2.97-6.28c.05.02.05.05.05.1-.02 0-.02.02-.05 0-.03 0-.03-.05-.03-.08zm-.18-.08v-.05c0-.03.02-.03.02-.03h.05v.05l-.07.03c.02.05.02.1.02.13 0 .02-.02 0-.02 0v-.13zM37.61 7.4c.03 0 .05 0 .08.03v.02c-.03.03-.03.03-.05.03-.03 0-.03-.03-.05-.05 0 0 0-.03.02-.03m-.68 1.8l.08.07c.02.02 0 .07-.03.07-.05.05-.1.03-.17 0-.05 0-.05-.05-.07-.07 0-.03-.03-.05-.03-.1.05 0 .05 0 .07-.03.05 0 .1 0 .15.06M36.66 9l.03-.02s.02.02.02.05h-.05zm-.17.15h.05s.02.03.05.03c0 .03-.03.05-.03.05-.02.03-.05 0-.07 0 0-.02-.03-.04 0-.07m-.08-.26c.02 0 .02.02.02.02.02.06 0 .08-.03.1 0-.02-.02-.04-.02-.1zm-1.16.37c.02 0 .02.05.02.05-.03.05-.07.05-.1.03-.05-.03-.05-.07-.03-.1 0 0 .03-.03.05-.03 0 .03.05.03.05.05m-.17-.9l.05-.02s.02.02.02.05v.07c0 .02-.05.05-.05.02-.02 0-.02-.02-.02-.02zm-.98-1.23c.02-.03.07-.05.1-.03l.02.05c0 .05-.04.1-.1.12h-.02c0-.02-.03-.02-.03-.02-.02-.05-.02-.07.03-.12m-.3 1.13h.04c.05.03.05.05.05.1v.03h-.02l-.07-.1v-.03zm-1.1-.13c.04 0 .04.03.04.03 0 .03 0 .03-.02.03v-.03c-.03 0 0-.02 0-.02m0 3.5c0-.03.02-.03.05-.03v.02c-.03 0-.03 0-.03.03l-.07.02c.02-.02.02-.05.05-.05m0 .18c.02 0 .05.02.05.05 0 .03-.03.05-.03.05-.02 0-.05 0-.05-.02l-.02-.08zm-.93 11.02c0 .02 0 .07-.05.07h-.05c-.05 0-.1-.05-.07-.1.02-.02.02-.05.05-.05.05-.07.1-.05.12.03zm-.17-12.1c.02-.02.02-.05.05-.05.05-.07.1-.05.12.03v.05c0 .02 0 .07-.05.07h-.05c-.05 0-.1-.05-.07-.1m.24 13.33h-.02c0-.03 0-.03.03-.03h.04c-.02 0-.02.03-.05.03m.26-1.64c0 .02.02.05 0 .08 0 .02-.03.02-.03.05-.07.02-.15.02-.22.02h-.13c-.02-.02-.07-.05-.07-.07-.05-.06-.03-.13.02-.15.07-.05.18-.05.27 0zm.25-5.15c.03.02.03.05.03.07a.32.32 0 0 1-.18.23l-.18.05c-.05 0-.07-.02-.13-.05-.04 0-.07 0-.12-.03-.05 0-.1-.05-.12-.07h-.03c.05-.05.05-.1.1-.15.05-.05.1-.1.2-.07a.4.4 0 0 0 .23 0c.07-.03.13 0 .2.02M31.83 12c0-.03 0-.03.03-.03h.04c-.02 0-.02.03-.04.03h-.03zm.33 5.1s0 .03-.03.03h-.02s-.05 0-.05-.03c0-.02.05-.02.07-.02v.03zm-.48-6.82c.05-.02.1-.02.17-.02.08 0 .15.02.23.07.03.03.05.08.03.1 0 .03-.03.06-.05.06-.08.03-.13.03-.18.03-.05 0-.1 0-.15-.03-.02 0-.05-.03-.07-.05-.05-.05-.03-.13.02-.15m-.12-1.52c.02 0 .05.03.05.06 0 .02-.03.02-.03.02-.02.03-.07 0-.05-.05 0 0 0-.02.03-.02m-.03 12.1l.03-.03c.02 0 .02.02.05.02v.05h-.08v-.05zm-.38-11.15c0-.02.03-.07.05-.07.03-.03.1-.03.1 0 .03.02.03.07 0 .1l-.05.05c-.03 0-.07 0-.1.03zm0 12.07c0-.02 0-.05.03-.05.02-.05.05-.05.1-.05.02.03.02.05.05.05 0 .05-.03.08-.06.1l-.02.03c-.03 0-.07 0-.1.03zm-.55-1.5l-.03-.03v-.03c.03 0 .03 0 .03.03v.02zm.43-10.4h.05c-.03.04-.05.04-.05.04-.03 0-.03-.03 0-.03m0 12.07h.02c0 .03-.02.03-.02.03-.03 0-.03-.03 0-.03m-.13-8.85c-.02.02-.02 0-.05 0zm-.17 2.06l.07-.02c.03 0 .05 0 .07.02l.08.07c.03.03.05.08.03.08-.03.02-.07.05-.1.02l-.18-.12c0-.03 0-.05.03-.05m-.1-.14h.02v.02h-.03v-.03zM30.6 8.2v.02c-.03-.02-.03-.02-.03-.05.03 0 .03.03.03.03m-.05 4.45h.05c.02.08.02.15-.03.23 0-.03-.03-.03-.03-.03v-.2zm-.1 2.54c.02-.02.07 0 .07.02.03 0 .03.03.03.03-.03 0-.03.02-.05.02-.03.03-.05 0-.05-.02-.03-.03 0-.05 0-.05m-.03-6.39c0 .03 0 .07-.02.1h-.03c-.02 0-.02-.02-.02-.02 0-.05.05-.05.07-.07m-.05 6.13c.03 0 .03.03.03.03.02.05 0 .07-.03.1l-.02-.1zm.05 5.93c0 .03 0 .07-.02.1h-.03c-.02 0-.02-.02-.02-.02 0-.05.05-.05.07-.07m-.14.72c0 .03-.03.05-.06.03-.02 0-.02-.03-.02-.05 0-.02 0-.05.02-.05.05.02.07.05.05.07m.03-8.95h-.03c0-.02 0-.02.03-.02zm-.1-3.18c.01-.02.04-.02.06 0 0 .03 0 .03.03.05-.03.03-.05.03-.05.03h-.05v-.07zm-.04 6.41c.03 0 .05.03.05.06 0 .02-.02.07-.05.05-.02 0-.05 0-.05-.03 0-.05.03-.07.05-.07m-.32 2.82c.03 0 .05.02.05.04 0 .03 0 .03-.05.05 0 0-.05-.02-.03-.05 0-.02.03-.02.03-.05m-.23 4.93c-.03 0-.03-.03-.03-.05 0 0 .03 0 .05.03 0 .02-.02.02-.02.02m0-4.96c-.03-.04 0-.12.05-.17.02 0 .05.03.05.05.03.05 0 .1-.05.12zm35.84 1.45a4.87 4.87 0 0 0-1.85-.87l.41 1.14H64a4.1 4.1 0 0 1 .69 4.94 1.95 1.95 0 1 0-.48 3.59 5.06 5.06 0 0 0 2.23-1.67 5.08 5.08 0 0 0-.99-7.13m-.86.5c-.1-.02-.18-.02-.26-.05-.03-.02 0-.12 0-.19l.28.1-.02.14m-1.19 6l.1-.21.07-.02c.03.06.1.16.07.18-.04.05-.13.07-.2.1a1.3 1.3 0 0 0-.04-.05m.24 1.91l.07-.86a.93.93 0 0 0-.08-.01l.17-.15c.13.38.19.72-.17 1.02m1.39-1.5H65l-.03-.03.13-.45c.16.18.16.18-.08.48m1.33-1.77l-.06-.04.34-.77c.13.31.02.64-.28.8M45.98 17.1c.07.1.19.2.17.24-.07.15-.15.32-.38.34l.72 1.96 6.49-2.39 1.73-.64-2.43-.93h-.16l.04-.04-1.08-.42-.56.2-4.92 1.8.14.41.24-.53m5.97 2.2l-4.92 1.82.98 2.67 4.04-1.49.55-.37a.36.36 0 0 1-.15.23L61 19 57 17.45l-4.82 1.77-.23.1zm-1.81 2.58c-.07.09-.15.16-.23.24a1.85 1.85 0 0 0-.08-.06l.32-.77c.07.13.17.23.16.32 0 .1-.1.2-.16.27m.93-1.2c.2-.28.49-.49.35-.88.23.42.06.87-.34.88"/>
</svg>
