<svg xmlns="http://www.w3.org/2000/svg" viewBox="0 0 315 175">
  <path fill="#fff" d="M-70.07-70.14H384.9v314.46H-70.07z" />
  <path fill="#ef2e31" d="M152.2 122.13l-2.38 4.93h-2.06l1.48-4.93h2.96M305.02 110.35h9.68v2.36h-6.58v3.42h6.16v2.37h-6.16v3.9h6.8v2.4h-9.9v-14.45m-4.06.5l-.52 4.96h-1.58l-.54-4.96zm-3.82 0l-.54 4.96h-1.58l-.54-4.96h2.66m-12.86 10.5c0 .08.02.21.05.38.03.18.1.35.23.52.12.18.3.33.5.46.23.14.51.2.86.2.27 0 .53-.05.77-.15.25-.1.47-.25.66-.47.2-.21.35-.48.46-.8a4.29 4.29 0 0 0 .07-2.14c-.07-.3-.18-.57-.33-.8a1.7 1.7 0 0 0-.58-.55c-.23-.14-.52-.2-.85-.2-.33 0-.6.05-.83.16a1.7 1.7 0 0 0-.82.88l-.13.35-2.9-.08.32-8.26h8.46v2.28h-5.82l-.18 3.46.38-.32c.15-.12.32-.23.53-.33a3.9 3.9 0 0 1 1.73-.35c.56 0 1.1.1 1.6.3a3.79 3.79 0 0 1 2.2 2.27 5 5 0 0 1 .32 1.87c0 .6-.1 1.2-.27 1.8a4.53 4.53 0 0 1-2.42 2.8c-.63.31-1.4.46-2.29.46-.73 0-1.45-.1-2.14-.33a3.72 3.72 0 0 1-1.76-1.19 2.93 2.93 0 0 1-.64-1.23c-.08-.39-.13-.72-.14-.99h2.96m-10.17 1.48c.21 0 .43-.04.66-.12.22-.08.43-.21.61-.4.19-.2.34-.46.46-.78s.18-.72.18-1.2c0-.77-.17-1.36-.52-1.77a1.59 1.59 0 0 0-1.27-.63c-.12 0-.3.03-.52.08-.22.06-.44.17-.66.34-.22.18-.42.43-.58.75a2.9 2.9 0 0 0-.25 1.3c0 .42.05.79.16 1.1.1.3.24.56.42.75.17.2.37.35.6.44.23.1.47.14.71.14zm1.7-8.54c-.04-.5-.2-.86-.48-1.07-.29-.2-.62-.3-.99-.3-.5 0-.9.13-1.17.4-.27.28-.48.61-.61 1.01s-.22.83-.25 1.28c-.03.46-.06.86-.07 1.22a4.43 4.43 0 0 1 1.01-.73 3.52 3.52 0 0 1 1.73-.39c.48 0 .96.09 1.44.26.48.18.91.45 1.3.81.37.37.68.83.9 1.38.24.56.36 1.21.36 1.97 0 .78-.11 1.45-.34 2.03a4.98 4.98 0 0 1-2.68 2.58c-.56.22-1.23.33-2.02.33a5.2 5.2 0 0 1-2.03-.35 3.86 3.86 0 0 1-2.18-2.2 7.34 7.34 0 0 1-.6-2.74l-.01-1.05c0-.69.03-1.39.1-2.09.05-.7.16-1.36.32-1.99.16-.62.39-1.2.68-1.72a4.57 4.57 0 0 1 3.02-2.14 4.75 4.75 0 0 1 1.36-.14c.52 0 1.03.07 1.52.21.5.14.93.36 1.32.65.39.3.7.67.94 1.13.24.46.37 1.01.38 1.65h-2.96m-16.26 6.7c0 .11.02.27.05.47.03.2.11.42.23.62.12.21.3.4.54.54.24.16.57.23.98.23.56 0 1-.18 1.32-.54.32-.36.48-.81.48-1.36 0-.52-.11-.91-.33-1.19a2 2 0 0 0-.84-.6 3.52 3.52 0 0 0-1.12-.24l-1.15-.03v-2.36l1.13-.06c.4-.02.78-.1 1.13-.24.35-.13.63-.33.86-.6.23-.27.34-.66.34-1.16 0-.56-.17-.98-.52-1.25a1.89 1.89 0 0 0-2.38.03c-.16.15-.29.33-.38.54-.1.22-.14.47-.14.77h-3.06c.03-.31.08-.68.17-1.1a3 3 0 0 1 .65-1.27 3.82 3.82 0 0 1 1.73-1.19c.69-.23 1.4-.35 2.15-.35.9 0 1.64.13 2.24.38.6.26 1.08.57 1.45.95.37.38.63.8.78 1.24.15.45.23.85.23 1.23a2.9 2.9 0 0 1-1.1 2.38c-.31.24-.6.41-.9.53-.3.12-.52.2-.68.24.23.07.48.16.76.28a3.8 3.8 0 0 1 1.5 1.22 3.22 3.22 0 0 1 .54 1.87 3.6 3.6 0 0 1-.38 1.64c-.25.5-.6.95-1.06 1.31-.45.37-.99.65-1.6.86a6.36 6.36 0 0 1-2.84.26c-.3-.03-.59-.08-.9-.15-.3-.07-.59-.16-.87-.28a3 3 0 0 1-1.49-1.3 3.98 3.98 0 0 1-.53-1.73 8.4 8.4 0 0 1-.03-.58h3.04m-8.76 1.13h2.54v2.66h-2.54v-2.66m-8.07.7c.21 0 .43-.04.66-.12.22-.08.43-.21.61-.4.19-.2.34-.46.46-.78s.18-.72.18-1.2c0-.77-.17-1.36-.52-1.77a1.6 1.6 0 0 0-1.27-.63c-.12 0-.3.03-.52.08-.22.06-.45.17-.67.34-.21.18-.4.43-.57.75-.17.33-.25.76-.25 1.3 0 .42.05.79.16 1.1.1.3.25.56.42.75.17.2.37.35.6.44.24.1.47.14.71.14zm1.7-8.54c-.04-.5-.2-.86-.48-1.07-.29-.2-.62-.3-1-.3-.5 0-.89.13-1.16.4-.27.28-.48.61-.6 1.01-.14.4-.22.83-.26 1.28-.03.46-.06.86-.07 1.22a4.4 4.4 0 0 1 1.01-.73 3.48 3.48 0 0 1 1.73-.39c.48 0 .96.09 1.44.26.48.18.91.45 1.29.81.38.37.69.83.92 1.38.23.56.35 1.21.35 1.97 0 .78-.11 1.45-.34 2.03a4.94 4.94 0 0 1-2.68 2.58c-.56.22-1.23.33-2.02.33-.8 0-1.47-.11-2.03-.35a3.9 3.9 0 0 1-2.18-2.2 7.84 7.84 0 0 1-.59-2.74 30.34 30.34 0 0 1 .07-3.14c.06-.7.17-1.36.33-1.99.16-.62.39-1.2.68-1.72a4.37 4.37 0 0 1 2.1-1.84 5.42 5.42 0 0 1 2.28-.44c.52 0 1.03.07 1.52.21.5.14.93.36 1.32.65a3.35 3.35 0 0 1 1.32 2.78h-2.96m-19.24 7.68l3.62-3.26c.56-.5 1.04-.95 1.43-1.34.4-.38.71-.74.95-1.06.24-.31.41-.62.52-.9.1-.28.16-.57.16-.88 0-.64-.15-1.1-.44-1.37-.3-.27-.7-.4-1.22-.4-.37 0-.67.06-.9.2-.23.13-.4.3-.53.5s-.22.43-.26.67c-.05.24-.07.46-.07.66h-3.06v-.5a3.39 3.39 0 0 1 .35-1.36 3.6 3.6 0 0 1 2.12-1.9c.7-.25 1.48-.38 2.33-.38 1.53 0 2.7.35 3.51 1.02.8.68 1.2 1.61 1.2 2.78a4.32 4.32 0 0 1-.76 2.6c-.27.43-.66.89-1.15 1.38-.5.5-1.12 1.08-1.88 1.74l-2.8 2.44 6.68-.14v2.32h-9.8v-2.82m-5.44-11.12h2.66l-.54 4.96h-1.58l-.54-4.96M209.86 121c0 .1.02.26.05.46.03.2.11.42.23.62.12.21.3.4.54.54.24.16.57.23.98.23.56 0 1-.18 1.32-.54.32-.36.48-.81.48-1.36 0-.52-.1-.91-.33-1.19-.22-.27-.5-.47-.84-.6a3.48 3.48 0 0 0-1.12-.24l-1.15-.03v-2.36l1.13-.06c.4-.02.78-.1 1.13-.24a2 2 0 0 0 .86-.6c.23-.27.34-.66.34-1.16 0-.56-.17-.98-.52-1.25a1.9 1.9 0 0 0-1.83-.3 1.6 1.6 0 0 0-1.07 1.64H207c.03-.31.08-.68.17-1.1.09-.42.3-.84.65-1.27a3.81 3.81 0 0 1 1.73-1.19c.69-.23 1.4-.35 2.15-.35.9 0 1.64.13 2.24.38.6.26 1.08.57 1.45.95.37.38.63.8.78 1.24.15.45.23.85.23 1.23a2.92 2.92 0 0 1-1.1 2.38c-.31.24-.6.41-.9.53-.3.12-.52.2-.68.24.23.07.48.16.76.28a3.74 3.74 0 0 1 1.5 1.22 3.22 3.22 0 0 1 .54 1.87 3.6 3.6 0 0 1-.38 1.64c-.25.5-.6.95-1.06 1.31-.45.37-1 .65-1.6.86a6.37 6.37 0 0 1-2.84.26c-.3-.03-.59-.08-.89-.15-.3-.07-.6-.16-.88-.28a3.07 3.07 0 0 1-1.5-1.3 3.9 3.9 0 0 1-.52-1.73 7.17 7.17 0 0 1-.03-.58h3.04m-15.3.97l3.62-3.26c.56-.5 1.04-.95 1.43-1.34.4-.38.71-.74.95-1.06.24-.31.41-.62.52-.9.1-.28.16-.57.16-.88 0-.64-.15-1.1-.44-1.37-.3-.27-.7-.4-1.22-.4-.37 0-.67.06-.9.2-.23.13-.4.3-.53.5a2 2 0 0 0-.26.67 3.6 3.6 0 0 0-.07.66h-3.06l.01-.5a4.03 4.03 0 0 1 .8-2.12c.41-.5.96-.88 1.66-1.14.7-.25 1.48-.38 2.33-.38 1.53 0 2.7.35 3.51 1.02.8.68 1.21 1.61 1.21 2.78a4.34 4.34 0 0 1-.76 2.6c-.28.43-.67.89-1.16 1.38-.5.5-1.12 1.08-1.88 1.74l-2.8 2.44 6.68-.14v2.32h-9.8v-2.82m-5.75-9.28c-.35 0-.66.13-.93.38-.27.26-.4.57-.4.94 0 .38.13.7.4.94.25.26.57.38.93.38.39 0 .71-.13.97-.39.25-.26.38-.57.38-.93 0-.36-.13-.67-.4-.93a1.3 1.3 0 0 0-.95-.39zm.01-2.06a3.32 3.32 0 0 1 2.38.98c.3.3.55.67.73 1.08a3.36 3.36 0 0 1-4.42 4.44 3.33 3.33 0 0 1-1.8-1.8 3.25 3.25 0 0 1 0-2.64 3.48 3.48 0 0 1 1.8-1.8c.4-.17.84-.26 1.31-.26m-13.72 8.88h3.52v-3.68-.26-.44l.03-.47.01-.37zm-2.24 2.24v-2.7l5.6-8.22h2.98l-.02 8.62h1.9v2.3h-1.9v3.04h-2.96v-3.04h-5.6m-10.74-8.82a19.82 19.82 0 0 0 3.7-2.1h2.58v13.96h-3.02v-10.86a15.1 15.1 0 0 1-3.26 1.78v-2.78m-30.24-2.58h4.48l5.42 11.36v-11.36h2.88v14.44h-4.26l-5.6-12v12h-2.92v-14.44m-4.08.5l-.52 4.96h-1.58l-.54-4.96zm-3.82 0l-.54 4.96h-1.58l-.54-4.96h2.66M111.02 121c0 .1.02.26.05.46.03.2.11.42.23.62.12.21.3.4.54.54.24.16.57.23.98.23.56 0 1-.18 1.32-.54.32-.36.48-.81.48-1.36 0-.52-.11-.91-.33-1.19a2 2 0 0 0-.84-.6 3.48 3.48 0 0 0-1.12-.24l-1.15-.03v-2.36l1.13-.06c.4-.02.78-.1 1.13-.24.35-.13.63-.33.86-.6.23-.27.34-.66.34-1.16 0-.56-.17-.98-.52-1.25a1.9 1.9 0 0 0-2.38.03 1.6 1.6 0 0 0-.38.54c-.1.22-.14.47-.14.77h-3.06c.03-.31.08-.68.17-1.1.09-.42.3-.84.65-1.27a3.81 3.81 0 0 1 1.73-1.19 6.7 6.7 0 0 1 2.15-.35c.9 0 1.64.13 2.24.38.6.26 1.08.57 1.45.95.37.38.63.8.78 1.24.15.45.23.85.23 1.23 0 .58-.11 1.07-.33 1.46-.22.38-.48.7-.78.92-.3.24-.6.41-.89.53-.3.12-.52.2-.68.24.23.07.48.16.76.28a3.76 3.76 0 0 1 1.49 1.22 3.24 3.24 0 0 1 .51 1.32 3.62 3.62 0 0 1-.34 2.2c-.25.5-.6.94-1.06 1.3-.45.37-.99.65-1.61.86a6.34 6.34 0 0 1-2.83.26c-.3-.03-.6-.08-.89-.15a5.3 5.3 0 0 1-.88-.28 3.02 3.02 0 0 1-1.49-1.3c-.17-.3-.3-.6-.38-.9a4.8 4.8 0 0 1-.18-1.41h3.04m-10.19-4.67c.51 0 .95-.16 1.33-.48.37-.32.56-.76.56-1.32a1.68 1.68 0 0 0-1.18-1.63 2.2 2.2 0 0 0-.69-.1c-.51 0-.94.15-1.3.46-.35.32-.53.74-.53 1.27 0 .5.16.92.48 1.28.32.35.77.52 1.33.52zm0 6.54c.21 0 .44-.03.67-.1a1.81 1.81 0 0 0 1.13-1.02c.13-.28.19-.61.19-1 0-.64-.2-1.13-.6-1.49-.4-.35-.87-.53-1.41-.53-.59 0-1.07.2-1.45.58-.37.4-.56.88-.56 1.48 0 .36.06.67.18.93s.28.48.47.64a2.11 2.11 0 0 0 1.38.51zm-2.15-5.4c-.17-.05-.4-.13-.7-.25a3.03 3.03 0 0 1-1.6-1.38c-.22-.35-.32-.8-.32-1.34a3.64 3.64 0 0 1 1.13-2.6c.4-.38.9-.69 1.5-.94.6-.24 1.34-.37 2.19-.37.7 0 1.33.1 1.92.28a4.5 4.5 0 0 1 1.5.8c.41.33.74.73.97 1.2a3.28 3.28 0 0 1 .12 2.66 3.23 3.23 0 0 1-2.51 1.9l.48.15c.19.06.38.14.58.24a3.77 3.77 0 0 1 1.18 1.05 3.39 3.39 0 0 1 .64 2.08 3.5 3.5 0 0 1-.4 1.71c-.28.5-.66.93-1.13 1.28-.47.36-1.02.62-1.64.8-.62.18-1.27.27-1.95.27-.7 0-1.36-.1-1.95-.32-.6-.2-1.1-.5-1.52-.87-.42-.36-.75-.8-.98-1.29a3.66 3.66 0 0 1-.07-2.99c.18-.39.43-.73.73-1.03.35-.33.67-.56.98-.7l.85-.34m-8.26.54a17.35 17.35 0 0 0-.08-1.7 14.7 14.7 0 0 0-.1-.94 6.3 6.3 0 0 0-.18-.8l-.12-.4a2.04 2.04 0 0 0-.7-1.02c-.2-.13-.42-.2-.7-.2-.21 0-.4.05-.56.13-.16.09-.3.2-.4.31-.1.12-.2.25-.26.4a4.35 4.35 0 0 0-.43 1.52 16.96 16.96 0 0 0-.18 2.2l-.01.55c0 .6.03 1.17.08 1.72.05.56.15 1.05.29 1.47.14.43.33.77.57 1.02.24.26.55.38.92.38.4 0 .72-.15.97-.45.25-.3.43-.68.56-1.14.13-.46.21-.96.26-1.5.05-.55.07-1.06.07-1.55zm-6.76-.16c0-.3.02-.7.05-1.18a11.02 11.02 0 0 1 .7-3.13c.2-.54.49-1.02.85-1.45a4.14 4.14 0 0 1 3.26-1.46 4.47 4.47 0 0 1 3.12 1.22c.21.22.39.42.52.62.17.27.34.56.5.87.16.32.3.67.4 1.07a11.01 11.01 0 0 1 .36 3.1c0 .82-.06 1.66-.18 2.55a8.06 8.06 0 0 1-.71 2.41 4.9 4.9 0 0 1-1.5 1.82c-.65.48-1.5.72-2.55.72a4.06 4.06 0 0 1-3.75-2.19 7.33 7.33 0 0 1-.82-2.28c-.17-.86-.25-1.75-.25-2.69m-6.04 4.28h2.54v2.66h-2.54v-2.66m-11.24-2.62h3.52v-3.68-.26l.01-.44.02-.47v-.37zm-2.24 2.24v-2.7l5.6-8.22h2.98l-.02 8.62h1.9v2.3h-1.9v3.04h-2.96v-3.04h-5.6m-10.74-8.82a19.85 19.85 0 0 0 3.7-2.1h2.58v13.96h-3.02v-10.86a15.09 15.09 0 0 1-3.26 1.78v-2.78m-6.84-2.08h2.66l-.54 4.96H47.1l-.54-4.96m-7.61 11.98c.21 0 .43-.04.66-.12.22-.08.43-.21.61-.4.19-.2.34-.46.46-.78s.18-.72.18-1.2a2.7 2.7 0 0 0-.52-1.77 1.6 1.6 0 0 0-1.27-.63c-.12 0-.3.03-.52.08-.22.06-.45.17-.66.34a2.2 2.2 0 0 0-.58.75c-.17.33-.25.76-.25 1.3 0 .42.05.79.16 1.1.1.3.24.56.42.75.17.2.37.35.6.44.24.1.47.14.7.14zm1.69-8.54c-.03-.5-.18-.86-.47-1.07-.29-.2-.62-.3-.99-.3-.5 0-.9.13-1.17.4-.27.28-.48.61-.61 1.01s-.22.83-.25 1.28c-.03.46-.06.86-.07 1.22a4.13 4.13 0 0 1 1.01-.73 3.52 3.52 0 0 1 1.73-.39c.48 0 .96.09 1.44.26.48.18.91.45 1.3.81.37.37.68.83.91 1.38.23.56.35 1.21.35 1.97 0 .78-.11 1.45-.34 2.03a4.98 4.98 0 0 1-2.68 2.58c-.56.22-1.23.33-2.02.33-.8 0-1.48-.11-2.03-.35a3.9 3.9 0 0 1-2.18-2.2 7.66 7.66 0 0 1-.59-2.74l-.02-1.05c0-.69.03-1.39.1-2.09.05-.7.16-1.36.32-1.99a7 7 0 0 1 .68-1.72 4.49 4.49 0 0 1 3.02-2.14 4.74 4.74 0 0 1 1.36-.14c.52 0 1.03.07 1.52.21.5.14.93.36 1.32.65.39.3.7.67.94 1.13.24.46.37 1.01.38 1.65h-2.96m-12.67-1.6c-.35 0-.66.13-.93.38-.26.26-.4.57-.4.94 0 .38.13.7.4.94.26.26.57.38.93.38.39 0 .71-.13.97-.39.25-.26.38-.57.38-.93 0-.36-.13-.67-.4-.93a1.3 1.3 0 0 0-.95-.39zm.01-2.06a3.33 3.33 0 0 1 3.11 2.06 3.4 3.4 0 0 1-1.79 4.44 3.38 3.38 0 1 1-1.32-6.5m-8.76 7.38a17.85 17.85 0 0 0-.36-3.44l-.12-.4a2.13 2.13 0 0 0-.26-.55 1.88 1.88 0 0 0-.45-.47c-.18-.13-.4-.2-.69-.2-.21 0-.4.05-.56.13a1.58 1.58 0 0 0-.66.7l-.16.37c-.12.36-.2.75-.27 1.16a14.98 14.98 0 0 0-.18 2.2v.55c0 .6.02 1.17.07 1.72.05.56.15 1.05.3 1.47.13.43.32.77.56 1.02.24.26.55.38.92.38.4 0 .72-.15.97-.45.25-.3.43-.68.56-1.14.13-.46.21-.96.26-1.5.05-.55.07-1.06.07-1.55zm-6.76-.16c0-.3.02-.7.05-1.18a10.94 10.94 0 0 1 .7-3.13c.2-.54.5-1.02.85-1.45a4.16 4.16 0 0 1 3.26-1.46 4.46 4.46 0 0 1 3.12 1.22c.21.22.39.42.52.62.17.27.34.56.5.87.16.32.3.67.4 1.07a10.8 10.8 0 0 1 .36 3.1c0 .82-.06 1.66-.18 2.55a8.05 8.05 0 0 1-.7 2.41 4.86 4.86 0 0 1-1.5 1.82c-.66.48-1.5.72-2.56.72a4.06 4.06 0 0 1-3.75-2.19 7.32 7.32 0 0 1-.82-2.28c-.17-.86-.25-1.75-.25-2.69m-9.5 3.5c0 .08.02.21.05.38.03.18.11.35.23.52.12.18.29.33.51.46.22.14.5.2.85.2.27 0 .52-.05.77-.15.25-.1.47-.25.66-.47.2-.21.35-.48.46-.8a4.37 4.37 0 0 0 .07-2.14c-.07-.3-.18-.57-.33-.8a1.66 1.66 0 0 0-.58-.55c-.23-.14-.52-.2-.85-.2-.33 0-.61.05-.83.16a1.72 1.72 0 0 0-.82.88l-.13.35-2.9-.08.32-8.26H8.9v2.28H3.08l-.18 3.46.38-.32c.15-.12.32-.23.53-.33a3.88 3.88 0 0 1 1.73-.35c.56 0 1.09.1 1.59.3a3.8 3.8 0 0 1 2.2 2.27c.22.56.33 1.18.33 1.87 0 .6-.09 1.2-.27 1.8a4.5 4.5 0 0 1-2.42 2.8c-.63.3-1.4.46-2.29.46-.73 0-1.45-.1-2.14-.33a3.72 3.72 0 0 1-1.76-1.19 2.94 2.94 0 0 1-.64-1.23c-.08-.39-.13-.72-.14-.99h2.96"/>
  <path fill="#231f20" d="M293.96 161.36l2.22 7 2.26-7h2.94l-3.82 9.92-1.22 4.02h-2.98l1.28-3.8-3.88-10.14h3.2m-11.88 4.94c0 .12 0 .35.03.67.02.33.09.66.22 1 .13.32.32.62.59.88.26.26.65.39 1.14.39.52 0 .92-.13 1.2-.39.28-.26.49-.56.62-.89.13-.33.2-.65.23-.97l.03-.63c0-.28-.02-.6-.06-.96-.04-.36-.13-.7-.27-1.01a2.02 2.02 0 0 0-.61-.79 1.67 1.67 0 0 0-1.08-.32c-.56 0-1.04.23-1.44.7-.4.47-.6 1.24-.6 2.32zm7.06-4.9l-.1 1.17c-.03.38-.04.82-.04 1.33v7.46c0 .93-.17 1.67-.51 2.2-.34.55-.77.96-1.28 1.24a4.6 4.6 0 0 1-1.65.53 12.44 12.44 0 0 1-2.88.03c-.5-.05-.97-.19-1.42-.4a3.23 3.23 0 0 1-1.18-.97 3.14 3.14 0 0 1-.56-1.79h2.84l.07.35c.03.16.1.3.23.46.12.15.3.3.52.41.23.12.54.18.94.18.44 0 .83-.1 1.17-.32.34-.21.56-.55.67-1a7.02 7.02 0 0 0 .1-.8c.02-.17.02-.39.03-.64v-.96c-.23.3-.47.55-.71.74a2.86 2.86 0 0 1-1.41.6 3.95 3.95 0 0 1-3.81-1.52c-.35-.47-.6-1-.78-1.59a6.48 6.48 0 0 1 0-3.67c.19-.6.46-1.13.82-1.6a4 4 0 0 1 3.24-1.54c.45 0 .84.05 1.17.16.32.1.6.24.82.39.22.15.39.31.52.48l.3.41.11-1.34h2.78m-19.62 5.12c0 1.14.19 1.96.56 2.47.37.51.93.77 1.66.77.32 0 .61-.05.89-.16.27-.1.5-.3.69-.56.19-.27.33-.62.44-1.07a8.84 8.84 0 0 0 .1-2.73 3.46 3.46 0 0 0-.31-1.04 2.02 2.02 0 0 0-.67-.79 2 2 0 0 0-1.18-.3c-.55 0-.97.13-1.26.4-.3.27-.5.6-.64.96-.14.37-.22.75-.24 1.13-.03.39-.04.7-.04.92zm-3.04-.02a7 7 0 0 1 .26-1.87 4.53 4.53 0 0 1 2.46-3.01c.66-.33 1.5-.5 2.5-.5.92 0 1.7.14 2.37.43a4.48 4.48 0 0 1 2.57 2.85 6.73 6.73 0 0 1-.01 4.06 4.62 4.62 0 0 1-2.61 2.92c-.67.3-1.46.44-2.38.44-.72 0-1.4-.1-2.02-.33a4.5 4.5 0 0 1-2.74-2.67 6.23 6.23 0 0 1-.4-2.32m-5.5-9.48h2.96v14.44h-2.96v-14.44m-10.04 9.5c0 1.14.18 1.96.56 2.47.37.51.93.77 1.66.77.32 0 .62-.05.89-.16.27-.1.5-.3.69-.56.19-.27.33-.62.44-1.07a8.35 8.35 0 0 0 .09-2.73 3.27 3.27 0 0 0-.3-1.04 2.05 2.05 0 0 0-.67-.79c-.3-.2-.69-.3-1.18-.3-.55 0-.97.13-1.26.4-.3.27-.5.6-.64.96-.14.37-.21.75-.24 1.13-.03.39-.04.7-.04.92zm-3.04-.02c0-.61.09-1.24.26-1.87a4.55 4.55 0 0 1 2.46-3.01c.67-.33 1.5-.5 2.5-.5.92 0 1.7.14 2.37.43a4.5 4.5 0 0 1 2.57 2.85 6.73 6.73 0 0 1-.01 4.06 4.6 4.6 0 0 1-2.61 2.92c-.67.3-1.46.44-2.38.44-.72 0-1.4-.1-2.02-.33a4.47 4.47 0 0 1-2.74-2.67 6.12 6.12 0 0 1-.4-2.32m-12.12-3.34v-.21l-.01-.46-.02-.59c0-.21-.02-.4-.03-.58h2.84l.08 1.52a3.24 3.24 0 0 1 1.88-1.55c.39-.14.85-.21 1.4-.21a3.4 3.4 0 0 1 2.2.7c.24.19.43.4.57.6a3.47 3.47 0 0 1 .45 1.07 9.8 9.8 0 0 1 .13 1.37v6.64h-3.01v-6.28c0-.21 0-.4-.02-.59a1.36 1.36 0 0 0-.14-.51c-.1-.23-.28-.42-.51-.6a1.52 1.52 0 0 0-.93-.26c-.32 0-.62.07-.9.21a1.7 1.7 0 0 0-.9 1.15c-.06.25-.1.58-.1.96v5.92h-2.98v-8.3m-12.58-6.14h2.94v5.7l.34-.43a3.18 3.18 0 0 1 1.4-.9 3.7 3.7 0 0 1 1.18-.17 3.77 3.77 0 0 1 1.85.45 3.08 3.08 0 0 1 1.09.91c.19.25.34.6.47 1.06.12.45.19 1.02.19 1.68v6.14h-2.96v-6.05l-.03-.6c-.02-.24-.08-.49-.18-.73-.1-.24-.26-.45-.48-.62a1.53 1.53 0 0 0-.95-.26c-.21 0-.43.03-.65.1-.22.07-.42.18-.61.34-.19.16-.34.37-.46.63s-.18.6-.18 1l.02 6.2h-2.98v-14.45m-5.13 7.92l-.06-.44a2.3 2.3 0 0 0-.18-.62c-.1-.21-.22-.4-.39-.56a.94.94 0 0 0-.67-.24c-.34 0-.62.12-.82.35-.2.23-.37.52-.47.85-.1.33-.18.69-.2 1.05a11.03 11.03 0 0 0-.04 1.6c.01.26.04.54.09.85.04.3.12.6.22.9.1.3.23.54.4.72.15.15.3.24.43.28.14.04.26.06.37.06.08 0 .19-.02.32-.05a.95.95 0 0 0 .42-.24c.14-.13.27-.32.39-.58.12-.26.2-.62.22-1.07h2.92l-.06.66a3.77 3.77 0 0 1-.55 1.55 3.73 3.73 0 0 1-1.92 1.47 5.98 5.98 0 0 1-3.53-.04 3.55 3.55 0 0 1-1.56-1.06c-.44-.5-.77-1.1-.97-1.76-.2-.67-.31-1.4-.31-2.22 0-1.15.18-2.07.55-2.76a4.16 4.16 0 0 1 2.87-2.31 5.1 5.1 0 0 1 2.73.04c.48.14.93.36 1.33.66a3.46 3.46 0 0 1 1.36 2.91h-2.89m-10.71.36l-.03-.55a2.3 2.3 0 0 0-.2-.75c-.11-.25-.3-.48-.53-.67-.24-.2-.57-.29-1-.29-.32 0-.6.06-.83.19-.24.13-.43.3-.58.5-.16.2-.27.45-.35.72-.08.27-.13.56-.14.85zm-3.76 1.86c0 .16 0 .4.03.7.02.3.1.6.23.9.13.3.33.55.6.77.28.22.68.33 1.2.33.37 0 .72-.1 1.05-.28.32-.19.56-.56.7-1.12h2.7c0 .12-.02.26-.04.43-.02.17-.06.34-.13.53a3.44 3.44 0 0 1-2.27 2.12 6.65 6.65 0 0 1-4.74-.3 3.24 3.24 0 0 1-.88-.66 4.14 4.14 0 0 1-1.01-1.72 9.06 9.06 0 0 1-.21-3.5 5 5 0 0 1 .97-2.49 4.75 4.75 0 0 1 3.9-1.85c.36 0 .73.04 1.12.12a4.4 4.4 0 0 1 2.14 1.15 4.95 4.95 0 0 1 1.21 2.21 7.37 7.37 0 0 1 .23 1.92c0 .28 0 .53-.02.74h-6.78m-8.74-7.78h-4.3v-2.36h11.7v2.36h-4.3v12.08h-3.1v-12.08m-16.1 4.08h-1.5v-2.1h1.5v-1.38c0-.44.05-.86.14-1.25.1-.4.27-.74.52-1.03.26-.3.61-.52 1.07-.69a5.24 5.24 0 0 1 1.77-.25l.56.01c.26 0 .61.04 1.04.1v2.03a4.3 4.3 0 0 0-.62-.06c-.39 0-.68.04-.88.13-.2.09-.35.2-.45.33a.82.82 0 0 0-.17.44l-.02.43v1.2h1.88v2.1h-1.88v8h-2.96v-8m-10.24 3.05c0 1.14.19 1.96.56 2.47.37.51.93.77 1.66.77.32 0 .62-.05.89-.16.27-.1.5-.3.69-.56.19-.27.33-.62.44-1.07a8.84 8.84 0 0 0 .1-2.73 3.42 3.42 0 0 0-.31-1.04 2 2 0 0 0-.67-.79 2 2 0 0 0-1.18-.3c-.55 0-.97.13-1.26.4-.3.27-.5.6-.64.96-.13.37-.21.75-.24 1.13-.03.39-.04.7-.04.92zm-3.04-.02c0-.61.09-1.24.26-1.87a4.54 4.54 0 0 1 2.46-3.01c.67-.33 1.5-.5 2.5-.5.92 0 1.71.14 2.37.43a4.5 4.5 0 0 1 2.57 2.85 6.69 6.69 0 0 1-.01 4.06 4.61 4.61 0 0 1-2.6 2.92c-.68.3-1.47.44-2.4.44-.71 0-1.38-.1-2.01-.33a4.49 4.49 0 0 1-2.74-2.67 6.2 6.2 0 0 1-.4-2.32m-14.84-5.14l2.22 7 2.26-7h2.94l-3.82 9.92-1.22 4.02h-2.98l1.28-3.8-3.88-10.14h3.2m-10.36 2.48a15.28 15.28 0 0 0-.04-1.22l-.05-.73-.05-.57h2.78l.06 1.94c.1-.21.21-.44.36-.68.15-.24.35-.46.6-.66s.58-.36.98-.48.9-.17 1.5-.14v2.66a4.75 4.75 0 0 0-1.76.1 2 2 0 0 0-.96.58 1.7 1.7 0 0 0-.4.87c-.04.33-.06.65-.06.97v4.98h-2.96v-7.62m-5.84 2.86a5.96 5.96 0 0 0-1.31.02c-.4.05-.74.15-1.03.3-.3.13-.52.31-.68.54-.16.23-.24.49-.24.78a1.5 1.5 0 0 0 .36.97c.12.14.27.25.45.34.18.09.39.13.63.13.27 0 .5-.06.72-.17.21-.11.4-.25.54-.4.27-.33.43-.69.48-1.09.05-.4.08-.87.08-1.42zm.38 4.76a5.78 5.78 0 0 1-.1-1.38 3.97 3.97 0 0 1-1.72 1.41c-.27.1-.52.16-.75.18a7 7 0 0 1-.55.03 4.1 4.1 0 0 1-1.66-.26 3.27 3.27 0 0 1-.86-.54c-.3-.3-.53-.65-.67-1.04a3.45 3.45 0 0 1 .16-2.73 3.66 3.66 0 0 1 1.77-1.59c.3-.13.64-.24 1.01-.32a13.9 13.9 0 0 1 2.13-.23l.86-.01c0-.33 0-.6-.02-.78a2.17 2.17 0 0 0-.12-.56 1.05 1.05 0 0 0-.28-.44 1.6 1.6 0 0 0-.37-.25 1.4 1.4 0 0 0-.38-.12 1.45 1.45 0 0 0-.91.11c-.2.1-.37.23-.5.42-.1.17-.17.34-.19.49l-.03.41h-2.9a5 5 0 0 1 .03-.49 3.07 3.07 0 0 1 .5-1.28c.14-.22.34-.42.61-.6.47-.34.97-.56 1.52-.67a7.97 7.97 0 0 1 2.32-.12 5.25 5.25 0 0 1 1.95.57c.33.17.62.4.87.7.17.2.3.41.4.66a4.83 4.83 0 0 1 .3 1.81l.02 4.06c0 .43.02.85.05 1.28.03.43.1.85.19 1.28h-2.68m-13.84-7.62a15.97 15.97 0 0 0-.04-1.22l-.05-.73-.05-.57h2.78l.06 1.94c.1-.21.21-.44.36-.68.15-.24.35-.46.6-.66s.58-.36.98-.48.9-.17 1.5-.14v2.66a4.75 4.75 0 0 0-1.76.1 2 2 0 0 0-.96.58 1.7 1.7 0 0 0-.39.87c-.05.33-.07.65-.07.97v4.98h-2.96v-7.62m-5.52 2.82c0-.2-.01-.5-.04-.88a4.11 4.11 0 0 0-.25-1.15 2.65 2.65 0 0 0-.65-1 1.7 1.7 0 0 0-1.24-.43c-.55 0-.97.13-1.26.4-.3.27-.51.57-.65.92-.14.35-.22.7-.24 1.04l-.03.76c0 1.16.22 2.02.65 2.57.43.55.99.83 1.67.83.5 0 .9-.13 1.18-.4.28-.27.48-.57.6-.93.14-.35.21-.7.23-1.03l.03-.7zm-7.2-9.64h2.96v5.56a3.16 3.16 0 0 1 1.61-1.17c.26-.09.5-.14.72-.16l.53-.03a4.14 4.14 0 0 1 3.12 1.4c.4.45.71 1.01.94 1.67a7 7 0 0 1 .34 2.27c0 .95-.13 1.75-.38 2.39a4.49 4.49 0 0 1-.98 1.57c-.4.4-.85.7-1.35.87a4.44 4.44 0 0 1-2.88.05c-.29-.1-.58-.27-.88-.48a2.8 2.8 0 0 1-.79-.92l-.04.6a25 25 0 0 1-.06.82h-2.86v-14.44m-5.86 4.32h2.96v10.12h-2.96zm-.1-4.32h3.16v2.58h-3.16v-2.58m-11.34 0h3.16V169h6.2v2.46h-9.36v-14.44m-12 0h2.96v14.44h-2.96v-14.44m-5.84 9.68a5.96 5.96 0 0 0-1.31.02c-.4.05-.74.15-1.03.3-.3.13-.52.31-.68.54-.16.23-.24.49-.24.78a1.51 1.51 0 0 0 .36.97c.12.14.27.25.45.34.18.09.39.13.63.13.27 0 .5-.06.72-.17.21-.11.4-.25.54-.4.27-.33.43-.69.48-1.09.05-.4.08-.87.08-1.42zm.38 4.76a5.74 5.74 0 0 1-.1-1.38 3.95 3.95 0 0 1-1.72 1.41c-.27.1-.52.16-.75.18a7 7 0 0 1-.55.03 4.1 4.1 0 0 1-1.66-.26 3.27 3.27 0 0 1-.86-.54c-.3-.3-.53-.65-.67-1.04a3.45 3.45 0 0 1 .16-2.73 3.66 3.66 0 0 1 1.77-1.59c.3-.13.64-.24 1.01-.32a13.9 13.9 0 0 1 2.13-.23l.86-.01c0-.33 0-.6-.02-.78a2.12 2.12 0 0 0-.12-.56 1.03 1.03 0 0 0-.28-.44c-.12-.1-.24-.19-.37-.25a1.4 1.4 0 0 0-.38-.12 1.45 1.45 0 0 0-.91.11c-.2.1-.37.23-.5.42-.1.17-.17.34-.2.49l-.02.41h-2.9a5 5 0 0 1 .03-.49 3.07 3.07 0 0 1 .5-1.28c.14-.22.34-.42.6-.6.48-.34.98-.56 1.53-.67a7.97 7.97 0 0 1 2.32-.12 5.25 5.25 0 0 1 1.95.57c.33.17.62.4.87.7.17.2.3.41.4.66a4.8 4.8 0 0 1 .3 1.81l.02 4.06c0 .43.02.85.05 1.28.03.43.1.85.19 1.28H73.5m-18.64-8.3v-.21a12.4 12.4 0 0 0-.03-1.05c0-.21-.02-.4-.03-.58h2.84l.08 1.52a3.2 3.2 0 0 1 1.88-1.55c.39-.14.85-.21 1.4-.21a3.39 3.39 0 0 1 2.19.7c.25.19.44.4.58.6a3.5 3.5 0 0 1 .45 1.07c.04.15.07.34.09.56l.04.81v6.64h-3.01v-6.28c0-.21 0-.4-.02-.59a1.36 1.36 0 0 0-.14-.51c-.1-.23-.28-.42-.51-.6a1.52 1.52 0 0 0-.93-.26c-.32 0-.62.07-.9.21a1.7 1.7 0 0 0-.9 1.15c-.06.25-.1.58-.1.96v5.92h-2.98v-8.3m-10.08 3.36c0 1.14.19 1.96.56 2.47.37.51.93.77 1.66.77.32 0 .62-.05.89-.16.27-.1.5-.3.69-.56.19-.27.33-.62.44-1.07a8.64 8.64 0 0 0 .1-2.73 3.35 3.35 0 0 0-.31-1.04 2.02 2.02 0 0 0-.67-.79c-.3-.2-.69-.3-1.18-.3-.55 0-.97.13-1.26.4-.3.27-.5.6-.64.96-.13.37-.21.75-.24 1.13-.03.39-.04.7-.04.92zm-3.04-.02c0-.61.09-1.24.26-1.87a4.55 4.55 0 0 1 2.46-3.01c.67-.33 1.5-.5 2.5-.5.92 0 1.71.14 2.37.43a4.5 4.5 0 0 1 2.57 2.85 6.73 6.73 0 0 1-.01 4.06 4.61 4.61 0 0 1-2.61 2.92c-.67.3-1.46.44-2.38.44-.72 0-1.4-.1-2.02-.33a4.49 4.49 0 0 1-2.74-2.67 6.19 6.19 0 0 1-.4-2.32m-5.5-5.16h2.96v10.12h-2.96zm-.1-4.32h3.16v2.58h-3.16v-2.58m-2.12 14.3a7.79 7.79 0 0 1-2.3.32c-.75 0-1.33-.1-1.73-.31-.4-.2-.7-.45-.89-.74a2 2 0 0 1-.33-.89c-.03-.3-.05-.57-.05-.78v-5.54h-1.94v-1.98h1.94v-1.97l2.96-1.07v3.04h2.4v1.98h-2.4v4.56c0 .23.01.43.03.62.02.19.07.35.15.48.08.13.21.23.4.3.17.07.43.1.76.1a11.9 11.9 0 0 0 1-.06v1.94m-11.8-4.62a5.96 5.96 0 0 0-1.31.02c-.4.05-.74.15-1.03.3-.3.13-.52.31-.68.54-.16.23-.24.49-.24.78a1.5 1.5 0 0 0 .36.97c.12.14.27.25.45.34.18.09.39.13.63.13.27 0 .5-.06.72-.17.21-.11.4-.25.54-.4.27-.33.43-.69.48-1.09.05-.4.08-.87.08-1.42zm.38 4.76a5.74 5.74 0 0 1-.1-1.38 3.69 3.69 0 0 1-1.72 1.41c-.27.1-.52.16-.75.18a7 7 0 0 1-.55.03 4.1 4.1 0 0 1-1.66-.26 3.26 3.26 0 0 1-.86-.54c-.3-.3-.53-.65-.67-1.04a3.45 3.45 0 0 1 .16-2.73 3.65 3.65 0 0 1 1.77-1.59c.3-.13.64-.24 1.01-.32a13.89 13.89 0 0 1 2.13-.23l.86-.01c0-.33 0-.6-.02-.78a2.15 2.15 0 0 0-.12-.56 1.04 1.04 0 0 0-.28-.44c-.12-.1-.24-.19-.37-.25a1.4 1.4 0 0 0-.38-.12 1.45 1.45 0 0 0-.91.11c-.2.1-.37.23-.5.42-.1.17-.17.34-.19.49l-.03.41h-2.9a5 5 0 0 1 .03-.49 3.07 3.07 0 0 1 .5-1.28c.14-.22.34-.42.61-.6.47-.34.97-.56 1.52-.67a7.97 7.97 0 0 1 2.32-.12 5.25 5.25 0 0 1 1.95.57c.33.17.62.4.87.7.17.2.3.41.4.66a4.72 4.72 0 0 1 .3 1.81l.02 4.06c0 .43.02.85.05 1.28.03.43.1.85.19 1.28H22.6M.72 157.02H5.2l5.42 11.36v-11.36h2.88v14.44H9.24l-5.6-12v12H.72v-14.44m269.56-13.65a5.94 5.94 0 0 0-1.3.02c-.4.05-.75.15-1.04.29-.3.14-.52.32-.68.55-.16.22-.24.49-.24.78a1.5 1.5 0 0 0 .36.97c.12.14.27.25.45.34.18.09.4.13.63.13.27 0 .5-.06.72-.17.21-.12.4-.25.54-.41.27-.32.42-.68.48-1.08.05-.4.08-.88.08-1.42zm.38 4.76a5.72 5.72 0 0 1-.1-1.38 3.97 3.97 0 0 1-1.72 1.4c-.27.1-.52.17-.75.19l-.55.03a4.1 4.1 0 0 1-1.66-.26 3.28 3.28 0 0 1-.86-.54 2.8 2.8 0 0 1-.67-1.04 3.49 3.49 0 0 1 .16-2.73 3.7 3.7 0 0 1 1.77-1.6 8.85 8.85 0 0 1 3.14-.55h.86c0-.34 0-.6-.02-.78a2.12 2.12 0 0 0-.12-.56 1.05 1.05 0 0 0-.28-.44 1.56 1.56 0 0 0-.75-.37 1.45 1.45 0 0 0-.9.11c-.21.1-.38.23-.51.42-.1.17-.17.33-.19.49l-.03.4h-2.9c0-.13 0-.29.03-.48a3.11 3.11 0 0 1 .49-1.28c.15-.22.35-.43.62-.61.47-.34.97-.56 1.52-.66a7.97 7.97 0 0 1 2.32-.12 5.26 5.26 0 0 1 1.95.57c.32.16.62.4.87.69.17.2.3.42.4.67a4.83 4.83 0 0 1 .29 1.34l.01.47.02 4.06c0 .42.02.85.05 1.28.03.42.1.85.19 1.28h-2.68m-18.64-8.3v-.21-.46c-.02-.18-.02-.38-.03-.6 0-.2-.02-.4-.03-.57h2.84l.08 1.52a3.14 3.14 0 0 1 .92-1.05 3.66 3.66 0 0 1 2.36-.71 3.38 3.38 0 0 1 2.19.7c.24.18.44.39.58.6a3.39 3.39 0 0 1 .54 1.63 17.03 17.03 0 0 1 .05 1.99v5.46h-3.02v-6.28c0-.22 0-.41-.02-.6a1.36 1.36 0 0 0-.14-.5c-.1-.23-.28-.43-.5-.6a1.53 1.53 0 0 0-.94-.26c-.32 0-.62.07-.89.2a1.69 1.69 0 0 0-.9 1.16c-.08.25-.11.57-.11.96v5.92h-2.98v-8.3m-9.56-1.8l2.28 6.86 2.32-6.86h2.86l-3.64 10.1H243l-3.7-10.1h3.16m-11.64 5.16c0 1.13.19 1.96.56 2.47.37.51.93.77 1.66.77.32 0 .62-.06.89-.16s.5-.3.69-.56c.19-.27.33-.63.44-1.07a8.6 8.6 0 0 0 .09-2.73 3.42 3.42 0 0 0-.3-1.04 2.02 2.02 0 0 0-.67-.8c-.3-.2-.69-.3-1.18-.3-.55 0-.97.14-1.26.4-.3.28-.5.6-.64.97-.13.36-.22.74-.24 1.13-.03.39-.04.7-.04.92zm-3.04-.02c0-.62.09-1.24.26-1.87a4.55 4.55 0 0 1 2.46-3c.67-.35 1.5-.51 2.5-.51.92 0 1.7.14 2.37.43a4.51 4.51 0 0 1 2.57 2.85 6.73 6.73 0 0 1-.01 4.06 4.6 4.6 0 0 1-2.6 2.92c-.68.29-1.47.44-2.4.44-.71 0-1.38-.11-2.01-.33a4.49 4.49 0 0 1-2.74-2.67 6.2 6.2 0 0 1-.4-2.32m-12.08-9.48h2.94v5.7c.08-.12.2-.26.34-.43a3.18 3.18 0 0 1 1.4-.9 3.7 3.7 0 0 1 1.18-.17 3.77 3.77 0 0 1 1.85.45 3.02 3.02 0 0 1 1.09.9c.19.26.34.61.47 1.07.12.45.19 1.01.19 1.68v6.14h-2.96v-6.06l-.03-.59c-.02-.25-.08-.49-.18-.73-.1-.24-.26-.45-.48-.62a1.53 1.53 0 0 0-.95-.26c-.21 0-.43.03-.65.1-.22.06-.42.18-.61.34-.19.16-.34.37-.46.63s-.18.6-.18 1l.02 6.19h-2.98v-14.44m-6.04 4.32h2.96v10.12h-2.96zm-.1-4.32h3.16v2.58h-3.16v-2.58m-12.48 6.14v-.21-.46c-.02-.18-.02-.38-.03-.6 0-.2-.02-.4-.03-.57h2.84l.08 1.52a3.18 3.18 0 0 1 1.88-1.55c.39-.14.85-.21 1.4-.21a3.44 3.44 0 0 1 2.2.7c.24.18.43.39.57.6a3.37 3.37 0 0 1 .54 1.63l.04.8.01 1.19v5.46h-3.02v-6.28c0-.22 0-.41-.02-.6a1.4 1.4 0 0 0-.14-.5c-.1-.23-.28-.43-.51-.6a1.52 1.52 0 0 0-.93-.26c-.32 0-.62.07-.89.2-.27.15-.49.34-.65.58-.1.13-.18.32-.25.58-.08.25-.11.57-.11.96v5.92h-2.98v-8.3m-11.52-6.14h2.96v8.5l3.06-4.22h3.34l-3.46 4.4 3.68 5.76h-3.5l-3.12-5.5v5.5h-2.96v-14.44m-13 2.74h-1.6l1.66-2.9h2.68zm1.16 6.94a5.95 5.95 0 0 0-1.3.02c-.4.05-.75.15-1.04.29-.3.14-.52.32-.68.55-.16.22-.24.49-.24.78a1.5 1.5 0 0 0 .36.97c.12.14.27.25.45.34.18.09.39.13.63.13.27 0 .5-.06.72-.17.21-.12.4-.25.54-.41.27-.32.43-.68.48-1.08.05-.4.08-.88.08-1.42zm.38 4.76a5.54 5.54 0 0 1-.1-1.38 3.69 3.69 0 0 1-1.72 1.41c-.27.1-.52.16-.75.18a6.9 6.9 0 0 1-.55.03 4.1 4.1 0 0 1-1.66-.26 3.27 3.27 0 0 1-.86-.54c-.3-.3-.53-.66-.67-1.04a3.45 3.45 0 0 1 .16-2.73 3.61 3.61 0 0 1 1.77-1.6 8.79 8.79 0 0 1 2.1-.49c.36-.03.7-.05 1.04-.05l.86-.01c0-.34 0-.6-.02-.78a2.17 2.17 0 0 0-.12-.56 1.05 1.05 0 0 0-.28-.44 1.6 1.6 0 0 0-.37-.25c-.13-.06-.25-.1-.38-.12a1.46 1.46 0 0 0-.91.11c-.2.1-.37.23-.5.42-.1.17-.17.33-.19.49l-.03.4h-2.9c0-.13 0-.29.03-.48a3.11 3.11 0 0 1 .49-1.28c.15-.22.35-.43.62-.61.47-.34.97-.56 1.52-.66a7.97 7.97 0 0 1 2.32-.12 5.27 5.27 0 0 1 1.95.57c.33.16.62.4.87.69.17.2.3.42.4.67a4.83 4.83 0 0 1 .3 1.8l.02 4.07c0 .42.02.85.05 1.28.03.42.1.85.19 1.28h-2.68m-17.24-14.44h2.96v8.5l3.06-4.22h3.34l-3.46 4.4 3.68 5.76h-3.5l-3.12-5.5v5.5h-2.96v-14.44m-5.1 7.92c0-.1-.02-.24-.05-.44-.03-.2-.09-.4-.18-.62-.1-.22-.22-.4-.39-.56a.93.93 0 0 0-.67-.24c-.34 0-.62.11-.82.35-.21.23-.37.51-.47.85-.1.33-.18.68-.21 1.05a10.94 10.94 0 0 0 .06 2.45c.04.3.12.6.22.9.1.29.23.53.4.72a1 1 0 0 0 .43.28c.14.04.26.06.37.06.08 0 .19-.02.33-.05a.94.94 0 0 0 .41-.24c.14-.13.27-.32.4-.58.11-.26.18-.62.2-1.07h2.93l-.06.66a3.68 3.68 0 0 1-.55 1.55 3.78 3.78 0 0 1-1.92 1.47 6.01 6.01 0 0 1-3.53-.04 3.58 3.58 0 0 1-1.56-1.06c-.44-.5-.76-1.1-.97-1.76-.2-.67-.31-1.4-.31-2.22 0-1.15.18-2.07.55-2.76a4.14 4.14 0 0 1 2.87-2.31 5.09 5.09 0 0 1 2.73.04c.49.14.93.36 1.33.66a3.44 3.44 0 0 1 1.36 2.9h-2.9m-11.3-3.6h2.96v10.13h-2.96zm-.1-4.31h3.16v2.58h-3.16v-2.58m-12.48 6.14v-.21a14.48 14.48 0 0 0-.03-1.05c0-.22-.02-.4-.03-.58h2.84l.08 1.52a3.21 3.21 0 0 1 1.88-1.55c.39-.14.85-.21 1.4-.21a3.38 3.38 0 0 1 2.19.7c.25.18.44.39.58.6a3.56 3.56 0 0 1 .45 1.07c.04.15.07.34.09.56l.04.8.01 1.19v5.46h-3.02v-6.28c0-.22 0-.41-.02-.6a1.36 1.36 0 0 0-.14-.5 1.52 1.52 0 0 0-1.44-.86c-.32 0-.62.07-.89.2a1.7 1.7 0 0 0-.9 1.16c-.07.25-.11.57-.11.96v5.92h-2.98v-8.3m-12.58-6.14h2.94v5.7c.08-.12.2-.26.34-.43a3.2 3.2 0 0 1 1.39-.9 3.7 3.7 0 0 1 1.19-.17 3.76 3.76 0 0 1 1.85.45 3 3 0 0 1 1.56 1.97c.13.45.19 1.01.19 1.68v6.14h-2.96v-6.06l-.03-.59c-.02-.25-.08-.49-.18-.73a1.5 1.5 0 0 0-.48-.62 1.53 1.53 0 0 0-.95-.26c-.21 0-.43.03-.65.1-.22.06-.42.18-.61.34-.19.16-.34.37-.46.63s-.18.6-.18 1l.02 6.19h-2.98v-14.44m-5.13 7.92l-.06-.44c-.03-.2-.09-.4-.18-.62-.1-.22-.22-.4-.39-.56a.93.93 0 0 0-.67-.24c-.34 0-.62.11-.82.35-.2.23-.37.51-.47.85-.1.33-.18.68-.21 1.05a10.9 10.9 0 0 0 .06 2.45c.04.3.12.6.22.9.1.29.23.53.4.72a1 1 0 0 0 .43.28c.14.04.26.06.37.06.08 0 .19-.02.33-.05a.95.95 0 0 0 .41-.24c.14-.13.27-.32.4-.58.11-.26.18-.62.2-1.07h2.93l-.06.66a3.72 3.72 0 0 1-.55 1.55 3.8 3.8 0 0 1-1.92 1.47 6 6 0 0 1-3.53-.04 3.59 3.59 0 0 1-1.56-1.06c-.44-.5-.76-1.1-.97-1.76-.2-.67-.31-1.4-.31-2.22 0-1.15.18-2.07.55-2.76a4.14 4.14 0 0 1 2.87-2.31 5.08 5.08 0 0 1 2.73.04c.49.14.93.36 1.33.66a3.44 3.44 0 0 1 1.36 2.9h-2.9m-10.7.37l-.03-.55a2.3 2.3 0 0 0-.2-.75 1.81 1.81 0 0 0-.53-.67c-.24-.2-.57-.3-1-.3-.32 0-.6.07-.83.2-.23.12-.43.3-.58.5-.15.2-.27.45-.35.72-.08.27-.13.55-.14.85zm-3.76 1.86l.03.7c.02.3.1.6.23.9.13.3.34.55.61.77.27.22.67.33 1.19.33.37 0 .72-.1 1.05-.28.33-.19.56-.56.71-1.12h2.7l-.05.43c-.02.16-.06.34-.13.53a3.54 3.54 0 0 1-.78 1.24c-.37.39-.87.68-1.49.88a6.66 6.66 0 0 1-4.73-.3 3.16 3.16 0 0 1-.9-.66 4.12 4.12 0 0 1-1-1.72c-.2-.67-.3-1.4-.3-2.22 0-.42.03-.84.09-1.28.06-.44.17-.87.32-1.3.16-.41.37-.81.65-1.2a4.82 4.82 0 0 1 3.9-1.85c.36 0 .73.05 1.12.13a4.38 4.38 0 0 1 2.14 1.15 5.18 5.18 0 0 1 1.39 3.22 9.15 9.15 0 0 1 .03 1.65H95.7m-4.22 4.16a7.8 7.8 0 0 1-2.3.32c-.75 0-1.33-.1-1.73-.31-.4-.2-.7-.45-.89-.74a2 2 0 0 1-.33-.9c-.03-.3-.05-.56-.05-.77v-5.54h-1.94v-1.98h1.94v-1.97l2.96-1.07v3.04h2.4v1.98h-2.4v4.56c0 .22 0 .43.03.62.02.18.07.34.15.48.08.13.2.23.39.3.18.06.44.1.77.1a11.89 11.89 0 0 0 1-.06v1.94m-16.14-11.56h-1.6l1.66-2.9h2.68zM73.6 138h2.96v10.12H73.6V138m-12.58 1.82v-.21l-.01-.46-.02-.6c0-.2-.02-.4-.03-.57h2.84l.08 1.52a3.21 3.21 0 0 1 1.88-1.55c.39-.14.85-.21 1.4-.21a3.39 3.39 0 0 1 2.19.7c.25.18.44.39.58.6a3.5 3.5 0 0 1 .54 1.63l.04.8v6.65H67.5v-6.28c0-.22 0-.41-.02-.6a1.37 1.37 0 0 0-.14-.5c-.1-.23-.28-.43-.51-.6a1.52 1.52 0 0 0-.93-.26c-.32 0-.62.07-.89.2a1.69 1.69 0 0 0-.9 1.16c-.07.25-.11.57-.11.96v5.92h-2.98v-8.3m-10.28 3.4c0 .43.04.83.11 1.2.07.39.2.73.35 1.02.16.29.37.52.63.7.27.17.58.26.96.26a2 2 0 0 0 1.14-.34c.34-.23.59-.5.75-.8.22-.43.36-.87.41-1.32.05-.46.07-.81.07-1.06 0-1-.2-1.76-.6-2.28-.39-.52-.93-.78-1.61-.78-.5 0-.9.13-1.19.39-.3.26-.51.57-.66.93a4.3 4.3 0 0 0-.29 1.12c-.05.39-.07.7-.07.96zm4.32-9.54h2.96v12.8a20.87 20.87 0 0 0 .08 1.64h-2.98l-.08-1.46c-.1.18-.23.37-.36.56-.14.18-.36.38-.66.58-.38.24-.74.38-1.1.44-.35.05-.64.08-.87.08a3.96 3.96 0 0 1-3.18-1.32c-.75-.88-1.13-2.12-1.13-3.7 0-.84.11-1.6.33-2.26a5.2 5.2 0 0 1 .91-1.7c.4-.47.86-.83 1.4-1.08a4.28 4.28 0 0 1 3-.21 4 4 0 0 1 .84.39 2.7 2.7 0 0 1 .84.82v-5.58m-16.74 9.5c0 1.13.19 1.96.56 2.47.37.51.93.77 1.66.77.32 0 .62-.06.89-.16s.5-.3.69-.56c.19-.27.33-.63.44-1.07a8.63 8.63 0 0 0 .1-2.73 3.37 3.37 0 0 0-.3-1.04 2.01 2.01 0 0 0-.68-.8c-.3-.2-.69-.3-1.18-.3-.55 0-.97.14-1.26.4-.3.28-.5.6-.64.97-.13.36-.21.74-.24 1.13-.03.39-.04.7-.04.92zm-3.04-.02c0-.62.09-1.24.26-1.87a4.53 4.53 0 0 1 2.46-3c.67-.35 1.5-.51 2.5-.51.92 0 1.71.14 2.37.43a4.5 4.5 0 0 1 2.57 2.85 6.72 6.72 0 0 1-.01 4.06 4.61 4.61 0 0 1-2.61 2.92c-.67.29-1.46.44-2.38.44-.72 0-1.4-.11-2.02-.33a4.49 4.49 0 0 1-2.74-2.67 6.2 6.2 0 0 1-.4-2.32m-7.22-2.66a16.27 16.27 0 0 0-.04-1.22 23.42 23.42 0 0 0-.1-1.3h2.78l.06 1.94c.1-.22.21-.44.36-.68.15-.24.35-.46.6-.66s.58-.36.98-.48.9-.17 1.5-.14v2.66a4.75 4.75 0 0 0-1.76.1 2 2 0 0 0-.96.58 1.7 1.7 0 0 0-.39.87c-.05.32-.07.65-.07.97v4.98h-2.96v-7.62m-7-4.08h-1.6l1.66-2.9h2.68zm1.16 6.94a5.96 5.96 0 0 0-1.31.02c-.4.05-.74.15-1.03.29-.3.14-.52.32-.68.55-.16.22-.24.49-.24.78a1.5 1.5 0 0 0 .36.97c.12.14.27.25.45.34.18.09.39.13.63.13.27 0 .5-.06.72-.17.21-.12.4-.25.54-.41.27-.32.43-.68.48-1.08.05-.4.08-.88.08-1.42zm.38 4.76a5.74 5.74 0 0 1-.1-1.38 3.69 3.69 0 0 1-1.72 1.41c-.27.1-.52.16-.75.18l-.55.03a4.1 4.1 0 0 1-1.66-.26 3.27 3.27 0 0 1-.86-.54c-.3-.3-.53-.66-.67-1.04a3.45 3.45 0 0 1 .16-2.73 3.67 3.67 0 0 1 1.77-1.6 8.77 8.77 0 0 1 2.1-.49c.36-.03.7-.05 1.04-.05l.86-.01c0-.34 0-.6-.02-.78a2.15 2.15 0 0 0-.12-.56 1.04 1.04 0 0 0-.28-.44c-.12-.1-.24-.2-.37-.25a1.4 1.4 0 0 0-.38-.12 1.45 1.45 0 0 0-.91.11c-.2.1-.37.23-.5.42-.1.17-.17.33-.19.49l-.03.4h-2.9l.03-.48a3.07 3.07 0 0 1 .5-1.28c.14-.22.34-.43.61-.61.47-.34.97-.56 1.52-.66a7.97 7.97 0 0 1 2.32-.12 5.25 5.25 0 0 1 1.95.57c.33.16.62.4.87.69.17.2.3.42.4.67a4.72 4.72 0 0 1 .3 1.8l.02 4.07c0 .42.02.85.05 1.28.03.42.1.85.19 1.28H22.6M.72 133.69H5.2l5.42 11.36v-11.36h2.88v14.44H9.24l-5.6-12v12H.72v-14.44M195.65.25h19.7v39.53L246.11-.01h23l-33.67 41.19 36.6 50.71h-24.53l-32.16-46.77v46.77h-19.7V.25m-66.6 15h-27.33V-.01h74.48v15.26h-27.32v76.64h-19.83V15.25M.67-.01h28.47l34.45 72.33V-.01h18.3v91.9H54.82l-35.6-76.26V91.9H.67V0"/>
</svg>
