<svg xmlns="http://www.w3.org/2000/svg" viewBox="0 0 315 175">
  <path fill="#fff" d="M-40-49h395v273H-40z"/>
  <path fill="#ef2e31" d="M152.97 117.92l-2.06 4.28h-1.8l1.3-4.28h2.56m132.68-10.23h8.4v2.05h-5.7v2.97h5.34v2.06h-5.35v3.39h5.9v2.08h-8.59v-12.55m-3.52.44l-.45 4.3h-1.38l-.46-4.3zm-3.32 0l-.47 4.3h-1.37l-.47-4.3h2.31m-11.16 9.12c0 .06.01.18.04.32a1 1 0 0 0 .2.46c.1.15.26.28.43.4.2.12.45.17.75.17.23 0 .46-.04.67-.13.22-.09.4-.22.57-.4.18-.2.3-.43.4-.7a3.72 3.72 0 0 0 .06-1.86c-.06-.26-.15-.5-.28-.7a1.48 1.48 0 0 0-.5-.47 1.4 1.4 0 0 0-.75-.18c-.28 0-.52.05-.72.14a1.48 1.48 0 0 0-.7.77l-.12.3-2.52-.07.28-7.17h7.34v1.98h-5.05l-.16 3 .33-.28c.13-.1.28-.2.46-.28a3.39 3.39 0 0 1 1.5-.3c.5 0 .96.08 1.4.25a3.3 3.3 0 0 1 1.9 1.98 4.34 4.34 0 0 1 .28 1.62c0 .52-.08 1.04-.23 1.56a3.93 3.93 0 0 1-2.1 2.43c-.55.27-1.22.4-2 .4-.62 0-1.25-.08-1.85-.28a3.23 3.23 0 0 1-1.53-1.04 2.54 2.54 0 0 1-.55-1.07 5.46 5.46 0 0 1-.12-.86h2.57m-8.83 1.29c.18 0 .37-.03.57-.1.19-.07.37-.19.53-.35.16-.18.3-.4.4-.68a3 3 0 0 0 .15-1.04c0-.67-.14-1.18-.45-1.54a1.38 1.38 0 0 0-1.1-.54 1.64 1.64 0 0 0-1.02.36c-.2.16-.37.37-.5.65a2.52 2.52 0 0 0-.22 1.13c0 .36.04.69.13.96.1.26.21.48.37.65.15.17.32.3.52.38.2.09.4.12.62.12zm1.47-7.41c-.03-.44-.17-.75-.41-.93a1.48 1.48 0 0 0-.86-.26c-.44 0-.79.1-1.02.34-.23.25-.42.53-.53.88-.11.35-.19.72-.22 1.11l-.06 1.06a3.85 3.85 0 0 1 .88-.63 3.06 3.06 0 0 1 1.5-.34 3.42 3.42 0 0 1 2.38.93c.32.32.6.72.78 1.2.21.48.31 1.05.31 1.7 0 .68-.1 1.26-.3 1.77a4.32 4.32 0 0 1-2.32 2.24c-.48.19-1.07.28-1.75.28a4.51 4.51 0 0 1-1.76-.3 3.35 3.35 0 0 1-1.9-1.9 6.37 6.37 0 0 1-.52-2.39v-.91a18.25 18.25 0 0 1 .36-3.54 6.3 6.3 0 0 1 .59-1.5 3.97 3.97 0 0 1 2.62-1.85 4.12 4.12 0 0 1 1.18-.12c.45 0 .9.06 1.32.18.44.12.8.31 1.15.56a2.9 2.9 0 0 1 1.14 2.42h-2.57m-14.11 5.81c0 .1.01.24.04.41.03.17.1.37.2.54.1.18.26.35.47.47.2.14.5.2.85.2.49 0 .87-.16 1.14-.47.28-.31.42-.7.42-1.18 0-.45-.1-.8-.28-1.04a1.74 1.74 0 0 0-.73-.52 3.06 3.06 0 0 0-.98-.2l-1-.03v-2.05l.99-.05c.34-.02.67-.09.98-.21.3-.11.54-.29.74-.52.2-.24.3-.57.3-1 0-.5-.15-.86-.45-1.1a1.64 1.64 0 0 0-2.07.03c-.14.13-.25.29-.33.47-.09.2-.12.4-.12.67h-2.66c.03-.27.07-.6.15-.96a2.6 2.6 0 0 1 .56-1.1 3.32 3.32 0 0 1 1.5-1.03 5.84 5.84 0 0 1 3.82.02c.52.23.94.5 1.26.83.32.33.54.7.67 1.08.13.39.2.73.2 1.06a2.52 2.52 0 0 1-.95 2.07c-.27.2-.52.36-.78.46-.26.1-.45.17-.6.2l.67.25a3.3 3.3 0 0 1 1.3 1.06 2.8 2.8 0 0 1 .47 1.62 3.13 3.13 0 0 1-.33 1.43c-.22.43-.52.82-.92 1.14-.4.32-.86.56-1.4.74a5.52 5.52 0 0 1-2.46.23 6.38 6.38 0 0 1-1.53-.37 2.6 2.6 0 0 1-1.3-1.13 3.46 3.46 0 0 1-.46-1.5 7.3 7.3 0 0 1-.02-.5h2.64m-7.6.97h2.2v2.31h-2.2v-2.3m-7.02.6c.19 0 .38-.03.58-.1.19-.07.37-.19.53-.35.16-.18.3-.4.4-.68a3 3 0 0 0 .15-1.04c0-.67-.15-1.18-.45-1.54a1.39 1.39 0 0 0-1.1-.54 1.68 1.68 0 0 0-1.03.36c-.19.16-.35.37-.5.65-.15.29-.22.66-.22 1.13 0 .36.05.69.14.96.09.26.22.48.37.65.14.17.32.3.52.38.2.09.4.12.61.12zm1.48-7.41c-.03-.44-.17-.75-.42-.93a1.49 1.49 0 0 0-.86-.26c-.44 0-.78.1-1.01.34-.24.25-.42.53-.52.88-.12.35-.2.72-.23 1.11l-.06 1.06a3.82 3.82 0 0 1 .88-.63 3.02 3.02 0 0 1 1.5-.34 3.3 3.3 0 0 1 3.17 2.13c.2.48.3 1.05.3 1.7 0 .68-.1 1.26-.3 1.77a4.29 4.29 0 0 1-2.32 2.24c-.49.19-1.07.28-1.75.28-.7 0-1.28-.1-1.77-.3a3.39 3.39 0 0 1-1.89-1.9 6.8 6.8 0 0 1-.51-2.39 26.34 26.34 0 0 1 .06-2.72c.05-.61.15-1.19.29-1.73a6.3 6.3 0 0 1 .59-1.5 3.8 3.8 0 0 1 1.82-1.6 4.7 4.7 0 0 1 1.98-.37c.45 0 .9.06 1.32.18.43.12.8.31 1.15.56a2.9 2.9 0 0 1 1.14 2.42h-2.57m-16.7 6.66l3.14-2.83c.49-.43.9-.82 1.24-1.16.35-.33.62-.64.83-.92.2-.27.35-.54.45-.78.08-.25.14-.5.14-.77 0-.55-.13-.95-.39-1.19-.26-.23-.6-.34-1.05-.34-.33 0-.59.05-.79.17-.2.11-.34.26-.46.43-.1.18-.19.38-.22.59-.05.2-.06.4-.06.57h-2.66v-.43a2.94 2.94 0 0 1 .3-1.19 3.13 3.13 0 0 1 1.84-1.65 6 6 0 0 1 2.03-.32c1.33 0 2.34.3 3.05.88a3 3 0 0 1 1.04 2.41 3.75 3.75 0 0 1-.66 2.26c-.24.37-.58.77-1 1.2-.44.43-.97.94-1.63 1.51l-2.43 2.12 5.8-.12v2.01h-8.51v-2.45m-4.73-9.65h2.31l-.47 4.3h-1.37l-.47-4.3m-8.56 8.81c0 .09.02.23.05.4.02.17.1.37.2.54.1.18.26.35.47.47.2.14.49.2.85.2.48 0 .86-.16 1.14-.47.28-.31.42-.7.42-1.18 0-.45-.09-.8-.29-1.04a1.7 1.7 0 0 0-.73-.52 3.02 3.02 0 0 0-.97-.2l-1-.03v-2.05l.98-.05c.35-.02.68-.09.98-.21a1.74 1.74 0 0 0 .75-.52c.2-.24.3-.57.3-1 0-.5-.15-.86-.46-1.1a1.65 1.65 0 0 0-1.58-.25 1.39 1.39 0 0 0-.93 1.42h-2.66c.03-.27.07-.6.15-.96.08-.36.26-.72.56-1.1a3.3 3.3 0 0 1 1.5-1.03 5.84 5.84 0 0 1 3.82.02c.52.23.93.5 1.25.83.33.33.55.7.68 1.08.13.39.2.73.2 1.06a2.54 2.54 0 0 1-.95 2.07c-.27.2-.52.36-.79.46-.26.1-.45.17-.59.2l.66.25a3.25 3.25 0 0 1 1.3 1.06 2.8 2.8 0 0 1 .48 1.62 3.13 3.13 0 0 1-.33 1.43c-.22.43-.53.82-.92 1.14-.4.32-.87.56-1.4.74a5.53 5.53 0 0 1-2.46.23 5.98 5.98 0 0 1-1.54-.37 2.67 2.67 0 0 1-1.3-1.13 3.39 3.39 0 0 1-.45-1.5 6.23 6.23 0 0 1-.03-.5h2.64m-13.28.83l3.14-2.83c.49-.43.9-.82 1.24-1.16.35-.33.62-.64.83-.92.2-.27.35-.54.45-.78.09-.25.14-.5.14-.77 0-.55-.13-.95-.38-1.19-.26-.23-.61-.34-1.06-.34-.32 0-.58.05-.78.17-.2.11-.35.26-.46.43a1.74 1.74 0 0 0-.23.59 3.13 3.13 0 0 0-.06.57h-2.66l.01-.43a3.5 3.5 0 0 1 .7-1.85 3.3 3.3 0 0 1 1.44-.99 6 6 0 0 1 2.02-.33c1.33 0 2.35.3 3.05.9.7.58 1.05 1.39 1.05 2.4a3.77 3.77 0 0 1-.66 2.26c-.24.37-.58.77-1 1.2-.44.43-.98.94-1.64 1.51l-2.43 2.12 5.8-.12v2.01h-8.51v-2.45m-5-8.05c-.3 0-.57.1-.8.33-.23.22-.35.5-.35.81 0 .33.12.61.35.82.22.22.5.33.8.33a1.14 1.14 0 0 0 1.18-1.15c0-.31-.11-.58-.35-.8a1.13 1.13 0 0 0-.82-.34zm.02-1.8a2.88 2.88 0 0 1 2.06.86c.26.26.48.58.64.94a2.92 2.92 0 0 1-3.84 3.85 2.9 2.9 0 0 1-1.56-1.56 2.82 2.82 0 0 1 0-2.3 3.02 3.02 0 0 1 1.56-1.56c.35-.14.73-.22 1.14-.22m-11.92 7.7h3.06V111.85l.03-.4v-.32zm-1.94 1.95v-2.34l4.86-7.14h2.59l-.02 7.49H180v2h-1.65v2.63h-2.57v-2.64h-4.86m-9.32-7.66a17.2 17.2 0 0 0 3.2-1.82h2.25v12.12h-2.62v-9.43a13.11 13.11 0 0 1-2.83 1.55v-2.42m-26.26-2.24h3.89l4.7 9.87v-9.87h2.5v12.54h-3.7l-4.85-10.42v10.42h-2.54V107.7m-3.54.44l-.45 4.3h-1.38l-.46-4.3zm-3.32 0l-.47 4.3h-1.37l-.47-4.3h2.31m-11.25 8.81l.04.4c.03.17.1.36.2.54.1.18.26.35.47.47.21.14.5.2.85.2.49 0 .87-.16 1.15-.47.28-.31.42-.7.42-1.18 0-.45-.1-.8-.3-1.04a1.74 1.74 0 0 0-.72-.52 3.02 3.02 0 0 0-.97-.2l-1-.03v-2.05l.98-.05c.35-.02.68-.09.98-.21.3-.11.55-.29.75-.52.2-.24.3-.57.3-1 0-.5-.16-.86-.46-1.1a1.65 1.65 0 0 0-2.07.03 1.39 1.39 0 0 0-.33.47c-.08.2-.12.4-.12.67h-2.65c.02-.27.07-.6.14-.96.08-.36.26-.72.57-1.1a3.3 3.3 0 0 1 1.5-1.03 5.82 5.82 0 0 1 1.87-.3c.78 0 1.42.1 1.94.32.52.23.94.5 1.26.83.32.33.55.7.68 1.08.13.39.2.73.2 1.06 0 .5-.1.93-.29 1.27-.19.33-.42.6-.68.8-.26.2-.52.36-.77.46-.26.1-.45.17-.59.2l.66.25a3.26 3.26 0 0 1 1.3 1.06 2.81 2.81 0 0 1 .44 1.15 3.14 3.14 0 0 1-.3 1.9c-.22.44-.52.82-.92 1.14-.39.32-.86.56-1.4.74a5.5 5.5 0 0 1-2.45.23 5.74 5.74 0 0 1-.78-.13 4.6 4.6 0 0 1-.76-.24 2.62 2.62 0 0 1-1.3-1.13 3.34 3.34 0 0 1-.32-.78 4.17 4.17 0 0 1-.16-1.23h2.64m-8.85-4.05c.45 0 .83-.14 1.16-.42.32-.28.48-.66.48-1.15a1.46 1.46 0 0 0-1.02-1.41 1.91 1.91 0 0 0-.6-.09c-.44 0-.82.13-1.13.4-.3.28-.46.64-.46 1.1a1.5 1.5 0 0 0 1.57 1.56zm0 5.67c.18 0 .38-.02.58-.08a1.57 1.57 0 0 0 .99-.89c.1-.24.16-.53.16-.87 0-.55-.17-.98-.52-1.29a1.8 1.8 0 0 0-1.23-.46c-.5 0-.92.17-1.25.5a1.8 1.8 0 0 0-.49 1.29c0 .31.05.58.16.8.1.23.24.42.4.56a1.83 1.83 0 0 0 1.2.44zm-1.86-4.68a7.04 7.04 0 0 1-.61-.22 2.63 2.63 0 0 1-1.4-1.2c-.18-.3-.27-.7-.27-1.16a3.16 3.16 0 0 1 .98-2.26c.35-.33.78-.6 1.3-.82a5.64 5.64 0 0 1 3.57-.08 3.9 3.9 0 0 1 1.3.7c.36.29.65.63.85 1.04a2.85 2.85 0 0 1 .1 2.31 2.8 2.8 0 0 1-2.18 1.65l.42.13c.16.05.33.12.5.21a3.27 3.27 0 0 1 1.03.91 2.94 2.94 0 0 1 .55 1.8 3.04 3.04 0 0 1-.34 1.5c-.25.43-.58.8-.99 1.1-.4.32-.88.54-1.42.7-.54.15-1.1.23-1.7.23-.6 0-1.17-.08-1.69-.28a3.78 3.78 0 0 1-2.17-1.87 3.18 3.18 0 0 1-.06-2.6 3.1 3.1 0 0 1 1.49-1.5l.74-.3m-7.18.47a15.06 15.06 0 0 0-.07-1.47 12.76 12.76 0 0 0-.08-.82 5.47 5.47 0 0 0-.16-.7l-.1-.34a1.77 1.77 0 0 0-.61-.88 1.07 1.07 0 0 0-.6-.18 1.08 1.08 0 0 0-.84.38c-.09.1-.18.22-.23.35a3.78 3.78 0 0 0-.37 1.32 14.72 14.72 0 0 0-.16 1.91v.48c0 .52.02 1.01.06 1.5.05.48.13.9.26 1.27.12.37.28.67.5.88.2.23.47.33.79.33.35 0 .62-.13.84-.39.22-.26.37-.59.49-.99.11-.4.18-.83.22-1.3.05-.48.06-.92.06-1.35zm-5.86-.13c0-.26.01-.61.04-1.03a9.57 9.57 0 0 1 .6-2.72c.18-.46.43-.88.74-1.25a3.6 3.6 0 0 1 2.83-1.27 3.88 3.88 0 0 1 2.71 1.06c.19.19.34.36.45.54.15.23.3.48.44.75.14.28.26.58.35.93a9.56 9.56 0 0 1 .3 2.7c0 .7-.04 1.43-.15 2.2a7 7 0 0 1-.61 2.1 4.25 4.25 0 0 1-1.3 1.58c-.57.41-1.3.62-2.22.62a3.52 3.52 0 0 1-3.26-1.9 6.36 6.36 0 0 1-.7-1.98c-.16-.75-.22-1.52-.22-2.33m-5.25 3.71h2.2v2.31h-2.2v-2.3m-9.76-2.28h3.06V111.84l.02-.4v-.32zm-1.94 1.94v-2.34l4.86-7.14h2.59l-.02 7.49h1.65v2h-1.65v2.63h-2.57v-2.64h-4.86m-9.33-7.66a17.23 17.23 0 0 0 3.22-1.82h2.24v12.12h-2.63v-9.43a13.1 13.1 0 0 1-2.83 1.55v-2.42m-5.94-1.8h2.31l-.47 4.3h-1.37l-.47-4.3m-6.6 10.4c.18 0 .37-.03.57-.1.2-.07.37-.19.53-.35.16-.18.3-.4.4-.68a3 3 0 0 0 .16-1.04 2.34 2.34 0 0 0-.46-1.54 1.39 1.39 0 0 0-1.1-.54 1.57 1.57 0 0 0-1.02.36 1.91 1.91 0 0 0-.5.65c-.15.29-.22.66-.22 1.13 0 .36.04.69.14.96.08.26.2.48.36.65.15.17.32.3.52.38.2.09.4.12.6.12zm1.46-7.41c-.02-.44-.15-.75-.4-.93a1.48 1.48 0 0 0-.86-.26c-.44 0-.78.1-1.02.34-.23.25-.42.53-.53.88-.11.35-.19.72-.22 1.11l-.06 1.06a3.59 3.59 0 0 1 .88-.63 3.06 3.06 0 0 1 1.5-.34 3.42 3.42 0 0 1 2.38.93c.32.32.6.72.8 1.2.2.48.3 1.05.3 1.7 0 .68-.1 1.26-.3 1.77a4.32 4.32 0 0 1-2.33 2.24c-.48.19-1.06.28-1.75.28-.7 0-1.29-.1-1.76-.3a3.39 3.39 0 0 1-1.9-1.9 6.65 6.65 0 0 1-.5-2.39l-.03-.91a18.26 18.26 0 0 1 .37-3.54 6.08 6.08 0 0 1 .59-1.5 3.9 3.9 0 0 1 2.62-1.85 4.12 4.12 0 0 1 1.18-.13c.45 0 .9.07 1.32.19.44.12.81.31 1.15.56a2.9 2.9 0 0 1 1.14 2.42h-2.57m-11-1.4a1.16 1.16 0 0 0-1.15 1.15c0 .33.11.61.35.82.22.22.5.33.8.33a1.14 1.14 0 0 0 1.18-1.15c0-.31-.12-.58-.35-.8a1.13 1.13 0 0 0-.83-.34zm.01-1.78a2.9 2.9 0 0 1 2.7 1.79 2.95 2.95 0 0 1-1.55 3.85 2.93 2.93 0 1 1-1.15-5.64m-7.6 6.4a15.5 15.5 0 0 0-.32-2.98l-.1-.35a1.85 1.85 0 0 0-.23-.48 1.63 1.63 0 0 0-.39-.4.98.98 0 0 0-.6-.18c-.18 0-.34.05-.48.11a1.37 1.37 0 0 0-.57.61l-.14.32c-.1.32-.18.65-.24 1.01a13 13 0 0 0-.15 1.91v.48c0 .52.01 1.01.06 1.5.04.48.13.9.26 1.27.11.37.28.67.48.88.21.23.48.33.8.33.35 0 .63-.13.84-.39.22-.26.38-.59.5-.99.1-.4.17-.83.22-1.3.04-.48.06-.92.06-1.35zm-5.87-.13c0-.26.02-.61.04-1.03a9.5 9.5 0 0 1 .6-2.72c.18-.46.44-.88.75-1.25a3.61 3.61 0 0 1 2.83-1.27 3.87 3.87 0 0 1 2.7 1.06c.19.19.35.36.46.54.15.23.3.48.43.75.14.28.26.58.35.93a9.38 9.38 0 0 1 .31 2.7c0 .7-.05 1.43-.15 2.2a6.99 6.99 0 0 1-.61 2.1 4.22 4.22 0 0 1-1.3 1.58c-.58.41-1.3.62-2.23.62a3.52 3.52 0 0 1-3.25-1.9 6.36 6.36 0 0 1-.71-1.98c-.15-.75-.22-1.52-.22-2.33m-8.25 3.03l.04.33a1.33 1.33 0 0 0 .64.85c.2.13.44.18.74.18.24 0 .46-.04.67-.13.22-.09.41-.22.58-.4.17-.2.3-.43.4-.7a3.8 3.8 0 0 0 .06-1.86c-.07-.26-.16-.5-.3-.7a1.44 1.44 0 0 0-.5-.47 1.4 1.4 0 0 0-.73-.18c-.29 0-.53.05-.72.14a1.5 1.5 0 0 0-.71.77l-.12.3-2.52-.07.28-7.17h7.35v1.98H23.5l-.15 3 .33-.28c.13-.1.28-.2.46-.28a3.37 3.37 0 0 1 1.5-.3c.49 0 .95.08 1.38.25a3.3 3.3 0 0 1 1.91 1.98c.2.48.29 1.02.29 1.62 0 .52-.08 1.04-.24 1.56a3.9 3.9 0 0 1-2.1 2.43c-.55.26-1.21.4-1.99.4-.63 0-1.26-.08-1.85-.28a3.23 3.23 0 0 1-1.53-1.04 2.55 2.55 0 0 1-.56-1.07 5.47 5.47 0 0 1-.12-.86h2.57"/>
  <path fill="#231f20" d="M276.05 151.98l1.93 6.08 1.96-6.08h2.55l-3.31 8.61-1.06 3.5h-2.6l1.12-3.3-3.37-8.8h2.78m-10.31 4.28c0 .1 0 .3.02.58.02.29.08.58.2.87.1.28.27.54.5.77.23.22.57.33 1 .33.45 0 .8-.1 1.04-.33s.42-.5.54-.78c.1-.28.17-.56.2-.84l.02-.55c0-.24-.02-.52-.05-.83a2.9 2.9 0 0 0-.24-.88 1.75 1.75 0 0 0-.53-.68 1.45 1.45 0 0 0-.93-.28c-.49 0-.9.2-1.25.6-.35.42-.52 1.08-.52 2.02zm6.13-4.25l-.1 1.01c-.02.33-.03.71-.03 1.16v6.47c0 .81-.14 1.45-.44 1.91a3 3 0 0 1-1.11 1.08 4 4 0 0 1-1.43.46 10.8 10.8 0 0 1-2.5.03 3.79 3.79 0 0 1-1.24-.35 2.8 2.8 0 0 1-1.02-.84 2.73 2.73 0 0 1-.49-1.56h2.47l.06.3c.03.15.09.27.2.4.1.14.26.27.45.36.2.1.47.16.82.16.38 0 .72-.09 1.01-.28.3-.18.49-.48.58-.87a6.1 6.1 0 0 0 .1-.7c0-.14 0-.33.02-.55v-.83c-.2.26-.41.48-.62.64a2.48 2.48 0 0 1-1.22.52 3.43 3.43 0 0 1-3.31-1.32c-.3-.4-.52-.87-.68-1.38a5.63 5.63 0 0 1 0-3.18c.17-.52.4-.98.71-1.4a3.47 3.47 0 0 1 2.82-1.33c.39 0 .73.04 1.01.14.28.09.52.2.71.34.2.13.34.27.46.41l.26.36.1-1.16h2.4m-17.03 4.44c0 1 .17 1.7.49 2.15.32.44.8.67 1.44.67.28 0 .53-.05.77-.14.24-.09.44-.26.6-.49.17-.23.29-.54.38-.93a7.68 7.68 0 0 0 .09-2.37 3 3 0 0 0-.27-.9 1.75 1.75 0 0 0-.58-.69 1.74 1.74 0 0 0-1.03-.26c-.47 0-.84.11-1.09.35-.26.23-.43.52-.56.83-.12.32-.19.65-.2.98-.03.34-.04.61-.04.8zm-2.64-.02a6.08 6.08 0 0 1 .23-1.62 3.93 3.93 0 0 1 2.13-2.61c.58-.29 1.3-.44 2.17-.44.8 0 1.48.13 2.06.38a3.89 3.89 0 0 1 2.23 2.47 5.84 5.84 0 0 1 0 3.53 4.01 4.01 0 0 1-2.27 2.53c-.58.26-1.27.38-2.07.38-.62 0-1.21-.08-1.75-.28a3.9 3.9 0 0 1-2.38-2.32 5.4 5.4 0 0 1-.35-2.02m-4.77-8.23h2.57v12.54h-2.57v-12.54m-8.72 8.25c0 1 .16 1.7.49 2.15.32.44.8.67 1.44.67.27 0 .54-.05.77-.14.23-.1.43-.26.6-.49.16-.23.29-.54.38-.93a7.25 7.25 0 0 0 .08-2.37 2.84 2.84 0 0 0-.26-.9 1.78 1.78 0 0 0-.58-.69c-.26-.17-.6-.26-1.03-.26-.48 0-.84.11-1.1.35-.25.23-.43.52-.55.83-.12.32-.18.65-.2.98-.03.34-.04.61-.04.8zm-2.64-.02c0-.52.08-1.07.23-1.62a3.95 3.95 0 0 1 2.13-2.61c.58-.29 1.3-.44 2.17-.44.8 0 1.48.13 2.06.38a3.9 3.9 0 0 1 2.23 2.47 5.84 5.84 0 0 1 0 3.53 4 4 0 0 1-2.27 2.53c-.59.26-1.27.38-2.07.38-.63 0-1.22-.08-1.75-.28a3.88 3.88 0 0 1-2.38-2.32 5.31 5.31 0 0 1-.35-2.02m-10.52-2.9v-.18l-.01-.4-.02-.5c0-.2-.02-.36-.03-.51h2.47l.07 1.32a2.81 2.81 0 0 1 1.63-1.35c.34-.12.74-.18 1.22-.18a2.95 2.95 0 0 1 1.9.6c.22.17.38.35.5.53a3.01 3.01 0 0 1 .4.93 8.5 8.5 0 0 1 .1 1.19v5.76h-2.6v-5.45c0-.18 0-.35-.02-.51a1.18 1.18 0 0 0-.13-.45c-.08-.2-.24-.36-.44-.52a1.32 1.32 0 0 0-.8-.22c-.28 0-.54.06-.79.18a1.48 1.48 0 0 0-.78 1c-.05.21-.09.5-.09.83v5.14h-2.58v-7.2m-10.93-5.34h2.56v4.95l.3-.37a2.76 2.76 0 0 1 1.2-.78 3.21 3.21 0 0 1 1.03-.15 3.27 3.27 0 0 1 1.6.4 2.67 2.67 0 0 1 .95.78c.17.22.3.52.41.92.1.4.17.89.17 1.46v5.33h-2.57v-5.25l-.03-.52c-.02-.21-.07-.43-.15-.64-.1-.2-.23-.39-.42-.53a1.33 1.33 0 0 0-.83-.23c-.18 0-.37.03-.56.09a1.53 1.53 0 0 0-.93.84c-.1.22-.16.52-.16.87l.02 5.38h-2.59v-12.55m-4.45 6.88l-.05-.38a2 2 0 0 0-.16-.54c-.08-.18-.19-.35-.34-.49a.82.82 0 0 0-.58-.2.9.9 0 0 0-.71.3c-.17.2-.32.45-.4.74-.1.28-.16.6-.18.9a9.58 9.58 0 0 0-.04 1.4 6.18 6.18 0 0 0 .27 1.52c.09.26.2.47.35.62a.94.94 0 0 0 .97.25.82.82 0 0 0 .37-.2c.12-.12.23-.28.34-.5.1-.23.17-.55.19-.94h2.53l-.05.58a3.27 3.27 0 0 1-.48 1.34 3.24 3.24 0 0 1-1.66 1.28 5.2 5.2 0 0 1-3.07-.04 3.08 3.08 0 0 1-1.35-.92 4.11 4.11 0 0 1-.85-1.52 6.67 6.67 0 0 1-.27-1.93c0-1 .16-1.8.48-2.4a3.61 3.61 0 0 1 2.5-2 4.43 4.43 0 0 1 2.36.03c.42.12.81.31 1.16.57a3 3 0 0 1 1.18 2.53h-2.5m-9.3.31l-.03-.47a2 2 0 0 0-.18-.66c-.1-.21-.26-.41-.46-.58-.2-.17-.5-.25-.87-.25a1.45 1.45 0 0 0-1.22.6c-.14.17-.23.4-.3.62-.07.24-.12.5-.13.74zm-3.27 1.62c0 .14 0 .35.02.6.02.27.09.53.2.79.12.26.29.47.52.67.25.19.6.28 1.05.28.32 0 .62-.08.9-.24.29-.17.5-.49.62-.97h2.34c0 .1-.02.22-.04.37-.01.15-.05.3-.1.46a2.99 2.99 0 0 1-1.98 1.84 5.77 5.77 0 0 1-4.11-.26 2.81 2.81 0 0 1-.77-.57 3.6 3.6 0 0 1-.88-1.5 7.87 7.87 0 0 1-.18-3.03 4.34 4.34 0 0 1 .84-2.17 4.12 4.12 0 0 1 3.4-1.6c.3 0 .62.03.96.1a3.82 3.82 0 0 1 1.86 1 4.3 4.3 0 0 1 1.05 1.92 6.4 6.4 0 0 1 .2 1.67c0 .24 0 .46-.02.64h-5.88m-7.6-6.76h-3.72v-2.05h10.15v2.05h-3.73v10.5H190v-10.5m-13.97 3.55h-1.3v-1.83h1.3v-1.2c0-.38.04-.74.12-1.08.09-.35.24-.64.45-.9.23-.26.53-.45.93-.6a4.55 4.55 0 0 1 1.54-.21h.49c.22 0 .53.04.9.1v1.76a3.73 3.73 0 0 0-.54-.06c-.34 0-.59.04-.76.12a1 1 0 0 0-.4.28.71.71 0 0 0-.14.39l-.02.37v1.04h1.63v1.82h-1.63v6.95h-2.57v-6.95m-8.89 2.65c0 1 .17 1.7.49 2.15.32.44.8.67 1.44.67.28 0 .54-.05.77-.14.24-.09.43-.26.6-.49.16-.23.29-.54.38-.93a7.68 7.68 0 0 0 .09-2.37 2.97 2.97 0 0 0-.27-.9 1.74 1.74 0 0 0-.58-.69 1.74 1.74 0 0 0-1.03-.26c-.47 0-.84.11-1.1.35-.25.23-.42.52-.55.83-.1.32-.18.65-.2.98-.03.34-.04.61-.04.8zm-2.64-.01c0-.53.08-1.08.23-1.63a3.94 3.94 0 0 1 2.13-2.61c.58-.29 1.3-.44 2.17-.44.8 0 1.49.13 2.06.38a3.9 3.9 0 0 1 2.23 2.47 5.8 5.8 0 0 1 0 3.53 4 4 0 0 1-2.26 2.53 5.1 5.1 0 0 1-2.09.38c-.61 0-1.2-.08-1.74-.28a3.9 3.9 0 0 1-2.38-2.32 5.38 5.38 0 0 1-.35-2.01m-12.88-4.47l1.92 6.08 1.97-6.08h2.55l-3.32 8.62-1.06 3.49h-2.58l1.1-3.3-3.36-8.8h2.78m-9 2.15a13.27 13.27 0 0 0-.03-1.06l-.04-.64-.05-.5h2.42l.05 1.7c.08-.19.18-.39.31-.6a2.3 2.3 0 0 1 1.37-.99c.35-.1.78-.15 1.3-.12v2.31a4.12 4.12 0 0 0-1.52.09 1.74 1.74 0 0 0-.84.5 1.48 1.48 0 0 0-.34.76c-.04.28-.06.56-.06.84v4.32h-2.57v-6.61m-5.07 2.48a5.17 5.17 0 0 0-1.13.02c-.35.04-.65.13-.9.26-.26.1-.45.27-.59.47-.14.2-.2.42-.2.67a1.3 1.3 0 0 0 .3.84 1.2 1.2 0 0 0 .94.4c.24.01.44-.04.63-.13.18-.1.35-.22.47-.35.23-.29.37-.6.41-.95.05-.35.07-.75.07-1.23zm.33 4.13a5.02 5.02 0 0 1-.08-1.2 3.45 3.45 0 0 1-1.5 1.23c-.23.08-.45.14-.65.15a6.08 6.08 0 0 1-.48.03 3.56 3.56 0 0 1-1.44-.23 2.84 2.84 0 0 1-.74-.46 2.45 2.45 0 0 1-.59-.9 3 3 0 0 1 .14-2.38 3.18 3.18 0 0 1 1.54-1.38c.26-.11.56-.2.88-.28a12.07 12.07 0 0 1 1.85-.2h.74l-.01-.68a1.88 1.88 0 0 0-.1-.49.91.91 0 0 0-.25-.38 1.39 1.39 0 0 0-.32-.22 1.22 1.22 0 0 0-.33-.1 1.26 1.26 0 0 0-.8.1c-.17.08-.31.2-.43.36-.08.15-.14.3-.16.42l-.03.36h-2.52a4.34 4.34 0 0 1 .03-.43 2.67 2.67 0 0 1 .43-1.1c.13-.2.3-.37.53-.53.41-.3.85-.48 1.32-.58a6.92 6.92 0 0 1 2.02-.1 4.56 4.56 0 0 1 1.7.5 2.4 2.4 0 0 1 1.1 1.17 4.2 4.2 0 0 1 .25 1.57l.02 3.53c0 .37.02.74.04 1.11.03.37.1.74.17 1.11h-2.33m-12.01-6.61a13.87 13.87 0 0 0-.04-1.06l-.04-.64-.04-.5h2.4l.06 1.7c.09-.2.18-.39.31-.6a2.3 2.3 0 0 1 1.38-.99c.34-.1.78-.15 1.3-.12v2.3a4.12 4.12 0 0 0-1.53.1 1.74 1.74 0 0 0-.83.5 1.48 1.48 0 0 0-.34.76c-.05.28-.06.56-.06.84v4.32h-2.57v-6.61m-4.8 2.44c0-.17 0-.43-.03-.76a3.57 3.57 0 0 0-.22-1 2.3 2.3 0 0 0-.56-.87 1.48 1.48 0 0 0-1.08-.37c-.48 0-.84.11-1.1.35-.25.23-.44.5-.56.8-.12.3-.19.6-.2.9l-.03.66c0 1 .19 1.75.56 2.23.38.48.86.72 1.45.72.44 0 .78-.11 1.03-.35.24-.23.41-.5.52-.8.12-.3.18-.61.2-.9zm-6.25-8.37h2.57v4.83a2.74 2.74 0 0 1 1.4-1.01c.23-.08.43-.13.63-.14l.46-.03a3.6 3.6 0 0 1 2.7 1.22c.35.39.62.87.82 1.45a6.08 6.08 0 0 1 .3 1.97c0 .82-.12 1.52-.33 2.07a3.9 3.9 0 0 1-.85 1.36c-.35.35-.74.61-1.18.76a3.85 3.85 0 0 1-2.5.04c-.25-.08-.5-.23-.76-.41a2.43 2.43 0 0 1-.69-.8l-.03.52a21.7 21.7 0 0 1-.05.71h-2.49v-12.54m-5.08 3.75h2.57v8.8h-2.57zm-.1-3.75h2.75v2.24h-2.74v-2.24m-9.85 0h2.75v10.4h5.38v2.14H99.8v-12.54m-10.42 0h2.57v12.54h-2.57v-12.54m-5.07 8.4a5.17 5.17 0 0 0-1.13.03c-.35.04-.65.13-.9.26-.26.1-.45.27-.59.46-.14.2-.2.43-.2.68a1.31 1.31 0 0 0 .3.84 1.2 1.2 0 0 0 .94.4c.24.01.44-.04.63-.14.18-.1.35-.21.47-.34.23-.29.37-.6.41-.95.05-.35.07-.75.07-1.23zm.33 4.14a4.98 4.98 0 0 1-.08-1.2 3.43 3.43 0 0 1-1.5 1.23c-.23.08-.45.14-.65.15a6.08 6.08 0 0 1-.48.03 3.56 3.56 0 0 1-1.44-.23 2.84 2.84 0 0 1-.74-.47 2.45 2.45 0 0 1-.58-.9 3 3 0 0 1 .13-2.37 3.18 3.18 0 0 1 1.54-1.38c.26-.11.56-.2.88-.28a12.07 12.07 0 0 1 1.85-.2h.74l-.01-.68a1.84 1.84 0 0 0-.1-.49.9.9 0 0 0-.25-.38 1.5 1.5 0 0 0-.32-.22 1.22 1.22 0 0 0-.33-.1 1.26 1.26 0 0 0-.8.1c-.17.08-.31.2-.43.36-.08.15-.14.3-.17.42l-.02.36h-2.51a4.34 4.34 0 0 1 .02-.43 2.67 2.67 0 0 1 .44-1.1c.12-.2.29-.37.52-.53.41-.3.85-.48 1.32-.58a6.92 6.92 0 0 1 2.02-.1 4.56 4.56 0 0 1 1.7.5 2.4 2.4 0 0 1 1.1 1.17 4.17 4.17 0 0 1 .25 1.57l.02 3.53c0 .37.02.74.05 1.1.02.38.08.75.16 1.12h-2.33m-16.18-7.2v-.19a10.77 10.77 0 0 0-.03-.91l-.02-.5h2.46l.07 1.32a2.78 2.78 0 0 1 1.64-1.35c.33-.12.73-.18 1.21-.18a2.94 2.94 0 0 1 1.9.6c.22.17.38.35.5.53a3.04 3.04 0 0 1 .4.93 3 3 0 0 1 .07.48l.04.7v5.77h-2.61v-5.45c0-.18 0-.35-.02-.51a1.18 1.18 0 0 0-.12-.45c-.09-.2-.25-.36-.45-.52a1.32 1.32 0 0 0-.8-.22c-.28 0-.54.06-.78.18a1.48 1.48 0 0 0-.79 1c-.05.21-.08.5-.08.83v5.14h-2.59v-7.2m-8.75 2.91c0 1 .16 1.7.48 2.15.33.44.81.66 1.45.66.27 0 .53-.04.77-.13.23-.1.43-.26.6-.49.16-.23.28-.54.38-.93a7.5 7.5 0 0 0 .09-2.37 2.9 2.9 0 0 0-.27-.9 1.75 1.75 0 0 0-.58-.69c-.26-.17-.6-.26-1.03-.26-.48 0-.84.11-1.1.35-.25.23-.43.52-.55.83-.11.32-.18.65-.2.98-.03.34-.04.61-.04.8zm-2.64-.02c0-.53.08-1.07.23-1.62a3.95 3.95 0 0 1 2.13-2.61c.58-.29 1.3-.44 2.17-.44.8 0 1.49.12 2.06.38a3.9 3.9 0 0 1 2.23 2.47 5.84 5.84 0 0 1 0 3.53 4 4 0 0 1-2.27 2.53c-.59.26-1.27.38-2.07.38-.63 0-1.22-.08-1.75-.28a3.9 3.9 0 0 1-2.38-2.32 5.37 5.37 0 0 1-.35-2.02m-4.78-4.48h2.57v8.8H52.3zm-.08-3.75h2.74v2.24h-2.74v-2.24m-1.84 12.42a6.76 6.76 0 0 1-2 .28c-.65 0-1.15-.09-1.5-.27-.35-.18-.61-.4-.77-.64a1.74 1.74 0 0 1-.3-.78l-.03-.67v-4.81h-1.69v-1.72h1.69v-1.71l2.57-.93v2.64h2.08v1.72h-2.08v3.95c0 .2 0 .38.02.54.02.17.06.3.13.42.07.11.18.2.35.26.15.06.37.09.66.09a10.33 10.33 0 0 0 .87-.06v1.69m-10.25-4.01a5.17 5.17 0 0 0-1.14.02c-.34.04-.64.13-.89.26-.26.1-.45.26-.59.46-.14.2-.2.43-.2.68a1.3 1.3 0 0 0 .3.84 1.2 1.2 0 0 0 .94.4c.24.01.44-.04.63-.14.18-.1.34-.21.47-.34.23-.29.37-.6.41-.95.05-.35.07-.75.07-1.23zm.33 4.13a4.98 4.98 0 0 1-.09-1.2 3.2 3.2 0 0 1-1.49 1.23c-.23.08-.45.14-.65.15a6.08 6.08 0 0 1-.48.03 3.56 3.56 0 0 1-1.44-.23 2.83 2.83 0 0 1-.75-.47 2.45 2.45 0 0 1-.58-.9 3 3 0 0 1 .14-2.37 3.17 3.17 0 0 1 1.54-1.38c.26-.11.55-.2.88-.28a12.06 12.06 0 0 1 1.85-.2h.74c0-.3 0-.53-.02-.68a1.87 1.87 0 0 0-.1-.49.9.9 0 0 0-.24-.38 1.5 1.5 0 0 0-.32-.22 1.22 1.22 0 0 0-.33-.1 1.26 1.26 0 0 0-.8.1c-.17.08-.32.2-.43.36-.09.15-.15.3-.16.42l-.03.36h-2.52a4.34 4.34 0 0 1 .03-.43 2.67 2.67 0 0 1 .43-1.1c.12-.2.3-.37.53-.53.41-.3.84-.48 1.32-.58a6.92 6.92 0 0 1 2.02-.1 4.56 4.56 0 0 1 1.69.49 2.4 2.4 0 0 1 1.1 1.18 4.1 4.1 0 0 1 .26 1.57l.02 3.53c0 .37.02.74.04 1.1.03.38.09.75.17 1.12h-2.33m-19-12.54h3.9l4.7 9.87v-9.87h2.5v12.54h-3.7L24 150.33v10.42h-2.53v-12.54m234.03-11.85a5.16 5.16 0 0 0-1.13.02c-.34.04-.65.13-.9.25-.26.12-.45.28-.6.48-.13.2-.2.43-.2.68a1.3 1.3 0 0 0 .31.84 1.23 1.23 0 0 0 .94.4c.24 0 .43-.04.63-.14.18-.1.34-.22.46-.36.24-.27.37-.59.42-.93.04-.35.07-.77.07-1.24zm.33 4.14a4.97 4.97 0 0 1-.09-1.2 3.45 3.45 0 0 1-1.49 1.21c-.23.09-.45.15-.65.17l-.48.02a3.56 3.56 0 0 1-1.44-.22 2.85 2.85 0 0 1-.75-.47 2.43 2.43 0 0 1-.58-.9 3.03 3.03 0 0 1 .14-2.37 3.21 3.21 0 0 1 1.54-1.4 7.68 7.68 0 0 1 2.72-.47h.75c0-.3 0-.52-.02-.68a1.84 1.84 0 0 0-.1-.48.91.91 0 0 0-.24-.39 1.35 1.35 0 0 0-.65-.32 1.26 1.26 0 0 0-.79.1c-.18.09-.33.2-.44.36-.09.15-.15.29-.16.43l-.03.35h-2.52c0-.12 0-.26.03-.42a2.7 2.7 0 0 1 .42-1.11 3.2 3.2 0 0 1 1.86-1.1 6.92 6.92 0 0 1 2.02-.1 4.57 4.57 0 0 1 1.69.49c.28.13.54.34.75.6.15.17.26.36.35.58a4.2 4.2 0 0 1 .25 1.16l.01.4.02 3.53c0 .37.02.74.04 1.11.03.37.09.74.17 1.12h-2.33m-16.18-7.21V132.71c-.02-.16-.02-.33-.03-.52l-.02-.5h2.46l.07 1.32a2.73 2.73 0 0 1 .8-.91 3.18 3.18 0 0 1 2.05-.62 2.93 2.93 0 0 1 1.9.61c.2.16.38.34.5.52a2.94 2.94 0 0 1 .47 1.42 14.79 14.79 0 0 1 .05 1.73v4.74h-2.63v-5.46l-.01-.52a1.18 1.18 0 0 0-.13-.43c-.08-.2-.24-.37-.43-.52a1.33 1.33 0 0 0-.82-.23c-.27 0-.53.06-.77.18a1.47 1.47 0 0 0-.78 1c-.07.22-.1.5-.1.84v5.14h-2.58v-7.21m-8.3-1.56l1.98 5.95 2.01-5.95h2.48l-3.16 8.77h-2.84l-3.22-8.77h2.75m-10.1 4.48c0 .98.16 1.7.48 2.14.32.44.8.67 1.44.67.28 0 .54-.05.77-.14.24-.09.44-.26.6-.49.17-.23.29-.54.38-.92a7.47 7.47 0 0 0 .08-2.37 2.97 2.97 0 0 0-.26-.9 1.75 1.75 0 0 0-.58-.7c-.26-.18-.6-.26-1.03-.26-.47 0-.84.12-1.09.34-.26.25-.43.53-.56.85-.1.3-.19.64-.2.98-.03.34-.04.6-.04.8zm-2.65-.02c0-.54.08-1.08.23-1.62a3.95 3.95 0 0 1 2.13-2.6c.59-.31 1.3-.45 2.17-.45.8 0 1.48.12 2.06.37a3.92 3.92 0 0 1 2.23 2.48 5.84 5.84 0 0 1 0 3.52 4 4 0 0 1-2.26 2.54c-.6.25-1.28.38-2.09.38-.61 0-1.2-.1-1.74-.29a3.9 3.9 0 0 1-2.38-2.32 5.38 5.38 0 0 1-.35-2.01m-10.49-8.23h2.56v4.95l.3-.38a2.76 2.76 0 0 1 1.2-.78 3.21 3.21 0 0 1 1.03-.14 3.27 3.27 0 0 1 1.6.39 2.62 2.62 0 0 1 .95.78c.17.22.3.53.41.93.1.39.17.87.17 1.45v5.34h-2.57v-5.27l-.03-.5a2.06 2.06 0 0 0-.15-.64c-.1-.21-.23-.4-.42-.54a1.33 1.33 0 0 0-.83-.23c-.18 0-.37.03-.56.1-.2.04-.37.15-.53.29-.17.14-.3.32-.4.54-.1.23-.16.52-.16.87l.02 5.38h-2.59v-12.54m-5.24 3.75h2.57v8.79h-2.57zm-.09-3.75h2.75v2.24h-2.75v-2.24m-10.83 5.33V132.71c-.02-.16-.02-.33-.03-.52l-.02-.5h2.46l.07 1.32a2.76 2.76 0 0 1 1.63-1.34c.34-.13.74-.19 1.22-.19a2.99 2.99 0 0 1 1.9.61c.22.16.38.34.5.52a2.93 2.93 0 0 1 .47 1.42l.04.7V140.5h-2.62v-5.46l-.01-.52a1.22 1.22 0 0 0-.12-.43c-.1-.2-.25-.37-.45-.52a1.32 1.32 0 0 0-.8-.23 1.59 1.59 0 0 0-1.34.68c-.09.11-.16.28-.22.5-.07.22-.1.5-.1.84v5.14h-2.58v-7.21m-10-5.33h2.57v7.38l2.65-3.67h2.9l-3 3.82 3.2 5h-3.05l-2.7-4.77v4.78h-2.57v-12.54m-11.3 2.38h-1.38l1.44-2.52h2.33zm1.02 6.02a5.17 5.17 0 0 0-1.13.02c-.35.04-.65.13-.9.25-.27.12-.46.28-.6.48-.13.2-.2.43-.2.68a1.3 1.3 0 0 0 .3.84 1.2 1.2 0 0 0 .94.4c.24 0 .44-.04.63-.14.18-.1.35-.22.47-.36.23-.27.37-.59.42-.93.04-.35.07-.77.07-1.24zm.33 4.14a4.81 4.81 0 0 1-.1-1.2 3.2 3.2 0 0 1-1.48 1.22c-.24.09-.46.14-.66.16a6 6 0 0 1-.47.02 3.56 3.56 0 0 1-1.44-.22 2.84 2.84 0 0 1-.75-.47 2.52 2.52 0 0 1-.58-.9 3 3 0 0 1 .14-2.37 3.13 3.13 0 0 1 1.53-1.4 7.63 7.63 0 0 1 1.83-.42c.3-.02.6-.04.9-.04l.75-.01c0-.3 0-.52-.02-.68a1.88 1.88 0 0 0-.1-.48.91.91 0 0 0-.25-.39 1.39 1.39 0 0 0-.32-.21 1.21 1.21 0 0 0-.33-.1 1.27 1.27 0 0 0-.79.09c-.17.09-.32.2-.43.36-.1.15-.15.29-.17.43l-.02.35h-2.52c0-.12 0-.26.02-.42a2.7 2.7 0 0 1 .43-1.11 3.2 3.2 0 0 1 1.86-1.1 6.92 6.92 0 0 1 2.01-.1 4.58 4.58 0 0 1 1.7.49 2.38 2.38 0 0 1 1.1 1.18 4.2 4.2 0 0 1 .26 1.56l.01 3.53c0 .37.02.74.05 1.11.02.37.08.74.16 1.12H172m-14.97-12.54h2.57v7.38l2.65-3.67h2.9l-3 3.82 3.2 5h-3.04l-2.71-4.77v4.78h-2.57v-12.54m-4.43 6.88a2.98 2.98 0 0 0-.2-.93c-.09-.19-.19-.34-.34-.48a.8.8 0 0 0-.58-.21c-.3 0-.54.1-.71.3-.18.2-.32.45-.41.74-.09.29-.16.6-.18.91a9.5 9.5 0 0 0 .05 2.13c.03.26.1.52.2.78.08.25.2.46.34.63a.87.87 0 0 0 .37.24c.12.04.23.05.32.05.07 0 .17-.01.29-.04a.82.82 0 0 0 .36-.2c.12-.12.23-.29.34-.51.1-.23.16-.54.18-.93h2.54l-.05.57a3.2 3.2 0 0 1-.48 1.35 3.28 3.28 0 0 1-1.67 1.27 5.22 5.22 0 0 1-3.06-.03 3.1 3.1 0 0 1-1.36-.92 4.24 4.24 0 0 1-.84-1.53 6.67 6.67 0 0 1-.27-1.93c0-1 .16-1.8.48-2.4a3.6 3.6 0 0 1 2.5-2 4.42 4.42 0 0 1 2.36.04c.43.12.81.3 1.16.57a2.99 2.99 0 0 1 1.18 2.52h-2.52m-9.81-3.13h2.57v8.8h-2.57zm-.09-3.74h2.75v2.24h-2.75v-2.24m-10.83 5.33v-.18a12.57 12.57 0 0 0-.03-.91l-.02-.5h2.46l.07 1.31a2.79 2.79 0 0 1 1.63-1.34c.34-.13.74-.19 1.22-.19a2.93 2.93 0 0 1 1.9.61c.22.16.38.34.5.52a3.1 3.1 0 0 1 .4.93 3 3 0 0 1 .07.49l.04.7V140.5h-2.62v-5.46l-.01-.52a1.18 1.18 0 0 0-.13-.43 1.32 1.32 0 0 0-1.25-.75c-.27 0-.53.06-.77.18a1.48 1.48 0 0 0-.78 1c-.06.22-.1.5-.1.84v5.14h-2.58v-7.21m-10.92-5.33h2.55v4.95l.3-.38a2.78 2.78 0 0 1 1.2-.78 3.21 3.21 0 0 1 1.03-.14 3.26 3.26 0 0 1 1.6.39 2.6 2.6 0 0 1 1.36 1.7c.12.4.17.88.17 1.47v5.33h-2.57v-5.27l-.03-.5a2.06 2.06 0 0 0-.15-.64 1.3 1.3 0 0 0-.42-.54 1.33 1.33 0 0 0-.82-.23c-.19 0-.38.03-.57.1-.19.04-.36.15-.53.29-.16.14-.3.32-.4.54-.1.23-.15.52-.15.87l.01 5.38h-2.58v-12.54m-4.46 6.88l-.05-.39a2.32 2.32 0 0 0-.16-.54c-.08-.19-.19-.34-.34-.48a.8.8 0 0 0-.58-.21c-.3 0-.54.1-.7.3-.18.2-.33.45-.42.74-.08.29-.15.6-.18.91a9.46 9.46 0 0 0 .05 2.13c.04.26.1.52.2.78.08.25.2.46.34.63a.87.87 0 0 0 .37.24c.13.04.23.05.33.05.07 0 .16-.01.28-.04a.82.82 0 0 0 .36-.2c.12-.12.23-.29.35-.51.1-.23.15-.54.17-.93h2.54l-.05.57a3.23 3.23 0 0 1-.48 1.35 3.3 3.3 0 0 1-1.66 1.27 5.2 5.2 0 0 1-3.07-.03 3.12 3.12 0 0 1-1.35-.92 4.24 4.24 0 0 1-.85-1.53 6.67 6.67 0 0 1-.26-1.93c0-1 .15-1.8.47-2.4a3.6 3.6 0 0 1 2.5-2 4.41 4.41 0 0 1 2.37.04c.42.12.8.3 1.15.57a2.99 2.99 0 0 1 1.18 2.52h-2.52m-9.29.32l-.02-.48a2 2 0 0 0-.18-.65 1.57 1.57 0 0 0-.46-.58c-.2-.18-.5-.26-.86-.26-.28 0-.53.06-.73.17-.2.1-.37.26-.5.43a2 2 0 0 0-.3.63c-.07.23-.12.48-.12.74zm-3.26 1.61l.02.61c.02.26.1.52.2.78.12.26.3.48.53.67.24.2.59.29 1.04.29.32 0 .62-.09.9-.25.3-.16.5-.48.63-.97h2.34l-.04.37c-.02.14-.06.3-.12.46a3.07 3.07 0 0 1-.67 1.08c-.33.34-.76.6-1.3.77a5.78 5.78 0 0 1-4.1-.27 2.74 2.74 0 0 1-.79-.57 3.58 3.58 0 0 1-.86-1.5 6.68 6.68 0 0 1-.26-1.92 5.8 5.8 0 0 1 .36-2.24c.13-.35.31-.7.56-1.04a4.18 4.18 0 0 1 3.38-1.6c.31 0 .64.04.97.1a3.8 3.8 0 0 1 1.86 1 4.5 4.5 0 0 1 1.2 2.8 7.94 7.94 0 0 1 .03 1.43h-5.88m-3.67 3.61a6.77 6.77 0 0 1-2 .28c-.64 0-1.15-.08-1.5-.27-.34-.17-.6-.39-.77-.64a1.74 1.74 0 0 1-.28-.78 7.1 7.1 0 0 1-.05-.67v-4.8h-1.68v-1.73h1.68v-1.7l2.57-.94v2.64h2.09v1.72h-2.09v3.96c0 .2 0 .37.03.54.02.15.06.3.13.41.07.12.17.2.34.27.15.05.38.08.67.08a10.32 10.32 0 0 0 .86-.05v1.68m-14-10.03h-1.4l1.44-2.52h2.33zm-1.52 1.36h2.57v8.79h-2.57v-8.79m-10.92 1.58v-.18l-.01-.4-.02-.52-.02-.5h2.46l.07 1.32a2.79 2.79 0 0 1 1.63-1.34c.34-.12.74-.18 1.22-.18a2.94 2.94 0 0 1 1.9.6c.22.16.38.34.5.52a3.04 3.04 0 0 1 .47 1.42l.04.7v5.77h-2.62v-5.46l-.01-.52a1.19 1.19 0 0 0-.12-.43c-.1-.2-.25-.37-.45-.52a1.32 1.32 0 0 0-.8-.23c-.28 0-.54.06-.78.18a1.47 1.47 0 0 0-.78 1c-.06.22-.1.5-.1.84v5.14h-2.58v-7.2m-8.93 2.94c0 .38.04.72.1 1.04.06.34.17.64.3.89a1.51 1.51 0 0 0 1.38.83 1.74 1.74 0 0 0 1-.3c.29-.2.5-.43.64-.69.2-.37.32-.75.36-1.14.04-.4.06-.7.06-.92a3.2 3.2 0 0 0-.52-1.98c-.34-.45-.8-.68-1.4-.68-.43 0-.78.11-1.03.34-.26.23-.44.5-.57.8a3.73 3.73 0 0 0-.26.98c-.04.34-.06.6-.06.83zm3.75-8.28h2.57v11.11a18.12 18.12 0 0 0 .07 1.43H68.7l-.07-1.27a2.45 2.45 0 0 1-.89.99c-.33.2-.64.33-.95.38-.3.04-.56.07-.76.07a3.44 3.44 0 0 1-2.76-1.15 4.82 4.82 0 0 1-.98-3.2c0-.74.1-1.4.29-1.97a4.51 4.51 0 0 1 .79-1.48c.34-.4.74-.72 1.21-.93a3.72 3.72 0 0 1 2.6-.19 3.47 3.47 0 0 1 .73.34 2.34 2.34 0 0 1 .73.71v-4.84M54.1 136.2c0 .98.16 1.7.49 2.14.32.45.8.67 1.44.67.28 0 .54-.05.77-.14.23-.08.43-.26.6-.48.16-.24.29-.55.38-.93a7.5 7.5 0 0 0 .09-2.37 2.93 2.93 0 0 0-.26-.9 1.75 1.75 0 0 0-.6-.7c-.25-.17-.6-.26-1.02-.26-.47 0-.84.12-1.1.35-.25.24-.43.52-.55.84-.11.31-.18.64-.2.98-.03.34-.04.6-.04.8zm-2.64-.02c0-.54.08-1.08.23-1.62a3.93 3.93 0 0 1 2.13-2.6c.58-.31 1.3-.45 2.17-.45.8 0 1.49.12 2.06.37a3.9 3.9 0 0 1 2.23 2.48 5.83 5.83 0 0 1 0 3.52 4 4 0 0 1-2.27 2.54c-.58.25-1.27.38-2.07.38-.62 0-1.21-.1-1.75-.29a3.9 3.9 0 0 1-2.38-2.31 5.38 5.38 0 0 1-.35-2.02m-6.27-2.3a14.13 14.13 0 0 0-.03-1.07 20.33 20.33 0 0 0-.09-1.13h2.41l.06 1.69c.08-.2.18-.38.3-.6a2.3 2.3 0 0 1 1.38-.98c.35-.1.78-.15 1.3-.12v2.3a4.12 4.12 0 0 0-1.53.1 1.74 1.74 0 0 0-.83.5 1.48 1.48 0 0 0-.34.75 5.5 5.5 0 0 0-.06.84v4.33H45.2v-6.62m-6.08-3.54h-1.38l1.44-2.52h2.32zm1.01 6.02a5.17 5.17 0 0 0-1.14.02c-.34.05-.64.13-.89.25-.26.13-.45.28-.59.48-.14.2-.2.43-.2.68a1.3 1.3 0 0 0 .3.84 1.2 1.2 0 0 0 .94.4c.24 0 .44-.04.63-.14.18-.1.34-.22.47-.36.23-.27.37-.59.41-.93.05-.35.07-.77.07-1.24zm.33 4.14a4.98 4.98 0 0 1-.09-1.2 3.2 3.2 0 0 1-1.49 1.22c-.23.09-.45.14-.65.16l-.48.03a3.56 3.56 0 0 1-1.44-.23 2.84 2.84 0 0 1-.75-.47 2.52 2.52 0 0 1-.58-.9 3 3 0 0 1 .14-2.37 3.19 3.19 0 0 1 1.54-1.4 7.61 7.61 0 0 1 1.82-.42c.31-.02.61-.04.9-.04h.75c0-.3 0-.53-.02-.69a1.87 1.87 0 0 0-.1-.48.9.9 0 0 0-.24-.38c-.1-.1-.21-.18-.32-.22a1.22 1.22 0 0 0-.33-.1 1.26 1.26 0 0 0-.8.09c-.17.09-.32.2-.43.36-.09.15-.15.3-.16.43l-.03.35h-2.52l.03-.42a2.67 2.67 0 0 1 .43-1.11c.12-.2.3-.37.53-.53.41-.3.84-.49 1.32-.57a6.92 6.92 0 0 1 2.02-.1 4.56 4.56 0 0 1 1.69.49 2.38 2.38 0 0 1 1.1 1.18 4.1 4.1 0 0 1 .26 1.56l.02 3.53c0 .37.02.74.04 1.12.03.36.09.73.17 1.1h-2.33m-19-12.52h3.9l4.7 9.86v-9.86h2.5v12.54h-3.7L24 130.08v10.42h-2.53v-12.54M190.7 12.1h17.1v34.32l26.7-34.54h19.98l-29.24 35.76 31.78 44.03h-21.3l-27.92-40.6v40.6h-17.1V12.1m-57.83 13.03h-23.73V11.88h64.67v13.25h-23.72v66.54h-17.22V25.13M21.41 11.88h24.72l29.91 62.8v-62.8h15.89v79.79h-23.5L37.52 25.46v66.22h-16.1v-79.8"/>
</svg>
