<?xml version="1.0" encoding="UTF-8" standalone="no"?>
<!-- Generator: Adobe Illustrator 16.0.3, SVG Export Plug-In . SVG Version: 6.00 Build 0)  -->

<svg
   xmlns:dc="http://purl.org/dc/elements/1.1/"
   xmlns:cc="http://creativecommons.org/ns#"
   xmlns:rdf="http://www.w3.org/1999/02/22-rdf-syntax-ns#"
   xmlns:svg="http://www.w3.org/2000/svg"
   xmlns="http://www.w3.org/2000/svg"
   xmlns:sodipodi="http://sodipodi.sourceforge.net/DTD/sodipodi-0.dtd"
   xmlns:inkscape="http://www.inkscape.org/namespaces/inkscape"
   version="1.1"
   id="Vrstva_1"
   x="0px"
   y="0px"
   width="266.021"
   height="111.174"
   viewBox="0 0 266.02098 111.174"
   enable-background="new 0 0 595.28 841.89"
   xml:space="preserve"
   sodipodi:docname="olc_logo.svg"
   inkscape:version="0.92.4 5da689c313, 2019-01-14"><metadata
   id="metadata37"><rdf:RDF><cc:Work
       rdf:about=""><dc:format>image/svg+xml</dc:format><dc:type
         rdf:resource="http://purl.org/dc/dcmitype/StillImage" /></cc:Work></rdf:RDF></metadata><defs
   id="defs35" /><sodipodi:namedview
   pagecolor="#ffffff"
   bordercolor="#666666"
   borderopacity="1"
   objecttolerance="10"
   gridtolerance="10"
   guidetolerance="10"
   inkscape:pageopacity="0"
   inkscape:pageshadow="2"
   inkscape:window-width="1920"
   inkscape:window-height="1016"
   id="namedview33"
   showgrid="false"
   inkscape:zoom="0.28032165"
   inkscape:cx="-228.79503"
   inkscape:cy="-16.771007"
   inkscape:window-x="0"
   inkscape:window-y="27"
   inkscape:window-maximized="1"
   inkscape:current-layer="Vrstva_1" />
<g
   id="g30"
   transform="translate(-159,-293)"
   inkscape:export-xdpi="96"
   inkscape:export-ydpi="96">
	<g
   id="g18">
		<g
   id="g16">
			<path
   d="m 278.148,383.062 c 4.825,1.485 6.774,3.48 6.774,6.866 0,4.316 -3.341,6.961 -8.724,6.961 -3.526,0 -6.032,-1.067 -7.702,-3.294 -0.788,-1.021 -1.438,-2.553 -1.438,-3.388 0,-1.067 0.928,-1.995 2.041,-1.995 1.021,0 1.532,0.463 1.95,1.903 0.695,2.273 2.598,3.572 5.242,3.572 2.691,0 4.594,-1.438 4.594,-3.388 0,-1.762 -0.789,-2.411 -3.944,-3.479 l -2.969,-0.928 c -4.131,-1.345 -5.847,-3.155 -5.847,-6.17 0,-3.944 3.155,-6.497 7.98,-6.497 3.201,0 5.708,1.067 7.238,3.016 0.789,1.021 1.3,2.227 1.3,3.017 0,0.928 -0.836,1.717 -1.856,1.717 -0.742,0 -1.206,-0.371 -1.624,-1.207 -0.51,-1.114 -0.742,-1.577 -1.114,-1.948 -0.881,-0.975 -2.319,-1.531 -3.943,-1.531 -2.459,0 -4.129,1.206 -4.129,2.923 0,1.485 0.788,2.18 3.201,2.97 z"
   id="path2"
   inkscape:connector-curvature="0" />
			<path
   d="m 303.338,375.22 c 0.465,-1.299 1.066,-1.856 2.088,-1.856 1.066,0 1.994,0.881 1.994,1.902 0,0.325 -0.092,0.743 -0.23,1.207 l -7.008,19.813 c -1.809,5.15 -2.413,6.218 -4.221,7.146 -0.882,0.463 -2.366,0.742 -3.712,0.742 -1.995,0 -3.108,-0.696 -3.108,-1.996 0,-1.021 0.51,-1.669 1.345,-1.669 0.186,0 0.464,0 0.835,0.045 0.418,0.094 0.789,0.094 1.161,0.094 1.994,0 2.876,-0.928 3.989,-4.13 l -7.609,-19.813 c -0.231,-0.604 -0.371,-1.114 -0.371,-1.439 0,-0.974 1.021,-1.902 2.088,-1.902 1.021,0 1.578,0.51 2.042,1.762 l 5.66,15.637 z"
   id="path4"
   inkscape:connector-curvature="0" />
			<path
   d="m 320.918,383.062 c 4.826,1.485 6.775,3.48 6.775,6.866 0,4.316 -3.34,6.961 -8.723,6.961 -3.527,0 -6.033,-1.067 -7.703,-3.294 -0.789,-1.021 -1.438,-2.553 -1.438,-3.388 0,-1.067 0.928,-1.995 2.041,-1.995 1.021,0 1.531,0.463 1.949,1.903 0.695,2.273 2.598,3.572 5.242,3.572 2.691,0 4.594,-1.438 4.594,-3.388 0,-1.762 -0.789,-2.411 -3.943,-3.479 l -2.971,-0.928 c -4.129,-1.345 -5.846,-3.155 -5.846,-6.17 0,-3.944 3.156,-6.497 7.982,-6.497 3.199,0 5.707,1.067 7.236,3.016 0.789,1.021 1.301,2.227 1.301,3.017 0,0.928 -0.836,1.717 -1.855,1.717 -0.742,0 -1.207,-0.371 -1.625,-1.207 -0.512,-1.114 -0.744,-1.577 -1.115,-1.948 -0.881,-0.975 -2.318,-1.531 -3.941,-1.531 -2.461,0 -4.131,1.206 -4.131,2.923 0,1.485 0.789,2.18 3.201,2.97 z"
   id="path6"
   inkscape:connector-curvature="0" />
			<path
   d="m 340.078,373.688 c 1.299,0 2.086,0.65 2.086,1.67 0,1.114 -0.787,1.717 -2.086,1.717 h -2.229 v 13.178 c 0,2.227 0.697,2.876 3.018,2.923 0.973,0 1.715,0.742 1.715,1.717 0,1.021 -0.742,1.67 -1.902,1.67 h -1.02 c -2.322,0 -3.48,-0.371 -4.455,-1.299 -1.02,-1.067 -1.391,-2.321 -1.391,-4.734 v -13.455 h -1.996 c -1.301,0 -2.043,-0.604 -2.043,-1.717 0,-1.067 0.742,-1.67 2.043,-1.67 h 1.996 v -4.64 c 0,-1.578 0.742,-2.46 1.994,-2.46 1.299,0 2.041,0.882 2.041,2.46 v 4.64 z"
   id="path8"
   inkscape:connector-curvature="0" />
			<path
   d="m 348.705,386.031 c 0.092,4.826 2.506,7.469 6.729,7.469 2.506,0 4.084,-0.928 5.66,-3.386 0.65,-1.021 1.066,-1.3 1.902,-1.3 1.16,0 1.996,0.789 1.996,1.856 0,0.65 -0.324,1.439 -0.928,2.182 -2.137,2.644 -5.15,4.037 -8.539,4.037 -6.729,0 -10.996,-4.546 -10.996,-11.74 0,-7.053 4.361,-11.924 10.764,-11.924 5.801,0 9.977,4.315 9.977,10.393 0,1.811 -0.555,2.414 -2.273,2.414 h -14.292 z m 12.574,-3.248 c -0.465,-4.083 -2.551,-6.172 -6.125,-6.172 -3.525,0 -5.707,2.088 -6.357,6.172 z"
   id="path10"
   inkscape:connector-curvature="0" />
			<path
   d="m 370.693,375.823 c 0,-1.531 0.744,-2.459 2.041,-2.459 1.021,0 1.764,0.695 1.949,1.762 0.047,0.279 0.047,0.418 0.047,1.068 1.623,-1.996 3.76,-2.97 6.311,-2.97 2.783,0 4.779,1.114 6.264,3.48 1.949,-2.367 4.27,-3.48 7.238,-3.48 4.826,0 7.377,2.83 7.377,8.074 v 12.992 c 0,1.532 -0.742,2.46 -1.994,2.46 -1.299,0 -2.041,-0.928 -2.041,-2.46 v -12.713 c 0,-3.202 -1.486,-4.826 -4.363,-4.826 -1.484,0 -2.83,0.649 -3.852,1.81 -0.928,1.02 -1.346,2.552 -1.346,4.732 v 10.997 c 0,1.532 -0.742,2.46 -1.994,2.46 -1.299,0 -2.041,-0.928 -2.041,-2.46 v -12.528 c 0,-3.34 -1.439,-4.965 -4.361,-4.965 -1.855,0 -3.389,0.836 -4.27,2.366 -0.742,1.16 -0.928,2.274 -0.928,5.058 v 10.069 c 0,1.532 -0.742,2.46 -1.996,2.46 -1.297,0 -2.041,-0.928 -2.041,-2.46 z"
   id="path12"
   inkscape:connector-curvature="0" />
			<path
   d="m 418.246,383.062 c 4.826,1.485 6.775,3.48 6.775,6.866 0,4.316 -3.342,6.961 -8.725,6.961 -3.525,0 -6.031,-1.067 -7.703,-3.294 -0.789,-1.021 -1.438,-2.553 -1.438,-3.388 0,-1.067 0.928,-1.995 2.041,-1.995 1.021,0 1.531,0.463 1.949,1.903 0.695,2.272 2.598,3.571 5.244,3.571 2.691,0 4.592,-1.438 4.592,-3.387 0,-1.763 -0.787,-2.412 -3.943,-3.48 l -2.971,-0.928 c -4.127,-1.345 -5.846,-3.155 -5.846,-6.17 0,-3.944 3.156,-6.497 7.982,-6.497 3.201,0 5.705,1.067 7.238,3.016 0.789,1.021 1.299,2.227 1.299,3.017 0,0.928 -0.834,1.717 -1.855,1.717 -0.744,0 -1.207,-0.371 -1.625,-1.207 -0.512,-1.113 -0.742,-1.577 -1.113,-1.948 -0.883,-0.975 -2.32,-1.531 -3.943,-1.531 -2.461,0 -4.131,1.207 -4.131,2.923 0,1.485 0.789,2.18 3.201,2.97 z"
   id="path14"
   inkscape:connector-curvature="0" />
		</g>
	</g>
	<rect
   x="159"
   y="293"
   width="100"
   height="91"
   id="rect20"
   style="fill:#3093cc" />
	<g
   id="g28">
		<path
   d="m 212.406,361.354 c 0,7.332 -4.223,11.832 -11.043,11.832 -6.496,0 -10.626,-4.686 -10.626,-12.018 0,-6.959 4.362,-11.646 10.812,-11.646 6.634,0 10.857,4.593 10.857,11.832 z m -17.492,0.046 c 0,5.429 2.413,8.538 6.682,8.538 4.175,0 6.635,-3.108 6.635,-8.352 0,-5.568 -2.366,-8.676 -6.589,-8.676 -4.316,0 -6.728,3.061 -6.728,8.49 z"
   id="path22"
   inkscape:connector-curvature="0"
   style="fill:#ffffff" />
		<path
   d="m 221.82,370.587 c 0,1.532 -0.743,2.459 -2.042,2.459 -1.252,0 -1.995,-0.928 -1.995,-2.459 v -26.68 c 0,-1.532 0.742,-2.458 1.995,-2.458 1.299,0 2.042,0.881 2.042,2.458 z"
   id="path24"
   inkscape:connector-curvature="0"
   style="fill:#ffffff" />
		<path
   d="m 231.376,361.4 c 0,5.15 2.505,8.399 6.449,8.399 2.691,0 4.593,-1.346 5.707,-4.038 0.511,-1.252 1.021,-1.669 1.95,-1.669 1.16,0 1.995,0.834 1.995,1.901 0,1.161 -0.604,2.506 -1.578,3.712 -1.949,2.366 -4.594,3.48 -8.12,3.48 -3.248,0 -5.8,-0.974 -7.563,-2.923 -1.903,-2.134 -3.016,-5.428 -3.016,-9.001 0,-7.1 4.269,-11.74 10.765,-11.74 3.202,0 5.708,1.067 7.609,3.248 0.836,0.975 1.485,2.274 1.485,3.11 0,1.067 -0.928,1.995 -2.042,1.995 -0.974,0 -1.485,-0.418 -2.042,-1.624 -0.928,-2.227 -2.599,-3.341 -5.057,-3.341 -4.037,0.001 -6.542,3.248 -6.542,8.491 z"
   id="path26"
   inkscape:connector-curvature="0"
   style="fill:#ffffff" />
	</g>
</g>
</svg>