<svg xmlns="http://www.w3.org/2000/svg" overflow="visible" viewBox="0 0 500 200" fill-rule="evenodd" stroke-width=".5" stroke-linejoin="bevel"><defs><radialGradient id="a" gradientUnits="userSpaceOnUse" cx="0" cy="0" r="297.93" gradientTransform="matrix(1 0 0 .26673 719.664 671.25)"><stop offset="0" stop-color="#727272"/><stop offset="1"/></radialGradient><linearGradient id="c" gradientUnits="userSpaceOnUse" x2="673.55" gradientTransform="matrix(.07314 .06353 .06353 -.07314 1 44.142)"><stop offset="0" stop-color="#5a9fd4"/><stop offset="1" stop-color="#306998"/></linearGradient><linearGradient id="d" gradientUnits="userSpaceOnUse" x2="316.62" gradientTransform="matrix(-.05556 -.07936 -.07936 .05556 57.177 122.5)"><stop offset="0" stop-color="#ffd43b"/><stop offset="1" stop-color="#ffe873"/></linearGradient><linearGradient id="e" gradientUnits="userSpaceOnUse" x2="1545.61" gradientTransform="matrix(.09688 0 0 -.09688 349.257 122.82)"><stop offset="0" stop-color="#4c8cbf"/><stop offset="1" stop-color="#306898"/></linearGradient><mask id="b"><path fill="url(#a)" d="M-569.77-243.78H6267.4v2925.36H-569.76z"/></mask></defs><path d="M1017.6 671.26c0-43.9-133.4-79.5-297.93-79.5-164.55 0-297.95 35.6-297.95 79.5s133.4 79.47 297.95 79.47c164.53 0 297.93-35.57 297.93-79.47z" mask="url(#b)" transform="matrix(.09688 0 0 -.09688 -24.985 213.19)" font-family="Times New Roman" fill="#7f7f7f" fill-rule="nonzero"/><path d="M45.12 44.14c-3.68.02-7.2.33-10.3.88-9.1 1.6-10.76 4.98-10.76 11.2v8.2H45.6v2.74H15.95c-6.25 0-11.73 3.76-13.44 10.92-1.98 8.2-2.07 13.32 0 21.9 1.53 6.37 5.18 10.9 11.44 10.9h7.4v-9.83c0-7.1 6.16-13.38 13.46-13.38h21.52c6 0 10.77-4.93 10.77-10.95v-20.5c0-5.84-4.92-10.22-10.76-11.2-3.7-.62-7.54-.9-11.22-.88zm-11.65 6.6c2.22 0 4.04 1.85 4.04 4.12 0 2.26-1.8 4.1-4.03 4.1-2.23 0-4.04-1.84-4.04-4.1 0-2.27 1.8-4.12 4.04-4.12z" font-family="Times New Roman" fill="url(#c)" fill-rule="nonzero"/><path d="M69.8 67.16v9.56c0 7.42-6.3 13.66-13.46 13.66H34.82c-5.9 0-10.76 5.04-10.76 10.95v20.5c0 5.84 5.07 9.27 10.76 10.95 6.82 2 13.36 2.37 21.52 0 5.42-1.57 10.77-4.73 10.77-10.95v-8.2H45.6v-2.74h32.28c6.26 0 8.6-4.38 10.77-10.93 2.25-6.75 2.15-13.24 0-21.9-1.55-6.22-4.5-10.9-10.77-10.9h-8.1zM57.7 119.1c2.23 0 4.04 1.83 4.04 4.1 0 2.26-1.8 4.1-4.05 4.1-2.23 0-4.05-1.84-4.05-4.1 0-2.27 1.82-4.1 4.04-4.1z" font-family="Times New Roman" fill="url(#d)" fill-rule="nonzero"/><path d="M498.78 110.45h-2.1L486.5 95.5v14.95h-1.5V92.4l1.7-.57 10.65 15.58V92.2h1.45v18.25zm-16.42-9.4c0 2.46-.66 4.63-2 6.5-1.5 2.1-3.45 3.16-5.85 3.16-2.38 0-4.33-1.04-5.83-3.15-1.34-1.87-2-4.04-2-6.5 0-2.47.68-4.58 2.05-6.36 1.48-1.94 3.4-2.9 5.78-2.9 2.4 0 4.33.96 5.8 2.9 1.38 1.77 2.06 3.88 2.06 6.34zm-2.43 0c0-1.98-.44-3.7-1.33-5.14-1.03-1.65-2.4-2.48-4.1-2.48-1.7 0-3.07.83-4.1 2.5-.9 1.44-1.36 3.15-1.36 5.12 0 2.1.47 3.93 1.4 5.47 1.03 1.7 2.4 2.56 4.05 2.56s3-.85 4.04-2.55c.93-1.53 1.4-3.36 1.4-5.46zm-15.88 9.4h-2.14V92.58l2.15-.72v18.6zm-4.45-16.83h-5.36v16.83h-2.14V93.62h-5.45l.67-1.42 12.28-.03v1.45zm-11.8 16.83h-2.22l-1.97-5.68h-7.03l-2.08 5.68h-1.6l6.6-17.95 2.06-.67 6.25 18.62zm-4.6-7.04l-2.92-8.63-3.2 8.64h6.1zm-11.46-1.78c0 2.37-.66 4.44-1.97 6.2-1.4 1.9-3.18 2.83-5.3 2.83-2 0-3.9-.75-5.76-2.26V92.16l5.86.04c2.33.03 4.16 1.03 5.47 3.02 1.14 1.76 1.7 3.9 1.7 6.4zm-2.4.23c0-5.46-2.07-8.2-6.2-8.2h-2.3v14.25c.94.85 2 1.27 3.2 1.27 1.66 0 3-.8 4-2.4.86-1.4 1.3-3.05 1.3-4.92zm-14.1 8.6h-2.1L402.92 95.5v14.95h-1.47V92.4l1.67-.57 10.66 15.58V92.2h1.45v18.25zm-17.12-6.2c0 1.9-.64 3.44-1.9 4.65-1.26 1.2-2.85 1.8-4.76 1.8-1.86 0-3.4-.6-4.65-1.8-1.24-1.18-1.86-2.73-1.86-4.62V92.55l2.17-.72v12.1c0 3.38 1.52 5.06 4.53 5.04 1.5 0 2.7-.46 3.55-1.4.86-.92 1.3-2.15 1.3-3.7V92.2h1.64v12.05zm-15.66-3.2c0 2.46-.67 4.63-2 6.5-1.5 2.1-3.46 3.16-5.85 3.16-2.38 0-4.33-1.04-5.84-3.15-1.33-1.87-2-4.04-2-6.5 0-2.47.7-4.58 2.06-6.36 1.48-1.94 3.4-2.9 5.78-2.9 2.4 0 4.32.96 5.8 2.9 1.37 1.77 2.06 3.88 2.06 6.34zm-2.43 0c0-1.98-.45-3.7-1.34-5.14-1.03-1.65-2.4-2.48-4.1-2.48-1.7 0-3.08.83-4.1 2.5-.9 1.44-1.36 3.15-1.36 5.12 0 2.1.46 3.93 1.4 5.47 1.03 1.7 2.38 2.56 4.04 2.56 1.66 0 3-.85 4.06-2.55.92-1.53 1.4-3.36 1.4-5.46zm-13.85-8.84l-.75 1.5h-7.3v6.2h6.1l-.77 1.46h-5.33v9.1h-2.08V92.2h10.13zM474.7 67.95l-.7 1.48h-7.34v6.26h6.08l-.75 1.45h-5.34v7.64h7.88v1.45h-9.97V67.97l10.14-.03zm-12.76 18.28h-2.55l-4.85-8.54h-1.53v8.54h-2.12V67.94h5.76c1.45 0 2.68.48 3.68 1.44 1 .95 1.5 2.12 1.5 3.5s-.46 2.53-1.4 3.44c-.9.9-2.07 1.36-3.47 1.36l4.97 8.54zm-2.24-13.4c0-.88-.32-1.66-.98-2.34-.66-.7-1.43-1.03-2.32-1.03h-3.38v6.75h3.35c1 0 1.8-.32 2.4-.97.62-.65.93-1.45.93-2.42zm-10.83 13.4h-2.23l-1.97-5.68h-7.04l-2.08 5.68h-1.6l6.6-17.95 2.07-.67 6.25 18.62zm-4.62-7.04l-2.9-8.64-3.2 8.64h6.1zm-10.3-11.32l-4.77 18.04-1.64.58-4.45-15.76-3.97 15.18-1.65.58-5.1-18.13 2.05-.75 4.1 14.77 3.87-14.02 2.1-.75 4.08 14.8 4.13-14.8 1.25.26zm-22.83 1.53h-5.36V86.2h-2.14V69.4h-5.45l.67-1.43 12.28-.03v1.45zm-13.52-1.42l-.76 1.48h-7.3v6.22h6.12l-.8 1.45h-5.3v9.1h-2.1V67.97h10.14zm-12.77 8.83c0 2.48-.66 4.65-2 6.52-1.5 2.1-3.45 3.16-5.84 3.16-2.4 0-4.36-1.05-5.86-3.16-1.33-1.87-2-4.04-2-6.5 0-2.47.68-4.58 2.05-6.36 1.48-1.93 3.4-2.9 5.77-2.9 2.4 0 4.33.97 5.8 2.9 1.38 1.78 2.06 3.9 2.06 6.35zm-2.43 0c0-1.96-.44-3.67-1.33-5.12-1.02-1.66-2.38-2.5-4.08-2.5-1.73 0-3.1.84-4.12 2.5-.9 1.45-1.36 3.16-1.36 5.13 0 2.1.46 3.94 1.38 5.48 1.05 1.7 2.4 2.55 4.06 2.55 1.66 0 3-.85 4.05-2.55.94-1.54 1.4-3.37 1.4-5.47zm-15 4.15c0 1.75-.84 3.2-2.52 4.34v.02c-1.16.73-2.5 1.1-4.06 1.1-1.02 0-2.07-.23-3.15-.7-1-.4-1.84-.9-2.5-1.53l.9-1.5c1.53 1.3 3.13 1.92 4.8 1.9 1.13-.02 2.03-.27 2.7-.75.92-.68 1.37-1.54 1.37-2.58 0-.8-.25-1.43-.75-1.92-.52-.5-1.33-.92-2.45-1.3l-1.82-.6c-1.6-.53-2.68-1.1-3.28-1.75-.7-.75-1.07-1.72-1.07-2.92 0-1.54.54-2.8 1.6-3.76 1.08-.97 2.5-1.45 4.25-1.45 1.57 0 3.1.55 4.6 1.65l-.9 1.4c-1.17-.88-2.37-1.3-3.58-1.3-1.12 0-2 .26-2.64.8-.62.54-.95 1.27-.97 2.2-.02 1.23 1.02 2.2 3.13 2.86l2.05.67c1.48.48 2.56 1.13 3.26 1.94.7.8 1.04 1.85 1.04 3.15zm-23.97 29.23h-6.9V82.04c0-3.1-.93-5.5-2.8-7.23-1.84-1.72-4.32-2.55-7.4-2.5-3.28.08-6.4 1.15-9.36 3.22v34.66h-6.9V74.66c3.98-2.9 7.63-4.78 10.97-5.66 3.15-.82 5.92-1.23 8.3-1.23 1.65 0 3.2.16 4.64.47 2.7.63 4.9 1.8 6.6 3.5 1.9 1.9 2.85 4.15 2.85 6.8v31.64zm-40.9-21.44c0 6.17-1.57 11.3-4.72 15.4-3.45 4.6-8.24 6.9-14.35 6.9-6.04 0-10.77-2.3-14.17-6.9-3.1-4.1-4.63-9.23-4.63-15.4 0-5.8 1.67-10.67 5-14.64 3.53-4.22 8.16-6.33 13.9-6.33 5.73 0 10.4 2.1 13.98 6.33 3.34 3.97 5 8.84 5 14.64zm-7.56 0c0-4.34-.8-7.93-2.45-10.76-1.95-3.47-4.98-5.3-9.07-5.48-7.55.44-11.33 5.85-11.33 16.24 0 4.78.8 8.78 2.37 12 2 4.1 5.05 6.1 9.1 6.05 7.58-.08 11.38-6.1 11.37-18.05zM257.1 110.2h-6.98V83.55c0-2.7-.63-5.04-1.9-7-1.44-2.2-3.45-3.3-6.03-3.3-3.16 0-7.1 1.68-11.82 5v31.93h-6.9V46.5l6.9-2.16v29c4.4-3.2 9.22-4.8 14.45-4.8 3.65 0 6.6 1.22 8.88 3.67 2.27 2.47 3.4 5.52 3.4 9.17v28.8zm-43.02.57c-.82.06-1.58.1-2.27.1-3.9 0-6.93-.93-9.1-2.8-2.18-1.85-3.27-4.4-3.27-7.7v-27.1h-4.72v-4.44h4.73V57.3l6.9-2.47V68.8h7.75v4.46h-7.75v26.9c0 2.6.7 4.42 2.08 5.5 1.2.87 3.1 1.38 5.68 1.5v3.6zm-26.94-4.44c0 7.7-.77 13-2.3 15.97-1.56 2.96-4.5 5.32-8.84 7.1-3.53 1.37-7.34 2.13-11.43 2.25l-1.13-4.34c4.15-.57 7.08-1.14 8.78-1.7 3.33-1.14 5.63-2.87 6.9-5.2 1-1.9 1.5-5.5 1.5-10.86v-1.8c-4.73 2.15-9.67 3.22-14.83 3.22-3.4 0-6.4-1.07-8.98-3.2-2.9-2.34-4.34-5.3-4.34-8.9v-28.7l7-2.37v28.9c0 3.08.98 5.46 2.96 7.13 2 1.67 4.55 2.47 7.7 2.4 3.15-.05 6.52-1.28 10.1-3.67V68.8h6.9v37.5zM144.9 90.26c0 5.73-1.36 10.48-4.07 14.26-3.02 4.3-7.2 6.5-12.55 6.62-4.03.13-8.2-1.13-12.47-3.78v24.47l-6.8-2.45v-54.3c1.15-1.4 2.6-2.6 4.37-3.6 4.1-2.4 9.1-3.62 14.95-3.68l.1.1c5.37-.07 9.5 2.14 12.4 6.6 2.72 4.1 4.07 9.36 4.07 15.78zm-7.94-.47c0-11.27-3.23-17.06-9.68-17.38-2.57-.12-5.07.3-7.52 1.23-1.94.7-3.26 1.4-3.95 2.08v26.92c4.15 2.58 7.82 3.78 11 3.6 6.78-.45 10.16-5.93 10.16-16.44z" font-family="Times New Roman" fill="#333" fill-rule="nonzero" stroke-width=".25" stroke-miterlimit="79.84"/><path d="M199.52 122.82c0 1.9 1.55 3.46 3.46 3.46h292.56c1.9 0 3.46-1.55 3.46-3.46 0-1.9-1.55-3.46-3.46-3.46H202.97c-1.9 0-3.45 1.55-3.45 3.46z" stroke-miterlimit="79.84" font-family="Times New Roman" fill="url(#e)" stroke-linejoin="miter"/></svg>