<svg xmlns="http://www.w3.org/2000/svg" viewBox="0 0 300 66.67">
  <path fill="#232f36" d="M148.27 30.22c0-2.58.42-5.01 1.25-7.3a17.43 17.43 0 0 1 3.64-5.97c1.58-1.7 3.5-3.04 5.77-4.04 2.26-1 4.84-1.5 7.74-1.5 1.9 0 3.64.18 5.22.52 1.59.34 3.13.82 4.62 1.46l-2.1 8.07c-.96-.36-2-.68-3.13-.95a16.4 16.4 0 0 0-3.8-.4c-2.99 0-5.22.92-6.69 2.78-1.47 1.86-2.2 4.3-2.2 7.33 0 3.22.69 5.7 2.07 7.47 1.38 1.76 3.79 2.65 7.23 2.65 1.22 0 2.53-.12 3.94-.34 1.4-.23 2.69-.6 3.86-1.09l1.43 8.28c-1.18.5-2.65.93-4.41 1.3-1.77.35-3.71.54-5.84.54a22 22 0 0 1-8.42-1.46 15.85 15.85 0 0 1-5.8-3.98 15.47 15.47 0 0 1-3.33-5.93 25.22 25.22 0 0 1-1.05-7.44m-14.9-3.6c-.04-.85-.2-1.7-.44-2.5a6.15 6.15 0 0 0-3.12-3.73c-.8-.42-1.78-.62-2.96-.62-1.13 0-2.1.2-2.91.57-.82.39-1.5.9-2.04 1.53a6.82 6.82 0 0 0-1.26 2.2c-.3.85-.5 1.7-.64 2.55zm-23.76 3.87c0-3.16.49-5.94 1.46-8.31a17.8 17.8 0 0 1 3.84-5.94 15.94 15.94 0 0 1 5.46-3.6 17.1 17.1 0 0 1 6.35-1.22c5.07 0 9.07 1.55 12.01 4.65 2.94 3.1 4.42 7.66 4.42 13.68 0 .59-.03 1.23-.07 1.93l-.14 1.87H120a6.72 6.72 0 0 0 2.92 4.95c1.72 1.23 4.02 1.84 6.92 1.84 1.86 0 3.68-.17 5.47-.51 1.78-.34 3.24-.76 4.38-1.26l1.35 8.22c-.54.27-1.27.54-2.17.8-.9.28-1.91.52-3.02.72-1.11.2-2.3.38-3.57.51-1.26.14-2.53.2-3.8.2-3.21 0-6-.47-8.38-1.42a16.29 16.29 0 0 1-5.9-3.9 15.49 15.49 0 0 1-3.47-5.88 23.26 23.26 0 0 1-1.12-7.33M85.66 48.08a178.4 178.4 0 0 1-7.05-15.89 248.37 248.37 0 0 1-6.78-19.82h10.73c.45 1.76.99 3.68 1.6 5.73a442.43 442.43 0 0 0 3.89 12.4c.66 1.99 1.3 3.8 1.94 5.42a322 322 0 0 0 3.92-11.57c.66-2.1 1.3-4.19 1.9-6.25.62-2.05 1.15-3.97 1.6-5.73h10.47a249.61 249.61 0 0 1-6.78 19.82 178.5 178.5 0 0 1-7.04 15.89zm-15.5-35.71a312.83 312.83 0 0 1-6.4 19.35 232.5 232.5 0 0 1-7.27 17.5 39.51 39.51 0 0 1-2.86 5.2c-.95 1.43-2 2.6-3.13 3.53-1.13.93-2.41 1.61-3.84 2.04-1.43.43-3.1.64-5 .64a20.33 20.33 0 0 1-7.68-1.42l1.77-8.08c1.04.36 1.97.61 2.78.75.82.13 1.68.2 2.58.2 1.81 0 3.2-.49 4.18-1.46.97-.97 1.8-2.32 2.48-4.04a189.6 189.6 0 0 1-13.45-34.21h10.73c.45 1.76.99 3.68 1.6 5.73a276.46 276.46 0 0 0 4.02 12.4c.7 1.99 1.38 3.8 2.02 5.42.59-1.63 1.2-3.43 1.84-5.43.63-1.99 1.26-4.04 1.87-6.14a447.82 447.82 0 0 0 3.3-11.98zM25.16 30.49c0-3.12-.7-5.62-2.1-7.5-1.41-1.88-3.5-2.82-6.25-2.82a28.91 28.91 0 0 0-4.42.34v18.27c.64.4 1.47.74 2.48 1.01 1.02.27 2.05.41 3.1.41 4.79 0 7.19-3.23 7.19-9.7m10.32-.28c0 2.76-.34 5.27-1.02 7.54a16.93 16.93 0 0 1-2.99 5.83 13.5 13.5 0 0 1-4.89 3.8 15.8 15.8 0 0 1-6.72 1.37 18.19 18.19 0 0 1-7.47-1.57v13.44H2.27V13.6c.9-.27 1.94-.53 3.12-.78 1.18-.25 2.41-.46 3.7-.65 1.3-.18 2.6-.32 3.94-.44a45.7 45.7 0 0 1 3.84-.17c2.94 0 5.56.44 7.87 1.33 2.3.88 4.25 2.13 5.84 3.73a16 16 0 0 1 3.63 5.87c.84 2.31 1.26 4.9 1.26 7.74"/>
  <path fill="#00a8f8" d="M275.56 29.07c0 5.66 2.28 8.48 6.85 8.48a10.99 10.99 0 0 0 5.23-1.36V20.05a22.8 22.8 0 0 0-4.14-.34c-2.67 0-4.66.88-5.97 2.65-1.32 1.76-1.97 4-1.97 6.72m22.2 14.52c0 5.85-1.49 10.18-4.45 13-2.97 2.83-7.55 4.25-13.75 4.25a40.57 40.57 0 0 1-12.56-2.1l1.77-8.5c1.58.64 3.25 1.14 4.99 1.5 1.74.36 3.72.54 5.94.54 2.9 0 4.94-.63 6.14-1.9a6.82 6.82 0 0 0 1.8-4.88v-1.3a16.35 16.35 0 0 1-7.13 1.5c-4.93 0-8.71-1.46-11.33-4.38-2.63-2.92-3.94-7-3.94-12.25 0-2.63.4-5.01 1.22-7.17.82-2.14 2-3.99 3.56-5.53a15.88 15.88 0 0 1 5.74-3.56 21.98 21.98 0 0 1 7.67-1.26c1.22 0 2.48.06 3.77.17 1.29.12 2.57.26 3.84.44a52.86 52.86 0 0 1 6.72 1.43zm-37.27-22.26c-.9-.23-1.97-.46-3.2-.71a19.68 19.68 0 0 0-6.2-.2c-.89.1-1.56.23-2 .36v27.3h-10.12V14.27a61.24 61.24 0 0 1 6.41-1.8c2.47-.57 5.22-.85 8.25-.85a39.88 39.88 0 0 1 6.58.78c.77.16 1.43.35 1.97.58zm-38.67 8.82c0-3.12-.62-5.57-1.86-7.36a6.1 6.1 0 0 0-5.33-2.68c-2.3 0-4.1.9-5.36 2.68-1.27 1.79-1.9 4.24-1.9 7.36 0 3.13.63 5.6 1.9 7.44a6.14 6.14 0 0 0 5.36 2.75c2.3 0 4.08-.92 5.33-2.75 1.24-1.84 1.86-4.31 1.86-7.44m10.32 0c0 2.81-.4 5.38-1.22 7.7a15.89 15.89 0 0 1-9.06 9.8c-2.15.92-4.56 1.38-7.23 1.38-2.63 0-5.02-.46-7.16-1.36-2.15-.9-4-2.18-5.54-3.84a17.53 17.53 0 0 1-3.6-5.97 22.08 22.08 0 0 1-1.28-7.7c0-2.81.44-5.37 1.32-7.68.88-2.3 2.1-4.27 3.67-5.9a16.46 16.46 0 0 1 5.56-3.8c2.15-.91 4.5-1.36 7.03-1.36 2.58 0 4.94.45 7.1 1.36 2.14.9 3.99 2.17 5.52 3.8a17.27 17.27 0 0 1 3.6 5.9c.86 2.31 1.3 4.87 1.3 7.67m-38.16 12.56c0 2.04-.64 3.59-1.93 4.65a6.7 6.7 0 0 1-4.38 1.6 6.7 6.7 0 0 1-4.38-1.6c-1.29-1.06-1.94-2.61-1.94-4.65 0-2.03.65-3.58 1.94-4.65a6.7 6.7 0 0 1 4.38-1.6 6.7 6.7 0 0 1 4.38 1.6c1.29 1.07 1.93 2.62 1.93 4.65"/>
</svg>
