<svg xmlns="http://www.w3.org/2000/svg" viewBox="0 0 500 200"><path d="M148.06 135.43c-3.08-.7-6.35-1.16-9.65-1.16-5.65 0-10.8 1-14.6 2.57-.4.2-.7.65-.7 1.14 0 .18.03.37.1.52.45 1.3-.28 2.7-3.95 3.52-5.45 1.2-8.9 6.8-10.85 8.67-2.32 2.18-8.83 3.53-7.85 2.2.76-1 3.7-4.2 5.48-7.63 1.6-3.07 3.03-3.95 4.98-6.9.6-.85 2.82-3.88 3.47-6.27.72-2.34.48-5.27.76-6.48.4-1.75 2.04-5.52 2.16-7.66.06-1.2-5.05 1.73-7.47 1.73-2.43 0-4.8-1.47-6.96-1.56-2.68-.13-4.4 2.06-6.84 1.67-1.38-.2-2.55-1.43-4.97-1.5-3.44-.14-7.66 1.9-15.57 1.65-7.8-.26-15-9.84-15.97-11.36-1.15-1.8-2.56-1.8-4.08-.4-1.54 1.4-3.43.3-3.96-.63-1.04-1.8-3.76-7-8-8.1-5.84-1.52-8.8 3.24-8.42 7 .4 3.85 2.88 4.93 4.03 6.97 1.15 2.03 1.74 3.35 3.9 4.26 1.54.64 2.1 1.58 1.65 2.83-.4 1.1-2 1.35-3.05 1.4-2.22.1-3.78-.5-4.92-1.22-1.33-.84-2.4-2-3.56-4-1.34-2.2-3.44-3.15-5.9-3.15-1.17 0-2.27.3-3.23.8-3.86 2-8.44 3.2-13.37 3.2H5.17c10.66 31.6 40.56 54.35 75.78 54.35 28.12 0 52.86-14.5 67.1-36.47" fill="#fff"/><path d="M499 131c0 2.23-1.8 4.04-4.04 4.04-2.23 0-4.04-1.8-4.04-4.03 0-2.22 1.8-4.04 4.04-4.04 2.23 0 4.04 1.82 4.04 4.05m-4.04-3.32c-1.84 0-3.33 1.5-3.33 3.33 0 1.84 1.5 3.32 3.33 3.32s3.32-1.48 3.32-3.3c0-1.85-1.5-3.34-3.32-3.34m-.74 3.6h.72l1.1 1.78h.7l-1.2-1.8c.62-.1 1.08-.4 1.08-1.15 0-.8-.48-1.16-1.45-1.16h-1.57v4.12h.62zm0-.53v-1.3h.85c.43 0 .9.12.9.62 0 .64-.47.68-1 .68zm-22.48-63.4V79.4h15.63v4.4h-15.63v35.6c0 6.98 2.16 11.34 8.06 11.34 2.82 0 4.82-.37 6.22-.86l.66 4.2c-1.77.74-4.26 1.3-7.56 1.3-4 0-7.32-1.25-9.47-3.87-2.48-2.87-3.33-7.46-3.33-13.06V83.8h-9.24v-4.4h9.24V69.33zm-21.58 53.83c0 4.34.17 8.8.8 13h-5l-.8-7.84h-.25c-2.65 4.23-8.76 9.1-17.47 9.1-11.03 0-16.16-7.76-16.16-15.06 0-12.64 11.17-20.26 33.47-20.02V98.9c0-5.43-1.05-16.24-14.03-16.15-4.78 0-9.78 1.28-13.75 4.08l-1.72-3.94c5-3.4 11.13-4.75 16.08-4.75 15.83 0 18.86 11.87 18.86 21.66zm-5.42-16.27c-11.94-.33-27.7 1.48-27.7 14.63 0 7.87 5.2 11.4 10.9 11.4 9.14 0 14.34-5.64 16.23-10.97.4-1.17.57-2.35.57-3.3zm-62.28-26.75c-4.17 0-7.9 1.2-11.04 3.14-3.26 1.9-5.9 4.85-7.5 7.9h-.2V63.57l-5.43-1.6v72.2h5.4v-33.5c0-2.2.17-3.76.75-5.4 2.34-6.8 8.76-12.4 16.53-12.4 11.22 0 15.1 9 15.1 18.86v32.45h5.43v-33.05c0-20.4-13.84-23-19.04-23M332 110.45c0 1.46-.1 2.8-.42 4.05-1.4 6-6.3 9.84-11.96 9.84-8.7 0-13.7-7.34-13.7-17.4 0-10.15 4.94-18.02 13.86-18.02 6.23 0 10.7 4.4 11.9 9.72.24 1.12.33 2.5.33 3.62zm13.84-52.08L332 54.47v30.88h-.22c-2.45-4.05-7.86-7.13-15.36-7.13-13.17 0-24.63 10.9-24.55 29.23 0 16.82 10.36 27.97 23.44 27.97 7.9 0 14.52-3.76 17.8-9.9h.24l.62 8.67h12.34c-.25-3.73-.46-9.75-.46-15.36zm-96.8 52.18c.37 9.92 8.06 14.26 16.93 14.26 6.36 0 10.93-1 15.1-2.53l2.06 9.53c-4.7 1.98-11.2 3.46-19.14 3.46-17.8 0-28.2-10.97-28.2-27.74 0-15.12 9.15-29.4 26.77-29.4 17.8 0 23.6 14.63 23.6 26.6 0 2.6-.22 4.65-.48 5.94zm24.1-9.65c.06-5.07-2.15-13.34-11.42-13.34-8.53 0-12.08 7.74-12.7 13.34zm-71.5-3.86c0-7.33-.15-12.7-.45-17.6h11.98l.52 10.4h.4c2.7-7.7 9.07-11.63 14.98-11.63 1.35 0 2.14.06 3.25.32v13.03c-1.3-.26-2.5-.4-4.18-.4-6.6 0-11.17 4.2-12.4 10.48-.24 1.22-.37 2.7-.37 4.17v28.4h-13.85zm-36.78 33.86c0 2.22-1.8 4.03-4.04 4.03-2.23 0-4.04-1.8-4.04-4.03 0-2.23 1.8-4.05 4.04-4.05 2.23 0 4.04 1.82 4.04 4.05m-4.04-3.33c-1.84 0-3.33 1.5-3.33 3.33s1.48 3.3 3.32 3.3c1.83 0 3.32-1.47 3.32-3.3 0-1.84-1.5-3.33-3.32-3.33m-62.27.54c.4.4 1.12 1.75.25 3.47-.48.9-1 1.54-1.94 2.3-1.13.9-3.32 1.93-6.33.02-1.63-1.04-1.73-1.38-3.97-1.1-1.6.22-2.23-1.4-1.66-2.74.58-1.34 2.94-2.42 5.88-.7 1.32.78 3.38 2.42 5.18.96.75-.6 1.2-1 2.23-2.2.04-.04.1-.07.18-.07.07 0 .13.02.17.06m49.5 7.34c-3.07-.72-6.34-1.16-9.64-1.16-5.65 0-10.8 1-14.6 2.56-.4.2-.7.65-.7 1.14 0 .18.03.37.1.52.45 1.3-.28 2.7-3.95 3.52-5.45 1.2-8.9 6.8-10.85 8.67-2.32 2.2-8.83 3.54-7.85 2.23.76-1.03 3.7-4.22 5.48-7.66 1.6-3.07 3.03-3.95 4.98-6.9.6-.85 2.82-3.88 3.47-6.27.72-2.34.48-5.27.76-6.48.4-1.74 2.04-5.5 2.16-7.65.06-1.2-5.05 1.72-7.47 1.72-2.43 0-4.8-1.46-6.96-1.56-2.68-.13-4.4 2.06-6.84 1.67-1.38-.2-2.55-1.42-4.97-1.5-3.44-.14-7.66 1.9-15.57 1.65-7.8-.26-15-9.83-15.97-11.35-1.15-1.8-2.56-1.8-4.08-.4-1.54 1.4-3.43.3-3.96-.63-1.04-1.8-3.76-7-8-8.1-5.84-1.52-8.8 3.24-8.42 7 .4 3.85 2.88 4.93 4.03 6.97 1.15 2.03 1.74 3.36 3.9 4.26 1.54.64 2.1 1.58 1.65 2.84-.4 1.1-2 1.35-3.05 1.4-2.22.1-3.78-.5-4.92-1.24-1.33-.83-2.4-2-3.56-4-1.34-2.2-3.44-3.15-5.9-3.15-1.17 0-2.27.3-3.23.8-3.86 2-8.44 3.2-13.37 3.2H5.17C2.47 109.53 1 100.95 1 92c0-44.13 35.8-79.9 79.95-79.9 44.14 0 79.94 35.77 79.94 79.9 0 16.02-4.73 30.92-12.84 43.44"/><path d="M74.72 50.15c-9.23.67-10.2 1.67-11.92 3.5-2.44 2.6-5.65-3.36-5.65-3.36-1.93-.42-4.27-3.53-3-6.42 1.24-2.87 3.53-2.02 4.25-1.12.87 1.1 2.74 2.87 5.16 2.8C66 45.5 68.78 45 72.7 45c3.94 0 6.6 1.46 6.74 2.73.13 1.08-.32 2.1-4.72 2.42m9.7-15.25h-.04c-.14 0-.25-.1-.25-.24 0-.1.06-.18.14-.22 1.8-.94 4.46-1.7 7.52-2 .9-.1 1.8-.15 2.66-.15h.46c5.13.1 9.23 2.14 9.17 4.53-.08 2.4-4.27 4.24-9.4 4.14-1.66-.05-3.22-.3-4.55-.68-.17-.04-.28-.18-.28-.34 0-.16.1-.3.28-.34 3.2-.73 5.35-1.95 5.2-3.1-.2-1.5-4.38-2.32-9.34-1.82-.54.05-1.06.12-1.58.2m41.64 35.85c-.8 2.65-1.9 6.04-6.92 8.6-.73.38-1-.23-.67-.8 1.9-3.22 2.23-4.02 2.78-5.28.76-1.86 1.17-4.5-.36-9.98-3-10.82-9.3-25.3-13.85-29.97-4.4-4.52-12.37-5.8-19.58-3.95-2.65.68-7.84 3.37-17.47 1.2-16.66-3.74-19.13 4.6-20.08 8.23-.96 3.64-3.26 13.96-3.26 13.96-.76 4.2-1.76 11.52 24.1 16.46 12.06 2.3 12.67 5.4 13.2 7.64.97 4 2.5 6.3 4.22 7.45 1.72 1.16 0 2.12-1.92 2.3-5.12.54-24.1-4.9-35.33-11.27-9.18-5.6-9.33-10.66-7.23-14.94-13.87-1.5-24.28 1.28-26.17 7.85C14.3 79.5 42.3 98.75 74.2 108.4c33.5 10.14 67.93 3.07 71.75-17.97 1.74-9.55-6.3-16.62-19.9-19.68" fill="#e93442"/><path d="M160.08 131.17h.72l1.1 1.78h.7l-1.2-1.82c.63-.07 1.1-.4 1.1-1.13 0-.8-.5-1.17-1.47-1.17h-1.57v4.12h.62zm0-.53v-1.3h.85c.43 0 .9.12.9.62 0 .64-.47.68-1 .68z"/></svg>