<svg xmlns="http://www.w3.org/2000/svg" viewBox="0 0 95 25">
  <path fill="#67afe1" d="M38.63 16.67c.08 2.46 1.58 4.13 4.21 4.13 1.5 0 2.9-.7 3.52-2.02h5.8c-1.15 4.22-5.19 6.06-9.4 6.06-6.15 0-10.28-3.6-10.28-9.66 0-5.54 4.57-9.58 10.19-9.58 6.76 0 10.1 4.92 9.84 11.07zm7.64-3.34c-.09-2.02-1.58-3.69-3.69-3.69-2.2 0-3.6 1.5-3.95 3.7zM74.82 5.6c5.89 0 10.02 4.22 10.02 9.67 0 5.44-4.13 9.57-10.02 9.57-5.88 0-10.01-4.13-10.01-9.57 0-5.45 4.13-9.67 10.01-9.67zm0 14.67c2.9 0 3.78-2.72 3.78-5 0-2.29-.88-5.1-3.78-5.1s-3.78 2.73-3.78 5.1c0 2.28.88 5 3.78 5zM23.25 10.26h-3.77v8.08c0 1.5.87 1.85 2.2 1.85.52 0 1.05-.1 1.57-.1v4.49c-1.14 0-2.28.18-3.34.18-5.27 0-6.58-1.5-6.58-6.6v-7.9h-3.17V6.31h3.08V.16h6.15v6.15h3.77v3.95zm7.73-5.62h-6.15V.16h6.15zm-6.15 1.67h6.15v18.53h-6.15zm40.06 3.95h-3.77v8.08c0 1.5.88 1.85 2.2 1.85.52 0 1.05-.1 1.57-.1v4.49c-1.14 0-2.28.18-3.33.18-5.27 0-6.6-1.5-6.6-6.6v-7.9H51.8V6.31h3.08V.16h6.15v6.15h3.78v3.95z"/>
</svg>
