<?xml version="1.0" encoding="UTF-8" standalone="no"?>
<svg
   xmlns:dc="http://purl.org/dc/elements/1.1/"
   xmlns:cc="http://creativecommons.org/ns#"
   xmlns:rdf="http://www.w3.org/1999/02/22-rdf-syntax-ns#"
   xmlns:svg="http://www.w3.org/2000/svg"
   xmlns="http://www.w3.org/2000/svg"
   xmlns:sodipodi="http://sodipodi.sourceforge.net/DTD/sodipodi-0.dtd"
   xmlns:inkscape="http://www.inkscape.org/namespaces/inkscape"
   viewBox="0 0 78.85 15.267085"
   version="1.1"
   id="svg6"
   sodipodi:docname="uhk_prf.svg"
   width="78.849998"
   height="15.267085"
   inkscape:version="0.92.2 2405546, 2018-03-11">
  <metadata
     id="metadata12">
    <rdf:RDF>
      <cc:Work
         rdf:about="">
        <dc:format>image/svg+xml</dc:format>
        <dc:type
           rdf:resource="http://purl.org/dc/dcmitype/StillImage" />
      </cc:Work>
    </rdf:RDF>
  </metadata>
  <defs
     id="defs10" />
  <sodipodi:namedview
     pagecolor="#ffffff"
     bordercolor="#666666"
     borderopacity="1"
     objecttolerance="10"
     gridtolerance="10"
     guidetolerance="10"
     inkscape:pageopacity="0"
     inkscape:pageshadow="2"
     inkscape:window-width="1920"
     inkscape:window-height="1016"
     id="namedview8"
     showgrid="false"
     inkscape:zoom="5.5675334"
     inkscape:cx="39.604612"
     inkscape:cy="6.5296139"
     inkscape:window-x="0"
     inkscape:window-y="27"
     inkscape:window-maximized="1"
     inkscape:current-layer="svg6" />
  <path
     d="m 11.850387,7.5274713 -0.96,-0.36 c -0.02,0.98 -0.37,1.6400004 -0.9499998,1.6400004 -1.07,0 -2.77,-1.4000004 -3.9,-1.4000004 -1.1,0 -1.95,0.91 -1.9,2.5400004 l 0.95,0.3600003 c 0.02,-0.9800003 0.37,-1.6400007 0.95,-1.6400007 1.07,0 2.77,1.4000007 3.9,1.4000007 1.0999998,0 1.9499998,-0.9100003 1.8999998,-2.5400007"
     id="path2"
     inkscape:connector-curvature="0"
     style="fill:#fab219" />
  <path
     d="m 12.510387,13.257472 h -1.47 l -0.63,1.72 h 2.1 l 1.72,-1.72 v -2.8 l 1.72,-1.7200007 -1.72,-1.72 v -2.8 l -1.72,-1.72 h -2.1 l 0.63,1.72 h 1.47 v 2.8 l 1.72,1.72 -1.72,1.7200007 v 2.8 m -10.7599998,-2.8 v 2.8 l 1.72,1.72 h 2.1 l -0.63,-1.72 h -1.47 v -2.8 l -1.72,-1.7200007 1.72,-1.72 v -2.8 h 1.47 l 0.63,-1.72 h -2.1 l -1.72,1.72 v 2.8 l -1.71999996,1.72 1.71999996,1.7200007 m 70.7999998,2.48 c -0.13,0.1 -0.3,0.17 -0.47,0.17 -0.23,0 -0.4,-0.13 -0.44,-0.4 -0.25,0.26 -0.56,0.4 -0.93,0.4 -0.46,0 -0.78,-0.25 -0.78,-0.68 0,-0.52 0.55,-0.97 1.6,-0.9 v -0.19 c 0,-0.3 -0.16,-0.5 -0.5,-0.5 -0.26,0 -0.54,0.07 -0.84,0.2 l -0.14,-0.38 c 0.33,-0.15 0.69,-0.25 1.07,-0.25 0.59,0 0.92,0.32 0.92,0.9 v 1.15 c 0,0.15 0.06,0.22 0.17,0.22 0.07,0 0.14,-0.03 0.21,-0.08 z m -1.03,-0.55 v -0.5 c -0.67,-0.05 -1.08,0.15 -1.08,0.5 0,0.2 0.16,0.32 0.4,0.32 a 0.9,0.9 0 0 0 0.68,-0.32 m -3.38,0.01 v -1.51 h -0.45 v -0.4 h 0.45 V 9.8874717 l 0.5,-0.19 v 0.8000003 h 0.86 v 0.39 h -0.85 v 1.4 c 0,0.23 0.13,0.35 0.33,0.35 a 0.9,0.9 0 0 0 0.45,-0.14 l 0.14,0.37 c -0.2,0.13 -0.45,0.23 -0.72,0.23 -0.42,0 -0.71,-0.26 -0.71,-0.72 m -1.65,0.13 V 9.4474717 l 0.5,-0.17 v 3.1800003 c 0,0.15 0.06,0.22 0.18,0.22 0.07,0 0.14,-0.03 0.21,-0.08 l 0.13,0.34 a 0.85,0.85 0 0 1 -0.52,0.17 c -0.3,0 -0.5,-0.2 -0.5,-0.6 m -1,0.57 -0.17,-0.43 c -0.29,0.27 -0.62,0.46 -1.03,0.46 a 0.83,0.83 0 0 1 -0.85,-0.87 v -1.75 h 0.52 v 1.64 c 0,0.32 0.2,0.52 0.5,0.52 0.28,0 0.54,-0.15 0.75,-0.35 v -1.81 h 0.51 v 1.7 c 0,0.24 0.02,0.37 0.11,0.78 l -0.34,0.11 m -4.77,-3.6300003 0.51,-0.17 v 3.7500003 h -0.51 z m 2.3,3.5800003 h -0.59 l -1.14,-1.32 1.11,-1.22 h 0.56 l -1.12,1.2 1.18,1.34 m -2.7,-0.09 c -0.13,0.1 -0.31,0.17 -0.47,0.17 -0.23,0 -0.4,-0.13 -0.44,-0.4 -0.26,0.26 -0.56,0.4 -0.93,0.4 -0.46,0 -0.78,-0.25 -0.78,-0.68 0,-0.52 0.55,-0.97 1.6,-0.9 v -0.19 c 0,-0.3 -0.16,-0.5 -0.51,-0.5 -0.25,0 -0.53,0.07 -0.83,0.2 l -0.14,-0.38 c 0.34,-0.15 0.7,-0.25 1.08,-0.25 0.59,0 0.92,0.32 0.92,0.9 v 1.15 c 0,0.15 0.06,0.22 0.16,0.22 0.07,0 0.15,-0.03 0.22,-0.08 z m -1.02,-0.55 v -0.5 c -0.67,-0.05 -1.08,0.15 -1.08,0.5 0,0.2 0.15,0.32 0.4,0.32 a 0.9,0.9 0 0 0 0.68,-0.32 m -2.62,-2.22 v 0.33 h 0.73 v 0.39 h -0.73 v 2.15 h -0.52 v -2.15 h -0.41 v -0.4 h 0.41 v -0.37 c 0,-0.5000003 0.35,-0.8200003 0.81,-0.8200003 0.26,0 0.5,0.06 0.7,0.16 l -0.15,0.4 a 1.01,1.01 0 0 0 -0.45,-0.13 c -0.24,0 -0.4,0.17 -0.4,0.4400003 m -2.27,2.78 c -0.13,0.1 -0.31,0.17 -0.47,0.17 -0.23,0 -0.4,-0.13 -0.44,-0.4 -0.25,0.26 -0.56,0.4 -0.93,0.4 -0.46,0 -0.78,-0.25 -0.78,-0.68 0,-0.52 0.55,-0.97 1.6,-0.9 v -0.19 c 0,-0.3 -0.16,-0.5 -0.5,-0.5 -0.26,0 -0.54,0.07 -0.84,0.2 l -0.14,-0.38 c 0.33,-0.15 0.69,-0.25 1.07,-0.25 0.59,0 0.92,0.32 0.92,0.9 v 1.15 c 0,0.15 0.06,0.22 0.16,0.22 0.08,0 0.15,-0.03 0.22,-0.08 z m -1.01,-0.56 v -0.5 c -0.67,-0.05 -1.08,0.15 -1.08,0.5 0,0.2 0.15,0.32 0.4,0.32 0.26,0 0.51,-0.12 0.68,-0.32 z m -0.92,-2.25 -0.13,-0.3600003 1.18,-0.48 0.15,0.44 -1.2,0.4000003 m -3.19,-0.6800003 0.51,-0.17 v 3.7500003 h -0.51 z m 2.3,3.5800003 h -0.59 l -1.14,-1.32 1.11,-1.22 h 0.56 l -1.12,1.2 1.18,1.34 m -5,-1.27 c 0,-0.84 0.5,-1.35 1.25,-1.35 0.3,0 0.58,0.08 0.84,0.18 l -0.14,0.38 c -0.22,-0.09 -0.4,-0.13 -0.62,-0.13 -0.47,0 -0.8,0.33 -0.8,0.92 0,0.59 0.33,0.92 0.8,0.92 0.21,0 0.43,-0.06 0.67,-0.16 l 0.14,0.38 c -0.28,0.13 -0.58,0.2 -0.87,0.2 -0.77,0 -1.27,-0.5 -1.27,-1.34 m -0.54,0.19 h -1.76 c 0.07,0.5 0.41,0.74 0.93,0.74 0.24,0 0.47,-0.07 0.7,-0.16 l 0.12,0.33 c -0.26,0.15 -0.58,0.25 -0.91,0.25 -0.8,0 -1.38,-0.48 -1.38,-1.35 0,-0.83 0.53,-1.35 1.26,-1.35 0.92,0 1.22,0.77 1.04,1.54 z m -1.76,-0.4 h 1.32 c 0.03,-0.45 -0.2,-0.76 -0.6,-0.76 -0.38,0 -0.66,0.28 -0.72,0.77 m -3.5,0.22 c 0,-0.8 0.49,-1.37 1.2,-1.37 0.23,0 0.48,0.06 0.65,0.16 V 9.4474717 l 0.52,-0.17 v 2.9000003 c 0,0.25 0,0.38 0.1,0.79 l -0.33,0.12 -0.17,-0.42 c -0.23,0.26 -0.52,0.44 -0.85,0.44 -0.6,0 -1.11,-0.45 -1.11,-1.33 z m 1.85,0.54 v -1.36 a 1.1,1.1 0 0 0 -0.55,-0.15 c -0.45,0 -0.76,0.37 -0.76,0.96 0,0.58 0.3,0.9 0.7,0.9 0.23,0 0.44,-0.13 0.61,-0.36 m -2.38,-0.37 h -1.76 c 0.07,0.5 0.41,0.74 0.92,0.74 0.25,0 0.48,-0.07 0.7,-0.16 l 0.13,0.33 c -0.26,0.15 -0.58,0.25 -0.91,0.25 -0.8,0 -1.38,-0.48 -1.38,-1.35 0,-0.83 0.52,-1.35 1.26,-1.35 0.92,0 1.21,0.77 1.04,1.54 z m -1.24,-1.76 -0.66,-0.7000003 0.32,-0.11 0.53,0.46 0.53,-0.46 0.33,0.12 -0.66,0.6900003 z m -0.52,1.36 h 1.32 c 0.03,-0.46 -0.2,-0.77 -0.6,-0.77 -0.39,0 -0.66,0.28 -0.72,0.77 m -0.69,-1.07 -1.07,2.54 h -0.53 l -1.07,-2.53 h 0.57 l 0.79,2.1 0.77,-2.1 h 0.54 m -5.27,1.27 c 0,-0.84 0.48,-1.35 1.22,-1.35 0.75,0 1.23,0.51 1.23,1.35 0,0.83 -0.48,1.35 -1.23,1.35 -0.74,0 -1.22,-0.52 -1.22,-1.35 z m 1.91,0 c 0,-0.64 -0.27,-0.97 -0.69,-0.97 -0.41,0 -0.68,0.33 -0.68,0.97 0,0.64 0.27,0.97 0.68,0.97 0.42,0 0.7,-0.33 0.7,-0.97 m -4.88,0.02 c 0,-0.8 0.49,-1.37 1.2,-1.37 0.23,0 0.48,0.06 0.65,0.16 V 9.4474717 l 0.52,-0.17 v 2.9000003 c 0,0.25 0,0.38 0.1,0.79 l -0.33,0.12 -0.17,-0.42 c -0.23,0.26 -0.52,0.44 -0.85,0.44 -0.6,0 -1.12,-0.45 -1.12,-1.33 z m 1.85,0.54 v -1.35 a 1.1,1.1 0 0 0 -0.55,-0.15 c -0.45,0 -0.76,0.37 -0.76,0.96 0,0.58 0.3,0.9 0.7,0.9 0.23,0 0.44,-0.13 0.61,-0.36 m -4.76,-0.56 c 0,-0.84 0.49,-1.35 1.23,-1.35 0.74,0 1.23,0.51 1.23,1.35 0,0.83 -0.49,1.35 -1.23,1.35 -0.74,0 -1.23,-0.52 -1.23,-1.35 z m 1.91,0 c 0,-0.64 -0.27,-0.97 -0.68,-0.97 -0.42,0 -0.68,0.33 -0.68,0.97 0,0.64 0.26,0.97 0.68,0.97 0.41,0 0.68,-0.33 0.68,-0.97 m -3.67,-0.36 c 0,-0.24 -0.01,-0.37 -0.1,-0.84 l 0.33,-0.13 0.19,0.58 c 0.12,-0.32 0.44,-0.6 0.78,-0.6 0.15,0 0.26,0.02 0.35,0.07 l -0.2,0.55 a 0.58,0.58 0 0 0 -0.26,-0.06 c -0.24,0 -0.46,0.19 -0.58,0.46 v 1.6 h -0.5 v -1.63 m -1.66,-1.6300003 1.18,-0.48 0.16,0.44 -1.2,0.4000003 z m 0.33,0.8300003 0.51,-0.18 v 2.61 h -0.51 v -2.43 m -1.91,-1.2100003 0.53,0.46 0.53,-0.46 0.33,0.12 -0.66,0.6900003 h -0.4 l -0.66,-0.7000003 z m -0.12,2.0000003 c 0,-0.24 -0.01,-0.37 -0.1,-0.84 l 0.33,-0.13 0.18,0.58 c 0.13,-0.32 0.45,-0.6 0.79,-0.6 0.14,0 0.26,0.02 0.35,0.07 l -0.2,0.55 a 0.58,0.58 0 0 0 -0.27,-0.06 c -0.23,0 -0.46,0.19 -0.57,0.46 v 1.6 h -0.51 v -1.62 m -2.94,-1.7100003 h 1.28 c 0.7,0 1.15,0.4400003 1.15,1.1300003 0,0.69 -0.45,1.13 -1.15,1.13 h -0.76 v 1.08 h -0.52 z m 1.16,1.8800003 c 0.48,0 0.75,-0.28 0.75,-0.74 0,-0.47 -0.27,-0.73 -0.75,-0.73 h -0.64 v 1.47 h 0.64 m 58.64,-5.0400007 h -1.76 c 0.07,0.5 0.41,0.74 0.92,0.74 0.25,0 0.48,-0.07 0.7,-0.16 l 0.13,0.33 c -0.26,0.15 -0.58,0.25 -0.91,0.25 -0.8,0 -1.38,-0.47 -1.38,-1.35 0,-0.83 0.52,-1.35 1.26,-1.35 0.92,0 1.22,0.77 1.04,1.54 z m -1.76,-0.4 h 1.32 c 0.03,-0.45 -0.2,-0.76 -0.6,-0.76 -0.38,0 -0.66,0.28 -0.72,0.77 z m 0.26,-1.42 -0.13,-0.36 1.18,-0.48 0.15,0.44 -1.2,0.4 m -0.95,0.36 -1.07,2.54 h -0.53 l -1.07,-2.54 h 0.57 l 0.79,2.11 0.77,-2.11 h 0.54 m -5.27,1.27 c 0,-0.84 0.48,-1.35 1.23,-1.35 0.74,0 1.23,0.51 1.23,1.35 0,0.84 -0.49,1.35 -1.23,1.35 -0.75,0 -1.23,-0.51 -1.23,-1.35 z m 1.91,0 c 0,-0.64 -0.27,-0.97 -0.68,-0.97 -0.42,0 -0.69,0.33 -0.69,0.97 0,0.64 0.27,0.97 0.69,0.97 0.41,0 0.68,-0.33 0.68,-0.97 m -3.22,0.76 v -3.06 l 0.5,-0.18 v 3.18 c 0,0.15 0.06,0.22 0.18,0.22 0.07,0 0.14,-0.03 0.21,-0.08 l 0.13,0.35 c -0.14,0.1 -0.31,0.16 -0.52,0.16 -0.3,0 -0.5,-0.2 -0.5,-0.6 m -0.39,0.44 c -0.12,0.1 -0.3,0.16 -0.46,0.16 -0.23,0 -0.4,-0.13 -0.44,-0.4 -0.25,0.26 -0.56,0.4 -0.93,0.4 -0.46,0 -0.78,-0.25 -0.78,-0.68 0,-0.52 0.55,-0.97 1.6,-0.9 v -0.18 c 0,-0.3 -0.16,-0.51 -0.5,-0.51 -0.26,0 -0.54,0.07 -0.84,0.2 l -0.14,-0.37 c 0.33,-0.16 0.69,-0.26 1.07,-0.26 0.59,0 0.92,0.33 0.92,0.9 v 1.15 c 0,0.15 0.06,0.22 0.16,0.22 0.08,0 0.15,-0.03 0.22,-0.08 z m -1.01,-0.57 v -0.5 c -0.67,-0.05 -1.08,0.15 -1.08,0.5 0,0.2 0.15,0.32 0.4,0.32 a 0.9,0.9 0 0 0 0.68,-0.32 z m -0.92,-2.25 -0.13,-0.36 1.18,-0.48 0.15,0.44 -1.2,0.4 m -2.37,1.27 c 0,-0.24 0,-0.37 -0.1,-0.84 l 0.34,-0.12 0.18,0.57 c 0.13,-0.31 0.44,-0.6 0.78,-0.6 0.15,0 0.26,0.03 0.35,0.07 l -0.2,0.56 a 0.58,0.58 0 0 0 -0.26,-0.07 c -0.23,0 -0.46,0.19 -0.58,0.46 v 1.6 h -0.5 v -1.62 m -3.14,-1.71 h 0.53 v 3.34 h -0.53 z m 2.78,3.34 h -0.65 l -1.45,-1.6 1.45,-1.74 h 0.57 l -1.44,1.69 1.53,1.64 m -6.73,-1.27 c 0,-0.84 0.5,-1.35 1.25,-1.35 0.3,0 0.58,0.08 0.83,0.18 l -0.13,0.38 c -0.22,-0.09 -0.4,-0.13 -0.62,-0.13 -0.47,0 -0.8,0.33 -0.8,0.92 0,0.59 0.33,0.92 0.8,0.92 0.2,0 0.43,-0.05 0.67,-0.16 l 0.13,0.38 c -0.27,0.13 -0.57,0.2 -0.86,0.2 -0.77,0 -1.27,-0.5 -1.27,-1.34 m -0.54,0.19 h -1.76 c 0.07,0.5 0.41,0.74 0.92,0.74 0.25,0 0.48,-0.07 0.7,-0.16 l 0.13,0.33 c -0.26,0.15 -0.58,0.25 -0.91,0.25 -0.8,0 -1.38,-0.47 -1.38,-1.35 0,-0.83 0.52,-1.35 1.26,-1.35 0.92,0 1.21,0.77 1.04,1.54 z m -1.76,-0.4 h 1.32 c 0.03,-0.45 -0.2,-0.76 -0.6,-0.76 -0.39,0 -0.66,0.28 -0.72,0.77 m -3.5,0.22 c 0,-0.8 0.49,-1.37 1.2,-1.37 0.23,0 0.48,0.06 0.65,0.16 v -1.11 l 0.52,-0.18 v 2.9 c 0,0.25 0,0.38 0.1,0.79 l -0.33,0.12 -0.17,-0.42 c -0.23,0.27 -0.52,0.44 -0.85,0.44 -0.6,0 -1.12,-0.45 -1.12,-1.33 z m 1.85,0.54 v -1.35 c -0.16,-0.1 -0.37,-0.15 -0.55,-0.15 -0.45,0 -0.76,0.37 -0.76,0.96 0,0.58 0.3,0.9 0.7,0.9 0.23,0 0.44,-0.13 0.61,-0.36 m -1.99,0.63 c -0.12,0.1 -0.3,0.16 -0.46,0.16 -0.23,0 -0.4,-0.13 -0.44,-0.4 -0.26,0.26 -0.56,0.4 -0.93,0.4 -0.46,0 -0.78,-0.25 -0.78,-0.68 0,-0.52 0.55,-0.97 1.6,-0.9 v -0.18 c 0,-0.3 -0.16,-0.51 -0.51,-0.51 -0.25,0 -0.53,0.07 -0.84,0.2 l -0.14,-0.37 c 0.34,-0.16 0.7,-0.26 1.08,-0.26 0.58,0 0.92,0.33 0.92,0.9 v 1.15 c 0,0.15 0.05,0.22 0.16,0.22 0.07,0 0.15,-0.03 0.22,-0.08 z m -1.01,-0.57 v -0.5 c -0.67,-0.05 -1.09,0.15 -1.09,0.5 0,0.2 0.16,0.32 0.41,0.32 a 0.9,0.9 0 0 0 0.68,-0.32 m -3.3,-0.98 c 0,-0.24 0,-0.37 -0.1,-0.84 l 0.34,-0.12 0.19,0.57 c 0.12,-0.31 0.44,-0.6 0.78,-0.6 0.15,0 0.26,0.03 0.35,0.07 l -0.2,0.56 a 0.58,0.58 0 0 0 -0.26,-0.07 c -0.24,0 -0.47,0.19 -0.58,0.46 v 1.6 h -0.51 v -1.62 m -3.6,-1.71 h 0.53 v 1.44 h 1.76 v -1.45 h 0.52 v 3.34 h -0.52 v -1.46 h -1.75 v 1.46 h -0.53 v -3.34 m -1.67,3.26 c -0.13,0.1 -0.3,0.16 -0.47,0.16 -0.22,0 -0.4,-0.13 -0.44,-0.4 -0.25,0.26 -0.56,0.4 -0.93,0.4 -0.45,0 -0.78,-0.25 -0.78,-0.68 0,-0.52 0.55,-0.97 1.6,-0.9 v -0.18 c 0,-0.3 -0.16,-0.51 -0.5,-0.51 -0.26,0 -0.54,0.07 -0.84,0.2 l -0.14,-0.37 c 0.33,-0.16 0.69,-0.26 1.07,-0.26 0.59,0 0.92,0.33 0.92,0.9 v 1.15 c 0,0.15 0.06,0.22 0.17,0.22 0.07,0 0.14,-0.03 0.21,-0.08 z m -1.02,-0.57 v -0.5 c -0.67,-0.05 -1.08,0.15 -1.08,0.5 0,0.2 0.16,0.32 0.4,0.32 a 0.9,0.9 0 0 0 0.68,-0.32 m -3.38,0.01 v -1.51 h -0.45 v -0.4 h 0.45 v -0.6 l 0.51,-0.19 v 0.8 h 0.85 v 0.39 h -0.85 v 1.42 c 0,0.23 0.13,0.35 0.33,0.35 0.16,0 0.3,-0.06 0.45,-0.14 l 0.14,0.38 c -0.2,0.12 -0.45,0.22 -0.72,0.22 -0.42,0 -0.71,-0.26 -0.71,-0.72 m -1.56,-2.68 c 0,-0.18 0.12,-0.33 0.33,-0.33 0.2,0 0.33,0.15 0.33,0.33 0,0.18 -0.13,0.32 -0.33,0.32 -0.2,0 -0.33,-0.14 -0.33,-0.32 z m 0.07,0.89 0.52,-0.18 v 2.61 h -0.52 v -2.42 m -2.65,2.1 1.38,-1.82 h -1.39 l 0.14,-0.4 h 1.9 v 0.32 l -1.38,1.83 h 1.46 l -0.14,0.4 h -1.97 v -0.33 m -1.76,-1.3 c 0,-0.25 -0.01,-0.38 -0.1,-0.85 l 0.33,-0.12 0.19,0.57 c 0.12,-0.31 0.44,-0.6 0.78,-0.6 0.15,0 0.26,0.03 0.35,0.07 l -0.2,0.56 a 0.58,0.58 0 0 0 -0.26,-0.07 c -0.24,0 -0.47,0.19 -0.58,0.46 v 1.6 h -0.51 v -1.62 m -0.7,0.55 h -1.76 c 0.07,0.5 0.41,0.74 0.93,0.74 0.24,0 0.47,-0.07 0.7,-0.16 l 0.12,0.33 c -0.26,0.15 -0.58,0.25 -0.91,0.25 -0.8,0 -1.38,-0.47 -1.38,-1.35 0,-0.83 0.53,-1.35 1.26,-1.35 0.92,0 1.22,0.77 1.04,1.54 z m -1.76,-0.4 h 1.32 c 0.03,-0.45 -0.2,-0.76 -0.6,-0.76 -0.38,0 -0.66,0.28 -0.72,0.77 m -0.69,-1.07 -1.07,2.54 h -0.53 l -1.07,-2.54 h 0.57 l 0.79,2.11 0.77,-2.11 h 0.54 m -3.69,-0.78 c 0,-0.18 0.12,-0.33 0.33,-0.33 0.2,0 0.33,0.15 0.33,0.33 0,0.18 -0.13,0.32 -0.33,0.32 -0.2,0 -0.33,-0.14 -0.33,-0.32 z m 0.07,0.89 0.52,-0.18 v 2.61 h -0.52 v -2.43 m -0.75,0.68 v 1.75 h -0.51 v -1.65 c 0,-0.32 -0.21,-0.52 -0.5,-0.52 -0.28,0 -0.55,0.15 -0.76,0.35 v 1.81 h -0.51 v -1.7 c 0,-0.24 -0.01,-0.37 -0.1,-0.78 l 0.33,-0.11 0.18,0.43 c 0.28,-0.28 0.61,-0.46 1.02,-0.46 0.47,0 0.85,0.34 0.85,0.87 m -5.77,0.43 v -2.02 h 0.52 v 2.04 c 0,0.57 0.33,0.92 0.87,0.92 0.55,0 0.87,-0.35 0.87,-0.92 v -2.04 h 0.52 v 2.02 c 0,0.86 -0.52,1.38 -1.39,1.38 -0.86,0 -1.39,-0.52 -1.39,-1.38"
     id="path4"
     inkscape:connector-curvature="0" />
</svg>
