<svg xmlns="http://www.w3.org/2000/svg" viewBox="0 0 78.85 12.7"><path d="M12.03 5.14l-.96-.36c-.02.98-.37 1.64-.95 1.64-1.07 0-2.77-1.4-3.9-1.4-1.1 0-1.95.91-1.9 2.54l.95.36c.02-.98.37-1.64.95-1.64 1.07 0 2.77 1.4 3.9 1.4 1.1 0 1.95-.91 1.9-2.54" fill="#fab219"/><path d="M12.69 10.87h-1.47l-.63 1.72h2.1l1.72-1.72v-2.8l1.72-1.72-1.72-1.72v-2.8L12.69.11h-2.1l.63 1.72h1.47v2.8l1.72 1.72-1.72 1.72v2.8M1.93 8.07v2.8l1.72 1.72h2.1l-.63-1.72H3.65v-2.8L1.93 6.35l1.72-1.72v-2.8h1.47L5.75.11h-2.1L1.93 1.83v2.8L.21 6.35l1.72 1.72m70.8 2.48c-.13.1-.3.17-.47.17-.23 0-.4-.13-.44-.4-.25.26-.56.4-.93.4-.46 0-.78-.25-.78-.68 0-.52.55-.97 1.6-.9v-.19c0-.3-.16-.5-.5-.5-.26 0-.54.07-.84.2l-.14-.38c.33-.15.69-.25 1.07-.25.59 0 .92.32.92.9v1.15c0 .15.06.22.17.22.07 0 .14-.03.21-.08zM71.7 10v-.5c-.67-.05-1.08.15-1.08.5 0 .2.16.32.4.32a.9.9 0 0 0 .68-.32m-3.38.01V8.5h-.45v-.4h.45v-.6l.5-.19v.8h.86v.39h-.85V9.9c0 .23.13.35.33.35a.9.9 0 0 0 .45-.14l.14.37c-.2.13-.45.23-.72.23-.42 0-.71-.26-.71-.72m-1.65.13V7.06l.5-.17v3.18c0 .15.06.22.18.22.07 0 .14-.03.21-.08l.13.34a.85.85 0 0 1-.52.17c-.3 0-.5-.2-.5-.6m-1 .57l-.17-.43c-.29.27-.62.46-1.03.46a.83.83 0 0 1-.85-.87V8.1h.52v1.64c0 .32.2.52.5.52.28 0 .54-.15.75-.35V8.1h.51v1.7c0 .24.02.37.11.78l-.34.11m-4.77-3.63l.51-.17v3.75h-.51zm2.3 3.58h-.59l-1.14-1.32 1.11-1.22h.56l-1.12 1.2 1.18 1.34m-2.7-.09c-.13.1-.31.17-.47.17-.23 0-.4-.13-.44-.4-.26.26-.56.4-.93.4-.46 0-.78-.25-.78-.68 0-.52.55-.97 1.6-.9v-.19c0-.3-.16-.5-.51-.5-.25 0-.53.07-.83.2L58 8.27c.34-.15.7-.25 1.08-.25.59 0 .92.32.92.9v1.15c0 .15.06.22.16.22.07 0 .15-.03.22-.08zM59.48 10v-.5c-.67-.05-1.08.15-1.08.5 0 .2.15.32.4.32a.9.9 0 0 0 .68-.32m-2.62-2.22v.33h.73v.39h-.73v2.15h-.52V8.5h-.41v-.4h.41v-.37c0-.5.35-.82.81-.82.26 0 .5.06.7.16l-.15.4a1.01 1.01 0 0 0-.45-.13c-.24 0-.4.17-.4.44m-2.27 2.78c-.13.1-.31.17-.47.17-.23 0-.4-.13-.44-.4-.25.26-.56.4-.93.4-.46 0-.78-.25-.78-.68 0-.52.55-.97 1.6-.9v-.19c0-.3-.16-.5-.5-.5-.26 0-.54.07-.84.2l-.14-.38c.33-.15.69-.25 1.07-.25.59 0 .92.32.92.9v1.15c0 .15.06.22.16.22.08 0 .15-.03.22-.08zM53.57 10v-.5c-.67-.05-1.08.15-1.08.5 0 .2.15.32.4.32.26 0 .51-.12.68-.32zm-.92-2.25l-.13-.36 1.18-.48.15.44-1.2.4m-3.19-.68l.51-.17v3.75h-.51zm2.3 3.58h-.59l-1.14-1.32 1.11-1.22h.56l-1.12 1.2 1.18 1.34m-5-1.27c0-.84.5-1.35 1.25-1.35.3 0 .58.08.84.18l-.14.38c-.22-.09-.4-.13-.62-.13-.47 0-.8.33-.8.92 0 .59.33.92.8.92.21 0 .43-.06.67-.16l.14.38c-.28.13-.58.2-.87.2-.77 0-1.27-.5-1.27-1.34m-.54.19h-1.76c.07.5.41.74.93.74.24 0 .47-.07.7-.16l.12.33c-.26.15-.58.25-.91.25-.8 0-1.38-.48-1.38-1.35 0-.83.53-1.35 1.26-1.35.92 0 1.22.77 1.04 1.54zm-1.76-.4h1.32c.03-.45-.2-.76-.6-.76-.38 0-.66.28-.72.77m-3.5.22c0-.8.49-1.37 1.2-1.37.23 0 .48.06.65.16V7.06l.52-.17v2.9c0 .25 0 .38.1.79l-.33.12-.17-.42c-.23.26-.52.44-.85.44-.6 0-1.11-.45-1.11-1.33zm1.85.54V8.58a1.1 1.1 0 0 0-.55-.15c-.45 0-.76.37-.76.96 0 .58.3.9.7.9.23 0 .44-.13.61-.36m-2.38-.37h-1.76c.07.5.41.74.92.74.25 0 .48-.07.7-.16l.13.33c-.26.15-.58.25-.91.25-.8 0-1.38-.48-1.38-1.35 0-.83.52-1.35 1.26-1.35.92 0 1.21.77 1.04 1.54zM39.19 7.8l-.66-.7.32-.11.53.46.53-.46.33.12-.66.69zm-.52 1.36h1.32c.03-.46-.2-.77-.6-.77-.39 0-.66.28-.72.77m-.69-1.07l-1.07 2.54h-.53L35.31 8.1h.57l.79 2.1.77-2.1h.54m-5.27 1.27c0-.84.48-1.35 1.22-1.35.75 0 1.23.51 1.23 1.35 0 .83-.48 1.35-1.23 1.35-.74 0-1.22-.52-1.22-1.35zm1.91 0c0-.64-.27-.97-.69-.97-.41 0-.68.33-.68.97 0 .64.27.97.68.97.42 0 .7-.33.7-.97m-4.88.02c0-.8.49-1.37 1.2-1.37.23 0 .48.06.65.16V7.06l.52-.17v2.9c0 .25 0 .38.1.79l-.33.12-.17-.42c-.23.26-.52.44-.85.44-.6 0-1.12-.45-1.12-1.33zm1.85.54V8.58a1.1 1.1 0 0 0-.55-.15c-.45 0-.76.37-.76.96 0 .58.3.9.7.9.23 0 .44-.13.61-.36m-4.76-.56c0-.84.49-1.35 1.23-1.35s1.23.51 1.23 1.35c0 .83-.49 1.35-1.23 1.35s-1.23-.52-1.23-1.35zm1.91 0c0-.64-.27-.97-.68-.97-.42 0-.68.33-.68.97 0 .64.26.97.68.97.41 0 .68-.33.68-.97m-3.67-.36c0-.24-.01-.37-.1-.84l.33-.13.19.58c.12-.32.44-.6.78-.6.15 0 .26.02.35.07l-.2.55a.58.58 0 0 0-.26-.06c-.24 0-.46.19-.58.46v1.6h-.5V9.01m-1.66-1.63l1.18-.48.16.44-1.2.4zm.33.83l.51-.18v2.61h-.51V8.21M21.85 7l.53.46.53-.46.33.12-.66.69h-.4l-.66-.7zM21.73 9c0-.24-.01-.37-.1-.84l.33-.13.18.58c.13-.32.45-.6.79-.6.14 0 .26.02.35.07l-.2.55a.58.58 0 0 0-.27-.06c-.23 0-.46.19-.57.46v1.6h-.51V9.01M18.79 7.3h1.28c.7 0 1.15.44 1.15 1.13s-.45 1.13-1.15 1.13h-.76v1.08h-.52zm1.16 1.88c.48 0 .75-.28.75-.74 0-.47-.27-.73-.75-.73h-.64v1.47h.64m58.64-5.04h-1.76c.07.5.41.74.92.74.25 0 .48-.07.7-.16l.13.33c-.26.15-.58.25-.91.25-.8 0-1.38-.47-1.38-1.35 0-.83.52-1.35 1.26-1.35.92 0 1.22.77 1.04 1.54zm-1.76-.4h1.32c.03-.45-.2-.76-.6-.76-.38 0-.66.28-.72.77zm.26-1.42l-.13-.36 1.18-.48.15.44-1.2.4m-.95.36l-1.07 2.54h-.53l-1.07-2.54h.57l.79 2.11.77-2.11h.54m-5.27 1.27c0-.84.48-1.35 1.23-1.35.74 0 1.23.51 1.23 1.35 0 .84-.49 1.35-1.23 1.35-.75 0-1.23-.51-1.23-1.35zm1.91 0c0-.64-.27-.97-.68-.97-.42 0-.69.33-.69.97 0 .64.27.97.69.97.41 0 .68-.33.68-.97m-3.22.76V1.65l.5-.18v3.18c0 .15.06.22.18.22.07 0 .14-.03.21-.08l.13.35c-.14.1-.31.16-.52.16-.3 0-.5-.2-.5-.6m-.39.44c-.12.1-.3.16-.46.16-.23 0-.4-.13-.44-.4-.25.26-.56.4-.93.4-.46 0-.78-.25-.78-.68 0-.52.55-.97 1.6-.9v-.18c0-.3-.16-.51-.5-.51-.26 0-.54.07-.84.2l-.14-.37c.33-.16.69-.26 1.07-.26.59 0 .92.33.92.9v1.15c0 .15.06.22.16.22.08 0 .15-.03.22-.08zm-1.01-.57v-.5c-.67-.05-1.08.15-1.08.5 0 .2.15.32.4.32a.9.9 0 0 0 .68-.32zm-.92-2.25l-.13-.36 1.18-.48.15.44-1.2.4m-2.37 1.27c0-.24 0-.37-.1-.84l.34-.12.18.57c.13-.31.44-.6.78-.6.15 0 .26.03.35.07l-.2.56a.58.58 0 0 0-.26-.07c-.23 0-.46.19-.58.46v1.6h-.5V3.6m-3.14-1.71h.53v3.34h-.53zm2.78 3.34h-.65l-1.45-1.6 1.45-1.74h.57L63 3.58l1.53 1.64M57.8 3.95c0-.84.5-1.35 1.25-1.35.3 0 .58.08.83.18l-.13.38c-.22-.09-.4-.13-.62-.13-.47 0-.8.33-.8.92 0 .59.33.92.8.92.2 0 .43-.05.67-.16l.13.38c-.27.13-.57.2-.86.2-.77 0-1.27-.5-1.27-1.34m-.54.19H55.5c.07.5.41.74.92.74.25 0 .48-.07.7-.16l.13.33c-.26.15-.58.25-.91.25-.8 0-1.38-.47-1.38-1.35 0-.83.52-1.35 1.26-1.35.92 0 1.21.77 1.04 1.54zm-1.76-.4h1.32c.03-.45-.2-.76-.6-.76-.39 0-.66.28-.72.77m-3.5.22c0-.8.49-1.37 1.2-1.37.23 0 .48.06.65.16V1.65l.52-.18v2.9c0 .25 0 .38.1.79l-.33.12-.17-.42c-.23.27-.52.44-.85.44-.6 0-1.12-.45-1.12-1.33zm1.85.54V3.16c-.16-.1-.37-.15-.55-.15-.45 0-.76.37-.76.96 0 .58.3.9.7.9.23 0 .44-.13.61-.36m-1.99.63c-.12.1-.3.16-.46.16-.23 0-.4-.13-.44-.4-.26.26-.56.4-.93.4-.46 0-.78-.25-.78-.68 0-.52.55-.97 1.6-.9v-.18c0-.3-.16-.51-.51-.51-.25 0-.53.07-.84.2l-.14-.37c.34-.16.7-.26 1.08-.26.58 0 .92.33.92.9v1.15c0 .15.05.22.16.22.07 0 .15-.03.22-.08zm-1.01-.57v-.5c-.67-.05-1.09.15-1.09.5 0 .2.16.32.41.32a.9.9 0 0 0 .68-.32m-3.3-.98c0-.24 0-.37-.1-.84l.34-.12.19.57c.12-.31.44-.6.78-.6.15 0 .26.03.35.07l-.2.56a.58.58 0 0 0-.26-.07c-.24 0-.47.19-.58.46v1.6h-.51V3.6m-3.6-1.71h.53v1.44h1.76V1.88h.52v3.34h-.52V3.76H44.5v1.46h-.53V1.88M42.3 5.14c-.13.1-.3.16-.47.16-.22 0-.4-.13-.44-.4-.25.26-.56.4-.93.4-.45 0-.78-.25-.78-.68 0-.52.55-.97 1.6-.9v-.18c0-.3-.16-.51-.5-.51-.26 0-.54.07-.84.2l-.14-.37c.33-.16.69-.26 1.07-.26.59 0 .92.33.92.9v1.15c0 .15.06.22.17.22.07 0 .14-.03.21-.08zm-1.02-.57v-.5c-.67-.05-1.08.15-1.08.5 0 .2.16.32.4.32a.9.9 0 0 0 .68-.32m-3.38.01V3.07h-.45v-.4h.45v-.6l.51-.19v.8h.85v.39h-.85v1.42c0 .23.13.35.33.35.16 0 .3-.06.45-.14l.14.38c-.2.12-.45.22-.72.22-.42 0-.71-.26-.71-.72M36.34 1.9c0-.18.12-.33.33-.33.2 0 .33.15.33.33 0 .18-.13.32-.33.32s-.33-.14-.33-.32zm.07.89l.52-.18v2.61h-.52V2.8m-2.65 2.1l1.38-1.82h-1.39l.14-.4h1.9V3l-1.38 1.83h1.46l-.14.4h-1.97V4.9M32 3.6c0-.25-.01-.38-.1-.85l.33-.12.19.57c.12-.31.44-.6.78-.6.15 0 .26.03.35.07l-.2.56a.58.58 0 0 0-.26-.07c-.24 0-.47.19-.58.46v1.6H32V3.6m-.7.55h-1.76c.07.5.41.74.93.74.24 0 .47-.07.7-.16l.12.33c-.26.15-.58.25-.91.25-.8 0-1.38-.47-1.38-1.35 0-.83.53-1.35 1.26-1.35.92 0 1.22.77 1.04 1.54zm-1.76-.4h1.32c.03-.45-.2-.76-.6-.76-.38 0-.66.28-.72.77m-.69-1.07l-1.07 2.54h-.53l-1.07-2.54h.57l.79 2.11.77-2.11h.54m-3.69-.78c0-.18.12-.33.33-.33.2 0 .33.15.33.33 0 .18-.13.32-.33.32s-.33-.14-.33-.32zm.07.89l.52-.18v2.61h-.52V2.8m-.75.68v1.75h-.51V3.58c0-.32-.21-.52-.5-.52-.28 0-.55.15-.76.35v1.81h-.51v-1.7c0-.24-.01-.37-.1-.78l.33-.11.18.43c.28-.28.61-.46 1.02-.46.47 0 .85.34.85.87m-5.77.43V1.88h.52v2.04c0 .57.33.92.87.92.55 0 .87-.35.87-.92V1.88h.52V3.9c0 .86-.52 1.38-1.39 1.38-.86 0-1.39-.52-1.39-1.38"/></svg>